<svg xmlns="http://www.w3.org/2000/svg" width="1140" height="1141.501" viewBox="0 0 1140 1141.501">
  <g id="Grupo_1150" data-name="Grupo 1150" transform="translate(0.337 0.057)" opacity="0.045">
    <rect id="Rect치ngulo_859" data-name="Rect치ngulo 859" width="1140" height="1140" transform="translate(-0.337 -0.057)" fill="#e0f4fc"/>
    <path id="Trazado_1179" data-name="Trazado 1179" d="M2923.147,474.007H2747.06a48.188,48.188,0,0,0-48.134,48.133V648.381a1.671,1.671,0,0,0,3.342,0V522.14a44.842,44.842,0,0,1,44.792-44.792h176.087a49.385,49.385,0,0,1,49.385,49.385v36.492a1.671,1.671,0,0,0,3.342,0V526.734a52.727,52.727,0,0,0-52.727-52.727Z" transform="translate(-2083.775 -365.939)" fill="#a2dfff"/>
    <path id="Trazado_1180" data-name="Trazado 1180" d="M908.505,1255.632a52.261,52.261,0,0,0-5.379,1.215,1.71,1.71,0,1,0,.929,3.291,48.805,48.805,0,0,1,5.026-1.135,1.71,1.71,0,0,0-.576-3.37Z" transform="translate(-696.352 -969.379)" fill="#fff"/>
    <path id="Trazado_1181" data-name="Trazado 1181" d="M744.077,1429.052a1.71,1.71,0,0,0-2.023,1.323,52.517,52.517,0,0,0-.842,5.449,1.709,1.709,0,0,0,1.529,1.873c.059.006.116.009.174.009a1.71,1.71,0,0,0,1.7-1.537,49.076,49.076,0,0,1,.788-5.093A1.71,1.71,0,0,0,744.077,1429.052Z" transform="translate(-572.299 -1103.26)" fill="#fff"/>
    <path id="Trazado_1182" data-name="Trazado 1182" d="M741.774,1495.025a1.71,1.71,0,0,0-1.71,1.71v5.338a1.71,1.71,0,0,0,3.419,0v-5.338A1.71,1.71,0,0,0,741.774,1495.025Z" transform="translate(-571.42 -1154.224)" fill="#fff"/>
    <path id="Trazado_1183" data-name="Trazado 1183" d="M847.245,1276.539a52.566,52.566,0,0,0-4.778,2.75,1.71,1.71,0,1,0,1.859,2.87,49.03,49.03,0,0,1,4.466-2.57,1.71,1.71,0,1,0-1.547-3.049Z" transform="translate(-649.878 -985.397)" fill="#fff"/>
    <path id="Trazado_1184" data-name="Trazado 1184" d="M796.308,1315.154a52.83,52.83,0,0,0-3.764,4.029,1.709,1.709,0,1,0,2.617,2.2,49.476,49.476,0,0,1,3.52-3.767,1.71,1.71,0,0,0-2.373-2.462Z" transform="translate(-611.628 -1014.983)" fill="#fff"/>
    <path id="Trazado_1185" data-name="Trazado 1185" d="M762.46,1367.293a1.709,1.709,0,0,0-2.324.666,52.314,52.314,0,0,0-2.417,4.958,1.71,1.71,0,1,0,3.148,1.333,48.962,48.962,0,0,1,2.259-4.633A1.709,1.709,0,0,0,762.46,1367.293Z" transform="translate(-584.946 -1055.441)" fill="#fff"/>
    <path id="Trazado_1186" data-name="Trazado 1186" d="M741.774,1893.127a1.709,1.709,0,0,0-1.71,1.709v5.338a1.71,1.71,0,1,0,3.419,0v-5.338A1.709,1.709,0,0,0,741.774,1893.127Z" transform="translate(-571.42 -1461.581)" fill="#fff"/>
    <path id="Trazado_1187" data-name="Trazado 1187" d="M741.774,1760.426a1.71,1.71,0,0,0-1.71,1.709v5.338a1.71,1.71,0,1,0,3.419,0v-5.338A1.71,1.71,0,0,0,741.774,1760.426Z" transform="translate(-571.42 -1359.128)" fill="#fff"/>
    <path id="Trazado_1188" data-name="Trazado 1188" d="M741.774,1561.376a1.709,1.709,0,0,0-1.71,1.709v5.338a1.71,1.71,0,1,0,3.419,0v-5.338A1.709,1.709,0,0,0,741.774,1561.376Z" transform="translate(-571.42 -1205.45)" fill="#fff"/>
    <path id="Trazado_1189" data-name="Trazado 1189" d="M741.774,1627.726a1.709,1.709,0,0,0-1.71,1.71v5.338a1.71,1.71,0,1,0,3.419,0v-5.338A1.709,1.709,0,0,0,741.774,1627.726Z" transform="translate(-571.42 -1256.676)" fill="#fff"/>
    <path id="Trazado_1190" data-name="Trazado 1190" d="M741.774,1694.076a1.71,1.71,0,0,0-1.71,1.71v5.338a1.71,1.71,0,1,0,3.419,0v-5.338A1.71,1.71,0,0,0,741.774,1694.076Z" transform="translate(-571.42 -1307.902)" fill="#fff"/>
    <path id="Trazado_1191" data-name="Trazado 1191" d="M741.774,1826.776a1.71,1.71,0,0,0-1.71,1.71v5.338a1.71,1.71,0,1,0,3.419,0v-5.338A1.71,1.71,0,0,0,741.774,1826.776Z" transform="translate(-571.42 -1410.354)" fill="#fff"/>
    <path id="Trazado_1192" data-name="Trazado 1192" d="M1372.6,1252.423h-5.338a1.71,1.71,0,1,0,0,3.419h5.338a1.71,1.71,0,1,0,0-3.419Z" transform="translate(-1054.331 -966.921)" fill="#fff"/>
    <path id="Trazado_1193" data-name="Trazado 1193" d="M974.5,1252.423h-5.338a1.71,1.71,0,1,0,0,3.419H974.5a1.71,1.71,0,1,0,0-3.419Z" transform="translate(-746.974 -966.921)" fill="#fff"/>
    <path id="Trazado_1194" data-name="Trazado 1194" d="M1571.648,1252.423h-5.338a1.71,1.71,0,1,0,0,3.419h5.338a1.71,1.71,0,1,0,0-3.419Z" transform="translate(-1208.01 -966.921)" fill="#fff"/>
    <path id="Trazado_1195" data-name="Trazado 1195" d="M1505.3,1252.423h-5.338a1.71,1.71,0,1,0,0,3.419h5.338a1.71,1.71,0,1,0,0-3.419Z" transform="translate(-1156.784 -966.921)" fill="#fff"/>
    <path id="Trazado_1196" data-name="Trazado 1196" d="M1704.348,1252.423h-5.338a1.71,1.71,0,0,0,0,3.419h5.338a1.71,1.71,0,1,0,0-3.419Z" transform="translate(-1310.462 -966.921)" fill="#fff"/>
    <path id="Trazado_1197" data-name="Trazado 1197" d="M1638,1252.423h-5.338a1.71,1.71,0,1,0,0,3.419H1638a1.71,1.71,0,0,0,0-3.419Z" transform="translate(-1259.236 -966.921)" fill="#fff"/>
    <path id="Trazado_1198" data-name="Trazado 1198" d="M1438.948,1252.423h-5.338a1.71,1.71,0,1,0,0,3.419h5.338a1.71,1.71,0,0,0,0-3.419Z" transform="translate(-1105.557 -966.921)" fill="#fff"/>
    <path id="Trazado_1199" data-name="Trazado 1199" d="M1040.845,1252.423h-5.338a1.71,1.71,0,1,0,0,3.419h5.338a1.71,1.71,0,0,0,0-3.419Z" transform="translate(-798.2 -966.921)" fill="#fff"/>
    <path id="Trazado_1200" data-name="Trazado 1200" d="M1107.2,1252.423h-5.338a1.71,1.71,0,1,0,0,3.419h5.338a1.71,1.71,0,0,0,0-3.419Z" transform="translate(-849.426 -966.921)" fill="#fff"/>
    <path id="Trazado_1201" data-name="Trazado 1201" d="M1239.9,1252.423h-5.338a1.71,1.71,0,1,0,0,3.419h5.338a1.71,1.71,0,0,0,0-3.419Z" transform="translate(-951.879 -966.921)" fill="#fff"/>
    <path id="Trazado_1202" data-name="Trazado 1202" d="M1173.547,1252.423h-5.338a1.71,1.71,0,1,0,0,3.419h5.338a1.71,1.71,0,1,0,0-3.419Z" transform="translate(-900.653 -966.921)" fill="#fff"/>
    <path id="Trazado_1203" data-name="Trazado 1203" d="M1306.247,1252.423h-5.338a1.71,1.71,0,0,0,0,3.419h5.338a1.71,1.71,0,1,0,0-3.419Z" transform="translate(-1003.105 -966.921)" fill="#fff"/>
    <g id="Grupo_1007" data-name="Grupo 1007" transform="translate(188.411 380.067)">
      <path id="Trazado_1204" data-name="Trazado 1204" d="M892.822,1667.284a66.039,66.039,0,1,0,46.7,19.342A65.606,65.606,0,0,0,892.822,1667.284ZM937.1,1777.6a62.619,62.619,0,1,1,18.341-44.278A62.208,62.208,0,0,1,937.1,1777.6Z" transform="translate(-826.784 -1667.284)" fill="#fff"/>
      <path id="Trazado_1205" data-name="Trazado 1205" d="M967.226,1763.654a44.072,44.072,0,1,0,44.072,44.072A44.122,44.122,0,0,0,967.226,1763.654Zm0,84.724a40.653,40.653,0,1,1,40.653-40.653A40.7,40.7,0,0,1,967.226,1848.378Z" transform="translate(-901.187 -1741.687)" fill="#fff"/>
      <path id="Trazado_1206" data-name="Trazado 1206" d="M1047.266,1867.325a20.441,20.441,0,1,0,20.441,20.441A20.464,20.464,0,0,0,1047.266,1867.325Zm0,37.462a17.022,17.022,0,1,1,17.022-17.022A17.041,17.041,0,0,1,1047.266,1904.787Z" transform="translate(-981.227 -1821.727)" fill="#fff"/>
    </g>
    <g id="Grupo_1009" data-name="Grupo 1009" transform="translate(848.735 895.62)">
      <g id="Grupo_1008" data-name="Grupo 1008">
        <path id="Trazado_1207" data-name="Trazado 1207" d="M3854.731,3984.948h-16.424a46.5,46.5,0,0,0-2.9-7.013l11.609-11.609a9.331,9.331,0,0,0,0-13.2l-7.03-7.03a9.331,9.331,0,0,0-13.2,0l-11.61,11.609a46.441,46.441,0,0,0-7.012-2.9v-16.423a9.342,9.342,0,0,0-9.331-9.331H3788.9a9.342,9.342,0,0,0-9.331,9.331v16.423a46.468,46.468,0,0,0-7.012,2.9l-11.609-11.609a9.331,9.331,0,0,0-13.2,0l-7.03,7.03a9.331,9.331,0,0,0,0,13.2l11.61,11.609a46.452,46.452,0,0,0-2.9,7.013h-16.424a9.341,9.341,0,0,0-9.331,9.331v9.942a9.342,9.342,0,0,0,9.331,9.331h16.424a46.467,46.467,0,0,0,2.9,7.012l-11.61,11.61a9.331,9.331,0,0,0,0,13.2l7.031,7.03a9.342,9.342,0,0,0,13.2,0l11.609-11.61a46.479,46.479,0,0,0,7.012,2.9v16.423a9.342,9.342,0,0,0,9.331,9.331h9.942a9.342,9.342,0,0,0,9.331-9.331v-16.423a46.5,46.5,0,0,0,7.012-2.9l11.61,11.609a9.331,9.331,0,0,0,13.2,0l7.03-7.03a9.331,9.331,0,0,0,0-13.2l-11.609-11.61a46.465,46.465,0,0,0,2.9-7.012h16.424a9.342,9.342,0,0,0,9.331-9.331v-9.942A9.341,9.341,0,0,0,3854.731,3984.948Zm5.99,19.272a6,6,0,0,1-5.99,5.989h-17.659a1.671,1.671,0,0,0-1.6,1.2,43.1,43.1,0,0,1-3.58,8.655,1.671,1.671,0,0,0,.283,1.985l12.483,12.483a5.989,5.989,0,0,1,0,8.47l-7.03,7.03a5.989,5.989,0,0,1-8.469,0l-12.483-12.483a1.671,1.671,0,0,0-1.985-.283,43.167,43.167,0,0,1-8.655,3.58,1.671,1.671,0,0,0-1.2,1.6v17.659a6,6,0,0,1-5.989,5.989H3788.9a6,6,0,0,1-5.99-5.989v-17.659a1.67,1.67,0,0,0-1.2-1.6,43.117,43.117,0,0,1-8.655-3.58,1.671,1.671,0,0,0-1.985.283l-12.483,12.483a6,6,0,0,1-8.47,0l-7.03-7.03a5.988,5.988,0,0,1,0-8.47l12.483-12.483a1.671,1.671,0,0,0,.283-1.985,43.127,43.127,0,0,1-3.58-8.655,1.67,1.67,0,0,0-1.6-1.2h-17.659a6,6,0,0,1-5.989-5.989v-9.942a6,6,0,0,1,5.989-5.989h17.659a1.67,1.67,0,0,0,1.6-1.2,43.116,43.116,0,0,1,3.58-8.655,1.671,1.671,0,0,0-.283-1.986l-12.483-12.483a5.988,5.988,0,0,1,0-8.469l7.03-7.03a6,6,0,0,1,8.47,0l12.483,12.483a1.67,1.67,0,0,0,1.985.283,43.174,43.174,0,0,1,8.656-3.58,1.669,1.669,0,0,0,1.2-1.6v-17.659a6,6,0,0,1,5.99-5.989h9.942a6,6,0,0,1,5.989,5.989v17.659a1.67,1.67,0,0,0,1.2,1.6,43.163,43.163,0,0,1,8.655,3.58,1.67,1.67,0,0,0,1.985-.283l12.483-12.483a5.988,5.988,0,0,1,8.469,0l7.03,7.03a5.989,5.989,0,0,1,0,8.469l-12.483,12.483a1.672,1.672,0,0,0-.283,1.986,43.071,43.071,0,0,1,3.58,8.655,1.671,1.671,0,0,0,1.6,1.2h17.659a6,6,0,0,1,5.99,5.989Z" transform="translate(-3723.675 -3929.056)" fill="#a2dfff"/>
        <path id="Trazado_1208" data-name="Trazado 1208" d="M3925.114,4099.051a31.444,31.444,0,1,0,31.444,31.444A31.48,31.48,0,0,0,3925.114,4099.051Zm0,59.547a28.1,28.1,0,1,1,28.1-28.1A28.135,28.135,0,0,1,3925.114,4158.6Z" transform="translate(-3854.921 -4060.302)" fill="#a2dfff"/>
        <path id="Trazado_1209" data-name="Trazado 1209" d="M3982.962,4174.732a14.365,14.365,0,1,0,14.365,14.366A14.381,14.381,0,0,0,3982.962,4174.732Zm0,25.389a11.024,11.024,0,1,1,11.023-11.023A11.036,11.036,0,0,1,3982.962,4200.121Z" transform="translate(-3912.769 -4118.732)" fill="#a2dfff"/>
      </g>
    </g>
    <g id="Grupo_1011" data-name="Grupo 1011" transform="translate(251.476 314.22)">
      <g id="Grupo_1010" data-name="Grupo 1010">
        <path id="Trazado_1210" data-name="Trazado 1210" d="M1198.446,1400.885c-12.375-12.767-38.917-8.781-59.267,8.873s-26.82,42.287-14.424,55.021l148.6,163.109c12.389,12.751,38.922,8.756,59.284-8.894,20.336-17.642,26.805-42.285,14.4-55.034Z" transform="translate(-1115.036 -1389.989)" fill="#fff"/>
        <path id="Trazado_1211" data-name="Trazado 1211" d="M1189.391,1387l-.072-.077c-5.4-5.572-13.188-8.517-22.522-8.517a56.043,56.043,0,0,0-20.907,4.428,74.442,74.442,0,0,0-20.534,12.759c-13.129,11.383-21.305,26.159-21.871,39.525-.345,8.147,2.143,15.206,7.2,20.421l148.563,163.069.075.08c5.4,5.56,13.186,8.5,22.51,8.5a56.083,56.083,0,0,0,20.916-4.429A74.553,74.553,0,0,0,1323.3,1610c13.119-11.381,21.289-26.155,21.855-39.52.345-8.152-2.144-15.219-7.2-20.44Zm131.665,220.412c-12.318,10.677-26.89,16.356-39.227,16.356-8.057,0-15.162-2.424-20.057-7.462l-148.6-163.109c-12.4-12.734-5.931-37.372,14.424-55.021,12.3-10.674,26.869-16.35,39.2-16.35,8.064,0,15.174,2.429,20.067,7.477l148.6,163.075C1347.861,1565.128,1341.392,1589.772,1321.056,1607.413Z" transform="translate(-1103.455 -1378.408)" fill="#096ab2"/>
      </g>
    </g>
    <path id="Trazado_1212" data-name="Trazado 1212" d="M1597.951,1567.31V1712.1l45.6,50.054c12.389,12.751,38.922,8.756,59.284-8.894,20.336-17.641,26.805-42.285,14.4-55.034Z" transform="translate(-1233.758 -1210.032)" fill="#e0f4fc"/>
    <g id="Grupo_1012" data-name="Grupo 1012" transform="translate(291.905 595.708)">
      <path id="Trazado_1213" data-name="Trazado 1213" d="M1685.129,2620.821l-243.727,163.3-50.653-45.864c-12.524-12.619-27.339,21.3-47.482,39.191s-65.288,14.03-52.758,42.754c0,0,73.436,63,81.837,75.87l105.464,161.52c35.238,53.967,106.992,68.78,160.269,33.085l149.69-100.292c53.276-35.695,67.9-108.38,32.661-162.347Z" transform="translate(-1286.63 -2619.111)" fill="#fff"/>
      <path id="Trazado_1214" data-name="Trazado 1214" d="M1816.048,2821.31l-135.3-207.214a1.709,1.709,0,0,0-2.383-.486l-242.617,162.553-49.63-44.937a9.668,9.668,0,0,0-7.543-3.2c-7.373.434-14.829,9.962-23.464,20.995-5.617,7.178-11.984,15.314-18.791,21.36-7.136,6.338-17.546,9.855-27.613,13.256-11.859,4.007-23.06,7.792-26.68,15.968-1.917,4.328-1.556,9.4,1.1,15.491a1.711,1.711,0,0,0,.454.614c.733.629,73.346,62.991,81.519,75.508l105.464,161.52a117.385,117.385,0,0,0,33.019,33.525,116.057,116.057,0,0,0,129.633.045l149.69-100.291a117.391,117.391,0,0,0,33.012-33.319,120.015,120.015,0,0,0,.129-131.384Zm13.755,88.624a115.9,115.9,0,0,1-16.742,40.885A113.982,113.982,0,0,1,1781,2983.172l-149.69,100.292a112.868,112.868,0,0,1-125.825-.044,113.988,113.988,0,0,1-32.061-32.555l-105.464-161.52c-8.249-12.632-76.021-70.965-81.854-75.974-2.118-5.005-2.431-9.059-.958-12.385,3.012-6.8,13.522-10.354,24.649-14.113,10.39-3.51,21.134-7.14,28.789-13.939,7.038-6.252,13.506-14.517,19.213-21.809,7.786-9.949,15.14-19.346,20.972-19.69a6.353,6.353,0,0,1,4.949,2.234c.021.022.043.042.066.063l50.653,45.863a1.709,1.709,0,0,0,2.1.153l242.289-162.333,134.354,205.765a116.33,116.33,0,0,1,16.618,86.754Z" transform="translate(-1280.818 -2613.321)" fill="#096ab2"/>
    </g>
    <g id="Grupo_1014" data-name="Grupo 1014" transform="translate(303.59 616.876)">
      <g id="Grupo_1013" data-name="Grupo 1013">
        <path id="Trazado_1215" data-name="Trazado 1215" d="M1516.713,2828.193l-89.473-99.455c-12.331-12.812-38.888-8.922-59.3,8.658s-26.968,42.191-14.618,54.967L1457.6,2907.524c12.345,12.8,38.89,8.9,59.316-8.681l-5.369-22.194C1531.939,2859.082,1529.069,2840.985,1516.713,2828.193Z" transform="translate(-1343.664 -2717.768)" fill="#e0f4fc"/>
        <path id="Trazado_1216" data-name="Trazado 1216" d="M1418.2,2714.87l-.078-.084c-5.414-5.625-13.247-8.6-22.651-8.6a56.194,56.194,0,0,0-20.848,4.386,74.451,74.451,0,0,0-20.494,12.651c-13.168,11.334-21.4,26.079-22.01,39.444-.374,8.147,2.09,15.217,7.125,20.449l104.236,115.122q.036.04.074.079c5.415,5.613,13.243,8.58,22.637,8.58a56.236,56.236,0,0,0,20.858-4.388,74.58,74.58,0,0,0,20.512-12.655,3.419,3.419,0,0,0,1.093-3.4l-4.886-20.2a50.9,50.9,0,0,0,10.246-12.56,32.1,32.1,0,0,0,4.218-14.206c.408-8.877-3.257-17.594-10.6-25.214Zm81.76,150.2,5.369,22.195c-12.307,10.592-26.833,16.215-39.139,16.215-8.118,0-15.27-2.449-20.177-7.534l-104.272-115.162c-12.35-12.776-5.8-37.394,14.618-54.967,12.292-10.587,26.81-16.208,39.11-16.208,8.124,0,15.283,2.454,20.188,7.551l89.473,99.455C1517.488,2829.4,1520.357,2847.5,1499.961,2865.068Z" transform="translate(-1332.083 -2706.187)" fill="#096ab2"/>
      </g>
    </g>
    <g id="Grupo_1016" data-name="Grupo 1016" transform="translate(306.469 497.823)">
      <g id="Grupo_1015" data-name="Grupo 1015">
        <path id="Trazado_1217" data-name="Trazado 1217" d="M1529.344,2305.895l-89.472-99.455c-12.329-12.813-38.887-8.921-59.3,8.656s-26.969,42.192-14.617,54.969l104.272,115.16c12.345,12.795,38.889,8.9,59.316-8.682l-5.37-22.193C1544.57,2336.783,1541.7,2318.687,1529.344,2305.895Z" transform="translate(-1356.296 -2195.47)" fill="#e0f4fc"/>
        <path id="Trazado_1218" data-name="Trazado 1218" d="M1430.832,2192.572l-.078-.084c-5.413-5.625-13.246-8.6-22.651-8.6a56.2,56.2,0,0,0-20.848,4.386,74.46,74.46,0,0,0-20.495,12.649c-13.169,11.337-21.4,26.084-22.009,39.448-.373,8.146,2.09,15.214,7.125,20.447l104.236,115.12q.036.041.074.079c5.415,5.613,13.243,8.579,22.636,8.579a56.235,56.235,0,0,0,20.858-4.388,74.584,74.584,0,0,0,20.513-12.655,3.419,3.419,0,0,0,1.093-3.4l-4.887-20.2a50.893,50.893,0,0,0,10.246-12.56,32.094,32.094,0,0,0,4.218-14.206c.407-8.876-3.257-17.594-10.6-25.214Zm81.76,150.2,5.37,22.193c-12.308,10.592-26.835,16.216-39.14,16.216-8.117,0-15.269-2.449-20.176-7.534l-104.272-115.16c-12.351-12.777-5.8-37.393,14.617-54.969,12.292-10.586,26.811-16.207,39.111-16.207,8.124,0,15.283,2.454,20.187,7.551l89.472,99.455C1530.118,2307.106,1532.988,2325.2,1512.592,2342.77Z" transform="translate(-1344.714 -2183.889)" fill="#096ab2"/>
      </g>
    </g>
    <g id="Grupo_1017" data-name="Grupo 1017" transform="translate(522.153 171.55)">
      <path id="Trazado_1219" data-name="Trazado 1219" d="M2324.913,767.506h-14.524c-2.461,0-4.455,6.445-4.455,14.394s1.994,14.395,4.455,14.395h14.524c2.461,0,4.456-6.445,4.456-14.395S2327.375,767.506,2324.913,767.506Z" transform="translate(-2302.515 -764.087)" fill="#e0f4fc"/>
      <path id="Trazado_1220" data-name="Trazado 1220" d="M2313.332,752.506h-14.524c-1.992,0-4.722,1.149-6.417,6.625a43.676,43.676,0,0,0,0,22.378c1.694,5.475,4.425,6.625,6.417,6.625h14.524c1.992,0,4.723-1.149,6.417-6.625a43.684,43.684,0,0,0,0-22.378C2318.055,753.655,2315.324,752.506,2313.332,752.506Zm0,32.208h-14.524c-2.461,0-4.455-6.445-4.455-14.395s1.994-14.394,4.455-14.394h14.524c2.461,0,4.455,6.445,4.455,14.394S2315.793,784.714,2313.332,784.714Z" transform="translate(-2290.934 -752.506)" fill="#096ab2"/>
    </g>
    <g id="Grupo_1018" data-name="Grupo 1018" transform="translate(441.898 171.55)">
      <path id="Trazado_1221" data-name="Trazado 1221" d="M2014.386,767.506H1968.06a14.4,14.4,0,0,0,0,28.789h46.326a14.4,14.4,0,0,0,0-28.789Z" transform="translate(-1950.431 -764.087)" fill="#e0f4fc"/>
      <path id="Trazado_1222" data-name="Trazado 1222" d="M2002.805,752.506h-46.326a17.815,17.815,0,0,0,0,35.627h46.326a17.815,17.815,0,0,0,0-35.627Zm0,32.208h-46.326a14.4,14.4,0,0,1,0-28.789h46.326a14.4,14.4,0,0,1,0,28.789Z" transform="translate(-1938.85 -752.506)" fill="#096ab2"/>
    </g>
    <path id="Trazado_1223" data-name="Trazado 1223" d="M1770.343,2784.118l-50.653-45.864a8.329,8.329,0,0,0-5.286-2.722v177.6s38.845,60.283,39.606,60.283h299.251c21.84,0,39.607-18,39.607-40.12V2741.5l-78.8-120.68Z" transform="translate(-1323.667 -2023.403)" fill="#e0f4fc"/>
    <g id="Grupo_1019" data-name="Grupo 1019" transform="translate(393.644 177.334)">
      <path id="Trazado_1224" data-name="Trazado 1224" d="M2073.512,785.382H1774.261c-21.839,0-39.606,18-39.606,40.12v675.361c0,22.123,17.767,40.12,39.606,40.12h299.251c21.84,0,39.607-18,39.607-40.12V825.5C2113.119,803.379,2095.352,785.382,2073.512,785.382Z" transform="translate(-1732.945 -783.672)" fill="#e0f4fc"/>
      <path id="Trazado_1225" data-name="Trazado 1225" d="M2067.722,777.882H1768.471c-22.782,0-41.316,18.765-41.316,41.83v675.361c0,23.065,18.534,41.83,41.316,41.83h299.251c22.782,0,41.316-18.765,41.316-41.83V819.712C2109.038,796.647,2090.5,777.882,2067.722,777.882Zm37.9,717.191c0,21.18-17,38.411-37.9,38.411H1768.471c-20.9,0-37.9-17.231-37.9-38.411V819.712c0-21.18,17-38.411,37.9-38.411h299.251c20.9,0,37.9,17.231,37.9,38.411Z" transform="translate(-1727.155 -777.882)" fill="#096ab2"/>
    </g>
    <g id="Grupo_1020" data-name="Grupo 1020" transform="translate(404.707 187.74)">
      <path id="Trazado_1226" data-name="Trazado 1226" d="M2112.414,838.532H1821.889a31.4,31.4,0,0,0-31.2,31.6V1538.3a31.4,31.4,0,0,0,31.2,31.6h290.524a31.4,31.4,0,0,0,31.2-31.6V870.133A31.4,31.4,0,0,0,2112.414,838.532Z" transform="translate(-1787.274 -835.113)" fill="#a2dfff"/>
      <path id="Trazado_1227" data-name="Trazado 1227" d="M2100.833,823.532H1810.308a34.187,34.187,0,0,0-24.492,10.273,35,35,0,0,0-10.123,24.747v668.17a35,35,0,0,0,10.123,24.748,34.187,34.187,0,0,0,24.492,10.273h290.524a34.188,34.188,0,0,0,24.493-10.273,35,35,0,0,0,10.123-24.748V858.552a35,35,0,0,0-10.123-24.747A34.187,34.187,0,0,0,2100.833,823.532Zm31.2,703.19a31.4,31.4,0,0,1-31.2,31.6H1810.308a31.4,31.4,0,0,1-31.2-31.6V858.552a31.4,31.4,0,0,1,31.2-31.6h290.525a31.4,31.4,0,0,1,31.2,31.6Z" transform="translate(-1775.693 -823.532)" fill="#096ab2"/>
    </g>
    <path id="Trazado_1228" data-name="Trazado 1228" d="M2425.569,1046.711h-92.751a8.542,8.542,0,0,0,0,17.082h92.751a8.542,8.542,0,0,0,0-17.082Z" transform="translate(-1794.609 -808.099)" fill="#72c8ed"/>
    <g id="Grupo_1021" data-name="Grupo 1021" transform="translate(526.359 228.816)">
      <path id="Trazado_1229" data-name="Trazado 1229" d="M2425.569,1018.737h-92.751a8.542,8.542,0,0,0,0,17.083h92.751a8.542,8.542,0,0,0,0-17.083Z" transform="translate(-2320.968 -1015.318)" fill="#e0f4fc"/>
      <path id="Trazado_1230" data-name="Trazado 1230" d="M2413.989,1003.737h-92.751a11.961,11.961,0,0,0,0,23.921h92.751a11.961,11.961,0,0,0,0-23.921Zm0,20.5h-92.751a8.542,8.542,0,0,1,0-17.083h92.751a8.542,8.542,0,0,1,0,17.083Z" transform="translate(-2309.387 -1003.737)" fill="#096ab2"/>
    </g>
    <g id="Grupo_1022" data-name="Grupo 1022" transform="translate(538.625 878.762)">
      <path id="Trazado_1231" data-name="Trazado 1231" d="M2452.281,3870.1H2389.2a11.145,11.145,0,0,0,0,22.289h63.078a11.145,11.145,0,0,0,0-22.289Z" transform="translate(-2374.781 -3866.681)" fill="#e0f4fc"/>
      <path id="Trazado_1232" data-name="Trazado 1232" d="M2440.7,3855.1h-63.078a14.564,14.564,0,0,0,0,29.127H2440.7a14.564,14.564,0,0,0,0-29.127Zm0,25.708h-63.078a11.145,11.145,0,0,1,0-22.289H2440.7a11.145,11.145,0,0,1,0,22.289Z" transform="translate(-2363.2 -3855.1)" fill="#096ab2"/>
    </g>
    <g id="Grupo_1023" data-name="Grupo 1023" transform="translate(419.438 273.132)">
      <rect id="Rect치ngulo_860" data-name="Rect치ngulo 860" width="323.45" height="573.962" transform="translate(3.419 3.419)" fill="#e0f4fc"/>
      <path id="Trazado_1233" data-name="Trazado 1233" d="M2167.184,1198.153h-323.45a3.419,3.419,0,0,0-3.419,3.419v573.961a3.419,3.419,0,0,0,3.419,3.419h323.45a3.419,3.419,0,0,0,3.419-3.419V1201.572A3.419,3.419,0,0,0,2167.184,1198.153Zm0,577.38h-323.45V1201.572h323.45Z" transform="translate(-1840.315 -1198.153)" fill="#096ab2"/>
    </g>
    <g id="Grupo_1037" data-name="Grupo 1037" transform="translate(286.138 488.578)">
      <g id="Grupo_1025" data-name="Grupo 1025" transform="translate(15.613 109.619)">
        <g id="Grupo_1024" data-name="Grupo 1024">
          <path id="Trazado_1234" data-name="Trazado 1234" d="M1464.287,2673.471l-63.254-31.871c-15.84-7.917-39.6,4.719-53.057,28.186s-11.541,48.884,4.308,56.76l63.268,31.906c15.85,7.894,39.594-4.747,53.066-28.214C1482.068,2706.785,1480.146,2681.362,1464.287,2673.471Z" transform="translate(-1335.594 -2635.818)" fill="#fff"/>
          <path id="Trazado_1235" data-name="Trazado 1235" d="M1454.238,2658.832l-63.247-31.868a26.512,26.512,0,0,0-11.972-2.728c-7.966,0-16.518,3.071-24.733,8.882a73.3,73.3,0,0,0-20.856,23.385c-8.721,15.2-11.607,31.93-7.719,44.755,2.351,7.756,7.008,13.553,13.466,16.765l63.256,31.9.015.008a26.52,26.52,0,0,0,11.937,2.709c7.969,0,16.526-3.073,24.745-8.885a73.405,73.405,0,0,0,20.874-23.4c8.712-15.191,11.593-31.916,7.707-44.741C1465.359,2667.854,1460.7,2662.051,1454.238,2658.832Zm2.8,59.823c-10.754,18.732-28.05,30.564-42.654,30.564a23.157,23.157,0,0,1-10.413-2.35l-63.268-31.906c-15.849-7.876-17.773-33.294-4.308-56.76,10.737-18.721,28.027-30.548,42.623-30.548a23.133,23.133,0,0,1,10.433,2.362l63.254,31.871C1468.566,2669.781,1470.488,2695.2,1457.039,2718.655Z" transform="translate(-1324.014 -2624.237)" fill="#096ab2"/>
        </g>
      </g>
      <g id="Grupo_1027" data-name="Grupo 1027" transform="translate(77.042 149.549)">
        <g id="Grupo_1026" data-name="Grupo 1026">
          <path id="Trazado_1236" data-name="Trazado 1236" d="M1613.235,2832.275c-8.512,14.854-5.2,31.979,7.414,38.271l17.77,8.85c5.354-4.44,7.456-4.173,20.388-26.274,10.412-17.812,10.49-27.555,10.49-27.555l-17.777-8.839C1638.9,2810.443,1621.761,2817.4,1613.235,2832.275Z" transform="translate(-1605.093 -2810.995)" fill="#e0f4fc"/>
          <path id="Trazado_1237" data-name="Trazado 1237" d="M1659.234,2810.923l-17.777-8.839a25.823,25.823,0,0,0-11.62-2.67c-12.106,0-24.334,7.685-31.152,19.58-5.093,8.885-6.508,18.952-3.886,27.617a25.025,25.025,0,0,0,12.74,15.413l17.771,8.85a3.418,3.418,0,0,0,3.707-.428c.68-.564,1.321-1.06,1.94-1.539a35.4,35.4,0,0,0,7.107-6.933c3.03-3.823,6.878-9.767,12.109-18.708a93.652,93.652,0,0,0,9.488-21.252,33.013,33.013,0,0,0,1.47-8A3.419,3.419,0,0,0,1659.234,2810.923Zm-12.012,30.617c-12.932,22.1-15.033,21.834-20.388,26.274l-17.77-8.85c-12.617-6.292-15.926-23.417-7.414-38.271,6.4-11.158,17.64-17.861,28.186-17.861a22.518,22.518,0,0,1,10.1,2.313l17.777,8.839S1657.634,2823.728,1647.222,2841.54Z" transform="translate(-1593.508 -2799.414)" fill="#096ab2"/>
        </g>
        <path id="Trazado_1238" data-name="Trazado 1238" d="M1613.24,2839.452a33.566,33.566,0,0,0-4.588,19.763,36.443,36.443,0,0,0,17.7-15.742,33.564,33.564,0,0,0,4.588-19.763A36.443,36.443,0,0,0,1613.24,2839.452Z" transform="translate(-1605.098 -2818.172)" fill="#fff"/>
      </g>
      <g id="Grupo_1030" data-name="Grupo 1030" transform="translate(0 222.542)">
        <g id="Grupo_1029" data-name="Grupo 1029">
          <g id="Grupo_1028" data-name="Grupo 1028">
            <path id="Trazado_1239" data-name="Trazado 1239" d="M1395.793,3168.875,1332.54,3137c-15.842-7.916-39.6,4.721-53.058,28.186s-11.541,48.884,4.308,56.761l63.27,31.9c15.85,7.9,39.593-4.745,53.066-28.214C1413.574,3202.19,1411.653,3176.766,1395.793,3168.875Z" transform="translate(-1267.1 -3131.223)" fill="#fff"/>
            <path id="Trazado_1240" data-name="Trazado 1240" d="M1385.742,3154.236l-63.243-31.867-.01,0a26.5,26.5,0,0,0-11.961-2.722c-7.966,0-16.519,3.071-24.735,8.881a73.3,73.3,0,0,0-20.857,23.384c-8.721,15.2-11.607,31.929-7.719,44.755,2.351,7.757,7.007,13.554,13.464,16.767l63.259,31.9.015.008a26.517,26.517,0,0,0,11.939,2.709c7.969,0,16.525-3.072,24.744-8.885a73.406,73.406,0,0,0,20.873-23.4c8.712-15.19,11.593-31.915,7.707-44.74C1396.865,3163.258,1392.2,3157.454,1385.742,3154.236Zm2.8,59.823c-10.753,18.732-28.048,30.565-42.652,30.565a23.154,23.154,0,0,1-10.414-2.351l-63.27-31.9c-15.848-7.877-17.773-33.3-4.308-56.762,10.738-18.72,28.027-30.547,42.626-30.547a23.138,23.138,0,0,1,10.432,2.361l63.253,31.872C1400.073,3165.185,1401.994,3190.609,1388.545,3214.059Z" transform="translate(-1255.52 -3119.642)" fill="#096ab2"/>
          </g>
        </g>
      </g>
      <g id="Grupo_1033" data-name="Grupo 1033" transform="translate(17.979)">
        <g id="Grupo_1032" data-name="Grupo 1032">
          <g id="Grupo_1031" data-name="Grupo 1031">
            <path id="Trazado_1241" data-name="Trazado 1241" d="M1443.209,2175.52l-24.512-13.433c-20.047-10.03-47.551.721-61.43,23.978s-8.894,50.214,11.16,60.2l24.53,13.468c20.056,10.009,47.545-.748,61.44-24.005C1468.264,2212.492,1463.277,2185.524,1443.209,2175.52Z" transform="translate(-1345.984 -2154.912)" fill="#fff"/>
            <path id="Trazado_1242" data-name="Trazado 1242" d="M1445.258,2170.592a36.218,36.218,0,0,0-12.053-9.682l-24.455-13.4c-.037-.021-.075-.04-.113-.059a39.654,39.654,0,0,0-17.916-4.118c-18.488,0-37.321,11.541-47.98,29.4-8.009,13.412-10.4,28.631-6.548,41.755a38.8,38.8,0,0,0,7.015,13.559,36.171,36.171,0,0,0,12.043,9.671l24.472,13.436.119.063a39.687,39.687,0,0,0,17.891,4.1,51.885,51.885,0,0,0,26.709-7.86,62.963,62.963,0,0,0,21.3-21.553c8-13.408,10.381-28.623,6.533-41.746A38.83,38.83,0,0,0,1445.258,2170.592Zm-2.45,53.56c-10.369,17.355-28.3,27.748-45.076,27.748a36.441,36.441,0,0,1-16.365-3.743l-24.531-13.468c-20.054-9.99-25.045-36.951-11.16-60.2,10.352-17.346,28.281-27.735,45.044-27.735a36.409,36.409,0,0,1,16.386,3.756l24.512,13.433C1451.687,2173.943,1456.674,2200.912,1442.807,2224.152Z" transform="translate(-1334.393 -2143.331)" fill="#096ab2"/>
          </g>
        </g>
      </g>
      <g id="Grupo_1034" data-name="Grupo 1034" transform="translate(64.457 29.624)">
        <path id="Trazado_1243" data-name="Trazado 1243" d="M1558.576,2307.557c-8.344,14.937-6.642,31.255,3.821,36.465l14.734,7.323c4.918-4.657,6.713-4.545,19.356-26.792,10.18-17.93,10.9-27.347,10.9-27.347l-14.741-7.314C1582.188,2284.691,1566.932,2292.6,1558.576,2307.557Z" transform="translate(-1549.866 -2284.875)" fill="#e0f4fc"/>
        <path id="Trazado_1244" data-name="Trazado 1244" d="M1597.34,2282.563l-14.741-7.314a19.092,19.092,0,0,0-8.579-1.954c-5.412,0-11.132,2.01-16.541,5.813a45.979,45.979,0,0,0-13.458,15.2,45.467,45.467,0,0,0-5.3,15.112,31.767,31.767,0,0,0,.8,14.031,19.328,19.328,0,0,0,9.784,12.05l14.735,7.324a3.419,3.419,0,0,0,3.873-.579c.628-.6,1.216-1.119,1.784-1.626,4.054-3.618,6.983-6.232,18.194-25.959,10.438-18.384,11.308-28.359,11.34-28.775A3.419,3.419,0,0,0,1597.34,2282.563Zm-12.423,30.41c-12.643,22.247-14.438,22.135-19.356,26.792l-14.734-7.323c-10.463-5.21-12.165-21.528-3.821-36.465,6.615-11.841,17.552-19.263,27.014-19.263a15.726,15.726,0,0,1,7.059,1.6l14.741,7.314S1595.1,2295.043,1584.917,2312.972Z" transform="translate(-1538.296 -2273.294)" fill="#096ab2"/>
      </g>
      <path id="Trazado_1245" data-name="Trazado 1245" d="M1558.6,2314.52c-4,7.159-5.684,14.631-5.209,21.049,6.777-2.975,13.4-9.036,17.968-17.208,4-7.158,5.684-14.631,5.209-21.049C1569.787,2300.287,1563.162,2306.347,1558.6,2314.52Z" transform="translate(-1485.43 -2262.213)" fill="#fff"/>
      <g id="Grupo_1036" data-name="Grupo 1036" transform="translate(56.818 260.888)">
        <g id="Grupo_1035" data-name="Grupo 1035">
          <path id="Trazado_1246" data-name="Trazado 1246" d="M1524.511,3320.726c-8.512,14.853-5.2,31.979,7.414,38.271l17.77,8.85c5.355-4.44,7.456-4.173,20.388-26.274,10.412-17.812,10.489-27.555,10.489-27.555l-17.777-8.839C1550.178,3298.894,1533.037,3305.853,1524.511,3320.726Z" transform="translate(-1516.369 -3299.446)" fill="#e0f4fc"/>
          <path id="Trazado_1247" data-name="Trazado 1247" d="M1570.509,3299.375l-17.777-8.839a25.823,25.823,0,0,0-11.62-2.671c-12.106,0-24.334,7.686-31.152,19.579-5.092,8.886-6.509,18.952-3.886,27.618a25.024,25.024,0,0,0,12.74,15.413l17.771,8.851a3.417,3.417,0,0,0,3.707-.428c.68-.564,1.321-1.06,1.94-1.539a35.441,35.441,0,0,0,7.107-6.933c3.03-3.823,6.878-9.767,12.109-18.708a93.678,93.678,0,0,0,9.488-21.252,33.01,33.01,0,0,0,1.469-8A3.42,3.42,0,0,0,1570.509,3299.375Zm-12.012,30.617c-12.932,22.1-15.033,21.834-20.388,26.274l-17.77-8.85c-12.617-6.292-15.926-23.417-7.414-38.271,6.4-11.158,17.64-17.861,28.186-17.861a22.521,22.521,0,0,1,10.1,2.313l17.777,8.839S1568.909,3312.179,1558.5,3329.991Z" transform="translate(-1504.784 -3287.865)" fill="#096ab2"/>
        </g>
        <path id="Trazado_1248" data-name="Trazado 1248" d="M1524.516,3327.9a33.568,33.568,0,0,0-4.588,19.763,36.446,36.446,0,0,0,17.7-15.742,33.566,33.566,0,0,0,4.588-19.763A36.446,36.446,0,0,0,1524.516,3327.9Z" transform="translate(-1516.373 -3306.623)" fill="#fff"/>
      </g>
    </g>
    <g id="Grupo_1040" data-name="Grupo 1040" transform="translate(683.605 567.468)">
      <g id="Grupo_1038" data-name="Grupo 1038">
        <path id="Trazado_1249" data-name="Trazado 1249" d="M3148.321,2496.929h0c-37.82,0-68.479,31.057-68.479,69.367v139.917c-43.278,23.769-73.1,73.883-73.1,131.862a164.222,164.222,0,0,0,5.212,41.242l32.663,62.214,69.852-46.8a117.206,117.206,0,0,0,51.427-87.816V2514.728A17.686,17.686,0,0,0,3148.321,2496.929Z" transform="translate(-3005.029 -2495.219)" fill="#fff"/>
        <path id="Trazado_1250" data-name="Trazado 1250" d="M3142.531,2489.429a69.291,69.291,0,0,0-49.638,20.826,71.068,71.068,0,0,0-20.55,50.251v138.911c-21.477,12.021-39.636,30.42-52.56,53.268a161.832,161.832,0,0,0-20.544,79.6,166.094,166.094,0,0,0,5.267,41.671,1.71,1.71,0,0,0,3.31-.858,162.68,162.68,0,0,1-5.157-40.813,158.411,158.411,0,0,1,20.1-77.918c12.788-22.608,30.809-40.743,52.116-52.446a1.709,1.709,0,0,0,.886-1.5V2560.505a67.669,67.669,0,0,1,19.564-47.849,65.9,65.9,0,0,1,47.205-19.809,16,16,0,0,1,15.862,16.089v292.115a117.714,117.714,0,0,1-15.073,48.338,113.625,113.625,0,0,1-35.6,38.129l-69.852,46.8a1.709,1.709,0,1,0,1.9,2.84l69.852-46.8a117.016,117.016,0,0,0,36.657-39.268,121.153,121.153,0,0,0,15.521-49.825c0-.048.006-.1.006-.144V2508.938A19.418,19.418,0,0,0,3142.531,2489.429Z" transform="translate(-2999.238 -2489.429)" fill="#096ab2"/>
      </g>
      <g id="Grupo_1039" data-name="Grupo 1039" transform="translate(124.031 22.001)">
        <path id="Trazado_1251" data-name="Trazado 1251" d="M3579.645,2593.45a28.961,28.961,0,0,0-28.773,29.146v30.395h35.123v-58.82a28.493,28.493,0,0,0-6.35-.721Z" transform="translate(-3549.162 -2591.74)" fill="#e0f4fc"/>
        <path id="Trazado_1252" data-name="Trazado 1252" d="M3580.584,2586.713a30.3,30.3,0,0,0-6.731-.764,30.706,30.706,0,0,0-30.482,30.856v30.4a1.709,1.709,0,0,0,1.709,1.709H3580.2a1.709,1.709,0,0,0,1.709-1.709v-58.82A1.709,1.709,0,0,0,3580.584,2586.713Zm-2.09,58.777h-31.7V2616.8a27.283,27.283,0,0,1,27.064-27.437,26.718,26.718,0,0,1,4.64.409Z" transform="translate(-3543.371 -2585.949)" fill="#096ab2"/>
      </g>
    </g>
    <path id="Trazado_1253" data-name="Trazado 1253" d="M3597.028,3136.324H3568.01a1.71,1.71,0,0,0,0,3.419h29.017a1.71,1.71,0,0,0,0-3.419Z" transform="translate(-2753.438 -2421.401)" fill="#096ab2"/>
    <path id="Trazado_1254" data-name="Trazado 1254" d="M3581.2,3187.123h-13.19a1.71,1.71,0,0,0,0,3.419h13.19a1.71,1.71,0,0,0,0-3.419Z" transform="translate(-2753.438 -2460.621)" fill="#096ab2"/>
    <path id="Trazado_1255" data-name="Trazado 1255" d="M2490.118,4133.016a114.026,114.026,0,0,0,75.357-18.853l149.69-100.292c24.191-16.208,38.508-38.834,45.711-65.079l-255.842,169.5A52.549,52.549,0,0,0,2490.118,4133.016Z" transform="translate(-1922.563 -3048.673)" fill="#e0f4fc"/>
    <g id="Grupo_1041" data-name="Grupo 1041" transform="translate(569.5 925.992)">
      <path id="Trazado_1256" data-name="Trazado 1256" d="M2530.167,4231.313a53.346,53.346,0,0,0-23.691,50.52H2686.4l159.587-104.266L2777.373,4069.8Z" transform="translate(-2504.446 -4068.092)" fill="#fff"/>
      <path id="Trazado_1257" data-name="Trazado 1257" d="M2773.021,4063.093a1.711,1.711,0,0,0-2.377-.513l-247.206,161.511a54.436,54.436,0,0,0-19.74,22.944,55.6,55.6,0,0,0-4.715,29.194,1.71,1.71,0,0,0,1.7,1.523h179.926a1.709,1.709,0,0,0,.935-.278l159.588-104.266a1.709,1.709,0,0,0,.507-2.349Zm-92.922,211.24H2502.236a52.18,52.18,0,0,1,4.569-25.875,51.032,51.032,0,0,1,18.5-21.5l-.935-1.432.935,1.432,245.758-160.565,66.78,104.881Z" transform="translate(-2498.651 -4062.302)" fill="#096ab2"/>
    </g>
    <g id="Grupo_1042" data-name="Grupo 1042" transform="translate(629.668 963.499)">
      <path id="Trazado_1258" data-name="Trazado 1258" d="M2770.113,4408.871h378.249l-111.123-174.524Z" transform="translate(-2768.403 -4232.637)" fill="#6ebdff"/>
      <path id="Trazado_1259" data-name="Trazado 1259" d="M3032.889,4227.639a1.71,1.71,0,0,0-2.377-.513l-267.125,174.525a1.71,1.71,0,0,0,.935,3.141h378.249a1.71,1.71,0,0,0,1.442-2.628Zm-262.825,173.733,260.87-170.437,108.521,170.438Z" transform="translate(-2762.613 -4226.848)" fill="#096ab2"/>
    </g>
    <path id="Trazado_1260" data-name="Trazado 1260" d="M4310.636,2411.074a8.475,8.475,0,1,0,8.475,8.476A8.485,8.485,0,0,0,4310.636,2411.074Zm0,13.531a5.056,5.056,0,1,1,5.056-5.056A5.061,5.061,0,0,1,4310.636,2424.605Z" transform="translate(-3321.565 -1861.466)" fill="#fff"/>
    <g id="Grupo_1050" data-name="Grupo 1050" transform="translate(314.223 951.966)">
      <g id="Grupo_1045" data-name="Grupo 1045" transform="translate(52.462)">
        <g id="Grupo_1044" data-name="Grupo 1044">
          <g id="Grupo_1043" data-name="Grupo 1043">
            <circle id="Elipse_498" data-name="Elipse 498" cx="6.697" cy="6.697" r="6.697" transform="translate(0.525 13.678) rotate(-79.099)" fill="#e0f4fc"/>
            <path id="Trazado_1261" data-name="Trazado 1261" d="M1617.252,4176.25a8.368,8.368,0,1,0,8.368,8.368A8.378,8.378,0,0,0,1617.252,4176.25Zm0,13.395a5.027,5.027,0,1,1,5.026-5.026A5.032,5.032,0,0,1,1617.252,4189.645Z" transform="translate(-1608.884 -4176.25)" fill="#a2dfff"/>
          </g>
        </g>
      </g>
      <g id="Grupo_1049" data-name="Grupo 1049">
        <g id="Grupo_1048" data-name="Grupo 1048">
          <g id="Grupo_1046" data-name="Grupo 1046" transform="translate(26.231)">
            <circle id="Elipse_499" data-name="Elipse 499" cx="6.697" cy="6.697" r="6.697" transform="translate(0.583 2.973) rotate(-10.278)" fill="#e0f4fc"/>
            <path id="Trazado_1262" data-name="Trazado 1262" d="M1502.176,4176.25a8.368,8.368,0,1,0,8.368,8.368A8.377,8.377,0,0,0,1502.176,4176.25Zm0,13.395a5.027,5.027,0,1,1,5.026-5.026A5.032,5.032,0,0,1,1502.176,4189.645Z" transform="translate(-1493.808 -4176.25)" fill="#a2dfff"/>
          </g>
          <g id="Grupo_1047" data-name="Grupo 1047">
            <circle id="Elipse_500" data-name="Elipse 500" cx="6.697" cy="6.697" r="6.697" transform="translate(1.671 1.671)" fill="#e0f4fc"/>
            <path id="Trazado_1263" data-name="Trazado 1263" d="M1387.1,4176.25a8.368,8.368,0,1,0,8.368,8.368A8.378,8.378,0,0,0,1387.1,4176.25Zm0,13.395a5.027,5.027,0,1,1,5.026-5.026A5.032,5.032,0,0,1,1387.1,4189.645Z" transform="translate(-1378.731 -4176.25)" fill="#a2dfff"/>
          </g>
        </g>
      </g>
    </g>
    <g id="Grupo_1058" data-name="Grupo 1058" transform="translate(151.391 200.275)">
      <g id="Grupo_1053" data-name="Grupo 1053" transform="translate(53.565 1.103)">
        <g id="Grupo_1052" data-name="Grupo 1052">
          <g id="Grupo_1051" data-name="Grupo 1051">
            <circle id="Elipse_501" data-name="Elipse 501" cx="6.697" cy="6.697" r="6.697" transform="matrix(0.974, -0.227, 0.227, 0.974, 0.326, 3.365)" fill="#e0f4fc"/>
            <path id="Trazado_1264" data-name="Trazado 1264" d="M907.733,883.365a8.368,8.368,0,1,0,8.368,8.368A8.378,8.378,0,0,0,907.733,883.365Zm0,13.395a5.026,5.026,0,1,1,5.026-5.026A5.032,5.032,0,0,1,907.733,896.76Z" transform="translate(-899.365 -883.365)" fill="#a2dfff"/>
          </g>
        </g>
      </g>
      <g id="Grupo_1057" data-name="Grupo 1057" transform="translate(0 0)">
        <g id="Grupo_1056" data-name="Grupo 1056">
          <g id="Grupo_1054" data-name="Grupo 1054" transform="translate(27.334 1.103)">
            <circle id="Elipse_502" data-name="Elipse 502" cx="6.697" cy="6.697" r="6.697" transform="translate(1.165 14.518) rotate(-85.493)" fill="#e0f4fc"/>
            <path id="Trazado_1265" data-name="Trazado 1265" d="M792.657,883.365a8.368,8.368,0,1,0,8.368,8.368A8.378,8.378,0,0,0,792.657,883.365Zm0,13.395a5.026,5.026,0,1,1,5.026-5.026A5.032,5.032,0,0,1,792.657,896.76Z" transform="translate(-784.289 -883.365)" fill="#a2dfff"/>
          </g>
          <g id="Grupo_1055" data-name="Grupo 1055">
            <circle id="Elipse_503" data-name="Elipse 503" cx="6.697" cy="6.697" r="6.697" transform="translate(0 9.471) rotate(-45)" fill="#e0f4fc"/>
            <path id="Trazado_1266" data-name="Trazado 1266" d="M677.58,883.365a8.368,8.368,0,1,0,8.368,8.368A8.378,8.378,0,0,0,677.58,883.365Zm0,13.395a5.026,5.026,0,1,1,5.027-5.026A5.032,5.032,0,0,1,677.58,896.76Z" transform="translate(-668.109 -882.262)" fill="#a2dfff"/>
          </g>
        </g>
      </g>
    </g>
    <g id="Grupo_1062" data-name="Grupo 1062" transform="translate(290.795 194.832)">
      <g id="Grupo_1059" data-name="Grupo 1059">
        <path id="Trazado_1267" data-name="Trazado 1267" d="M1283.28,880.1v36.249l31.392,18.124,31.392-18.124V880.1l-31.392-18.124Z" transform="translate(-1281.609 -860.304)" fill="#e0f4fc"/>
        <path id="Trazado_1268" data-name="Trazado 1268" d="M1341.241,872.993l-31.392-18.124a1.67,1.67,0,0,0-1.671,0l-31.392,18.124a1.671,1.671,0,0,0-.835,1.447v36.249a1.671,1.671,0,0,0,.835,1.447l31.392,18.124a1.671,1.671,0,0,0,1.671,0l31.392-18.124a1.671,1.671,0,0,0,.835-1.447V874.44A1.671,1.671,0,0,0,1341.241,872.993Zm-2.506,36.731-29.721,17.16-29.721-17.16V875.4l29.721-17.159,29.721,17.159Z" transform="translate(-1275.95 -854.644)" fill="#a2dfff"/>
      </g>
      <g id="Grupo_1060" data-name="Grupo 1060">
        <path id="Trazado_1269" data-name="Trazado 1269" d="M1283.28,880.1l31.392,18.124,31.392-18.124-31.392-18.124Z" transform="translate(-1281.609 -860.304)" fill="#fff"/>
        <path id="Trazado_1270" data-name="Trazado 1270" d="M1341.241,872.993l-31.392-18.124a1.67,1.67,0,0,0-1.671,0l-31.392,18.124a1.671,1.671,0,0,0,0,2.894l31.392,18.124a1.671,1.671,0,0,0,1.671,0l31.392-18.124a1.671,1.671,0,0,0,0-2.894Zm-32.228,17.642-28.051-16.2,28.051-16.195,28.051,16.195Z" transform="translate(-1275.95 -854.644)" fill="#a2dfff"/>
      </g>
      <g id="Grupo_1061" data-name="Grupo 1061" transform="translate(0 18.124)">
        <path id="Trazado_1271" data-name="Trazado 1271" d="M1283.28,977.736l31.392,18.124V959.612l-31.392-18.124Z" transform="translate(-1281.609 -939.817)" fill="#e0f4fc"/>
        <path id="Trazado_1272" data-name="Trazado 1272" d="M1309.848,952.506l-31.392-18.124a1.671,1.671,0,0,0-2.506,1.447v36.249a1.671,1.671,0,0,0,.835,1.447l31.392,18.124a1.671,1.671,0,0,0,2.506-1.447V953.953A1.67,1.67,0,0,0,1309.848,952.506Zm-2.506,34.8-28.051-16.195v-32.39l28.051,16.195Z" transform="translate(-1275.95 -934.158)" fill="#a2dfff"/>
      </g>
    </g>
    <g id="Grupo_1068" data-name="Grupo 1068" transform="translate(821.292 419.088)">
      <g id="Grupo_1066" data-name="Grupo 1066" transform="translate(88.108 17.242)">
        <g id="Grupo_1063" data-name="Grupo 1063" transform="translate(0 21.539)">
          <path id="Trazado_1273" data-name="Trazado 1273" d="M4485.869,2008.61H4444.18a1.71,1.71,0,0,0,0,3.419h41.689a1.71,1.71,0,0,0,0-3.419Z" transform="translate(-4339.292 -2008.61)" fill="#fff"/>
          <path id="Trazado_1274" data-name="Trazado 1274" d="M4318.69,2008.61h-15.8a1.71,1.71,0,0,0,0,3.419h15.8a1.71,1.71,0,0,0,0-3.419Z" transform="translate(-4230.208 -2008.61)" fill="#fff"/>
          <path id="Trazado_1275" data-name="Trazado 1275" d="M4046.094,2008.61h-54.566a1.71,1.71,0,0,0,0,3.419h54.566a1.71,1.71,0,1,0,0-3.419Z" transform="translate(-3989.818 -2008.61)" fill="#fff"/>
        </g>
        <g id="Grupo_1064" data-name="Grupo 1064" transform="translate(2.532)">
          <path id="Trazado_1276" data-name="Trazado 1276" d="M4416.606,1914.115h-52.4a1.71,1.71,0,0,0,0,3.419h52.4a1.71,1.71,0,1,0,0-3.419Z" transform="translate(-4280.079 -1914.115)" fill="#fff"/>
          <path id="Trazado_1277" data-name="Trazado 1277" d="M4068.647,1914.115h-66.01a1.71,1.71,0,1,0,0,3.419h66.01a1.71,1.71,0,0,0,0-3.419Z" transform="translate(-4000.928 -1914.115)" fill="#fff"/>
        </g>
        <g id="Grupo_1065" data-name="Grupo 1065" transform="translate(4.13 43.079)">
          <path id="Trazado_1278" data-name="Trazado 1278" d="M4455.593,2103.1h-46.068a1.709,1.709,0,0,0,0,3.419h46.068a1.709,1.709,0,0,0,0-3.419Z" transform="translate(-4316.666 -2103.104)" fill="#fff"/>
          <path id="Trazado_1279" data-name="Trazado 1279" d="M4300.439,2103.1h-32.206a1.709,1.709,0,1,0,0,3.419h32.206a1.709,1.709,0,1,0,0-3.419Z" transform="translate(-4207.581 -2103.104)" fill="#fff"/>
          <path id="Trazado_1280" data-name="Trazado 1280" d="M4052.183,2103.1h-42.536a1.709,1.709,0,0,0,0,3.419h42.536a1.709,1.709,0,0,0,0-3.419Z" transform="translate(-4007.937 -2103.104)" fill="#fff"/>
        </g>
      </g>
      <g id="Grupo_1067" data-name="Grupo 1067">
        <path id="Trazado_1281" data-name="Trazado 1281" d="M3668.629,1856.828l-31.392-18.124a1.709,1.709,0,0,0-1.709,0l-31.392,18.124a1.71,1.71,0,0,0-.855,1.48v36.249a1.71,1.71,0,0,0,.855,1.48l31.392,18.124a1.71,1.71,0,0,0,1.709,0l31.392-18.124a1.71,1.71,0,0,0,.855-1.48v-36.249A1.71,1.71,0,0,0,3668.629,1856.828Zm-2.564,36.742-29.683,17.137L3606.7,1893.57V1859.3l29.683-17.137,29.683,17.137Z" transform="translate(-3603.28 -1838.475)" fill="#fff"/>
        <path id="Trazado_1282" data-name="Trazado 1282" d="M3668.629,1856.828l-31.392-18.124a1.709,1.709,0,0,0-1.709,0l-31.392,18.124a1.71,1.71,0,0,0,0,2.961l31.392,18.124a1.709,1.709,0,0,0,1.709,0l31.392-18.124a1.71,1.71,0,0,0,0-2.961Zm-32.247,17.631-27.973-16.15,27.973-16.15,27.973,16.15Z" transform="translate(-3603.28 -1838.475)" fill="#fff"/>
        <path id="Trazado_1283" data-name="Trazado 1283" d="M3637.237,1936.34l-31.392-18.124a1.709,1.709,0,0,0-2.564,1.48v36.249a1.71,1.71,0,0,0,.855,1.481l31.392,18.124a1.71,1.71,0,0,0,2.564-1.481v-36.248A1.709,1.709,0,0,0,3637.237,1936.34Zm-2.564,34.768-27.973-16.15v-32.3l27.973,16.15Z" transform="translate(-3603.28 -1899.863)" fill="#fff"/>
      </g>
    </g>
    <g id="Grupo_1074" data-name="Grupo 1074" transform="translate(900.659 693.73)">
      <g id="Grupo_1070" data-name="Grupo 1070" transform="translate(31.601 0)">
        <g id="Grupo_1069" data-name="Grupo 1069">
          <circle id="Elipse_504" data-name="Elipse 504" cx="34.644" cy="34.644" r="34.644" transform="translate(0 48.994) rotate(-45)" fill="#c5edf9"/>
        </g>
      </g>
      <g id="Grupo_1073" data-name="Grupo 1073" transform="translate(0 49.953)">
        <g id="Grupo_1071" data-name="Grupo 1071">
          <circle id="Elipse_505" data-name="Elipse 505" cx="36.928" cy="36.928" r="36.928" transform="translate(1.719 1.719)" fill="#e0f4fc"/>
          <path id="Trazado_1284" data-name="Trazado 1284" d="M3996.686,3263.072a38.638,38.638,0,1,0-13.139,76.15,39.089,39.089,0,0,0,6.652.573,38.643,38.643,0,0,0,6.488-76.723Zm28.136,44.063,1.685.291-1.685-.291a35.21,35.21,0,1,1-34.781-41.216,35.649,35.649,0,0,1,6.063.522,35.218,35.218,0,0,1,28.718,40.694Z" transform="translate(-3951.469 -3262.5)" fill="#fff"/>
        </g>
        <g id="Grupo_1072" data-name="Grupo 1072" transform="translate(33.606 21.654)">
          <path id="Trazado_1285" data-name="Trazado 1285" d="M4109.733,3380.283l-3.332,36.768A36.919,36.919,0,0,0,4143.35,3365Z" transform="translate(-4104.691 -3363.29)" fill="#e0f4fc"/>
          <path id="Trazado_1286" data-name="Trazado 1286" d="M4136.852,3357.652l-33.617,15.284a1.709,1.709,0,0,0-1,1.4l-3.332,36.768a1.71,1.71,0,0,0,1.546,1.857q1.772.162,3.536.162a38.632,38.632,0,0,0,35.125-54.625A1.709,1.709,0,0,0,4136.852,3357.652Zm1.8,22.828a35.216,35.216,0,0,1-36.178,29.192l3.085-34.035,31.12-14.148A35.02,35.02,0,0,1,4138.647,3380.479Z" transform="translate(-4098.9 -3357.498)" fill="#fff"/>
        </g>
      </g>
    </g>
    <g id="Grupo_1077" data-name="Grupo 1077" transform="translate(867.783 204.724)">
      <circle id="Elipse_506" data-name="Elipse 506" cx="69.572" cy="69.572" r="69.572" transform="translate(0 98.39) rotate(-45)" fill="#c5edf9"/>
      <g id="Grupo_1076" data-name="Grupo 1076" transform="translate(38.376 53.277)">
        <g id="Grupo_1075" data-name="Grupo 1075" transform="translate(15.414 20.631)">
          <path id="Trazado_1287" data-name="Trazado 1287" d="M4108.436,1222.286a25.152,25.152,0,0,0-21.042,11.033,25.15,25.15,0,0,0-21.041-11.033,23.773,23.773,0,0,0-16.823,6.634c-4.148,4.161-6.328,9.856-6.305,16.469.061,18.056,14.208,28.451,26.526,35.49a152.167,152.167,0,0,1,15.59,10.3,3.357,3.357,0,0,0,4.1,0,152.111,152.111,0,0,1,15.592-10.3c12.319-7.039,26.466-17.434,26.527-35.49.022-6.613-2.158-12.308-6.305-16.469A23.775,23.775,0,0,0,4108.436,1222.286Zm-5.095,55.625a156.295,156.295,0,0,0-15.947,10.533,156.173,156.173,0,0,0-15.946-10.533c-11.52-6.583-24.749-16.229-24.8-32.533-.019-5.684,1.815-10.541,5.308-14.044a20.337,20.337,0,0,1,14.4-5.629,22.2,22.2,0,0,1,10.679,2.679,22.507,22.507,0,0,1,8.86,9.013,1.709,1.709,0,0,0,3,0,22.5,22.5,0,0,1,8.859-9.013,22.2,22.2,0,0,1,10.68-2.679,20.339,20.339,0,0,1,14.4,5.629c3.492,3.5,5.327,8.36,5.308,14.044C4128.116,1253.942,4125.271,1265.379,4103.341,1277.911Z" transform="translate(-4043.225 -1222.286)" fill="#fff"/>
        </g>
        <path id="Trazado_1288" data-name="Trazado 1288" d="M4093.918,1183.561h-37.3a1.709,1.709,0,0,0-1.352.663l-5.855,7.563L4047.1,1143.9a1.71,1.71,0,0,0-3.389-.225l-9.778,53.472L4023.9,1133.22a1.71,1.71,0,0,0-3.4.158l-3.158,50.183h-40.04a1.71,1.71,0,0,0,0,3.419h41.646a1.71,1.71,0,0,0,1.706-1.6l2.28-36.227,9.173,58.475a1.711,1.711,0,0,0,1.667,1.445h.022a1.709,1.709,0,0,0,1.681-1.4l8.916-48.757,1.818,37.668a1.71,1.71,0,0,0,3.06.964l8.178-10.563h36.461a1.71,1.71,0,1,0,0-3.419Z" transform="translate(-3975.601 -1131.775)" fill="#fff"/>
      </g>
    </g>
    <g id="Grupo_1079" data-name="Grupo 1079" transform="translate(830.83 456.18)">
      <circle id="Elipse_507" data-name="Elipse 507" cx="41.192" cy="41.192" r="41.192" transform="translate(0 58.254) rotate(-45)" fill="#c5edf9"/>
      <g id="Grupo_1078" data-name="Grupo 1078" transform="translate(37.356 34.387)">
        <path id="Trazado_1289" data-name="Trazado 1289" d="M3849.949,2163.365l-19.188-11.078a1.709,1.709,0,0,0-1.709,0l-19.188,11.078a1.71,1.71,0,0,0-.855,1.48V2187a1.71,1.71,0,0,0,.855,1.48l19.188,11.078a1.708,1.708,0,0,0,1.709,0l19.188-11.078a1.71,1.71,0,0,0,.855-1.48v-22.157A1.71,1.71,0,0,0,3849.949,2163.365Zm-2.564,22.65-17.479,10.092-17.479-10.092v-20.183l17.479-10.092,17.479,10.092Z" transform="translate(-3809.008 -2152.058)" fill="#fff"/>
        <path id="Trazado_1290" data-name="Trazado 1290" d="M3849.949,2163.365l-19.188-11.078a1.709,1.709,0,0,0-1.709,0l-19.188,11.078a1.709,1.709,0,0,0,0,2.961l19.188,11.078a1.708,1.708,0,0,0,1.709,0l19.188-11.078a1.709,1.709,0,0,0,0-2.961Zm-20.043,10.585-15.77-9.1,15.77-9.1,15.769,9.1Z" transform="translate(-3809.008 -2152.058)" fill="#fff"/>
        <path id="Trazado_1291" data-name="Trazado 1291" d="M3830.761,2211.967l-19.188-11.078a1.71,1.71,0,0,0-2.564,1.48v22.157a1.71,1.71,0,0,0,.855,1.48l19.188,11.079a1.71,1.71,0,0,0,2.564-1.48v-22.157A1.71,1.71,0,0,0,3830.761,2211.967Zm-2.564,20.677-15.77-9.1V2205.33l15.77,9.1Z" transform="translate(-3809.008 -2189.582)" fill="#fff"/>
      </g>
    </g>
    <g id="Grupo_1105" data-name="Grupo 1105" transform="translate(440.663 349.445)">
      <g id="Grupo_1080" data-name="Grupo 1080">
        <circle id="Elipse_508" data-name="Elipse 508" cx="142.209" cy="142.209" r="142.209" transform="translate(1.71 1.71)" fill="#a2dfff"/>
        <path id="Trazado_1292" data-name="Trazado 1292" d="M2179.118,1575.1a143.471,143.471,0,1,0,30.842,45.746A143.431,143.431,0,0,0,2179.118,1575.1Zm27.693,156.454a140.969,140.969,0,1,1,11.04-54.688A140.031,140.031,0,0,1,2206.812,1731.551Z" transform="translate(-1933.434 -1532.944)" fill="#096ab2"/>
      </g>
      <g id="Grupo_1104" data-name="Grupo 1104" transform="translate(46.223 23.826)">
        <g id="Grupo_1081" data-name="Grupo 1081" transform="translate(0 123.891)">
          <path id="Trazado_1293" data-name="Trazado 1293" d="M2219.093,2188.49l-.65,10.928c-11.638-5.771-27.517-6.018-33.288,5.62l-41.437,82.872a142.343,142.343,0,0,0,39.607,25.665l46.393-93.562A23.521,23.521,0,0,0,2219.093,2188.49Z" transform="translate(-2142.008 -2186.781)" fill="#fff"/>
          <path id="Trazado_1294" data-name="Trazado 1294" d="M2214.062,2181.168a1.709,1.709,0,0,0-2.466,1.43l-.5,8.441a36.3,36.3,0,0,0-17.472-2.829c-7.4.808-12.856,4.363-15.787,10.273l-41.437,82.871a1.709,1.709,0,0,0,.375,2.026,143.7,143.7,0,0,0,40.083,25.973,1.708,1.708,0,0,0,2.21-.81l46.393-93.562a25.231,25.231,0,0,0-11.4-33.813Zm8.333,32.294-45.667,92.1a140.256,140.256,0,0,1-36.691-23.839l40.86-81.717c3.019-6.088,8.789-7.928,13.1-8.4a33.487,33.487,0,0,1,17.9,3.551,1.709,1.709,0,0,0,2.466-1.43l.487-8.18a21.818,21.818,0,0,1,7.549,27.913Z" transform="translate(-2136.218 -2180.99)" fill="#096ab2"/>
        </g>
        <g id="Grupo_1097" data-name="Grupo 1097" transform="translate(50.247)">
          <g id="Grupo_1089" data-name="Grupo 1089">
            <g id="Grupo_1082" data-name="Grupo 1082" transform="translate(28.799 97.591)">
              <rect id="Rect치ngulo_861" data-name="Rect치ngulo 861" width="33.88" height="29.476" transform="translate(1.71 1.71)" fill="#fff"/>
              <path id="Trazado_1295" data-name="Trazado 1295" d="M2518.591,2065.609h-33.88a1.71,1.71,0,0,0-1.709,1.709v29.477a1.71,1.71,0,0,0,1.709,1.709h33.88a1.71,1.71,0,0,0,1.709-1.709v-29.477A1.71,1.71,0,0,0,2518.591,2065.609Zm-1.71,29.477H2486.42v-26.058h30.461Z" transform="translate(-2483.001 -2065.609)" fill="#096ab2"/>
            </g>
            <g id="Grupo_1088" data-name="Grupo 1088">
              <g id="Grupo_1083" data-name="Grupo 1083">
                <path id="Trazado_1296" data-name="Trazado 1296" d="M2561.514,1644.969c.117,0,.233,0,.349,0,.135,0,.27,0,.405,0Z" transform="translate(-2514.818 -1643.259)" fill="#6ebdff"/>
                <path id="Trazado_1297" data-name="Trazado 1297" d="M2410.886,1645.008c-.452-.015-.905-.023-1.359-.026l-.416,0c-30.459.444-51.845,30.22-42.827,59.317l10.559,34.071h64.052a10.957,10.957,0,0,0,10.625-8.281l5.267-20.913C2467.636,1678.845,2443.083,1646.1,2410.886,1645.008Z" transform="translate(-2362.481 -1643.269)" fill="#6ebdff"/>
                <path id="Trazado_1298" data-name="Trazado 1298" d="M2405.118,1637.5q-.42-.014-.844-.022c-.055-.005-.111-.008-.168-.008h-.754c-.053,0-.106,0-.158.007a47.434,47.434,0,0,0-44.37,61.531l10.56,34.071a1.709,1.709,0,0,0,1.633,1.2h64.052a12.652,12.652,0,0,0,12.283-9.573l5.247-20.833c5.076-14.271,2.859-30-6.087-43.167A52.557,52.557,0,0,0,2405.118,1637.5Zm44.234,65.3c-.019.052-.035.1-.048.158l-5.267,20.913a9.238,9.238,0,0,1-8.968,6.989h-62.792L2362.09,1698a44.014,44.014,0,0,1,41.22-57.1l.408,0c.428,0,.859.012,1.285.026a49.128,49.128,0,0,1,38.681,21.714C2452.026,1674.908,2454.092,1689.551,2449.352,1702.8Z" transform="translate(-2356.656 -1637.469)" fill="#096ab2"/>
              </g>
              <path id="Trazado_1299" data-name="Trazado 1299" d="M2541.592,1886.931h-2.932a1.862,1.862,0,0,0,0,3.724h2.932a1.862,1.862,0,1,0,0-3.724Z" transform="translate(-2495.736 -1830.068)" fill="#6ebdff"/>
              <path id="Trazado_1300" data-name="Trazado 1300" d="M2428.679,1886.931h-2.931a1.862,1.862,0,1,0,0,3.724h2.931a1.862,1.862,0,1,0,0-3.724Z" transform="translate(-2408.561 -1830.068)" fill="#6ebdff"/>
              <path id="Trazado_1301" data-name="Trazado 1301" d="M2508.336,1864.392h-13.8a1.862,1.862,0,0,0,0,3.725h13.8a1.862,1.862,0,0,0,0-3.725Z" transform="translate(-2461.671 -1812.667)" fill="#6ebdff"/>
              <g id="Grupo_1084" data-name="Grupo 1084" transform="translate(7.416 20.453)">
                <path id="Trazado_1302" data-name="Trazado 1302" d="M2418.68,1734.7a21.988,21.988,0,0,0-21.988,21.988h0v33.726a36.163,36.163,0,0,0,36.163,36.163h0a36.163,36.163,0,0,0,36.163-36.163V1767.1l-2.351-32.4Z" transform="translate(-2394.982 -1732.988)" fill="#fff"/>
                <path id="Trazado_1303" data-name="Trazado 1303" d="M2463.227,1759.6a1.71,1.71,0,0,0-1.709,1.71v23.316a34.453,34.453,0,1,1-68.906,0V1750.9a20.3,20.3,0,0,1,20.279-20.278h47.987a1.71,1.71,0,1,0,0-3.419h-47.987a23.724,23.724,0,0,0-23.7,23.7v33.726a37.872,37.872,0,1,0,75.744,0v-23.316A1.709,1.709,0,0,0,2463.227,1759.6Z" transform="translate(-2389.192 -1727.198)" fill="#096ab2"/>
              </g>
              <g id="Grupo_1086" data-name="Grupo 1086" transform="translate(74.928 63.034)">
                <g id="Grupo_1085" data-name="Grupo 1085">
                  <path id="Trazado_1304" data-name="Trazado 1304" d="M2692.871,1921.505v15.553a7.777,7.777,0,0,0,7.776-7.776h0A7.777,7.777,0,0,0,2692.871,1921.505Z" transform="translate(-2691.162 -1919.795)" fill="#fff"/>
                  <path id="Trazado_1305" data-name="Trazado 1305" d="M2687.081,1914.005a1.71,1.71,0,0,0,0,3.419,6.067,6.067,0,0,1,0,12.134,1.71,1.71,0,0,0,0,3.419,9.486,9.486,0,1,0,0-18.972Z" transform="translate(-2685.371 -1914.005)" fill="#096ab2"/>
                </g>
              </g>
              <g id="Grupo_1087" data-name="Grupo 1087" transform="translate(5.945)">
                <path id="Trazado_1306" data-name="Trazado 1306" d="M2433.344,1644.969h-43s-3.3,32.556,32.558,32.556h17.08a27.406,27.406,0,0,1,16.369,5.267c4.257,3.164,8.037,7.979,7.7,15.028l12.322-19.757C2472.518,1659.5,2451.194,1644.969,2433.344,1644.969Z" transform="translate(-2388.551 -1643.259)" fill="#6ebdff"/>
                <path id="Trazado_1307" data-name="Trazado 1307" d="M2455.312,1647.391c-8.521-6.305-18.647-9.922-27.781-9.922h-43a1.71,1.71,0,0,0-1.7,1.537c-.059.586-1.349,14.459,7.749,24.525,5.945,6.578,14.864,9.912,26.51,9.912h17.08a25.846,25.846,0,0,1,15.349,4.93c4.908,3.647,7.269,8.215,7.016,13.575a1.709,1.709,0,0,0,1.627,1.788l.082,0a1.71,1.71,0,0,0,1.706-1.629c.305-6.475-2.6-12.174-8.392-16.481a29.284,29.284,0,0,0-17.389-5.6h-17.08c-10.625,0-18.683-2.948-23.953-8.763-6.427-7.093-7.006-16.681-6.968-20.373h41.359c8.417,0,17.8,3.372,25.747,9.251,8.337,6.169,13.883,14.153,15.615,22.481a1.71,1.71,0,0,0,3.348-.7C2470.337,1662.773,2464.325,1654.06,2455.312,1647.391Z" transform="translate(-2382.739 -1637.469)" fill="#096ab2"/>
              </g>
            </g>
          </g>
          <g id="Grupo_1096" data-name="Grupo 1096" transform="translate(15.716 49.341)">
            <g id="Grupo_1090" data-name="Grupo 1090" transform="translate(5.67 9.82)">
              <path id="Trazado_1308" data-name="Trazado 1308" d="M2614.537,1897.012h0a3.345,3.345,0,1,0,0,6.689h0a3.345,3.345,0,1,0,0-6.689Z" transform="translate(-2574.558 -1897.012)" fill="#0868af"/>
              <path id="Trazado_1309" data-name="Trazado 1309" d="M2453.823,1897.012h0a3.345,3.345,0,1,0,0,6.689h0a3.345,3.345,0,1,0,0-6.689Z" transform="translate(-2450.478 -1897.012)" fill="#0868af"/>
            </g>
            <g id="Grupo_1093" data-name="Grupo 1093">
              <g id="Grupo_1091" data-name="Grupo 1091" transform="translate(38.344)">
                <path id="Trazado_1310" data-name="Trazado 1310" d="M2610.389,1856.931h-12.184a1.383,1.383,0,0,0,0,2.767h12.184a1.383,1.383,0,1,0,0-2.767Z" transform="translate(-2596.138 -1856.247)" fill="#6ebdff"/>
                <path id="Trazado_1311" data-name="Trazado 1311" d="M2608.073,1853.931h-12.184a2.067,2.067,0,0,0,0,4.134h12.184a2.067,2.067,0,1,0,0-4.134Zm0,3.451h-12.184a1.383,1.383,0,0,1,0-2.767h12.184a1.383,1.383,0,0,1,0,2.767Z" transform="translate(-2593.822 -1853.931)" fill="#6ebdff"/>
              </g>
              <g id="Grupo_1092" data-name="Grupo 1092">
                <path id="Trazado_1312" data-name="Trazado 1312" d="M2442.172,1856.931h-12.184a1.383,1.383,0,1,0,0,2.767h12.184a1.383,1.383,0,1,0,0-2.767Z" transform="translate(-2427.921 -1856.247)" fill="#6ebdff"/>
                <path id="Trazado_1313" data-name="Trazado 1313" d="M2439.856,1853.931h-12.184a2.067,2.067,0,0,0,0,4.134h12.184a2.067,2.067,0,0,0,0-4.134Zm0,3.451h-12.184a1.383,1.383,0,0,1,0-2.767h12.184a1.383,1.383,0,1,1,0,2.767Z" transform="translate(-2425.605 -1853.931)" fill="#6ebdff"/>
              </g>
            </g>
            <g id="Grupo_1094" data-name="Grupo 1094" transform="translate(0.772 24.601)">
              <path id="Trazado_1314" data-name="Trazado 1314" d="M2625.808,1961.856a4.659,4.659,0,1,0,4.659,4.658A4.658,4.658,0,0,0,2625.808,1961.856Z" transform="translate(-2577.349 -1961.856)" fill="#c5edf9"/>
              <circle id="Elipse_509" data-name="Elipse 509" cx="4.659" cy="4.659" r="4.659" fill="#c5edf9"/>
            </g>
            <g id="Grupo_1095" data-name="Grupo 1095" transform="translate(15.966 44.944)">
              <path id="Trazado_1315" data-name="Trazado 1315" d="M2515.747,2051.375a16.1,16.1,0,0,1-8.791,2.7h-.9a15.875,15.875,0,0,1-7.856-2.137,1.71,1.71,0,0,0-1.678,2.979,19.253,19.253,0,0,0,9.534,2.577h.9a19.466,19.466,0,0,0,10.639-3.242,1.71,1.71,0,0,0-1.848-2.877Z" transform="translate(-2495.65 -2051.104)" fill="#096ab2"/>
            </g>
            <path id="Trazado_1316" data-name="Trazado 1316" d="M2527.742,1900.3a1.709,1.709,0,0,0-1.709,1.71,3.308,3.308,0,0,1-6.615,0v-24.585a1.709,1.709,0,0,0-3.419,0v24.585a6.727,6.727,0,0,0,13.454,0A1.71,1.71,0,0,0,2527.742,1900.3Z" transform="translate(-2495.394 -1870.752)" fill="#096ab2"/>
          </g>
        </g>
        <g id="Grupo_1098" data-name="Grupo 1098" transform="translate(41.437 121.914)">
          <path id="Trazado_1317" data-name="Trazado 1317" d="M2432.812,2179.817H2357.1c-16.244,0-25.235,7.389-31.594,18.525l6.589,39.789-3.469,70.777a142.5,142.5,0,0,0,124.912-10.847l1.9-85.118C2455.435,2196.7,2449.056,2179.817,2432.812,2179.817Z" transform="translate(-2323.796 -2178.107)" fill="#fff"/>
          <path id="Trazado_1318" data-name="Trazado 1318" d="M2427.021,2172.317h-75.713c-8.1,0-14.78,1.752-20.424,5.355-4.917,3.139-9.056,7.729-12.655,14.031a1.71,1.71,0,0,0,2.969,1.7c6.976-12.215,16.262-17.663,30.109-17.663h75.713c6.864,0,12.222,3.237,15.924,9.619,3.214,5.543,4.986,13.277,4.989,21.777l-1.875,84.157a140.811,140.811,0,0,1-121.456,10.675l3.408-69.54a1.71,1.71,0,0,0-3.415-.167l-3.469,70.777a1.71,1.71,0,0,0,1.089,1.678,144.213,144.213,0,0,0,126.415-10.979,1.708,1.708,0,0,0,.824-1.425l1.9-85.118c0-.013,0-.025,0-.038,0-9.1-1.936-17.451-5.451-23.511C2441.606,2176.233,2435.077,2172.317,2427.021,2172.317Z" transform="translate(-2318.005 -2172.317)" fill="#096ab2"/>
        </g>
        <g id="Grupo_1099" data-name="Grupo 1099" transform="translate(64.23 121.914)">
          <path id="Trazado_1319" data-name="Trazado 1319" d="M2425.5,2180.657l2.967,4.635,31.528,79.149,23.184-53.964,8.157-30.66H2434.3A43.819,43.819,0,0,0,2425.5,2180.657Z" transform="translate(-2423.788 -2178.107)" fill="#e0f4fc"/>
          <path id="Trazado_1320" data-name="Trazado 1320" d="M2485.544,2172.317h-57.035a45.78,45.78,0,0,0-9.144.875,1.71,1.71,0,0,0-1.1,2.6l2.879,4.5,31.468,79a1.71,1.71,0,0,0,1.565,1.077h.023a1.71,1.71,0,0,0,1.571-1.035l23.184-53.964a1.712,1.712,0,0,0,.082-.236l8.157-30.66a1.71,1.71,0,0,0-1.652-2.149Zm-8.157,32.37h0Zm-1.62-.56-21.5,50.054-30-75.312a1.714,1.714,0,0,0-.148-.289l-1.574-2.459a44.809,44.809,0,0,1,5.969-.385h54.811Z" transform="translate(-2417.998 -2172.317)" fill="#096ab2"/>
        </g>
        <g id="Grupo_1100" data-name="Grupo 1100" transform="translate(86.035 123.502)">
          <rect id="Rect치ngulo_862" data-name="Rect치ngulo 862" width="21.182" height="21.182" rx="10.591" transform="translate(0 14.978) rotate(-45)" fill="#a5d1f7"/>
          <path id="Trazado_1321" data-name="Trazado 1321" d="M2546.017,2301.114a6.041,6.041,0,0,0-8.542,0l-6.436,6.436c-.8.8-.317,11.559.67,25.431l9.458,23.743,10.7-24.9c.931-13.309,1.365-23.5.588-24.274Z" transform="translate(-2526.768 -2271.977)" fill="#a5d1f7"/>
        </g>
        <g id="Grupo_1101" data-name="Grupo 1101" transform="translate(57.489 121.914)">
          <path id="Trazado_1322" data-name="Trazado 1322" d="M2411.467,2179.817a37.894,37.894,0,0,0-15.543,2.964l10.576,15.972-9.553,9.118,40.213,56.57-25.572-84.624Z" transform="translate(-2394.215 -2178.107)" fill="#fff"/>
          <path id="Trazado_1323" data-name="Trazado 1323" d="M2407.435,2173.532a1.71,1.71,0,0,0-1.636-1.215h-.122a39.4,39.4,0,0,0-16.235,3.111,1.709,1.709,0,0,0-.733,2.507l9.787,14.779-8.518,8.131a1.71,1.71,0,0,0-.213,2.227l40.213,56.569a1.71,1.71,0,0,0,3.03-1.485Zm-14.027,28.764,8.483-8.1a1.709,1.709,0,0,0,.245-2.18l-9.419-14.225a36.714,36.714,0,0,1,11.817-2.045l22.179,73.4Z" transform="translate(-2388.424 -2172.317)" fill="#096ab2"/>
        </g>
        <g id="Grupo_1102" data-name="Grupo 1102" transform="translate(98.725 121.914)">
          <path id="Trazado_1324" data-name="Trazado 1324" d="M2602.4,2179.817l-25.572,84.624,40.213-56.569-9.553-9.119,13.327-18.936Z" transform="translate(-2575.121 -2178.108)" fill="#fff"/>
          <path id="Trazado_1325" data-name="Trazado 1325" d="M2615.027,2172.317h-18.415a1.71,1.71,0,0,0-1.637,1.215l-25.572,84.624a1.71,1.71,0,0,0,3.03,1.485l40.213-56.569a1.709,1.709,0,0,0-.213-2.227l-8.488-8.1,12.48-17.732a1.71,1.71,0,0,0-1.4-2.694Zm-14.726,19.662a1.71,1.71,0,0,0,.218,2.22l8.483,8.1-33.3,46.852,22.184-73.412h13.852Z" transform="translate(-2569.33 -2172.317)" fill="#096ab2"/>
        </g>
        <g id="Grupo_1103" data-name="Grupo 1103" transform="translate(136.672 122.446)">
          <path id="Trazado_1326" data-name="Trazado 1326" d="M2758.049,2182.18h0l-14.74,60.495,7.428,69.274a142.023,142.023,0,0,0,42.442-24.208l-9.282-82.084A24.691,24.691,0,0,0,2758.049,2182.18Z" transform="translate(-2741.599 -2180.441)" fill="#fff"/>
          <path id="Trazado_1327" data-name="Trazado 1327" d="M2779.812,2199.726a26.4,26.4,0,0,0-27.635-25.046,1.71,1.71,0,0,0,.164,3.415,22.981,22.981,0,0,1,24.059,21.851c0,.036,0,.073.009.11l9.177,81.161a139.893,139.893,0,0,1-39.173,22.578l-7.195-67.094a1.71,1.71,0,1,0-3.4.365l7.428,69.273a1.71,1.71,0,0,0,2.278,1.427,143.322,143.322,0,0,0,42.953-24.5,1.709,1.709,0,0,0,.609-1.51Z" transform="translate(-2735.809 -2174.649)" fill="#096ab2"/>
        </g>
        <path id="Trazado_1328" data-name="Trazado 1328" d="M2571.041,2543.569a1.71,1.71,0,0,0-1.709,1.709v54a1.71,1.71,0,1,0,3.419,0v-54A1.709,1.709,0,0,0,2571.041,2543.569Z" transform="translate(-2470.606 -2337.031)" fill="#096ab2"/>
      </g>
    </g>
    <g id="Grupo_1115" data-name="Grupo 1115" transform="translate(166.612 849.615)">
      <g id="Grupo_1106" data-name="Grupo 1106" transform="translate(0 51.209)">
        <path id="Trazado_1329" data-name="Trazado 1329" d="M811.8,3959.386H744.773a6.124,6.124,0,0,0-6.124,6.125v47.441a6.124,6.124,0,0,0,6.124,6.125h19.392V4040.6l21.527-21.526H811.8a6.124,6.124,0,0,0,6.125-6.125V3965.51A6.124,6.124,0,0,0,811.8,3959.386Z" transform="translate(-736.939 -3957.676)" fill="#e0f4fc"/>
        <path id="Trazado_1330" data-name="Trazado 1330" d="M806.008,3951.886H738.983a7.843,7.843,0,0,0-7.834,7.834v47.441a7.843,7.843,0,0,0,7.834,7.834h17.682v19.817a1.71,1.71,0,0,0,2.919,1.209L780.609,4015h25.4a7.843,7.843,0,0,0,7.834-7.834V3959.72A7.843,7.843,0,0,0,806.008,3951.886Zm4.415,55.275a4.42,4.42,0,0,1-4.415,4.415H779.9a1.709,1.709,0,0,0-1.209.5l-18.608,18.608v-17.4a1.709,1.709,0,0,0-1.71-1.71H738.983a4.42,4.42,0,0,1-4.415-4.415V3959.72a4.42,4.42,0,0,1,4.415-4.415h67.025a4.42,4.42,0,0,1,4.415,4.415Z" transform="translate(-731.149 -3951.886)" fill="#a2dfff"/>
      </g>
      <g id="Grupo_1114" data-name="Grupo 1114" transform="translate(18.297 68.118)">
        <g id="Grupo_1109" data-name="Grupo 1109">
          <g id="Grupo_1107" data-name="Grupo 1107">
            <line id="L칤nea_2" data-name="L칤nea 2" x1="42.68" transform="translate(1.71 1.71)" fill="#e0f4fc"/>
            <path id="Trazado_1331" data-name="Trazado 1331" d="M855.809,4026.067H813.13a1.709,1.709,0,1,0,0,3.419h42.68a1.709,1.709,0,1,0,0-3.419Z" transform="translate(-811.42 -4026.067)" fill="#a2dfff"/>
          </g>
          <g id="Grupo_1108" data-name="Grupo 1108" transform="translate(0 14.026)">
            <line id="L칤nea_3" data-name="L칤nea 3" x1="42.68" transform="translate(1.71 1.71)" fill="#e0f4fc"/>
            <path id="Trazado_1332" data-name="Trazado 1332" d="M855.809,4087.6H813.13a1.71,1.71,0,0,0,0,3.419h42.68a1.71,1.71,0,1,0,0-3.419Z" transform="translate(-811.42 -4087.6)" fill="#a2dfff"/>
          </g>
        </g>
        <g id="Grupo_1111" data-name="Grupo 1111" transform="translate(0 14.026)">
          <g id="Grupo_1110" data-name="Grupo 1110">
            <line id="L칤nea_4" data-name="L칤nea 4" x1="42.68" transform="translate(1.71 1.71)" fill="#e0f4fc"/>
            <path id="Trazado_1333" data-name="Trazado 1333" d="M855.809,4087.6H813.13a1.71,1.71,0,0,0,0,3.419h42.68a1.71,1.71,0,1,0,0-3.419Z" transform="translate(-811.42 -4087.6)" fill="#a2dfff"/>
          </g>
        </g>
        <g id="Grupo_1113" data-name="Grupo 1113" transform="translate(0 28.052)">
          <g id="Grupo_1112" data-name="Grupo 1112">
            <line id="L칤nea_5" data-name="L칤nea 5" x1="23.345" transform="translate(1.71 1.71)" fill="#e0f4fc"/>
            <path id="Trazado_1334" data-name="Trazado 1334" d="M836.475,4149.132H813.13a1.709,1.709,0,1,0,0,3.419h23.345a1.709,1.709,0,1,0,0-3.419Z" transform="translate(-811.42 -4149.132)" fill="#a2dfff"/>
          </g>
        </g>
      </g>
      <path id="Trazado_1335" data-name="Trazado 1335" d="M1045.177,3727.227h-44.7a5.8,5.8,0,0,0-5.794,5.794v31.638a5.8,5.8,0,0,0,5.794,5.794h16.7l13.855,13.855a1.71,1.71,0,0,0,2.918-1.209v-12.646h11.223a5.8,5.8,0,0,0,5.794-5.794v-31.638A5.8,5.8,0,0,0,1045.177,3727.227Zm2.375,37.431a2.377,2.377,0,0,1-2.375,2.375h-12.932a1.71,1.71,0,0,0-1.71,1.709v10.229l-11.437-11.437a1.709,1.709,0,0,0-1.209-.5h-17.41a2.378,2.378,0,0,1-2.375-2.375v-31.638a2.378,2.378,0,0,1,2.375-2.375h44.7a2.377,2.377,0,0,1,2.375,2.375Z" transform="translate(-934.614 -3727.227)" fill="#fff"/>
      <path id="Trazado_1336" data-name="Trazado 1336" d="M1076.723,3788.646h-29.858a1.709,1.709,0,1,0,0,3.419h29.858a1.709,1.709,0,1,0,0-3.419Z" transform="translate(-973.581 -3774.646)" fill="#fff"/>
      <path id="Trazado_1337" data-name="Trazado 1337" d="M1065.385,3844.125h-18.519a1.709,1.709,0,1,0,0,3.419h18.519a1.709,1.709,0,0,0,0-3.419Z" transform="translate(-973.581 -3817.479)" fill="#fff"/>
    </g>
    <g id="Grupo_1130" data-name="Grupo 1130" transform="translate(829.282 133.026)">
      <g id="Grupo_1116" data-name="Grupo 1116" transform="translate(0 9.043)">
        <path id="Rect치ngulo_863" data-name="Rect치ngulo 863" d="M27.061,0H79.238A27.061,27.061,0,0,1,106.3,27.061v78.554a27.06,27.06,0,0,1-27.06,27.06H27.061A27.061,27.061,0,0,1,0,105.614V27.061A27.061,27.061,0,0,1,27.061,0Z" transform="translate(1.71 1.71)" fill="#a2dfff"/>
        <path id="Trazado_1338" data-name="Trazado 1338" d="M3740.175,623.169h-93.962a7.887,7.887,0,0,0-7.878,7.878V751.385a7.887,7.887,0,0,0,7.878,7.878h93.962a7.887,7.887,0,0,0,7.877-7.878V631.047A7.887,7.887,0,0,0,3740.175,623.169Zm4.458,128.216a4.464,4.464,0,0,1-4.458,4.459h-93.962a4.464,4.464,0,0,1-4.459-4.459V631.047a4.464,4.464,0,0,1,4.459-4.459h93.962a4.464,4.464,0,0,1,4.458,4.459Z" transform="translate(-3638.335 -623.169)" fill="#096ab2"/>
      </g>
      <rect id="Rect치ngulo_864" data-name="Rect치ngulo 864" width="89.455" height="116.77" transform="translate(10.132 21.331)" fill="#72c8ed"/>
      <g id="Grupo_1117" data-name="Grupo 1117" transform="translate(8.422 16.295)">
        <rect id="Rect치ngulo_865" data-name="Rect치ngulo 865" width="89.455" height="116.77" transform="translate(1.71 1.71)" fill="#fff"/>
        <path id="Trazado_1339" data-name="Trazado 1339" d="M3766.447,654.985h-89.455a1.71,1.71,0,0,0-1.709,1.71v116.77a1.71,1.71,0,0,0,1.709,1.71h89.455a1.709,1.709,0,0,0,1.709-1.71V656.695A1.709,1.709,0,0,0,3766.447,654.985Zm-1.709,116.77H3678.7V658.4h86.036Z" transform="translate(-3675.282 -654.985)" fill="#096ab2"/>
      </g>
      <g id="Grupo_1119" data-name="Grupo 1119" transform="translate(66.82 103.461)">
        <g id="Grupo_1118" data-name="Grupo 1118" transform="translate(0 0)">
          <rect id="Rect치ngulo_866" data-name="Rect치ngulo 866" width="4.832" height="10.819" rx="2.416" transform="translate(0 8.966) rotate(-45.002)" fill="#a2dfff"/>
          <path id="Rect치ngulo_867" data-name="Rect치ngulo 867" d="M2.416,0H16.251a2.416,2.416,0,0,1,2.416,2.416v0a2.416,2.416,0,0,1-2.416,2.416H2.416A2.416,2.416,0,0,1,0,2.416v0A2.416,2.416,0,0,1,2.416,0Z" transform="translate(4.234 13.199) rotate(-45)" fill="#a2dfff"/>
        </g>
      </g>
      <g id="Grupo_1126" data-name="Grupo 1126" transform="translate(21.886 37.366)">
        <g id="Grupo_1121" data-name="Grupo 1121">
          <g id="Grupo_1120" data-name="Grupo 1120">
            <path id="Trazado_1340" data-name="Trazado 1340" d="M3797.567,747.423h-60.824a2.393,2.393,0,0,0,0,4.787h60.824a2.393,2.393,0,0,0,0-4.787Z" transform="translate(-3734.35 -747.423)" fill="#a2dfff"/>
            <path id="Trazado_1341" data-name="Trazado 1341" d="M3792.553,776.416h-55.81a2.393,2.393,0,0,0,0,4.787h55.81a2.393,2.393,0,0,0,0-4.787Z" transform="translate(-3734.35 -769.807)" fill="#a2dfff"/>
            <path id="Trazado_1342" data-name="Trazado 1342" d="M3758.724,805.409h-21.98a2.393,2.393,0,0,0,0,4.787h21.98a2.393,2.393,0,1,0,0-4.787Z" transform="translate(-3734.35 -792.192)" fill="#a2dfff"/>
          </g>
        </g>
        <g id="Grupo_1123" data-name="Grupo 1123" transform="translate(0 25.006)">
          <g id="Grupo_1122" data-name="Grupo 1122">
            <path id="Trazado_1343" data-name="Trazado 1343" d="M3797.567,857.127h-60.824a2.393,2.393,0,0,0,0,4.787h60.824a2.393,2.393,0,0,0,0-4.787Z" transform="translate(-3734.35 -857.127)" fill="#a2dfff"/>
            <path id="Trazado_1344" data-name="Trazado 1344" d="M3792.553,886.12h-55.81a2.393,2.393,0,0,0,0,4.787h55.81a2.393,2.393,0,0,0,0-4.787Z" transform="translate(-3734.35 -879.511)" fill="#a2dfff"/>
            <path id="Trazado_1345" data-name="Trazado 1345" d="M3758.724,915.112h-21.98a2.393,2.393,0,0,0,0,4.787h21.98a2.393,2.393,0,1,0,0-4.787Z" transform="translate(-3734.35 -901.895)" fill="#a2dfff"/>
          </g>
        </g>
        <g id="Grupo_1125" data-name="Grupo 1125" transform="translate(0 50.012)">
          <g id="Grupo_1124" data-name="Grupo 1124">
            <path id="Trazado_1346" data-name="Trazado 1346" d="M3797.567,966.831h-60.824a2.393,2.393,0,0,0,0,4.787h60.824a2.393,2.393,0,0,0,0-4.787Z" transform="translate(-3734.35 -966.831)" fill="#a2dfff"/>
            <path id="Trazado_1347" data-name="Trazado 1347" d="M3792.553,995.824h-55.81a2.393,2.393,0,0,0,0,4.787h55.81a2.393,2.393,0,0,0,0-4.787Z" transform="translate(-3734.35 -989.215)" fill="#a2dfff"/>
            <path id="Trazado_1348" data-name="Trazado 1348" d="M3758.724,1024.816h-21.98a2.393,2.393,0,0,0,0,4.787h21.98a2.393,2.393,0,1,0,0-4.787Z" transform="translate(-3734.35 -1011.599)" fill="#a2dfff"/>
          </g>
        </g>
      </g>
      <g id="Grupo_1129" data-name="Grupo 1129" transform="translate(29.1)">
        <g id="Grupo_1127" data-name="Grupo 1127" transform="translate(9.475)">
          <path id="Trazado_1349" data-name="Trazado 1349" d="M3840.134,598.5h-9.872a7.735,7.735,0,0,0-7.695,7.773v2.754h3.157v-2.754a4.582,4.582,0,0,1,4.538-4.615h9.872a4.582,4.582,0,0,1,4.536,4.615v2.754h3.158v-2.754A7.734,7.734,0,0,0,3840.134,598.5Z" transform="translate(-3819.148 -595.077)" fill="#e0f4fc"/>
          <path id="Trazado_1350" data-name="Trazado 1350" d="M3828.553,583.5h-9.872a11.166,11.166,0,0,0-11.114,11.192v2.754a3.419,3.419,0,0,0,3.419,3.419h3.157a3.419,3.419,0,0,0,3.419-3.419v-2.754a1.161,1.161,0,0,1,1.119-1.2h9.872a1.159,1.159,0,0,1,1.116,1.2v2.754a3.419,3.419,0,0,0,3.419,3.419h3.158a3.419,3.419,0,0,0,3.419-3.419v-2.754A11.165,11.165,0,0,0,3828.553,583.5Zm7.694,13.946h-3.158v-2.754a4.582,4.582,0,0,0-4.536-4.615h-9.872a4.582,4.582,0,0,0-4.538,4.615v2.754h-3.157v-2.754a7.735,7.735,0,0,1,7.7-7.773h9.872a7.733,7.733,0,0,1,7.694,7.773Z" transform="translate(-3807.567 -583.496)" fill="#096ab2"/>
        </g>
        <g id="Grupo_1128" data-name="Grupo 1128" transform="translate(0 6.315)">
          <path id="Trazado_1351" data-name="Trazado 1351" d="M3817.515,626.2H3788.7a7.736,7.736,0,0,0-7.7,7.774v3.805h44.211v-3.805A7.735,7.735,0,0,0,3817.515,626.2Z" transform="translate(-3777.581 -622.783)" fill="#e0f4fc"/>
          <path id="Trazado_1352" data-name="Trazado 1352" d="M3805.934,611.2h-28.819A11.167,11.167,0,0,0,3766,622.395V626.2a3.419,3.419,0,0,0,3.419,3.419h44.211a3.419,3.419,0,0,0,3.419-3.419v-3.805A11.167,11.167,0,0,0,3805.934,611.2Zm7.7,15h-44.211v-3.805a7.736,7.736,0,0,1,7.7-7.774h28.819a7.735,7.735,0,0,1,7.7,7.774Z" transform="translate(-3766 -611.202)" fill="#096ab2"/>
        </g>
      </g>
    </g>
    <g id="Grupo_1134" data-name="Grupo 1134" transform="translate(96.847 437.374)">
      <path id="Trazado_1353" data-name="Trazado 1353" d="M623.918,1918.7H578.034a17.727,17.727,0,0,0-17.706,17.709v16.248a1.709,1.709,0,0,0,1.71,1.709h8.893a1.71,1.71,0,1,0,0-3.419h-7.183v-14.539a14.3,14.3,0,0,1,14.287-14.29h45.884a14.3,14.3,0,0,1,14.288,14.29v14.539h-6.238a1.71,1.71,0,1,0,0,3.419h7.947a1.709,1.709,0,0,0,1.71-1.709v-16.248A17.728,17.728,0,0,0,623.918,1918.7Z" transform="translate(-529.5 -1918.697)" fill="#096ab2"/>
      <g id="Grupo_1132" data-name="Grupo 1132" transform="translate(0 25.63)">
        <g id="Grupo_1131" data-name="Grupo 1131">
          <path id="Trazado_1354" data-name="Trazado 1354" d="M553.707,2038.637H448.581a16.046,16.046,0,0,0-16,16v74.654a16.044,16.044,0,0,0,16,16H553.707a16.044,16.044,0,0,0,16-16v-74.654A16.046,16.046,0,0,0,553.707,2038.637Z" transform="translate(-430.874 -2036.928)" fill="#fff" fill-rule="evenodd"/>
          <path id="Trazado_1355" data-name="Trazado 1355" d="M547.917,2031.138H442.791a17.727,17.727,0,0,0-17.707,17.708V2123.5a17.728,17.728,0,0,0,17.707,17.708H547.917a17.728,17.728,0,0,0,17.707-17.708v-74.654A17.728,17.728,0,0,0,547.917,2031.138Zm14.288,92.362a14.305,14.305,0,0,1-14.288,14.29H442.791A14.3,14.3,0,0,1,428.5,2123.5v-74.654a14.3,14.3,0,0,1,14.288-14.289H547.917a14.3,14.3,0,0,1,14.288,14.289Z" transform="translate(-425.084 -2031.138)" fill="#096ab2"/>
        </g>
        <path id="Trazado_1356" data-name="Trazado 1356" d="M861.772,2071.952H841.949a2.393,2.393,0,1,0,0,4.787h19.822a8.777,8.777,0,0,1,8.767,8.768v20.847a2.393,2.393,0,0,0,4.787,0v-20.847A13.569,13.569,0,0,0,861.772,2071.952Z" transform="translate(-745.08 -2062.649)" fill="#a2dfff"/>
        <path id="Trazado_1357" data-name="Trazado 1357" d="M632.2,2071.952H583.9a2.393,2.393,0,1,0,0,4.787h48.3a2.393,2.393,0,1,0,0-4.787Z" transform="translate(-545.85 -2062.649)" fill="#a2dfff"/>
      </g>
      <g id="Grupo_1133" data-name="Grupo 1133" transform="translate(38.055 48.45)">
        <path id="Trazado_1358" data-name="Trazado 1358" d="M658.4,2158.512H640.785V2140.9a2.152,2.152,0,0,0-2.147-2.148H621.448a2.154,2.154,0,0,0-2.152,2.148v17.614H601.683a2.152,2.152,0,0,0-2.148,2.148v17.189a2.154,2.154,0,0,0,2.148,2.152H619.3v17.611a2.153,2.153,0,0,0,2.152,2.148h17.189a2.151,2.151,0,0,0,2.147-2.148V2180H658.4a2.155,2.155,0,0,0,2.149-2.152v-17.189A2.153,2.153,0,0,0,658.4,2158.512Z" transform="translate(-597.825 -2137.041)" fill="#a2dfff" fill-rule="evenodd"/>
        <path id="Trazado_1359" data-name="Trazado 1359" d="M652.606,2151.012H636.7v-15.9a3.862,3.862,0,0,0-3.857-3.858H615.657a3.864,3.864,0,0,0-3.862,3.858v15.9h-15.9a3.862,3.862,0,0,0-3.858,3.858v17.19a3.864,3.864,0,0,0,3.858,3.862h15.9v15.9a3.864,3.864,0,0,0,3.862,3.857h17.189a3.862,3.862,0,0,0,3.857-3.857v-15.9h15.9a3.865,3.865,0,0,0,3.859-3.862v-17.19A3.863,3.863,0,0,0,652.606,2151.012Zm.44,21.047a.447.447,0,0,1-.44.443H634.994a1.709,1.709,0,0,0-1.71,1.709v17.611a.444.444,0,0,1-.438.438H615.657a.441.441,0,0,1-.443-.438v-17.611a1.709,1.709,0,0,0-1.71-1.709H595.893a.447.447,0,0,1-.439-.443v-17.19a.445.445,0,0,1,.439-.438H613.5a1.71,1.71,0,0,0,1.71-1.709v-17.614a.447.447,0,0,1,.443-.439h17.189a.444.444,0,0,1,.438.439v17.614a1.71,1.71,0,0,0,1.71,1.709h17.612a.445.445,0,0,1,.44.438Z" transform="translate(-592.035 -2131.25)" fill="#096ab2"/>
      </g>
    </g>
    <g id="Grupo_1140" data-name="Grupo 1140" transform="translate(154.721 647.236)">
      <g id="Grupo_1139" data-name="Grupo 1139">
        <g id="Grupo_1138" data-name="Grupo 1138">
          <g id="Grupo_1137" data-name="Grupo 1137">
            <g id="Grupo_1136" data-name="Grupo 1136">
              <g id="Grupo_1135" data-name="Grupo 1135">
                <path id="Trazado_1360" data-name="Trazado 1360" d="M737.323,2846.878c-28.078,0-50.839,4.235-50.839,9.46,0,.043.006.087.009.13h-.009v70.011c0,5.418,1.192,11,5.824,13.72,7.446,4.38,45.017,24.805,45.017,24.805.1-.086,37.567-20.425,45.013-24.805,4.632-2.725,5.824-8.3,5.824-13.72v-70.011h-.009c0-.043.009-.087.009-.13C788.162,2851.113,765.4,2846.878,737.323,2846.878Z" transform="translate(-684.774 -2845.168)" fill="#a2dfff"/>
                <path id="Trazado_1361" data-name="Trazado 1361" d="M779.065,2845.3a53.49,53.49,0,0,0-11.271-3.123c-9.7-1.805-22.58-2.8-36.262-2.8s-26.559.994-36.261,2.8A53.493,53.493,0,0,0,684,2845.3c-1.241.546-5.016,2.207-5.016,5.247,0,.022,0,.045,0,.068s0,.042,0,.063v70.011c0,7.48,2.243,12.591,6.667,15.193,7.386,4.345,44.691,24.63,45.067,24.834a1.71,1.71,0,0,0,1.7-.04c.28-.158,2.6-1.425,5.526-3.02,10.966-5.982,33.784-18.43,39.468-21.774,4.424-2.6,6.667-7.714,6.667-15.194v-70.011c0-.021,0-.042,0-.062s0-.045,0-.068C784.081,2847.508,780.306,2845.846,779.065,2845.3Zm1.6,75.389c0,6.269-1.63,10.275-4.982,12.247-5.636,3.316-28.421,15.746-39.372,21.719-2.565,1.4-3.981,2.172-4.778,2.611-5.546-3.018-37.42-20.374-44.146-24.331-3.352-1.971-4.982-5.977-4.982-12.246v-69.837a1.714,1.714,0,0,0,0-.3l0-.03c.072-.576,2.462-2.931,13.492-4.983,9.5-1.769,22.158-2.742,35.636-2.742s26.134.973,35.636,2.742c11.03,2.052,13.421,4.406,13.492,4.983l0,.039a1.694,1.694,0,0,0,0,.287Z" transform="translate(-678.984 -2839.378)" fill="#096ab2"/>
              </g>
              <path id="Trazado_1362" data-name="Trazado 1362" d="M803.477,2881.854c0-2.942-3.428-4.451-4.555-4.947a45.2,45.2,0,0,0-9.532-2.645,197.511,197.511,0,0,0-60.674,0,45.2,45.2,0,0,0-9.532,2.645c-1.127.5-4.555,2-4.555,4.947,0,.019,0,.038,0,.056s0,.035,0,.053v60.469c0,6.472,1.974,10.915,5.866,13.2,6.165,3.626,36.3,20.011,37.58,20.708a2.051,2.051,0,0,0,2.033-.042c.261-.146,2.16-1.182,4.548-2.485,9.154-4.994,28.2-15.384,32.955-18.18,3.892-2.29,5.866-6.732,5.866-13.2v-60.469c0-.021,0-.041,0-.062S803.477,2881.871,803.477,2881.854Zm-84.749-.111v0Zm80.646,60.688c0,4.984-1.257,8.146-3.843,9.667-4.7,2.763-23.7,13.132-32.839,18.115-1.805.985-2.93,1.6-3.641,1.989-5.363-2.918-30.989-16.876-36.476-20.1-2.586-1.521-3.843-4.684-3.843-9.668v-60.3c0-.055.007-.111.007-.167.454-.646,3.321-2.421,12.063-3.909a196.953,196.953,0,0,1,56.5,0c8.741,1.488,11.608,3.263,12.063,3.909q0,.086.008.171Z" transform="translate(-706.504 -2864.501)" fill="#fff"/>
            </g>
          </g>
        </g>
      </g>
      <path id="Trazado_1363" data-name="Trazado 1363" d="M849.228,2980.372h-10.48V2969.89a3.584,3.584,0,0,0-3.58-3.58H822.937a3.586,3.586,0,0,0-3.583,3.58v10.481h-10.48a3.584,3.584,0,0,0-3.58,3.58v12.231a3.586,3.586,0,0,0,3.58,3.583h10.48v10.479a3.586,3.586,0,0,0,3.583,3.58h12.231a3.584,3.584,0,0,0,3.58-3.58v-10.479h10.48a3.586,3.586,0,0,0,3.581-3.583v-12.231A3.585,3.585,0,0,0,849.228,2980.372Zm-14.058-9.958h0Zm13.535,25.25H836.7a2.051,2.051,0,0,0-2.051,2.051v12.008H823.457v-12.008a2.051,2.051,0,0,0-2.052-2.051H809.4v-11.188h12.009a2.051,2.051,0,0,0,2.052-2.051v-12.01h11.188v12.01a2.051,2.051,0,0,0,2.051,2.051h12.009Z" transform="translate(-776.503 -2937.377)" fill="#fff"/>
    </g>
    <g id="Grupo_1143" data-name="Grupo 1143" transform="translate(865.702 598.54)">
      <g id="Grupo_1142" data-name="Grupo 1142" transform="translate(23.245 31.112)">
        <g id="Grupo_1141" data-name="Grupo 1141">
          <path id="Trazado_1364" data-name="Trazado 1364" d="M4003.354,2769.735a36.062,36.062,0,0,0-17.347,4.359,36.5,36.5,0,0,0-14.384,14.621,36.5,36.5,0,0,0-14.384-14.621,36.063,36.063,0,0,0-17.348-4.359c-9.105,0-17.687,3.37-23.543,9.246-5.76,5.779-8.788,13.735-8.756,23.008.087,25.907,20.73,41.019,38.7,51.29a233.481,233.481,0,0,1,23.807,15.73,2.486,2.486,0,0,0,3.04,0,233.547,233.547,0,0,1,23.807-15.73c17.974-10.271,38.616-25.383,38.7-51.29.031-9.272-3-17.228-8.757-23.007C4021.04,2773.105,4012.459,2769.735,4003.354,2769.735Z" transform="translate(-3905.882 -2768.026)" fill="#fff"/>
          <path id="Trazado_1365" data-name="Trazado 1365" d="M3997.563,2762.235a37.107,37.107,0,0,0-31.731,17.337,37.109,37.109,0,0,0-31.731-17.337c-9.557,0-18.579,3.553-24.754,9.75-6.088,6.108-9.288,14.483-9.255,24.22.09,26.783,21.192,42.269,39.565,52.769a234.129,234.129,0,0,1,23.611,15.6,4.2,4.2,0,0,0,5.128,0,234.12,234.12,0,0,1,23.612-15.6c18.374-10.5,39.475-25.985,39.565-52.769.033-9.736-3.167-18.111-9.255-24.22C4016.141,2765.789,4007.119,2762.235,3997.563,2762.235Zm-7.252,83.77a233.171,233.171,0,0,0-24,15.861.776.776,0,0,1-.951,0,233.292,233.292,0,0,0-24-15.86c-17.574-10.043-37.758-24.78-37.842-49.812-.03-8.808,2.825-16.345,8.257-21.795,5.538-5.557,13.678-8.744,22.332-8.744a34.346,34.346,0,0,1,16.524,4.147,34.806,34.806,0,0,1,13.705,13.939,1.709,1.709,0,0,0,3,0,34.808,34.808,0,0,1,13.705-13.939,34.349,34.349,0,0,1,16.524-4.147c8.654,0,16.793,3.187,22.332,8.744,5.432,5.451,8.288,12.987,8.258,21.794C4028.069,2821.224,4007.885,2835.961,3990.311,2846Z" transform="translate(-3900.092 -2762.235)" fill="#096ab2"/>
        </g>
      </g>
      <path id="Trazado_1366" data-name="Trazado 1366" d="M3975.669,2703.839h-56.25a1.71,1.71,0,0,0-1.352.663l-10.271,13.266-3.6-74.559a1.71,1.71,0,0,0-3.39-.225l-15.665,85.667-15.916-101.462a1.71,1.71,0,0,0-3.359-.1l-16.812,76.75h-49.237a1.709,1.709,0,0,0,0,3.419h50.613a1.71,1.71,0,0,0,1.67-1.344l15.158-69.2,16.064,102.412a1.709,1.709,0,0,0,1.667,1.444h.021a1.709,1.709,0,0,0,1.682-1.4l14.8-80.953,3.106,64.344a1.71,1.71,0,0,0,3.059.964l12.594-16.266h55.411a1.709,1.709,0,0,0,0-3.419Z" transform="translate(-3798.112 -2625.744)" fill="#096ab2"/>
    </g>
    <g id="Grupo_1149" data-name="Grupo 1149" transform="translate(465.103 669.318)">
      <rect id="Rect치ngulo_868" data-name="Rect치ngulo 868" width="238.957" height="57.289" rx="28.645" transform="translate(0 42.552)" fill="#a2dfff"/>
      <g id="Grupo_1144" data-name="Grupo 1144" transform="translate(124.792 60.938)">
        <path id="Trazado_1367" data-name="Trazado 1367" d="M2643.041,3263.017h-52.975a1.938,1.938,0,0,0,0,3.875h52.975a1.938,1.938,0,0,0,0-3.875Z" transform="translate(-2588.128 -3249.471)" fill="#0868af"/>
        <path id="Trazado_1368" data-name="Trazado 1368" d="M2657.39,3203.592h-67.325a1.938,1.938,0,0,0,0,3.875h67.325a1.938,1.938,0,0,0,0-3.875Z" transform="translate(-2588.128 -3203.592)" fill="#0868af"/>
      </g>
      <g id="Grupo_1148" data-name="Grupo 1148" transform="translate(22.621)">
        <g id="Grupo_1145" data-name="Grupo 1145">
          <path id="Trazado_1369" data-name="Trazado 1369" d="M2212.39,2936.251h-65.365a7.13,7.13,0,0,0-7.131,7.128v47.537a7.132,7.132,0,0,0,7.131,7.133h37.634l15.559,15.557a3.561,3.561,0,0,0,5.041,0l-.065-15.557h7.2a7.133,7.133,0,0,0,7.132-7.133v-47.537A7.132,7.132,0,0,0,2212.39,2936.251Z" transform="translate(-2139.895 -2936.251)" fill="#fdb818"/>
        </g>
        <g id="Grupo_1147" data-name="Grupo 1147" transform="translate(25.338 8.766)">
          <g id="Grupo_1146" data-name="Grupo 1146">
            <path id="Trazado_1370" data-name="Trazado 1370" d="M2274.66,3002.583c-1.355.072-3.267,1.911-4.524,2.354-1.227.435-1.917-.016-2.657-1.2l-6.885-12.117c-.634-1.237-.667-2.062.333-2.894,1.022-.849,3.583-1.551,4.338-2.68s-.64-8.84-1.888-10.7a1.567,1.567,0,0,0-1.969-.465,12.173,12.173,0,0,0-2.95,1.2l-1.265.719a12.131,12.131,0,0,0-4.555,16.539l9.256,16.288a12.129,12.129,0,0,0,16.537,4.554l1.265-.719a11.915,11.915,0,0,0,1.726-1.19l.857-.65a1.568,1.568,0,0,0,.608-1.931C2281.929,3007.66,2276.017,3002.512,2274.66,3002.583Z" transform="translate(-2251.054 -2974.708)" fill="#fff"/>
          </g>
        </g>
      </g>
    </g>
  </g>
</svg>
