<svg xmlns="http://www.w3.org/2000/svg" xmlns:xlink="http://www.w3.org/1999/xlink" width="435" height="198" viewBox="0 0 435 198">
  <defs>
    <clipPath id="clip-path">
      <circle id="Elipse_590" data-name="Elipse 590" cx="51.883" cy="51.883" r="51.883" transform="translate(0 0)" fill="none"/>
    </clipPath>
    <linearGradient id="linear-gradient" x1="0.627" y1="0.697" x2="0.794" y2="0.942" gradientUnits="objectBoundingBox">
      <stop offset="0" stop-color="#fff"/>
      <stop offset="1" stop-color="#f5f5f5"/>
    </linearGradient>
    <linearGradient id="linear-gradient-2" x1="0.4" y1="0.656" x2="0.248" y2="0.874" xlink:href="#linear-gradient"/>
    <clipPath id="clip-path-2">
      <rect id="background" width="175.23" height="187.381" fill="none"/>
    </clipPath>
    <linearGradient id="linear-gradient-3" x1="0.339" y1="0.214" x2="0.514" y2="0.524" gradientUnits="objectBoundingBox">
      <stop offset="0" stop-color="#f47b54"/>
      <stop offset="0.165" stop-color="#f68a63"/>
      <stop offset="0.445" stop-color="#f99e77"/>
      <stop offset="0.724" stop-color="#fbaa83"/>
      <stop offset="1" stop-color="#fcae88"/>
    </linearGradient>
    <linearGradient id="linear-gradient-4" x1="0.646" y1="1.043" x2="0.505" y2="0.251" gradientUnits="objectBoundingBox">
      <stop offset="0" stop-color="#36200b"/>
      <stop offset="0.052" stop-color="#37210b"/>
      <stop offset="0.529" stop-color="#43280d"/>
      <stop offset="1" stop-color="#482b0e"/>
    </linearGradient>
    <linearGradient id="linear-gradient-5" x1="0.488" y1="0.857" x2="0.541" y2="0.212" gradientUnits="objectBoundingBox">
      <stop offset="0" stop-color="#f47b54"/>
      <stop offset="0.055" stop-color="#f68760"/>
      <stop offset="0.132" stop-color="#f79069"/>
      <stop offset="0.244" stop-color="#f8936c"/>
      <stop offset="1" stop-color="#fcae88"/>
    </linearGradient>
  </defs>
  <g id="Grupo_3263" data-name="Grupo 3263" transform="translate(-117 -6112)">
    <rect id="Rectángulo_933" data-name="Rectángulo 933" width="435" height="198" transform="translate(117 6112)" fill="#efefef"/>
    <g id="Grupo_3040" data-name="Grupo 3040" transform="translate(26.403 5430.273)">
      <g id="Grupo_3035" data-name="Grupo 3035" transform="translate(154.597 759.382)" clip-path="url(#clip-path)">
        <circle id="Elipse_589" data-name="Elipse 589" cx="55.835" cy="55.835" r="55.835" transform="translate(-3.952 -3.952)" fill="#00b3cf"/>
        <g id="Grupo_3034" data-name="Grupo 3034" transform="translate(23.324 4.818)">
          <g id="Grupo_3024" data-name="Grupo 3024" transform="translate(3.812)">
            <g id="Grupo_3023" data-name="Grupo 3023">
              <path id="Trazado_1445" data-name="Trazado 1445" d="M308.1,797.356c-.511-10.414-12.143-18.848-21.084-18.848-8.421-.4-22.2,4.324-24.726,18.848a49.561,49.561,0,0,0,6.389,27.218h33.1S308.813,811.922,308.1,797.356Z" transform="translate(-262.188 -778.485)" fill="#591c00"/>
              <path id="Trazado_1446" data-name="Trazado 1446" d="M308.1,845.7a14.9,14.9,0,0,0-.354-2.567c-2.783,2.21-11.488,8.439-22.523,9.634A38,38,0,0,1,262.2,847.6a50,50,0,0,0,6.481,25.31h33.1S308.813,860.263,308.1,845.7Z" transform="translate(-262.188 -826.826)" fill="#4a1500"/>
              <g id="Grupo_3019" data-name="Grupo 3019" transform="translate(33.641 45.877)">
                <path id="Trazado_1447" data-name="Trazado 1447" d="M395.571,968.1a37.719,37.719,0,0,0,4.659-7.641.329.329,0,0,1,.507.123,22.236,22.236,0,0,1-5.053,8.082Z" transform="translate(-395.571 -960.381)" fill="#ebecec"/>
              </g>
              <g id="Grupo_3020" data-name="Grupo 3020" transform="translate(6.595 46.17)">
                <path id="Trazado_1448" data-name="Trazado 1448" d="M293.817,969.028a37.507,37.507,0,0,1-4.979-7.417.33.33,0,0,0-.5.147,22.123,22.123,0,0,0,5.392,7.839Z" transform="translate(-288.336 -961.546)" fill="#ebecec"/>
              </g>
              <path id="Trazado_1449" data-name="Trazado 1449" d="M330.533,1002.482l-5.909-1.828v-.009h-.031a30.463,30.463,0,0,1-1.2-6.55l-8.464.151s-.43,5.119-1.074,6.4h0v.009l-6.738,2.085s2.917,9.324,11.784,9.324S330.533,1002.482,330.533,1002.482Z" transform="translate(-295.784 -939.715)" fill="#fdbc94"/>
              <path id="Trazado_1450" data-name="Trazado 1450" d="M280.715,936.553s-2.119-2.216-3.329-.317.351,5.959,1.816,6.728a2.31,2.31,0,0,0,2.418.123Z" transform="translate(-273.229 -895.874)" fill="#fdbb91"/>
              <path id="Trazado_1451" data-name="Trazado 1451" d="M409.494,936.553s2.119-2.216,3.329-.317-.351,5.959-1.816,6.728a2.31,2.31,0,0,1-2.418.123Z" transform="translate(-371.665 -895.874)" fill="#fdbb91"/>
              <g id="Grupo_3021" data-name="Grupo 3021" transform="translate(5.171 22.773)">
                <path id="Trazado_1452" data-name="Trazado 1452" d="M294.448,873.894a50.5,50.5,0,0,1-11.759-2.161c.3,6.676.825,16.038,1.492,18.567,1.068,4.051,5.381,13.693,16.387,13.693,12.7,0,15.659-13.688,15.659-13.688s.846-3.05,1.642-21.53C313.837,870.57,303.471,874.668,294.448,873.894Z" transform="translate(-282.689 -868.776)" fill="#ffd3b7"/>
              </g>
              <path id="Trazado_1453" data-name="Trazado 1453" d="M311.564,916.087c-1.035,0-1.874.629-1.874,2.734,0,2.021.839,2.734,1.874,2.734s1.873-.7,1.873-2.734C313.437,916.832,312.6,916.087,311.564,916.087Z" transform="translate(-297.709 -881.382)" fill="#fca979"/>
              <path id="Trazado_1454" data-name="Trazado 1454" d="M311.564,913.789c-1.035,0-1.874.629-1.874,2.734,0,2.021.839,2.734,1.874,2.734s1.873-.7,1.873-2.734C313.437,914.534,312.6,913.789,311.564,913.789Z" transform="translate(-297.709 -879.664)" fill="#421100"/>
              <path id="Trazado_1455" data-name="Trazado 1455" d="M381.169,916.087c-1.035,0-1.874.629-1.874,2.734,0,2.021.839,2.734,1.874,2.734s1.873-.7,1.873-2.734C383.042,916.832,382.2,916.087,381.169,916.087Z" transform="translate(-349.759 -881.382)" fill="#fca979"/>
              <path id="Trazado_1456" data-name="Trazado 1456" d="M381.169,913.789c-1.035,0-1.874.629-1.874,2.734,0,2.021.839,2.734,1.874,2.734s1.873-.7,1.873-2.734C383.042,914.534,382.2,913.789,381.169,913.789Z" transform="translate(-349.759 -879.664)" fill="#421100"/>
              <g id="Grupo_3022" data-name="Grupo 3022" transform="translate(5.171 22.773)">
                <path id="Trazado_1457" data-name="Trazado 1457" d="M317.769,870.995q.05-1.071.1-2.219c-4.031,1.794-14.4,5.892-23.42,5.118a50.5,50.5,0,0,1-11.759-2.161c.032.71.067,1.451.1,2.21a50.923,50.923,0,0,0,11.656,2.126C303.4,876.836,313.669,872.81,317.769,870.995Z" transform="translate(-282.689 -868.776)" fill="#fca979"/>
              </g>
              <path id="Trazado_1458" data-name="Trazado 1458" d="M373.806,890.08a.6.6,0,0,1,.649-.286s4.887,1.552,6.44,4.072a35.024,35.024,0,0,0-7.017-3.03C373.722,890.773,373.512,890.59,373.806,890.08Z" transform="translate(-345.544 -861.711)" fill="#591c00"/>
              <path id="Trazado_1459" data-name="Trazado 1459" d="M308.491,890.08a.6.6,0,0,0-.649-.286s-4.887,1.552-6.44,4.072a35.024,35.024,0,0,1,7.017-3.03C308.575,890.773,308.785,890.59,308.491,890.08Z" transform="translate(-291.512 -861.711)" fill="#591c00"/>
              <path id="Trazado_1460" data-name="Trazado 1460" d="M343.926,922.818s.41,3.066-1.248,4.648c-1.788,1.7,1.77,3.393,2.63,3.364.538-.018,1.144-.8-.357-1.771a1.742,1.742,0,0,1-.758-2.169A4.982,4.982,0,0,0,343.926,922.818Z" transform="translate(-322.007 -886.415)" fill="#fca979"/>
              <path id="Trazado_1461" data-name="Trazado 1461" d="M308.856,794.061s-11.95-5.869-20.878,4.609c0,0,4.464-3.312,7.53-3.005s-5.7.721-9.453,8.287c0,0,9.732-8.449,22.848-8.061C308.9,795.891,310.978,796.03,308.856,794.061Z" transform="translate(-280.036 -788.908)" fill="#723413"/>
              <path id="Trazado_1462" data-name="Trazado 1462" d="M326.211,826.329s-7.3,10.753-25.07,10.87C301.141,837.2,316.442,834.744,326.211,826.329Z" transform="translate(-291.317 -814.262)" fill="#3e0f00"/>
            </g>
          </g>
          <g id="Grupo_3028" data-name="Grupo 3028" transform="translate(0 60.447)">
            <g id="Grupo_3025" data-name="Grupo 3025">
              <path id="Trazado_1463" data-name="Trazado 1463" d="M301.266,1038.527c.184-10.966-5.964-14.611-6.017-14.642h0c-1.669-1.53-12.452-5.236-13.444-5.606s-.992.185-.992.185a6.691,6.691,0,0,1-12.936,0s0-.554-.992-.185c-.938.35-11.308,4.211-13.791,5.606,0,0-6.2,3.629-6.018,14.642a202.785,202.785,0,0,0,2.17,22.306H299.1A202.662,202.662,0,0,0,301.266,1038.527Z" transform="translate(-247.073 -1018.151)" fill="#f78309"/>
            </g>
            <path id="Trazado_1464" data-name="Trazado 1464" d="M324.34,1026.892c7.309-.085,9.579-5.137,10.188-7.631-1.408-.51-2.462-.878-2.741-.982-.992-.369-.992.185-.992.185a6.691,6.691,0,0,1-12.936,0s0-.554-.992-.185c-.283.106-1.428.532-2.955,1.114A10.494,10.494,0,0,0,324.34,1026.892Z" transform="translate(-297.054 -1018.151)" fill="#e4680e"/>
            <path id="Trazado_1465" data-name="Trazado 1465" d="M324.929,1068.5c3.593-.694,7.515-2.634,9.321-5.988a13.105,13.105,0,0,1-4.03,6.495,23.738,23.738,0,0,1-8.024,4.575,12.056,12.056,0,0,1-6.172.939c-2.074-.37-4.064-1.944-4.286-4.038a1.525,1.525,0,0,1,.235-1.123,1.891,1.891,0,0,1,1.537-.468C317.326,1068.913,321.182,1069.223,324.929,1068.5Z" transform="translate(-295.417 -1051.324)" fill="#e4680e"/>
            <g id="Grupo_3026" data-name="Grupo 3026" transform="translate(40.782 22.48)">
              <path id="Trazado_1466" data-name="Trazado 1466" d="M418.117,1107.283s-6.185,5.726-9.348,20.2h2.005C411.549,1122.428,413.495,1113.578,418.117,1107.283Z" transform="translate(-408.769 -1107.283)" fill="#e4680e"/>
            </g>
            <g id="Grupo_3027" data-name="Grupo 3027" transform="translate(3.946 22.48)">
              <path id="Trazado_1467" data-name="Trazado 1467" d="M262.719,1107.283c4.623,6.295,6.568,15.145,7.343,20.2h2.005C268.9,1113.009,262.719,1107.283,262.719,1107.283Z" transform="translate(-262.719 -1107.283)" fill="#e4680e"/>
            </g>
          </g>
          <path id="Trazado_1468" data-name="Trazado 1468" d="M391.255,782a6.575,6.575,0,0,0-4.351-3.376,5.31,5.31,0,0,1,1.016,2.606c-.054.65,1.37,1.167,2.48,1.47-.253.626-.406,1.391.688.844,1.714-.857,4.448-.245,4.448-.245A6.627,6.627,0,0,0,391.255,782Z" transform="translate(-351.637 -778.587)" fill="#591c00"/>
          <path id="Trazado_1469" data-name="Trazado 1469" d="M337.1,1018.787c-.727-.26-1.241-.44-1.423-.508-.992-.37-.992.185-.992.185a6.691,6.691,0,0,1-12.936,0s0-.554-.992-.185c-.194.072-.793.3-1.643.616.546,3.878,4.361,6.882,8.986,6.882C332.769,1025.777,336.611,1022.717,337.1,1018.787Z" transform="translate(-300.945 -957.705)" fill="#fff"/>
          <g id="Grupo_3033" data-name="Grupo 3033" transform="translate(9.221 39.351)">
            <path id="Trazado_1470" data-name="Trazado 1470" d="M283.634,934.7a28.923,28.923,0,0,0,4.231,3.969l.011-.585a27.277,27.277,0,0,1-3.706-3.41.766.766,0,0,0-.408-.158A.15.15,0,0,0,283.634,934.7Z" transform="translate(-283.632 -934.509)" fill="#fff"/>
            <path id="Trazado_1471" data-name="Trazado 1471" d="M408.028,934.767a29.289,29.289,0,0,1-3.924,4l-.033-.575a27.23,27.23,0,0,0,3.564-3.6.349.349,0,0,1,.377.01C408.1,934.664,408.028,934.767,408.028,934.767Z" transform="translate(-373.695 -934.534)" fill="#fff"/>
            <path id="Trazado_1472" data-name="Trazado 1472" d="M311.978,955.678a15.227,15.227,0,0,0,11.7-4.409c1.07-5.4,2.035-11.545,2.035-11.545a49.934,49.934,0,0,0-13.6-2.156,49.26,49.26,0,0,0-13.261,2s1.861,9.686,2.606,11.987A18.527,18.527,0,0,0,311.978,955.678Z" transform="translate(-295.016 -936.796)" fill="#fff"/>
            <path id="Trazado_1473" data-name="Trazado 1473" d="M320.718,956.171a14.031,14.031,0,0,1-8.113,2.244c-3.716,0-7.288-1.151-8.518-2.353-2.222-2.172-3.737-9.719-3.737-9.719s-.21-1.081-.418-2.065c-.689.185-1.076.309-1.076.309s1.861,9.686,2.606,11.987a18.528,18.528,0,0,0,10.516,4.122,15.226,15.226,0,0,0,11.7-4.409c1.07-5.4,2.035-11.545,2.035-11.545s-.363-.118-1.008-.3c-.118.6-.245,1.289-.382,2.07C322.738,955.555,320.718,956.171,320.718,956.171Z" transform="translate(-295.016 -941.814)" fill="#ebecec"/>
            <g id="Grupo_3029" data-name="Grupo 3029" transform="translate(3.84 0.772)">
              <path id="Trazado_1474" data-name="Trazado 1474" d="M325.38,941.8c.21-1.273.336-2.071.336-2.071a49.934,49.934,0,0,0-13.6-2.156,49.26,49.26,0,0,0-13.261,2s.159.827.4,2.055a44.38,44.38,0,0,1,26.121.171Z" transform="translate(-298.856 -937.568)" fill="#f0f1f1"/>
            </g>
            <g id="Grupo_3031" data-name="Grupo 3031" transform="translate(4.408 1.723)">
              <g id="Grupo_3030" data-name="Grupo 3030">
                <path id="Trazado_1475" data-name="Trazado 1475" d="M402.156,949.248l-.241-.07.064-.263.243.07Z" transform="translate(-376.49 -947.005)" fill="#fff"/>
                <path id="Trazado_1476" data-name="Trazado 1476" d="M328.217,943.379c-.15-.041-.311-.084-.484-.129l.059-.264q.26.068.487.13Zm-24.153-.146-.06-.264q.227-.06.488-.125l.057.265Q304.289,943.174,304.063,943.233Zm23.185-.107-.486-.12.055-.265.488.12Zm-22.214-.136-.055-.265.49-.115.052.266Q305.268,942.933,305.035,942.989Zm21.24-.1-.488-.111.051-.266.49.111Zm-20.266-.126-.05-.267.491-.1.048.266Zm19.29-.091-.49-.1.047-.267.492.1Zm-18.311-.115-.045-.267.492-.1.044.268Zm17.332-.084-.491-.092.042-.268.493.093Zm-16.35-.1-.042-.268.494-.087.04.269Q308.212,942.329,307.969,942.373Zm15.367-.078-.493-.083.039-.269.495.083Zm-14.382-.09-.037-.269.5-.077.036.269Zm13.4-.072q-.245-.038-.494-.074l.034-.269q.25.036.5.074Zm-12.409-.077-.033-.27.5-.067.031.27Zm11.421-.065-.5-.063.029-.27c.167.02.333.042.5.064Zm-10.431-.064-.028-.27.5-.057.025.27Zm9.441-.057-.5-.052.024-.271c.167.017.334.035.5.053Zm-8.45-.051-.024-.271q.248-.025.5-.047l.021.271Q312.17,941.794,311.923,941.819Zm7.458-.049q-.247-.022-.5-.042l.019-.271q.25.019.5.042Zm-6.465-.038-.018-.271.5-.035.015.271Q313.163,941.713,312.916,941.732Zm5.47-.039-.5-.03.013-.271.5.03Zm-4.476-.026-.013-.271q.25-.013.5-.024l.01.272C314.241,941.651,314.075,941.658,313.91,941.667Zm3.483-.026q-.247-.01-.5-.017l.006-.272.5.017Zm-2.488-.014-.006-.272.5-.011,0,.272Zm1.494-.013-.433,0H315.9v-.272h.065c.141,0,.29,0,.436,0Z" transform="translate(-303.273 -941.339)" fill="#fff"/>
                <path id="Trazado_1477" data-name="Trazado 1477" d="M301.194,948.644l-.054-.125-.032-.131.243-.068.063.263Z" transform="translate(-301.108 -946.559)" fill="#fff"/>
              </g>
            </g>
            <path id="Trazado_1478" data-name="Trazado 1478" d="M401.231,945.21s-.371-.121-1.03-.305l-.36,2.076c.459.124.817.229,1.054.3C401.105,946.008,401.231,945.21,401.231,945.21Z" transform="translate(-370.531 -942.283)" fill="#ebebeb"/>
            <g id="Grupo_3032" data-name="Grupo 3032" transform="translate(3.84 2.519)">
              <path id="Trazado_1479" data-name="Trazado 1479" d="M298.856,944.749s1.861,9.686,2.606,11.987a11.886,11.886,0,0,0,1.07.82c-.864-3.443-2.417-11.14-2.8-13.062C299.168,944.65,298.856,944.749,298.856,944.749Z" transform="translate(-298.856 -944.495)" fill="url(#linear-gradient)"/>
              <path id="Trazado_1480" data-name="Trazado 1480" d="M394.175,956.914c1.07-5.4,2.035-11.545,2.035-11.545s-.3-.1-.841-.252c-.389,2.3-1.537,9.049-2.242,12.767A9.889,9.889,0,0,0,394.175,956.914Z" transform="translate(-369.351 -944.96)" fill="url(#linear-gradient-2)"/>
            </g>
            <path id="Trazado_1481" data-name="Trazado 1481" d="M307.255,958.106s9.273-3.036,22.634,0A65.979,65.979,0,0,0,307.255,958.106Z" transform="translate(-301.297 -951.146)" fill="#d4d4d4"/>
            <path id="Trazado_1482" data-name="Trazado 1482" d="M309.644,975.111s9.607-.163,21.652,0A210.452,210.452,0,0,1,309.644,975.111Z" transform="translate(-303.083 -964.816)" fill="#d4d4d4"/>
            <path id="Trazado_1483" data-name="Trazado 1483" d="M310.764,985.553s9.325,6.19,21.087,0C331.851,985.553,321.678,990.832,310.764,985.553Z" transform="translate(-303.921 -972.679)" fill="#d4d4d4"/>
          </g>
        </g>
      </g>
    </g>
    <g id="doctor" transform="translate(270 6121.619)">
      <g id="Grupo_3086" data-name="Grupo 3086" clip-path="url(#clip-path-2)">
        <g id="Grupo_3085" data-name="Grupo 3085" transform="translate(0 6.865)">
          <path id="Trazado_1484" data-name="Trazado 1484" d="M361.615,1686.965l30.7,43.725,2.8,80.2-17.825,113.642H282.9L269.12,1796.687l4.952-58.749,25.485-50.972Z" transform="translate(-243.906 -1535.777)" fill="#abe2fc"/>
          <g id="Grupo_3059" data-name="Grupo 3059" transform="translate(37.845)">
            <g id="Grupo_3041" data-name="Grupo 3041" transform="translate(32.05 122.64)">
              <rect id="Rectángulo_936" data-name="Rectángulo 936" width="33.138" height="41.995" transform="translate(0)" fill="#fcae88"/>
              <path id="Trazado_1485" data-name="Trazado 1485" d="M746.026,1382.266v16.848a28.152,28.152,0,0,0,33.138,0v-16.848Z" transform="translate(-746.026 -1382.266)" fill="#b06d4d" opacity="0.32"/>
            </g>
            <g id="Grupo_3058" data-name="Grupo 3058">
              <path id="Trazado_1486" data-name="Trazado 1486" d="M1161.815,324.229s19.122,5.377,21.8,9.8c5.745,9.5-6.926,43.878-6.926,43.878Z" transform="translate(-1090.809 -300.717)" fill="#36200b"/>
              <path id="Trazado_1487" data-name="Trazado 1487" d="M455.58,313.192s-10.664-29.822-6.828-38.924c3.17-7.535,26.99-18.443,26.99-18.443l12.587,16.639Z" transform="translate(-443.799 -238.721)" fill="#36200b"/>
              <g id="Grupo_3044" data-name="Grupo 3044" transform="translate(0 65.696)">
                <g id="Grupo_3042" data-name="Grupo 3042" transform="translate(80.403)">
                  <path id="Trazado_1488" data-name="Trazado 1488" d="M1275.783,793.591a7.068,7.068,0,0,1-9.12,4.077h0a7.066,7.066,0,0,1-4.077-9.122l3.647-9.528a7.063,7.063,0,0,1,9.118-4.077h0a7.065,7.065,0,0,1,4.074,9.12Z" transform="translate(-1262.119 -774.474)" fill="#fcae88"/>
                  <path id="Trazado_1489" data-name="Trazado 1489" d="M1331.858,855.874s14.909-6.276,2.355,10.2C1334.213,862.938,1342.06,856.66,1331.858,855.874Z" transform="translate(-1325.324 -847.184)" fill="#f09261"/>
                </g>
                <g id="Grupo_3043" data-name="Grupo 3043">
                  <path id="Trazado_1490" data-name="Trazado 1490" d="M408.046,793.591a7.069,7.069,0,0,0,9.12,4.077h0a7.065,7.065,0,0,0,4.075-9.122l-3.647-9.528a7.058,7.058,0,0,0-9.115-4.077h0a7.068,7.068,0,0,0-4.076,9.12Z" transform="translate(-403.937 -774.474)" fill="#fcae88"/>
                  <path id="Trazado_1491" data-name="Trazado 1491" d="M452.472,855.874s-14.909-6.276-2.355,10.2C450.117,862.938,442.272,856.66,452.472,855.874Z" transform="translate(-441.234 -847.184)" fill="#f09261"/>
                </g>
              </g>
              <path id="Trazado_1492" data-name="Trazado 1492" d="M603.763,315.953a94.318,94.318,0,0,1-2.355,21.112H601.4c-.355,1.589-.767,3.134-1.21,4.648-.376,1.282-.778,2.535-1.206,3.751-6.35,18.258-18.415,30.586-32.269,30.586-13.613,0-25.522-11.92-31.955-29.682-.543-1.513-1.052-3.057-1.514-4.656-.453-1.5-.85-3.048-1.215-4.626v-.022a93.486,93.486,0,0,1-2.368-21.112q0-4.07.334-8c.014-.158.014-.241.014-.241,2.479-29.282,17.972-51.84,36.7-51.84,18.792,0,34.331,22.7,36.723,52.133C603.643,310.6,603.763,313.26,603.763,315.953Z" transform="translate(-517.88 -238.762)" fill="url(#linear-gradient-3)"/>
              <path id="Trazado_1493" data-name="Trazado 1493" d="M736.519,315.951a94.662,94.662,0,0,1-2.354,21.114h-.012q-.54,2.383-1.212,4.649c-.341,1.16-.706,2.3-1.086,3.407-.042.115-.08.229-.121.345-6.348,18.257-18.413,30.585-32.269,30.585-8.265,0-15.909-4.4-22.074-11.834,64.332-15.748,51.367-84.38,46.178-84.061-28.4,1.741-42.688-2.921-47.432-10.878,6.368-8.387,14.488-13.409,23.328-13.409,17.944,0,32.911,20.691,36.317,48.174.165,1.306.3,2.623.409,3.96C736.4,310.6,736.519,313.26,736.519,315.951Z" transform="translate(-650.635 -238.762)" fill="#f28a83" opacity="0.3"/>
              <path id="Trazado_1494" data-name="Trazado 1494" d="M591.511,770.05s-.531,43.451-6.761,38.767c-14.141-10.632-47.734-12.612-59.739.315-5.619,6.051-6.223-38.388-6.223-38.388-3.755,7.238-.586,32.064-.586,32.064h0c1.36,13.255,7.671,39.678,36.338,40.117v0l.024,0,.03,0v0c27.847-.426,34.6-25.371,36.207-38.947h0S594.9,776.537,591.511,770.05Z" transform="translate(-506.364 -704.768)" fill="url(#linear-gradient-4)"/>
              <g id="Grupo_3045" data-name="Grupo 3045" transform="translate(22.497 47.412)">
                <path id="Trazado_1495" data-name="Trazado 1495" d="M973,590.79v2.8h-1.572V590.5l-4.915-.895s-1.411,6.552,0,7.959c3.871,3.869,21.883,0,21.883,0v-3.98Z" transform="translate(-935.737 -588.646)" fill="#482b0e"/>
                <path id="Trazado_1496" data-name="Trazado 1496" d="M659.453,580.5v2.8h1.574v-3.089l4.915-.891s1.411,6.553,0,7.958c-3.867,3.871-21.883,0-21.883,0V583.3Z" transform="translate(-644.058 -579.316)" fill="#482b0e"/>
              </g>
              <path id="Trazado_1497" data-name="Trazado 1497" d="M1199.562,816.676c-.115-.24-.231-.475-.35-.7l0-.005Q1199.388,816.309,1199.562,816.676Z" transform="translate(-1124.702 -746.386)" fill="#fcae88"/>
              <g id="Grupo_3051" data-name="Grupo 3051" transform="translate(53.247 62.78)">
                <g id="Grupo_3046" data-name="Grupo 3046" transform="translate(3.643)">
                  <path id="Trazado_1498" data-name="Trazado 1498" d="M1028.951,750.5l-.177-.341-.049.364-.843,5.84a16.022,16.022,0,0,1-16.727.236l.39-4.363v0c.391-.715.843-1.482,1.349-2.263v0c.15-.236.311-.476.472-.716.178-.265.372-.531.561-.794.077-.1.15-.2.222-.3l.227-.3c.379-.49.78-.963,1.2-1.409.162-.175.334-.351.5-.518s.346-.329.524-.489l.266-.226c.089-.076.178-.152.271-.224s.187-.146.279-.213c.182-.132.364-.26.551-.377a7.748,7.748,0,0,1,.857-.474,2.881,2.881,0,0,1,.271-.12,5.208,5.208,0,0,1,.61-.227c.1-.03.2-.056.3-.083l.173-.04a1.488,1.488,0,0,1,.162-.03,4.807,4.807,0,0,1,1.733,0,5.117,5.117,0,0,1,.566.137,7.022,7.022,0,0,1,2.922,1.891,11.322,11.322,0,0,1,.886,1,21.525,21.525,0,0,1,2.186,3.431c.043.09.092.178.14.27C1028.836,750.269,1028.893,750.384,1028.951,750.5Z" transform="translate(-1011.155 -743.349)" fill="#fff"/>
                  <path id="Trazado_1499" data-name="Trazado 1499" d="M1045.571,750.158l-.049.364c-7.38-12.521-15.834-.54-15.834-.54a.028.028,0,0,1,0-.014v0c.15-.236.311-.476.472-.716.178-.265.373-.531.561-.794.077-.1.15-.2.222-.3l.227-.3c.379-.49.78-.963,1.2-1.409.162-.175.334-.351.5-.518s.346-.329.524-.489l.266-.226c.089-.076.178-.152.271-.224s.187-.146.279-.213c.182-.132.364-.26.551-.377a7.729,7.729,0,0,1,.857-.474,2.884,2.884,0,0,1,.271-.12,5.21,5.21,0,0,1,.61-.227c.1-.03.2-.056.3-.083l.173-.04a1.478,1.478,0,0,1,.162-.03,4.806,4.806,0,0,1,1.733,0,5.106,5.106,0,0,1,.566.137,7.021,7.021,0,0,1,2.922,1.891,11.322,11.322,0,0,1,.886,1,21.526,21.526,0,0,1,2.186,3.431C1045.48,749.973,1045.527,750.065,1045.571,750.158Z" transform="translate(-1027.952 -743.349)" fill="#482b0e"/>
                </g>
                <g id="Grupo_3049" data-name="Grupo 3049" transform="translate(6.798 2.932)">
                  <g id="Grupo_3047" data-name="Grupo 3047">
                    <path id="Trazado_1500" data-name="Trazado 1500" d="M1055.078,780.642a5.16,5.16,0,1,1-4.256-5.926A5.162,5.162,0,0,1,1055.078,780.642Z" transform="translate(-1044.825 -774.647)" fill="#603913"/>
                    <path id="Trazado_1501" data-name="Trazado 1501" d="M1060.4,793.107a5.158,5.158,0,0,1-8.337,5.98,5.158,5.158,0,1,0,8.337-5.98Z" transform="translate(-1051.383 -791.378)" fill="#482b0e"/>
                  </g>
                  <g id="Grupo_3048" data-name="Grupo 3048" transform="translate(2.245 2.675)">
                    <path id="Trazado_1502" data-name="Trazado 1502" d="M1073.6,806.014a2.42,2.42,0,1,1-2-2.779A2.417,2.417,0,0,1,1073.6,806.014Z" transform="translate(-1068.789 -803.203)" fill="#231f20"/>
                    <path id="Trazado_1503" data-name="Trazado 1503" d="M1085.553,804.105a.624.624,0,1,1-.514-.716A.625.625,0,0,1,1085.553,804.105Z" transform="translate(-1082.859 -803.364)" fill="#fff"/>
                  </g>
                </g>
                <g id="Grupo_3050" data-name="Grupo 3050" transform="translate(0 10.991)">
                  <path id="Trazado_1504" data-name="Trazado 1504" d="M972.267,861.389l24.1-.732S989.683,871.472,972.267,861.389Z" transform="translate(-972.267 -860.657)" fill="#fba983"/>
                  <path id="Trazado_1505" data-name="Trazado 1505" d="M1028,861.823c-4.034,2.384-16.843.591-16.843.591s.315-.04.866-.107Z" transform="translate(-1007.512 -861.714)" fill="#f28a83" opacity="0.3"/>
                </g>
              </g>
              <g id="Grupo_3057" data-name="Grupo 3057" transform="translate(21.299 62.78)">
                <g id="Grupo_3052" data-name="Grupo 3052" transform="translate(2.654)">
                  <path id="Trazado_1506" data-name="Trazado 1506" d="M659.6,750.5c.061-.114.12-.229.177-.341l.049.364.843,5.84a16.023,16.023,0,0,0,16.727.236l-.392-4.363v0c-.388-.715-.841-1.482-1.346-2.263v0c-.154-.236-.313-.476-.472-.716-.18-.265-.373-.531-.563-.794-.075-.1-.15-.2-.222-.3s-.15-.2-.225-.3c-.383-.49-.781-.963-1.2-1.409-.166-.175-.337-.351-.507-.518s-.344-.329-.525-.489l-.266-.226c-.087-.076-.177-.152-.271-.224s-.185-.146-.28-.213c-.182-.132-.364-.26-.549-.377a7.729,7.729,0,0,0-.857-.474c-.089-.044-.178-.085-.271-.12a5.256,5.256,0,0,0-.614-.227c-.1-.03-.2-.056-.3-.083-.056-.014-.115-.028-.173-.04a1.471,1.471,0,0,0-.163-.03,4.806,4.806,0,0,0-1.733,0,5.241,5.241,0,0,0-.567.137,7,7,0,0,0-2.92,1.891,11.392,11.392,0,0,0-.888,1,21.322,21.322,0,0,0-2.182,3.431l-.143.27C659.719,750.269,659.663,750.384,659.6,750.5Z" transform="translate(-659.604 -743.349)" fill="#fff"/>
                  <path id="Trazado_1507" data-name="Trazado 1507" d="M661.489,750.158l.049.364c7.382-12.521,15.835-.54,15.835-.54a.028.028,0,0,0,0-.014v0c-.154-.236-.313-.476-.472-.716-.18-.265-.373-.531-.563-.794-.075-.1-.15-.2-.222-.3s-.15-.2-.225-.3c-.383-.49-.782-.963-1.2-1.409-.166-.175-.337-.351-.507-.518s-.344-.329-.524-.489l-.266-.226c-.088-.076-.177-.152-.271-.224s-.185-.146-.28-.213c-.182-.132-.364-.26-.549-.377a7.739,7.739,0,0,0-.857-.474c-.089-.044-.178-.085-.271-.12a5.255,5.255,0,0,0-.614-.227c-.1-.03-.2-.056-.3-.083-.056-.014-.115-.028-.173-.04a1.476,1.476,0,0,0-.162-.03,4.806,4.806,0,0,0-1.733,0,5.243,5.243,0,0,0-.567.137,7,7,0,0,0-2.92,1.891,11.4,11.4,0,0,0-.888,1,21.313,21.313,0,0,0-2.182,3.431C661.578,749.973,661.534,750.065,661.489,750.158Z" transform="translate(-661.312 -743.349)" fill="#482b0e"/>
                </g>
                <g id="Grupo_3055" data-name="Grupo 3055" transform="translate(6.975 2.932)">
                  <g id="Grupo_3053" data-name="Grupo 3053">
                    <path id="Trazado_1508" data-name="Trazado 1508" d="M705.793,780.642a5.159,5.159,0,1,0,4.255-5.926A5.16,5.16,0,0,0,705.793,780.642Z" transform="translate(-705.723 -774.647)" fill="#603913"/>
                    <path id="Trazado_1509" data-name="Trazado 1509" d="M707.031,793.107a5.157,5.157,0,0,0,8.335,5.98,5.158,5.158,0,1,1-8.335-5.98Z" transform="translate(-705.721 -791.378)" fill="#482b0e"/>
                  </g>
                  <g id="Grupo_3054" data-name="Grupo 3054" transform="translate(3.237 2.675)">
                    <path id="Trazado_1510" data-name="Trazado 1510" d="M740.3,806.014a2.42,2.42,0,1,0,1.995-2.779A2.417,2.417,0,0,0,740.3,806.014Z" transform="translate(-740.269 -803.203)" fill="#231f20"/>
                    <path id="Trazado_1511" data-name="Trazado 1511" d="M763.06,804.105a.625.625,0,1,0,.517-.716A.628.628,0,0,0,763.06,804.105Z" transform="translate(-760.917 -803.364)" fill="#fff"/>
                  </g>
                </g>
                <g id="Grupo_3056" data-name="Grupo 3056" transform="translate(0 10.991)">
                  <path id="Trazado_1512" data-name="Trazado 1512" d="M655.369,861.389l-24.1-.732S637.951,871.472,655.369,861.389Z" transform="translate(-631.274 -860.657)" fill="#fba983"/>
                  <path id="Trazado_1513" data-name="Trazado 1513" d="M669.8,861.823c4.033,2.384,16.841.591,16.841.591s-.315-.04-.864-.107Z" transform="translate(-666.186 -861.714)" fill="#f28a83" opacity="0.3"/>
                </g>
              </g>
              <path id="Trazado_1514" data-name="Trazado 1514" d="M859.455,734.849c.271-8.1-4.394-16.446-4.394-16.446s-4.906,8.344-4.635,16.446c-3.4,8.024-4.768,17.143,2.7,22.355a2.987,2.987,0,0,0,1.782.613h.073a3,3,0,0,0,1.784-.613C864.221,751.992,862.854,742.873,859.455,734.849Z" transform="translate(-806.11 -657.96)" fill="url(#linear-gradient-5)"/>
              <path id="Trazado_1515" data-name="Trazado 1515" d="M448.07,118.329s-76.7-5.49-1.381-45.057c-6.118,16.061,39.186-17.857,55.862,30.822C496.355,114.079,474.964,121.968,448.07,118.329Z" transform="translate(-412.664 -73.272)" fill="#482b0e"/>
              <path id="Trazado_1516" data-name="Trazado 1516" d="M797.459,1213.636c0-3.977,5.387-.895,12.031-.887s12.036-3.062,12.029.919-5.4,10.819-12.043,10.813S797.452,1217.615,797.459,1213.636Z" transform="translate(-760.59 -1104.952)" fill="#f1f2f2"/>
            </g>
          </g>
          <g id="Grupo_3060" data-name="Grupo 3060" transform="translate(71.52 164.635)">
            <path id="Trazado_1517" data-name="Trazado 1517" d="M794.192,1966.182l-.124,1.577-15.39,29.993-15.315-31.383,12.779-113.29.058-.6-.1-.222-9.52-21.756h24.237l-9.5,21.756-.1.222.067.6Z" transform="translate(-763.363 -1830.496)" fill="#243444"/>
            <path id="Trazado_1518" data-name="Trazado 1518" d="M899.352,2062.705h5.214l-.1.222.067.605h-5.141Z" transform="translate(-886.612 -2040.949)" fill="#505d69"/>
          </g>
          <g id="Grupo_3063" data-name="Grupo 3063" transform="translate(52.927 143.974)">
            <g id="Grupo_3061" data-name="Grupo 3061" transform="translate(34.228)">
              <path id="Trazado_1519" data-name="Trazado 1519" d="M930.239,1630.595l12.587,17.021,18.313-31.306-14.451-6.341Z" transform="translate(-930.239 -1609.969)" fill="#cdeefd"/>
            </g>
            <g id="Grupo_3062" data-name="Grupo 3062" transform="translate(0 0.907)">
              <path id="Trazado_1520" data-name="Trazado 1520" d="M599.141,1639.373l-10.473,16.907-23.754-30.573,16.491-6.053Z" transform="translate(-564.913 -1619.654)" fill="#cdeefd"/>
            </g>
          </g>
          <g id="Grupo_3064" data-name="Grupo 3064" transform="translate(0 147.726)">
            <path id="Trazado_1521" data-name="Trazado 1521" d="M87.623,1753.87v283.465l-9.693,24.226A391.541,391.541,0,0,1,0,2049.591C6.564,1927.517,3.058,1698.13,4.053,1681l53.59-30.979Z" transform="translate(0 -1650.02)" fill="#f1f2f2"/>
            <path id="Trazado_1522" data-name="Trazado 1522" d="M935.072,1753.87v283.465l9.693,24.226a391.546,391.546,0,0,0,77.93-11.97c-6.564-122.074-3.058-351.461-4.053-368.593l-53.59-30.979Z" transform="translate(-847.465 -1650.02)" fill="#f1f2f2"/>
          </g>
          <path id="Trazado_1523" data-name="Trazado 1523" d="M970.274,1946.931l-9.982,2.988,8.91,15.924L935.238,2017.4l20.8-76.608Z" transform="translate(-847.615 -1765.819)" fill="#b5b6b6" opacity="0.32"/>
          <path id="Trazado_1524" data-name="Trazado 1524" d="M562.264,1969.475l12.965,6.106-10.823,11.267,32.8,53.092-17.472-68.6-3.972-5.675Z" transform="translate(-509.585 -1788.363)" fill="#b5b6b6" opacity="0.32"/>
          <g id="Grupo_3067" data-name="Grupo 3067" transform="translate(110.139 152.242)">
            <g id="Grupo_3065" data-name="Grupo 3065" transform="translate(7.742)">
              <path id="Trazado_1525" data-name="Trazado 1525" d="M1258.2,1798.246c21.7-56.335,19.693-81.307,14.2-92.335-2.949-5.91-6.464-7.646-6.62-7.7,0,0,5.478.349,6.536,1.41.227.227,22.125,19.85-11.117,99.78Z" transform="translate(-1258.201 -1698.215)" fill="#231f20"/>
            </g>
            <g id="Grupo_3066" data-name="Grupo 3066" transform="translate(0 95.732)">
              <path id="Trazado_1526" data-name="Trazado 1526" d="M1190.519,2730.542a7.737,7.737,0,1,1-4.408-10.012A7.736,7.736,0,0,1,1190.519,2730.542Z" transform="translate(-1175.568 -2720)" fill="#8d8f90"/>
              <path id="Trazado_1527" data-name="Trazado 1527" d="M1197.567,2738a6.933,6.933,0,1,1-3.95-8.975A6.935,6.935,0,0,1,1197.567,2738Z" transform="translate(-1183.364 -2727.747)" fill="#bcbec0"/>
              <path id="Trazado_1528" data-name="Trazado 1528" d="M1216.077,2757.723a4.814,4.814,0,1,1-2.742-6.235A4.819,4.819,0,0,1,1216.077,2757.723Z" transform="translate(-1203.85 -2748.241)" fill="#58595b"/>
            </g>
          </g>
          <g id="Grupo_3077" data-name="Grupo 3077" transform="translate(24.822 151.741)">
            <g id="Grupo_3075" data-name="Grupo 3075" transform="translate(0 23.772)">
              <g id="Grupo_3070" data-name="Grupo 3070" transform="translate(0.893 25.884)">
                <g id="Grupo_3068" data-name="Grupo 3068">
                  <path id="Trazado_1529" data-name="Trazado 1529" d="M303.652,2271.048l-11.043-5.324c-9.676-8.395-17.813-40.871-18.149-42.251l1.362-.615c.086.331,8.256,32.976,17.446,41.076l10.81,5.187Z" transform="translate(-274.46 -2222.858)" fill="#5e5f60"/>
                </g>
                <g id="Grupo_3069" data-name="Grupo 3069" transform="translate(26.82 44.486)">
                  <path id="Trazado_1530" data-name="Trazado 1530" d="M565.7,2703.106a1,1,0,0,1-.474-.095l-3.525-1.631a1.658,1.658,0,0,1-.806-.956,2.619,2.619,0,0,1-.109-1.457c.2-.967.988-1.524,1.682-1.2l3.52,1.629a1.67,1.67,0,0,1,.808.958,2.635,2.635,0,0,1,.11,1.453A1.479,1.479,0,0,1,565.7,2703.106Z" transform="translate(-560.726 -2697.674)" fill="#bcbec0"/>
                </g>
              </g>
              <g id="Grupo_3073" data-name="Grupo 3073" transform="translate(7.92 24.305)">
                <g id="Grupo_3071" data-name="Grupo 3071" transform="translate(3.25)">
                  <path id="Trazado_1531" data-name="Trazado 1531" d="M384.765,2256.665l-.61-1.88,10.258-6.206c8.366-8.957,13.341-42.232,13.389-42.571l1.425.483c-.21,1.4-5.165,34.516-13.984,43.807l-.143.117Z" transform="translate(-384.155 -2206.008)" fill="#5e5f60"/>
                </g>
                <g id="Grupo_3072" data-name="Grupo 3072" transform="translate(0 46.863)">
                  <path id="Trazado_1532" data-name="Trazado 1532" d="M350.911,2711.959a1.466,1.466,0,0,1-1.329-1.178,2.634,2.634,0,0,1-.031-1.454,1.673,1.673,0,0,1,.71-1.033l3.346-1.965c.656-.386,1.492.094,1.79,1.037a2.663,2.663,0,0,1,.032,1.461,1.665,1.665,0,0,1-.708,1.029l-3.35,1.963A.986.986,0,0,1,350.911,2711.959Z" transform="translate(-349.464 -2706.195)" fill="#bcbec0"/>
                </g>
              </g>
              <g id="Grupo_3074" data-name="Grupo 3074">
                <path id="Trazado_1533" data-name="Trazado 1533" d="M300.664,1971.695c-.8.04-1.491-.834-1.549-1.958-.383-7.251-3.074-13.048-7.585-16.321a14.114,14.114,0,0,0-17.939.956c-2.871,2.611-6.191,7.657-5.708,16.848.059,1.13-.544,2.079-1.341,2.123,0,0,0,0-.01,0-.8.037-1.486-.841-1.546-1.96-.456-8.691,2.023-15.96,6.974-20.465A16.392,16.392,0,0,1,292.8,1949.8c5.478,3.981,8.755,11.006,9.216,19.777.054,1.126-.547,2.077-1.341,2.122Z" transform="translate(-264.932 -1946.591)" fill="#231f20"/>
              </g>
            </g>
            <g id="Grupo_3076" data-name="Grupo 3076" transform="translate(15.448)">
              <path id="Trazado_1534" data-name="Trazado 1534" d="M440.367,1693.106a4.822,4.822,0,0,0-5.85,2.4c-3.939,7.679-4.7,23.5-4.7,23.706l3.206-.119C433.018,1718.859,432.419,1702.429,440.367,1693.106Z" transform="translate(-429.82 -1692.867)" fill="#231f20"/>
            </g>
          </g>
          <g id="Grupo_3083" data-name="Grupo 3083" transform="translate(47.434 65.769)">
            <g id="Grupo_3078" data-name="Grupo 3078" transform="translate(70.065 38.531)">
              <path id="Trazado_1535" data-name="Trazado 1535" d="M1254.868,1204.085a.75.75,0,0,1-.731-.918l3.7-16.073a.75.75,0,0,1,1.461.336l-3.7,16.073A.75.75,0,0,1,1254.868,1204.085Z" transform="translate(-1254.117 -1186.512)" fill="#e9e8eb"/>
            </g>
            <g id="Grupo_3079" data-name="Grupo 3079" transform="translate(1.914 38.531)">
              <path id="Trazado_1536" data-name="Trazado 1536" d="M531.169,1204.085a.75.75,0,0,1-.73-.582l-3.7-16.073a.75.75,0,1,1,1.461-.336l3.7,16.073a.75.75,0,0,1-.731.918Z" transform="translate(-526.719 -1186.512)" fill="#e9e8eb"/>
            </g>
            <g id="Grupo_3080" data-name="Grupo 3080" transform="translate(1.914 0)">
              <path id="Trazado_1537" data-name="Trazado 1537" d="M531.169,792.827a.75.75,0,0,1-.73-.582l-3.7-16.073a.75.75,0,1,1,1.461-.336l3.7,16.073a.751.751,0,0,1-.731.918Z" transform="translate(-526.719 -775.254)" fill="#e9e8eb"/>
            </g>
            <g id="Grupo_3081" data-name="Grupo 3081" transform="translate(72.898)">
              <path id="Trazado_1538" data-name="Trazado 1538" d="M1285.109,792.826a.75.75,0,0,1-.731-.918l3.7-16.073a.75.75,0,0,1,1.461.336l-3.7,16.073A.75.75,0,0,1,1285.109,792.826Z" transform="translate(-1284.358 -775.254)" fill="#e9e8eb"/>
            </g>
            <g id="Grupo_3082" data-name="Grupo 3082" transform="translate(0 7.227)">
              <path id="Trazado_1539" data-name="Trazado 1539" d="M544.993,907.593a127.962,127.962,0,0,1-15.542-1.28c-1.753-.217-3.565-.44-5.334-.632-4.025-.437-8.28-.879-13.8-1.435a.8.8,0,0,1-.715-.731c-.519-6.592,2.152-14.612,1.633-21.2-.586-7.449-4.362-13.471-4.948-20.92a.8.8,0,0,1,.553-.823c4.782-1.522,9.8-2.941,14.9-4.217l1.013-.254c7.269-1.82,14.785-3.7,22.233-3.7,7.26,0,14.583,1.812,21.666,3.565l.953.236c5.3,1.309,10.528,2.781,15.532,4.373a.8.8,0,0,1,.553.823c-.549,6.973-3.71,13.946-4.259,20.92-.556,7.068,1.5,14.136.943,21.2a.8.8,0,0,1-.715.731c-5.615.566-10.2,1.044-14.437,1.5-1.679.183-3.4.394-5.063.6A125.463,125.463,0,0,1,544.993,907.593Z" transform="translate(-506.287 -852.395)" fill="#e6e7e8"/>
              <path id="Trazado_1540" data-name="Trazado 1540" d="M563.511,919.432a121.646,121.646,0,0,1-14.773-1.217c-1.666-.206-3.389-.419-5.07-.6-3.826-.415-7.87-.836-13.115-1.364a.758.758,0,0,1-.68-.695c-.494-6.266,2.045-13.889,1.552-20.155-.557-7.081-4.146-12.8-4.7-19.885a.758.758,0,0,1,.526-.782c4.546-1.447,9.312-2.8,14.166-4.008l.963-.241c6.909-1.73,14.054-3.52,21.134-3.52,6.9,0,13.862,1.723,20.594,3.389l.906.224c5.04,1.245,10.008,2.643,14.764,4.156a.758.758,0,0,1,.526.782c-.521,6.628-3.526,13.257-4.048,19.885-.529,6.718,1.426,13.437.9,20.155a.758.758,0,0,1-.68.695c-5.338.538-9.7.992-13.723,1.43-1.6.174-3.232.375-4.813.569A119.233,119.233,0,0,1,563.511,919.432Z" transform="translate(-524.805 -865.599)" fill="#fefefe"/>
              <path id="Trazado_1541" data-name="Trazado 1541" d="M661.29,1007.456s17.927-4.587,24.184-4.5c6.694.089,25.591,5.5,25.591,5.5S689.767,1002.952,661.29,1007.456Z" transform="translate(-646.768 -988.845)" fill="#e9e8eb"/>
              <path id="Trazado_1542" data-name="Trazado 1542" d="M661.29,1265.9s17.927,4.587,24.184,4.5c6.694-.089,25.591-5.5,25.591-5.5S689.767,1270.406,661.29,1265.9Z" transform="translate(-646.768 -1226.253)" fill="#e9e8eb"/>
              <path id="Trazado_1543" data-name="Trazado 1543" d="M661.29,1171.7h49.774S685.7,1176.257,661.29,1171.7Z" transform="translate(-646.768 -1141.781)" fill="#e9e8eb"/>
            </g>
          </g>
          <g id="Grupo_3084" data-name="Grupo 3084" transform="translate(48.718 143.335)">
            <path id="Trazado_1544" data-name="Trazado 1544" d="M970.882,1609.415c3.343,4.216-.609,31.516-.609,31.516l-13.363,1.224,10.258,12.477-31.93,56.763,23.433-108.241S968.789,1606.777,970.882,1609.415Z" transform="translate(-896.333 -1603.154)" fill="#fff"/>
            <path id="Trazado_1545" data-name="Trazado 1545" d="M520.967,1616.23c-3.341,4.216,2.986,30.878,2.986,30.878l13.363,1.224-10.255,12.477,31.836,56.763-25.718-107.6S523.06,1613.592,520.967,1616.23Z" transform="translate(-519.993 -1609.33)" fill="#fff"/>
          </g>
        </g>
      </g>
    </g>
    <g id="Grupo_3087" data-name="Grupo 3087" transform="translate(-1 -23)">
      <circle id="Elipse_510" data-name="Elipse 510" cx="40" cy="40" r="40" transform="translate(435 6158)" fill="#fff"/>
      <g id="Grupo_1151" data-name="Grupo 1151" transform="translate(443.205 6167.421)">
        <path id="Trazado_1377" data-name="Trazado 1377" d="M1355.03,1231.243s10.574,4.29,12.151,5.783c3.417,3.236,4.333,11.326,4.333,15.793a21.974,21.974,0,0,0,1.344,6.7" transform="translate(-1303.774 -1204.526)" fill="none" stroke="#59bfd6" stroke-linecap="round" stroke-linejoin="round" stroke-width="1.5"/>
        <path id="Trazado_1378" data-name="Trazado 1378" d="M1296.383,1233.785c-2.344-2.65-4.493-2.563-6.24-4.268-3.4-3.32-3.08-3.08-6.2-6.1-1.852-1.79-3.109-2.843-4.966-1.6-1.56,1.04-1.394,2.38-.605,4.081.962,2.074,6.063,8.711,7.137,10.267a2.259,2.259,0,0,1,.4,1.124c.159,2.2.747,8.417,9.179,10.743" transform="translate(-1237.871 -1196.024)" fill="none" stroke="#59bfd6" stroke-linecap="round" stroke-linejoin="round" stroke-width="1.5"/>
        <path id="Trazado_1379" data-name="Trazado 1379" d="M1338.518,1415.122c2.364,1.078,3.162,4.367,3.162,4.367" transform="translate(-1289.686 -1361.411)" fill="none" stroke="#59bfd6" stroke-linecap="round" stroke-linejoin="round" stroke-width="1.5"/>
        <path id="Trazado_1380" data-name="Trazado 1380" d="M1219.78,1394.839h9.01a7.026,7.026,0,0,0,5.957-3.306" transform="translate(-1188.379 -1341.284)" fill="none" stroke="#59bfd6" stroke-linecap="round" stroke-linejoin="round" stroke-width="1.5"/>
        <path id="Trazado_1381" data-name="Trazado 1381" d="M1161.813,1083.769v-13.521a7.018,7.018,0,0,0-7.018-7.018h-14.724a7.018,7.018,0,0,0-7.018,7.018v14.582" transform="translate(-1114.385 -1061.176)" fill="none" stroke="#59bfd6" stroke-linecap="round" stroke-linejoin="round" stroke-width="1.5"/>
        <line id="Línea_6" data-name="Línea 6" x1="28.76" transform="translate(18.669 10.326)" fill="none" stroke="#59bfd6" stroke-linecap="round" stroke-linejoin="round" stroke-width="1.5"/>
        <line id="Línea_7" data-name="Línea 7" x1="4.153" transform="translate(30.537 6.209)" fill="none" stroke="#59bfd6" stroke-linecap="round" stroke-linejoin="round" stroke-width="1.5"/>
        <line id="Línea_8" data-name="Línea 8" x1="12.856" transform="translate(31.401 45.28)" fill="none" stroke="#59bfd6" stroke-linecap="round" stroke-linejoin="round" stroke-width="1.5"/>
        <path id="Trazado_1382" data-name="Trazado 1382" d="M1395.437,1079.214a9.789,9.789,0,0,1,0,14.014" transform="translate(-1338.249 -1074.815)" fill="none" stroke="#59bfd6" stroke-linecap="round" stroke-linejoin="round" stroke-width="1.5"/>
        <path id="Trazado_1383" data-name="Trazado 1383" d="M1426.234,1072.06a16.106,16.106,0,0,0,0-22.813" transform="translate(-1364.525 -1049.247)" fill="none" stroke="#59bfd6" stroke-linecap="round" stroke-linejoin="round" stroke-width="1.5"/>
        <path id="Trazado_1384" data-name="Trazado 1384" d="M1371.486,1109.691a4.886,4.886,0,0,0,0-7.172" transform="translate(-1317.814 -1094.698)" fill="none" stroke="#59bfd6" stroke-linecap="round" stroke-linejoin="round" stroke-width="1.5"/>
        <path id="Trazado_1385" data-name="Trazado 1385" d="M1037.424,1151.609l2.36,2.36,3.857-3.857" transform="translate(-1032.793 -1135.304)" fill="none" stroke="#59bfd6" stroke-linecap="round" stroke-linejoin="round" stroke-width="1.5"/>
        <path id="Trazado_1386" data-name="Trazado 1386" d="M1018.35,1105.09s-3.646,2.828-6.687,2.828v7.168a4.414,4.414,0,0,0,1.631,3.585c1.067.789,4.252,2.889,4.387,2.978l.668.44.668-.44c.135-.089,3.32-2.189,4.387-2.978a4.414,4.414,0,0,0,1.631-3.585v-7.168C1022,1107.917,1018.35,1105.09,1018.35,1105.09Z" transform="translate(-1010.815 -1096.892)" fill="none" stroke="#59bfd6" stroke-linecap="round" stroke-linejoin="round" stroke-width="1.5"/>
        <line id="Línea_9" data-name="Línea 9" x2="17.51" transform="translate(24.722 18.621)" stroke-dasharray="5.882 29.412" stroke="#59bfd6" stroke-linecap="round" stroke-linejoin="round" stroke-width="1.5" fill="none"/>
        <path id="Trazado_1387" data-name="Trazado 1387" d="M1035.835,1243.413l-13.814-11.145a1.444,1.444,0,0,0-1.816,0l-13.784,11.141a1.444,1.444,0,0,0,.908,2.567h2.374a.433.433,0,0,1,.433.433v10.826a1.444,1.444,0,0,0,1.444,1.444h6.165a.416.416,0,0,0,.416-.416v-7.7a.69.69,0,0,1,.69-.69h4.741a.69.69,0,0,1,.69.69v7.7a.416.416,0,0,0,.416.416h6.524a1.444,1.444,0,0,0,1.444-1.444V1246.41a.433.433,0,0,1,.433-.433h1.822A1.444,1.444,0,0,0,1035.835,1243.413Z" transform="translate(-1005.882 -1205.126)" fill="none" stroke="#59bfd6" stroke-linecap="round" stroke-linejoin="round" stroke-width="1.5"/>
      </g>
    </g>
    <g id="Grupo_3145" data-name="Grupo 3145" transform="translate(-286 3808)">
      <g id="Elipse_568" data-name="Elipse 568" transform="translate(432 2327)" fill="#59bfd6" stroke="#227d84" stroke-width="3">
        <circle cx="20" cy="20" r="20" stroke="none"/>
        <circle cx="20" cy="20" r="18.5" fill="none"/>
      </g>
      <path id="Trazado_3099" data-name="Trazado 3099" d="M8.052-9.13a5.184,5.184,0,0,1,3.1,1.507,4.154,4.154,0,0,1,1.078,2.915,4.6,4.6,0,0,1-.7,2.475A4.9,4.9,0,0,1,9.383-.418,8.217,8.217,0,0,1,5.852.264a12.112,12.112,0,0,1-3.2-.429A8.245,8.245,0,0,1-.022-1.386L1.364-4.114A6.715,6.715,0,0,0,3.4-3.091a7.843,7.843,0,0,0,2.365.363,3.749,3.749,0,0,0,2.112-.517,1.661,1.661,0,0,0,.77-1.463Q8.646-6.6,5.764-6.6H4.136V-8.954L7.3-12.54H.748V-15.4h10.78v2.31Z" transform="translate(446 2354)" fill="#fff"/>
    </g>
  </g>
</svg>
