<svg xmlns="http://www.w3.org/2000/svg" width="435" height="198" viewBox="0 0 435 198">
  <g id="Grupo_3270" data-name="Grupo 3270" transform="translate(-595 -7433)">
    <rect id="Rectángulo_968" data-name="Rectángulo 968" width="435" height="198" transform="translate(595 7433)" fill="#efefef"/>
    <g id="Grupo_3229" data-name="Grupo 3229" transform="translate(192 5129)">
      <g id="Elipse_568" data-name="Elipse 568" transform="translate(432 2327)" fill="#59bfd6" stroke="#227d84" stroke-width="3">
        <circle cx="20" cy="20" r="20" stroke="none"/>
        <circle cx="20" cy="20" r="18.5" fill="none"/>
      </g>
      <path id="Trazado_3106" data-name="Trazado 3106" d="M8.272-9.658a6.008,6.008,0,0,1,2.684.594A4.689,4.689,0,0,1,12.87-7.381a4.537,4.537,0,0,1,.7,2.519,4.8,4.8,0,0,1-.77,2.706A5.023,5.023,0,0,1,10.7-.363,6.857,6.857,0,0,1,7.744.264a6.541,6.541,0,0,1-5.06-1.98A8.042,8.042,0,0,1,.858-7.37a9.476,9.476,0,0,1,.99-4.488A6.741,6.741,0,0,1,4.609-14.7a8.419,8.419,0,0,1,4.1-.968,9.993,9.993,0,0,1,2.365.275A6.329,6.329,0,0,1,13-14.608l-1.32,2.618A5.052,5.052,0,0,0,8.8-12.76a4.192,4.192,0,0,0-3.1,1.144A4.788,4.788,0,0,0,4.466-8.294,5.145,5.145,0,0,1,8.272-9.658ZM7.546-2.4a2.747,2.747,0,0,0,1.859-.616,2.093,2.093,0,0,0,.715-1.672,2.126,2.126,0,0,0-.715-1.683A2.783,2.783,0,0,0,7.5-7a2.815,2.815,0,0,0-1.914.649A2.1,2.1,0,0,0,4.84-4.686a2.1,2.1,0,0,0,.726,1.65A2.9,2.9,0,0,0,7.546-2.4Z" transform="translate(445 2354)" fill="#fff"/>
    </g>
    <g id="Grupo_3230" data-name="Grupo 3230" transform="translate(789 7526)">
      <path id="Trazado_1420" data-name="Trazado 1420" d="M261.9,608.277H145.474a2.118,2.118,0,0,1-2.119-2.119h0a2.118,2.118,0,0,1,2.119-2.118H261.9a2.119,2.119,0,0,1,2.119,2.118h0A2.119,2.119,0,0,1,261.9,608.277Z" transform="translate(-143.355 -505.87)" fill="#231f20" opacity="0.15"/>
      <g id="Grupo_2990" data-name="Grupo 2990" transform="translate(0)">
        <rect id="Rectángulo_894" data-name="Rectángulo 894" width="54.914" height="56.296" transform="translate(56.719 42.811)" fill="#ddd"/>
        <path id="Trazado_1421" data-name="Trazado 1421" d="M232.071,317.478H185.255V258.6l23.408-31.038L232.071,258.6Z" transform="translate(-175.352 -218.372)" fill="#fffeff"/>
        <path id="Trazado_1422" data-name="Trazado 1422" d="M232.071,276.266h54.914l.23-5.584-80.277-34.362-21.683,27.931v9.577l22.3-28.891,24.52,31.329Z" transform="translate(-175.352 -225.058)" fill="#231f20" opacity="0.15"/>
        <path id="Trazado_1423" data-name="Trazado 1423" d="M184.425,224.091l-30.91,36.985.721,3.178h6.78v-4.964l23.408-30.332Z" transform="translate(-151.114 -215.719)" fill="#d95243"/>
        <path id="Trazado_1424" data-name="Trazado 1424" d="M202.052,256.793l-27.787-35.5-27.787,35.5-3.122-2.911,30.91-39.561,30.91,39.561Z" transform="translate(-143.355 -208.258)" fill="#f8796b"/>
        <path id="Trazado_1425" data-name="Trazado 1425" d="M523.42,256.793l-27.787-36.211-8.508-6.26,39.418,39.561Z" transform="translate(-405.878 -208.258)" fill="#f8796b"/>
        <path id="Trazado_1426" data-name="Trazado 1426" d="M274.139,214.321h58.845l30.91,39.561H305.049Z" transform="translate(-243.23 -208.258)" fill="#fe9e94"/>
        <path id="Trazado_1427" data-name="Trazado 1427" d="M394.834,381.711H453.68l-3.122,2.911H391.712Z" transform="translate(-333.015 -336.086)" fill="#d95243"/>
        <rect id="Rectángulo_895" data-name="Rectángulo 895" width="17.336" height="33.088" transform="translate(24.643 66.018)" fill="#f8796b"/>
        <rect id="Rectángulo_896" data-name="Rectángulo 896" width="2.925" height="33.088" transform="translate(24.643 66.018)" fill="#d95243"/>
        <path id="Trazado_1428" data-name="Trazado 1428" d="M247.623,468l17.452,17.452V468Z" transform="translate(-222.98 -401.982)" fill="#231f20" opacity="0.1"/>
        <g id="Grupo_2988" data-name="Grupo 2988" transform="translate(63.456 65.982)">
          <rect id="Rectángulo_897" data-name="Rectángulo 897" width="19.025" height="19.025" fill="#4f6871"/>
          <rect id="Rectángulo_898" data-name="Rectángulo 898" width="2.209" height="19.062" transform="translate(16.816)" fill="#a7a9ac"/>
          <rect id="Rectángulo_899" data-name="Rectángulo 899" width="13.787" height="15.631" transform="translate(1.533 1.733)" fill="#8ac0de"/>
          <path id="Trazado_1429" data-name="Trazado 1429" d="M434.667,475.181l9.928,9.928V483.3l-8.114-8.114Z" transform="translate(-429.274 -473.448)" fill="#fffeff" opacity="0.25"/>
          <path id="Trazado_1430" data-name="Trazado 1430" d="M458.917,480.674l-5.493-5.493h5.493Z" transform="translate(-443.597 -473.448)" fill="#fffeff" opacity="0.25"/>
          <path id="Trazado_1431" data-name="Trazado 1431" d="M430.873,467.847l-2.209,2.3H411.847v-2.3Z" transform="translate(-411.847 -467.847)" fill="#231f20" opacity="0.15"/>
        </g>
        <g id="Grupo_2989" data-name="Grupo 2989" transform="translate(87.365 65.982)">
          <rect id="Rectángulo_900" data-name="Rectángulo 900" width="19.025" height="19.025" fill="#4f6871"/>
          <rect id="Rectángulo_901" data-name="Rectángulo 901" width="2.209" height="19.062" transform="translate(16.816)" fill="#a7a9ac"/>
          <rect id="Rectángulo_902" data-name="Rectángulo 902" width="13.787" height="15.631" transform="translate(1.533 1.733)" fill="#8ac0de"/>
          <path id="Trazado_1432" data-name="Trazado 1432" d="M535.833,475.181l9.928,9.928V483.3l-8.114-8.114Z" transform="translate(-530.44 -473.448)" fill="#fffeff" opacity="0.25"/>
          <path id="Trazado_1433" data-name="Trazado 1433" d="M560.084,480.674l-5.493-5.493h5.493Z" transform="translate(-544.764 -473.448)" fill="#fffeff" opacity="0.25"/>
          <path id="Trazado_1434" data-name="Trazado 1434" d="M532.039,467.847l-2.209,2.3H513.014v-2.3Z" transform="translate(-513.014 -467.847)" fill="#231f20" opacity="0.15"/>
        </g>
        <path id="Trazado_1435" data-name="Trazado 1435" d="M457.606,217.583l-10.752-13.761V188.667h10.752Z" transform="translate(-375.124 -188.667)" fill="#fffeff"/>
        <rect id="Rectángulo_903" data-name="Rectángulo 903" width="10.752" height="28.676" transform="translate(82.481)" fill="#ddd"/>
      </g>
    </g>
    <g id="Grupo_3259" data-name="Grupo 3259" transform="translate(530.873 7345.887)">
      <circle id="Elipse_662" data-name="Elipse 662" cx="53.5" cy="53.5" r="53.5" transform="translate(193.127 130.113)" fill="#e2ded9"/>
      <g id="Grupo_3258" data-name="Grupo 3258" transform="translate(199.47 134.78)">
        <g id="Grupo_3232" data-name="Grupo 3232" transform="translate(3.315)">
          <path id="Trazado_3054" data-name="Trazado 3054" d="M343.25,254.451a48.22,48.22,0,0,0-5.6-1.719c-.571-.15-1.162-.305-1.737-.464l-1.014-.277-.311-.084-.251.2q-.694.561-1.387,1.124c-1.751-.5-4.05-1.2-6.84-2.063a16.872,16.872,0,0,1-5.207-2.435,8.318,8.318,0,0,1-1.795-1.841c.489.044.943.079,1.383.108l.143.009a27,27,0,0,0,6.6-.274,15.326,15.326,0,0,0,7.914-4.045,52.423,52.423,0,0,0,4.685-5.259c.535-.231.979-.431,1.387-.625a12.937,12.937,0,0,0,5.5-4.456c4.212-6.409,1.533-11.057-1.3-15.978-.671-1.165-1.366-2.37-1.979-3.618l-.139-.282c-.4-1.147-1.727-5.865-2.227-8.486l-.286-1.5c-.93-4.887-1.891-9.94-3.051-14.858-.28-1.19-1.946-6.687-4.4-9.867a9.434,9.434,0,0,0-5.369-3.455c-.111-.026-.2-.046-.275-.061h0c-.109-.05-.218-.1-.328-.154l-.053-.026c-.113-.055-.226-.111-.348-.173l-.015-.008c-.254-.131-.507-.267-.751-.407-.422-.241-.834-.5-1.225-.764a22.982,22.982,0,0,0-11.27-5.237,24.029,24.029,0,0,0-15.5,2.312,30.842,30.842,0,0,0-7.2,5.234,32.029,32.029,0,0,0-7.419,9.657,72.531,72.531,0,0,0-5.145,15.154q-.115.368-.231.734l-2.294,7.245c-.322.818-.627,1.656-.922,2.466a35.442,35.442,0,0,1-3.014,6.765,13.485,13.485,0,0,1-1.72,2.221,11.105,11.105,0,0,1-1.569,1.271l-.258.185c-.6.355-1.926,1.16-1.817,2.592a1.056,1.056,0,0,0,.067.408q.019.073.043.148a2.1,2.1,0,0,0,.11.275c.219,1.6,1.776,2.928,3.281,4.015a12.061,12.061,0,0,0,5.63,2.4,10.4,10.4,0,0,0,3.066,5.8,13.127,13.127,0,0,0,2.773,1.859,15.586,15.586,0,0,1,2.014,1.245A19.162,19.162,0,0,1,286,241.831c.539.592,1.1,1.2,1.7,1.764a15.826,15.826,0,0,0,9.968,4.223,13.636,13.636,0,0,0,2.166-.068,8.445,8.445,0,0,1-.866.748,16.866,16.866,0,0,1-5.206,2.435c-1.662.516-3.374.98-5.03,1.428l-1.294.351-1.218-.987-.251-.2-.311.084-1.014.277c-.575.158-1.165.314-1.736.464a48.191,48.191,0,0,0-5.6,1.719,15.384,15.384,0,0,0-2.162,1.052l-.175.1a53.282,53.282,0,0,0,70.4.251l-.167-.095A15.639,15.639,0,0,0,343.25,254.451Z" transform="translate(-266.59 -167.077)" fill="#fff"/>
        </g>
        <g id="Grupo_3257" data-name="Grupo 3257" transform="translate(0 0.631)">
          <g id="Grupo_3253" data-name="Grupo 3253">
            <path id="Trazado_3055" data-name="Trazado 3055" d="M257.029,641.165h0Z" transform="translate(-254.921 -581.938)" fill="#736357"/>
            <path id="Trazado_3056" data-name="Trazado 3056" d="M241.186,617.962l0,0Z" transform="translate(-241.079 -561.665)" fill="#736357"/>
            <path id="Trazado_3057" data-name="Trazado 3057" d="M356.573,608.979h0Z" transform="translate(-341.897 -553.816)" fill="#736357"/>
            <path id="Trazado_3058" data-name="Trazado 3058" d="M240.337,596.276Z" transform="translate(-240.337 -542.717)" fill="#736357"/>
            <g id="Grupo_3234" data-name="Grupo 3234" transform="translate(3.946)">
              <g id="Grupo_3233" data-name="Grupo 3233">
                <path id="Trazado_3059" data-name="Trazado 3059" d="M347.24,217.4a68.075,68.075,0,0,1-2.42-8.928c-1.04-5.454-2.058-10.933-3.331-16.334-.311-1.317-1.966-6.619-4.288-9.626a8.9,8.9,0,0,0-5.347-3.3,19.089,19.089,0,0,1-2.916-1.642c-4.721-4.441-15.876-8.229-26.084-2.86a30.051,30.051,0,0,0-7.069,5.138,31.563,31.563,0,0,0-7.286,9.479,71.174,71.174,0,0,0-5.1,15.04q-.118.377-.237.754l-2.3,7.265c-1.246,3.165-2.189,6.476-4,9.356a14.053,14.053,0,0,1-1.8,2.325,13.849,13.849,0,0,1-1.934,1.544c-.816.483-1.626,1.1-1.53,2.055a.43.43,0,0,0,.036.221q.017.075.042.152a1.7,1.7,0,0,0,.123.283c.139,1.528,1.945,2.9,3.036,3.687a11.091,11.091,0,0,0,5.809,2.325,9.837,9.837,0,0,0,2.949,5.925c1.4,1.32,3.233,1.905,4.74,3.063,1.558,1.2,2.731,2.837,4.167,4.176a15.258,15.258,0,0,0,9.569,4.055,14.73,14.73,0,0,0,3.307-.242,52.106,52.106,0,0,0,5.588-.989,23.7,23.7,0,0,1,3.527.052,29.014,29.014,0,0,0,6.273.154c.225-.03.448-.067.67-.108q.512.055,1.024.107a32.2,32.2,0,0,0,9.034-.046,14.7,14.7,0,0,0,7.593-3.882,52.308,52.308,0,0,0,4.725-5.319c.507-.218,1.012-.441,1.51-.678a12.523,12.523,0,0,0,5.24-4.233C355.532,228.809,350.419,223.876,347.24,217.4Z" transform="translate(-271.591 -172.075)" fill="#8c6239"/>
                <path id="Trazado_3060" data-name="Trazado 3060" d="M408.4,271.562c-1.145-3.233-2.819-6.307-3.923-9.56-1.322-6.015-2.176-12.155-3.918-18.068-1.122-3.806-3.706-7.1-4.346-11.07a7.078,7.078,0,0,1-.066-1.634c.343-.756,1.253-1.027.835-2.022-.251-.6-.272-1.1.314-1.5.269-.184.579-.3.7-.636a.737.737,0,0,0-.114-.721c-.1-.135-.335-.2-.416-.333l0-.007q.074-.266.14-.534c.069-.07.144-.135.2-.2a1.359,1.359,0,0,0,.113-1.914q.005-.189,0-.379c-.149-.035-.264-.058-.334-.073q-.822-.372-1.609-.823a7.308,7.308,0,0,1-.442.648,1.94,1.94,0,0,0-1.334,1.09,1.515,1.515,0,0,0-.027.867.591.591,0,0,0,.064.328,2.442,2.442,0,0,0,.126.238c.109.255.236.5.347.733a1.882,1.882,0,0,1-.49,1.63c-.13.152-.259.29-.381.432a1.156,1.156,0,0,0-.686.346,1.567,1.567,0,0,0-.317,1.5c-.051.112-.1.224-.156.336a3.046,3.046,0,0,1-.636,1.053,4.133,4.133,0,0,1-1.525.682c-2.608.7-5.472,0-8.077-.385a16.416,16.416,0,0,0-3.929-.264,15.73,15.73,0,0,0-3.917.917c-4.823,1.778-8.272,5.888-10.891,10.3-2.637,4.443-4.567,9.278-6.968,13.854-.715,1.361-1.48,2.683-2.1,4.1-.672,1.542-1.227,3.134-1.783,4.725-.469,1.017-.87,2.076-1.361,3.086a22.918,22.918,0,0,1-3.883,5.657c-.462.492-1.11,1.136-.614,1.851a1.324,1.324,0,0,0,1.879.192,8.919,8.919,0,0,0,1.234-1.024l.892-.711a.3.3,0,0,0,.223-.061c.814-.588,2.115-1.221,2.437.228a13.662,13.662,0,0,1,.042,2.864,21.491,21.491,0,0,0,.694,6.078c.316,1.07,1.022,3.531,2.548,3.043.7-.225.752-.945.7-1.6-.08-.957-.171-1.913-.259-2.869a14.446,14.446,0,0,1,2.249,1.338,4.769,4.769,0,0,1,1.719,2.262,5.746,5.746,0,0,0,.525,1.5,4.73,4.73,0,0,0,1.578,1.289c1.734,1.021,3.663,2.092,4.025,4.358a3.263,3.263,0,0,1-.576,2.468c.3.033.6.061.9.076a14.731,14.731,0,0,0,3.307-.242,52.108,52.108,0,0,0,5.588-.989,23.7,23.7,0,0,1,3.527.052,29.012,29.012,0,0,0,6.273.154c.224-.03.448-.067.67-.108q.513.055,1.024.107c1.113.114,2.232.211,3.351.261a2.913,2.913,0,0,1,.078-1.868,10.641,10.641,0,0,1,3-4,19.579,19.579,0,0,1,3.758-2.824,26.785,26.785,0,0,1,2.6-1.034l-.859,3.213c-.207.773-.454,1.738.326,2.245a.332.332,0,0,0,.356,0,9.633,9.633,0,0,0,3.241-6.214,39.306,39.306,0,0,0,.356-4.262c.063-1.256-.125-4.08,1.615-4.2a.357.357,0,0,0,.118-.03,1.872,1.872,0,0,1,.742.75,5.532,5.532,0,0,1,.36,2.549q0,2.723,0,5.445a.353.353,0,0,0,.657.185C410.432,280.622,409.867,275.7,408.4,271.562Z" transform="translate(-337.325 -215.78)" fill="#6d4a2d"/>
              </g>
              <path id="Trazado_3061" data-name="Trazado 3061" d="M506.294,181.138c1-.353,2.013-.66,3.035-.932a.367.367,0,0,0-.187-.707c-1.108.3-2.2.632-3.284,1.021-.583.21-1.583.405-1.887,1.063-.789,1.707,2.319,1.325,2.969,1.367.3.019,1.513.123,1.655.488.158.405-.557.618-.858.768-.76.381-1.544.707-2.312,1.069a8.119,8.119,0,0,0-3.713,2.965.368.368,0,0,0,.4.539,37.225,37.225,0,0,1,3.8-.675,1.377,1.377,0,0,1,.532.034q.421.605-.042.78a2.477,2.477,0,0,1-.7.306q-.774.334-1.527.716a26.838,26.838,0,0,0-5.648,3.886c-.345.307.155.824.5.519a26.242,26.242,0,0,1,3.894-2.877q1.054-.635,2.162-1.167a10.752,10.752,0,0,0,1.9-.9,1.11,1.11,0,0,0-.457-1.994,4.789,4.789,0,0,0-1.934.183l-1.753.315a9.5,9.5,0,0,1,3.308-2.169c.71-.324,1.428-.63,2.123-.989.472-.244,1.214-.567,1.164-1.239-.047-.619-.807-.925-1.285-1.083a6.927,6.927,0,0,0-2.489-.2c-.266.011-1.4.09-.852-.513C505.1,181.4,505.9,181.278,506.294,181.138Z" transform="translate(-469.773 -178.55)" fill="#a67c52"/>
              <path id="Trazado_3062" data-name="Trazado 3062" d="M512.992,280.236a13.61,13.61,0,0,0-7.3,5.376c-.265.384.346.751.609.37a12.831,12.831,0,0,1,6.879-5.039C513.614,280.813,513.429,280.1,512.992,280.236Z" transform="translate(-476.078 -266.565)" fill="#a67c52"/>
              <path id="Trazado_3063" data-name="Trazado 3063" d="M754.642,319.5c-.854-3.191-1.754-6.437-3.664-9.142-.266-.376-.878-.011-.609.37,1.876,2.658,2.754,5.832,3.593,8.967A.354.354,0,0,0,754.642,319.5Z" transform="translate(-689.861 -292.76)" fill="#a67c52"/>
              <path id="Trazado_3064" data-name="Trazado 3064" d="M770.407,266.562A8.213,8.213,0,0,0,769.084,264c-.36-.463-.959-1.108-1.6-.842-.728.3-.417,1.13-.182,1.674.25.581.506,1.159.758,1.739.108.248.222.495.325.745.124.3.369,1.538-.339.954-.487-.4-.635-1.323-1.474-1.127-.718.168-.755,1.241-.662,1.84a7.9,7.9,0,0,0,1.339,2.69,9.292,9.292,0,0,1,1.159,3.411c.067.465.746.267.68-.195a10.038,10.038,0,0,0-.662-2.441,19.515,19.515,0,0,0-1.323-2.341,3.308,3.308,0,0,1-.522-1.4c-.015-.21-.049-.8.306-.787.145.005.34.421.413.529.275.4.592.835,1.127.763,1.573-.212.529-2.347.187-3.131q-.3-.683-.6-1.366c-.088-.2-.358-.528-.2-.729s.293,0,.463.16a6.466,6.466,0,0,1,1.453,2.611A.354.354,0,0,0,770.407,266.562Z" transform="translate(-703.463 -251.608)" fill="#a67c52"/>
            </g>
            <g id="Grupo_3241" data-name="Grupo 3241" transform="translate(23.23 64.081)">
              <g id="Grupo_3237" data-name="Grupo 3237">
                <g id="Grupo_3236" data-name="Grupo 3236">
                  <g id="Grupo_3235" data-name="Grupo 3235">
                    <path id="Trazado_3065" data-name="Trazado 3065" d="M471.719,701.984c-2.377-.659-5.621-1.653-7.981-2.386a17.351,17.351,0,0,1-5.4-2.533,9.11,9.11,0,0,1-3.465-5.582,33.621,33.621,0,0,1-.173-8.267q.09-1.8.227-3.6H440.6q.124,1.68.209,3.364a33.617,33.617,0,0,1-.173,8.267,9.109,9.109,0,0,1-3.465,5.582,17.349,17.349,0,0,1-5.4,2.533c-2.36.733-4.753,1.342-7.13,2-2.246.623,7.729,13.326,22.912,14.721C462.926,717.494,473.965,702.607,471.719,701.984Z" transform="translate(-424.323 -679.614)" fill="#efb4a8"/>
                  </g>
                </g>
              </g>
              <g id="Grupo_3240" data-name="Grupo 3240" transform="translate(0 0.06)">
                <g id="Grupo_3239" data-name="Grupo 3239">
                  <g id="Grupo_3238" data-name="Grupo 3238">
                    <path id="Trazado_3066" data-name="Trazado 3066" d="M471.719,702.462c-.578-.16-1.209-.341-1.865-.532-.678.406-1.364.8-2.041,1.211-2.1,1.267-4.088,2.719-6.231,3.927a38.647,38.647,0,0,1-6.187,2.745,30.394,30.394,0,0,1-6.331,1.656,16.332,16.332,0,0,1-6.357-.63,8.422,8.422,0,0,1-3.578-1.454,1.569,1.569,0,0,1,.1-2.541,4.265,4.265,0,0,1,1.162-.41c.132-.035.276-.093.414-.131a1.121,1.121,0,0,0-.107-.185,2.335,2.335,0,0,0-.811-.646,7.991,7.991,0,0,0-1.979-.6c-1.4-.3-2.827-.571-3.733-1.778-.327-.436.047-.982.463-1.138a16.19,16.19,0,0,0,6.059-3.375c1.422-1.422,2.227-3.331,3.406-4.938a9.532,9.532,0,0,1,4.835-3.55,21.189,21.189,0,0,0,5.6-2.369c.012-1.354.1-2.712.167-4.033q.09-1.8.227-3.6H440.6q.124,1.68.209,3.364a33.617,33.617,0,0,1-.173,8.267,9.11,9.11,0,0,1-3.465,5.582,17.35,17.35,0,0,1-5.4,2.534c-2.36.733-4.753,1.341-7.13,2-2.246.623,7.729,13.326,22.912,14.721C462.926,717.972,473.965,703.085,471.719,702.462Z" transform="translate(-424.323 -680.092)" fill="#e09f94"/>
                  </g>
                </g>
              </g>
            </g>
            <g id="Grupo_3249" data-name="Grupo 3249" transform="translate(22.918 17.148)">
              <g id="Grupo_3242" data-name="Grupo 3242">
                <path id="Trazado_3067" data-name="Trazado 3067" d="M468.9,331.3c-.09-.351-1.935-4.94-2.4-6.733a41.573,41.573,0,0,0-2.494-9.537,23.739,23.739,0,0,0-4.985-7.029H443.794a29,29,0,0,0-5.435,2.025,16.408,16.408,0,0,0-6.476,5.417,49.337,49.337,0,0,0-3.932,7.325c-.045.095-2.515,5.408-3.914,7.751-.139.233-.284.462-.432.69-.737,1.436-1.741,3.1-1.756,4.664a2.146,2.146,0,0,0,2.586,1.609c.193,3.86,2.829,9.351,4.748,12.728,2.234,3.93,11.26,12.672,16.828,12.672,6.417,0,15.077-9.312,17.4-14.186,1.836-3.857,3.892-8.092,3.926-12.343l.011,0c1.341.2,2.153-1.062,2.129-2.281A12.394,12.394,0,0,0,468.9,331.3Z" transform="translate(-421.85 -307.991)" fill="#ffd0c5"/>
                <path id="Trazado_3068" data-name="Trazado 3068" d="M468.9,331.19c-.09-.351-1.935-4.941-2.4-6.733a41.573,41.573,0,0,0-2.494-9.537,23.741,23.741,0,0,0-4.985-7.028H443.794a29.009,29.009,0,0,0-5.435,2.025,16.41,16.41,0,0,0-6.476,5.417,49.339,49.339,0,0,0-3.932,7.325c-.045.095-2.515,5.408-3.914,7.751-.139.233-.284.462-.432.69-.737,1.436-1.741,3.1-1.756,4.664a2.146,2.146,0,0,0,2.586,1.609c.083,1.655.76,4.776.783,3.625a39.02,39.02,0,0,1,.634-6.556,47.74,47.74,0,0,1,3.646-10.41,28.643,28.643,0,0,1,5.982-8.357,19.335,19.335,0,0,1,9.053-4.962c4.693-.989,9.526.057,14.235-.781a.076.076,0,0,1,.083.034c1.551,2.637,3.133,5.263,4.46,8.022a35.519,35.519,0,0,1,2.7,7.534,34.072,34.072,0,0,1,.668,8.4c-.073,2.769-.389,5.517-.564,8.279-.054.847,1.193-3.081,1.216-5.961l.011,0c1.341.2,2.153-1.062,2.129-2.281A12.391,12.391,0,0,0,468.9,331.19Z" transform="translate(-421.85 -307.891)" fill="#efb4a8"/>
              </g>
              <g id="Grupo_3248" data-name="Grupo 3248" transform="translate(6.599 14.748)">
                <g id="Grupo_3243" data-name="Grupo 3243" transform="translate(0.562 4.839)">
                  <path id="Trazado_3069" data-name="Trazado 3069" d="M489.474,467.27c-.324-.505-.554-1.064-.832-1.593-.073-.138-.147-.273-.226-.4a6.259,6.259,0,0,0-.65-.763,4.958,4.958,0,0,0-2.873-1.458,4.707,4.707,0,0,0-2.677.49c-.438.339-.877.677-1.307,1.025-.63.58-1.277,1.142-1.89,1.739h.04c-.133.165-.264.33-.389.494a.234.234,0,0,0-.025.04.229.229,0,0,0-.029.314c1.785,2.235,4.446,2.733,7.055,2.317a2.734,2.734,0,0,0,.889-.177,14.3,14.3,0,0,0,3.426-1.313C489.812,467.748,489.632,467.518,489.474,467.27Z" transform="translate(-478.566 -463.021)" fill="#fff"/>
                </g>
                <g id="Grupo_3244" data-name="Grupo 3244" transform="translate(22.844 4.802)">
                  <path id="Trazado_3070" data-name="Trazado 3070" d="M655.045,467.687A14.3,14.3,0,0,0,658.471,469a2.733,2.733,0,0,0,.889.177c2.609.416,5.27-.082,7.055-2.317a.23.23,0,0,0-.029-.314.24.24,0,0,0-.024-.04c-.125-.164-.256-.329-.389-.494h.04c-.613-.6-1.26-1.158-1.89-1.739-.43-.347-.869-.686-1.307-1.025a4.705,4.705,0,0,0-2.677-.49,4.959,4.959,0,0,0-2.873,1.458,6.257,6.257,0,0,0-.65.763c-.078.13-.153.264-.226.4-.278.529-.508,1.087-.832,1.593C655.4,467.224,655.219,467.454,655.045,467.687Z" transform="translate(-655.045 -462.727)" fill="#fff"/>
                </g>
                <g id="Grupo_3245" data-name="Grupo 3245" transform="translate(0 3.328)">
                  <path id="Trazado_3071" data-name="Trazado 3071" d="M665.394,464.9a1.818,1.818,0,0,1-1.061.049c-.15-.176-.3-.351-.461-.522a1.724,1.724,0,0,0,.9-.293c.234-.157.006-.55-.222-.38a1.582,1.582,0,0,1-1.131.214c-.185-.179-.375-.352-.572-.514a2.354,2.354,0,0,0,1.321-.422c.231-.16-.005-.563-.222-.38a2.774,2.774,0,0,1-1.681.363,4.71,4.71,0,0,0-6.357.565,6.552,6.552,0,0,0-1.053,1.4c-.323.577-.48,1.452-1.112,1.764l-.007,0a.221.221,0,0,0-.089.407,14.316,14.316,0,0,0,3.482,1.363,2.722,2.722,0,0,0,.9.183c2.643.43,5.338-.085,7.146-2.395a.24.24,0,0,0-.029-.325.236.236,0,0,0-.025-.041c-.127-.169-.259-.34-.394-.511a2.114,2.114,0,0,0,.778-.112C665.777,465.233,665.652,464.78,665.394,464.9Zm-.655,1.258a6.071,6.071,0,0,1-3.591,2.109,6.852,6.852,0,0,1-2.852.1,10.331,10.331,0,0,1-2.211-.681,2.862,2.862,0,0,1-1.136-.71.26.26,0,0,1-.155-.332,5.337,5.337,0,0,1,3.519-3.6C660.767,462.518,663.225,464.137,664.739,466.158Z" transform="translate(-630.889 -460.654)" fill="#754c24"/>
                  <path id="Trazado_3072" data-name="Trazado 3072" d="M474.267,465.03a2.112,2.112,0,0,0,.778.112c-.135.171-.268.341-.394.511a.237.237,0,0,0-.025.041.241.241,0,0,0-.029.325c1.808,2.31,4.5,2.824,7.146,2.395a2.723,2.723,0,0,0,.9-.183,14.325,14.325,0,0,0,3.482-1.363.221.221,0,0,0-.089-.407l-.007,0c-.632-.312-.79-1.187-1.112-1.764a6.547,6.547,0,0,0-1.053-1.4,4.709,4.709,0,0,0-6.357-.565,2.775,2.775,0,0,1-1.681-.363c-.217-.183-.453.22-.222.38a2.354,2.354,0,0,0,1.321.422c-.2.163-.387.336-.572.514a1.582,1.582,0,0,1-1.131-.214c-.228-.17-.456.223-.222.38a1.722,1.722,0,0,0,.9.293c-.159.171-.311.346-.461.522a1.818,1.818,0,0,1-1.061-.049C474.126,464.485,474,464.938,474.267,465.03Zm10.718,1.319a.262.262,0,0,1-.155.332,2.861,2.861,0,0,1-1.136.71,10.329,10.329,0,0,1-2.211.681,6.847,6.847,0,0,1-2.852-.1,6.07,6.07,0,0,1-3.591-2.109c1.285-1.716,3.3-3.563,5.523-3.28A5.411,5.411,0,0,1,484.984,466.349Z" transform="translate(-474.118 -460.397)" fill="#754c24"/>
                  <path id="Trazado_3073" data-name="Trazado 3073" d="M669.443,451.072a5.17,5.17,0,0,0-1.264.242,7.217,7.217,0,0,0-3.1,2.258c-.178.22.117.518.311.311a6.277,6.277,0,0,1,4.05-2.371,5.138,5.138,0,0,1,4.005,1.453c.2.2.513-.112.311-.311A5.572,5.572,0,0,0,669.443,451.072Z" transform="translate(-640.923 -451.057)" fill="#efb4a8"/>
                </g>
                <path id="Trazado_3074" data-name="Trazado 3074" d="M584.62,560c-1.094-1.2-.732-2.795-.286-4.2.085-.269.51-.154.424.117-.391,1.232-.806,2.695.173,3.772C585.122,559.9,584.811,560.208,584.62,560Z" transform="translate(-570.039 -539.111)" fill="#efb4a8"/>
                <g id="Grupo_3246" data-name="Grupo 3246" transform="translate(1.07)">
                  <path id="Trazado_3075" data-name="Trazado 3075" d="M490.916,424.753l-2.24-.029a13.777,13.777,0,0,0-3.362.151,4.11,4.11,0,0,0-1.181.5c-1.414.718-1.9,2.124-1.254,1.471a5.969,5.969,0,0,1,1.932-1.138,6.879,6.879,0,0,1,1.74-.268c.854.009,1.716.119,2.555.185a24.815,24.815,0,0,0,2.666.244c.442-.012.841-.7.162-.9A3.757,3.757,0,0,0,490.916,424.753Z" transform="translate(-482.596 -424.695)" fill="#754c24"/>
                  <path id="Trazado_3076" data-name="Trazado 3076" d="M671.079,424.753l2.24-.029a13.777,13.777,0,0,1,3.362.151,4.109,4.109,0,0,1,1.181.5c1.414.718,1.9,2.124,1.254,1.471a5.969,5.969,0,0,0-1.932-1.138,6.879,6.879,0,0,0-1.74-.268c-.854.009-1.716.119-2.555.185a24.817,24.817,0,0,1-2.666.244c-.442-.012-.841-.7-.162-.9A3.755,3.755,0,0,1,671.079,424.753Z" transform="translate(-646.074 -424.695)" fill="#754c24"/>
                  <path id="Trazado_3077" data-name="Trazado 3077" d="M494.86,451.121a5.177,5.177,0,0,0-1.264-.242,5.572,5.572,0,0,0-4.317,1.582c-.2.2.109.51.311.311a5.138,5.138,0,0,1,4.005-1.453,6.276,6.276,0,0,1,4.05,2.371c.195.207.489-.091.311-.311A7.218,7.218,0,0,0,494.86,451.121Z" transform="translate(-488.379 -447.559)" fill="#efb4a8"/>
                </g>
                <path id="Trazado_3078" data-name="Trazado 3078" d="M599.241,576.685a.571.571,0,0,1,.123-.015.531.531,0,0,1,.464.236,1.448,1.448,0,0,1,.318.285,1.57,1.57,0,0,0,.21-.827c0-.6-.267-1.091-.6-1.091s-.6.488-.6,1.091a1.943,1.943,0,0,0,.026.316Z" transform="translate(-583.377 -556.261)" fill="#e08f82"/>
                <path id="Trazado_3079" data-name="Trazado 3079" d="M622.671,576.685a.572.572,0,0,0-.123-.015.531.531,0,0,0-.464.236,1.447,1.447,0,0,0-.318.285,1.569,1.569,0,0,1-.21-.827c0-.6.267-1.091.6-1.091s.6.488.6,1.091a1.936,1.936,0,0,1-.026.316Z" transform="translate(-602.941 -556.261)" fill="#e08f82"/>
                <g id="Grupo_3247" data-name="Grupo 3247" transform="translate(13.377 23.82)">
                  <path id="Trazado_3080" data-name="Trazado 3080" d="M585.964,625.069c-.143-.017-.876.225-1.251.23-.355-.01-1.066-.252-1.251-.23-.279-.025-7.181,2.022-.481,4.993a7.306,7.306,0,0,0,3.441.154C593.158,627.3,586.243,625.044,585.964,625.069Z" transform="translate(-580.065 -623.589)" fill="#e59285"/>
                  <path id="Trazado_3081" data-name="Trazado 3081" d="M583.178,644.3h7.374c.045-.007.436-.149.309-.211h-8.339C582.484,644.143,583.031,644.276,583.178,644.3Z" transform="translate(-582.21 -640.207)" fill="#aa534f"/>
                  <path id="Trazado_3082" data-name="Trazado 3082" d="M608.063,613.41a1.3,1.3,0,0,1-1.288-.009c-.323-.191-.67.283-.345.475a1.9,1.9,0,0,0,1.878.068C608.64,613.768,608.4,613.233,608.063,613.41Z" transform="translate(-602.987 -613.357)" fill="#efb4a8"/>
                  <path id="Trazado_3083" data-name="Trazado 3083" d="M605.09,670.37a4.427,4.427,0,0,1-2.9-.012.294.294,0,0,0-.189.556,4.962,4.962,0,0,0,3.212.031C605.567,670.827,605.449,670.251,605.09,670.37Z" transform="translate(-599.064 -663.145)" fill="#efb4a8"/>
                </g>
                <circle id="Elipse_663" data-name="Elipse 663" cx="2.641" cy="2.641" r="2.641" transform="translate(3.418 5.631)" fill="#754c24"/>
                <circle id="Elipse_664" data-name="Elipse 664" cx="2.641" cy="2.641" r="2.641" transform="matrix(0.999, -0.036, 0.036, 0.999, 26.069, 5.873)" fill="#754c24"/>
                <circle id="Elipse_665" data-name="Elipse 665" cx="1.389" cy="1.389" r="1.389" transform="translate(4.608 7.366) rotate(-15.482)" fill="#683c17"/>
                <circle id="Elipse_666" data-name="Elipse 666" cx="1.389" cy="1.389" r="1.389" transform="translate(27.299 7.057) rotate(-5.152)" fill="#683c17"/>
                <path id="Trazado_3084" data-name="Trazado 3084" d="M508.076,494.488a.744.744,0,1,1-.744-.744A.744.744,0,0,1,508.076,494.488Z" transform="translate(-502.488 -485.026)" fill="#fff"/>
                <path id="Trazado_3085" data-name="Trazado 3085" d="M685.619,491.8a.744.744,0,1,1-.744-.744A.744.744,0,0,1,685.619,491.8Z" transform="translate(-657.615 -482.681)" fill="#fff"/>
                <circle id="Elipse_667" data-name="Elipse 667" cx="0.36" cy="0.36" r="0.36" transform="matrix(0.071, -0.997, 0.997, 0.071, 6.733, 8.586)" fill="#fff"/>
                <path id="Trazado_3086" data-name="Trazado 3086" d="M704.082,487.246a.36.36,0,1,1-.36-.36A.36.36,0,0,1,704.082,487.246Z" transform="translate(-674.419 -479.034)" fill="#fff"/>
              </g>
            </g>
            <g id="Grupo_3252" data-name="Grupo 3252" transform="translate(12.191 84.509)">
              <g id="Grupo_3251" data-name="Grupo 3251">
                <g id="Grupo_3250" data-name="Grupo 3250">
                  <path id="Trazado_3087" data-name="Trazado 3087" d="M397.166,842.066l-1.011-.276c-2.612,2.11-5.2,4.25-7.893,6.258a43.143,43.143,0,0,1-10.814,6.258,21.673,21.673,0,0,1-2.818.816V855.1a19.683,19.683,0,0,1-8.677-1.178,43.135,43.135,0,0,1-10.814-6.258c-2.693-2.007-5.281-4.148-7.893-6.258l-1.011.276a69.119,69.119,0,0,0-7.274,2.161,14.687,14.687,0,0,0-2.073,1.009,53.283,53.283,0,0,0,69.419.266,14.946,14.946,0,0,0-1.868-.891A69.066,69.066,0,0,0,397.166,842.066Z" transform="translate(-336.889 -841.406)" fill="#65b1c9"/>
                </g>
              </g>
            </g>
          </g>
          <g id="Grupo_3256" data-name="Grupo 3256" transform="translate(24.954 36.775)">
            <path id="Trazado_3088" data-name="Trazado 3088" d="M754.45,463.511A40.861,40.861,0,0,1,751.1,471.3a.775.775,0,0,0,1.338.782c1.027-1.7,2.531-5.028,2.664-6.51C755.269,463.722,754.614,462.984,754.45,463.511Z" transform="translate(-711.475 -463.345)" fill="#e4eef2"/>
            <path id="Trazado_3089" data-name="Trazado 3089" d="M438.66,468.109a40.86,40.86,0,0,0,3.348,7.786.775.775,0,0,1-1.338.782c-1.027-1.7-2.531-5.028-2.664-6.51C437.841,468.321,438.5,467.582,438.66,468.109Z" transform="translate(-437.98 -467.363)" fill="#e4eef2"/>
            <g id="Grupo_3255" data-name="Grupo 3255" transform="translate(2.525 4.873)">
              <path id="Trazado_3090" data-name="Trazado 3090" d="M484.2,504.258a7.316,7.316,0,0,1-4.311-1.461,4.468,4.468,0,0,0-5.107-.112,9.033,9.033,0,0,1-5,1.573h-11.8v7.512c0,9.874,8.58,19.307,18.454,19.307H478.6c9.786,0,18.028-9.361,18.028-19.147v-7.672Z" transform="translate(-457.978 -501.938)" fill="#e4eef2"/>
              <g id="Grupo_3254" data-name="Grupo 3254" transform="translate(1.613 3.668)">
                <path id="Trazado_3091" data-name="Trazado 3091" d="M481.327,640.028a16.934,16.934,0,0,0,1.256,2.389h30.376a16.9,16.9,0,0,0,1.256-2.389Z" transform="translate(-479.992 -626.26)" fill="#fff"/>
                <path id="Trazado_3092" data-name="Trazado 3092" d="M470.757,583.3v2.569c.007.044.014.087.022.13h35.513c.008-.043.014-.087.022-.13V583.3Z" transform="translate(-470.757 -576.699)" fill="#fff"/>
                <path id="Trazado_3093" data-name="Trazado 3093" d="M472.47,612.342a20.426,20.426,0,0,0,.738,2.529h33.648a20.405,20.405,0,0,0,.738-2.529Z" transform="translate(-472.254 -602.07)" fill="#fff"/>
                <path id="Trazado_3094" data-name="Trazado 3094" d="M496.873,667.049c.108.143,1.631,3.062,6.973,4.716h15.015c5.343-1.655,6.866-4.574,6.973-4.716Z" transform="translate(-493.576 -649.87)" fill="#fff"/>
                <path id="Trazado_3095" data-name="Trazado 3095" d="M492.9,531.786c-.994-.119-2.145-.8-3.976-.8h-.78c-1.831,0-2.982.681-3.976.8H470.757v4.84h35.557v-4.84Z" transform="translate(-470.757 -530.986)" fill="#fff"/>
              </g>
            </g>
          </g>
        </g>
      </g>
    </g>
    <path id="Trazado_3096" data-name="Trazado 3096" d="M3199,6230.886l8.333,8.332,19.361-19.361" transform="translate(-2364 1266.299)" fill="none" stroke="#0e737b" stroke-linecap="round" stroke-width="5"/>
  </g>
</svg>
