<svg xmlns="http://www.w3.org/2000/svg" width="87" height="87" viewBox="0 0 87 87">
  <g id="Grupo_2984" data-name="Grupo 2984" transform="translate(-204 -3609)">
    <circle id="Elipse_578" data-name="Elipse 578" cx="43.5" cy="43.5" r="43.5" transform="translate(204 3609)" fill="#ffe3e2"/>
    <g id="Grupo_2977" data-name="Grupo 2977" transform="translate(-250.5 3190)">
      <circle id="Elipse_579" data-name="Elipse 579" cx="6" cy="6" r="6" transform="translate(486.5 454)" fill="none" stroke="#dd726a" stroke-miterlimit="10" stroke-width="2"/>
      <circle id="Elipse_580" data-name="Elipse 580" cx="3" cy="3" r="3" transform="translate(489.5 457)" fill="none" stroke="#dd726a" stroke-miterlimit="10" stroke-width="2"/>
      <circle id="Elipse_581" data-name="Elipse 581" cx="2" cy="2" r="2" transform="translate(491 476)" fill="none" stroke="#dd726a" stroke-miterlimit="10" stroke-width="2"/>
      <path id="Trazado_1404" data-name="Trazado 1404" d="M493.249,479.987A8,8,0,0,0,501,486h16V468a8,8,0,0,0-8-8H499" fill="none" stroke="#dd726a" stroke-miterlimit="10" stroke-width="2"/>
      <path id="Trazado_1405" data-name="Trazado 1405" d="M491,477.921A14,14,0,0,1,478.5,464V444a4,4,0,0,1,4-4h2" fill="none" stroke="#dd726a" stroke-miterlimit="10" stroke-width="2"/>
      <path id="Trazado_1406" data-name="Trazado 1406" d="M506.5,463v1a14,14,0,0,1-11.513,13.78" fill="none" stroke="#dd726a" stroke-miterlimit="10" stroke-width="2"/>
      <path id="Trazado_1407" data-name="Trazado 1407" d="M500.5,440h2a4,4,0,0,1,4,4v13" fill="none" stroke="#dd726a" stroke-miterlimit="10" stroke-width="2"/>
      <line id="Línea_28" data-name="Línea 28" y2="4" transform="translate(499.5 439)" fill="none" stroke="#dd726a" stroke-miterlimit="10" stroke-width="2"/>
      <line id="Línea_29" data-name="Línea 29" y2="4" transform="translate(485.5 439)" fill="none" stroke="#dd726a" stroke-miterlimit="10" stroke-width="2"/>
      <path id="Trazado_1408" data-name="Trazado 1408" d="M506.2,466.878c-2.6,3.642-7.762,6.122-13.7,6.122-5.885,0-11.005-2.434-13.629-6.018" fill="none" stroke="#dd726a" stroke-miterlimit="10" stroke-width="2"/>
    </g>
  </g>
</svg>
