<svg xmlns="http://www.w3.org/2000/svg" width="87" height="87" viewBox="0 0 87 87">
  <g id="Grupo_2985" data-name="Grupo 2985" transform="translate(-204 -3733)">
    <circle id="Elipse_582" data-name="Elipse 582" cx="43.5" cy="43.5" r="43.5" transform="translate(204 3733)" fill="#ffe3e2"/>
    <g id="Grupo_2980" data-name="Grupo 2980" transform="translate(-94.332 3393)">
      <circle id="Elipse_584" data-name="Elipse 584" cx="3" cy="3" r="3" transform="translate(339 362)" fill="none" stroke="#dd726a" stroke-miterlimit="10" stroke-width="2"/>
      <line id="Línea_30" data-name="Línea 30" y2="8.848" transform="translate(342 400.152)" fill="none" stroke="#dd726a" stroke-miterlimit="10" stroke-width="2"/>
      <line id="Línea_31" data-name="Línea 31" y2="5.748" transform="translate(342 391.895)" fill="none" stroke="#dd726a" stroke-miterlimit="10" stroke-width="2"/>
      <line id="Línea_32" data-name="Línea 32" y2="21.436" transform="translate(342 368)" fill="none" stroke="#dd726a" stroke-miterlimit="10" stroke-width="2"/>
      <path id="Trazado_1409" data-name="Trazado 1409" d="M339,373.056a8.5,8.5,0,0,1-5.648-9.732.435.435,0,0,0-.649-.467c-2.174,1.31-7.845,4.787-13.179,8.539a.441.441,0,0,0,.17.794c2.721.512,10.532,2.02,19.31,4.067" fill="none" stroke="#dd726a" stroke-miterlimit="10" stroke-width="2"/>
      <line id="Línea_33" data-name="Línea 33" y1="3.169" x2="4.953" transform="translate(324.715 370)" fill="none" stroke="#dd726a" stroke-miterlimit="10" stroke-width="2"/>
      <line id="Línea_34" data-name="Línea 34" y1="2.365" x2="3.168" transform="translate(330.5 372)" fill="none" stroke="#dd726a" stroke-miterlimit="10" stroke-width="2"/>
      <path id="Trazado_1410" data-name="Trazado 1410" d="M345,373.057a8.5,8.5,0,0,0,5.652-9.733.435.435,0,0,1,.649-.467c2.174,1.31,7.845,4.787,13.179,8.539a.441.441,0,0,1-.171.794c-2.72.512-10.531,2.02-19.309,4.067" fill="none" stroke="#dd726a" stroke-miterlimit="10" stroke-width="2"/>
      <line id="Línea_35" data-name="Línea 35" x1="4.953" y1="3.169" transform="translate(354.332 370)" fill="none" stroke="#dd726a" stroke-miterlimit="10" stroke-width="2"/>
      <line id="Línea_36" data-name="Línea 36" x1="3.168" y1="2.365" transform="translate(350.332 372)" fill="none" stroke="#dd726a" stroke-miterlimit="10" stroke-width="2"/>
      <path id="Trazado_1411" data-name="Trazado 1411" d="M342,389c-4.971,0-9-2.239-9-5,0-2.151,2.446-3.985,5.877-4.691" fill="none" stroke="#dd726a" stroke-miterlimit="10" stroke-width="2"/>
      <path id="Trazado_1412" data-name="Trazado 1412" d="M345.17,379.319c3.407.712,5.83,2.54,5.83,4.681,0,1.407-1.046,2.678-2.729,3.586" fill="none" stroke="#dd726a" stroke-miterlimit="10" stroke-width="2"/>
      <path id="Trazado_1413" data-name="Trazado 1413" d="M342,397c-3.314,0-6-1.791-6-4a3.068,3.068,0,0,1,.857-2.062" fill="none" stroke="#dd726a" stroke-miterlimit="10" stroke-width="2"/>
      <path id="Trazado_1414" data-name="Trazado 1414" d="M342,389c3.314,0,6,1.791,6,4a3.313,3.313,0,0,1-1.376,2.549" fill="none" stroke="#dd726a" stroke-miterlimit="10" stroke-width="2"/>
      <path id="Trazado_1415" data-name="Trazado 1415" d="M342,397c2.209,0,4,1.343,4,3s-1.791,3-4,3-4-1.343-4-3a2.3,2.3,0,0,1,.147-.808" fill="none" stroke="#dd726a" stroke-miterlimit="10" stroke-width="2"/>
    </g>
  </g>
</svg>
