<svg xmlns="http://www.w3.org/2000/svg" width="156" height="156" viewBox="0 0 156 156">
  <g id="Grupo_3150" data-name="Grupo 3150" transform="translate(-194 -2772)">
    <circle id="Elipse_510" data-name="Elipse 510" cx="78" cy="78" r="78" transform="translate(194 2772)" fill="#ffe3e2"/>
    <g id="Grupo_1151" data-name="Grupo 1151" transform="translate(-795.882 1741.123)">
      <path id="Trazado_1377" data-name="Trazado 1377" d="M1355.03,1231.243s20.62,8.366,23.694,11.277c6.664,6.311,8.45,22.086,8.45,30.8a42.847,42.847,0,0,0,2.621,13.058" transform="translate(-249.199 -129.897)" fill="none" stroke="#dd726a" stroke-linecap="round" stroke-linejoin="round" stroke-width="3"/>
      <path id="Trazado_1378" data-name="Trazado 1378" d="M1314.049,1245.665c-4.57-5.168-8.761-5-12.167-8.323-6.633-6.474-6.006-6.006-12.087-11.885-3.611-3.491-6.062-5.544-9.684-3.129-3.041,2.028-2.718,4.642-1.18,7.958,1.876,4.045,11.824,16.986,13.917,20.02a4.406,4.406,0,0,1,.776,2.193c.31,4.281,1.457,16.414,17.9,20.949" transform="translate(-194.068 -122.785)" fill="none" stroke="#dd726a" stroke-linecap="round" stroke-linejoin="round" stroke-width="3"/>
      <path id="Trazado_1379" data-name="Trazado 1379" d="M1338.518,1415.122c4.609,2.1,6.166,8.516,6.166,8.516" transform="translate(-237.413 -261.137)" fill="none" stroke="#dd726a" stroke-linecap="round" stroke-linejoin="round" stroke-width="3"/>
      <path id="Trazado_1380" data-name="Trazado 1380" d="M1219.78,1397.979h17.569a13.7,13.7,0,0,0,11.616-6.446" transform="translate(-152.666 -244.301)" fill="none" stroke="#dd726a" stroke-linecap="round" stroke-linejoin="round" stroke-width="3"/>
      <path id="Trazado_1381" data-name="Trazado 1381" d="M1189.135,1103.281v-26.367a13.685,13.685,0,0,0-13.685-13.685h-28.711a13.685,13.685,0,0,0-13.685,13.685v28.435" transform="translate(-90.767 -9.979)" fill="none" stroke="#dd726a" stroke-linecap="round" stroke-linejoin="round" stroke-width="3"/>
      <line id="Línea_6" data-name="Línea 6" x1="56.081" transform="translate(1042.287 1069.383)" fill="none" stroke="#dd726a" stroke-linecap="round" stroke-linejoin="round" stroke-width="3"/>
      <line id="Línea_7" data-name="Línea 7" x1="8.099" transform="translate(1065.43 1061.354)" fill="none" stroke="#dd726a" stroke-linecap="round" stroke-linejoin="round" stroke-width="3"/>
      <line id="Línea_8" data-name="Línea 8" x1="25.07" transform="translate(1067.114 1137.544)" fill="none" stroke="#dd726a" stroke-linecap="round" stroke-linejoin="round" stroke-width="3"/>
      <path id="Trazado_1382" data-name="Trazado 1382" d="M1395.437,1079.214a19.089,19.089,0,0,1,0,27.328" transform="translate(-278.039 -21.388)" fill="none" stroke="#dd726a" stroke-linecap="round" stroke-linejoin="round" stroke-width="3"/>
      <path id="Trazado_1383" data-name="Trazado 1383" d="M1426.234,1093.732a31.406,31.406,0,0,0,0-44.485" transform="translate(-300.019)" fill="none" stroke="#dd726a" stroke-linecap="round" stroke-linejoin="round" stroke-width="3"/>
      <path id="Trazado_1384" data-name="Trazado 1384" d="M1371.486,1116.5a9.527,9.527,0,0,0,0-13.985" transform="translate(-260.944 -38.022)" fill="none" stroke="#dd726a" stroke-linecap="round" stroke-linejoin="round" stroke-width="3"/>
      <path id="Trazado_1385" data-name="Trazado 1385" d="M1037.423,1153.031l4.6,4.6,7.522-7.522" transform="translate(-22.512 -71.99)" fill="none" stroke="#dd726a" stroke-linecap="round" stroke-linejoin="round" stroke-width="3"/>
      <path id="Trazado_1386" data-name="Trazado 1386" d="M1024.7,1105.09s-7.109,5.514-13.039,5.514v13.978a8.607,8.607,0,0,0,3.18,6.991c2.08,1.538,8.292,5.633,8.555,5.807l1.3.859,1.3-.859c.264-.174,6.475-4.269,8.555-5.807a8.606,8.606,0,0,0,3.18-6.991V1110.6C1031.812,1110.6,1024.7,1105.09,1024.7,1105.09Z" transform="translate(-4.127 -39.857)" fill="none" stroke="#dd726a" stroke-linecap="round" stroke-linejoin="round" stroke-width="3"/>
      <line id="Línea_9" data-name="Línea 9" x2="34.145" transform="translate(1054.091 1085.559)" stroke-dasharray="5.882 29.412" stroke="#dd726a" stroke-linecap="round" stroke-linejoin="round" stroke-width="3" fill="none"/>
      <path id="Trazado_1387" data-name="Trazado 1387" d="M1064.29,1254.306l-26.938-21.733a2.815,2.815,0,0,0-3.541,0l-26.878,21.725a2.816,2.816,0,0,0,1.771,5.007h4.629a.845.845,0,0,1,.845.845v21.111a2.816,2.816,0,0,0,2.816,2.816h12.023a.811.811,0,0,0,.812-.811V1268.26a1.345,1.345,0,0,1,1.345-1.345h9.244a1.345,1.345,0,0,1,1.345,1.345v15.005a.811.811,0,0,0,.812.811H1055.3a2.816,2.816,0,0,0,2.816-2.816v-21.11a.845.845,0,0,1,.845-.845h3.553A2.816,2.816,0,0,0,1064.29,1254.306Z" transform="translate(0 -130.399)" fill="none" stroke="#dd726a" stroke-linecap="round" stroke-linejoin="round" stroke-width="3"/>
    </g>
  </g>
</svg>
