<svg xmlns="http://www.w3.org/2000/svg" width="156" height="156" viewBox="0 0 156 156">
  <g id="Grupo_3152" data-name="Grupo 3152" transform="translate(-821 -2772)">
    <circle id="Elipse_513" data-name="Elipse 513" cx="78" cy="78" r="78" transform="translate(821 2772)" fill="#ffe3e2"/>
    <g id="Grupo_1155" data-name="Grupo 1155" transform="translate(-158 254.931)">
      <path id="Trazado_1397" data-name="Trazado 1397" d="M1023.528,2631.561l-17.452,6.356L1000,2620.365" transform="translate(0 -59.027)" fill="none" stroke="#dd726a" stroke-linecap="round" stroke-linejoin="round" stroke-width="3"/>
      <path id="Trazado_1398" data-name="Trazado 1398" d="M1013.342,2741.839a53.83,53.83,0,0,0,104.035,24.2q.179-.482.347-.966" transform="translate(-9.892 -151.074)" fill="none" stroke="#dd726a" stroke-linecap="round" stroke-linejoin="round" stroke-width="3"/>
      <path id="Trazado_1399" data-name="Trazado 1399" d="M1129.9,2601.984a53.83,53.83,0,0,0-104.021-24.338q-.166.45-.324.9" transform="translate(-19.366)" fill="none" stroke="#dd726a" stroke-linecap="round" stroke-linejoin="round" stroke-width="3"/>
      <path id="Trazado_1400" data-name="Trazado 1400" d="M1373.464,2842.95l17.452-6.356,6.076,17.552" transform="translate(-282.992 -222.875)" fill="none" stroke="#dd726a" stroke-linecap="round" stroke-linejoin="round" stroke-width="3"/>
      <circle id="Elipse_514" data-name="Elipse 514" cx="28.778" cy="28.778" r="28.778" transform="translate(1017.952 2609.224) rotate(-63.508)" stroke-width="3" stroke="#dd726a" stroke-linecap="round" stroke-linejoin="round" fill="none"/>
      <path id="Trazado_1401" data-name="Trazado 1401" d="M1176.351,2734.7l11.231,11.23,18.358-18.358" transform="translate(-133.63 -140.261)" fill="none" stroke="#dd726a" stroke-linecap="round" stroke-linejoin="round" stroke-width="3"/>
    </g>
  </g>
</svg>
