<svg xmlns="http://www.w3.org/2000/svg" width="435" height="198" viewBox="0 0 435 198">
  <g id="Grupo_3261" data-name="Grupo 3261" transform="translate(-117 -5755)">
    <rect id="Rectángulo_929" data-name="Rectángulo 929" width="435" height="198" transform="translate(117 5755)" fill="#efefef"/>
    <g id="Elipse_587" data-name="Elipse 587" transform="translate(167 5829)" fill="none" stroke="#dd726a" stroke-width="1" stroke-dasharray="6">
      <ellipse cx="166" cy="44" rx="166" ry="44" stroke="none"/>
      <ellipse cx="166" cy="44" rx="165.5" ry="43.5" fill="none"/>
    </g>
    <g id="Grupo_2991" data-name="Grupo 2991" transform="translate(143 5823)">
      <path id="Trazado_1420" data-name="Trazado 1420" d="M261.9,608.277H145.474a2.118,2.118,0,0,1-2.119-2.119h0a2.118,2.118,0,0,1,2.119-2.118H261.9a2.119,2.119,0,0,1,2.119,2.118h0A2.119,2.119,0,0,1,261.9,608.277Z" transform="translate(-143.355 -505.87)" fill="#231f20" opacity="0.15"/>
      <g id="Grupo_2990" data-name="Grupo 2990" transform="translate(0)">
        <rect id="Rectángulo_894" data-name="Rectángulo 894" width="54.914" height="56.296" transform="translate(56.719 42.811)" fill="#ddd"/>
        <path id="Trazado_1421" data-name="Trazado 1421" d="M232.071,317.478H185.255V258.6l23.408-31.038L232.071,258.6Z" transform="translate(-175.352 -218.372)" fill="#fffeff"/>
        <path id="Trazado_1422" data-name="Trazado 1422" d="M232.071,276.266h54.914l.23-5.584-80.277-34.362-21.683,27.931v9.577l22.3-28.891,24.52,31.329Z" transform="translate(-175.352 -225.058)" fill="#231f20" opacity="0.15"/>
        <path id="Trazado_1423" data-name="Trazado 1423" d="M184.425,224.091l-30.91,36.985.721,3.178h6.78v-4.964l23.408-30.332Z" transform="translate(-151.114 -215.719)" fill="#d95243"/>
        <path id="Trazado_1424" data-name="Trazado 1424" d="M202.052,256.793l-27.787-35.5-27.787,35.5-3.122-2.911,30.91-39.561,30.91,39.561Z" transform="translate(-143.355 -208.258)" fill="#f8796b"/>
        <path id="Trazado_1425" data-name="Trazado 1425" d="M523.42,256.793l-27.787-36.211-8.508-6.26,39.418,39.561Z" transform="translate(-405.878 -208.258)" fill="#f8796b"/>
        <path id="Trazado_1426" data-name="Trazado 1426" d="M274.139,214.321h58.845l30.91,39.561H305.049Z" transform="translate(-243.23 -208.258)" fill="#fe9e94"/>
        <path id="Trazado_1427" data-name="Trazado 1427" d="M394.834,381.711H453.68l-3.122,2.911H391.712Z" transform="translate(-333.015 -336.086)" fill="#d95243"/>
        <rect id="Rectángulo_895" data-name="Rectángulo 895" width="17.336" height="33.088" transform="translate(24.643 66.018)" fill="#f8796b"/>
        <rect id="Rectángulo_896" data-name="Rectángulo 896" width="2.925" height="33.088" transform="translate(24.643 66.018)" fill="#d95243"/>
        <path id="Trazado_1428" data-name="Trazado 1428" d="M247.623,468l17.452,17.452V468Z" transform="translate(-222.98 -401.982)" fill="#231f20" opacity="0.1"/>
        <g id="Grupo_2988" data-name="Grupo 2988" transform="translate(63.456 65.982)">
          <rect id="Rectángulo_897" data-name="Rectángulo 897" width="19.025" height="19.025" fill="#4f6871"/>
          <rect id="Rectángulo_898" data-name="Rectángulo 898" width="2.209" height="19.062" transform="translate(16.816)" fill="#a7a9ac"/>
          <rect id="Rectángulo_899" data-name="Rectángulo 899" width="13.787" height="15.631" transform="translate(1.533 1.733)" fill="#8ac0de"/>
          <path id="Trazado_1429" data-name="Trazado 1429" d="M434.667,475.181l9.928,9.928V483.3l-8.114-8.114Z" transform="translate(-429.274 -473.448)" fill="#fffeff" opacity="0.25"/>
          <path id="Trazado_1430" data-name="Trazado 1430" d="M458.917,480.674l-5.493-5.493h5.493Z" transform="translate(-443.597 -473.448)" fill="#fffeff" opacity="0.25"/>
          <path id="Trazado_1431" data-name="Trazado 1431" d="M430.873,467.847l-2.209,2.3H411.847v-2.3Z" transform="translate(-411.847 -467.847)" fill="#231f20" opacity="0.15"/>
        </g>
        <g id="Grupo_2989" data-name="Grupo 2989" transform="translate(87.365 65.982)">
          <rect id="Rectángulo_900" data-name="Rectángulo 900" width="19.025" height="19.025" fill="#4f6871"/>
          <rect id="Rectángulo_901" data-name="Rectángulo 901" width="2.209" height="19.062" transform="translate(16.816)" fill="#a7a9ac"/>
          <rect id="Rectángulo_902" data-name="Rectángulo 902" width="13.787" height="15.631" transform="translate(1.533 1.733)" fill="#8ac0de"/>
          <path id="Trazado_1432" data-name="Trazado 1432" d="M535.833,475.181l9.928,9.928V483.3l-8.114-8.114Z" transform="translate(-530.44 -473.448)" fill="#fffeff" opacity="0.25"/>
          <path id="Trazado_1433" data-name="Trazado 1433" d="M560.084,480.674l-5.493-5.493h5.493Z" transform="translate(-544.764 -473.448)" fill="#fffeff" opacity="0.25"/>
          <path id="Trazado_1434" data-name="Trazado 1434" d="M532.039,467.847l-2.209,2.3H513.014v-2.3Z" transform="translate(-513.014 -467.847)" fill="#231f20" opacity="0.15"/>
        </g>
        <path id="Trazado_1435" data-name="Trazado 1435" d="M457.606,217.583l-10.752-13.761V188.667h10.752Z" transform="translate(-375.124 -188.667)" fill="#fffeff"/>
        <rect id="Rectángulo_903" data-name="Rectángulo 903" width="10.752" height="28.676" transform="translate(82.481)" fill="#ddd"/>
      </g>
    </g>
    <g id="Grupo_3016" data-name="Grupo 3016" transform="translate(421.23 5806)">
      <g id="Grupo_2993" data-name="Grupo 2993" transform="translate(0 12.455)">
        <rect id="Rectángulo_904" data-name="Rectángulo 904" width="107.473" height="107.89" transform="translate(3.259 8.375)" fill="#fff"/>
        <path id="Trazado_1436" data-name="Trazado 1436" d="M333.8,763.88H226.323A1.323,1.323,0,0,0,225,765.2v6.185H335.124V765.2A1.323,1.323,0,0,0,333.8,763.88Z" transform="translate(-223.066 -655.124)" fill="#4e4d60"/>
        <g id="Grupo_2992" data-name="Grupo 2992" transform="translate(40.812 11.346)">
          <path id="Trazado_1437" data-name="Trazado 1437" d="M435.355,287.949a17.672,17.672,0,0,0,16.184-10.571H419.171A17.672,17.672,0,0,0,435.355,287.949Z" transform="translate(-419.171 -277.378)" opacity="0.25" style="mix-blend-mode: multiply;isolation: isolate"/>
        </g>
        <rect id="Rectángulo_905" data-name="Rectángulo 905" width="107.473" height="2.971" transform="translate(3.259 8.375)" fill="#161615" opacity="0.25" style="mix-blend-mode: multiply;isolation: isolate"/>
        <rect id="Rectángulo_906" data-name="Rectángulo 906" width="113.992" height="9.344" rx="4.672" fill="#46485d"/>
      </g>
      <g id="Grupo_3002" data-name="Grupo 3002" transform="translate(12.713 83.081)">
        <g id="Grupo_2995" data-name="Grupo 2995" transform="translate(27.864 0)">
          <g id="Grupo_2994" data-name="Grupo 2994" transform="translate(0.82 2.065)">
            <rect id="Rectángulo_907" data-name="Rectángulo 907" width="31.197" height="43.595" fill="#4e4d60"/>
            <rect id="Rectángulo_908" data-name="Rectángulo 908" width="29.578" height="43.595" transform="translate(0.809)" fill="#129bdb"/>
            <path id="Trazado_1438" data-name="Trazado 1438" d="M441.39,625.777V583.76h-.925v42.017H426.139v1.578h29.578v-1.578Z" transform="translate(-425.329 -583.76)" fill="#e8e8e8"/>
          </g>
          <rect id="Rectángulo_909" data-name="Rectángulo 909" width="31.197" height="1.873" transform="translate(0.82 2.065)" fill="#161615" opacity="0.25" style="mix-blend-mode: multiply;isolation: isolate"/>
          <rect id="Rectángulo_910" data-name="Rectángulo 910" width="32.837" height="2.536" fill="#4e4d60"/>
          <rect id="Rectángulo_911" data-name="Rectángulo 911" width="32.837" height="2.536" fill="#4e4d60"/>
        </g>
        <g id="Grupo_2998" data-name="Grupo 2998">
          <rect id="Rectángulo_912" data-name="Rectángulo 912" width="20.237" height="2.002" transform="translate(0 23.584)" fill="#161615" opacity="0.25" style="mix-blend-mode: multiply;isolation: isolate"/>
          <g id="Grupo_2997" data-name="Grupo 2997">
            <rect id="Rectángulo_913" data-name="Rectángulo 913" width="20.237" height="2.002" transform="translate(0 22.783)" fill="#4e4d60"/>
            <g id="Grupo_2996" data-name="Grupo 2996" transform="translate(1.051)">
              <rect id="Rectángulo_914" data-name="Rectángulo 914" width="18.135" height="22.782" transform="translate(0 0)" fill="#129bdb"/>
              <path id="Trazado_1439" data-name="Trazado 1439" d="M284.088,573.447v22.782h18.135V573.447Zm1.2,1.2h7.067v9.39h-7.067Zm0,20.379v-9.39h7.067v9.39Zm15.732,0h-7.067v-9.39h7.067Zm-7.067-10.989v-9.39h7.067v9.39Z" transform="translate(-284.088 -573.447)" fill="#e8e8e8"/>
            </g>
          </g>
        </g>
        <g id="Grupo_3001" data-name="Grupo 3001" transform="translate(68.327)">
          <rect id="Rectángulo_915" data-name="Rectángulo 915" width="20.237" height="2.002" transform="translate(0 23.584)" fill="#161615" opacity="0.25" style="mix-blend-mode: multiply;isolation: isolate"/>
          <g id="Grupo_3000" data-name="Grupo 3000">
            <rect id="Rectángulo_916" data-name="Rectángulo 916" width="20.237" height="2.002" transform="translate(0 22.783)" fill="#4e4d60"/>
            <g id="Grupo_2999" data-name="Grupo 2999" transform="translate(1.051)">
              <rect id="Rectángulo_917" data-name="Rectángulo 917" width="18.135" height="22.782" transform="translate(0 0)" fill="#129bdb"/>
              <path id="Trazado_1440" data-name="Trazado 1440" d="M625.339,573.447v22.782h18.135V573.447Zm1.2,1.2h7.067v9.39H626.54Zm0,20.379v-9.39h7.067v9.39Zm15.732,0h-7.067v-9.39h7.067Zm-7.067-10.989v-9.39h7.067v9.39Z" transform="translate(-625.339 -573.447)" fill="#e8e8e8"/>
            </g>
          </g>
        </g>
      </g>
      <g id="Grupo_3012" data-name="Grupo 3012" transform="translate(12.713 37.694)">
        <g id="Grupo_3005" data-name="Grupo 3005">
          <rect id="Rectángulo_918" data-name="Rectángulo 918" width="20.237" height="2.002" transform="translate(0 23.584)" fill="#161615" opacity="0.25" style="mix-blend-mode: multiply;isolation: isolate"/>
          <g id="Grupo_3004" data-name="Grupo 3004">
            <rect id="Rectángulo_919" data-name="Rectángulo 919" width="20.237" height="2.002" transform="translate(0 22.783)" fill="#4e4d60"/>
            <g id="Grupo_3003" data-name="Grupo 3003" transform="translate(1.051)">
              <rect id="Rectángulo_920" data-name="Rectángulo 920" width="18.135" height="22.782" transform="translate(0 0)" fill="#129bdb"/>
              <path id="Trazado_1441" data-name="Trazado 1441" d="M284.088,346.766v22.782h18.135V346.766Zm1.2,1.2h7.067v9.39h-7.067Zm0,20.379v-9.39h7.067v9.39Zm15.732,0h-7.067v-9.39h7.067Zm-7.067-10.989v-9.39h7.067v9.39Z" transform="translate(-284.088 -346.766)" fill="#e8e8e8"/>
            </g>
          </g>
        </g>
        <g id="Grupo_3009" data-name="Grupo 3009" transform="translate(34.164)">
          <rect id="Rectángulo_921" data-name="Rectángulo 921" width="20.237" height="2.002" transform="translate(0 23.584)" fill="#161615" opacity="0.25" style="mix-blend-mode: multiply;isolation: isolate"/>
          <g id="Grupo_3008" data-name="Grupo 3008">
            <g id="Grupo_3007" data-name="Grupo 3007">
              <rect id="Rectángulo_922" data-name="Rectángulo 922" width="20.237" height="2.002" transform="translate(0 22.783)" fill="#4e4d60"/>
              <g id="Grupo_3006" data-name="Grupo 3006" transform="translate(1.051)">
                <rect id="Rectángulo_923" data-name="Rectángulo 923" width="18.135" height="22.782" transform="translate(0 0)" fill="#129bdb"/>
                <path id="Trazado_1442" data-name="Trazado 1442" d="M454.714,346.766v22.782h18.135V346.766Zm1.2,1.2h7.067v9.39h-7.067Zm0,20.379v-9.39h7.067v9.39Zm15.732,0h-7.067v-9.39h7.067Zm-7.067-10.989v-9.39h7.067v9.39Z" transform="translate(-454.714 -346.766)" fill="#e8e8e8"/>
              </g>
            </g>
          </g>
        </g>
        <g id="Grupo_3011" data-name="Grupo 3011" transform="translate(68.327)">
          <rect id="Rectángulo_924" data-name="Rectángulo 924" width="20.237" height="2.002" transform="translate(0 23.584)" fill="#161615" opacity="0.25" style="mix-blend-mode: multiply;isolation: isolate"/>
          <rect id="Rectángulo_925" data-name="Rectángulo 925" width="20.237" height="2.002" transform="translate(0 22.783)" fill="#4e4d60"/>
          <g id="Grupo_3010" data-name="Grupo 3010" transform="translate(1.051)">
            <rect id="Rectángulo_926" data-name="Rectángulo 926" width="18.135" height="22.782" transform="translate(0 0)" fill="#129bdb"/>
            <path id="Trazado_1443" data-name="Trazado 1443" d="M625.339,346.766v22.782h18.135V346.766Zm1.2,1.2h7.067v9.39H626.54Zm0,20.379v-9.39h7.067v9.39Zm15.732,0h-7.067v-9.39h7.067Zm-7.067-10.989v-9.39h7.067v9.39Z" transform="translate(-625.339 -346.766)" fill="#e8e8e8"/>
          </g>
        </g>
      </g>
      <g id="Grupo_3013" data-name="Grupo 3013" transform="translate(40.528 0)">
        <ellipse id="Elipse_586" data-name="Elipse 586" cx="16.468" cy="16.468" rx="16.468" ry="16.468" fill="#e13851"/>
        <path id="Trazado_1444" data-name="Trazado 1444" d="M470.38,198.21h-6.857v-6.857h-6.07v6.857H450.6v6.07h6.857v6.857h6.07V204.28h6.857Z" transform="translate(-444.021 -184.777)" fill="#fff"/>
      </g>
    </g>
    <g id="Grupo_3143" data-name="Grupo 3143" transform="translate(-286 3451)">
      <g id="Elipse_568" data-name="Elipse 568" transform="translate(432 2327)" fill="#59bfd6" stroke="#227d84" stroke-width="3">
        <circle cx="20" cy="20" r="20" stroke="none"/>
        <circle cx="20" cy="20" r="18.5" fill="none"/>
      </g>
      <path id="Trazado_3097" data-name="Trazado 3097" d="M6.8-15.4V0H3.234V-12.54H.154V-15.4Z" transform="translate(448 2354)" fill="#fff"/>
    </g>
  </g>
</svg>
