<svg xmlns="http://www.w3.org/2000/svg" width="87" height="87" viewBox="0 0 87 87">
  <g id="Grupo_2983" data-name="Grupo 2983" transform="translate(-204 -3484)">
    <circle id="Elipse_577" data-name="Elipse 577" cx="43.5" cy="43.5" r="43.5" transform="translate(204 3484)" fill="#ffe3e2"/>
    <g id="Grupo_2976" data-name="Grupo 2976" transform="translate(-175 3143)">
      <rect id="Rectángulo_890" data-name="Rectángulo 890" width="30" height="46" transform="translate(413 362)" fill="none" stroke="#dd726a" stroke-miterlimit="10" stroke-width="2"/>
      <path id="Trazado_1402" data-name="Trazado 1402" d="M404,407h0a21.051,21.051,0,0,1-3-10.831V366h6v30.169A21.051,21.051,0,0,1,404,407Z" fill="none" stroke="#dd726a" stroke-miterlimit="10" stroke-width="2"/>
      <rect id="Rectángulo_891" data-name="Rectángulo 891" width="4" height="4" transform="translate(402 362)" fill="none" stroke="#dd726a" stroke-miterlimit="10" stroke-width="2"/>
      <path id="Trazado_1403" data-name="Trazado 1403" d="M407,370h-6.463A3.538,3.538,0,0,0,397,373.538V385" fill="none" stroke="#dd726a" stroke-miterlimit="10" stroke-width="2"/>
      <line id="Línea_18" data-name="Línea 18" y2="2" transform="translate(404 407)" fill="none" stroke="#dd726a" stroke-miterlimit="10" stroke-width="2"/>
      <line id="Línea_19" data-name="Línea 19" x2="6" transform="translate(401 395)" fill="none" stroke="#dd726a" stroke-miterlimit="10" stroke-width="2"/>
      <line id="Línea_20" data-name="Línea 20" y2="6" transform="translate(420 366)" fill="none" stroke="#dd726a" stroke-miterlimit="10" stroke-width="2"/>
      <line id="Línea_21" data-name="Línea 21" x1="6" transform="translate(417 369)" fill="none" stroke="#dd726a" stroke-miterlimit="10" stroke-width="2"/>
      <rect id="Rectángulo_892" data-name="Rectángulo 892" width="22" height="16" transform="translate(417 381)" fill="none" stroke="#dd726a" stroke-miterlimit="10" stroke-width="2"/>
      <line id="Línea_22" data-name="Línea 22" x2="8" transform="translate(432 371)" fill="none" stroke="#dd726a" stroke-miterlimit="10" stroke-width="2"/>
      <line id="Línea_23" data-name="Línea 23" x2="4" transform="translate(436 367)" fill="none" stroke="#dd726a" stroke-miterlimit="10" stroke-width="2"/>
      <line id="Línea_24" data-name="Línea 24" y2="12" transform="translate(424 385)" fill="none" stroke="#dd726a" stroke-miterlimit="10" stroke-width="2"/>
      <line id="Línea_25" data-name="Línea 25" y2="12" transform="translate(432 385)" fill="none" stroke="#dd726a" stroke-miterlimit="10" stroke-width="2"/>
      <line id="Línea_26" data-name="Línea 26" x2="22" transform="translate(417 385)" fill="none" stroke="#dd726a" stroke-miterlimit="10" stroke-width="2"/>
      <line id="Línea_27" data-name="Línea 27" x2="8" transform="translate(424 403)" fill="none" stroke="#dd726a" stroke-miterlimit="10" stroke-width="2"/>
    </g>
  </g>
</svg>
