<svg xmlns="http://www.w3.org/2000/svg" xmlns:xlink="http://www.w3.org/1999/xlink" width="435" height="198" viewBox="0 0 435 198">
  <defs>
    <clipPath id="clip-path">
      <rect id="background" width="129.051" height="138" fill="none"/>
    </clipPath>
    <linearGradient id="linear-gradient" x1="0.339" y1="0.214" x2="0.514" y2="0.524" gradientUnits="objectBoundingBox">
      <stop offset="0" stop-color="#f47b54"/>
      <stop offset="0.165" stop-color="#f68a63"/>
      <stop offset="0.445" stop-color="#f99e77"/>
      <stop offset="0.724" stop-color="#fbaa83"/>
      <stop offset="1" stop-color="#fcae88"/>
    </linearGradient>
    <linearGradient id="linear-gradient-2" x1="0.646" y1="1.043" x2="0.505" y2="0.251" gradientUnits="objectBoundingBox">
      <stop offset="0" stop-color="#36200b"/>
      <stop offset="0.052" stop-color="#37210b"/>
      <stop offset="0.529" stop-color="#43280d"/>
      <stop offset="1" stop-color="#482b0e"/>
    </linearGradient>
    <linearGradient id="linear-gradient-3" x1="0.488" y1="0.857" x2="0.541" y2="0.212" gradientUnits="objectBoundingBox">
      <stop offset="0" stop-color="#f47b54"/>
      <stop offset="0.055" stop-color="#f68760"/>
      <stop offset="0.132" stop-color="#f79069"/>
      <stop offset="0.244" stop-color="#f8936c"/>
      <stop offset="1" stop-color="#fcae88"/>
    </linearGradient>
  </defs>
  <g id="Grupo_3269" data-name="Grupo 3269" transform="translate(-117 -7433)">
    <rect id="Rect치ngulo_965" data-name="Rect치ngulo 965" width="435" height="198" transform="translate(117 7433)" fill="#efefef"/>
    <g id="Grupo_3223" data-name="Grupo 3223" transform="translate(-286 5129)">
      <g id="Elipse_568" data-name="Elipse 568" transform="translate(432 2327)" fill="#59bfd6" stroke="#227d84" stroke-width="3">
        <circle cx="20" cy="20" r="20" stroke="none"/>
        <circle cx="20" cy="20" r="18.5" fill="none"/>
      </g>
      <path id="Trazado_3105" data-name="Trazado 3105" d="M6.138-9.614a7.4,7.4,0,0,1,4.807,1.3A4.3,4.3,0,0,1,12.5-4.84a4.829,4.829,0,0,1-.7,2.563A4.917,4.917,0,0,1,9.647-.429,8.162,8.162,0,0,1,6.094.264a12.112,12.112,0,0,1-3.2-.429A8.245,8.245,0,0,1,.22-1.386L1.628-4.114A6.739,6.739,0,0,0,3.652-3.091a7.737,7.737,0,0,0,2.354.363,3.688,3.688,0,0,0,2.112-.528,1.688,1.688,0,0,0,.77-1.474,1.656,1.656,0,0,0-.8-1.5A5.541,5.541,0,0,0,5.3-6.732H1.364L2.156-15.4H11.55v2.86H5.126L4.884-9.614Z" transform="translate(446 2354)" fill="#fff"/>
    </g>
    <g id="Grupo_3227" data-name="Grupo 3227" transform="translate(-647.216 7209.418)">
      <g id="Grupo_3219" data-name="Grupo 3219" transform="translate(1063.507 300.82)">
        <path id="Trazado_3040" data-name="Trazado 3040" d="M2313.214,973.055c13.041-.121,34.812-11.764,34.812-11.764s-4.9-7.863-5.4-27.659a57.268,57.268,0,0,1,.777-11.663l-2.791-1.934c-2.963-2.5-4.118-15.1-4.118-15.1s-5.259,3.024-8.737,1.6c-3.22-1.318-5.511-5.933-5.511-5.933s-.883,2.69.4,4.6a18.141,18.141,0,0,0,3.918,3.948l-8.752.445A26.634,26.634,0,0,1,2300.9,902.6l-4.511-5.464s.991,6.215-2.684,10c-6.276,6.465-7.01,5.965-7.01,12.4l-4.641,4.842c.049,1.99.08,4.135.08,6.47,0,24.205-3.732,30.438-3.732,30.438S2298.334,973.193,2313.214,973.055Z" transform="translate(-2260.831 -878.255)" fill="#6a4c4c"/>
        <path id="Trazado_3041" data-name="Trazado 3041" d="M2504.384,1286.475v11.739l-11.516,29.6-11.516-29.6v-11.739Z" transform="translate(-2440.971 -1223.833)" fill="#fba57c"/>
        <path id="Trazado_3042" data-name="Trazado 3042" d="M2405.795,905.279h0c12.45,0,22.542-13.555,22.542-24.589V846.119h-45.083v34.572C2383.253,891.724,2393.345,905.279,2405.795,905.279Z" transform="translate(-2353.897 -832.972)" fill="#fdb883"/>
        <path id="Trazado_3043" data-name="Trazado 3043" d="M2351.662,758.019c3.479,1.423,8.738-1.6,8.738-1.6s1.155,12.6,4.118,15.1l2.791,1.934c.7-4.2,1.466-7.023.495-12.816-1.778-10.608-9.657-27.364-25.751-30.838-11.684-2.522-25.754,2.375-31.791,12.081-6.737,10.83-4.749,15.572-4.3,33.987l4.641-4.842c0-6.439.734-5.939,7.01-12.4,3.675-3.786,2.684-10,2.684-10l4.511,5.464a26.634,26.634,0,0,0,16.907,6.989l8.752-.445a18.131,18.131,0,0,1-3.917-3.948c-1.284-1.905-.4-4.6-.4-4.6S2348.442,756.7,2351.662,758.019Z" transform="translate(-2284.742 -729.145)" fill="#6a4c4c"/>
        <g id="Grupo_3217" data-name="Grupo 3217" transform="translate(51.898 74.643)">
          <path id="Trazado_3044" data-name="Trazado 3044" d="M2678.226,1472.959l-15.634,19.638h43.043l-3.088-17.871a17.674,17.674,0,0,0-10.055-13.059l-11.9-5.453-7.5,11.619Z" transform="translate(-2653.737 -1449.136)" fill="#093d62"/>
          <path id="Trazado_3045" data-name="Trazado 3045" d="M2608.3,1417.073l-5.136-5.127,7.5-11.619-15.448-7.077-11.4,29.309v14.151h8.855Z" transform="translate(-2583.81 -1393.251)" fill="#fff"/>
        </g>
        <g id="Grupo_3218" data-name="Grupo 3218" transform="translate(0 74.643)">
          <path id="Trazado_3046" data-name="Trazado 3046" d="M2149.481,1472.959l15.633,19.638h-43.042l3.088-17.871a17.675,17.675,0,0,1,10.056-13.059l11.9-5.453,7.5,11.619Z" transform="translate(-2122.072 -1449.136)" fill="#093d62"/>
          <path id="Trazado_3047" data-name="Trazado 3047" d="M2347.291,1417.073l5.136-5.127-7.5-11.619,15.448-7.077,11.4,29.309v14.151h-8.855Z" transform="translate(-2319.881 -1393.251)" fill="#fff"/>
        </g>
      </g>
      <g id="Grupo_3220" data-name="Grupo 3220" transform="translate(1082.32 299.232)">
        <path id="Trazado_3048" data-name="Trazado 3048" d="M2784.6,1018.281a10.706,10.706,0,0,1-1.4-.082,2.6,2.6,0,0,1-1.188-.355c-.043-.035-.175-.143-.166-.668.109-7,.254-14.275.42-21.038.013-.531.154-.639.2-.674a2.555,2.555,0,0,1,1.2-.316,9.611,9.611,0,0,1,.962-.042,10.657,10.657,0,0,1,1.395.08,2.586,2.586,0,0,1,1.186.355c.043.036.175.143.167.668-.127,8.046-.265,14.928-.422,21.04-.014.532-.151.637-.2.671a2.745,2.745,0,0,1-1.2.316A9.172,9.172,0,0,1,2784.6,1018.281Z" transform="translate(-2726.499 -963.626)" fill="#2d3436"/>
        <path id="Trazado_3049" data-name="Trazado 3049" d="M2322.909,1179.7c-1.864-.932-4.143-1.911-6.04-2.79a2.873,2.873,0,0,0-2.4.01,1.589,1.589,0,0,0-1.108.034,30.808,30.808,0,0,1-2.689-1.966,19.286,19.286,0,0,1-4.721-5.633,13.466,13.466,0,0,1-1.559-5.393,12.267,12.267,0,0,1,.16-2.8l-1.026-.471a13.127,13.127,0,0,0-.235,3.327,14.411,14.411,0,0,0,1.664,5.775,20.243,20.243,0,0,0,4.975,5.942,32.42,32.42,0,0,0,2.765,2.024,1.23,1.23,0,0,0,.444,1.151,2.4,2.4,0,0,0,1.459,2.164c1.836.937,4.212,1.84,6.018,2.806a2.677,2.677,0,0,0,2.482-.123A2.263,2.263,0,0,0,2322.909,1179.7Z" transform="translate(-2301.708 -1110.602)" fill="#2d3436"/>
        <path id="Trazado_3050" data-name="Trazado 3050" d="M2339.371,1018.281a9.167,9.167,0,0,1-.95-.042,2.745,2.745,0,0,1-1.2-.316c-.045-.034-.183-.139-.2-.671-.157-6.112-.295-12.994-.422-21.04-.009-.526.123-.633.166-.668a2.591,2.591,0,0,1,1.187-.355,10.642,10.642,0,0,1,1.394-.08,9.615,9.615,0,0,1,.962.042,2.554,2.554,0,0,1,1.2.316c.046.035.188.143.2.674.165,6.762.311,14.036.42,21.038.008.525-.123.632-.167.668a2.6,2.6,0,0,1-1.187.355A10.7,10.7,0,0,1,2339.371,1018.281Z" transform="translate(-2331.301 -963.626)" fill="#2d3436"/>
        <path id="Trazado_3051" data-name="Trazado 3051" d="M2355.247,749.886c-.1-.053-.268-.069-.374-.121a28.706,28.706,0,0,0-.395-5.162,28.205,28.205,0,0,0-1.761-6.005l-.5-1.293q-.421-1.193-.956-2.355a29.824,29.824,0,0,0-6.871-9.345c-.87-.807-1.816-1.538-2.766-2.263a2.755,2.755,0,0,0-.027-1.587,3.618,3.618,0,0,0-1.59-1.9,36.467,36.467,0,0,0-6.8-3.032,37.678,37.678,0,0,0-7.545-1.593q-1.556-.185-3.126-.221c-1.046.025-2.09.1-3.126.221a37.683,37.683,0,0,0-7.545,1.593,36.47,36.47,0,0,0-6.8,3.032,3.618,3.618,0,0,0-1.59,1.9,2.762,2.762,0,0,0-.027,1.587c-.949.725-1.9,1.456-2.766,2.263a29.816,29.816,0,0,0-6.871,9.345q-.536,1.161-.956,2.355l-.5,1.293a28.192,28.192,0,0,0-1.762,6.005,28.661,28.661,0,0,0-.394,5.162c-.105.052-.277.068-.374.121-.232.125-.383.2-.377.495.093,4.78.181,9.619.291,14.4.007.292.119.392.4.473,1.124.32,2.477.719,3.588.971.439.1.725-.039.718-.49-.083-5.444-.211-11.02-.321-16.475-.01-.451-.356-.511-.731-.477-.167.016-.438.155-.622.185a26.518,26.518,0,0,1,.363-4,26.06,26.06,0,0,1,1.661-5.613c.033-.079.067-.158.1-.237.109-.253.209-.509.3-.769.022-.065.044-.13.067-.2q.4-1.157.92-2.283a27.425,27.425,0,0,1,6.319-8.6c.769-.713,1.6-1.364,2.443-2.005a4.124,4.124,0,0,0,.941.391,3.209,3.209,0,0,0,1.387.059,3.074,3.074,0,0,0,1.289-.379,35.332,35.332,0,0,1,4.18-2.047,34.759,34.759,0,0,1,6.949-1.738q1.419-.146,2.839-.179,1.42.033,2.839.179a34.766,34.766,0,0,1,6.95,1.738,35.369,35.369,0,0,1,4.18,2.047,3.073,3.073,0,0,0,1.288.379,3.211,3.211,0,0,0,1.387-.059,4.111,4.111,0,0,0,.941-.391c.84.641,1.674,1.292,2.443,2.005a27.413,27.413,0,0,1,6.319,8.6q.52,1.125.921,2.283.034.1.066.2.133.39.3.769c.034.079.068.158.1.237a26.074,26.074,0,0,1,1.661,5.613,26.55,26.55,0,0,1,.363,4c-.184-.029-.456-.169-.623-.185-.375-.035-.721.025-.731.477-.11,5.455-.237,11.031-.32,16.475-.007.451.279.589.718.49,1.111-.252,2.465-.651,3.588-.971.286-.081.4-.181.4-.473.11-4.781.2-9.62.291-14.4C2355.63,750.089,2355.48,750.011,2355.247,749.886Z" transform="translate(-2289.457 -715.011)" fill="#2d3436"/>
      </g>
      <path id="Trazado_3052" data-name="Trazado 3052" d="M1007.489,262.034c-.038-4.072-.373-8.512-3.126-11.513-3.036-3.31-8.008-3.8-12.5-3.894-17.4-.352-36.9,1.288-53.091,8.094-9.965,4.19-10.095,11.122-8.649,21.081.7,4.806,1.432,9.724,3.735,14,2.329,4.325,5.424,5.225,9.158,7.676,2.4,1.577,1.953.425,2.383,3.929.273,2.22.285,4.489.5,6.718.061.616.864,1.223,1.242.927q5.062-3.962,11.433-9.38c1.107-.94,12.031.908,13.983,1.122,4.99.546,9.632,2.236,14.744,2.092a24.381,24.381,0,0,0,4.489-.54,17.447,17.447,0,0,0,9.48-5.22c3.544-4,4.553-9.6,5.159-14.909A164.287,164.287,0,0,0,1007.489,262.034Zm-55.045,15.837a4.3,4.3,0,1,1,4.3-4.3A4.3,4.3,0,0,1,952.445,277.871Zm15.233,1.8a5.2,5.2,0,1,1,5.2-5.2A5.2,5.2,0,0,1,967.677,279.675Zm17.226,2.183a6.29,6.29,0,1,1,6.29-6.29A6.29,6.29,0,0,1,984.9,281.858Z" transform="translate(0)" fill="#f76464"/>
      <path id="Trazado_3053" data-name="Trazado 3053" d="M1759.879,626.657c.463,4.057,1.234,8.333,3.941,11.389a13.329,13.329,0,0,0,7.242,3.988,18.617,18.617,0,0,0,3.429.412c3.905.11,7.452-1.181,11.264-1.6,1.491-.163,9.836-1.575,10.682-.857q4.867,4.133,8.734,7.166c.289.226.9-.238.949-.708.167-1.7.177-3.436.385-5.132.328-2.677-.017-1.8,1.82-3,2.853-1.872,5.217-2.56,7-5.864,1.759-3.266,2.32-7.023,2.853-10.695,1.1-7.608,1.005-12.9-6.607-16.1-12.365-5.2-27.264-6.452-40.558-6.183-3.43.069-7.229.446-9.548,2.975-2.1,2.292-2.358,5.685-2.388,8.8A125.554,125.554,0,0,0,1759.879,626.657Zm37.964-6.6a3.282,3.282,0,1,1,3.282,3.282A3.282,3.282,0,0,1,1797.844,620.055Zm-12.326.689a3.971,3.971,0,1,1,3.972,3.971A3.972,3.972,0,0,1,1785.517,620.745Zm-13.994.834a4.805,4.805,0,1,1,4.805,4.805A4.805,4.805,0,0,1,1771.524,621.579Z" transform="translate(-736.363 -313.193)" fill="#60bfed"/>
    </g>
    <g id="doctor" transform="translate(190 7493)">
      <g id="Grupo_3086" data-name="Grupo 3086" clip-path="url(#clip-path)">
        <g id="Grupo_3085" data-name="Grupo 3085" transform="translate(0 5.056)">
          <path id="Trazado_1484" data-name="Trazado 1484" d="M337.239,1686.965l22.609,32.2,2.063,59.065-13.128,83.694H279.266l-10.146-94.154,3.647-43.267,18.769-37.539Z" transform="translate(-250.551 -1575.62)" fill="#abe2fc"/>
          <g id="Grupo_3059" data-name="Grupo 3059" transform="translate(27.872)">
            <g id="Grupo_3041" data-name="Grupo 3041" transform="translate(23.604 90.32)">
              <rect id="Rect치ngulo_936" data-name="Rect치ngulo 936" width="24.405" height="30.928" transform="translate(0)" fill="#fcae88"/>
              <path id="Trazado_1485" data-name="Trazado 1485" d="M746.026,1382.266v12.408a20.733,20.733,0,0,0,24.405,0v-12.408Z" transform="translate(-746.026 -1382.266)" fill="#b06d4d" opacity="0.32"/>
            </g>
            <g id="Grupo_3058" data-name="Grupo 3058">
              <path id="Trazado_1486" data-name="Trazado 1486" d="M1161.815,324.229s14.083,3.96,16.054,7.221c4.231,7-5.1,32.314-5.1,32.314Z" transform="translate(-1109.521 -306.913)" fill="#36200b"/>
              <path id="Trazado_1487" data-name="Trazado 1487" d="M453.561,298.074s-7.854-21.963-5.028-28.666c2.334-5.549,19.877-13.583,19.877-13.583l9.27,12.254Z" transform="translate(-444.885 -243.229)" fill="#36200b"/>
              <g id="Grupo_3044" data-name="Grupo 3044" transform="translate(0 48.383)">
                <g id="Grupo_3042" data-name="Grupo 3042" transform="translate(59.214)">
                  <path id="Trazado_1488" data-name="Trazado 1488" d="M1272.182,788.553a5.205,5.205,0,0,1-6.716,3h0a5.2,5.2,0,0,1-3-6.718l2.686-7.017a5.2,5.2,0,0,1,6.715-3h0a5.2,5.2,0,0,1,3,6.717Z" transform="translate(-1262.119 -774.474)" fill="#fcae88"/>
                  <path id="Trazado_1489" data-name="Trazado 1489" d="M1331.858,855.565s10.98-4.622,1.734,7.512C1333.593,860.767,1339.372,856.143,1331.858,855.565Z" transform="translate(-1327.046 -849.165)" fill="#f09261"/>
                </g>
                <g id="Grupo_3043" data-name="Grupo 3043">
                  <path id="Trazado_1490" data-name="Trazado 1490" d="M406.963,788.553a5.206,5.206,0,0,0,6.717,3h0a5.2,5.2,0,0,0,3-6.718L414,777.82a5.2,5.2,0,0,0-6.713-3h0a5.2,5.2,0,0,0-3,6.717Z" transform="translate(-403.937 -774.474)" fill="#fcae88"/>
                  <path id="Trazado_1491" data-name="Trazado 1491" d="M450.527,855.565s-10.98-4.622-1.734,7.512C448.792,860.767,443.014,856.143,450.527,855.565Z" transform="translate(-442.25 -849.165)" fill="#f09261"/>
                </g>
              </g>
              <path id="Trazado_1492" data-name="Trazado 1492" d="M584.234,300.119a69.463,69.463,0,0,1-1.734,15.548h-.009c-.261,1.17-.565,2.308-.891,3.423-.277.944-.573,1.867-.889,2.763-4.677,13.446-13.562,22.526-23.765,22.526-10.026,0-18.8-8.779-23.533-21.859-.4-1.114-.775-2.252-1.115-3.429-.334-1.108-.626-2.245-.895-3.407v-.016a68.852,68.852,0,0,1-1.744-15.548q0-3,.246-5.892c.01-.117.01-.178.01-.178,1.826-21.566,13.236-38.179,27.031-38.179,13.84,0,25.284,16.72,27.045,38.394C584.145,296.178,584.234,298.136,584.234,300.119Z" transform="translate(-520.984 -243.271)" fill="url(#linear-gradient)"/>
              <path id="Trazado_1493" data-name="Trazado 1493" d="M720.606,300.117a69.715,69.715,0,0,1-1.733,15.55h-.009q-.4,1.755-.892,3.424c-.251.855-.52,1.694-.8,2.509-.031.085-.059.169-.089.254-4.675,13.446-13.56,22.525-23.765,22.525-6.087,0-11.716-3.239-16.257-8.715,47.378-11.6,37.83-62.143,34.009-61.908-20.918,1.282-31.438-2.151-34.932-8.011,4.69-6.177,10.67-9.875,17.18-9.875,13.215,0,24.238,15.238,26.746,35.478.121.962.22,1.931.3,2.916C720.519,296.177,720.606,298.136,720.606,300.117Z" transform="translate(-657.356 -243.271)" fill="#f28a83" opacity="0.3"/>
              <path id="Trazado_1494" data-name="Trazado 1494" d="M571.862,770.05s-.391,32-4.979,28.551c-10.415-7.83-35.154-9.288-44,.232-4.138,4.457-4.583-28.271-4.583-28.271-2.766,5.33-.431,23.614-.431,23.614h0c1,9.762,5.649,29.221,26.762,29.545h.04c20.509-.314,25.479-18.685,26.665-28.683h0S574.359,774.828,571.862,770.05Z" transform="translate(-509.155 -721.972)" fill="url(#linear-gradient-2)"/>
              <g id="Grupo_3045" data-name="Grupo 3045" transform="translate(16.568 34.917)">
                <path id="Trazado_1495" data-name="Trazado 1495" d="M971.128,590.479v2.061H969.97v-2.271l-3.62-.659s-1.039,4.826,0,5.861c2.851,2.849,16.116,0,16.116,0V592.54Z" transform="translate(-943.683 -588.9)" fill="#482b0e"/>
                <path id="Trazado_1496" data-name="Trazado 1496" d="M655.4,580.184v2.062h1.159v-2.275l3.62-.656s1.039,4.826,0,5.861c-2.848,2.851-16.116,0-16.116,0v-2.93Z" transform="translate(-644.058 -579.316)" fill="#482b0e"/>
              </g>
              <path id="Trazado_1497" data-name="Trazado 1497" d="M1199.47,816.49c-.085-.177-.17-.35-.258-.516l0,0Q1199.342,816.22,1199.47,816.49Z" transform="translate(-1144.338 -764.724)" fill="#fcae88"/>
              <g id="Grupo_3051" data-name="Grupo 3051" transform="translate(39.215 46.235)">
                <g id="Grupo_3046" data-name="Grupo 3046" transform="translate(2.683)">
                  <path id="Trazado_1498" data-name="Trazado 1498" d="M1024.261,748.615l-.13-.251-.036.268-.621,4.3a11.8,11.8,0,0,1-12.319.174l.287-3.213v0c.288-.526.621-1.091.994-1.667v0c.111-.174.229-.35.348-.527.131-.2.274-.391.413-.584.057-.075.111-.147.164-.22l.167-.217c.279-.361.574-.71.883-1.037.12-.129.246-.258.371-.382s.255-.242.386-.36l.2-.166c.066-.056.131-.112.2-.165s.137-.107.206-.157c.134-.1.268-.191.406-.277a5.694,5.694,0,0,1,.631-.349,2.13,2.13,0,0,1,.2-.088,3.843,3.843,0,0,1,.449-.167c.073-.022.148-.042.22-.061l.128-.03a1.1,1.1,0,0,1,.12-.022,3.539,3.539,0,0,1,1.276,0,3.775,3.775,0,0,1,.417.1,5.172,5.172,0,0,1,2.152,1.393,8.349,8.349,0,0,1,.653.734,15.856,15.856,0,0,1,1.61,2.527c.032.066.068.131.1.2C1024.176,748.446,1024.218,748.53,1024.261,748.615Z" transform="translate(-1011.155 -743.349)" fill="#fff"/>
                  <path id="Trazado_1499" data-name="Trazado 1499" d="M1041.385,748.364l-.036.268c-5.435-9.221-11.661-.4-11.661-.4a.021.021,0,0,1,0-.01v0c.111-.174.229-.35.348-.527.131-.2.274-.391.413-.584.057-.075.111-.147.164-.22l.167-.217c.279-.361.574-.71.884-1.037.12-.129.246-.258.371-.382s.255-.242.386-.36l.2-.166c.066-.056.131-.112.2-.165s.137-.107.206-.157c.134-.1.268-.191.406-.277a5.691,5.691,0,0,1,.631-.349,2.134,2.134,0,0,1,.2-.088,3.841,3.841,0,0,1,.449-.167c.073-.022.148-.042.22-.061l.128-.03a1.092,1.092,0,0,1,.12-.022,3.538,3.538,0,0,1,1.276,0,3.775,3.775,0,0,1,.417.1,5.171,5.171,0,0,1,2.152,1.393,8.33,8.33,0,0,1,.653.734,15.847,15.847,0,0,1,1.61,2.527C1041.318,748.227,1041.353,748.295,1041.385,748.364Z" transform="translate(-1028.409 -743.349)" fill="#482b0e"/>
                </g>
                <g id="Grupo_3049" data-name="Grupo 3049" transform="translate(5.007 2.16)">
                  <g id="Grupo_3047" data-name="Grupo 3047">
                    <path id="Trazado_1500" data-name="Trazado 1500" d="M1052.376,779.062a3.8,3.8,0,1,1-3.134-4.365A3.8,3.8,0,0,1,1052.376,779.062Z" transform="translate(-1044.825 -774.647)" fill="#603913"/>
                    <path id="Trazado_1501" data-name="Trazado 1501" d="M1058.2,793.107a3.8,3.8,0,0,1-6.14,4.4,3.8,3.8,0,1,0,6.14-4.4Z" transform="translate(-1051.562 -791.833)" fill="#482b0e"/>
                  </g>
                  <g id="Grupo_3048" data-name="Grupo 3048" transform="translate(1.653 1.97)">
                    <path id="Trazado_1502" data-name="Trazado 1502" d="M1072.33,805.273a1.782,1.782,0,1,1-1.47-2.047A1.78,1.78,0,0,1,1072.33,805.273Z" transform="translate(-1068.789 -803.203)" fill="#231f20"/>
                    <path id="Trazado_1503" data-name="Trazado 1503" d="M1085.227,803.914a.459.459,0,1,1-.379-.527A.46.46,0,0,1,1085.227,803.914Z" transform="translate(-1083.242 -803.368)" fill="#fff"/>
                  </g>
                </g>
                <g id="Grupo_3050" data-name="Grupo 3050" transform="translate(0 8.094)">
                  <path id="Trazado_1504" data-name="Trazado 1504" d="M972.267,861.2l17.745-.539S985.093,868.622,972.267,861.2Z" transform="translate(-972.267 -860.657)" fill="#fba983"/>
                  <path id="Trazado_1505" data-name="Trazado 1505" d="M1023.559,861.823c-2.971,1.756-12.4.435-12.4.435s.232-.03.638-.078Z" transform="translate(-1008.472 -861.743)" fill="#f28a83" opacity="0.3"/>
                </g>
              </g>
              <g id="Grupo_3057" data-name="Grupo 3057" transform="translate(15.686 46.235)">
                <g id="Grupo_3052" data-name="Grupo 3052" transform="translate(1.955)">
                  <path id="Trazado_1506" data-name="Trazado 1506" d="M659.6,748.615c.045-.084.089-.169.13-.251l.036.268.621,4.3a11.8,11.8,0,0,0,12.319.174l-.288-3.213v0c-.286-.526-.619-1.091-.992-1.667v0c-.113-.174-.231-.35-.348-.527-.133-.2-.274-.391-.414-.584-.056-.075-.111-.147-.164-.22s-.111-.145-.166-.217c-.282-.361-.576-.71-.882-1.037-.122-.129-.248-.258-.373-.382s-.254-.242-.386-.36l-.2-.166c-.064-.056-.13-.112-.2-.165s-.137-.107-.206-.157c-.134-.1-.268-.191-.4-.277a5.691,5.691,0,0,0-.631-.349c-.066-.032-.131-.063-.2-.088a3.881,3.881,0,0,0-.452-.167c-.072-.022-.146-.042-.219-.061l-.128-.03a1.083,1.083,0,0,0-.12-.022,3.538,3.538,0,0,0-1.276,0,3.867,3.867,0,0,0-.417.1,5.154,5.154,0,0,0-2.15,1.393,8.388,8.388,0,0,0-.654.734,15.706,15.706,0,0,0-1.607,2.527l-.106.2C659.689,748.446,659.648,748.53,659.6,748.615Z" transform="translate(-659.604 -743.349)" fill="#fff"/>
                  <path id="Trazado_1507" data-name="Trazado 1507" d="M661.489,748.364l.036.268c5.437-9.221,11.662-.4,11.662-.4a.021.021,0,0,0,0-.01v0c-.113-.174-.231-.35-.348-.527-.133-.2-.274-.391-.415-.584-.055-.075-.111-.147-.164-.22s-.111-.145-.166-.217c-.282-.361-.576-.71-.882-1.037-.122-.129-.248-.258-.373-.382s-.254-.242-.386-.36l-.2-.166c-.064-.056-.13-.112-.2-.165s-.137-.107-.206-.157c-.134-.1-.268-.191-.4-.277a5.7,5.7,0,0,0-.631-.349c-.066-.032-.131-.063-.2-.088a3.872,3.872,0,0,0-.452-.167c-.072-.022-.146-.042-.219-.061l-.128-.03a1.091,1.091,0,0,0-.12-.022,3.538,3.538,0,0,0-1.276,0,3.872,3.872,0,0,0-.417.1,5.154,5.154,0,0,0-2.15,1.393,8.377,8.377,0,0,0-.654.734,15.7,15.7,0,0,0-1.607,2.527C661.555,748.227,661.522,748.295,661.489,748.364Z" transform="translate(-661.359 -743.349)" fill="#482b0e"/>
                </g>
                <g id="Grupo_3055" data-name="Grupo 3055" transform="translate(5.137 2.16)">
                  <g id="Grupo_3053" data-name="Grupo 3053">
                    <path id="Trazado_1508" data-name="Trazado 1508" d="M705.774,779.062a3.8,3.8,0,1,0,3.134-4.365A3.8,3.8,0,0,0,705.774,779.062Z" transform="translate(-705.723 -774.647)" fill="#603913"/>
                    <path id="Trazado_1509" data-name="Trazado 1509" d="M706.685,793.107a3.8,3.8,0,0,0,6.138,4.4,3.8,3.8,0,1,1-6.138-4.4Z" transform="translate(-705.721 -791.833)" fill="#482b0e"/>
                  </g>
                  <g id="Grupo_3054" data-name="Grupo 3054" transform="translate(2.384 1.97)">
                    <path id="Trazado_1510" data-name="Trazado 1510" d="M740.293,805.273a1.782,1.782,0,1,0,1.469-2.047A1.78,1.78,0,0,0,740.293,805.273Z" transform="translate(-740.269 -803.203)" fill="#231f20"/>
                    <path id="Trazado_1511" data-name="Trazado 1511" d="M763.058,803.914a.46.46,0,1,0,.381-.527A.463.463,0,0,0,763.058,803.914Z" transform="translate(-761.48 -803.368)" fill="#fff"/>
                  </g>
                </g>
                <g id="Grupo_3056" data-name="Grupo 3056" transform="translate(0 8.094)">
                  <path id="Trazado_1512" data-name="Trazado 1512" d="M649.019,861.2l-17.745-.539S636.192,868.622,649.019,861.2Z" transform="translate(-631.274 -860.657)" fill="#fba983"/>
                  <path id="Trazado_1513" data-name="Trazado 1513" d="M669.8,861.823c2.97,1.756,12.4.435,12.4.435s-.232-.03-.636-.078Z" transform="translate(-667.137 -861.743)" fill="#f28a83" opacity="0.3"/>
                </g>
              </g>
              <path id="Trazado_1514" data-name="Trazado 1514" d="M856.353,730.515c.2-5.967-3.236-12.112-3.236-12.112s-3.613,6.145-3.413,12.112c-2.5,5.909-3.511,12.625,1.985,16.463a2.2,2.2,0,0,0,1.312.451h.054a2.209,2.209,0,0,0,1.314-.451C859.863,743.141,858.856,736.425,856.353,730.515Z" transform="translate(-817.066 -673.889)" fill="url(#linear-gradient-3)"/>
              <path id="Trazado_1515" data-name="Trazado 1515" d="M438.977,106.455s-56.49-4.043-1.017-33.183c-4.506,11.828,28.859-13.151,41.141,22.7C474.537,103.325,458.784,109.135,438.977,106.455Z" transform="translate(-412.902 -73.272)" fill="#482b0e"/>
              <path id="Trazado_1516" data-name="Trazado 1516" d="M797.459,1213.1c0-2.929,3.967-.659,8.86-.653s8.864-2.255,8.859.677-3.978,7.968-8.869,7.963S797.454,1216.031,797.459,1213.1Z" transform="translate(-770.306 -1133.058)" fill="#f1f2f2"/>
            </g>
          </g>
          <g id="Grupo_3060" data-name="Grupo 3060" transform="translate(52.672 121.248)">
            <path id="Trazado_1517" data-name="Trazado 1517" d="M786.067,1930.424l-.091,1.161-11.334,22.089-11.279-23.112,9.412-83.434.042-.446-.071-.164-7.011-16.022h17.85l-7,16.022-.075.164.049.446Z" transform="translate(-763.363 -1830.496)" fill="#243444"/>
            <path id="Trazado_1518" data-name="Trazado 1518" d="M899.352,2062.705h3.84l-.075.163.049.446h-3.786Z" transform="translate(-889.969 -2046.683)" fill="#505d69"/>
          </g>
          <g id="Grupo_3063" data-name="Grupo 3063" transform="translate(38.979 106.032)">
            <g id="Grupo_3061" data-name="Grupo 3061" transform="translate(25.207)">
              <path id="Trazado_1519" data-name="Trazado 1519" d="M930.239,1625.159l9.27,12.536L953,1614.639l-10.642-4.67Z" transform="translate(-930.239 -1609.969)" fill="#cdeefd"/>
            </g>
            <g id="Grupo_3062" data-name="Grupo 3062" transform="translate(0 0.668)">
              <path id="Trazado_1520" data-name="Trazado 1520" d="M590.121,1634.176l-7.713,12.452-17.494-22.516,12.145-4.458Z" transform="translate(-564.913 -1619.654)" fill="#cdeefd"/>
            </g>
          </g>
          <g id="Grupo_3064" data-name="Grupo 3064" transform="translate(0 108.795)">
            <path id="Trazado_1521" data-name="Trazado 1521" d="M64.531,1726.5v208.762l-7.139,17.842A288.36,288.36,0,0,1,0,1944.291c4.834-89.9,2.252-258.839,2.985-271.456l39.467-22.815Z" transform="translate(0 -1650.02)" fill="#f1f2f2"/>
            <path id="Trazado_1522" data-name="Trazado 1522" d="M935.072,1726.5v208.762l7.139,17.842a288.365,288.365,0,0,0,57.393-8.815c-4.834-89.9-2.252-258.839-2.985-271.456l-39.467-22.815Z" transform="translate(-870.552 -1650.02)" fill="#f1f2f2"/>
          </g>
          <path id="Trazado_1523" data-name="Trazado 1523" d="M961.041,1945.312l-7.351,2.2,6.562,11.728-25.013,37.966,15.319-56.419Z" transform="translate(-870.707 -1811.929)" fill="#b5b6b6" opacity="0.32"/>
          <path id="Trazado_1524" data-name="Trazado 1524" d="M562.264,1968.47l9.548,4.5-7.971,8.3,24.158,39.1-12.868-50.523-2.925-4.179Z" transform="translate(-523.468 -1835.088)" fill="#b5b6b6" opacity="0.32"/>
          <g id="Grupo_3067" data-name="Grupo 3067" transform="translate(81.114 112.121)">
            <g id="Grupo_3065" data-name="Grupo 3065" transform="translate(5.702)">
              <path id="Trazado_1525" data-name="Trazado 1525" d="M1258.2,1771.885c15.98-41.489,14.5-59.88,10.455-68-2.172-4.352-4.76-5.631-4.875-5.668,0,0,4.034.257,4.813,1.038.167.167,16.294,14.619-8.187,73.484Z" transform="translate(-1258.201 -1698.215)" fill="#231f20"/>
            </g>
            <g id="Grupo_3066" data-name="Grupo 3066" transform="translate(0 70.503)">
              <path id="Trazado_1526" data-name="Trazado 1526" d="M1186.578,2727.763a5.7,5.7,0,1,1-3.246-7.374A5.7,5.7,0,0,1,1186.578,2727.763Z" transform="translate(-1175.568 -2720)" fill="#8d8f90"/>
              <path id="Trazado_1527" data-name="Trazado 1527" d="M1194.036,2735.508a5.106,5.106,0,1,1-2.909-6.61A5.107,5.107,0,0,1,1194.036,2735.508Z" transform="translate(-1183.576 -2727.958)" fill="#bcbec0"/>
              <path id="Trazado_1528" data-name="Trazado 1528" d="M1213.625,2755.993a3.545,3.545,0,1,1-2.019-4.592A3.549,3.549,0,0,1,1213.625,2755.993Z" transform="translate(-1204.621 -2749.01)" fill="#58595b"/>
            </g>
          </g>
          <g id="Grupo_3077" data-name="Grupo 3077" transform="translate(18.28 111.752)">
            <g id="Grupo_3075" data-name="Grupo 3075" transform="translate(0 17.507)">
              <g id="Grupo_3070" data-name="Grupo 3070" transform="translate(0.657 19.062)">
                <g id="Grupo_3068" data-name="Grupo 3068">
                  <path id="Trazado_1529" data-name="Trazado 1529" d="M295.959,2258.349l-8.133-3.921c-7.126-6.182-13.119-30.1-13.366-31.117l1-.453c.063.244,6.08,24.286,12.849,30.251l7.961,3.82Z" transform="translate(-274.46 -2222.858)" fill="#5e5f60"/>
                </g>
                <g id="Grupo_3069" data-name="Grupo 3069" transform="translate(19.752 32.762)">
                  <path id="Trazado_1530" data-name="Trazado 1530" d="M564.386,2701.675a.737.737,0,0,1-.349-.07l-2.6-1.2a1.221,1.221,0,0,1-.594-.7,1.929,1.929,0,0,1-.08-1.073c.151-.712.728-1.123,1.239-.886l2.592,1.2a1.23,1.23,0,0,1,.595.706,1.94,1.94,0,0,1,.081,1.07A1.089,1.089,0,0,1,564.386,2701.675Z" transform="translate(-560.726 -2697.674)" fill="#bcbec0"/>
                </g>
              </g>
              <g id="Grupo_3073" data-name="Grupo 3073" transform="translate(5.833 17.9)">
                <g id="Grupo_3071" data-name="Grupo 3071" transform="translate(2.394)">
                  <path id="Trazado_1531" data-name="Trazado 1531" d="M384.6,2243.315l-.449-1.385,7.555-4.571c6.161-6.6,9.825-31.1,9.861-31.352l1.05.356c-.154,1.034-3.8,25.42-10.3,32.262l-.106.086Z" transform="translate(-384.155 -2206.008)" fill="#5e5f60"/>
                </g>
                <g id="Grupo_3072" data-name="Grupo 3072" transform="translate(0 34.513)">
                  <path id="Trazado_1532" data-name="Trazado 1532" d="M350.53,2710.44a1.08,1.08,0,0,1-.979-.868,1.94,1.94,0,0,1-.023-1.071,1.233,1.233,0,0,1,.523-.761l2.465-1.447c.483-.285,1.1.069,1.319.764a1.961,1.961,0,0,1,.023,1.076,1.226,1.226,0,0,1-.522.758l-2.467,1.446A.726.726,0,0,1,350.53,2710.44Z" transform="translate(-349.464 -2706.195)" fill="#bcbec0"/>
                </g>
              </g>
              <g id="Grupo_3074" data-name="Grupo 3074">
                <path id="Trazado_1533" data-name="Trazado 1533" d="M291.248,1965.079c-.588.029-1.1-.614-1.141-1.442-.282-5.34-2.264-9.61-5.586-12.02a10.4,10.4,0,0,0-13.212.7c-2.114,1.923-4.56,5.639-4.2,12.408.044.832-.4,1.531-.988,1.563,0,0,0,0-.008,0-.587.027-1.094-.619-1.138-1.444-.336-6.4,1.49-11.754,5.136-15.072a12.072,12.072,0,0,1,15.345-.828c4.034,2.932,6.447,8.106,6.787,14.565.04.829-.4,1.529-.987,1.563Z" transform="translate(-264.932 -1946.591)" fill="#231f20"/>
              </g>
            </g>
            <g id="Grupo_3076" data-name="Grupo 3076" transform="translate(11.377)">
              <path id="Trazado_1534" data-name="Trazado 1534" d="M437.588,1693.043a3.551,3.551,0,0,0-4.309,1.764c-2.9,5.656-3.464,17.3-3.458,17.458l2.361-.087C432.176,1712.009,431.734,1699.909,437.588,1693.043Z" transform="translate(-429.821 -1692.867)" fill="#231f20"/>
            </g>
          </g>
          <g id="Grupo_3083" data-name="Grupo 3083" transform="translate(34.934 48.437)">
            <g id="Grupo_3078" data-name="Grupo 3078" transform="translate(51.6 28.377)">
              <path id="Trazado_1535" data-name="Trazado 1535" d="M1254.67,1199.454a.552.552,0,0,1-.538-.676l2.725-11.837a.552.552,0,0,1,1.076.248l-2.725,11.837A.552.552,0,0,1,1254.67,1199.454Z" transform="translate(-1254.117 -1186.512)" fill="#e9e8eb"/>
            </g>
            <g id="Grupo_3079" data-name="Grupo 3079" transform="translate(1.41 28.377)">
              <path id="Trazado_1536" data-name="Trazado 1536" d="M530,1199.454a.552.552,0,0,1-.537-.428l-2.725-11.837a.552.552,0,1,1,1.076-.248l2.725,11.838a.552.552,0,0,1-.538.676Z" transform="translate(-526.719 -1186.512)" fill="#e9e8eb"/>
            </g>
            <g id="Grupo_3080" data-name="Grupo 3080" transform="translate(1.41 0)">
              <path id="Trazado_1537" data-name="Trazado 1537" d="M530,788.2a.552.552,0,0,1-.537-.428l-2.725-11.837a.552.552,0,1,1,1.076-.248l2.725,11.837a.553.553,0,0,1-.538.676Z" transform="translate(-526.719 -775.254)" fill="#e9e8eb"/>
            </g>
            <g id="Grupo_3081" data-name="Grupo 3081" transform="translate(53.687)">
              <path id="Trazado_1538" data-name="Trazado 1538" d="M1284.911,788.2a.553.553,0,0,1-.538-.676l2.725-11.837a.552.552,0,1,1,1.076.248l-2.725,11.837A.552.552,0,0,1,1284.911,788.2Z" transform="translate(-1284.358 -775.254)" fill="#e9e8eb"/>
            </g>
            <g id="Grupo_3082" data-name="Grupo 3082" transform="translate(0 5.323)">
              <path id="Trazado_1539" data-name="Trazado 1539" d="M534.792,893.047a94.229,94.229,0,0,1-11.446-.943c-1.291-.159-2.626-.324-3.928-.466-2.964-.322-6.1-.647-10.161-1.057a.587.587,0,0,1-.527-.538c-.382-4.855,1.585-10.761,1.2-15.616-.432-5.486-3.212-9.921-3.644-15.407a.587.587,0,0,1,.407-.606c3.522-1.121,7.215-2.166,10.976-3.105l.746-.187c5.353-1.341,10.889-2.727,16.374-2.727,5.347,0,10.74,1.335,15.956,2.625l.7.173c3.905.964,7.754,2.048,11.439,3.22a.588.588,0,0,1,.408.606c-.4,5.135-2.732,10.271-3.136,15.407-.41,5.205,1.1,10.411.695,15.616a.587.587,0,0,1-.527.538c-4.135.417-7.514.769-10.632,1.108-1.237.135-2.5.29-3.729.441A92.409,92.409,0,0,1,534.792,893.047Z" transform="translate(-506.287 -852.395)" fill="#e6e7e8"/>
              <path id="Trazado_1540" data-name="Trazado 1540" d="M553.816,905.6a89.6,89.6,0,0,1-10.88-.9c-1.227-.152-2.5-.308-3.734-.443-2.818-.306-5.8-.616-9.659-1a.558.558,0,0,1-.5-.512c-.363-4.615,1.506-10.229,1.143-14.844-.41-5.215-3.054-9.43-3.464-14.645a.558.558,0,0,1,.387-.576c3.348-1.065,6.858-2.058,10.433-2.952l.709-.177c5.089-1.274,10.35-2.592,15.564-2.592,5.082,0,10.209,1.269,15.167,2.5l.667.165c3.712.917,7.37,1.947,10.873,3.061a.559.559,0,0,1,.387.576c-.384,4.882-2.6,9.763-2.981,14.645-.389,4.948,1.05,9.9.661,14.844a.558.558,0,0,1-.5.512c-3.931.4-7.142.731-10.106,1.053-1.176.128-2.38.276-3.545.419A87.8,87.8,0,0,1,553.816,905.6Z" transform="translate(-525.31 -865.959)" fill="#fefefe"/>
              <path id="Trazado_1541" data-name="Trazado 1541" d="M661.29,1006.269s13.2-3.378,17.81-3.317c4.93.066,18.847,4.054,18.847,4.054S682.262,1002.952,661.29,1006.269Z" transform="translate(-650.595 -992.563)" fill="#e9e8eb"/>
              <path id="Trazado_1542" data-name="Trazado 1542" d="M661.29,1265.638s13.2,3.378,17.81,3.317c4.93-.066,18.847-4.054,18.847-4.054S682.262,1268.955,661.29,1265.638Z" transform="translate(-650.595 -1236.438)" fill="#e9e8eb"/>
              <path id="Trazado_1543" data-name="Trazado 1543" d="M661.29,1171.7h36.657S679.266,1175.055,661.29,1171.7Z" transform="translate(-650.595 -1149.664)" fill="#e9e8eb"/>
            </g>
          </g>
          <g id="Grupo_3084" data-name="Grupo 3084" transform="translate(35.879 105.562)">
            <path id="Trazado_1544" data-name="Trazado 1544" d="M961.489,1607.765c2.462,3.1-.448,23.21-.448,23.21l-9.842.9,7.555,9.189-23.515,41.8,17.258-79.716S959.947,1605.822,961.489,1607.765Z" transform="translate(-906.586 -1603.154)" fill="#fff"/>
            <path id="Trazado_1545" data-name="Trazado 1545" d="M520.71,1614.58c-2.461,3.1,2.2,22.74,2.2,22.74l9.842.9-7.552,9.189,23.446,41.8-18.94-79.246S522.251,1612.637,520.71,1614.58Z" transform="translate(-519.993 -1609.499)" fill="#fff"/>
          </g>
        </g>
      </g>
    </g>
  </g>
</svg>
