<svg xmlns="http://www.w3.org/2000/svg" width="87" height="87" viewBox="0 0 87 87">
  <g id="Grupo_2986" data-name="Grupo 2986" transform="translate(-204 -3879)">
    <circle id="Elipse_583" data-name="Elipse 583" cx="43.5" cy="43.5" r="43.5" transform="translate(204 3879)" fill="#ffe3e2"/>
    <g id="Grupo_2981" data-name="Grupo 2981" transform="translate(-250 3538)">
      <path id="Trazado_1416" data-name="Trazado 1416" d="M509,362v3.994A2.006,2.006,0,0,0,511.006,368H515" fill="none" stroke="#dd726a" stroke-miterlimit="10" stroke-width="2"/>
      <path id="Trazado_1417" data-name="Trazado 1417" d="M481,406a2,2,0,0,0,2,2H513a2,2,0,0,0,2-2V368.827a2,2,0,0,0-.585-1.412l-4.83-4.83a2,2,0,0,0-1.412-.585H483a2,2,0,0,0-2,2Z" fill="none" stroke="#dd726a" stroke-miterlimit="10" stroke-width="2"/>
      <path id="Trazado_1418" data-name="Trazado 1418" d="M489,374h0a2,2,0,0,1-2-2v-1a2,2,0,0,1,2-2h0a2,2,0,0,1,2,2v1A2,2,0,0,1,489,374Z" fill="none" stroke="#dd726a" stroke-miterlimit="10" stroke-width="2"/>
      <path id="Trazado_1419" data-name="Trazado 1419" d="M485,379v-1.833a2.774,2.774,0,0,1,2.1-2.692h0a7.814,7.814,0,0,1,3.8,0h0a2.774,2.774,0,0,1,2.1,2.692V379" fill="none" stroke="#dd726a" stroke-miterlimit="10" stroke-width="2"/>
      <line id="Línea_37" data-name="Línea 37" x2="7" transform="translate(497 370)" fill="none" stroke="#dd726a" stroke-miterlimit="10" stroke-width="2"/>
      <line id="Línea_38" data-name="Línea 38" x2="28" transform="translate(484 382)" fill="none" stroke="#dd726a" stroke-miterlimit="10" stroke-width="2"/>
      <line id="Línea_39" data-name="Línea 39" x2="15" transform="translate(497 374)" fill="none" stroke="#dd726a" stroke-miterlimit="10" stroke-width="2"/>
      <line id="Línea_40" data-name="Línea 40" y2="7" transform="translate(506 396)" fill="none" stroke="#dd726a" stroke-miterlimit="10" stroke-width="2"/>
      <line id="Línea_41" data-name="Línea 41" y1="14" transform="translate(510 389)" fill="none" stroke="#dd726a" stroke-miterlimit="10" stroke-width="2"/>
      <line id="Línea_42" data-name="Línea 42" y2="8" transform="translate(498 395)" fill="none" stroke="#dd726a" stroke-miterlimit="10" stroke-width="2"/>
      <line id="Línea_43" data-name="Línea 43" y1="10" transform="translate(502 393)" fill="none" stroke="#dd726a" stroke-miterlimit="10" stroke-width="2"/>
      <line id="Línea_44" data-name="Línea 44" y2="8" transform="translate(490 395)" fill="none" stroke="#dd726a" stroke-miterlimit="10" stroke-width="2"/>
      <line id="Línea_45" data-name="Línea 45" y1="4" transform="translate(494 399)" fill="none" stroke="#dd726a" stroke-miterlimit="10" stroke-width="2"/>
      <line id="Línea_46" data-name="Línea 46" x2="15" transform="translate(497 378)" fill="none" stroke="#dd726a" stroke-miterlimit="10" stroke-width="2"/>
      <line id="Línea_47" data-name="Línea 47" y2="12" transform="translate(486 391)" fill="none" stroke="#dd726a" stroke-miterlimit="10" stroke-width="2"/>
    </g>
  </g>
</svg>
