<svg xmlns="http://www.w3.org/2000/svg" width="156" height="156" viewBox="0 0 156 156">
  <g id="Grupo_3151" data-name="Grupo 3151" transform="translate(-508 -2772)">
    <circle id="Elipse_512" data-name="Elipse 512" cx="78" cy="78" r="78" transform="translate(508 2772)" fill="#ffe3e2"/>
    <g id="Grupo_1153" data-name="Grupo 1153" transform="translate(-1229.823 1756.862)">
      <path id="Trazado_1388" data-name="Trazado 1388" d="M1997.6,1389.6h52.782a10.484,10.484,0,0,1-10.484-10.484v-1.867" transform="translate(-179.021 -249.852)" fill="none" stroke="#dd726a" stroke-linecap="round" stroke-linejoin="round" stroke-width="3"/>
      <path id="Trazado_1389" data-name="Trazado 1389" d="M1950.952,1073.24v-18.765a10.484,10.484,0,0,0-10.484-10.484h-61.506a10.484,10.484,0,0,1,10.484,10.484v13.359" transform="translate(-90.072)" fill="none" stroke="#dd726a" stroke-linecap="round" stroke-linejoin="round" stroke-width="3"/>
      <path id="Trazado_1390" data-name="Trazado 1390" d="M1847.555,1043.991a10.484,10.484,0,0,0-10.484,10.484v6.291h20.968" transform="translate(-58.665)" fill="none" stroke="#dd726a" stroke-linecap="round" stroke-linejoin="round" stroke-width="3"/>
      <line id="Línea_10" data-name="Línea 10" x1="37.172" transform="translate(1811.826 1058.421)" fill="none" stroke="#dd726a" stroke-linecap="round" stroke-linejoin="round" stroke-width="3"/>
      <line id="Línea_11" data-name="Línea 11" x1="37.172" transform="translate(1811.826 1065.873)" fill="none" stroke="#dd726a" stroke-linecap="round" stroke-linejoin="round" stroke-width="3"/>
      <line id="Línea_12" data-name="Línea 12" x1="37.172" transform="translate(1811.826 1073.325)" fill="none" stroke="#dd726a" stroke-linecap="round" stroke-linejoin="round" stroke-width="3"/>
      <line id="Línea_13" data-name="Línea 13" x1="28.794" transform="translate(1811.826 1080.777)" fill="none" stroke="#dd726a" stroke-linecap="round" stroke-linejoin="round" stroke-width="3"/>
      <path id="Trazado_1391" data-name="Trazado 1391" d="M2133.773,1305.585v15.583l7.892-5.016,7.892,5.016v-15.479" transform="translate(-281.113 -196.126)" fill="none" stroke="#dd726a" stroke-linecap="round" stroke-linejoin="round" stroke-width="3"/>
      <circle id="Elipse_511" data-name="Elipse 511" cx="16.039" cy="16.039" r="16.039" transform="matrix(0.438, -0.899, 0.899, 0.438, 1839.106, 1102.707)" stroke-width="3" stroke="#dd726a" stroke-linecap="round" stroke-linejoin="round" fill="none"/>
      <path id="Trazado_1392" data-name="Trazado 1392" d="M2134.524,1233.037l6.259,6.259,10.231-10.232" transform="translate(-281.675 -138.756)" fill="none" stroke="#dd726a" stroke-linecap="round" stroke-linejoin="round" stroke-width="3"/>
      <line id="Línea_14" data-name="Línea 14" x1="12.037" transform="translate(1811.826 1088.233)" fill="none" stroke="#dd726a" stroke-linecap="round" stroke-linejoin="round" stroke-width="3"/>
    </g>
    <g id="Grupo_1154" data-name="Grupo 1154" transform="translate(-1227.226 2482.892)">
      <path id="Trazado_1396" data-name="Trazado 1396" d="M1753.731,368.108h44.861a6.505,6.505,0,0,1,6.505,6.5v22.651a6.505,6.505,0,0,1-6.505,6.505h-10.12a.792.792,0,0,0-.792.792v8.49a.792.792,0,0,1-1.352.56l-9.609-9.61a.792.792,0,0,0-.56-.232h-22.428a6.505,6.505,0,0,1-6.505-6.505V374.613A6.505,6.505,0,0,1,1753.731,368.108Z" fill="none" stroke="#dd726a" stroke-linecap="round" stroke-linejoin="round" stroke-width="3"/>
      <line id="Línea_15" data-name="Línea 15" y1="5.359" x2="9.281" transform="translate(1754.762 383.259)" fill="none" stroke="#dd726a" stroke-linecap="round" stroke-linejoin="round" stroke-width="3"/>
      <line id="Línea_16" data-name="Línea 16" y1="5.359" x2="9.281" transform="translate(1771.521 383.259)" fill="none" stroke="#dd726a" stroke-linecap="round" stroke-linejoin="round" stroke-width="3"/>
      <line id="Línea_17" data-name="Línea 17" y1="5.359" x2="9.281" transform="translate(1788.281 383.259)" fill="none" stroke="#dd726a" stroke-linecap="round" stroke-linejoin="round" stroke-width="3"/>
    </g>
  </g>
</svg>
