<svg xmlns="http://www.w3.org/2000/svg" width="435" height="198" viewBox="0 0 435 198">
  <g id="Grupo_3730" data-name="Grupo 3730" transform="translate(-117 -235)">
    <rect id="Rectángulo_929" data-name="Rectángulo 929" width="435" height="198" transform="translate(117 235)" fill="#efefef"/>
    <g id="Elipse_587" data-name="Elipse 587" transform="translate(167 309)" fill="none" stroke="#dd726a" stroke-width="1" stroke-dasharray="6">
      <ellipse cx="166" cy="44" rx="166" ry="44" stroke="none"/>
      <ellipse cx="166" cy="44" rx="165.5" ry="43.5" fill="none"/>
    </g>
    <path id="Trazado_1420" data-name="Trazado 1420" d="M221.4,606.829H144.75a1.4,1.4,0,0,1-1.395-1.395h0a1.4,1.4,0,0,1,1.395-1.394H221.4a1.4,1.4,0,0,1,1.395,1.394h0A1.4,1.4,0,0,1,221.4,606.829Z" transform="translate(2.645 -226.212)" fill="#231f20" opacity="0.15"/>
    <g id="Grupo_2990" data-name="Grupo 2990" transform="translate(146 313.202)">
      <rect id="Rectángulo_894" data-name="Rectángulo 894" width="36.15" height="37.06" transform="translate(37.339 28.183)" fill="#ddd"/>
      <path id="Trazado_1421" data-name="Trazado 1421" d="M216.074,286.756h-30.82V248l15.41-20.433L216.074,248Z" transform="translate(-178.736 -221.513)" fill="#fffeff"/>
      <path id="Trazado_1422" data-name="Trazado 1422" d="M216.074,262.617h36.15l.151-3.676-52.847-22.621-14.274,18.387v6.3l14.678-19.019,16.142,20.624Z" transform="translate(-178.736 -228.906)" fill="#231f20" opacity="0.15"/>
      <path id="Trazado_1423" data-name="Trazado 1423" d="M173.863,224.091l-20.348,24.348.475,2.092h4.463v-3.268l15.41-19.968Z" transform="translate(-151.934 -218.579)" fill="#d95243"/>
      <path id="Trazado_1424" data-name="Trazado 1424" d="M182,242.28,163.7,218.909,145.41,242.28l-2.056-1.916L163.7,214.321l20.348,26.043Z" transform="translate(-143.355 -210.329)" fill="#f8796b"/>
      <path id="Trazado_1425" data-name="Trazado 1425" d="M511.018,242.28l-18.293-23.838-5.6-4.121,25.949,26.043Z" transform="translate(-433.639 -210.329)" fill="#f8796b"/>
      <path id="Trazado_1426" data-name="Trazado 1426" d="M274.139,214.321h38.738l20.348,26.043H294.487Z" transform="translate(-253.791 -210.329)" fill="#fe9e94"/>
      <path id="Trazado_1427" data-name="Trazado 1427" d="M393.768,381.711h38.738l-2.056,1.916H391.712Z" transform="translate(-353.071 -351.676)" fill="#d95243"/>
      <rect id="Rectángulo_895" data-name="Rectángulo 895" width="11.413" height="21.782" transform="translate(16.223 43.46)" fill="#f8796b"/>
      <rect id="Rectángulo_896" data-name="Rectángulo 896" width="1.926" height="21.782" transform="translate(16.223 43.46)" fill="#d95243"/>
      <path id="Trazado_1428" data-name="Trazado 1428" d="M247.623,468l11.489,11.489V468Z" transform="translate(-231.4 -424.54)" fill="#231f20" opacity="0.1"/>
      <g id="Grupo_2988" data-name="Grupo 2988" transform="translate(41.773 43.436)">
        <rect id="Rectángulo_897" data-name="Rectángulo 897" width="12.525" height="12.525" fill="#4f6871"/>
        <rect id="Rectángulo_898" data-name="Rectángulo 898" width="1.454" height="12.548" transform="translate(11.07)" fill="#a7a9ac"/>
        <rect id="Rectángulo_899" data-name="Rectángulo 899" width="9.076" height="10.29" transform="translate(1.009 1.141)" fill="#8ac0de"/>
        <path id="Trazado_1429" data-name="Trazado 1429" d="M434.667,475.181l6.536,6.536v-1.194l-5.342-5.342Z" transform="translate(-431.116 -474.04)" fill="#fffeff" opacity="0.25"/>
        <path id="Trazado_1430" data-name="Trazado 1430" d="M457.04,478.8l-3.616-3.616h3.616Z" transform="translate(-446.955 -474.04)" fill="#fffeff" opacity="0.25"/>
        <path id="Trazado_1431" data-name="Trazado 1431" d="M424.372,467.847l-1.454,1.512h-11.07v-1.512Z" transform="translate(-411.847 -467.847)" fill="#231f20" opacity="0.15"/>
      </g>
      <g id="Grupo_2989" data-name="Grupo 2989" transform="translate(57.514 43.436)">
        <rect id="Rectángulo_900" data-name="Rectángulo 900" width="12.525" height="12.525" fill="#4f6871"/>
        <rect id="Rectángulo_901" data-name="Rectángulo 901" width="1.454" height="12.548" transform="translate(11.07)" fill="#a7a9ac"/>
        <rect id="Rectángulo_902" data-name="Rectángulo 902" width="9.076" height="10.29" transform="translate(1.009 1.141)" fill="#8ac0de"/>
        <path id="Trazado_1432" data-name="Trazado 1432" d="M535.833,475.181l6.536,6.536v-1.194l-5.342-5.342Z" transform="translate(-532.283 -474.04)" fill="#fffeff" opacity="0.25"/>
        <path id="Trazado_1433" data-name="Trazado 1433" d="M558.207,478.8l-3.616-3.616h3.616Z" transform="translate(-548.122 -474.04)" fill="#fffeff" opacity="0.25"/>
        <path id="Trazado_1434" data-name="Trazado 1434" d="M525.539,467.847l-1.454,1.512h-11.07v-1.512Z" transform="translate(-513.014 -467.847)" fill="#231f20" opacity="0.15"/>
      </g>
      <path id="Trazado_1435" data-name="Trazado 1435" d="M453.932,207.7l-7.078-9.059v-9.976h7.078Z" transform="translate(-399.634 -188.667)" fill="#fffeff"/>
      <rect id="Rectángulo_903" data-name="Rectángulo 903" width="7.078" height="18.878" transform="translate(54.298)" fill="#ddd"/>
    </g>
    <g id="Grupo_2993" data-name="Grupo 2993" transform="translate(470.471 322.962)">
      <rect id="Rectángulo_904" data-name="Rectángulo 904" width="49.703" height="49.896" transform="translate(1.507 3.873)" fill="#fff"/>
      <path id="Trazado_1436" data-name="Trazado 1436" d="M275.318,763.88H225.612a.612.612,0,0,0-.612.612v2.86h50.93v-2.86A.612.612,0,0,0,275.318,763.88Z" transform="translate(-224.106 -713.583)" fill="#4e4d60"/>
      <g id="Grupo_2992" data-name="Grupo 2992" transform="translate(18.874 5.247)">
        <path id="Trazado_1437" data-name="Trazado 1437" d="M426.656,282.267a8.173,8.173,0,0,0,7.485-4.889H419.171A8.173,8.173,0,0,0,426.656,282.267Z" transform="translate(-419.171 -277.378)" opacity="0.25" style="mix-blend-mode: multiply;isolation: isolate"/>
      </g>
      <rect id="Rectángulo_905" data-name="Rectángulo 905" width="49.703" height="1.374" transform="translate(1.507 3.873)" fill="#161615" opacity="0.25" style="mix-blend-mode: multiply;isolation: isolate"/>
      <rect id="Rectángulo_906" data-name="Rectángulo 906" width="52.718" height="4.321" rx="2.161" fill="#46485d"/>
    </g>
    <g id="Grupo_3002" data-name="Grupo 3002" transform="translate(476.351 355.625)">
      <g id="Grupo_2995" data-name="Grupo 2995" transform="translate(12.886 0)">
        <g id="Grupo_2994" data-name="Grupo 2994" transform="translate(0.379 0.955)">
          <rect id="Rectángulo_907" data-name="Rectángulo 907" width="14.428" height="20.162" fill="#4e4d60"/>
          <rect id="Rectángulo_908" data-name="Rectángulo 908" width="13.679" height="20.162" transform="translate(0.374)" fill="#129bdb"/>
          <path id="Trazado_1438" data-name="Trazado 1438" d="M433.192,603.192V583.76h-.428v19.432h-6.626v.73h13.679v-.73Z" transform="translate(-425.764 -583.76)" fill="#e8e8e8"/>
        </g>
        <rect id="Rectángulo_909" data-name="Rectángulo 909" width="14.428" height="0.866" transform="translate(0.379 0.955)" fill="#161615" opacity="0.25" style="mix-blend-mode: multiply;isolation: isolate"/>
        <rect id="Rectángulo_910" data-name="Rectángulo 910" width="15.186" height="1.173" fill="#4e4d60"/>
        <rect id="Rectángulo_911" data-name="Rectángulo 911" width="15.186" height="1.173" fill="#4e4d60"/>
      </g>
      <g id="Grupo_2998" data-name="Grupo 2998">
        <rect id="Rectángulo_912" data-name="Rectángulo 912" width="9.359" height="0.926" transform="translate(0 10.907)" fill="#161615" opacity="0.25" style="mix-blend-mode: multiply;isolation: isolate"/>
        <g id="Grupo_2997" data-name="Grupo 2997">
          <rect id="Rectángulo_913" data-name="Rectángulo 913" width="9.359" height="0.926" transform="translate(0 10.537)" fill="#4e4d60"/>
          <g id="Grupo_2996" data-name="Grupo 2996" transform="translate(0.486)">
            <rect id="Rectángulo_914" data-name="Rectángulo 914" width="8.387" height="10.536" transform="translate(0 0)" fill="#129bdb"/>
            <path id="Trazado_1439" data-name="Trazado 1439" d="M284.088,573.447v10.536h8.387V573.447Zm.556.556h3.268v4.343h-3.268Zm0,9.425v-4.343h3.268v4.343Zm7.276,0h-3.268v-4.343h3.268Zm-3.268-5.082V574h3.268v4.343Z" transform="translate(-284.088 -573.447)" fill="#e8e8e8"/>
          </g>
        </g>
      </g>
      <g id="Grupo_3001" data-name="Grupo 3001" transform="translate(31.6)">
        <rect id="Rectángulo_915" data-name="Rectángulo 915" width="9.359" height="0.926" transform="translate(0 10.907)" fill="#161615" opacity="0.25" style="mix-blend-mode: multiply;isolation: isolate"/>
        <g id="Grupo_3000" data-name="Grupo 3000">
          <rect id="Rectángulo_916" data-name="Rectángulo 916" width="9.359" height="0.926" transform="translate(0 10.537)" fill="#4e4d60"/>
          <g id="Grupo_2999" data-name="Grupo 2999" transform="translate(0.486)">
            <rect id="Rectángulo_917" data-name="Rectángulo 917" width="8.387" height="10.536" transform="translate(0 0)" fill="#129bdb"/>
            <path id="Trazado_1440" data-name="Trazado 1440" d="M625.339,573.447v10.536h8.387V573.447Zm.556.556h3.268v4.343h-3.268Zm0,9.425v-4.343h3.268v4.343Zm7.276,0H629.9v-4.343h3.268Zm-3.268-5.082V574h3.268v4.343Z" transform="translate(-625.339 -573.447)" fill="#e8e8e8"/>
          </g>
        </g>
      </g>
    </g>
    <g id="Grupo_3012" data-name="Grupo 3012" transform="translate(476.351 334.634)">
      <g id="Grupo_3005" data-name="Grupo 3005">
        <rect id="Rectángulo_918" data-name="Rectángulo 918" width="9.359" height="0.926" transform="translate(0 10.907)" fill="#161615" opacity="0.25" style="mix-blend-mode: multiply;isolation: isolate"/>
        <g id="Grupo_3004" data-name="Grupo 3004">
          <rect id="Rectángulo_919" data-name="Rectángulo 919" width="9.359" height="0.926" transform="translate(0 10.537)" fill="#4e4d60"/>
          <g id="Grupo_3003" data-name="Grupo 3003" transform="translate(0.486)">
            <rect id="Rectángulo_920" data-name="Rectángulo 920" width="8.387" height="10.536" transform="translate(0 0)" fill="#129bdb"/>
            <path id="Trazado_1441" data-name="Trazado 1441" d="M284.088,346.766V357.3h8.387V346.766Zm.556.556h3.268v4.343h-3.268Zm0,9.425V352.4h3.268v4.343Zm7.276,0h-3.268V352.4h3.268Zm-3.268-5.082v-4.343h3.268v4.343Z" transform="translate(-284.088 -346.766)" fill="#e8e8e8"/>
          </g>
        </g>
      </g>
      <g id="Grupo_3009" data-name="Grupo 3009" transform="translate(15.8)">
        <rect id="Rectángulo_921" data-name="Rectángulo 921" width="9.359" height="0.926" transform="translate(0 10.907)" fill="#161615" opacity="0.25" style="mix-blend-mode: multiply;isolation: isolate"/>
        <g id="Grupo_3008" data-name="Grupo 3008">
          <g id="Grupo_3007" data-name="Grupo 3007">
            <rect id="Rectángulo_922" data-name="Rectángulo 922" width="9.359" height="0.926" transform="translate(0 10.537)" fill="#4e4d60"/>
            <g id="Grupo_3006" data-name="Grupo 3006" transform="translate(0.486)">
              <rect id="Rectángulo_923" data-name="Rectángulo 923" width="8.387" height="10.536" transform="translate(0 0)" fill="#129bdb"/>
              <path id="Trazado_1442" data-name="Trazado 1442" d="M454.714,346.766V357.3H463.1V346.766Zm.556.556h3.268v4.343H455.27Zm0,9.425V352.4h3.268v4.343Zm7.276,0h-3.268V352.4h3.268Zm-3.268-5.082v-4.343h3.268v4.343Z" transform="translate(-454.714 -346.766)" fill="#e8e8e8"/>
            </g>
          </g>
        </g>
      </g>
      <g id="Grupo_3011" data-name="Grupo 3011" transform="translate(31.6)">
        <rect id="Rectángulo_924" data-name="Rectángulo 924" width="9.359" height="0.926" transform="translate(0 10.907)" fill="#161615" opacity="0.25" style="mix-blend-mode: multiply;isolation: isolate"/>
        <rect id="Rectángulo_925" data-name="Rectángulo 925" width="9.359" height="0.926" transform="translate(0 10.537)" fill="#4e4d60"/>
        <g id="Grupo_3010" data-name="Grupo 3010" transform="translate(0.486)">
          <rect id="Rectángulo_926" data-name="Rectángulo 926" width="8.387" height="10.536" transform="translate(0 0)" fill="#129bdb"/>
          <path id="Trazado_1443" data-name="Trazado 1443" d="M625.339,346.766V357.3h8.387V346.766Zm.556.556h3.268v4.343h-3.268Zm0,9.425V352.4h3.268v4.343Zm7.276,0H629.9V352.4h3.268Zm-3.268-5.082v-4.343h3.268v4.343Z" transform="translate(-625.339 -346.766)" fill="#e8e8e8"/>
        </g>
      </g>
    </g>
    <g id="Grupo_3013" data-name="Grupo 3013" transform="translate(489.214 317.202)">
      <ellipse id="Elipse_586" data-name="Elipse 586" cx="7.616" cy="7.616" rx="7.616" ry="7.616" fill="#e13851"/>
      <path id="Trazado_1444" data-name="Trazado 1444" d="M459.746,194.524h-3.171v-3.171h-2.807v3.171H450.6v2.807h3.171V200.5h2.807v-3.171h3.171Z" transform="translate(-447.555 -188.312)" fill="#fff"/>
    </g>
    <g id="Elipse_568" data-name="Elipse 568" transform="translate(146 258)" fill="#59bfd6" stroke="#227d84" stroke-width="3">
      <circle cx="20" cy="20" r="20" stroke="none"/>
      <circle cx="20" cy="20" r="18.5" fill="none"/>
    </g>
    <path id="Trazado_3097" data-name="Trazado 3097" d="M6.8-15.4V0H3.234V-12.54H.154V-15.4Z" transform="translate(162 285)" fill="#fff"/>
    <path id="Trazado_3736" data-name="Trazado 3736" d="M8.445,0H.7V-1.391L3.648-4.352a25.053,25.053,0,0,0,1.73-1.895A4.523,4.523,0,0,0,6-7.3a2.833,2.833,0,0,0,.2-1.055A1.608,1.608,0,0,0,5.73-9.57a1.781,1.781,0,0,0-1.285-.445,3.426,3.426,0,0,0-1.27.242A5.942,5.942,0,0,0,1.758-8.9L.766-10.109A6.4,6.4,0,0,1,2.617-11.25a5.42,5.42,0,0,1,1.914-.336,3.766,3.766,0,0,1,2.555.832,2.81,2.81,0,0,1,.961,2.238A3.928,3.928,0,0,1,7.77-7.047a5.969,5.969,0,0,1-.852,1.434,19.461,19.461,0,0,1-1.91,2L3.023-1.7v.078H8.445ZM23.8,0H21.93V-5.148H16.664V0H14.8V-11.422h1.867V-6.75H21.93v-4.672H23.8ZM34.281-4.336a4.716,4.716,0,0,1-1.086,3.3A3.891,3.891,0,0,1,30.172.156a4.143,4.143,0,0,1-2.141-.547,3.61,3.61,0,0,1-1.43-1.57,5.348,5.348,0,0,1-.5-2.375A4.684,4.684,0,0,1,27.18-7.617,3.909,3.909,0,0,1,30.219-8.8,3.807,3.807,0,0,1,33.188-7.59,4.662,4.662,0,0,1,34.281-4.336Zm-6.289,0q0,2.992,2.211,2.992,2.188,0,2.188-2.992,0-2.961-2.2-2.961a1.879,1.879,0,0,0-1.676.766A3.9,3.9,0,0,0,27.992-4.336ZM40.773-8.8a4.42,4.42,0,0,1,.914.078l-.18,1.711A3.47,3.47,0,0,0,40.7-7.1a2.351,2.351,0,0,0-1.785.719,2.6,2.6,0,0,0-.684,1.867V0H36.391V-8.641h1.438l.242,1.523h.094a3.423,3.423,0,0,1,1.121-1.227A2.665,2.665,0,0,1,40.773-8.8Zm7.6,8.8-.367-1.2h-.062A3.54,3.54,0,0,1,46.688-.129a3.978,3.978,0,0,1-1.625.285,2.75,2.75,0,0,1-1.988-.687,2.573,2.573,0,0,1-.715-1.945,2.284,2.284,0,0,1,.992-2.016,5.721,5.721,0,0,1,3.023-.742l1.492-.047v-.461A1.747,1.747,0,0,0,47.48-6.98a1.577,1.577,0,0,0-1.2-.41,4.147,4.147,0,0,0-1.273.2,9.61,9.61,0,0,0-1.172.461l-.594-1.312a6.39,6.39,0,0,1,1.539-.559A7.083,7.083,0,0,1,46.359-8.8a3.738,3.738,0,0,1,2.488.719,2.814,2.814,0,0,1,.84,2.258V0ZM45.641-1.25a2.274,2.274,0,0,0,1.605-.559,2.025,2.025,0,0,0,.605-1.566v-.75l-1.109.047a3.8,3.8,0,0,0-1.887.434,1.317,1.317,0,0,0-.59,1.184,1.155,1.155,0,0,0,.344.895A1.477,1.477,0,0,0,45.641-1.25ZM58.055-2.461A2.261,2.261,0,0,1,57.133-.52a4.414,4.414,0,0,1-2.641.676,6.237,6.237,0,0,1-2.773-.523V-1.953a6.809,6.809,0,0,0,2.836.7q1.7,0,1.7-1.023a.811.811,0,0,0-.187-.547,2.219,2.219,0,0,0-.617-.453,10.621,10.621,0,0,0-1.2-.531,5.529,5.529,0,0,1-2.02-1.156,2.139,2.139,0,0,1-.527-1.5A1.97,1.97,0,0,1,52.6-8.184,4.245,4.245,0,0,1,55.031-8.8a6.893,6.893,0,0,1,2.883.617L57.32-6.8a6.412,6.412,0,0,0-2.352-.578q-1.453,0-1.453.828a.833.833,0,0,0,.379.688,8.333,8.333,0,0,0,1.652.773,7.553,7.553,0,0,1,1.555.758,2.265,2.265,0,0,1,.719.793A2.3,2.3,0,0,1,58.055-2.461Z" transform="translate(249 357)" fill="#00223d"/>
    <path id="Trazado_3734" data-name="Trazado 3734" d="M3992.99-945h130.364" transform="translate(-3672 1298)" fill="none" stroke="#dd726a" stroke-width="1" stroke-dasharray="6"/>
    <path id="Trazado_3735" data-name="Trazado 3735" d="M4195.947-949.094v12.065l9.219-6.17Z" transform="translate(-3749 1296)" fill="#dd726a"/>
  </g>
</svg>
