<svg xmlns="http://www.w3.org/2000/svg" xmlns:xlink="http://www.w3.org/1999/xlink" width="435" height="198" viewBox="0 0 435 198">
  <defs>
    <clipPath id="clip-path">
      <rect id="Rectángulo_1030" data-name="Rectángulo 1030" width="72.3" height="174.058" transform="translate(-605.034 383.391)" fill="none"/>
    </clipPath>
    <linearGradient id="linear-gradient" x1="-302.055" y1="-2273.08" x2="-23.301" y2="-2273.08" gradientUnits="objectBoundingBox">
      <stop offset="0" stop-color="#ffaa7d"/>
      <stop offset="1" stop-color="#ffb38a"/>
    </linearGradient>
    <linearGradient id="linear-gradient-2" x1="-66.586" y1="-809.659" x2="-4.212" y2="-809.659" xlink:href="#linear-gradient"/>
  </defs>
  <g id="Grupo_4374" data-name="Grupo 4374" transform="translate(-595 -657)">
    <rect id="Rectángulo_937" data-name="Rectángulo 937" width="435" height="198" transform="translate(595 657)" fill="#efefef"/>
    <g id="Grupo_3553" data-name="Grupo 3553" transform="translate(505.253 609.619)">
      <path id="Trazado_3307" data-name="Trazado 3307" d="M534.123,440.414l.031,0-.031,0Z" transform="translate(-197.885 -251.285)" opacity="0.22"/>
      <path id="Trazado_3308" data-name="Trazado 3308" d="M535.344,440.394a1.054,1.054,0,0,0-.124-.016A1.054,1.054,0,0,1,535.344,440.394Z" transform="translate(-198.658 -251.262)" opacity="0.22"/>
      <path id="Trazado_3309" data-name="Trazado 3309" d="M534.658,440.374c-.04,0-.081,0-.124,0C534.577,440.374,534.618,440.373,534.658,440.374Z" transform="translate(-198.174 -251.259)" opacity="0.22"/>
      <path id="Trazado_3310" data-name="Trazado 3310" d="M406.484,368.826l-19.226-6.053a7.027,7.027,0,0,0-7.782,2.142,6.637,6.637,0,0,0-1.275,4.438c0,.008,0,.016,0,.024.01.129.023.257.04.385.006.046.012.092.019.138.013.09.029.18.046.27.011.057.021.115.033.172.017.08.037.159.056.239q.046.187.1.373c.015.052.03.1.047.156.027.083.055.165.085.247.016.047.034.093.051.14.032.084.064.168.1.251.017.04.034.079.051.119a8.449,8.449,0,0,0,.411.818c.026.045.052.091.079.136.042.071.086.14.13.211q.052.082.107.163c.042.062.083.124.126.186.055.078.112.154.169.23.035.046.069.092.1.137q.123.156.253.308c.027.032.055.063.083.094.077.087.155.173.236.257a9,9,0,0,0,3.842,2.387l22.356,6.907a7.645,7.645,0,0,0,5.006-.095C404.806,378.259,405.731,371.285,406.484,368.826Z" transform="translate(-87.936 -196.281)" opacity="0.3"/>
      <path id="Trazado_3311" data-name="Trazado 3311" d="M319.8,218.881H259.6a6.114,6.114,0,0,1-6.132-6.277V90.141a5.988,5.988,0,0,1,6.132-6.127H319.8c3.54.007,6.695,2.667,6.687,6.127V212.6A6.6,6.6,0,0,1,319.8,218.881Z" transform="translate(0)" fill="#404040"/>
      <g id="Grupo_3508" data-name="Grupo 3508" transform="translate(253.464 84.014)">
        <path id="Trazado_3312" data-name="Trazado 3312" d="M254.089,212.605l0-122.464a5.938,5.938,0,0,1,6.027-6.127H259.6a5.988,5.988,0,0,0-6.132,6.127V212.6a6.114,6.114,0,0,0,6.132,6.277h.479A6.064,6.064,0,0,1,254.089,212.605Z" transform="translate(-253.464 -84.014)" fill="#696969"/>
        <path id="Trazado_3313" data-name="Trazado 3313" d="M477.149,84.014h-.469a6.4,6.4,0,0,1,6.532,6.125l0,122.464a6.533,6.533,0,0,1-6.572,6.277h.514a6.6,6.6,0,0,0,6.688-6.277V90.141C483.844,86.681,480.689,84.021,477.149,84.014Z" transform="translate(-410.811 -84.014)" fill="#696969"/>
      </g>
      <g id="Grupo_3511" data-name="Grupo 3511" transform="translate(285.656 86.952)">
        <g id="Grupo_3509" data-name="Grupo 3509" transform="translate(2.716 0)">
          <path id="Trazado_3314" data-name="Trazado 3314" d="M373.992,94.022a1.526,1.526,0,1,1-1.856,1.1A1.526,1.526,0,0,1,373.992,94.022Z" transform="translate(-372.011 -93.974)" fill="#5a5a5a"/>
          <path id="Trazado_3315" data-name="Trazado 3315" d="M377.714,94.022a1.528,1.528,0,0,0-.457-.046,1.527,1.527,0,0,1,0,3.05,1.527,1.527,0,0,0,.453-3Z" transform="translate(-375.655 -93.974)" fill="#767676"/>
          <path id="Trazado_3316" data-name="Trazado 3316" d="M373.13,96.98a1.527,1.527,0,0,1,.3-3,1.527,1.527,0,1,0,.005,3.05A1.514,1.514,0,0,1,373.13,96.98Z" transform="translate(-371.825 -93.974)" fill="#2c2c2c"/>
        </g>
        <g id="Grupo_3510" data-name="Grupo 3510" transform="translate(0 117.757)">
          <path id="Trazado_3317" data-name="Trazado 3317" d="M368.452,493.375a4.111,4.111,0,1,1-5,2.967A4.11,4.11,0,0,1,368.452,493.375Z" transform="translate(-363.116 -493.246)" fill="#5a5a5a"/>
          <path id="Trazado_3318" data-name="Trazado 3318" d="M378.474,493.375a4.117,4.117,0,0,0-1.232-.123,4.111,4.111,0,0,1,.014,8.212,4.111,4.111,0,0,0,1.218-8.089Z" transform="translate(-372.928 -493.246)" fill="#767676"/>
          <path id="Trazado_3319" data-name="Trazado 3319" d="M366.13,501.342a4.111,4.111,0,0,1,.8-8.089,4.111,4.111,0,1,0,.014,8.212A4.129,4.129,0,0,1,366.13,501.342Z" transform="translate(-362.616 -493.247)" fill="#2c2c2c"/>
        </g>
      </g>
      <rect id="Rectángulo_990" data-name="Rectángulo 990" width="60.334" height="106.076" transform="translate(259.591 93.373)" fill="gray"/>
      <g id="Grupo_3514" data-name="Grupo 3514" transform="translate(266.089 160.571)">
        <g id="Grupo_3512" data-name="Grupo 3512" transform="translate(0 0.352)">
          <circle id="Elipse_671" data-name="Elipse 671" cx="8.405" cy="8.405" r="8.405" transform="translate(0 6.546) rotate(-22.918)" fill="#48db87"/>
          <path id="Trazado_3320" data-name="Trazado 3320" d="M327.115,375.075l-.356-2.394a.1.1,0,0,0-.079-.08l-2.255-.346a.094.094,0,0,0-.081.027l-1.2,1.2a.1.1,0,0,1-.135,0l-3.075-3.075a.1.1,0,0,1,0-.134l1.2-1.2a.094.094,0,0,0,.027-.081l-.346-2.254a.094.094,0,0,0-.08-.079c-.4-.058-2.4-.35-2.4-.347-1.254,1.254-.306,4.236,2.118,6.66s5.406,3.373,6.66,2.118l.007-.007Z" transform="translate(-311.438 -359.962)" fill="#f5f5f5"/>
        </g>
        <g id="Grupo_3513" data-name="Grupo 3513" transform="translate(24.958 0)">
          <circle id="Elipse_672" data-name="Elipse 672" cx="8.405" cy="8.405" r="8.405" transform="translate(0 7.89) rotate(-27.992)" fill="#ff644f"/>
          <path id="Trazado_3321" data-name="Trazado 3321" d="M398.4,377.417l1.945,1.441a.094.094,0,0,0,.113,0l1.839-1.349a.1.1,0,0,0,.039-.077v-1.7a.1.1,0,0,1,.095-.095h4.348a.1.1,0,0,1,.1.095v1.7a.1.1,0,0,0,.039.077l1.839,1.349a.094.094,0,0,0,.113,0c.324-.241,1.941-1.447,1.941-1.451,0-1.774-2.779-3.212-6.207-3.212s-6.207,1.438-6.207,3.212v.01Z" transform="translate(-393.229 -365.169)" fill="#f5f5f5"/>
        </g>
      </g>
      <g id="Grupo_3517" data-name="Grupo 3517" transform="translate(269.111 109.531)">
        <path id="Trazado_3323" data-name="Trazado 3323" d="M327.164,211.829a20.648,20.648,0,1,1,20.648-20.647A20.671,20.671,0,0,1,327.164,211.829Zm0-39.665a19.018,19.018,0,1,0,19.018,19.018A19.039,19.039,0,0,0,327.164,172.164Z" transform="translate(-306.516 -170.534)" fill="#dedede"/>
        <g id="Grupo_3534" data-name="Grupo 3534" transform="translate(1.41 1.004)">
          <g id="Grupo_3533" data-name="Grupo 3533" transform="translate(0 0)">
            <circle id="Elipse_674" data-name="Elipse 674" cx="19.448" cy="19.448" r="19.448" fill="#c9c9c9"/>
          </g>
        </g>
      </g>
      <path id="Trazado_3324" data-name="Trazado 3324" d="M258.248,471.673c-.211-.474-.393-.844-.534-1.1a12.409,12.409,0,0,1,.584-1.642h0c-.222.276-.531.973-.735,1.163a2.364,2.364,0,0,1-1.642.758C256.689,470.891,257.734,470.828,258.248,471.673Z" transform="translate(-1.732 -271.396)" opacity="0.25"/>
      <path id="Trazado_3325" data-name="Trazado 3325" d="M255.854,475.445h0Z" transform="translate(-1.665 -275.986)" opacity="0.25"/>
      <path id="Trazado_3326" data-name="Trazado 3326" d="M264.445,479.673c.005.016.011.03.016.047l0,0Z" transform="translate(-7.742 -278.968)" opacity="0.25"/>
      <path id="Trazado_3327" data-name="Trazado 3327" d="M255.783,475.442h0Z" transform="translate(-1.622 -275.984)" opacity="0.25"/>
    </g>
    <g id="Grupo_3707" data-name="Grupo 3707" transform="translate(783.743 727)">
      <path id="Trazado_3762" data-name="Trazado 3762" d="M788.357,524.537a0,0,0,0,0,0,0h0a1.2,1.2,0,0,1,.025-.587s0,0,0,0a.4.4,0,0,1,.028-.057l.005-.01c.006-.011.013-.026.022-.043.028-.062.069-.162.118-.29a0,0,0,0,0,0,0c.164-.422.416-1.135.58-1.677.053-.176.1-.334.125-.458.058-.252.108-.5.148-.758h0a6.36,6.36,0,0,0-.44-3.882s0,0,0,0a5.022,5.022,0,0,0-.482-.771h0a5.076,5.076,0,0,0-.934-.947l-.006,0a5.71,5.71,0,0,0-1.6-.86h0a6.884,6.884,0,0,0-.825-.234,8.834,8.834,0,0,0-1.5-.2c-.089,0-.178-.005-.271,0-2.634.042-6.983,2.422-6.146,7.033a7.822,7.822,0,0,0,.308,1.159,10.212,10.212,0,0,0,.5,1.188.368.368,0,0,1-.039.142h0c-.041.108-.114.274-.209.485h0c-.731,1.61-2.843,5.872-3.489,7.756-.656,1.909.837,3.094,3.191,3.736l.018.006h.006q.25.068.512.127h0a18.79,18.79,0,0,0,2.475.376h.023l.118.01h0q.33.029.666.048h0c.777.045,1.573.057,2.361.04h0q.417-.01.83-.029h.009l.053,0,.071,0h0a28.479,28.479,0,0,0,2.887-.295c.384-.06.754-.127,1.1-.2.132-.028.26-.057.386-.087l.025-.006c1.571-.377,2.641-.9,2.739-1.5C791.958,532.486,788.659,526.693,788.357,524.537Z" transform="translate(-770.809 -513.748)" fill="#b55959" opacity="0.99"/>
      <path id="Trazado_3763" data-name="Trazado 3763" d="M832.551,659.6s-1.346-4.143-1.842-2.741c-.445,1.257,1.163,4.687-.148,8.5-.867,2.524,1.94,3.892,2.812,4.111s3.891-1.293,5.442-1.379c5.1-.284-.239-5.4,2.29-10.476C842,655.829,832.551,659.6,832.551,659.6Z" transform="translate(-823.502 -647.483)" fill="#9e3939" opacity="0.55"/>
      <path id="Trazado_3764" data-name="Trazado 3764" d="M876.185,757.484l-3.6-.068a.191.191,0,0,1-.2-.183l.274-11.343a.194.194,0,0,1,.206-.175l3.6.068a.191.191,0,0,1,.2.183l-.274,11.343A.194.194,0,0,1,876.185,757.484Z" transform="translate(-862.823 -730.95)" fill="#f2bab6"/>
      <ellipse id="Elipse_701" data-name="Elipse 701" cx="1.165" cy="1.033" rx="1.165" ry="1.033" transform="translate(16.864 8.084)" fill="#eda9a4"/>
      <ellipse id="Elipse_702" data-name="Elipse 702" cx="1.044" cy="0.926" rx="1.044" ry="0.926" transform="translate(5.634 8.192)" fill="#eda9a4"/>
      <ellipse id="Elipse_703" data-name="Elipse 703" cx="1.165" cy="1.033" rx="1.165" ry="1.033" transform="translate(16.864 8.084)" fill="#eda9a4"/>
      <ellipse id="Elipse_704" data-name="Elipse 704" cx="7.784" cy="5.28" rx="7.784" ry="5.28" transform="translate(6.404 15.858) rotate(-83.238)" fill="#f7cbc6"/>
      <path id="Trazado_3765" data-name="Trazado 3765" d="M938.84,567.625c-.031,1.582.957,1.9,1.916,2.741a7.265,7.265,0,0,0,2.166,1.464l-4.071-4.208A.006.006,0,0,0,938.84,567.625Z" transform="translate(-925.042 -564.191)" fill="#9e3939" opacity="0.55"/>
      <path id="Trazado_3766" data-name="Trazado 3766" d="M839.843,529.236a20.631,20.631,0,0,0-2.771-2.549,3.191,3.191,0,0,1-1.508-1.83c-.316.344-.655,1.532-1.792,1.915-1.588.535-3.97.28-4.645,2.571-1.6-3.243.408-7.729,5.782-7.688C840.331,521.7,841.818,526.21,839.843,529.236Z" transform="translate(-821.814 -521.152)" fill="#b55959" opacity="0.99"/>
      <path id="Trazado_3767" data-name="Trazado 3767" d="M918.228,662.722h0a.615.615,0,0,1-.695-.644l.183-1.554c.01-.086.16-.159.333-.169h0c.174-.01.333.044.356.128L918.82,662A.594.594,0,0,1,918.228,662.722Z" transform="translate(-905.089 -651.022)" fill="#ef8f99"/>
      <path id="Trazado_3768" data-name="Trazado 3768" d="M900.763,729.847l-1.406-.723a.023.023,0,0,1-.01-.033l.242-.37a.029.029,0,0,1,.037-.009l1.406.723a.023.023,0,0,1,.01.033l-.242.37A.029.029,0,0,1,900.763,729.847Z" transform="translate(-888.061 -715.027)" fill="#ef8f99"/>
      <path id="Trazado_3769" data-name="Trazado 3769" d="M916.659,728.986l1.335-.822a.03.03,0,0,1,.038.006l.275.351a.022.022,0,0,1-.007.033l-1.335.822a.029.029,0,0,1-.038-.006l-.275-.351A.022.022,0,0,1,916.659,728.986Z" transform="translate(-904.263 -714.513)" fill="#ef8f99"/>
      <path id="Trazado_3770" data-name="Trazado 3770" d="M876.422,846.7s-1.121.09-1.606.093h-.141c-.106,0-.211,0-.316,0q-.883-.013-1.747-.1l-.693-.121.034-2.721.009-.761h0l.041-3.222h0l.027-2.043v-.1h0v-.079h0v-.067h0l.026-2.1,0-.074v-.163l.005-.418v-.037l.008-.705,0-.16c0,.04,0,.079.007.119h0a2.093,2.093,0,0,0,.675,1.412c.031.029.064.055.1.082h0a1.981,1.981,0,0,0,1.227.395,1.911,1.911,0,0,0,1.134-.354h0a1.937,1.937,0,0,0,.3-.273,2.156,2.156,0,0,0,.465-.843,2.406,2.406,0,0,0,.083-.4v0c.009-.073.015-.148.018-.223v.031l.008.559.014,1.117.024,1.881,0,.069v.215l.031,2.417h0l0,.166h0l.01.78v.015Z" transform="translate(-862.382 -813.457)" fill="#0683b5"/>
      <g id="Grupo_3684" data-name="Grupo 3684" transform="translate(0 20.616)">
        <path id="Trazado_3771" data-name="Trazado 3771" d="M731.608,850.335a16.959,16.959,0,0,1-8.438-3.986q-.572-.5-1.1-1.048l.6-2.209c.434-1.6,2.446-3.282,4.7-3.952l.367-.11h0l1.014-.3h0l.664-.2h0l.778-.232h0l.26-.077.055-.016,1.191-.355v.008l.006.131.01.193.036.746v0l0,.066.008.166,0,.072.1,2.044,0,.066v.047l0,.03v.021l0,.1.1,2.148.178,3.716h0l.04.839.1,2.189v.023Z" transform="translate(-722.07 -837.837)" fill="#fff"/>
        <g id="Grupo_3683" data-name="Grupo 3683" transform="translate(5.294)">
          <path id="Trazado_3772" data-name="Trazado 3772" d="M809.9,841.5l-.159.048-.889.263-3.329.985-.281-3.648,4.333-1.294.162,3.576.161-.069Z" transform="translate(-805.246 -837.838)" fill="#9edae8"/>
          <path id="Trazado_3773" data-name="Trazado 3773" d="M814.369,897.728l-.029-.034-4.541-5.18,3.328-1.411.88-.374.16-.067,0,.133Z" transform="translate(-809.509 -887.287)" fill="#9edae8"/>
          <path id="Trazado_3774" data-name="Trazado 3774" d="M815.34,841.2l-3.952,1.164-.372-3.537,4.036-1.176Z" transform="translate(-810.648 -837.649)" fill="#fff"/>
          <path id="Trazado_3775" data-name="Trazado 3775" d="M820.869,897.778l-4.134-4.544,3.951-1.674Z" transform="translate(-816.003 -888.128)" fill="#fff"/>
        </g>
      </g>
      <path id="Trazado_3776" data-name="Trazado 3776" d="M948.554,841.62q-.532.506-1.1.964a16.905,16.905,0,0,1-8.817,3.645l-.064-2.995-.126-5.977,0-.1v-.1l-.067-3.119-.012-.594v-.009l1.187.307.02.005h0l.065.016,1.386.357h0l1.38.356h0l.375.1.026.007c2.277.6,4.338,2.26,4.816,3.909Z" transform="translate(-924.593 -812.989)" fill="#fff"/>
      <g id="Grupo_3685" data-name="Grupo 3685" transform="translate(13.66 20.332)">
        <path id="Trazado_3777" data-name="Trazado 3777" d="M937.214,837.229l.159.042.892.226,3.335.847.095-3.862-4.415-1.141.09,3.805-.163-.063Z" transform="translate(-937.173 -833.331)" fill="#9edae8"/>
        <path id="Trazado_3778" data-name="Trazado 3778" d="M937.3,896.923l.026-.034,4.1-5.449-3.357-1.29-.891-.344-.162-.062.007.139Z" transform="translate(-936.993 -886.143)" fill="#9edae8"/>
        <path id="Trazado_3779" data-name="Trazado 3779" d="M936.679,836.972l3.962,1,.185-3.755-4.111-1.032Z" transform="translate(-936.679 -833.187)" fill="#fff"/>
        <path id="Trazado_3780" data-name="Trazado 3780" d="M936.947,897.042l3.741-4.806L936.7,890.7Z" transform="translate(-936.696 -887.043)" fill="#fff"/>
      </g>
      <g id="Grupo_3693" data-name="Grupo 3693" transform="translate(5.748 18.559)">
        <g id="Grupo_3686" data-name="Grupo 3686" transform="translate(0.535 0.243)">
          <path id="Trazado_3781" data-name="Trazado 3781" d="M821.482,818.137c-1.521-1.751-.29-6.175.98-7.695a4.565,4.565,0,0,1,1.742-1.306l.074.176a4.377,4.377,0,0,0-1.669,1.252,8.746,8.746,0,0,0-1.5,3.679c-.3,1.672-.115,3.045.513,3.768Z" transform="translate(-820.778 -809.137)" fill="#021416"/>
        </g>
        <g id="Grupo_3692" data-name="Grupo 3692">
          <g id="Grupo_3687" data-name="Grupo 3687" transform="translate(7.992)">
            <path id="Trazado_3782" data-name="Trazado 3782" d="M941.181,812.362l-.19-.02c.373-3.476-.464-5.668-2.556-6.7a1.733,1.733,0,0,0-.493-.123l.026-.189a1.874,1.874,0,0,1,.551.141C940.692,806.542,941.563,808.8,941.181,812.362Z" transform="translate(-937.942 -805.327)" fill="#021416"/>
          </g>
          <g id="Grupo_3691" data-name="Grupo 3691" transform="translate(0 6.777)">
            <g id="Grupo_3689" data-name="Grupo 3689" transform="translate(0 1.457)">
              <g id="Grupo_3688" data-name="Grupo 3688">
                <ellipse id="Elipse_705" data-name="Elipse 705" cx="1.311" cy="1.163" rx="1.311" ry="1.163" fill="#c1c1bd"/>
              </g>
              <ellipse id="Elipse_706" data-name="Elipse 706" cx="0.695" cy="0.616" rx="0.695" ry="0.616" transform="translate(0.616 0.547)" fill="#757572"/>
            </g>
            <g id="Grupo_3690" data-name="Grupo 3690" transform="translate(6.389)">
              <path id="Trazado_3783" data-name="Trazado 3783" d="M917.04,917.786h-.185V917.6h.185a.516.516,0,0,0,.5-.328c.348-1.078,1.36-4.638-.226-5.2a1.9,1.9,0,0,0-1.6.246,6.734,6.734,0,0,0-2.77,3.759.421.421,0,0,0,.226.443l.186.106-.095.166-.186-.106a.608.608,0,0,1-.319-.646,6.849,6.849,0,0,1,2.863-3.888,2.079,2.079,0,0,1,1.753-.26c1.7.6.808,4,.344,5.437A.708.708,0,0,1,917.04,917.786Z" transform="translate(-912.751 -911.794)" fill="#021416"/>
            </g>
            <path id="Trazado_3784" data-name="Trazado 3784" d="M917.334,984.847a.393.393,0,1,1-.39-.346A.37.37,0,0,1,917.334,984.847Z" transform="translate(-909.922 -979.873)" fill="#757572"/>
            <path id="Trazado_3785" data-name="Trazado 3785" d="M971.884,999.353a.393.393,0,1,1-.39-.346A.37.37,0,0,1,971.884,999.353Z" transform="translate(-961 -993.456)" fill="#757572"/>
          </g>
        </g>
      </g>
      <path id="Trazado_3786" data-name="Trazado 3786" d="M781.246,771.31s-1.65,2.794,0,3.538A5.375,5.375,0,0,1,781.246,771.31Z" transform="translate(-776.793 -754.916)" fill="#d88080"/>
      <path id="Trazado_3787" data-name="Trazado 3787" d="M1002.012,729.909s1.22,1.346,1.22,2.136Z" transform="translate(-984.194 -716.15)" fill="#d88080"/>
      <path id="Trazado_3788" data-name="Trazado 3788" d="M834.482,533.186a22.319,22.319,0,0,0-4.085,3.11S832.373,533.552,834.482,533.186Z" transform="translate(-823.502 -531.949)" fill="#d88080"/>
      <path id="Trazado_3789" data-name="Trazado 3789" d="M1006.515,595.825a3.271,3.271,0,0,1,0,1.9Z" transform="translate(-988.41 -590.601)" fill="#d88080"/>
      <path id="Trazado_3790" data-name="Trazado 3790" d="M858.056,558.817a13.659,13.659,0,0,0-2.5,1.9A5.163,5.163,0,0,1,858.056,558.817Z" transform="translate(-847.06 -555.948)" fill="#d88080"/>
      <path id="Trazado_3791" data-name="Trazado 3791" d="M951.351,529.719a19.819,19.819,0,0,1,2.687,4.138S953.2,530.686,951.351,529.719Z" transform="translate(-936.757 -528.702)" fill="#d88080"/>
      <path id="Trazado_3792" data-name="Trazado 3792" d="M949.315,542.035s1.22,1.345,1.22,2.136Z" transform="translate(-934.851 -540.234)" fill="#d88080"/>
      <g id="Grupo_3694" data-name="Grupo 3694" transform="translate(10.178 8.001)">
        <path id="Trazado_3793" data-name="Trazado 3793" d="M882.8,640.1a.765.765,0,0,1-.212.568.3.3,0,0,1-.2.08c-.226,0-.409-.29-.409-.648,0-.329.154-.6.355-.643a.259.259,0,0,1,.054-.006.348.348,0,0,1,.282.181.133.133,0,0,0-.106.124.138.138,0,0,0,.146.129.16.16,0,0,0,.061-.012A1,1,0,0,1,882.8,640.1Z" transform="translate(-881.978 -639.455)"/>
        <path id="Trazado_3794" data-name="Trazado 3794" d="M882.583,640.756a.3.3,0,0,1-.2.08c-.226,0-.409-.29-.409-.648,0-.329.154-.6.355-.643a1.045,1.045,0,0,0-.142.8A.626.626,0,0,0,882.583,640.756Z" transform="translate(-881.978 -639.539)" fill="#665757" opacity="0.47"/>
      </g>
      <g id="Grupo_3695" data-name="Grupo 3695" transform="translate(14.594 8.004)">
        <path id="Trazado_3795" data-name="Trazado 3795" d="M952.169,640.149a.765.765,0,0,1-.212.568.3.3,0,0,1-.2.08c-.226,0-.409-.29-.409-.648,0-.329.154-.6.355-.643a.263.263,0,0,1,.054-.006.348.348,0,0,1,.282.181.133.133,0,0,0-.106.124.138.138,0,0,0,.146.129.158.158,0,0,0,.061-.012A1,1,0,0,1,952.169,640.149Z" transform="translate(-951.351 -639.5)"/>
        <path id="Trazado_3796" data-name="Trazado 3796" d="M951.956,640.8a.3.3,0,0,1-.2.08c-.226,0-.409-.29-.409-.648,0-.329.154-.6.355-.643a1.046,1.046,0,0,0-.142.8A.626.626,0,0,0,951.956,640.8Z" transform="translate(-951.351 -639.584)" fill="#665757" opacity="0.47"/>
      </g>
    </g>
    <path id="Trazado_4816" data-name="Trazado 4816" d="M-34.264-8.912a2.536,2.536,0,0,0-1.5-1.854,3.691,3.691,0,0,0-1.485-.29,3.226,3.226,0,0,0-2.571,1.182A5.373,5.373,0,0,0-40.83-6.319a4.417,4.417,0,0,0,1.09,3.384,3.579,3.579,0,0,0,2.479.993,3.2,3.2,0,0,0,2.232-.787A3.4,3.4,0,0,0-33.957-4.79h-3V-6.952h5.4V0H-33.35l-.272-1.617a6.207,6.207,0,0,1-1.406,1.3,4.946,4.946,0,0,1-2.637.659,5.478,5.478,0,0,1-4.219-1.784,6.8,6.8,0,0,1-1.714-4.9,7.2,7.2,0,0,1,1.731-5.045,5.9,5.9,0,0,1,4.579-1.9,5.986,5.986,0,0,1,3.968,1.252A4.657,4.657,0,0,1-31.6-8.912Zm14.871-1.749h-6.855V-7.91h6.293v2.25h-6.293v3.331h7.172V0h-9.817V-12.955h9.5ZM-15.007-4a2.66,2.66,0,0,0,.483,1.327,2.781,2.781,0,0,0,2.259.8,4.767,4.767,0,0,0,1.556-.211,1.5,1.5,0,0,0,1.134-1.5,1.109,1.109,0,0,0-.562-.993A6.049,6.049,0,0,0-11.9-5.186l-1.371-.308a8.664,8.664,0,0,1-2.795-.993,3.159,3.159,0,0,1-1.31-2.8,3.744,3.744,0,0,1,1.266-2.892A5.351,5.351,0,0,1-12.4-13.333,5.653,5.653,0,0,1-8.9-12.248,3.876,3.876,0,0,1-7.387-9.1h-2.6a1.858,1.858,0,0,0-1.02-1.661,3.419,3.419,0,0,0-1.573-.325,2.937,2.937,0,0,0-1.67.422,1.343,1.343,0,0,0-.624,1.178,1.115,1.115,0,0,0,.615,1.037,7.531,7.531,0,0,0,1.688.536l2.232.536a5.772,5.772,0,0,1,2.215.94,3.168,3.168,0,0,1,1.16,2.646A3.734,3.734,0,0,1-8.323-.839,5.689,5.689,0,0,1-12.16.334,6.223,6.223,0,0,1-16.141-.822,3.841,3.841,0,0,1-17.591-4ZM4.452-12.955v2.294H.576V0H-2.149V-10.661H-6.042v-2.294Zm7,11.021A3.092,3.092,0,0,0,14-3.12,5.3,5.3,0,0,0,14.946-6.5,5.305,5.305,0,0,0,14-9.866a3.088,3.088,0,0,0-2.553-1.191A3.129,3.129,0,0,0,8.881-9.87,5.25,5.25,0,0,0,7.923-6.5,5.25,5.25,0,0,0,8.881-3.12,3.129,3.129,0,0,0,11.448-1.934ZM17.653-6.5a7.006,7.006,0,0,1-1.96,5.344A5.649,5.649,0,0,1,11.448.36,5.649,5.649,0,0,1,7.2-1.151,6.989,6.989,0,0,1,5.234-6.5,6.852,6.852,0,0,1,7.2-11.839a5.649,5.649,0,0,1,4.245-1.512,5.649,5.649,0,0,1,4.245,1.512A6.869,6.869,0,0,1,17.653-6.5Zm4.772-4.21v3.48h3.067a3.419,3.419,0,0,0,1.371-.211,1.443,1.443,0,0,0,.809-1.459,1.61,1.61,0,0,0-.782-1.582,2.956,2.956,0,0,0-1.318-.229Zm3.709-2.25a5.92,5.92,0,0,1,2.1.334,3.275,3.275,0,0,1,1.244.905,4.011,4.011,0,0,1,.668,1.09,3.552,3.552,0,0,1,.246,1.362,3.881,3.881,0,0,1-.466,1.815,2.6,2.6,0,0,1-1.538,1.261,2.419,2.419,0,0,1,1.27,1.024,4.262,4.262,0,0,1,.374,2.026v.87a6.656,6.656,0,0,0,.07,1.2,1.082,1.082,0,0,0,.492.738V0H27.611q-.123-.431-.176-.694a6.379,6.379,0,0,1-.114-1.116l-.018-1.2a2.353,2.353,0,0,0-.453-1.652,2.4,2.4,0,0,0-1.63-.413H22.425V0H19.78V-12.955ZM36.259-4.9h3.287l-1.617-5.1Zm.167-8.06h3.059L44.073,0H41.137L40.3-2.663H35.53L34.633,0H31.8ZM-63.022,15.628A7.115,7.115,0,0,1-61.2,10.4a5.421,5.421,0,0,1,4.025-1.6A5.443,5.443,0,0,1-52.4,10.943a4.643,4.643,0,0,1,.9,2.417h-2.707a3.656,3.656,0,0,0-.677-1.406,2.753,2.753,0,0,0-2.188-.844A2.713,2.713,0,0,0-59.4,12.3a5.725,5.725,0,0,0-.853,3.371,5.025,5.025,0,0,0,.9,3.265,2.847,2.847,0,0,0,2.29,1.085,2.619,2.619,0,0,0,2.171-.932,4.047,4.047,0,0,0,.686-1.5h2.681a5.815,5.815,0,0,1-1.8,3.445,5.265,5.265,0,0,1-3.7,1.327,5.588,5.588,0,0,1-4.395-1.793A7.177,7.177,0,0,1-63.022,15.628Zm19.292,4.438a3.092,3.092,0,0,0,2.553-1.187,5.3,5.3,0,0,0,.945-3.375,5.305,5.305,0,0,0-.945-3.371,3.088,3.088,0,0,0-2.553-1.191A3.129,3.129,0,0,0-46.3,12.13a5.25,5.25,0,0,0-.958,3.375A5.25,5.25,0,0,0-46.3,18.88,3.129,3.129,0,0,0-43.73,20.066Zm6.205-4.562a7.006,7.006,0,0,1-1.96,5.344A5.649,5.649,0,0,1-43.73,22.36a5.649,5.649,0,0,1-4.245-1.512A6.989,6.989,0,0,1-49.944,15.5a6.852,6.852,0,0,1,1.969-5.344A5.649,5.649,0,0,1-43.73,8.649a5.649,5.649,0,0,1,4.245,1.512A6.869,6.869,0,0,1-37.525,15.5Zm10.652-6.46h3.894V22H-25.5V13.237q0-.378.009-1.059t.009-1.05L-27.936,22h-2.628L-33,11.128q0,.369.009,1.05t.009,1.059V22H-35.5V9.045h3.938l2.355,10.187Zm6.407,0h2.751v7.963a4.5,4.5,0,0,0,.316,1.951,2.1,2.1,0,0,0,2.145,1.09,2.091,2.091,0,0,0,2.136-1.09,4.5,4.5,0,0,0,.316-1.951V9.045h2.751v7.963a6.67,6.67,0,0,1-.642,3.217q-1.2,2.109-4.562,2.109t-4.57-2.109a6.67,6.67,0,0,1-.642-3.217Zm12.955,0h2.839L.488,18.089V9.045H3.01V22H.3l-5.291-9.2V22H-7.51ZM8.011,22H5.322V9.045H8.011ZM19.947,9.045v2.294H16.071V22H13.346V11.339H9.453V9.045Zm3.8,8.06h3.287l-1.617-5.1Zm.167-8.06h3.059L31.557,22H28.622l-.835-2.663H23.014L22.118,22h-2.83Zm12,2.25v3.48h3.067a3.419,3.419,0,0,0,1.371-.211,1.443,1.443,0,0,0,.809-1.459,1.61,1.61,0,0,0-.782-1.582,2.956,2.956,0,0,0-1.318-.229Zm3.709-2.25a5.92,5.92,0,0,1,2.1.334,3.275,3.275,0,0,1,1.244.905,4.011,4.011,0,0,1,.668,1.09,3.552,3.552,0,0,1,.246,1.362,3.881,3.881,0,0,1-.466,1.815,2.6,2.6,0,0,1-1.538,1.261,2.419,2.419,0,0,1,1.27,1.024,4.262,4.262,0,0,1,.374,2.026v.87a6.656,6.656,0,0,0,.07,1.2,1.082,1.082,0,0,0,.492.738V22H41.093q-.123-.431-.176-.694a6.379,6.379,0,0,1-.114-1.116l-.018-1.2a2.353,2.353,0,0,0-.453-1.652,2.4,2.4,0,0,0-1.63-.413H35.908V22H33.262V9.045ZM48.678,22H45.989V9.045h2.689Zm8.253-1.934a3.092,3.092,0,0,0,2.553-1.187,5.3,5.3,0,0,0,.945-3.375,5.305,5.305,0,0,0-.945-3.371,3.088,3.088,0,0,0-2.553-1.191,3.129,3.129,0,0,0-2.566,1.187,5.25,5.25,0,0,0-.958,3.375,5.25,5.25,0,0,0,.958,3.375A3.129,3.129,0,0,0,56.931,20.066ZM63.136,15.5a7.006,7.006,0,0,1-1.96,5.344,5.649,5.649,0,0,1-4.245,1.512,5.649,5.649,0,0,1-4.245-1.512A6.989,6.989,0,0,1,50.717,15.5a6.852,6.852,0,0,1,1.969-5.344,5.649,5.649,0,0,1,4.245-1.512,5.649,5.649,0,0,1,4.245,1.512A6.869,6.869,0,0,1,63.136,15.5ZM-42,33.295V41.75h2.5a2.7,2.7,0,0,0,2.672-1.89,6.665,6.665,0,0,0,.413-2.47,6.08,6.08,0,0,0-.62-3.037,2.616,2.616,0,0,0-2.465-1.059Zm2.953-2.25a6.809,6.809,0,0,1,2,.281A4.277,4.277,0,0,1-34.84,32.97a5.765,5.765,0,0,1,.923,2.092,10.042,10.042,0,0,1,.246,2.145,8.611,8.611,0,0,1-1.037,4.377A4.68,4.68,0,0,1-39.05,44h-5.581V31.045Zm17,2.294h-6.855V36.09h6.293v2.25h-6.293v3.331h7.172V44h-9.817V31.045h9.5ZM-12.665,40a2.66,2.66,0,0,0,.483,1.327,2.781,2.781,0,0,0,2.259.8,4.767,4.767,0,0,0,1.556-.211,1.5,1.5,0,0,0,1.134-1.5,1.109,1.109,0,0,0-.562-.993,6.049,6.049,0,0,0-1.767-.606l-1.371-.308a8.664,8.664,0,0,1-2.795-.993,3.159,3.159,0,0,1-1.31-2.8,3.744,3.744,0,0,1,1.266-2.892,5.351,5.351,0,0,1,3.718-1.151,5.653,5.653,0,0,1,3.494,1.085A3.876,3.876,0,0,1-5.045,34.9h-2.6a1.858,1.858,0,0,0-1.02-1.661,3.419,3.419,0,0,0-1.573-.325,2.937,2.937,0,0,0-1.67.422,1.343,1.343,0,0,0-.624,1.178,1.115,1.115,0,0,0,.615,1.037,7.531,7.531,0,0,0,1.688.536L-8,36.626a5.772,5.772,0,0,1,2.215.94,3.168,3.168,0,0,1,1.16,2.646,3.734,3.734,0,0,1-1.358,2.949,5.689,5.689,0,0,1-3.836,1.173A6.223,6.223,0,0,1-13.8,43.178,3.841,3.841,0,0,1-15.249,40ZM.923,39.1H4.21l-1.617-5.1Zm.167-8.06H4.148L8.736,44H5.8l-.835-2.663H.193L-.7,44h-2.83Zm9.29,0h2.707V41.671H19.5V44H10.38Zm11,0h2.751v7.963a4.5,4.5,0,0,0,.316,1.951,2.1,2.1,0,0,0,2.145,1.09,2.091,2.091,0,0,0,2.136-1.09,4.5,4.5,0,0,0,.316-1.951V31.045H31.79v7.963a6.67,6.67,0,0,1-.642,3.217q-1.2,2.109-4.562,2.109t-4.57-2.109a6.67,6.67,0,0,1-.642-3.217ZM37,33.295V41.75h2.5a2.7,2.7,0,0,0,2.672-1.89,6.665,6.665,0,0,0,.413-2.47,6.08,6.08,0,0,0-.62-3.037A2.616,2.616,0,0,0,39.5,33.295Zm2.953-2.25a6.809,6.809,0,0,1,2,.281,4.277,4.277,0,0,1,2.206,1.644,5.765,5.765,0,0,1,.923,2.092,10.042,10.042,0,0,1,.246,2.145A8.611,8.611,0,0,1,44.3,41.583,4.68,4.68,0,0,1,39.955,44H34.374V31.045Z" transform="translate(925 731)" fill="#59bfd6"/>
    <path id="Trazado_4817" data-name="Trazado 4817" d="M8.388-10.076v1.784H5.373V0H3.254V-8.292H.226v-1.784ZM18.609-8.292H13.277v2.14h4.895V-4.4H13.277v2.591h5.578V0H11.22V-10.076h7.39Zm3.427-1.784h2.105v8.265h4.99V0h-7.1ZM39.579-8.292H34.247v2.14h4.895V-4.4H34.247v2.591h5.578V0H32.189V-10.076h7.39Zm10.105-1.784h3.028V0H50.751V-6.815q0-.294.007-.824t.007-.817L48.857,0H46.813L44.92-8.456q0,.287.007.817t.007.824V0H42.972V-10.076h3.063l1.832,7.923ZM60.665-1.5a2.4,2.4,0,0,0,1.986-.923,4.124,4.124,0,0,0,.735-2.625,4.126,4.126,0,0,0-.735-2.622A2.4,2.4,0,0,0,60.665-8.6a2.434,2.434,0,0,0-2,.923,4.083,4.083,0,0,0-.745,2.625,4.083,4.083,0,0,0,.745,2.625A2.434,2.434,0,0,0,60.665-1.5Zm4.826-3.548A5.449,5.449,0,0,1,63.967-.9,4.394,4.394,0,0,1,60.665.28,4.394,4.394,0,0,1,57.363-.9a5.436,5.436,0,0,1-1.531-4.156,5.329,5.329,0,0,1,1.531-4.156,4.394,4.394,0,0,1,3.3-1.176,4.394,4.394,0,0,1,3.3,1.176A5.342,5.342,0,0,1,65.491-5.052ZM68.6-10.076h2.208l4.013,7.034v-7.034h1.962V0H74.68L70.565-7.157V0H68.6ZM82.216,0H80.124V-10.076h2.092ZM93.039-10.076v1.784H90.024V0H87.9V-8.292H84.877v-1.784ZM100.02-1.5a2.4,2.4,0,0,0,1.986-.923,4.124,4.124,0,0,0,.735-2.625,4.126,4.126,0,0,0-.735-2.622A2.4,2.4,0,0,0,100.02-8.6a2.434,2.434,0,0,0-2,.923,4.083,4.083,0,0,0-.745,2.625,4.083,4.083,0,0,0,.745,2.625A2.434,2.434,0,0,0,100.02-1.5Zm4.826-3.548A5.449,5.449,0,0,1,103.322-.9,4.394,4.394,0,0,1,100.02.28,4.394,4.394,0,0,1,96.718-.9a5.436,5.436,0,0,1-1.531-4.156,5.329,5.329,0,0,1,1.531-4.156,4.394,4.394,0,0,1,3.3-1.176,4.394,4.394,0,0,1,3.3,1.176A5.342,5.342,0,0,1,104.846-5.052ZM110.1-8.326v2.707h2.386a2.659,2.659,0,0,0,1.066-.164,1.123,1.123,0,0,0,.629-1.135,1.252,1.252,0,0,0-.608-1.23,2.3,2.3,0,0,0-1.025-.178Zm2.885-1.75a4.6,4.6,0,0,1,1.63.26,2.547,2.547,0,0,1,.967.7,3.12,3.12,0,0,1,.52.848,2.763,2.763,0,0,1,.191,1.06,3.019,3.019,0,0,1-.362,1.412,2.025,2.025,0,0,1-1.2.981,1.881,1.881,0,0,1,.988.8,3.315,3.315,0,0,1,.291,1.576v.677a5.176,5.176,0,0,0,.055.937.841.841,0,0,0,.383.574V0h-2.317q-.1-.335-.137-.54a4.961,4.961,0,0,1-.089-.868l-.014-.937a1.83,1.83,0,0,0-.352-1.285,1.868,1.868,0,0,0-1.268-.321H110.1V0h-2.058V-10.076Zm14.111,1.784h-5.332v2.14h4.895V-4.4h-4.895v2.591h5.578V0H119.7V-10.076h7.39ZM134.978-1.5a2.4,2.4,0,0,0,1.986-.923,4.124,4.124,0,0,0,.735-2.625,4.126,4.126,0,0,0-.735-2.622,2.4,2.4,0,0,0-1.986-.926,2.434,2.434,0,0,0-2,.923,4.083,4.083,0,0,0-.745,2.625,4.083,4.083,0,0,0,.745,2.625A2.434,2.434,0,0,0,134.978-1.5ZM139.8-5.052A5.449,5.449,0,0,1,138.28-.9a4.394,4.394,0,0,1-3.3,1.176,4.394,4.394,0,0,1-3.3-1.176,5.436,5.436,0,0,1-1.531-4.156,5.329,5.329,0,0,1,1.531-4.156,4.394,4.394,0,0,1,3.3-1.176,4.394,4.394,0,0,1,3.3,1.176A5.342,5.342,0,0,1,139.8-5.052Z" transform="translate(855 802)" fill="#707070"/>
    <g id="Grupo_3817" data-name="Grupo 3817" transform="translate(1279.034 296.609)">
      <g id="Grupo_3815" data-name="Grupo 3815" clip-path="url(#clip-path)">
        <g id="Grupo_3814" data-name="Grupo 3814">
          <path id="Trazado_3990" data-name="Trazado 3990" d="M-559.612,470.86s8.351,9.186,12.027,14.6a39.832,39.832,0,0,1,4.233,9.452l-10.7-2.131-2.09-17.629Z" fill="#ffa988"/>
          <path id="Trazado_3991" data-name="Trazado 3991" d="M-565.9,453.371c-5.819.522-14.649-7.853-13.98-8.5,1.314-1.263,3.141-9.112,3.138-13.884,0-4.9-1.257-6.491-1.257-6.491l6.88-3.929,5.952,13.164s-.808,6.518-.983,9.164c-.128,1.922.459,4.348,3.216,8.34C-564.5,453.548-563.444,453.077-565.9,453.371Z" fill="#ffa988"/>
          <path id="Trazado_3992" data-name="Trazado 3992" d="M-571.937,429.071c-2.515,4.192,2.393,10.958,5.788,13.827.284-1.908,1.939-4.654,2.34-6.555C-565.837,435.013-571.937,432.05-571.937,429.071Z" fill="#f88864"/>
          <path id="Trazado_3993" data-name="Trazado 3993" d="M-551.147,432.833c-.038,0-.072.005-.111.005l.11,0v0Z" fill="url(#linear-gradient)"/>
          <path id="Trazado_3994" data-name="Trazado 3994" d="M-551.261,432.838c-.171,0-.331-.017-.5-.028C-551.567,432.822-551.4,432.831-551.261,432.838Z" fill="url(#linear-gradient-2)"/>
          <path id="Trazado_3995" data-name="Trazado 3995" d="M-549.873,416.353a14.688,14.688,0,0,0,.972-3.1c.322-1.547-.688-14.055-4.672-14.055,0,0-12.742-1.935-17.488,1.808-5.511,4.346-3.218,22.453-3.049,22.276l1.843,10.091c1.827,3.539,11.481,6.489,14,7.121,2.168.545,6.3.939,5.1-5.211-.072-.369,1.072-.178,1.285-.5.652-.975.2-1.3.231-1.853.146-2.423.266-3.722.975-4.429.381-.381.073-1.589.127-1.6,1.649-.34,3.109-.048,4.032-1.616.384-.654-.674-1.415-2.071-4.371C-549.514,418.969-550.187,417.223-549.873,416.353Z" fill="#ffa988"/>
          <path id="Trazado_3996" data-name="Trazado 3996" d="M-552.123,425.375a.9.9,0,0,0-.357-.081C-552.358,425.325-552.243,425.347-552.123,425.375Z" fill="#ffa988"/>
          <path id="Trazado_3997" data-name="Trazado 3997" d="M-550.553,426.909c1.409-.29,2.68-.122,3.6-1.046a21.822,21.822,0,0,1-5.166-.488c.6.261,1.051,1.124,1.576,1.69C-550.558,426.975-550.564,426.912-550.553,426.909Z" fill="#f78b60"/>
          <path id="Trazado_3998" data-name="Trazado 3998" d="M-551.258,432.838h0Z" fill="#ffbe9c"/>
          <path id="Trazado_3999" data-name="Trazado 3999" d="M-551.757,432.81l-.423-.027C-552.044,432.8-551.9,432.8-551.757,432.81Z" fill="#ffbe9c"/>
          <g id="Grupo_3807" data-name="Grupo 3807">
            <path id="Trazado_4000" data-name="Trazado 4000" d="M-555.595,652.876V674.3s-10.028-.861-10.445-2.944c-.071-.355,1.26-9.03,1.109-16.963C-561.814,653.9-558.705,653.376-555.595,652.876Z" fill="#c28168"/>
            <path id="Trazado_4001" data-name="Trazado 4001" d="M-564.931,654.394c3.117-.5,6.226-1.018,9.336-1.518v10.691c-3.694,1.143-6.883,4.149-10.308,6.354A122.637,122.637,0,0,0-564.931,654.394Z" fill="#bb674b"/>
            <g id="Grupo_3806" data-name="Grupo 3806">
              <path id="Trazado_4002" data-name="Trazado 4002" d="M-539.856,674.161s-12.906-11.744-14.626-10.909c-2.841,1.378-1.353,6.124-1.353,6.124l14.528,7.637Z" fill="#695841"/>
              <path id="Trazado_4003" data-name="Trazado 4003" d="M-529.514,681.957a33.634,33.634,0,0,1-10.477,1.79c-5.66,0-10.954.826-14.224-.117s-14.585-2.115-14.585-2.115-.686-8.967.929-12.786c.523-1.239,2.25-1.36,2.25-1.36a5.8,5.8,0,0,0,.355,2.755c.817,2,2.311,2.4,4.059,2.4s2.466-4.069,5.422-4.069,13.026,7.634,14.478,6.667l1.451-.966s8.2,2.453,8.925,3.287S-529.514,681.957-529.514,681.957Z" fill="#927b5a"/>
              <path id="Trazado_4004" data-name="Trazado 4004" d="M-530.137,681.647s.5-.195.623.267.763,2.98-1.05,3.225a63.471,63.471,0,0,1-14.6,1.141c-6.854-.422-22.512-.609-22.512-.609s-1.581-.234-1.581-.679-.511-3.252,0-3.673l.512-.421s8.552.889,10.375.889,8.776,1.008,11.417,1.008,6.349.228,9.633.046A51.758,51.758,0,0,0-530.137,681.647Z" fill="#1d1d20"/>
              <g id="Grupo_3805" data-name="Grupo 3805">
                <path id="Trazado_4005" data-name="Trazado 4005" d="M-540.1,673.538a1.409,1.409,0,0,0-1.665.095,5.272,5.272,0,0,0-1.661,1.8.316.316,0,0,0,.065.4.221.221,0,0,0,.14.05.24.24,0,0,0,.2-.125,4.747,4.747,0,0,1,1.484-1.623c.471-.287.891-.335,1.154-.127a.228.228,0,0,0,.344-.075A.316.316,0,0,0-540.1,673.538Z" fill="#fff"/>
                <path id="Trazado_4006" data-name="Trazado 4006" d="M-543.165,672.912c.879-.237,1.531-.146,1.75.241a.228.228,0,0,0,.342.082.313.313,0,0,0,.072-.394,1.226,1.226,0,0,0-.819-.581.275.275,0,0,0,.07-.114.3.3,0,0,0-.15-.364c-.449-.181-.976.032-1.5.6a8.945,8.945,0,0,0-2.731,1.459.312.312,0,0,0-.072.395.24.24,0,0,0,.207.129.225.225,0,0,0,.135-.046A9.453,9.453,0,0,1-544,673.21a8.985,8.985,0,0,0-.869,1.983.3.3,0,0,0,.151.364.2.2,0,0,0,.082.017.254.254,0,0,0,.234-.19,7.324,7.324,0,0,1,1.213-2.44Z" fill="#fff"/>
                <path id="Trazado_4007" data-name="Trazado 4007" d="M-545.436,671.3c1.007-.27,1.756-.162,2.008.283a.23.23,0,0,0,.343.083.314.314,0,0,0,.072-.4,1.365,1.365,0,0,0-1-.645.266.266,0,0,0,.151-.17.3.3,0,0,0-.15-.364c-.508-.209-1.1.068-1.673.689a9.931,9.931,0,0,0-3.074,1.629.311.311,0,0,0-.071.394.238.238,0,0,0,.207.129.227.227,0,0,0,.135-.046A10.453,10.453,0,0,1-546.3,671.6a9.932,9.932,0,0,0-1.029,2.32.3.3,0,0,0,.15.364.222.222,0,0,0,.083.016.252.252,0,0,0,.233-.19A8.08,8.08,0,0,1-545.436,671.3Z" fill="#fff"/>
                <path id="Trazado_4008" data-name="Trazado 4008" d="M-547.953,669.075c1.079-.292,1.876-.168,2.153.322a.229.229,0,0,0,.342.083.312.312,0,0,0,.072-.395,1.479,1.479,0,0,0-1.169-.7.242.242,0,0,0,.266-.182.3.3,0,0,0-.15-.364c-.527-.215-1.152.049-1.774.733a10.586,10.586,0,0,0-3.259,1.73.311.311,0,0,0-.071.394.238.238,0,0,0,.206.129.221.221,0,0,0,.136-.046,11.28,11.28,0,0,1,2.381-1.4,10.617,10.617,0,0,0-1.123,2.519.3.3,0,0,0,.151.364.205.205,0,0,0,.083.017.252.252,0,0,0,.233-.19,8.858,8.858,0,0,1,1.466-2.946C-547.991,669.116-547.972,669.1-547.953,669.075Zm1.349-.7h.005a3.057,3.057,0,0,0-.4-.014A.623.623,0,0,1-546.6,668.376Z" fill="#fff"/>
              </g>
            </g>
          </g>
          <path id="Trazado_4009" data-name="Trazado 4009" d="M-577.019,527.651c.643,5.1,11.824,132.446,11.824,132.446,3.4-.042,7.155.174,10.616,0,.361-12.277,3.223-35.2,3.958-58.862.35-11.28-3.764-55.886-3.329-74.343C-562.871,527.2-568.088,525.631-577.019,527.651Z" fill="#875929"/>
          <g id="Grupo_3810" data-name="Grupo 3810">
            <path id="Trazado_4010" data-name="Trazado 4010" d="M-566.572,653.541v21.425s-10.028-.861-10.444-2.943c-.071-.356,1.259-9.031,1.108-16.964C-572.79,654.564-569.681,654.041-566.572,653.541Z" fill="#ffa988"/>
            <path id="Trazado_4011" data-name="Trazado 4011" d="M-575.908,655.059c3.118-.495,6.227-1.018,9.336-1.518v10.691c-3.694,1.143-6.883,4.149-10.308,6.354A122.253,122.253,0,0,0-575.908,655.059Z" fill="#f88864"/>
            <g id="Grupo_3809" data-name="Grupo 3809">
              <path id="Trazado_4012" data-name="Trazado 4012" d="M-550.832,674.826s-12.906-11.744-14.627-10.909c-2.84,1.378-1.352,6.124-1.352,6.124l14.527,7.637Z" fill="#a68b66"/>
              <path id="Trazado_4013" data-name="Trazado 4013" d="M-540.491,682.623a33.651,33.651,0,0,1-10.477,1.789c-5.66,0-10.954.826-14.224-.117s-14.585-2.114-14.585-2.114-.686-8.968.929-12.787c.524-1.239,2.25-1.36,2.25-1.36a5.8,5.8,0,0,0,.355,2.755c.818,2,2.312,2.4,4.059,2.4s2.466-4.069,5.422-4.069,13.027,7.634,14.478,6.668l1.452-.967s8.2,2.453,8.924,3.287S-540.491,682.623-540.491,682.623Z" fill="#cfae7f"/>
              <path id="Trazado_4014" data-name="Trazado 4014" d="M-541.113,682.312s.5-.2.622.267.763,2.98-1.049,3.226a63.554,63.554,0,0,1-14.6,1.14c-6.854-.421-22.512-.609-22.512-.609s-1.58-.234-1.58-.678-.512-3.253,0-3.674l.511-.421s8.552.889,10.376.889,8.775,1.009,11.416,1.009,6.35.227,9.634.046A51.869,51.869,0,0,0-541.113,682.312Z" fill="#53545d"/>
              <g id="Grupo_3808" data-name="Grupo 3808">
                <path id="Trazado_4015" data-name="Trazado 4015" d="M-551.076,674.2a1.408,1.408,0,0,0-1.664.095A5.263,5.263,0,0,0-554.4,676.1a.314.314,0,0,0,.064.4.225.225,0,0,0,.14.05.24.24,0,0,0,.2-.124,4.719,4.719,0,0,1,1.485-1.623c.47-.288.89-.336,1.153-.128a.228.228,0,0,0,.344-.074A.314.314,0,0,0-551.076,674.2Z" fill="#fff"/>
                <path id="Trazado_4016" data-name="Trazado 4016" d="M-554.141,673.577c.878-.237,1.53-.145,1.749.241a.23.23,0,0,0,.342.083.312.312,0,0,0,.072-.4,1.222,1.222,0,0,0-.818-.58.293.293,0,0,0,.07-.114.3.3,0,0,0-.151-.365c-.449-.181-.976.032-1.5.6a8.935,8.935,0,0,0-2.732,1.459.314.314,0,0,0-.072.4.241.241,0,0,0,.207.129.228.228,0,0,0,.136-.046,9.449,9.449,0,0,1,1.856-1.108,9.057,9.057,0,0,0-.869,1.983.3.3,0,0,0,.151.364.205.205,0,0,0,.083.017.252.252,0,0,0,.233-.19,7.344,7.344,0,0,1,1.213-2.44Z" fill="#fff"/>
                <path id="Trazado_4017" data-name="Trazado 4017" d="M-556.413,671.968c1.007-.27,1.756-.162,2.009.283a.228.228,0,0,0,.342.083.312.312,0,0,0,.072-.394,1.364,1.364,0,0,0-1-.646.268.268,0,0,0,.152-.17.3.3,0,0,0-.151-.364c-.508-.208-1.1.068-1.673.689a9.927,9.927,0,0,0-3.073,1.629.311.311,0,0,0-.072.394.241.241,0,0,0,.207.13.22.22,0,0,0,.135-.047,10.5,10.5,0,0,1,2.192-1.289,9.906,9.906,0,0,0-1.03,2.32.3.3,0,0,0,.151.364.218.218,0,0,0,.082.016.252.252,0,0,0,.233-.189A8.086,8.086,0,0,1-556.413,671.968Z" fill="#fff"/>
                <path id="Trazado_4018" data-name="Trazado 4018" d="M-558.93,669.74c1.079-.292,1.876-.168,2.153.322a.23.23,0,0,0,.343.083.314.314,0,0,0,.072-.4,1.482,1.482,0,0,0-1.169-.7.241.241,0,0,0,.266-.182.3.3,0,0,0-.151-.364c-.527-.215-1.151.049-1.773.734a10.563,10.563,0,0,0-3.26,1.729.313.313,0,0,0-.071.4.241.241,0,0,0,.207.129.222.222,0,0,0,.135-.047,11.328,11.328,0,0,1,2.381-1.4,10.616,10.616,0,0,0-1.122,2.519.3.3,0,0,0,.15.365.223.223,0,0,0,.083.016.252.252,0,0,0,.233-.19,8.877,8.877,0,0,1,1.466-2.946C-558.968,669.782-558.949,669.762-558.93,669.74Zm1.349-.7h.006a3.084,3.084,0,0,0-.4-.014A.622.622,0,0,1-557.581,669.041Z" fill="#fff"/>
              </g>
            </g>
          </g>
          <path id="Trazado_4019" data-name="Trazado 4019" d="M-585.558,528.668c.643,5.1,8.8,131.429,8.8,131.429,3.4-.042,7.847-.388,11.308-.562.777-26.4,9.073-98.112,9.886-132.612C-564.484,527.229-576.627,526.648-585.558,528.668Z" fill="#b67636"/>
          <path id="Trazado_4020" data-name="Trazado 4020" d="M-585.558,528.668c.14,1.112.637,7.978,1.328,18.037a24.244,24.244,0,0,1,4,.274,128.955,128.955,0,0,0,23.455,3.709c.615-8.924,1.057-17.051,1.215-23.765C-564.484,527.229-576.627,526.648-585.558,528.668Z" fill="#a36b31"/>
          <path id="Trazado_4021" data-name="Trazado 4021" d="M-579.83,612.854c1.68,25.673,3.073,47.243,3.073,47.243,3.4-.042,7.847-.388,11.308-.562.351-11.918,2.234-33.071,4.269-55.863C-565.83,608.616-572.7,611.591-579.83,612.854Z" fill="#a36b31"/>
          <path id="Trazado_4022" data-name="Trazado 4022" d="M-565.106,658.178l-.141,3.046a28.894,28.894,0,0,1-5.775.748c-3.157.079-5.934.026-5.934.026l-.23-3.128s3.277.245,5.352.2A65.454,65.454,0,0,0-565.106,658.178Z" fill="#a36b31"/>
          <path id="Trazado_4023" data-name="Trazado 4023" d="M-554.166,658.178l-.14,3.046a28.911,28.911,0,0,1-5.776.748c-3.157.079-5.934.026-5.934.026l-.23-3.128s3.277.245,5.352.2A65.454,65.454,0,0,0-554.166,658.178Z" fill="#875929"/>
          <path id="Trazado_4024" data-name="Trazado 4024" d="M-568.171,387.663c9.371-.585,21.2,4.058,21.2,4.058s-4.735,1.436-3.918,2.119c.917.766,6.594.285,6.594.285s-2.136,6.1-2.66,7.074c-4.226,7.84-10.453-3.391-15.279,3.009-2.1,2.782-.718,16.555-7.48,13.3-3.768-1.811-1.61.25-3.153,1.667-1.628,1.495.512,5.9-2.075,11.426-2.442,5.213-2.44,5.737-2.44,5.737l-2.519-.25s-1.813-3.012-5-8.361c-1.873-3.145-6.9-6.927-7.062-12.439C-592.589,394.64-580.746,388.448-568.171,387.663Z" fill="#5a3a32"/>
          <path id="Trazado_4025" data-name="Trazado 4025" d="M-554.19,400.206V398.5c-3.992-1.71-7.413,2.281-11.4,2.851-.57,0-1.14-1.141-1.71-1.711-2.851,5.132-1.711,9.693-8.553,11.974-5.8,1.933-4.229,12.462-9.861,14.935a12.926,12.926,0,0,1,.816,1.187c3.186,5.349,5,8.361,5,8.361l2.519.25s0-.524,2.44-5.737c2.587-5.522.447-9.931,2.075-11.426,1.543-1.417-.615-3.478,3.153-1.667,6.762,3.25,6.641-10.88,9.133-13.315,5.323-5.2,9.4,4.841,13.626-3,.087-.162.22-.4.377-.679A11.585,11.585,0,0,1-554.19,400.206Z" fill="#4a3029"/>
          <g id="Grupo_3811" data-name="Grupo 3811">
            <path id="Trazado_4026" data-name="Trazado 4026" d="M-570.024,417.208s0-4.143-3.555-3.314c-2.573.6-2.814,3.707-2.332,5.359,1.241,4.258,2.558,6.027,3.275,6.342,1.649.724,2.245-.508,2.245-.508s-.37-3.432-.421-4.645A10.653,10.653,0,0,1-570.024,417.208Z" fill="#ffa988"/>
            <path id="Trazado_4027" data-name="Trazado 4027" d="M-574.944,416.694a2.088,2.088,0,0,1,4.094.251c-.007.478-.007,2.408.038,3.5,0,.092.011,3.588.018,3.7C-573.666,423.477-570.558,415.7-574.944,416.694Z" fill="#f88864"/>
          </g>
          <path id="Trazado_4028" data-name="Trazado 4028" d="M-579.7,444.663s1.806-.714,5.008,1.067,9.909,5.508,11.76,5.508c0,0,6.11,9.556,7.946,19.294,4.237,22.463,6.4,73.686,6.4,73.686s-5.646,3.208-21.858,2.661c-12.293-.416-18.889-3.2-18.889-3.2s-4.833-66.558.079-81.468C-585.1,449.6-579.7,444.663-579.7,444.663Z" fill="#53545d"/>
          <path id="Trazado_4029" data-name="Trazado 4029" d="M-576.448,478.213c-4.416-3.785-4.651,5.885-4.416,8.2.84,8.28,5.047,24.6,15.141,29.651a46.305,46.305,0,0,0,15.845,4.559c-.355-5.529-.784-11.587-1.285-17.668C-561.762,498.246-566.912,485.24-576.448,478.213Z" fill="#42434a"/>
          <path id="Trazado_4030" data-name="Trazado 4030" d="M-562.845,402.448Z" fill="#613a13"/>
          <path id="Trazado_4031" data-name="Trazado 4031" d="M-550.239,411.9c-1.177-.666-3.907-1.166-5.255-.309a21.936,21.936,0,0,0-2.279,2.776,11.108,11.108,0,0,1,2.91-1.209c1.125-.024,4.02,1.215,4.831.268A1.4,1.4,0,0,0-550.239,411.9Z" fill="#4a3029"/>
          <g id="Grupo_3812" data-name="Grupo 3812">
            <path id="Trazado_4032" data-name="Trazado 4032" d="M-555.426,418.231a7.564,7.564,0,0,0,2.757.884c1.586.346,1.113-3.919,1.113-3.919a3.043,3.043,0,0,0-.951-.306,7.689,7.689,0,0,0-1.677.207,4.312,4.312,0,0,0-1.911,2C-556.229,417.477-556.076,417.724-555.426,418.231Z" fill="#fffffb"/>
            <path id="Trazado_4033" data-name="Trazado 4033" d="M-552.252,415.038c-.832-.089-1.555.618-1.607,1.808s.581,2.229,1.413,2.319a1.236,1.236,0,0,0,.428-.12,5.519,5.519,0,0,0,.462-3.849C-551.762,415.008-551.992,415.066-552.252,415.038Z" fill="#b67636"/>
            <path id="Trazado_4034" data-name="Trazado 4034" d="M-551.95,415.7c-.538-.058-.977.5-1.032,1.238-.119,1.62,1.15,1.529,1.209,1.52a5.469,5.469,0,0,0,.348-2.526A1.363,1.363,0,0,0-551.95,415.7Z"/>
            <path id="Trazado_4035" data-name="Trazado 4035" d="M-553.343,416.7a.673.673,0,0,0,.474.75c.278.029.517-.258.534-.642a.672.672,0,0,0-.474-.749C-553.087,416.029-553.326,416.316-553.343,416.7Z" fill="#fffffb"/>
            <path id="Trazado_4036" data-name="Trazado 4036" d="M-555.974,417.692a3.708,3.708,0,0,1,2.59-2.407,1.728,1.728,0,0,1,1.933.536c.3.285.832-.3.832-.3a6.229,6.229,0,0,0-1.011-.537,3.948,3.948,0,0,0-3.167.067,5.779,5.779,0,0,0-1.821,2.03C-556.645,417.47-555.974,417.692-555.974,417.692Z"/>
          </g>
          <g id="Grupo_3813" data-name="Grupo 3813">
            <path id="Trazado_4037" data-name="Trazado 4037" d="M-553.447,429.216l-3.184.034a5.424,5.424,0,0,0,3.889,3.533c.112.018,1.087.155,1.087.155l.764-3.682Z" fill="#fffffb"/>
            <path id="Trazado_4038" data-name="Trazado 4038" d="M-550.5,428.143l-2.62.118-2.778.427-1.874-.791,1.124,1.353h.018l3.184-.034,2.991.047-.435-.007s.495-.239.552-.4S-550.473,428.37-550.5,428.143Z" fill="#ea704c"/>
          </g>
          <path id="Trazado_4039" data-name="Trazado 4039" d="M-556.14,493.1c-.138-1.578-6.7-17.952-6.7-17.952l-13.927,8.566s11.843,21.346,20.137,23.937c4,1.251,8.123-1.682,8.043-7.991a21.694,21.694,0,0,0-3.535-12.5C-553.567,491.448-556.045,494.176-556.14,493.1Z" fill="#ffa988"/>
          <path id="Trazado_4040" data-name="Trazado 4040" d="M-584.273,462.855c-.589-4.693,3.167-7.9,7.714-9.121,10.406-2.8,17.818,27.558,17.818,27.558a65.818,65.818,0,0,1-10.11,4.857l-8.077,2.556S-583.819,466.472-584.273,462.855Z" fill="#53545d"/>
          <path id="Trazado_4041" data-name="Trazado 4041" d="M-545.779,490.026s3.609,5.642,2.767,7.955-4.474,4.35-6.528,4.176-6.6-9.054-6.6-9.054l-2.256-6.572s1.638-2.986,2.833-3.128,4.672,3.456,4.672,3.456Z" fill="#ffa988"/>
          <path id="Trazado_4042" data-name="Trazado 4042" d="M-556.211,483.7a11.02,11.02,0,0,0-2.185,2.826l2.256,6.572s.75,1.464,1.778,3.216C-554.314,491.952-553.981,487.611-556.211,483.7Z" fill="#f88864"/>
        </g>
      </g>
    </g>
    <g id="Elipse_568" data-name="Elipse 568" transform="translate(625 680)" fill="#59bfd6" stroke="#227d84" stroke-width="3">
      <circle cx="20" cy="20" r="20" stroke="none"/>
      <circle cx="20" cy="20" r="18.5" fill="none"/>
    </g>
    <path id="Trazado_3100" data-name="Trazado 3100" d="M14.96-3.234H12.452V0H8.976V-3.234H.682v-2.4L7.942-15.4h3.74L4.95-6.138H9.086V-9.02h3.366v2.882H14.96Z" transform="translate(637 708)" fill="#fff"/>
  </g>
</svg>
