<svg xmlns="http://www.w3.org/2000/svg" width="435" height="198" viewBox="0 0 435 198">
  <g id="Grupo_4373" data-name="Grupo 4373" transform="translate(-4929 639)">
    <rect id="Rectángulo_959" data-name="Rectángulo 959" width="435" height="198" transform="translate(4929 -639)" fill="#efefef"/>
    <path id="Trazado_4819" data-name="Trazado 4819" d="M-71.586,13.336a6.324,6.324,0,0,1,1.617-4.648,4.819,4.819,0,0,1,3.578-1.422,4.839,4.839,0,0,1,4.25,1.906,4.127,4.127,0,0,1,.8,2.148H-63.75a3.25,3.25,0,0,0-.6-1.25A2.447,2.447,0,0,0-66.3,9.32a2.412,2.412,0,0,0-2.07,1.059,5.089,5.089,0,0,0-.758,3,4.467,4.467,0,0,0,.8,2.9,2.53,2.53,0,0,0,2.035.965,2.328,2.328,0,0,0,1.93-.828,3.6,3.6,0,0,0,.609-1.336h2.383a5.169,5.169,0,0,1-1.6,3.063,4.68,4.68,0,0,1-3.293,1.18,4.967,4.967,0,0,1-3.906-1.594A6.379,6.379,0,0,1-71.586,13.336Zm17.148,3.945a2.749,2.749,0,0,0,2.27-1.055,4.713,4.713,0,0,0,.84-3,4.716,4.716,0,0,0-.84-3,2.745,2.745,0,0,0-2.27-1.059,2.781,2.781,0,0,0-2.281,1.055,4.667,4.667,0,0,0-.852,3,4.667,4.667,0,0,0,.852,3A2.781,2.781,0,0,0-54.437,17.281Zm5.516-4.055a6.228,6.228,0,0,1-1.742,4.75,5.021,5.021,0,0,1-3.773,1.344,5.021,5.021,0,0,1-3.773-1.344,6.212,6.212,0,0,1-1.75-4.75,6.09,6.09,0,0,1,1.75-4.75,5.021,5.021,0,0,1,3.773-1.344,5.021,5.021,0,0,1,3.773,1.344A6.105,6.105,0,0,1-48.922,13.227Zm1.8-5.742H-44.6l4.586,8.039V7.484h2.242V19H-40.18l-4.7-8.18V19h-2.242Zm13.336,7.961a2.365,2.365,0,0,0,.43,1.18,2.472,2.472,0,0,0,2.008.711,4.237,4.237,0,0,0,1.383-.187,1.336,1.336,0,0,0,1.008-1.336.986.986,0,0,0-.5-.883,5.377,5.377,0,0,0-1.57-.539l-1.219-.273a7.7,7.7,0,0,1-2.484-.883A2.808,2.808,0,0,1-35.9,10.742a3.328,3.328,0,0,1,1.125-2.57,4.757,4.757,0,0,1,3.3-1.023,5.024,5.024,0,0,1,3.105.965,3.445,3.445,0,0,1,1.348,2.8h-2.312a1.652,1.652,0,0,0-.906-1.477,3.039,3.039,0,0,0-1.4-.289,2.611,2.611,0,0,0-1.484.375,1.194,1.194,0,0,0-.555,1.047.991.991,0,0,0,.547.922,6.694,6.694,0,0,0,1.5.477l1.984.477a5.13,5.13,0,0,1,1.969.836,2.816,2.816,0,0,1,1.031,2.352,3.319,3.319,0,0,1-1.207,2.621,5.057,5.057,0,0,1-3.41,1.043A5.531,5.531,0,0,1-34.8,18.27a3.414,3.414,0,0,1-1.289-2.824Zm17.445-5.922h-6.094v2.445h5.594v2h-5.594V16.93h6.375V19h-8.727V7.484h8.445Zm2.117-2.039H-11.7l4.586,8.039V7.484h2.242V19H-7.281l-4.7-8.18V19h-2.242Zm19.961,0V9.523H2.289V19H-.133V9.523H-3.594V7.484ZM9.344,19H6.953V7.484H9.344ZM19.219,7.484H22.68V19H20.438V11.211q0-.336.008-.941t.008-.934L18.273,19H15.938L13.773,9.336q0,.328.008.934t.008.941V19H11.547V7.484h3.5l2.094,9.055ZM27.117,19H24.727V7.484h2.391ZM37.875,9.523H31.781v2.445h5.594v2H31.781V16.93h6.375V19H29.43V7.484h8.445Zm2.117-2.039h2.523L47.1,15.523V7.484h2.242V19H46.938l-4.7-8.18V19H39.992Zm19.961,0V9.523H56.508V19H54.086V9.523H50.625V7.484Zm6.219,9.8a2.749,2.749,0,0,0,2.27-1.055,4.713,4.713,0,0,0,.84-3,4.716,4.716,0,0,0-.84-3,2.745,2.745,0,0,0-2.27-1.059,2.781,2.781,0,0,0-2.281,1.055,4.667,4.667,0,0,0-.852,3,4.667,4.667,0,0,0,.852,3A2.781,2.781,0,0,0,66.172,17.281Zm5.516-4.055a6.228,6.228,0,0,1-1.742,4.75,5.021,5.021,0,0,1-3.773,1.344A5.021,5.021,0,0,1,62.4,17.977a6.212,6.212,0,0,1-1.75-4.75,6.09,6.09,0,0,1,1.75-4.75,5.021,5.021,0,0,1,3.773-1.344,5.021,5.021,0,0,1,3.773,1.344A6.105,6.105,0,0,1,71.688,13.227ZM-45.906,38H-48.3V26.484h2.391Zm2.2-11.516h2.523l4.586,8.039V26.484h2.242V38h-2.406l-4.7-8.18V38H-43.7Zm11.594.016h8.164v2.023h-5.773v2.648h5.055v2h-5.055V38h-2.391Zm14.867,9.781a2.749,2.749,0,0,0,2.27-1.055,4.713,4.713,0,0,0,.84-3,4.716,4.716,0,0,0-.84-3,2.745,2.745,0,0,0-2.27-1.059,2.781,2.781,0,0,0-2.281,1.055,4.667,4.667,0,0,0-.852,3,4.667,4.667,0,0,0,.852,3A2.781,2.781,0,0,0-17.242,36.281Zm5.516-4.055a6.228,6.228,0,0,1-1.742,4.75,5.021,5.021,0,0,1-3.773,1.344,5.021,5.021,0,0,1-3.773-1.344,6.212,6.212,0,0,1-1.75-4.75,6.09,6.09,0,0,1,1.75-4.75,5.021,5.021,0,0,1,3.773-1.344,5.021,5.021,0,0,1,3.773,1.344A6.105,6.105,0,0,1-11.727,32.227Zm4.242-3.742v3.094h2.727a3.039,3.039,0,0,0,1.219-.187,1.283,1.283,0,0,0,.719-1.3,1.431,1.431,0,0,0-.7-1.406,2.628,2.628,0,0,0-1.172-.2Zm3.3-2a5.262,5.262,0,0,1,1.863.3,2.911,2.911,0,0,1,1.105.8,3.565,3.565,0,0,1,.594.969,3.157,3.157,0,0,1,.219,1.211A3.45,3.45,0,0,1-.82,31.379,2.314,2.314,0,0,1-2.187,32.5a2.15,2.15,0,0,1,1.129.91,3.789,3.789,0,0,1,.332,1.8v.773a5.916,5.916,0,0,0,.063,1.07.961.961,0,0,0,.438.656V38H-2.875q-.109-.383-.156-.617a5.671,5.671,0,0,1-.1-.992l-.016-1.07a2.091,2.091,0,0,0-.4-1.469A2.135,2.135,0,0,0-5,33.484H-7.484V38H-9.836V26.484Zm13.484,0h3.461V38H10.516V30.211q0-.336.008-.941t.008-.934L8.352,38H6.016L3.852,28.336q0,.328.008.934t.008.941V38H1.625V26.484h3.5l2.094,9.055Zm8.844,7.164h2.922l-1.437-4.531Zm.148-7.164h2.719L25.086,38H22.477l-.742-2.367H17.492L16.7,38H14.18Zm10.594,2V36H31.1a2.4,2.4,0,0,0,2.375-1.68,5.924,5.924,0,0,0,.367-2.2,5.4,5.4,0,0,0-.551-2.7,2.325,2.325,0,0,0-2.191-.941Zm2.625-2a6.053,6.053,0,0,1,1.781.25A3.8,3.8,0,0,1,35.25,28.2a5.125,5.125,0,0,1,.82,1.859,8.926,8.926,0,0,1,.219,1.906,7.654,7.654,0,0,1-.922,3.891A4.16,4.16,0,0,1,31.508,38H26.547V26.484Zm11.688,9.8a2.749,2.749,0,0,0,2.27-1.055,4.713,4.713,0,0,0,.84-3,4.716,4.716,0,0,0-.84-3,2.745,2.745,0,0,0-2.27-1.059,2.781,2.781,0,0,0-2.281,1.055,4.667,4.667,0,0,0-.852,3,4.667,4.667,0,0,0,.852,3A2.781,2.781,0,0,0,43.2,36.281Zm5.516-4.055a6.228,6.228,0,0,1-1.742,4.75A5.021,5.021,0,0,1,43.2,38.32a5.021,5.021,0,0,1-3.773-1.344,6.212,6.212,0,0,1-1.75-4.75,6.09,6.09,0,0,1,1.75-4.75A5.021,5.021,0,0,1,43.2,26.133a5.021,5.021,0,0,1,3.773,1.344A6.105,6.105,0,0,1,48.711,32.227Z" transform="translate(5240 -551)" fill="#59bfd6"/>
    <path id="Trazado_4818" data-name="Trazado 4818" d="M11.27,19l-1.025-2.91H4.316L3.291,19h-3l5.2-14.111H9.072L14.268,19ZM5.176,13.639H9.385l-2.1-5.986Zm17.08-8.75A4.247,4.247,0,0,1,25.508,6.2a4.569,4.569,0,0,1,1.23,3.247,4.456,4.456,0,0,1-1.221,3.228,4.324,4.324,0,0,1-3.262,1.265H19.316V19h-2.93V4.889Zm-.488,6.6a2.153,2.153,0,0,0,1.611-.552,2.1,2.1,0,0,0,.537-1.528A2.081,2.081,0,0,0,23.374,7.9a2.134,2.134,0,0,0-1.606-.562H19.316v4.15Zm10.361,4.922h4.424V19H29.2V4.889h2.93ZM38.789,19V4.889h2.93V19Zm12.822.2a7.877,7.877,0,0,1-2.876-.518,6.763,6.763,0,0,1-2.29-1.445,6.515,6.515,0,0,1-1.5-2.295,8,8,0,0,1-.547-3,7.644,7.644,0,0,1,.938-3.833,6.382,6.382,0,0,1,2.573-2.534,7.705,7.705,0,0,1,3.706-.879,7.488,7.488,0,0,1,4.141,1.143A6.255,6.255,0,0,1,58.281,8.98l-2.734,1a3.866,3.866,0,0,0-1.514-1.9,4.323,4.323,0,0,0-2.422-.684,4.145,4.145,0,0,0-3.086,1.23,4.528,4.528,0,0,0-1.211,3.32,4.534,4.534,0,0,0,1.216,3.325A4.14,4.14,0,0,0,51.611,16.5a4.307,4.307,0,0,0,2.417-.688A3.883,3.883,0,0,0,55.547,13.9l2.734,1a6.28,6.28,0,0,1-2.529,3.149A7.464,7.464,0,0,1,51.611,19.2ZM70.127,19,69.1,16.09H63.174L62.148,19h-3l5.2-14.111H67.93L73.125,19Zm-6.094-5.361h4.209l-2.1-5.986Z" transform="translate(5208 -572)" fill="#707070"/>
    <g id="Grupo_4372" data-name="Grupo 4372">
      <g id="Elipse_568" data-name="Elipse 568" transform="translate(4958 -616)" fill="#59bfd6" stroke="#227d84" stroke-width="3">
        <circle cx="20" cy="20" r="20" stroke="none"/>
        <circle cx="20" cy="20" r="18.5" fill="none"/>
      </g>
      <path id="Trazado_3105" data-name="Trazado 3105" d="M6.138-9.614a7.4,7.4,0,0,1,4.807,1.3A4.3,4.3,0,0,1,12.5-4.84a4.829,4.829,0,0,1-.7,2.563A4.917,4.917,0,0,1,9.647-.429,8.162,8.162,0,0,1,6.094.264a12.112,12.112,0,0,1-3.2-.429A8.245,8.245,0,0,1,.22-1.386L1.628-4.114A6.739,6.739,0,0,0,3.652-3.091a7.737,7.737,0,0,0,2.354.363,3.688,3.688,0,0,0,2.112-.528,1.688,1.688,0,0,0,.77-1.474,1.656,1.656,0,0,0-.8-1.5A5.541,5.541,0,0,0,5.3-6.732H1.364L2.156-15.4H11.55v2.86H5.126L4.884-9.614Z" transform="translate(4972 -588)" fill="#fff"/>
    </g>
    <g id="Grupo_4371" data-name="Grupo 4371" transform="translate(4457.116 -969.251)">
      <g id="Grupo_3681" data-name="Grupo 3681" transform="translate(592.884 352.911)">
        <rect id="Rectángulo_1003" data-name="Rectángulo 1003" width="95.201" height="158.34" rx="10" fill="#404040"/>
        <rect id="Rectángulo_1004" data-name="Rectángulo 1004" width="82.87" height="137.623" rx="3.398" transform="translate(6.166 12.563)" fill="#fff"/>
        <path id="Trazado_3737" data-name="Trazado 3737" d="M709.149,516.714a33.542,33.542,0,0,1-10.39,24.385q-1,.955-2.082,1.819a31.886,31.886,0,0,1-16.629,6.874l-.312.031-.126.012-.277.024q-1.145.1-2.313.108h-.267c-.2,0-.4,0-.6,0q-1.477-.023-2.922-.181-.187-.02-.375-.043-.394-.047-.785-.1c-.173-.025-.347-.052-.519-.08a31.987,31.987,0,0,1-15.915-7.519q-1.079-.942-2.074-1.976a33.561,33.561,0,0,1-9.346-23.345c0-18.367,14.536-33.254,32.465-33.254S709.149,498.347,709.149,516.714Z" transform="translate(-629.07 -456.278)" fill="#bbe5e7" stroke="#bbe5e7" stroke-miterlimit="10" stroke-width="5"/>
        <circle id="Elipse_700" data-name="Elipse 700" cx="2.62" cy="2.62" r="2.62" transform="translate(44.98 2.172)" fill="#fff" opacity="0.36"/>
        <path id="Trazado_3738" data-name="Trazado 3738" d="M871.914,1384.816h-12.85a1.765,1.765,0,0,1-1.76-1.76h0a1.765,1.765,0,0,1,1.76-1.76h12.85a1.765,1.765,0,0,1,1.76,1.76h0A1.765,1.765,0,0,1,871.914,1384.816Z" transform="translate(-818.175 -1229.114)" fill="#fff" opacity="0.36"/>
      </g>
      <g id="Grupo_3696" data-name="Grupo 3696" transform="translate(615.707 381.702)">
        <path id="Trazado_3762" data-name="Trazado 3762" d="M802.885,535.549a0,0,0,0,0,0,0h0a2.424,2.424,0,0,1,.051-1.186s0,0,0-.006a.808.808,0,0,1,.057-.116.148.148,0,0,1,.01-.019c.013-.022.026-.051.044-.086.057-.125.14-.328.239-.585a.005.005,0,0,0,0,0c.332-.853.841-2.293,1.173-3.388.107-.356.2-.675.253-.926.117-.509.219-1.02.3-1.532h0a12.851,12.851,0,0,0-.89-7.844s0,0,0-.008a10.128,10.128,0,0,0-.975-1.559h0a10.253,10.253,0,0,0-1.888-1.914c-.005,0-.009-.008-.012-.008a11.54,11.54,0,0,0-3.235-1.737h-.005a13.913,13.913,0,0,0-1.667-.473,17.864,17.864,0,0,0-3.024-.4c-.18-.006-.36-.01-.547-.006-5.322.085-14.11,4.894-12.419,14.21a15.783,15.783,0,0,0,.623,2.342,20.587,20.587,0,0,0,1.016,2.4.745.745,0,0,1-.08.287s0,0,0,0c-.084.219-.23.553-.423.98h0c-1.476,3.253-5.744,11.864-7.05,15.671-1.326,3.858,1.691,6.252,6.447,7.549l.037.012h0l.01,0q.505.137,1.034.257h0a37.952,37.952,0,0,0,5,.76h.015l.023,0a.008.008,0,0,0,.008,0c.08.008.158.015.238.021h0q.667.058,1.346.1h0c1.57.091,3.178.116,4.77.081h0q.843-.019,1.677-.059h.018l.108-.005.143-.008h.008a57.526,57.526,0,0,0,5.833-.6c.777-.121,1.523-.257,2.226-.408.266-.057.525-.116.779-.176l.05-.012c3.175-.763,5.337-1.816,5.535-3.024C810.162,551.61,803.5,539.9,802.885,535.549Z" transform="translate(-767.427 -513.748)" fill="#b55959" opacity="0.99"/>
        <path id="Trazado_3763" data-name="Trazado 3763" d="M834.75,662.7s-2.72-8.372-3.723-5.538c-.9,2.539,2.35,9.47-.3,17.183-1.752,5.1,3.921,7.865,5.682,8.307s7.863-2.612,11-2.787c10.307-.574-.483-10.9,4.627-21.168C853.838,655.069,834.75,662.7,834.75,662.7Z" transform="translate(-816.465 -638.205)" fill="#9e3939" opacity="0.55"/>
        <path id="Trazado_3764" data-name="Trazado 3764" d="M880.056,769.5l-7.265-.138a.386.386,0,0,1-.4-.37l.554-22.919a.391.391,0,0,1,.417-.354l7.265.138a.387.387,0,0,1,.4.37l-.554,22.919A.391.391,0,0,1,880.056,769.5Z" transform="translate(-853.058 -715.881)" fill="#f2bab6"/>
        <ellipse id="Elipse_701" data-name="Elipse 701" cx="2.353" cy="2.088" rx="2.353" ry="2.088" transform="translate(34.076 16.336)" fill="#eda9a4"/>
        <ellipse id="Elipse_702" data-name="Elipse 702" cx="2.109" cy="1.871" rx="2.109" ry="1.871" transform="translate(11.385 16.553)" fill="#eda9a4"/>
        <ellipse id="Elipse_703" data-name="Elipse 703" cx="2.353" cy="2.088" rx="2.353" ry="2.088" transform="translate(34.076 16.336)" fill="#eda9a4"/>
        <ellipse id="Elipse_704" data-name="Elipse 704" cx="15.728" cy="10.668" rx="15.728" ry="10.668" transform="translate(12.94 32.043) rotate(-83.238)" fill="#f7cbc6"/>
        <path id="Trazado_3765" data-name="Trazado 3765" d="M938.841,567.631c-.064,3.2,1.934,3.842,3.871,5.538,2.324,2.033,4.71,3.3,4.377,2.957l-8.226-8.5A.013.013,0,0,0,938.841,567.631Z" transform="translate(-910.961 -560.691)" fill="#9e3939" opacity="0.55"/>
        <path id="Trazado_3766" data-name="Trazado 3766" d="M851.324,536.974c-.579-.24-2.751-3.41-5.6-5.151-2.72-1.663-2.6-3.094-3.047-3.7-.637.7-1.323,3.1-3.62,3.87-3.208,1.08-8.022.567-9.386,5.2-3.226-6.553.825-15.617,11.683-15.534C852.309,521.74,855.314,530.858,851.324,536.974Z" transform="translate(-814.894 -520.639)" fill="#b55959" opacity="0.99"/>
        <path id="Trazado_3768" data-name="Trazado 3768" d="M902.212,731.007l-2.84-1.46a.046.046,0,0,1-.02-.066l.488-.747a.059.059,0,0,1,.075-.018l2.84,1.46a.046.046,0,0,1,.02.066l-.488.747A.059.059,0,0,1,902.212,731.007Z" transform="translate(-876.545 -701.063)" fill="#ef8f99"/>
        <path id="Trazado_3769" data-name="Trazado 3769" d="M916.671,729.829l2.7-1.66a.06.06,0,0,1,.076.012l.555.709a.045.045,0,0,1-.014.068l-2.7,1.66a.059.059,0,0,1-.076-.012l-.555-.709A.045.045,0,0,1,916.671,729.829Z" transform="translate(-891.623 -700.585)" fill="#ef8f99"/>
        <path id="Trazado_3770" data-name="Trazado 3770" d="M881.018,859.83s-2.266.181-3.245.188h-.285c-.214,0-.427,0-.639-.005q-1.785-.025-3.529-.194l-1.4-.244.069-5.5.019-1.538h0l.082-6.51h0l.054-4.127v-.2h0l0-.16h0l0-.136h0l.053-4.252,0-.149,0-.217v-.112l.01-.844v-.075l.017-1.425.005-.324c0,.081.006.161.014.24h0v.005h0a4.231,4.231,0,0,0,1.363,2.853c.063.058.13.112.2.165h0a4,4,0,0,0,2.478.8,3.86,3.86,0,0,0,2.292-.716h0a3.9,3.9,0,0,0,.615-.552,4.357,4.357,0,0,0,.94-1.7,4.87,4.87,0,0,0,.167-.8v-.006c.019-.148.031-.3.036-.45v.062l.015,1.129.028,2.257.048,3.8,0,.14v.225l0,.21.062,4.885v0l.005.336h0l.021,1.577v.03Z" transform="translate(-852.648 -792.664)" fill="#0683b5"/>
        <g id="Grupo_3684" data-name="Grupo 3684" transform="translate(0 41.657)">
          <path id="Trazado_3771" data-name="Trazado 3771" d="M741.342,863.078a34.27,34.27,0,0,1-17.05-8.055q-1.155-1.009-2.222-2.117l1.209-4.463c.877-3.238,4.943-6.631,9.49-7.985l.742-.223h0l2.049-.609h0l1.341-.4h0l1.573-.469h0l.525-.156.111-.032,2.406-.718v.015l.013.265.019.39.072,1.507v.006l.008.134.016.336.008.145.2,4.13.008.134,0,.1,0,.06v.042l.009.2.21,4.339.359,7.508h0l.081,1.7.211,4.423,0,.046Z" transform="translate(-722.07 -837.824)" fill="#fff"/>
          <g id="Grupo_3683" data-name="Grupo 3683" transform="translate(10.697)">
            <path id="Trazado_3772" data-name="Trazado 3772" d="M814.659,845.219l-.321.1-1.8.531-6.728,1.989-.568-7.371L814,837.851l.327,7.225.325-.139Z" transform="translate(-805.246 -837.825)" fill="#9edae8"/>
            <path id="Trazado_3773" data-name="Trazado 3773" d="M819.033,904.941l-.059-.068L809.8,894.406l6.726-2.852,1.778-.756.323-.136.005.269Z" transform="translate(-809.213 -883.843)" fill="#9edae8"/>
            <path id="Trazado_3774" data-name="Trazado 3774" d="M819.754,844.821l-7.986,2.352-.753-7.148,8.155-2.377Z" transform="translate(-810.273 -837.649)" fill="#fff"/>
            <path id="Trazado_3775" data-name="Trazado 3775" d="M825.088,904.125l-8.353-9.183,7.984-3.384Z" transform="translate(-815.257 -884.626)" fill="#fff"/>
          </g>
        </g>
        <path id="Trazado_3776" data-name="Trazado 3776" d="M958.958,850.082q-1.075,1.022-2.23,1.948a34.159,34.159,0,0,1-17.815,7.364l-.13-6.051-.255-12.077-.008-.208v-.207l-.136-6.3-.024-1.2v-.018l2.4.62.04.01h0l.131.033,2.8.721h0l2.788.719h0l.757.2.051.014c4.6,1.2,8.765,4.566,9.731,7.9Z" transform="translate(-910.543 -792.228)" fill="#fff"/>
        <g id="Grupo_3685" data-name="Grupo 3685" transform="translate(27.601 41.083)">
          <path id="Trazado_3777" data-name="Trazado 3777" d="M937.221,841.2l.322.085,1.8.457,6.738,1.712.192-7.8-8.921-2.307.181,7.689-.329-.128Z" transform="translate(-937.139 -833.321)" fill="#9edae8"/>
          <path id="Trazado_3778" data-name="Trazado 3778" d="M937.594,904.25l.052-.069,8.28-11.011-6.784-2.607-1.8-.694-.328-.125.013.281Z" transform="translate(-936.971 -882.469)" fill="#9edae8"/>
          <path id="Trazado_3779" data-name="Trazado 3779" d="M936.679,840.835l8.006,2.023.373-7.587-8.307-2.085Z" transform="translate(-936.679 -833.187)" fill="#fff"/>
          <path id="Trazado_3780" data-name="Trazado 3780" d="M937.2,903.511l7.559-9.711-8.062-3.1Z" transform="translate(-936.695 -883.306)" fill="#fff"/>
        </g>
        <g id="Grupo_3693" data-name="Grupo 3693" transform="translate(11.615 37.5)">
          <g id="Grupo_3686" data-name="Grupo 3686" transform="translate(1.08 0.49)">
            <path id="Trazado_3781" data-name="Trazado 3781" d="M822.2,827.323c-3.074-3.538-.586-12.478,1.981-15.548a9.224,9.224,0,0,1,3.519-2.638l.15.356a8.844,8.844,0,0,0-3.373,2.53,17.674,17.674,0,0,0-3.022,7.433c-.61,3.378-.233,6.154,1.036,7.614Z" transform="translate(-820.778 -809.137)" fill="#021416"/>
          </g>
          <g id="Grupo_3692" data-name="Grupo 3692">
            <g id="Grupo_3687" data-name="Grupo 3687" transform="translate(16.149)">
              <path id="Trazado_3782" data-name="Trazado 3782" d="M944.486,819.542l-.384-.041c.753-7.023-.936-11.453-5.165-13.544a3.51,3.51,0,0,0-1-.248l.054-.382a3.792,3.792,0,0,1,1.113.284C943.5,807.782,945.258,812.339,944.486,819.542Z" transform="translate(-937.942 -805.327)" fill="#021416"/>
            </g>
            <g id="Grupo_3691" data-name="Grupo 3691" transform="translate(0 13.693)">
              <g id="Grupo_3689" data-name="Grupo 3689" transform="translate(0 2.944)">
                <g id="Grupo_3688" data-name="Grupo 3688">
                  <ellipse id="Elipse_705" data-name="Elipse 705" cx="2.649" cy="2.35" rx="2.649" ry="2.35" fill="#c1c1bd"/>
                </g>
                <ellipse id="Elipse_706" data-name="Elipse 706" cx="1.404" cy="1.245" rx="1.404" ry="1.245" transform="translate(1.245 1.105)" fill="#757572"/>
              </g>
              <g id="Grupo_3690" data-name="Grupo 3690" transform="translate(12.909)">
                <path id="Trazado_3783" data-name="Trazado 3783" d="M921.418,923.9h-.373v-.386h.373a1.043,1.043,0,0,0,1.012-.663c.7-2.178,2.748-9.371-.458-10.5a3.838,3.838,0,0,0-3.223.5,13.607,13.607,0,0,0-5.6,7.6.849.849,0,0,0,.457.895l.376.215-.191.335-.376-.215a1.229,1.229,0,0,1-.644-1.306,13.839,13.839,0,0,1,5.785-7.856,4.2,4.2,0,0,1,3.542-.524c3.438,1.214,1.632,8.087.7,10.985A1.431,1.431,0,0,1,921.418,923.9Z" transform="translate(-912.751 -911.794)" fill="#021416"/>
              </g>
              <path id="Trazado_3784" data-name="Trazado 3784" d="M918.13,985.2a.794.794,0,1,1-.789-.7A.748.748,0,0,1,918.13,985.2Z" transform="translate(-903.155 -975.15)" fill="#757572"/>
              <path id="Trazado_3785" data-name="Trazado 3785" d="M972.68,999.707a.794.794,0,1,1-.789-.7A.748.748,0,0,1,972.68,999.707Z" transform="translate(-950.689 -987.79)" fill="#757572"/>
            </g>
          </g>
        </g>
        <path id="Trazado_3786" data-name="Trazado 3786" d="M781.995,771.31s-3.334,5.645,0,7.149C781.995,778.459,780.536,774.3,781.995,771.31Z" transform="translate(-772.997 -738.185)" fill="#d88080"/>
        <path id="Trazado_3787" data-name="Trazado 3787" d="M1002.012,729.909s2.465,2.719,2.465,4.317Z" transform="translate(-966.009 -702.108)" fill="#d88080"/>
        <path id="Trazado_3788" data-name="Trazado 3788" d="M838.651,533.186s-5.762,3.455-8.254,6.285C830.4,539.471,834.39,533.925,838.651,533.186Z" transform="translate(-816.465 -530.686)" fill="#d88080"/>
        <path id="Trazado_3789" data-name="Trazado 3789" d="M1006.515,595.825a6.61,6.61,0,0,1,0,3.843Z" transform="translate(-969.933 -585.269)" fill="#d88080"/>
        <path id="Trazado_3790" data-name="Trazado 3790" d="M860.608,558.817a27.6,27.6,0,0,0-5.052,3.846S858,559.27,860.608,558.817Z" transform="translate(-838.388 -553.021)" fill="#d88080"/>
        <path id="Trazado_3791" data-name="Trazado 3791" d="M951.351,529.719s4.139,4.958,5.43,8.361C956.781,538.08,955.093,531.673,951.351,529.719Z" transform="translate(-921.863 -527.665)" fill="#d88080"/>
        <path id="Trazado_3792" data-name="Trazado 3792" d="M949.315,542.035s2.465,2.719,2.465,4.317Z" transform="translate(-920.089 -538.397)" fill="#d88080"/>
        <g id="Grupo_3694" data-name="Grupo 3694" transform="translate(20.566 16.167)">
          <path id="Trazado_3793" data-name="Trazado 3793" d="M883.631,640.766a1.545,1.545,0,0,1-.429,1.147.6.6,0,0,1-.4.162c-.457,0-.826-.587-.826-1.309,0-.665.312-1.215.718-1.3a.526.526,0,0,1,.109-.012.7.7,0,0,1,.57.365.268.268,0,0,0-.215.251.279.279,0,0,0,.294.261.322.322,0,0,0,.123-.024A2.013,2.013,0,0,1,883.631,640.766Z" transform="translate(-881.978 -639.455)"/>
          <path id="Trazado_3794" data-name="Trazado 3794" d="M883.2,641.991a.6.6,0,0,1-.4.162c-.457,0-.826-.586-.826-1.309,0-.665.312-1.215.718-1.3a2.112,2.112,0,0,0-.287,1.611A1.264,1.264,0,0,0,883.2,641.991Z" transform="translate(-881.978 -639.533)" fill="#665757" opacity="0.47"/>
        </g>
        <g id="Grupo_3695" data-name="Grupo 3695" transform="translate(29.488 16.173)">
          <path id="Trazado_3795" data-name="Trazado 3795" d="M953,640.811a1.545,1.545,0,0,1-.429,1.147.6.6,0,0,1-.4.162c-.457,0-.826-.586-.826-1.309,0-.665.312-1.215.718-1.3a.52.52,0,0,1,.109-.012.7.7,0,0,1,.57.365.268.268,0,0,0-.214.251.279.279,0,0,0,.294.261.32.32,0,0,0,.123-.024A2.011,2.011,0,0,1,953,640.811Z" transform="translate(-951.351 -639.5)"/>
          <path id="Trazado_3796" data-name="Trazado 3796" d="M952.575,642.036a.6.6,0,0,1-.4.162c-.457,0-.826-.587-.826-1.309,0-.665.312-1.215.718-1.3a2.113,2.113,0,0,0-.287,1.611A1.265,1.265,0,0,0,952.575,642.036Z" transform="translate(-951.351 -639.578)" fill="#665757" opacity="0.47"/>
        </g>
      </g>
      <g id="Grupo_3705" data-name="Grupo 3705" transform="translate(610.983 479.599)">
        <g id="Grupo_3697" data-name="Grupo 3697" transform="translate(0 0)">
          <circle id="Elipse_707" data-name="Elipse 707" cx="7.904" cy="7.904" r="7.904" transform="translate(41.326 6.049) rotate(-22.5)" fill="#bbe5e7"/>
          <circle id="Elipse_708" data-name="Elipse 708" cx="7.904" cy="7.904" r="7.904" transform="translate(19.747 6.049) rotate(-22.5)" fill="#bbe5e7"/>
          <circle id="Elipse_709" data-name="Elipse 709" cx="7.904" cy="7.904" r="7.904" transform="translate(0 2.563)" fill="#55acd8"/>
        </g>
        <g id="Grupo_3698" data-name="Grupo 3698" transform="translate(3.272 8.169)">
          <rect id="Rectángulo_1006" data-name="Rectángulo 1006" width="6.91" height="4.587" fill="#fff"/>
          <path id="Trazado_3797" data-name="Trazado 3797" d="M779.413,1264.3a.422.422,0,0,1,.623.4l-.033,1.846-.033,1.846a.42.42,0,0,1-.637.377l-1.476-.954-2.1-1.356,2.146-1.269Z" transform="translate(-770.067 -1264.243)" fill="#fff"/>
        </g>
        <g id="Grupo_3701" data-name="Grupo 3701" transform="translate(47.633 6.43)">
          <path id="Trazado_3798" data-name="Trazado 3798" d="M1044.118,1259.2l-.448-.7a1.157,1.157,0,0,0-1.509-.417,1.11,1.11,0,0,0-.346.291.218.218,0,0,1-.355-.017l-1.655-2.572a.357.357,0,0,1,.126-.507,1.15,1.15,0,0,0,.136-.087h0a1.131,1.131,0,0,0,.229-1.579l-.521-.7a1.131,1.131,0,0,0-1.579-.228h0c-1.4.719-1.177,2.3-.949,3.6a6.648,6.648,0,0,0,2.561,3.98,2.994,2.994,0,0,0,3.976.489A1.13,1.13,0,0,0,1044.118,1259.2Z" transform="translate(-1037.077 -1252.468)" fill="#fff"/>
          <g id="Grupo_3699" data-name="Grupo 3699" transform="translate(5.579 0.176)">
            <path id="Trazado_3799" data-name="Trazado 3799" d="M1077.382,1258.121a.148.148,0,0,1-.138-.2,3.109,3.109,0,0,0-.539-2.292,3.236,3.236,0,0,0-1.8-1.675.148.148,0,1,1,.046-.292,3.558,3.558,0,0,1,2.01,1.819,3.428,3.428,0,0,1,.559,2.546A.148.148,0,0,1,1077.382,1258.121Z" transform="translate(-1074.781 -1253.66)" fill="#fff"/>
          </g>
          <g id="Grupo_3700" data-name="Grupo 3700" transform="translate(4.504 1.533)">
            <path id="Trazado_3800" data-name="Trazado 3800" d="M1069.2,1266.385a.144.144,0,0,1-.084-.026.148.148,0,0,1-.038-.206,1.422,1.422,0,0,0-.021-1.142,3.211,3.211,0,0,0-1.449-1.9.148.148,0,1,1,.1-.278,3.42,3.42,0,0,1,1.63,2.085,1.657,1.657,0,0,1-.016,1.4A.148.148,0,0,1,1069.2,1266.385Z" transform="translate(-1067.511 -1262.827)" fill="#fff"/>
          </g>
        </g>
        <g id="Grupo_3704" data-name="Grupo 3704" transform="translate(26.283 5.06)">
          <rect id="Rectángulo_1007" data-name="Rectángulo 1007" width="3.264" height="7.554" rx="1.632" transform="translate(2.273)" fill="#fff"/>
          <path id="Trazado_3801" data-name="Trazado 3801" d="M917.882,1294.016h0a.228.228,0,0,1-.228-.228v-2.06a.228.228,0,0,1,.228-.228h0a.229.229,0,0,1,.228.228v2.06A.228.228,0,0,1,917.882,1294.016Z" transform="translate(-913.977 -1284.354)" fill="#fff"/>
          <path id="Trazado_3802" data-name="Trazado 3802" d="M914.315,1307.18h-1.379a.278.278,0,0,1-.277-.278h0a.278.278,0,0,1,.277-.277h1.379a.278.278,0,0,1,.277.277h0A.278.278,0,0,1,914.315,1307.18Z" transform="translate(-909.72 -1297.241)" fill="#fff"/>
          <g id="Grupo_3703" data-name="Grupo 3703" transform="translate(0 2.283)">
            <g id="Grupo_3702" data-name="Grupo 3702" transform="translate(1.31 2.021)">
              <path id="Trazado_3803" data-name="Trazado 3803" d="M904.456,1276.31h-.11c-2.695-.076-2.691-1.913-2.688-3.69v-.179a.148.148,0,0,1,.148-.148h0a.148.148,0,0,1,.148.148v.18c0,1.785-.006,3.327,2.4,3.394a2.028,2.028,0,0,0,1.552-.5,3.848,3.848,0,0,0,.64-2.743c0-.119,0-.23,0-.331a.148.148,0,1,1,.3,0c0,.1,0,.208,0,.326a4.061,4.061,0,0,1-.727,2.959A2.261,2.261,0,0,1,904.456,1276.31Z" transform="translate(-901.658 -1272.291)" fill="#fff"/>
            </g>
            <path id="Trazado_3804" data-name="Trazado 3804" d="M900.03,1258.681l-7.138,5.526a.222.222,0,0,0-.04.311h0a.223.223,0,0,0,.312.04l7.138-5.526a.223.223,0,0,0,.039-.311h0A.223.223,0,0,0,900.03,1258.681Z" transform="translate(-892.806 -1258.635)" fill="#fff"/>
          </g>
        </g>
      </g>
    </g>
  </g>
</svg>
