<svg xmlns="http://www.w3.org/2000/svg" width="435" height="198" viewBox="0 0 435 198">
  <g id="Grupo_4347" data-name="Grupo 4347" transform="translate(-117 -1167)">
    <rect id="Rectángulo_992" data-name="Rectángulo 992" width="435" height="198" transform="translate(117 1167)" fill="#efefef"/>
    <g id="Grupo_3706" data-name="Grupo 3706" transform="translate(-382.884 841.749)">
      <g id="Grupo_3681" data-name="Grupo 3681" transform="translate(592.884 352.911)">
        <rect id="Rectángulo_1003" data-name="Rectángulo 1003" width="95.201" height="158.34" rx="10" fill="#404040"/>
        <rect id="Rectángulo_1004" data-name="Rectángulo 1004" width="82.87" height="137.623" rx="3.398" transform="translate(6.166 12.563)" fill="#fff"/>
        <path id="Trazado_3737" data-name="Trazado 3737" d="M709.149,516.714a33.542,33.542,0,0,1-10.39,24.385q-1,.955-2.082,1.819a31.886,31.886,0,0,1-16.629,6.874l-.312.031-.126.012-.277.024q-1.145.1-2.313.108h-.267c-.2,0-.4,0-.6,0q-1.477-.023-2.922-.181-.187-.02-.375-.043-.394-.047-.785-.1c-.173-.025-.347-.052-.519-.08a31.987,31.987,0,0,1-15.915-7.519q-1.079-.942-2.074-1.976a33.561,33.561,0,0,1-9.346-23.345c0-18.367,14.536-33.254,32.465-33.254S709.149,498.347,709.149,516.714Z" transform="translate(-629.07 -456.278)" fill="#bbe5e7" stroke="#bbe5e7" stroke-miterlimit="10" stroke-width="5"/>
        <circle id="Elipse_700" data-name="Elipse 700" cx="2.62" cy="2.62" r="2.62" transform="translate(44.98 2.172)" fill="#fff" opacity="0.36"/>
        <path id="Trazado_3738" data-name="Trazado 3738" d="M871.914,1384.816h-12.85a1.765,1.765,0,0,1-1.76-1.76h0a1.765,1.765,0,0,1,1.76-1.76h12.85a1.765,1.765,0,0,1,1.76,1.76h0A1.765,1.765,0,0,1,871.914,1384.816Z" transform="translate(-818.175 -1229.114)" fill="#fff" opacity="0.36"/>
      </g>
      <g id="Grupo_3696" data-name="Grupo 3696" transform="translate(615.707 381.702)">
        <path id="Trazado_3762" data-name="Trazado 3762" d="M802.885,535.549a0,0,0,0,0,0,0h0a2.424,2.424,0,0,1,.051-1.186s0,0,0-.006a.808.808,0,0,1,.057-.116.148.148,0,0,1,.01-.019c.013-.022.026-.051.044-.086.057-.125.14-.328.239-.585a.005.005,0,0,0,0,0c.332-.853.841-2.293,1.173-3.388.107-.356.2-.675.253-.926.117-.509.219-1.02.3-1.532h0a12.851,12.851,0,0,0-.89-7.844s0,0,0-.008a10.128,10.128,0,0,0-.975-1.559h0a10.253,10.253,0,0,0-1.888-1.914c-.005,0-.009-.008-.012-.008a11.54,11.54,0,0,0-3.235-1.737h-.005a13.913,13.913,0,0,0-1.667-.473,17.864,17.864,0,0,0-3.024-.4c-.18-.006-.36-.01-.547-.006-5.322.085-14.11,4.894-12.419,14.21a15.783,15.783,0,0,0,.623,2.342,20.587,20.587,0,0,0,1.016,2.4.745.745,0,0,1-.08.287s0,0,0,0c-.084.219-.23.553-.423.98h0c-1.476,3.253-5.744,11.864-7.05,15.671-1.326,3.858,1.691,6.252,6.447,7.549l.037.012h0l.01,0q.505.137,1.034.257h0a37.952,37.952,0,0,0,5,.76h.015l.023,0a.008.008,0,0,0,.008,0c.08.008.158.015.238.021h0q.667.058,1.346.1h0c1.57.091,3.178.116,4.77.081h0q.843-.019,1.677-.059h.018l.108-.005.143-.008h.008a57.526,57.526,0,0,0,5.833-.6c.777-.121,1.523-.257,2.226-.408.266-.057.525-.116.779-.176l.05-.012c3.175-.763,5.337-1.816,5.535-3.024C810.162,551.61,803.5,539.9,802.885,535.549Z" transform="translate(-767.427 -513.748)" fill="#b55959" opacity="0.99"/>
        <path id="Trazado_3763" data-name="Trazado 3763" d="M834.75,662.7s-2.72-8.372-3.723-5.538c-.9,2.539,2.35,9.47-.3,17.183-1.752,5.1,3.921,7.865,5.682,8.307s7.863-2.612,11-2.787c10.307-.574-.483-10.9,4.627-21.168C853.838,655.069,834.75,662.7,834.75,662.7Z" transform="translate(-816.465 -638.205)" fill="#9e3939" opacity="0.55"/>
        <path id="Trazado_3764" data-name="Trazado 3764" d="M880.056,769.5l-7.265-.138a.386.386,0,0,1-.4-.37l.554-22.919a.391.391,0,0,1,.417-.354l7.265.138a.387.387,0,0,1,.4.37l-.554,22.919A.391.391,0,0,1,880.056,769.5Z" transform="translate(-853.058 -715.881)" fill="#f2bab6"/>
        <ellipse id="Elipse_701" data-name="Elipse 701" cx="2.353" cy="2.088" rx="2.353" ry="2.088" transform="translate(34.076 16.336)" fill="#eda9a4"/>
        <ellipse id="Elipse_702" data-name="Elipse 702" cx="2.109" cy="1.871" rx="2.109" ry="1.871" transform="translate(11.385 16.553)" fill="#eda9a4"/>
        <ellipse id="Elipse_703" data-name="Elipse 703" cx="2.353" cy="2.088" rx="2.353" ry="2.088" transform="translate(34.076 16.336)" fill="#eda9a4"/>
        <ellipse id="Elipse_704" data-name="Elipse 704" cx="15.728" cy="10.668" rx="15.728" ry="10.668" transform="translate(12.94 32.043) rotate(-83.238)" fill="#f7cbc6"/>
        <path id="Trazado_3765" data-name="Trazado 3765" d="M938.841,567.631c-.064,3.2,1.934,3.842,3.871,5.538,2.324,2.033,4.71,3.3,4.377,2.957l-8.226-8.5A.013.013,0,0,0,938.841,567.631Z" transform="translate(-910.961 -560.691)" fill="#9e3939" opacity="0.55"/>
        <path id="Trazado_3766" data-name="Trazado 3766" d="M851.324,536.974c-.579-.24-2.751-3.41-5.6-5.151-2.72-1.663-2.6-3.094-3.047-3.7-.637.7-1.323,3.1-3.62,3.87-3.208,1.08-8.022.567-9.386,5.2-3.226-6.553.825-15.617,11.683-15.534C852.309,521.74,855.314,530.858,851.324,536.974Z" transform="translate(-814.894 -520.639)" fill="#b55959" opacity="0.99"/>
        <path id="Trazado_3768" data-name="Trazado 3768" d="M902.212,731.007l-2.84-1.46a.046.046,0,0,1-.02-.066l.488-.747a.059.059,0,0,1,.075-.018l2.84,1.46a.046.046,0,0,1,.02.066l-.488.747A.059.059,0,0,1,902.212,731.007Z" transform="translate(-876.545 -701.063)" fill="#ef8f99"/>
        <path id="Trazado_3769" data-name="Trazado 3769" d="M916.671,729.829l2.7-1.66a.06.06,0,0,1,.076.012l.555.709a.045.045,0,0,1-.014.068l-2.7,1.66a.059.059,0,0,1-.076-.012l-.555-.709A.045.045,0,0,1,916.671,729.829Z" transform="translate(-891.623 -700.585)" fill="#ef8f99"/>
        <path id="Trazado_3770" data-name="Trazado 3770" d="M881.018,859.83s-2.266.181-3.245.188h-.285c-.214,0-.427,0-.639-.005q-1.785-.025-3.529-.194l-1.4-.244.069-5.5.019-1.538h0l.082-6.51h0l.054-4.127v-.2h0l0-.16h0l0-.136h0l.053-4.252,0-.149,0-.217v-.112l.01-.844v-.075l.017-1.425.005-.324c0,.081.006.161.014.24h0v.005h0a4.231,4.231,0,0,0,1.363,2.853c.063.058.13.112.2.165h0a4,4,0,0,0,2.478.8,3.86,3.86,0,0,0,2.292-.716h0a3.9,3.9,0,0,0,.615-.552,4.357,4.357,0,0,0,.94-1.7,4.87,4.87,0,0,0,.167-.8v-.006c.019-.148.031-.3.036-.45v.062l.015,1.129.028,2.257.048,3.8,0,.14v.225l0,.21.062,4.885v0l.005.336h0l.021,1.577v.03Z" transform="translate(-852.648 -792.664)" fill="#0683b5"/>
        <g id="Grupo_3684" data-name="Grupo 3684" transform="translate(0 41.657)">
          <path id="Trazado_3771" data-name="Trazado 3771" d="M741.342,863.078a34.27,34.27,0,0,1-17.05-8.055q-1.155-1.009-2.222-2.117l1.209-4.463c.877-3.238,4.943-6.631,9.49-7.985l.742-.223h0l2.049-.609h0l1.341-.4h0l1.573-.469h0l.525-.156.111-.032,2.406-.718v.015l.013.265.019.39.072,1.507v.006l.008.134.016.336.008.145.2,4.13.008.134,0,.1,0,.06v.042l.009.2.21,4.339.359,7.508h0l.081,1.7.211,4.423,0,.046Z" transform="translate(-722.07 -837.824)" fill="#fff"/>
          <g id="Grupo_3683" data-name="Grupo 3683" transform="translate(10.697)">
            <path id="Trazado_3772" data-name="Trazado 3772" d="M814.659,845.219l-.321.1-1.8.531-6.728,1.989-.568-7.371L814,837.851l.327,7.225.325-.139Z" transform="translate(-805.246 -837.825)" fill="#9edae8"/>
            <path id="Trazado_3773" data-name="Trazado 3773" d="M819.033,904.941l-.059-.068L809.8,894.406l6.726-2.852,1.778-.756.323-.136.005.269Z" transform="translate(-809.213 -883.843)" fill="#9edae8"/>
            <path id="Trazado_3774" data-name="Trazado 3774" d="M819.754,844.821l-7.986,2.352-.753-7.148,8.155-2.377Z" transform="translate(-810.273 -837.649)" fill="#fff"/>
            <path id="Trazado_3775" data-name="Trazado 3775" d="M825.088,904.125l-8.353-9.183,7.984-3.384Z" transform="translate(-815.257 -884.626)" fill="#fff"/>
          </g>
        </g>
        <path id="Trazado_3776" data-name="Trazado 3776" d="M958.958,850.082q-1.075,1.022-2.23,1.948a34.159,34.159,0,0,1-17.815,7.364l-.13-6.051-.255-12.077-.008-.208v-.207l-.136-6.3-.024-1.2v-.018l2.4.62.04.01h0l.131.033,2.8.721h0l2.788.719h0l.757.2.051.014c4.6,1.2,8.765,4.566,9.731,7.9Z" transform="translate(-910.543 -792.228)" fill="#fff"/>
        <g id="Grupo_3685" data-name="Grupo 3685" transform="translate(27.601 41.083)">
          <path id="Trazado_3777" data-name="Trazado 3777" d="M937.221,841.2l.322.085,1.8.457,6.738,1.712.192-7.8-8.921-2.307.181,7.689-.329-.128Z" transform="translate(-937.139 -833.321)" fill="#9edae8"/>
          <path id="Trazado_3778" data-name="Trazado 3778" d="M937.594,904.25l.052-.069,8.28-11.011-6.784-2.607-1.8-.694-.328-.125.013.281Z" transform="translate(-936.971 -882.469)" fill="#9edae8"/>
          <path id="Trazado_3779" data-name="Trazado 3779" d="M936.679,840.835l8.006,2.023.373-7.587-8.307-2.085Z" transform="translate(-936.679 -833.187)" fill="#fff"/>
          <path id="Trazado_3780" data-name="Trazado 3780" d="M937.2,903.511l7.559-9.711-8.062-3.1Z" transform="translate(-936.695 -883.306)" fill="#fff"/>
        </g>
        <g id="Grupo_3693" data-name="Grupo 3693" transform="translate(11.615 37.5)">
          <g id="Grupo_3686" data-name="Grupo 3686" transform="translate(1.08 0.49)">
            <path id="Trazado_3781" data-name="Trazado 3781" d="M822.2,827.323c-3.074-3.538-.586-12.478,1.981-15.548a9.224,9.224,0,0,1,3.519-2.638l.15.356a8.844,8.844,0,0,0-3.373,2.53,17.674,17.674,0,0,0-3.022,7.433c-.61,3.378-.233,6.154,1.036,7.614Z" transform="translate(-820.778 -809.137)" fill="#021416"/>
          </g>
          <g id="Grupo_3692" data-name="Grupo 3692">
            <g id="Grupo_3687" data-name="Grupo 3687" transform="translate(16.149)">
              <path id="Trazado_3782" data-name="Trazado 3782" d="M944.486,819.542l-.384-.041c.753-7.023-.936-11.453-5.165-13.544a3.51,3.51,0,0,0-1-.248l.054-.382a3.792,3.792,0,0,1,1.113.284C943.5,807.782,945.258,812.339,944.486,819.542Z" transform="translate(-937.942 -805.327)" fill="#021416"/>
            </g>
            <g id="Grupo_3691" data-name="Grupo 3691" transform="translate(0 13.693)">
              <g id="Grupo_3689" data-name="Grupo 3689" transform="translate(0 2.944)">
                <g id="Grupo_3688" data-name="Grupo 3688">
                  <ellipse id="Elipse_705" data-name="Elipse 705" cx="2.649" cy="2.35" rx="2.649" ry="2.35" fill="#c1c1bd"/>
                </g>
                <ellipse id="Elipse_706" data-name="Elipse 706" cx="1.404" cy="1.245" rx="1.404" ry="1.245" transform="translate(1.245 1.105)" fill="#757572"/>
              </g>
              <g id="Grupo_3690" data-name="Grupo 3690" transform="translate(12.909)">
                <path id="Trazado_3783" data-name="Trazado 3783" d="M921.418,923.9h-.373v-.386h.373a1.043,1.043,0,0,0,1.012-.663c.7-2.178,2.748-9.371-.458-10.5a3.838,3.838,0,0,0-3.223.5,13.607,13.607,0,0,0-5.6,7.6.849.849,0,0,0,.457.895l.376.215-.191.335-.376-.215a1.229,1.229,0,0,1-.644-1.306,13.839,13.839,0,0,1,5.785-7.856,4.2,4.2,0,0,1,3.542-.524c3.438,1.214,1.632,8.087.7,10.985A1.431,1.431,0,0,1,921.418,923.9Z" transform="translate(-912.751 -911.794)" fill="#021416"/>
              </g>
              <path id="Trazado_3784" data-name="Trazado 3784" d="M918.13,985.2a.794.794,0,1,1-.789-.7A.748.748,0,0,1,918.13,985.2Z" transform="translate(-903.155 -975.15)" fill="#757572"/>
              <path id="Trazado_3785" data-name="Trazado 3785" d="M972.68,999.707a.794.794,0,1,1-.789-.7A.748.748,0,0,1,972.68,999.707Z" transform="translate(-950.689 -987.79)" fill="#757572"/>
            </g>
          </g>
        </g>
        <path id="Trazado_3786" data-name="Trazado 3786" d="M781.995,771.31s-3.334,5.645,0,7.149C781.995,778.459,780.536,774.3,781.995,771.31Z" transform="translate(-772.997 -738.185)" fill="#d88080"/>
        <path id="Trazado_3787" data-name="Trazado 3787" d="M1002.012,729.909s2.465,2.719,2.465,4.317Z" transform="translate(-966.009 -702.108)" fill="#d88080"/>
        <path id="Trazado_3788" data-name="Trazado 3788" d="M838.651,533.186s-5.762,3.455-8.254,6.285C830.4,539.471,834.39,533.925,838.651,533.186Z" transform="translate(-816.465 -530.686)" fill="#d88080"/>
        <path id="Trazado_3789" data-name="Trazado 3789" d="M1006.515,595.825a6.61,6.61,0,0,1,0,3.843Z" transform="translate(-969.933 -585.269)" fill="#d88080"/>
        <path id="Trazado_3790" data-name="Trazado 3790" d="M860.608,558.817a27.6,27.6,0,0,0-5.052,3.846S858,559.27,860.608,558.817Z" transform="translate(-838.388 -553.021)" fill="#d88080"/>
        <path id="Trazado_3791" data-name="Trazado 3791" d="M951.351,529.719s4.139,4.958,5.43,8.361C956.781,538.08,955.093,531.673,951.351,529.719Z" transform="translate(-921.863 -527.665)" fill="#d88080"/>
        <path id="Trazado_3792" data-name="Trazado 3792" d="M949.315,542.035s2.465,2.719,2.465,4.317Z" transform="translate(-920.089 -538.397)" fill="#d88080"/>
        <g id="Grupo_3694" data-name="Grupo 3694" transform="translate(20.566 16.167)">
          <path id="Trazado_3793" data-name="Trazado 3793" d="M883.631,640.766a1.545,1.545,0,0,1-.429,1.147.6.6,0,0,1-.4.162c-.457,0-.826-.587-.826-1.309,0-.665.312-1.215.718-1.3a.526.526,0,0,1,.109-.012.7.7,0,0,1,.57.365.268.268,0,0,0-.215.251.279.279,0,0,0,.294.261.322.322,0,0,0,.123-.024A2.013,2.013,0,0,1,883.631,640.766Z" transform="translate(-881.978 -639.455)"/>
          <path id="Trazado_3794" data-name="Trazado 3794" d="M883.2,641.991a.6.6,0,0,1-.4.162c-.457,0-.826-.586-.826-1.309,0-.665.312-1.215.718-1.3a2.112,2.112,0,0,0-.287,1.611A1.264,1.264,0,0,0,883.2,641.991Z" transform="translate(-881.978 -639.533)" fill="#665757" opacity="0.47"/>
        </g>
        <g id="Grupo_3695" data-name="Grupo 3695" transform="translate(29.488 16.173)">
          <path id="Trazado_3795" data-name="Trazado 3795" d="M953,640.811a1.545,1.545,0,0,1-.429,1.147.6.6,0,0,1-.4.162c-.457,0-.826-.586-.826-1.309,0-.665.312-1.215.718-1.3a.52.52,0,0,1,.109-.012.7.7,0,0,1,.57.365.268.268,0,0,0-.214.251.279.279,0,0,0,.294.261.32.32,0,0,0,.123-.024A2.011,2.011,0,0,1,953,640.811Z" transform="translate(-951.351 -639.5)"/>
          <path id="Trazado_3796" data-name="Trazado 3796" d="M952.575,642.036a.6.6,0,0,1-.4.162c-.457,0-.826-.587-.826-1.309,0-.665.312-1.215.718-1.3a2.113,2.113,0,0,0-.287,1.611A1.265,1.265,0,0,0,952.575,642.036Z" transform="translate(-951.351 -639.578)" fill="#665757" opacity="0.47"/>
        </g>
      </g>
      <g id="Grupo_3705" data-name="Grupo 3705" transform="translate(610.983 479.599)">
        <g id="Grupo_3697" data-name="Grupo 3697" transform="translate(0 0)">
          <circle id="Elipse_707" data-name="Elipse 707" cx="7.904" cy="7.904" r="7.904" transform="translate(41.326 6.049) rotate(-22.5)" fill="#bbe5e7"/>
          <circle id="Elipse_708" data-name="Elipse 708" cx="7.904" cy="7.904" r="7.904" transform="translate(19.747 6.049) rotate(-22.5)" fill="#bbe5e7"/>
          <circle id="Elipse_709" data-name="Elipse 709" cx="7.904" cy="7.904" r="7.904" transform="translate(0 2.563)" fill="#55acd8"/>
        </g>
        <g id="Grupo_3698" data-name="Grupo 3698" transform="translate(3.272 8.169)">
          <rect id="Rectángulo_1006" data-name="Rectángulo 1006" width="6.91" height="4.587" fill="#fff"/>
          <path id="Trazado_3797" data-name="Trazado 3797" d="M779.413,1264.3a.422.422,0,0,1,.623.4l-.033,1.846-.033,1.846a.42.42,0,0,1-.637.377l-1.476-.954-2.1-1.356,2.146-1.269Z" transform="translate(-770.067 -1264.243)" fill="#fff"/>
        </g>
        <g id="Grupo_3701" data-name="Grupo 3701" transform="translate(47.633 6.43)">
          <path id="Trazado_3798" data-name="Trazado 3798" d="M1044.118,1259.2l-.448-.7a1.157,1.157,0,0,0-1.509-.417,1.11,1.11,0,0,0-.346.291.218.218,0,0,1-.355-.017l-1.655-2.572a.357.357,0,0,1,.126-.507,1.15,1.15,0,0,0,.136-.087h0a1.131,1.131,0,0,0,.229-1.579l-.521-.7a1.131,1.131,0,0,0-1.579-.228h0c-1.4.719-1.177,2.3-.949,3.6a6.648,6.648,0,0,0,2.561,3.98,2.994,2.994,0,0,0,3.976.489A1.13,1.13,0,0,0,1044.118,1259.2Z" transform="translate(-1037.077 -1252.468)" fill="#fff"/>
          <g id="Grupo_3699" data-name="Grupo 3699" transform="translate(5.579 0.176)">
            <path id="Trazado_3799" data-name="Trazado 3799" d="M1077.382,1258.121a.148.148,0,0,1-.138-.2,3.109,3.109,0,0,0-.539-2.292,3.236,3.236,0,0,0-1.8-1.675.148.148,0,1,1,.046-.292,3.558,3.558,0,0,1,2.01,1.819,3.428,3.428,0,0,1,.559,2.546A.148.148,0,0,1,1077.382,1258.121Z" transform="translate(-1074.781 -1253.66)" fill="#fff"/>
          </g>
          <g id="Grupo_3700" data-name="Grupo 3700" transform="translate(4.504 1.533)">
            <path id="Trazado_3800" data-name="Trazado 3800" d="M1069.2,1266.385a.144.144,0,0,1-.084-.026.148.148,0,0,1-.038-.206,1.422,1.422,0,0,0-.021-1.142,3.211,3.211,0,0,0-1.449-1.9.148.148,0,1,1,.1-.278,3.42,3.42,0,0,1,1.63,2.085,1.657,1.657,0,0,1-.016,1.4A.148.148,0,0,1,1069.2,1266.385Z" transform="translate(-1067.511 -1262.827)" fill="#fff"/>
          </g>
        </g>
        <g id="Grupo_3704" data-name="Grupo 3704" transform="translate(26.283 5.06)">
          <rect id="Rectángulo_1007" data-name="Rectángulo 1007" width="3.264" height="7.554" rx="1.632" transform="translate(2.273)" fill="#fff"/>
          <path id="Trazado_3801" data-name="Trazado 3801" d="M917.882,1294.016h0a.228.228,0,0,1-.228-.228v-2.06a.228.228,0,0,1,.228-.228h0a.229.229,0,0,1,.228.228v2.06A.228.228,0,0,1,917.882,1294.016Z" transform="translate(-913.977 -1284.354)" fill="#fff"/>
          <path id="Trazado_3802" data-name="Trazado 3802" d="M914.315,1307.18h-1.379a.278.278,0,0,1-.277-.278h0a.278.278,0,0,1,.277-.277h1.379a.278.278,0,0,1,.277.277h0A.278.278,0,0,1,914.315,1307.18Z" transform="translate(-909.72 -1297.241)" fill="#fff"/>
          <g id="Grupo_3703" data-name="Grupo 3703" transform="translate(0 2.283)">
            <g id="Grupo_3702" data-name="Grupo 3702" transform="translate(1.31 2.021)">
              <path id="Trazado_3803" data-name="Trazado 3803" d="M904.456,1276.31h-.11c-2.695-.076-2.691-1.913-2.688-3.69v-.179a.148.148,0,0,1,.148-.148h0a.148.148,0,0,1,.148.148v.18c0,1.785-.006,3.327,2.4,3.394a2.028,2.028,0,0,0,1.552-.5,3.848,3.848,0,0,0,.64-2.743c0-.119,0-.23,0-.331a.148.148,0,1,1,.3,0c0,.1,0,.208,0,.326a4.061,4.061,0,0,1-.727,2.959A2.261,2.261,0,0,1,904.456,1276.31Z" transform="translate(-901.658 -1272.291)" fill="#fff"/>
            </g>
            <path id="Trazado_3804" data-name="Trazado 3804" d="M900.03,1258.681l-7.138,5.526a.222.222,0,0,0-.04.311h0a.223.223,0,0,0,.312.04l7.138-5.526a.223.223,0,0,0,.039-.311h0A.223.223,0,0,0,900.03,1258.681Z" transform="translate(-892.806 -1258.635)" fill="#fff"/>
          </g>
        </g>
      </g>
    </g>
    <g id="Grupo_3708" data-name="Grupo 3708" transform="translate(292.403 1223.277)">
      <path id="Trazado_1711" data-name="Trazado 1711" d="M567.681,262.487a2.109,2.109,0,0,0,2,2.216l52.6,2.756a2.108,2.108,0,0,0,2.216-2l3.875-73.943a2.109,2.109,0,0,0-2-2.217l-52.6-2.757a2.109,2.109,0,0,0-2.217,2Z" transform="translate(-566.637 -180.146)" fill="#784319"/>
      <path id="Trazado_1712" data-name="Trazado 1712" d="M563.7,262.278a2.109,2.109,0,0,0,2,2.216l52.6,2.756a2.109,2.109,0,0,0,2.217-2l3.875-73.943a2.11,2.11,0,0,0-2-2.217l-52.6-2.757a2.109,2.109,0,0,0-2.217,2Z" transform="translate(-563.695 -179.991)" fill="#8b4e21"/>
      <path id="Trazado_1713" data-name="Trazado 1713" d="M633.063,214.067l-48.154-2.523s-.333,10.266-1.5,32.559c-.911,17.389-3.106,35.455-3.106,35.455l49.546,2.6s.8-18.14,1.713-35.529C632.73,224.333,633.063,214.067,633.063,214.067Z" transform="translate(-575.963 -198.613)" fill="#231f20" opacity="0.1" style="mix-blend-mode: multiply;isolation: isolate"/>
      <path id="Trazado_1714" data-name="Trazado 1714" d="M631.051,210.531,582.9,208.007s-.334,10.267-1.5,32.561c-.911,17.388-3.075,34.861-3.075,34.861l48.154,2.524s2.164-17.473,3.075-34.861C630.717,220.8,631.051,210.531,631.051,210.531Z" transform="translate(-574.498 -196)" fill="#fff"/>
      <g id="Grupo_3134" data-name="Grupo 3134" transform="translate(17.082)">
        <path id="Trazado_1715" data-name="Trazado 1715" d="M657.594,171.094l-6.363-.333.179-3.419a4.911,4.911,0,0,0-9.809-.514l-.179,3.419-6.363-.333a3.375,3.375,0,0,0-3.547,3.194l-.166,3.171,29.277,1.534.166-3.171A3.375,3.375,0,0,0,657.594,171.094Zm-11.813-1.562a2.482,2.482,0,1,1,2.609-2.349A2.481,2.481,0,0,1,645.781,169.533Z" transform="translate(-630.75 -162.143)" fill="#a0a2a4"/>
        <path id="Trazado_1716" data-name="Trazado 1716" d="M655.316,170.975l-6.363-.333.179-3.419a4.911,4.911,0,0,0-9.809-.514l-.179,3.419-6.365-.333a3.375,3.375,0,0,0-3.547,3.194l-.166,3.17,29.277,1.535.167-3.171A3.376,3.376,0,0,0,655.316,170.975Zm-11.218-1.53a2.482,2.482,0,1,1,2.609-2.349A2.481,2.481,0,0,1,644.1,169.445Z" transform="translate(-629.067 -162.055)" fill="#cfd1d2"/>
        <rect id="Rectángulo_945" data-name="Rectángulo 945" width="3.175" height="29.317" transform="matrix(0.052, -0.999, 0.999, 0.052, 0, 14.104)" fill="#c3c6c7"/>
        <path id="Trazado_1717" data-name="Trazado 1717" d="M680.2,171.353a2.421,2.421,0,0,1,.37.05,2.48,2.48,0,0,0-.257,4.9,2.553,2.553,0,0,1-.373.01,2.482,2.482,0,0,1,.26-4.958Z" transform="translate(-664.911 -168.921)" fill="#a0a2a4"/>
      </g>
      <rect id="Rectángulo_946" data-name="Rectángulo 946" width="2.142" height="37.484" transform="translate(12.735 38.313) rotate(-87)" fill="#9fa1a3" opacity="0.5"/>
      <rect id="Rectángulo_947" data-name="Rectángulo 947" width="2.143" height="37.484" transform="matrix(0.052, -0.999, 0.999, 0.052, 12.549, 41.859)" fill="#9fa1a3" opacity="0.5"/>
      <path id="Trazado_1718" data-name="Trazado 1718" d="M613.117,373.224l-5.82-.305a.645.645,0,0,1-.611-.678l.412-5.5a.645.645,0,0,1,.677-.605l5.7.3a.646.646,0,0,1,.611.678l-.288,5.5A.645.645,0,0,1,613.117,373.224Zm-5.364-6.639a.2.2,0,0,0-.209.188l-.412,5.5a.2.2,0,0,0,.189.2l5.82.3a.2.2,0,0,0,.209-.188l.288-5.5a.2.2,0,0,0-.188-.209Z" transform="translate(-595.452 -312.811)" fill="#c9cacc"/>
      <path id="Trazado_1719" data-name="Trazado 1719" d="M612.891,373.78h-.006a.5.5,0,0,1-.4-.249,9.322,9.322,0,0,0-1.4-1.877.493.493,0,1,1,.668-.726,8.752,8.752,0,0,1,1.211,1.507,12.432,12.432,0,0,1,4.839-3.568.493.493,0,0,1,.24.957,7.38,7.38,0,0,0-2.122,1.208,13.4,13.4,0,0,0-2.617,2.552A.49.49,0,0,1,612.891,373.78Z" transform="translate(-598.589 -314.816)" fill="#d01f37"/>
      <path id="Trazado_1720" data-name="Trazado 1720" d="M609.071,413.348l-5.7-.3a.645.645,0,0,1-.611-.678l.536-5.5a.642.642,0,0,1,.677-.6l5.7.3a.646.646,0,0,1,.61.678l-.535,5.5A.644.644,0,0,1,609.071,413.348Zm-5.118-6.627a.2.2,0,0,0-.208.187l-.535,5.5a.2.2,0,0,0,.189.2l5.7.3a.2.2,0,0,0,.208-.188l.535-5.5a.2.2,0,0,0-.188-.2Z" transform="translate(-592.554 -342.459)" fill="#c9cacc"/>
      <path id="Trazado_1721" data-name="Trazado 1721" d="M609.439,413.919h-.007a.491.491,0,0,1-.4-.249,9.382,9.382,0,0,0-1.4-1.876.493.493,0,0,1,.669-.726,8.816,8.816,0,0,1,1.21,1.507,12.434,12.434,0,0,1,4.838-3.568.493.493,0,1,1,.241.957,7.35,7.35,0,0,0-2.122,1.207,13.413,13.413,0,0,0-2.617,2.553A.492.492,0,0,1,609.439,413.919Z" transform="translate(-596.039 -344.468)" fill="#d01f37"/>
      <rect id="Rectángulo_948" data-name="Rectángulo 948" width="2.142" height="37.484" transform="translate(12.363 45.403) rotate(-87)" fill="#9fa1a3" opacity="0.5"/>
      <rect id="Rectángulo_949" data-name="Rectángulo 949" width="2.142" height="22.398" transform="matrix(0.052, -0.999, 0.999, 0.052, 12.178, 48.949)" fill="#9fa1a3" opacity="0.5"/>
      <rect id="Rectángulo_950" data-name="Rectángulo 950" width="2.142" height="28.475" transform="translate(20.423 56.614) rotate(-87)" fill="#9fa1a3" opacity="0.5"/>
      <rect id="Rectángulo_951" data-name="Rectángulo 951" width="2.143" height="16.866" transform="translate(20.254 59.826) rotate(-87)" fill="#9fa1a3" opacity="0.5"/>
      <path id="Trazado_1722" data-name="Trazado 1722" d="M665.992,414.274,637.925,412.8l.236-2.132,28.066,1.471Z" transform="translate(-618.529 -345.708)" fill="#9fa1a3" opacity="0.5"/>
      <path id="Trazado_1723" data-name="Trazado 1723" d="M653.777,425.955l-16.968-.889.235-2.133,16.967.889Z" transform="translate(-617.705 -354.766)" fill="#9fa1a3" opacity="0.5"/>
      <g id="Grupo_3136" data-name="Grupo 3136" transform="translate(25.735 19.485)">
        <g id="Grupo_3135" data-name="Grupo 3135">
          <path id="Trazado_1724" data-name="Trazado 1724" d="M675.639,243.713a6.733,6.733,0,1,1-6.371-7.077A6.732,6.732,0,0,1,675.639,243.713Z" transform="translate(-662.182 -236.626)" fill="#d01f37"/>
        </g>
        <path id="Trazado_1725" data-name="Trazado 1725" d="M676.075,244.454l0,0-2.453-.129-.18,3.428-3.428-.18-.128,2.457h0l0,0,3.273,3.123-.025.483h0l2.2,2.1a6.733,6.733,0,0,0,5.989-6.278Z" transform="translate(-667.872 -242.317)" fill="#ededee" style="mix-blend-mode: multiply;isolation: isolate"/>
        <path id="Trazado_1726" data-name="Trazado 1726" d="M679.325,248.066l-3.428-.18.18-3.428-2.457-.129-.18,3.428-3.428-.18-.128,2.457,3.428.18-.18,3.428,2.457.129.18-3.428,3.428.18Z" transform="translate(-667.871 -242.317)" fill="#fff"/>
      </g>
    </g>
    <g id="Grupo_3733" data-name="Grupo 3733" transform="translate(-285 -1132)">
      <g id="Elipse_568" data-name="Elipse 568" transform="translate(432 2327)" fill="#59bfd6" stroke="#227d84" stroke-width="3">
        <circle cx="20" cy="20" r="20" stroke="none"/>
        <circle cx="20" cy="20" r="18.5" fill="none"/>
      </g>
      <path id="Trazado_3106" data-name="Trazado 3106" d="M8.272-9.658a6.008,6.008,0,0,1,2.684.594A4.689,4.689,0,0,1,12.87-7.381a4.537,4.537,0,0,1,.7,2.519,4.8,4.8,0,0,1-.77,2.706A5.023,5.023,0,0,1,10.7-.363,6.857,6.857,0,0,1,7.744.264a6.541,6.541,0,0,1-5.06-1.98A8.042,8.042,0,0,1,.858-7.37a9.476,9.476,0,0,1,.99-4.488A6.741,6.741,0,0,1,4.609-14.7a8.419,8.419,0,0,1,4.1-.968,9.993,9.993,0,0,1,2.365.275A6.329,6.329,0,0,1,13-14.608l-1.32,2.618A5.052,5.052,0,0,0,8.8-12.76a4.192,4.192,0,0,0-3.1,1.144A4.788,4.788,0,0,0,4.466-8.294,5.145,5.145,0,0,1,8.272-9.658ZM7.546-2.4a2.747,2.747,0,0,0,1.859-.616,2.093,2.093,0,0,0,.715-1.672,2.126,2.126,0,0,0-.715-1.683A2.783,2.783,0,0,0,7.5-7a2.815,2.815,0,0,0-1.914.649A2.1,2.1,0,0,0,4.84-4.686a2.1,2.1,0,0,0,.726,1.65A2.9,2.9,0,0,0,7.546-2.4Z" transform="translate(445 2354)" fill="#fff"/>
    </g>
    <path id="Trazado_4820" data-name="Trazado 4820" d="M11.27,0,10.244-2.91H4.316L3.291,0h-3l5.2-14.111H9.072L14.268,0ZM5.176-5.361H9.385l-2.1-5.986Zm17.08-8.75A4.247,4.247,0,0,1,25.508-12.8a4.569,4.569,0,0,1,1.23,3.247,4.456,4.456,0,0,1-1.221,3.228,4.324,4.324,0,0,1-3.262,1.265H19.316V0h-2.93V-14.111Zm-.488,6.6a2.153,2.153,0,0,0,1.611-.552,2.1,2.1,0,0,0,.537-1.528,2.081,2.081,0,0,0-.542-1.509,2.134,2.134,0,0,0-1.606-.562H19.316v4.15ZM32.129-2.588h4.424V0H29.2V-14.111h2.93ZM38.789,0V-14.111h2.93V0ZM51.611.2a7.877,7.877,0,0,1-2.876-.518,6.763,6.763,0,0,1-2.29-1.445,6.515,6.515,0,0,1-1.5-2.295,8,8,0,0,1-.547-3,7.644,7.644,0,0,1,.938-3.833,6.382,6.382,0,0,1,2.573-2.534,7.705,7.705,0,0,1,3.706-.879,7.488,7.488,0,0,1,4.141,1.143,6.255,6.255,0,0,1,2.529,3.145l-2.734,1a3.866,3.866,0,0,0-1.514-1.9,4.323,4.323,0,0,0-2.422-.684,4.145,4.145,0,0,0-3.086,1.23,4.528,4.528,0,0,0-1.211,3.32A4.534,4.534,0,0,0,48.53-3.735,4.14,4.14,0,0,0,51.611-2.5a4.307,4.307,0,0,0,2.417-.688A3.883,3.883,0,0,0,55.547-5.1l2.734,1A6.28,6.28,0,0,1,55.752-.952,7.464,7.464,0,0,1,51.611.2ZM70.127,0,69.1-2.91H63.174L62.148,0h-3l5.2-14.111H67.93L73.125,0ZM64.033-5.361h4.209l-2.1-5.986ZM7.93,25.2a7.63,7.63,0,0,1-2.817-.513,6.605,6.605,0,0,1-2.246-1.44,6.471,6.471,0,0,1-1.475-2.285,8.092,8.092,0,0,1-.532-2.979,8.066,8.066,0,0,1,.547-3.013,6.557,6.557,0,0,1,1.5-2.3,6.725,6.725,0,0,1,2.29-1.45,7.877,7.877,0,0,1,2.876-.518,7.69,7.69,0,0,1,3.667.864,6.285,6.285,0,0,1,2.544,2.456l-2.568,1.367a3.765,3.765,0,0,0-1.489-1.6,4.271,4.271,0,0,0-2.153-.537A4.092,4.092,0,0,0,5,14.482,4.732,4.732,0,0,0,3.8,17.91,4.878,4.878,0,0,0,4.99,21.357a4.138,4.138,0,0,0,3.193,1.289,4.719,4.719,0,0,0,1.719-.3,3.429,3.429,0,0,0,1.367-.981,3.555,3.555,0,0,0,.781-1.675H8.193V17.334h6.631V25h-2.3V23.047A5.148,5.148,0,0,1,7.93,25.2Zm15.156,0a7.3,7.3,0,0,1-2.173-.308,5.114,5.114,0,0,1-1.743-.923,4.13,4.13,0,0,1-1.177-1.611,5.807,5.807,0,0,1-.425-2.295v-9.17H20.5v8.77a3.067,3.067,0,0,0,.708,2.236,2.841,2.841,0,0,0,3.77,0,3.043,3.043,0,0,0,.718-2.231v-8.77h2.93v9.17a5.807,5.807,0,0,1-.425,2.295,4.108,4.108,0,0,1-1.182,1.611,5.168,5.168,0,0,1-1.748.923A7.338,7.338,0,0,1,23.086,25.2ZM32.559,9.57l2.559-3.594,1.387.986L34.287,9.57ZM31.982,25V10.889h2.93V25ZM48,25l-1.025-2.91H41.045L40.02,25h-3l5.2-14.111H45.8L51,25ZM41.9,19.639h4.209l-2.1-5.986ZM58.311,25V10.889h5.107a7.962,7.962,0,0,1,2.944.508,5.423,5.423,0,0,1,2.109,1.44,6.266,6.266,0,0,1,1.25,2.222,9.172,9.172,0,0,1,.425,2.881,9.206,9.206,0,0,1-.425,2.891,6.266,6.266,0,0,1-1.25,2.222,5.423,5.423,0,0,1-2.109,1.44A7.962,7.962,0,0,1,63.418,25Zm2.93-2.588h2.031a3.466,3.466,0,0,0,2.852-1.147,5.143,5.143,0,0,0,.938-3.325,5.143,5.143,0,0,0-.937-3.325,3.466,3.466,0,0,0-2.852-1.147H61.24Zm19.834-8.945H75.84v3.2h4.639v2.549H75.84v3.193h5.234V25H72.891V10.889h8.184ZM10.01,35.889v2.578H6.66V50H3.76V38.467H.391V35.889Zm10.4,2.578H15.176v3.2h4.639v2.549H15.176v3.193H20.41V50H12.227V35.889H20.41Zm5.947,8.945h4.424V50H23.428V35.889h2.93ZM41.2,38.467H35.967v3.2h4.639v2.549H35.967v3.193H41.2V50H33.018V35.889H41.2ZM48.906,50.2a6.818,6.818,0,0,1-3.916-1.079,4.328,4.328,0,0,1-1.9-3.022l3.027-.693a2.571,2.571,0,0,0,.933,1.782,3.1,3.1,0,0,0,1.978.62,2.554,2.554,0,0,0,1.543-.435,1.466,1.466,0,0,0,.586-1.284,1.37,1.37,0,0,0-.5-1.045,3.254,3.254,0,0,0-.991-.64q-.493-.19-1.587-.522-.146-.049-.215-.068-.557-.176-.9-.293t-.845-.327a5.625,5.625,0,0,1-.82-.41,6.006,6.006,0,0,1-.679-.508,2.66,2.66,0,0,1-.566-.649,3.45,3.45,0,0,1-.342-.811,3.577,3.577,0,0,1-.137-1.006,3.778,3.778,0,0,1,.659-2.222,4.037,4.037,0,0,1,1.777-1.416,6.469,6.469,0,0,1,2.544-.474A8.036,8.036,0,0,1,50.4,35.9a6.448,6.448,0,0,1,1.646.63,4.031,4.031,0,0,1,1.313,1.162A4.37,4.37,0,0,1,54.1,39.4l-2.832.7a2.294,2.294,0,0,0-2.539-2.021,2.78,2.78,0,0,0-1.572.41,1.39,1.39,0,0,0-.615,1.24q0,.771,1.025,1.25a15.28,15.28,0,0,0,1.963.674q.576.176.938.293t.908.342a6.311,6.311,0,0,1,.889.435,6.576,6.576,0,0,1,.742.542,2.919,2.919,0,0,1,.63.7,3.8,3.8,0,0,1,.386.874,3.653,3.653,0,0,1,.156,1.089,4.278,4.278,0,0,1-.283,1.592,3.464,3.464,0,0,1-.776,1.2,4.508,4.508,0,0,1-1.167.825,5.661,5.661,0,0,1-1.436.488A8.256,8.256,0,0,1,48.906,50.2ZM66.328,50,65.3,47.09H59.375L58.35,50h-3l5.2-14.111h3.584L69.326,50Zm-6.094-5.361h4.209l-2.1-5.986Zm14.141,2.773H78.8V50H71.445V35.889h2.93ZM86.26,50.2a7.3,7.3,0,0,1-2.173-.308,5.114,5.114,0,0,1-1.743-.923,4.13,4.13,0,0,1-1.177-1.611,5.807,5.807,0,0,1-.425-2.295v-9.17h2.93v8.77a3.067,3.067,0,0,0,.708,2.236,2.841,2.841,0,0,0,3.77,0,3.043,3.043,0,0,0,.718-2.231v-8.77H91.8v9.17a5.807,5.807,0,0,1-.425,2.295,4.108,4.108,0,0,1-1.182,1.611,5.168,5.168,0,0,1-1.748.923A7.338,7.338,0,0,1,86.26,50.2Zm8.9-.2V35.889h5.107a7.962,7.962,0,0,1,2.944.508,5.423,5.423,0,0,1,2.109,1.44,6.266,6.266,0,0,1,1.25,2.222,10.014,10.014,0,0,1,0,5.771,6.266,6.266,0,0,1-1.25,2.222,5.423,5.423,0,0,1-2.109,1.44,7.962,7.962,0,0,1-2.944.508Zm2.93-2.588h2.031a3.466,3.466,0,0,0,2.852-1.147,5.143,5.143,0,0,0,.938-3.325,5.143,5.143,0,0,0-.937-3.325,3.466,3.466,0,0,0-2.852-1.147H98.086ZM8.076,75.2A7.877,7.877,0,0,1,5.2,74.678a6.763,6.763,0,0,1-2.29-1.445,6.515,6.515,0,0,1-1.5-2.295,8,8,0,0,1-.547-3A7.644,7.644,0,0,1,1.8,64.106,6.382,6.382,0,0,1,4.37,61.572a7.705,7.705,0,0,1,3.706-.879,7.488,7.488,0,0,1,4.141,1.143,6.255,6.255,0,0,1,2.529,3.145l-2.734,1a3.865,3.865,0,0,0-1.514-1.9,4.323,4.323,0,0,0-2.422-.684,4.145,4.145,0,0,0-3.086,1.23,5.156,5.156,0,0,0,0,6.646A4.14,4.14,0,0,0,8.076,72.5a4.307,4.307,0,0,0,2.417-.688A3.883,3.883,0,0,0,12.012,69.9l2.734,1a6.28,6.28,0,0,1-2.529,3.149A7.464,7.464,0,0,1,8.076,75.2Zm15.322,0a7.671,7.671,0,0,1-3.706-.884,6.407,6.407,0,0,1-2.573-2.544,8.294,8.294,0,0,1,0-7.661,6.382,6.382,0,0,1,2.573-2.534,7.705,7.705,0,0,1,3.706-.879,7.677,7.677,0,0,1,3.7.879,6.391,6.391,0,0,1,2.568,2.534,8.294,8.294,0,0,1,0,7.661,6.407,6.407,0,0,1-2.573,2.544A7.65,7.65,0,0,1,23.4,75.2Zm-3.086-3.916A4.145,4.145,0,0,0,23.4,72.51a4.136,4.136,0,0,0,3.086-1.235,5.178,5.178,0,0,0,0-6.655,4.145,4.145,0,0,0-3.086-1.23,4.145,4.145,0,0,0-3.086,1.23,4.528,4.528,0,0,0-1.211,3.32A4.575,4.575,0,0,0,20.313,71.279Zm21.26-10.391h3.115L39.473,75H36.25L31.064,60.889H34.17l3.7,10.693ZM46.807,75V60.889h2.93V75Zm6.572,0V60.889h5.107a7.962,7.962,0,0,1,2.944.508,5.423,5.423,0,0,1,2.109,1.44,6.266,6.266,0,0,1,1.25,2.222,10.014,10.014,0,0,1,0,5.771,6.266,6.266,0,0,1-1.25,2.222,5.423,5.423,0,0,1-2.109,1.44A7.962,7.962,0,0,1,58.486,75Zm2.93-2.588H58.34a3.466,3.466,0,0,0,2.852-1.147,5.143,5.143,0,0,0,.938-3.325,5.143,5.143,0,0,0-.937-3.325,3.466,3.466,0,0,0-2.852-1.147H56.309Zm15.41-11.523h2.676V75h-2.8V63.779L68.35,66.8V63.906ZM84.072,60.7a5.456,5.456,0,0,1,2.632.64,4.815,4.815,0,0,1,1.87,1.768,4.739,4.739,0,0,1,.684,2.5A5.765,5.765,0,0,1,88,69.053L83.6,75H80.4l3.652-4.775a4.676,4.676,0,0,1-.635.039,4.617,4.617,0,0,1-2.236-.562A4.409,4.409,0,0,1,79.5,68.066a4.625,4.625,0,0,1-.649-2.441A4.525,4.525,0,0,1,80.381,62.1,5.3,5.3,0,0,1,84.072,60.7Zm2.539,5.02a2.307,2.307,0,0,0-2.461-2.49,2.537,2.537,0,0,0-1.831.688,2.379,2.379,0,0,0-.728,1.772,2.414,2.414,0,0,0,.684,1.816,2.477,2.477,0,0,0,1.846.713,2.364,2.364,0,0,0,1.787-.713A2.55,2.55,0,0,0,86.611,65.723Z" transform="translate(383 1230)" fill="#707070"/>
    <path id="Trazado_4821" data-name="Trazado 4821" d="M18,19h-2.92L14.15,8.365,10.576,19H8.682L5.107,8.365,4.17,19H1.24L2.422,4.889H6.6l3.008,8.857,3.047-8.857h4.18Zm3.066,0V4.889h2.93V19ZM37.275,4.889H40.2V19H36.807L30.557,8.912V19h-2.92V4.889h3.35l6.289,10.029Zm6.172,10.088V12.623h7v2.354ZM58.389,19.2a6.818,6.818,0,0,1-3.916-1.079,4.328,4.328,0,0,1-1.9-3.022L55.6,14.4a2.571,2.571,0,0,0,.933,1.782,3.1,3.1,0,0,0,1.978.62,2.554,2.554,0,0,0,1.543-.435,1.466,1.466,0,0,0,.586-1.284,1.37,1.37,0,0,0-.5-1.045,3.254,3.254,0,0,0-.991-.64q-.493-.19-1.587-.522-.146-.049-.215-.068-.557-.176-.9-.293t-.845-.327a5.625,5.625,0,0,1-.82-.41,6.006,6.006,0,0,1-.679-.508,2.66,2.66,0,0,1-.566-.649,3.45,3.45,0,0,1-.342-.811A3.577,3.577,0,0,1,53.057,8.8a3.778,3.778,0,0,1,.659-2.222,4.037,4.037,0,0,1,1.777-1.416,6.469,6.469,0,0,1,2.544-.474,8.036,8.036,0,0,1,1.841.205,6.448,6.448,0,0,1,1.646.63A4.031,4.031,0,0,1,62.837,6.69,4.37,4.37,0,0,1,63.584,8.4l-2.832.7a2.294,2.294,0,0,0-2.539-2.021,2.78,2.78,0,0,0-1.572.41,1.39,1.39,0,0,0-.615,1.24q0,.771,1.025,1.25a15.28,15.28,0,0,0,1.963.674q.576.176.938.293t.908.342a6.311,6.311,0,0,1,.889.435,6.576,6.576,0,0,1,.742.542,2.919,2.919,0,0,1,.63.7,3.8,3.8,0,0,1,.386.874,3.653,3.653,0,0,1,.156,1.089,4.278,4.278,0,0,1-.283,1.592,3.464,3.464,0,0,1-.776,1.2,4.508,4.508,0,0,1-1.167.825A5.661,5.661,0,0,1,60,19.044,8.256,8.256,0,0,1,58.389,19.2ZM75.811,19l-1.025-2.91H68.857L67.832,19h-3l5.2-14.111h3.584L78.809,19Zm-6.094-5.361h4.209l-2.1-5.986Zm14.141,2.773h4.424V19H80.928V4.889h2.93ZM95.742,19.2a7.3,7.3,0,0,1-2.173-.308,5.114,5.114,0,0,1-1.743-.923,4.13,4.13,0,0,1-1.177-1.611,5.807,5.807,0,0,1-.425-2.295V4.889h2.93v8.77a3.067,3.067,0,0,0,.708,2.236,2.841,2.841,0,0,0,3.77,0,3.043,3.043,0,0,0,.718-2.231V4.889h2.93v9.17a5.807,5.807,0,0,1-.425,2.295,4.108,4.108,0,0,1-1.182,1.611,5.168,5.168,0,0,1-1.748.923A7.338,7.338,0,0,1,95.742,19.2Zm8.9-.2V4.889h5.107a7.962,7.962,0,0,1,2.944.508,5.423,5.423,0,0,1,2.109,1.44,6.266,6.266,0,0,1,1.25,2.222,9.172,9.172,0,0,1,.425,2.881,9.206,9.206,0,0,1-.425,2.891,6.266,6.266,0,0,1-1.25,2.222,5.423,5.423,0,0,1-2.109,1.44,7.962,7.962,0,0,1-2.944.508Zm2.93-2.588H109.6a3.466,3.466,0,0,0,2.852-1.147,5.143,5.143,0,0,0,.938-3.325,5.143,5.143,0,0,0-.937-3.325A3.466,3.466,0,0,0,109.6,7.467h-2.031Z" transform="translate(383 1310)" fill="#59bfd6"/>
  </g>
</svg>
