<svg xmlns="http://www.w3.org/2000/svg" xmlns:xlink="http://www.w3.org/1999/xlink" width="435" height="198" viewBox="0 0 435 198">
  <defs>
    <clipPath id="clip-path">
      <circle id="Elipse_724" data-name="Elipse 724" cx="48.049" cy="48.049" r="48.049" transform="translate(1723.7 880.394)" fill="#faa61a"/>
    </clipPath>
  </defs>
  <g id="Grupo_4348" data-name="Grupo 4348" transform="translate(-596 -1167)">
    <rect id="Rectángulo_965" data-name="Rectángulo 965" width="435" height="198" transform="translate(596 1167)" fill="#efefef"/>
    <g id="Trazado_3846" data-name="Trazado 3846" transform="translate(626 1189)" fill="#59bfd6">
      <path d="M 20 38.5 C 15.05846977233887 38.5 10.4127197265625 36.57566070556641 6.918529987335205 33.08147811889648 C 3.424340009689331 29.58728981018066 1.5 24.94153022766113 1.5 20 C 1.5 15.05846977233887 3.424340009689331 10.4127197265625 6.918529987335205 6.918529987335205 C 10.4127197265625 3.424340009689331 15.05846977233887 1.5 20 1.5 C 24.94153022766113 1.5 29.58728981018066 3.424340009689331 33.08147811889648 6.918529987335205 C 36.57566070556641 10.4127197265625 38.5 15.05846977233887 38.5 20 C 38.5 24.94153022766113 36.57566070556641 29.58728981018066 33.08147811889648 33.08147811889648 C 29.58728981018066 36.57566070556641 24.94153022766113 38.5 20 38.5 Z" stroke="none"/>
      <path d="M 20 3 C 15.45912933349609 3 11.19005966186523 4.768310546875 7.979179382324219 7.979179382324219 C 4.768310546875 11.19005966186523 3 15.45912933349609 3 20 C 3 24.54087066650391 4.768310546875 28.80994033813477 7.979179382324219 32.02082061767578 C 11.19005966186523 35.231689453125 15.45912933349609 37 20 37 C 24.54087066650391 37 28.80994033813477 35.231689453125 32.02082061767578 32.02082061767578 C 35.231689453125 28.80994033813477 37 24.54087066650391 37 20 C 37 15.45912933349609 35.231689453125 11.19005966186523 32.02082061767578 7.979179382324219 C 28.80994033813477 4.768310546875 24.54087066650391 3 20 3 M 20 0 C 31.04570007324219 0 40 8.954299926757812 40 20 C 40 31.04570007324219 31.04570007324219 40 20 40 C 8.954299926757812 40 0 31.04570007324219 0 20 C 0 8.954299926757812 8.954299926757812 0 20 0 Z" stroke="none" fill="#227d84"/>
    </g>
    <g id="Grupo_3710" data-name="Grupo 3710" transform="translate(97.116 835.749)">
      <g id="Grupo_3681" data-name="Grupo 3681" transform="translate(592.884 352.911)">
        <rect id="Rectángulo_1003" data-name="Rectángulo 1003" width="95.201" height="158.34" rx="10" fill="#404040"/>
        <rect id="Rectángulo_1004" data-name="Rectángulo 1004" width="82.87" height="137.623" rx="3.398" transform="translate(6.166 12.563)" fill="#fff"/>
        <path id="Trazado_3737" data-name="Trazado 3737" d="M709.149,516.714a33.542,33.542,0,0,1-10.39,24.385q-1,.955-2.082,1.819a31.886,31.886,0,0,1-16.629,6.874l-.312.031-.126.012-.277.024q-1.145.1-2.313.108h-.267c-.2,0-.4,0-.6,0q-1.477-.023-2.922-.181-.187-.02-.375-.043-.394-.047-.785-.1c-.173-.025-.347-.052-.519-.08a31.987,31.987,0,0,1-15.915-7.519q-1.079-.942-2.074-1.976a33.561,33.561,0,0,1-9.346-23.345c0-18.367,14.536-33.254,32.465-33.254S709.149,498.347,709.149,516.714Z" transform="translate(-629.07 -456.278)" fill="#bbe5e7" stroke="#bbe5e7" stroke-miterlimit="10" stroke-width="5"/>
        <circle id="Elipse_700" data-name="Elipse 700" cx="2.62" cy="2.62" r="2.62" transform="translate(44.98 2.172)" fill="#fff" opacity="0.36"/>
        <path id="Trazado_3738" data-name="Trazado 3738" d="M871.914,1384.816h-12.85a1.765,1.765,0,0,1-1.76-1.76h0a1.765,1.765,0,0,1,1.76-1.76h12.85a1.765,1.765,0,0,1,1.76,1.76h0A1.765,1.765,0,0,1,871.914,1384.816Z" transform="translate(-818.175 -1229.114)" fill="#fff" opacity="0.36"/>
      </g>
      <g id="Grupo_3696" data-name="Grupo 3696" transform="translate(615.707 381.702)">
        <path id="Trazado_3762" data-name="Trazado 3762" d="M802.885,535.549a0,0,0,0,0,0,0h0a2.424,2.424,0,0,1,.051-1.186s0,0,0-.006a.808.808,0,0,1,.057-.116.148.148,0,0,1,.01-.019c.013-.022.026-.051.044-.086.057-.125.14-.328.239-.585a.005.005,0,0,0,0,0c.332-.853.841-2.293,1.173-3.388.107-.356.2-.675.253-.926.117-.509.219-1.02.3-1.532h0a12.851,12.851,0,0,0-.89-7.844s0,0,0-.008a10.128,10.128,0,0,0-.975-1.559h0a10.253,10.253,0,0,0-1.888-1.914c-.005,0-.009-.008-.012-.008a11.54,11.54,0,0,0-3.235-1.737h-.005a13.913,13.913,0,0,0-1.667-.473,17.864,17.864,0,0,0-3.024-.4c-.18-.006-.36-.01-.547-.006-5.322.085-14.11,4.894-12.419,14.21a15.783,15.783,0,0,0,.623,2.342,20.587,20.587,0,0,0,1.016,2.4.745.745,0,0,1-.08.287s0,0,0,0c-.084.219-.23.553-.423.98h0c-1.476,3.253-5.744,11.864-7.05,15.671-1.326,3.858,1.691,6.252,6.447,7.549l.037.012h0l.01,0q.505.137,1.034.257h0a37.952,37.952,0,0,0,5,.76h.015l.023,0a.008.008,0,0,0,.008,0c.08.008.158.015.238.021h0q.667.058,1.346.1h0c1.57.091,3.178.116,4.77.081h0q.843-.019,1.677-.059h.018l.108-.005.143-.008h.008a57.526,57.526,0,0,0,5.833-.6c.777-.121,1.523-.257,2.226-.408.266-.057.525-.116.779-.176l.05-.012c3.175-.763,5.337-1.816,5.535-3.024C810.162,551.61,803.5,539.9,802.885,535.549Z" transform="translate(-767.427 -513.748)" fill="#b55959" opacity="0.99"/>
        <path id="Trazado_3763" data-name="Trazado 3763" d="M834.75,662.7s-2.72-8.372-3.723-5.538c-.9,2.539,2.35,9.47-.3,17.183-1.752,5.1,3.921,7.865,5.682,8.307s7.863-2.612,11-2.787c10.307-.574-.483-10.9,4.627-21.168C853.838,655.069,834.75,662.7,834.75,662.7Z" transform="translate(-816.465 -638.205)" fill="#9e3939" opacity="0.55"/>
        <path id="Trazado_3764" data-name="Trazado 3764" d="M880.056,769.5l-7.265-.138a.386.386,0,0,1-.4-.37l.554-22.919a.391.391,0,0,1,.417-.354l7.265.138a.387.387,0,0,1,.4.37l-.554,22.919A.391.391,0,0,1,880.056,769.5Z" transform="translate(-853.058 -715.881)" fill="#f2bab6"/>
        <ellipse id="Elipse_701" data-name="Elipse 701" cx="2.353" cy="2.088" rx="2.353" ry="2.088" transform="translate(34.076 16.336)" fill="#eda9a4"/>
        <ellipse id="Elipse_702" data-name="Elipse 702" cx="2.109" cy="1.871" rx="2.109" ry="1.871" transform="translate(11.385 16.553)" fill="#eda9a4"/>
        <ellipse id="Elipse_703" data-name="Elipse 703" cx="2.353" cy="2.088" rx="2.353" ry="2.088" transform="translate(34.076 16.336)" fill="#eda9a4"/>
        <ellipse id="Elipse_704" data-name="Elipse 704" cx="15.728" cy="10.668" rx="15.728" ry="10.668" transform="translate(12.94 32.043) rotate(-83.238)" fill="#f7cbc6"/>
        <path id="Trazado_3765" data-name="Trazado 3765" d="M938.841,567.631c-.064,3.2,1.934,3.842,3.871,5.538,2.324,2.033,4.71,3.3,4.377,2.957l-8.226-8.5A.013.013,0,0,0,938.841,567.631Z" transform="translate(-910.961 -560.691)" fill="#9e3939" opacity="0.55"/>
        <path id="Trazado_3766" data-name="Trazado 3766" d="M851.324,536.974c-.579-.24-2.751-3.41-5.6-5.151-2.72-1.663-2.6-3.094-3.047-3.7-.637.7-1.323,3.1-3.62,3.87-3.208,1.08-8.022.567-9.386,5.2-3.226-6.553.825-15.617,11.683-15.534C852.309,521.74,855.314,530.858,851.324,536.974Z" transform="translate(-814.894 -520.639)" fill="#b55959" opacity="0.99"/>
        <path id="Trazado_3768" data-name="Trazado 3768" d="M902.212,731.007l-2.84-1.46a.046.046,0,0,1-.02-.066l.488-.747a.059.059,0,0,1,.075-.018l2.84,1.46a.046.046,0,0,1,.02.066l-.488.747A.059.059,0,0,1,902.212,731.007Z" transform="translate(-876.545 -701.063)" fill="#ef8f99"/>
        <path id="Trazado_3769" data-name="Trazado 3769" d="M916.671,729.829l2.7-1.66a.06.06,0,0,1,.076.012l.555.709a.045.045,0,0,1-.014.068l-2.7,1.66a.059.059,0,0,1-.076-.012l-.555-.709A.045.045,0,0,1,916.671,729.829Z" transform="translate(-891.623 -700.585)" fill="#ef8f99"/>
        <path id="Trazado_3770" data-name="Trazado 3770" d="M881.018,859.83s-2.266.181-3.245.188h-.285c-.214,0-.427,0-.639-.005q-1.785-.025-3.529-.194l-1.4-.244.069-5.5.019-1.538h0l.082-6.51h0l.054-4.127v-.2h0l0-.16h0l0-.136h0l.053-4.252,0-.149,0-.217v-.112l.01-.844v-.075l.017-1.425.005-.324c0,.081.006.161.014.24h0v.005h0a4.231,4.231,0,0,0,1.363,2.853c.063.058.13.112.2.165h0a4,4,0,0,0,2.478.8,3.86,3.86,0,0,0,2.292-.716h0a3.9,3.9,0,0,0,.615-.552,4.357,4.357,0,0,0,.94-1.7,4.87,4.87,0,0,0,.167-.8v-.006c.019-.148.031-.3.036-.45v.062l.015,1.129.028,2.257.048,3.8,0,.14v.225l0,.21.062,4.885v0l.005.336h0l.021,1.577v.03Z" transform="translate(-852.648 -792.664)" fill="#0683b5"/>
        <g id="Grupo_3684" data-name="Grupo 3684" transform="translate(0 41.657)">
          <path id="Trazado_3771" data-name="Trazado 3771" d="M741.342,863.078a34.27,34.27,0,0,1-17.05-8.055q-1.155-1.009-2.222-2.117l1.209-4.463c.877-3.238,4.943-6.631,9.49-7.985l.742-.223h0l2.049-.609h0l1.341-.4h0l1.573-.469h0l.525-.156.111-.032,2.406-.718v.015l.013.265.019.39.072,1.507v.006l.008.134.016.336.008.145.2,4.13.008.134,0,.1,0,.06v.042l.009.2.21,4.339.359,7.508h0l.081,1.7.211,4.423,0,.046Z" transform="translate(-722.07 -837.824)" fill="#fff"/>
          <g id="Grupo_3683" data-name="Grupo 3683" transform="translate(10.697)">
            <path id="Trazado_3772" data-name="Trazado 3772" d="M814.659,845.219l-.321.1-1.8.531-6.728,1.989-.568-7.371L814,837.851l.327,7.225.325-.139Z" transform="translate(-805.246 -837.825)" fill="#9edae8"/>
            <path id="Trazado_3773" data-name="Trazado 3773" d="M819.033,904.941l-.059-.068L809.8,894.406l6.726-2.852,1.778-.756.323-.136.005.269Z" transform="translate(-809.213 -883.843)" fill="#9edae8"/>
            <path id="Trazado_3774" data-name="Trazado 3774" d="M819.754,844.821l-7.986,2.352-.753-7.148,8.155-2.377Z" transform="translate(-810.273 -837.649)" fill="#fff"/>
            <path id="Trazado_3775" data-name="Trazado 3775" d="M825.088,904.125l-8.353-9.183,7.984-3.384Z" transform="translate(-815.257 -884.626)" fill="#fff"/>
          </g>
        </g>
        <path id="Trazado_3776" data-name="Trazado 3776" d="M958.958,850.082q-1.075,1.022-2.23,1.948a34.159,34.159,0,0,1-17.815,7.364l-.13-6.051-.255-12.077-.008-.208v-.207l-.136-6.3-.024-1.2v-.018l2.4.62.04.01h0l.131.033,2.8.721h0l2.788.719h0l.757.2.051.014c4.6,1.2,8.765,4.566,9.731,7.9Z" transform="translate(-910.543 -792.228)" fill="#fff"/>
        <g id="Grupo_3685" data-name="Grupo 3685" transform="translate(27.601 41.083)">
          <path id="Trazado_3777" data-name="Trazado 3777" d="M937.221,841.2l.322.085,1.8.457,6.738,1.712.192-7.8-8.921-2.307.181,7.689-.329-.128Z" transform="translate(-937.139 -833.321)" fill="#9edae8"/>
          <path id="Trazado_3778" data-name="Trazado 3778" d="M937.594,904.25l.052-.069,8.28-11.011-6.784-2.607-1.8-.694-.328-.125.013.281Z" transform="translate(-936.971 -882.469)" fill="#9edae8"/>
          <path id="Trazado_3779" data-name="Trazado 3779" d="M936.679,840.835l8.006,2.023.373-7.587-8.307-2.085Z" transform="translate(-936.679 -833.187)" fill="#fff"/>
          <path id="Trazado_3780" data-name="Trazado 3780" d="M937.2,903.511l7.559-9.711-8.062-3.1Z" transform="translate(-936.695 -883.306)" fill="#fff"/>
        </g>
        <g id="Grupo_3693" data-name="Grupo 3693" transform="translate(11.615 37.5)">
          <g id="Grupo_3686" data-name="Grupo 3686" transform="translate(1.08 0.49)">
            <path id="Trazado_3781" data-name="Trazado 3781" d="M822.2,827.323c-3.074-3.538-.586-12.478,1.981-15.548a9.224,9.224,0,0,1,3.519-2.638l.15.356a8.844,8.844,0,0,0-3.373,2.53,17.674,17.674,0,0,0-3.022,7.433c-.61,3.378-.233,6.154,1.036,7.614Z" transform="translate(-820.778 -809.137)" fill="#021416"/>
          </g>
          <g id="Grupo_3692" data-name="Grupo 3692">
            <g id="Grupo_3687" data-name="Grupo 3687" transform="translate(16.149)">
              <path id="Trazado_3782" data-name="Trazado 3782" d="M944.486,819.542l-.384-.041c.753-7.023-.936-11.453-5.165-13.544a3.51,3.51,0,0,0-1-.248l.054-.382a3.792,3.792,0,0,1,1.113.284C943.5,807.782,945.258,812.339,944.486,819.542Z" transform="translate(-937.942 -805.327)" fill="#021416"/>
            </g>
            <g id="Grupo_3691" data-name="Grupo 3691" transform="translate(0 13.693)">
              <g id="Grupo_3689" data-name="Grupo 3689" transform="translate(0 2.944)">
                <g id="Grupo_3688" data-name="Grupo 3688">
                  <ellipse id="Elipse_705" data-name="Elipse 705" cx="2.649" cy="2.35" rx="2.649" ry="2.35" fill="#c1c1bd"/>
                </g>
                <ellipse id="Elipse_706" data-name="Elipse 706" cx="1.404" cy="1.245" rx="1.404" ry="1.245" transform="translate(1.245 1.105)" fill="#757572"/>
              </g>
              <g id="Grupo_3690" data-name="Grupo 3690" transform="translate(12.909)">
                <path id="Trazado_3783" data-name="Trazado 3783" d="M921.418,923.9h-.373v-.386h.373a1.043,1.043,0,0,0,1.012-.663c.7-2.178,2.748-9.371-.458-10.5a3.838,3.838,0,0,0-3.223.5,13.607,13.607,0,0,0-5.6,7.6.849.849,0,0,0,.457.895l.376.215-.191.335-.376-.215a1.229,1.229,0,0,1-.644-1.306,13.839,13.839,0,0,1,5.785-7.856,4.2,4.2,0,0,1,3.542-.524c3.438,1.214,1.632,8.087.7,10.985A1.431,1.431,0,0,1,921.418,923.9Z" transform="translate(-912.751 -911.794)" fill="#021416"/>
              </g>
              <path id="Trazado_3784" data-name="Trazado 3784" d="M918.13,985.2a.794.794,0,1,1-.789-.7A.748.748,0,0,1,918.13,985.2Z" transform="translate(-903.155 -975.15)" fill="#757572"/>
              <path id="Trazado_3785" data-name="Trazado 3785" d="M972.68,999.707a.794.794,0,1,1-.789-.7A.748.748,0,0,1,972.68,999.707Z" transform="translate(-950.689 -987.79)" fill="#757572"/>
            </g>
          </g>
        </g>
        <path id="Trazado_3786" data-name="Trazado 3786" d="M781.995,771.31s-3.334,5.645,0,7.149C781.995,778.459,780.536,774.3,781.995,771.31Z" transform="translate(-772.997 -738.185)" fill="#d88080"/>
        <path id="Trazado_3787" data-name="Trazado 3787" d="M1002.012,729.909s2.465,2.719,2.465,4.317Z" transform="translate(-966.009 -702.108)" fill="#d88080"/>
        <path id="Trazado_3788" data-name="Trazado 3788" d="M838.651,533.186s-5.762,3.455-8.254,6.285C830.4,539.471,834.39,533.925,838.651,533.186Z" transform="translate(-816.465 -530.686)" fill="#d88080"/>
        <path id="Trazado_3789" data-name="Trazado 3789" d="M1006.515,595.825a6.61,6.61,0,0,1,0,3.843Z" transform="translate(-969.933 -585.269)" fill="#d88080"/>
        <path id="Trazado_3790" data-name="Trazado 3790" d="M860.608,558.817a27.6,27.6,0,0,0-5.052,3.846S858,559.27,860.608,558.817Z" transform="translate(-838.388 -553.021)" fill="#d88080"/>
        <path id="Trazado_3791" data-name="Trazado 3791" d="M951.351,529.719s4.139,4.958,5.43,8.361C956.781,538.08,955.093,531.673,951.351,529.719Z" transform="translate(-921.863 -527.665)" fill="#d88080"/>
        <path id="Trazado_3792" data-name="Trazado 3792" d="M949.315,542.035s2.465,2.719,2.465,4.317Z" transform="translate(-920.089 -538.397)" fill="#d88080"/>
        <g id="Grupo_3694" data-name="Grupo 3694" transform="translate(20.566 16.167)">
          <path id="Trazado_3793" data-name="Trazado 3793" d="M883.631,640.766a1.545,1.545,0,0,1-.429,1.147.6.6,0,0,1-.4.162c-.457,0-.826-.587-.826-1.309,0-.665.312-1.215.718-1.3a.526.526,0,0,1,.109-.012.7.7,0,0,1,.57.365.268.268,0,0,0-.215.251.279.279,0,0,0,.294.261.322.322,0,0,0,.123-.024A2.013,2.013,0,0,1,883.631,640.766Z" transform="translate(-881.978 -639.455)"/>
          <path id="Trazado_3794" data-name="Trazado 3794" d="M883.2,641.991a.6.6,0,0,1-.4.162c-.457,0-.826-.586-.826-1.309,0-.665.312-1.215.718-1.3a2.112,2.112,0,0,0-.287,1.611A1.264,1.264,0,0,0,883.2,641.991Z" transform="translate(-881.978 -639.533)" fill="#665757" opacity="0.47"/>
        </g>
        <g id="Grupo_3695" data-name="Grupo 3695" transform="translate(29.488 16.173)">
          <path id="Trazado_3795" data-name="Trazado 3795" d="M953,640.811a1.545,1.545,0,0,1-.429,1.147.6.6,0,0,1-.4.162c-.457,0-.826-.586-.826-1.309,0-.665.312-1.215.718-1.3a.52.52,0,0,1,.109-.012.7.7,0,0,1,.57.365.268.268,0,0,0-.214.251.279.279,0,0,0,.294.261.32.32,0,0,0,.123-.024A2.011,2.011,0,0,1,953,640.811Z" transform="translate(-951.351 -639.5)"/>
          <path id="Trazado_3796" data-name="Trazado 3796" d="M952.575,642.036a.6.6,0,0,1-.4.162c-.457,0-.826-.587-.826-1.309,0-.665.312-1.215.718-1.3a2.113,2.113,0,0,0-.287,1.611A1.265,1.265,0,0,0,952.575,642.036Z" transform="translate(-951.351 -639.578)" fill="#665757" opacity="0.47"/>
        </g>
      </g>
      <g id="Grupo_3705" data-name="Grupo 3705" transform="translate(610.983 479.599)">
        <g id="Grupo_3697" data-name="Grupo 3697" transform="translate(0 0)">
          <circle id="Elipse_707" data-name="Elipse 707" cx="7.904" cy="7.904" r="7.904" transform="translate(41.326 6.049) rotate(-22.5)" fill="#bbe5e7"/>
          <circle id="Elipse_708" data-name="Elipse 708" cx="7.904" cy="7.904" r="7.904" transform="translate(19.747 6.049) rotate(-22.5)" fill="#bbe5e7"/>
          <circle id="Elipse_709" data-name="Elipse 709" cx="7.904" cy="7.904" r="7.904" transform="translate(0 2.563)" fill="#55acd8"/>
        </g>
        <g id="Grupo_3698" data-name="Grupo 3698" transform="translate(3.272 8.169)">
          <rect id="Rectángulo_1006" data-name="Rectángulo 1006" width="6.91" height="4.587" fill="#fff"/>
          <path id="Trazado_3797" data-name="Trazado 3797" d="M779.413,1264.3a.422.422,0,0,1,.623.4l-.033,1.846-.033,1.846a.42.42,0,0,1-.637.377l-1.476-.954-2.1-1.356,2.146-1.269Z" transform="translate(-770.067 -1264.243)" fill="#fff"/>
        </g>
        <g id="Grupo_3701" data-name="Grupo 3701" transform="translate(47.633 6.43)">
          <path id="Trazado_3798" data-name="Trazado 3798" d="M1044.118,1259.2l-.448-.7a1.157,1.157,0,0,0-1.509-.417,1.11,1.11,0,0,0-.346.291.218.218,0,0,1-.355-.017l-1.655-2.572a.357.357,0,0,1,.126-.507,1.15,1.15,0,0,0,.136-.087h0a1.131,1.131,0,0,0,.229-1.579l-.521-.7a1.131,1.131,0,0,0-1.579-.228h0c-1.4.719-1.177,2.3-.949,3.6a6.648,6.648,0,0,0,2.561,3.98,2.994,2.994,0,0,0,3.976.489A1.13,1.13,0,0,0,1044.118,1259.2Z" transform="translate(-1037.077 -1252.468)" fill="#fff"/>
          <g id="Grupo_3699" data-name="Grupo 3699" transform="translate(5.579 0.176)">
            <path id="Trazado_3799" data-name="Trazado 3799" d="M1077.382,1258.121a.148.148,0,0,1-.138-.2,3.109,3.109,0,0,0-.539-2.292,3.236,3.236,0,0,0-1.8-1.675.148.148,0,1,1,.046-.292,3.558,3.558,0,0,1,2.01,1.819,3.428,3.428,0,0,1,.559,2.546A.148.148,0,0,1,1077.382,1258.121Z" transform="translate(-1074.781 -1253.66)" fill="#fff"/>
          </g>
          <g id="Grupo_3700" data-name="Grupo 3700" transform="translate(4.504 1.533)">
            <path id="Trazado_3800" data-name="Trazado 3800" d="M1069.2,1266.385a.144.144,0,0,1-.084-.026.148.148,0,0,1-.038-.206,1.422,1.422,0,0,0-.021-1.142,3.211,3.211,0,0,0-1.449-1.9.148.148,0,1,1,.1-.278,3.42,3.42,0,0,1,1.63,2.085,1.657,1.657,0,0,1-.016,1.4A.148.148,0,0,1,1069.2,1266.385Z" transform="translate(-1067.511 -1262.827)" fill="#fff"/>
          </g>
        </g>
        <g id="Grupo_3704" data-name="Grupo 3704" transform="translate(26.283 5.06)">
          <rect id="Rectángulo_1007" data-name="Rectángulo 1007" width="3.264" height="7.554" rx="1.632" transform="translate(2.273)" fill="#fff"/>
          <path id="Trazado_3801" data-name="Trazado 3801" d="M917.882,1294.016h0a.228.228,0,0,1-.228-.228v-2.06a.228.228,0,0,1,.228-.228h0a.229.229,0,0,1,.228.228v2.06A.228.228,0,0,1,917.882,1294.016Z" transform="translate(-913.977 -1284.354)" fill="#fff"/>
          <path id="Trazado_3802" data-name="Trazado 3802" d="M914.315,1307.18h-1.379a.278.278,0,0,1-.277-.278h0a.278.278,0,0,1,.277-.277h1.379a.278.278,0,0,1,.277.277h0A.278.278,0,0,1,914.315,1307.18Z" transform="translate(-909.72 -1297.241)" fill="#fff"/>
          <g id="Grupo_3703" data-name="Grupo 3703" transform="translate(0 2.283)">
            <g id="Grupo_3702" data-name="Grupo 3702" transform="translate(1.31 2.021)">
              <path id="Trazado_3803" data-name="Trazado 3803" d="M904.456,1276.31h-.11c-2.695-.076-2.691-1.913-2.688-3.69v-.179a.148.148,0,0,1,.148-.148h0a.148.148,0,0,1,.148.148v.18c0,1.785-.006,3.327,2.4,3.394a2.028,2.028,0,0,0,1.552-.5,3.848,3.848,0,0,0,.64-2.743c0-.119,0-.23,0-.331a.148.148,0,1,1,.3,0c0,.1,0,.208,0,.326a4.061,4.061,0,0,1-.727,2.959A2.261,2.261,0,0,1,904.456,1276.31Z" transform="translate(-901.658 -1272.291)" fill="#fff"/>
            </g>
            <path id="Trazado_3804" data-name="Trazado 3804" d="M900.03,1258.681l-7.138,5.526a.222.222,0,0,0-.04.311h0a.223.223,0,0,0,.312.04l7.138-5.526a.223.223,0,0,0,.039-.311h0A.223.223,0,0,0,900.03,1258.681Z" transform="translate(-892.806 -1258.635)" fill="#fff"/>
          </g>
        </g>
      </g>
    </g>
    <path id="Trazado_3847" data-name="Trazado 3847" d="M12.656-14.156a21.1,21.1,0,0,0-2.086,2.631A23.238,23.238,0,0,0,8.332-7.617,23.263,23.263,0,0,0,7.043-3.75,16.058,16.058,0,0,0,6.469,0H3A20.422,20.422,0,0,1,6-9.5,22.447,22.447,0,0,1,9.082-13.77H.609l.047-3h12Z" transform="translate(640 1217)" fill="#fff"/>
    <g id="Grupo_3819" data-name="Grupo 3819" transform="translate(257.263 1120.261)">
      <path id="Trazado_3686" data-name="Trazado 3686" d="M576.18,330.946l.992-25.587,2.015-.067,2.073.067,1.855,25.587H601.4c.163-9.248.323-18.325.47-26.711.115-6.5.223-12.6.32-18.027a56.637,56.637,0,0,1-17.118-.617,140.473,140.473,0,0,0-29-4.319c.3,12.635,1.146,30.72,2.123,49.675Z" transform="translate(-6.817 -87.856)" fill="#b67636"/>
      <path id="Trazado_3687" data-name="Trazado 3687" d="M550.768,222.075c0,.34,1.145.3,2.472.2l.115-13.043-2.5-.532C550.75,213.347,549.215,217.932,550.768,222.075Z" transform="translate(-4.458 -59.328)" fill="#f88864"/>
      <path id="Trazado_3688" data-name="Trazado 3688" d="M546.529,220.747c-1.553-4.143-.019-8.729.089-13.378l-4.671-2.05s-1.4,7.595-1.576,10.751c-.125,2.236-.8,2.59-1.08,6.549l9.663,3.59.046-5.265C547.674,221.047,546.529,221.088,546.529,220.747Z" transform="translate(-0.218 -58)" fill="#ffa988"/>
      <path id="Trazado_3689" data-name="Trazado 3689" d="M574.29,153.475c8.35.5,18.61,1.461,24.648-5.141-4.431-1.956-7.289-2.728-7.858-3.535-1.424-2.018-.578-13.223-.578-13.223l-7.44,2.938-4.967-.134s-.371,7.758-1.687,9.816c-.854,1.335-5.658,3.049-10.508,5.032A13.22,13.22,0,0,0,574.29,153.475Z" transform="translate(-10.678 -29.013)" fill="#ffa988"/>
      <path id="Trazado_3690" data-name="Trazado 3690" d="M601.93,301.082c.094-5.322.183-10.331.264-14.875a56.637,56.637,0,0,1-17.118-.617,140.473,140.473,0,0,0-29-4.319c.12,5.108.331,11.113.6,17.7C570.9,303.2,587.479,305.9,601.93,301.082Z" transform="translate(-6.817 -87.856)" fill="#a36b31"/>
      <path id="Trazado_3691" data-name="Trazado 3691" d="M550.247,165.407c-2.211,1.312-3.979,2.71-4.792,4.207-2.763,5.09-2.814,19.717-4.384,30.767,2.529,1.258,6.77,1.918,8.42,2.138C554.22,190.678,553.468,177.579,550.247,165.407Z" transform="translate(-0.917 -42.311)" fill="#53545d"/>
      <path id="Trazado_3692" data-name="Trazado 3692" d="M601.369,198.838a15.615,15.615,0,0,0-3.014-.189c0-12.834-2.335-26.668-.24-39.422-2.517-1.227-5.038-2.351-7.137-3.3-7.076,5.3-17.02,6.526-23.072-.135-3.758,1.757-8.578,3.681-12.2,5.834,3.221,12.172,3.973,25.271-.756,37.113.431.058.688.086.688.086s-.853,33.4-.538,49.542c14.154,3.4,32.912,3.894,47.074,1.156C602.434,231.8,601.385,199.346,601.369,198.838Z" transform="translate(-6.371 -38.533)" fill="#53545d"/>
      <path id="Trazado_3693" data-name="Trazado 3693" d="M621.027,270.123c2.32-.267,4.576-.6,6.717-1.012.267-17.864-.8-50.7-.8-50.7H627c-.66,0-2.856-.294-2.856-.294s-.657-8.044-.9-12.5C620.264,227.475,618.931,248.435,621.027,270.123Z" transform="translate(-31.947 -58.118)" fill="#42434a"/>
      <path id="Trazado_3694" data-name="Trazado 3694" d="M590.054,145.762c2.017-1.3,5.2-3.024,7.29-4.068a71.177,71.177,0,0,1,.089-8.227l-7.348,1.79-4.967-.134s-.308,6.423-1.355,9.13C586,146,588.154,147.592,590.054,145.762Z" transform="translate(-17.699 -29.756)" fill="#f88864"/>
      <path id="Trazado_3695" data-name="Trazado 3695" d="M554.66,207.423c-2.091-.2-4.211,7.073-4.824,11.095,2.052.412,3.744.6,3.785.6C553.9,215.221,554.111,211.743,554.66,207.423Z" transform="translate(-4.363 -58.826)" fill="#42434a"/>
      <path id="Trazado_3696" data-name="Trazado 3696" d="M599.837,156.514l-1.478-.6c-7.076,4.764-17.02,5.862-23.072-.121-.489.205-1.015.418-1.563.634C579.9,163.9,593.425,162.2,599.837,156.514Z" transform="translate(-13.753 -38.533)" fill="#42434a"/>
      <path id="Trazado_3697" data-name="Trazado 3697" d="M585.241,230.571c-5.409.757-27-2.989-35.968-4.248a86.492,86.492,0,0,0-9.371-.449c-2.016,8.416-.865,9.646-.563,10.772.362,1.347,3.42,1.969,4.9,1.948s8.77.921,15.763,1.555,25.249-1.548,27.634-2.467a7.912,7.912,0,0,1,1.665-.438A13.446,13.446,0,0,1,585.241,230.571Z" transform="translate(0 -66.08)" fill="#ffa988"/>
      <path id="Trazado_3698" data-name="Trazado 3698" d="M586.63,233.613a18.572,18.572,0,0,1-3,.076c.608,2.692,1.313,5.578.821,6.07-13.859,4.042-28.268,1.493-42.18,1.236a9.621,9.621,0,0,0,3.355.64c1.478-.022,8.77.921,15.763,1.555s25.249-1.548,27.634-2.466a7.912,7.912,0,0,1,1.665-.438A13.446,13.446,0,0,1,586.63,233.613Z" transform="translate(-1.389 -69.122)" fill="#f88864"/>
      <path id="Trazado_3699" data-name="Trazado 3699" d="M615.051,233.072s8.845-1.893,10.58-2.082,4.9-.485,6.325-.592,2.672.989,3.7,2.273,2.16,2.577,2.133,2.981-.175,1.1-.888,1.157a3.971,3.971,0,0,0-1.131.229s1.03,1.285.774,2.079a2.748,2.748,0,0,1-.895,1.258s.255,2.247-.364,2.409-1.648.4-1.648.4-.053.807-.1,1.514-1.7,1.2-2.281.76-.579-1.965-1.6-1.83-2.193.969-3.506.882-9.448-5.463-9.448-5.463-1.487-2.549-1.063-4.345S615.051,233.072,615.051,233.072Z" transform="translate(-29.998 -67.856)" fill="#f88864"/>
      <path id="Trazado_3700" data-name="Trazado 3700" d="M575.3,95.5s.309-2.13-2.286-2.23-3.509,2.935-3.41,4.623c.255,4.352,1.129,6.337,1.746,6.795,1.422,1.056,2.263.007,2.263.007s.4-3.37.617-4.543C574.444,99.016,575.3,95.5,575.3,95.5Z" transform="translate(-12.132 -13.955)" fill="#ffa988"/>
      <path id="Trazado_3701" data-name="Trazado 3701" d="M572.065,96.474a2.052,2.052,0,0,1,3.867,1.138c-.111.456-.535,2.306-.73,3.359-.017.089-.777,3.44-.8,3.552C571.8,103.253,576.485,96.486,572.065,96.474Z" transform="translate(-13.101 -14.773)" fill="#f88864"/>
      <path id="Trazado_3702" data-name="Trazado 3702" d="M629.286,107.986s.649-2.051,3.029-1.012,1.883,4.169,1.059,5.647c-2.124,3.807-3.774,5.214-4.529,5.358-1.74.332-2.04-.979-2.04-.979s1.108-3.208,1.423-4.359C628.532,111.524,629.286,107.986,629.286,107.986Z" transform="translate(-34.618 -19.227)" fill="#ffa988"/>
      <path id="Trazado_3703" data-name="Trazado 3703" d="M633.392,110.787a2.052,2.052,0,0,0-3.977-.659c-.1.459-.522,2.309-.8,3.342-.024.088-.8,3.436-.83,3.545C630.68,117.005,629.407,108.875,633.392,110.787Z" transform="translate(-35.002 -20.057)" fill="#f88864"/>
      <path id="Trazado_3704" data-name="Trazado 3704" d="M577.874,82.157s-3.7,13.294-2.616,18.264c.69,3.175,4.754,10.694,6.987,13.088,1.584,1.7,6.913,2.964,9.112,2.207,2.916-1,9.033-4.47,11.016-6.448,2.579-2.572,5.6-11.6,5.6-11.6a3.6,3.6,0,0,0,.258-.674l2.678-9.831a3.6,3.6,0,0,0,.125-1.046h0A19.507,19.507,0,0,0,599.52,69.191l-.606-.283c-5.062-2.371-12.112-1.163-15.857,2.668a3.609,3.609,0,0,0-.411.512l-2.424,3.59a3.621,3.621,0,0,0-.41.808l-1.753,4.889A3.641,3.641,0,0,0,577.874,82.157Z" transform="translate(-14.278 -3.901)" fill="#ffa988"/>
      <path id="Trazado_3705" data-name="Trazado 3705" d="M593.958,97.164c-1.437-1.156-5.829-2.145-7.674-1.832a10.068,10.068,0,0,0-2.349,1.239,35.771,35.771,0,0,1,4.248.586c1.454.437,4.691,2.26,5.854,1.635C594.443,98.573,594.345,97.475,593.958,97.164Z" transform="translate(-17.767 -14.743)" fill="#4a3029"/>
      <path id="Trazado_3706" data-name="Trazado 3706" d="M610.954,98.769c1.841-.095,5.981,1.679,7.292,3.015a10.079,10.079,0,0,1,1.176,2.382,35.815,35.815,0,0,0-3.784-2.016c-1.434-.5-5.125-.919-5.7-2.107C609.735,99.626,610.458,98.794,610.954,98.769Z" transform="translate(-27.974 -16.115)" fill="#4a3029"/>
      <path id="Trazado_3707" data-name="Trazado 3707" d="M601.259,59.433c-8.851-2.617-20.4-1.367-20.4-1.367s5.862,2.306,4.93,2.781c-1.048.533-4.085-.818-4.085-.818s.237,3.814-.115,4.459c-2.232,4.092-2.546,6.377-3.43,10.24-.141.613-.768,4.816-.768,4.816s.667,2.174.981,1.2c5.608-17.423,12.277-9.084,18.078-7.659,8.01,1.968,15.9-3.834,13.965,15.078.362.184,1.192-.783,1.192-.783s1.211-4.208,1.317-4.69C614.957,73.434,613.135,62.945,601.259,59.433Z" transform="translate(-15.194 0)" fill="#5a3a32"/>
      <path id="Trazado_3708" data-name="Trazado 3708" d="M608.879,74.4c-1.134,2.231-8.2-4.99-12.609-4.755.185,1.91,1.418,4.683-1.084,4.733-3.093-.086-4.647-4.177-8.332-4.4.185,1.91-1.725,2.1-2.587,3.143-4.112,2.087-5.377,7.181-6.441,11.814.221.527.531,1.055.717.478,5.608-17.423,12.277-9.084,18.078-7.659,8.01,1.968,15.9-3.834,13.965,15.078.362.184,1.192-.783,1.192-.783s1.211-4.208,1.317-4.69a31.324,31.324,0,0,0,.591-3.751A17.332,17.332,0,0,0,608.879,74.4Z" transform="translate(-15.365 -4.665)" fill="#4a3029"/>
      <g id="Grupo_3676" data-name="Grupo 3676" transform="translate(567.086 84.659)">
        <path id="Trazado_3709" data-name="Trazado 3709" d="M592.146,107.256a10.235,10.235,0,0,1-4.573-.633,2.313,2.313,0,0,1-1.579-3.069s.313-1.008.992-1.075a8.937,8.937,0,0,1,2.332-.079,13.53,13.53,0,0,1,2.048.859c.354.16,1.119,2.185,1.28,3.209A.784.784,0,0,1,592.146,107.256Z" transform="translate(-585.606 -102.181)" fill="#fffffb"/>
        <path id="Trazado_3710" data-name="Trazado 3710" d="M592.765,105.148a1.989,1.989,0,1,1-1.477-2.456A2.027,2.027,0,0,1,592.765,105.148Z" transform="translate(-586.779 -102.299)" fill="#b67636"/>
        <path id="Trazado_3711" data-name="Trazado 3711" d="M592.668,105.523a1.283,1.283,0,1,1-.964-1.539A1.284,1.284,0,0,1,592.668,105.523Z" transform="translate(-587.289 -102.813)"/>
        <path id="Trazado_3712" data-name="Trazado 3712" d="M593.626,105.622a.664.664,0,1,1-.5-.8A.665.665,0,0,1,593.626,105.622Z" transform="translate(-588.146 -103.15)" fill="#fffffb"/>
        <path id="Trazado_3713" data-name="Trazado 3713" d="M592.513,106.461a4.091,4.091,0,0,0-2.362-3.446,3.557,3.557,0,0,0-3-.212,10.67,10.67,0,0,0-1.319.646l-.388-.626a5.177,5.177,0,0,1,2.39-.74,5.35,5.35,0,0,1,3.5,1.145,3.2,3.2,0,0,1,1.265,2.009C592.9,106.192,592.513,106.461,592.513,106.461Z" transform="translate(-585.447 -102.076)"/>
      </g>
      <g id="Grupo_3677" data-name="Grupo 3677" transform="translate(581.569 88.563)">
        <path id="Trazado_3714" data-name="Trazado 3714" d="M609.531,111.94a10.233,10.233,0,0,0,4.392,1.42,2.313,2.313,0,0,0,2.757-2.076s.158-1.043-.426-1.4a8.938,8.938,0,0,0-2.065-1.085,13.511,13.511,0,0,0-2.219-.118c-.388-.01-1.958,1.481-2.548,2.333A.783.783,0,0,0,609.531,111.94Z" transform="translate(-609.311 -108.576)" fill="#fffffb"/>
        <path id="Trazado_3715" data-name="Trazado 3715" d="M617.036,110.981a1.987,1.987,0,1,1-1.493-2.384A1.989,1.989,0,0,1,617.036,110.981Z" transform="translate(-610.805 -108.523)" fill="#b67636"/>
        <path id="Trazado_3716" data-name="Trazado 3716" d="M616.938,111.339a1.284,1.284,0,1,1-.974-1.495A1.262,1.262,0,0,1,616.938,111.339Z" transform="translate(-611.314 -109.02)"/>
        <path id="Trazado_3717" data-name="Trazado 3717" d="M617.892,111.439a.665.665,0,1,1-.5-.774A.653.653,0,0,1,617.892,111.439Z" transform="translate(-612.169 -109.35)" fill="#fffffb"/>
        <path id="Trazado_3718" data-name="Trazado 3718" d="M609.362,111.021a4.091,4.091,0,0,1,3.626-2.074,3.556,3.556,0,0,1,2.791,1.113,10.652,10.652,0,0,1,.906,1.156l.622-.4a5.17,5.17,0,0,0-1.829-1.706,5.349,5.349,0,0,0-3.646-.491,3.207,3.207,0,0,0-2.014,1.259C609.131,110.611,609.362,111.021,609.362,111.021Z" transform="translate(-609.316 -108.508)"/>
      </g>
      <path id="Trazado_3719" data-name="Trazado 3719" d="M598.827,121.205l-2.674-1.682,5.769,1.321Z" transform="translate(-22.569 -24.275)" fill="#f78b60"/>
      <path id="Trazado_3720" data-name="Trazado 3720" d="M588.721,128.277s5.108-.91,6.524-1.011a16.1,16.1,0,0,1,4.5,1.062l.455.556a14.6,14.6,0,0,0-3.743-.759c-1.112.1-6.524,1.265-7.03,1.062A1.521,1.521,0,0,1,588.721,128.277Z" transform="translate(-19.648 -27.316)" fill="#f88864"/>
      <path id="Trazado_3733" data-name="Trazado 3733" d="M17.516,0C27.19,0,35.032,7.088,35.032,15.831S27.19,31.661,17.516,31.661,0,24.574,0,15.831,7.842,0,17.516,0Z" transform="translate(632.962 66.819)" fill="#5f7681" opacity="0.844"/>
      <path id="Trazado_3721" data-name="Trazado 3721" d="M701.717,96.548a1.449,1.449,0,0,1-1.065-.465,1.468,1.468,0,0,1-.458-1.057q0-1.021,1.892-2.513l3.532-2.661q1.906-1.64,1.906-3a4.223,4.223,0,0,0-1.611-3.163,4.855,4.855,0,0,0-3.3-1.4,4.639,4.639,0,0,0-2.365.953,5.574,5.574,0,0,1-1.774.953,1.35,1.35,0,0,1-1.042-.488A1.6,1.6,0,0,1,697,82.61q0-1.167,2.261-2.32a7.81,7.81,0,0,1,3.355-1.035,7.628,7.628,0,0,1,5.395,2.32,7.13,7.13,0,0,1,2.424,5.277,5.816,5.816,0,0,1-1.389,3.828,16.9,16.9,0,0,1-3.075,2.6,19.949,19.949,0,0,0-3.148,2.661A1.468,1.468,0,0,1,701.717,96.548Zm-.813,5.616a1.791,1.791,0,0,1-1.175-.436,1.329,1.329,0,0,1-.524-1.057,2.943,2.943,0,0,1,.487-1.656,1.632,1.632,0,0,1,1.4-.828q1.418,0,1.419,1.744a2.822,2.822,0,0,1-.384,1.463A1.406,1.406,0,0,1,700.9,102.164Z" transform="translate(-52.212 -8.446)" fill="#fff"/>
      <path id="Trazado_3722" data-name="Trazado 3722" d="M662.739,89.658c0,1.651,1.612,2.99,3.6,2.99s3.6-1.339,3.6-2.99-1.611-2.991-3.6-2.991S662.739,88.006,662.739,89.658Z" transform="translate(-38.744 -11.36)" fill="#5f7681"/>
      <ellipse id="Elipse_699" data-name="Elipse 699" cx="1.782" cy="1.481" rx="1.782" ry="1.481" transform="translate(615.822 76.817)" fill="#5f7681"/>
      <path id="Trazado_3723" data-name="Trazado 3723" d="M633.932,218.509c-1.593.3-4.7.531-4.7.531l-.076,3.414-2.92,13.39a9.814,9.814,0,0,0,4.286-.265,10.054,10.054,0,0,0,2.293-1.451c4.166-4.444,4.242-10.6,5.039-16.554C636.437,217.935,634.764,218.35,633.932,218.509Z" transform="translate(-34.393 -62.817)" fill="#ffa988"/>
      <path id="Trazado_3724" data-name="Trazado 3724" d="M642.111,217.173c-.8,5.95-.873,12.11-5.039,16.554,1.968-1.605,4.64-4.741,6.052-10.535.631-2.588,1.352-6.636,1.352-6.636S643.4,216.842,642.111,217.173Z" transform="translate(-38.654 -62.417)" fill="#f88864"/>
      <path id="Trazado_3725" data-name="Trazado 3725" d="M640.643,199.6c-1.112-9.827-.232-23.972-3.3-29.85-1.461-2.8-6.641-5.771-11.831-8.3-2.094,12.754.24,26.588.24,39.422a15.616,15.616,0,0,1,3.014.189v-.012S637.657,201.327,640.643,199.6Z" transform="translate(-33.766 -40.756)" fill="#53545d"/>
      <path id="Trazado_3726" data-name="Trazado 3726" d="M640.192,170.919c-1.125-2.155-4.458-4.414-8.3-6.494,8.253,9.308,6.245,24.5,7.081,37.5a12.957,12.957,0,0,0,4.522-1.157C642.383,190.942,643.263,176.8,640.192,170.919Z" transform="translate(-36.618 -41.925)" fill="#42434a"/>
      <path id="Trazado_3727" data-name="Trazado 3727" d="M589.925,161.81s1.951,4.866,3.351,8.585,7.188,20.968,8.094,23.071,3.237,7.305,5.151,9.079c1.116,1.034,4.693,2.387,5.811,1.808a6.968,6.968,0,0,0,3.613-7.216c-.727-4.2-2.619-8.975-7.757-16.842s-12.206-19.528-12.436-20.627,1.236-8.516,1.228-9.661-.351-1.3-.113-2.385,1.08-2.979,1.216-3.81.55-2.179-.039-2.4-1.062.109-1.792,1.064a11.5,11.5,0,0,0-1.326,2.916c-.256.627-.466,1.474-1.054,1.253s-2.662-3.455-3.463-4.319-2.135-2.419-2.547-2.906-.7-1.115-1.659-1.258-1.287-1.335-1.628,0a15.586,15.586,0,0,0,.013,4.125,2.589,2.589,0,0,0-.317,1.443c.036.91.208.989-.368,1.568s-.919.422-.814,1.661.128,1.349-.248,1.772a4.493,4.493,0,0,0-.143,3.012,24.607,24.607,0,0,0,2.859,5.478C586.475,158.29,589.925,161.81,589.925,161.81Z" transform="translate(-17.21 -31.356)" fill="#ffa988"/>
      <path id="Trazado_3728" data-name="Trazado 3728" d="M587.69,140.246c2.428,2.428,3.035,7.89,7.283,7.283,0-.275.249-.55.465-.882a.434.434,0,0,1-.327,0c-.589-.22-2.662-3.455-3.463-4.319s-2.135-2.419-2.547-2.906-.7-1.115-1.659-1.258-1.287-1.335-1.628,0a8.1,8.1,0,0,0-.143,1.993A2.629,2.629,0,0,1,587.69,140.246Z" transform="translate(-18.447 -31.356)" fill="#f88864"/>
      <path id="Trazado_3729" data-name="Trazado 3729" d="M605.143,156.642c.3-1.891.592-3.652.589-4.163-.008-1.145-.351-1.3-.113-2.385s1.08-2.979,1.216-3.81.55-2.179-.039-2.4a.877.877,0,0,0-.714.028C605.774,148.155,604.042,152.4,605.143,156.642Z" transform="translate(-25.961 -33.826)" fill="#f88864"/>
      <path id="Trazado_3730" data-name="Trazado 3730" d="M601.885,166.622c5.574,13.935,15.233,24.8,21.476,37.768-.785-4.094-2.72-8.8-7.668-16.374-5.137-7.867-12.206-19.528-12.436-20.627s1.236-8.516,1.228-9.661a4.743,4.743,0,0,0-.036-.552C602.743,160.436,600.892,164.139,601.885,166.622Z" transform="translate(-24.713 -39.076)" fill="#f88864"/>
    </g>
    <g id="Grupo_3896" data-name="Grupo 3896" transform="translate(-828.7 357.606)">
      <circle id="Elipse_723" data-name="Elipse 723" cx="48.049" cy="48.049" r="48.049" transform="translate(1723.7 880.394)" fill="#faa61a"/>
      <g id="Grupo_3895" data-name="Grupo 3895" clip-path="url(#clip-path)">
        <g id="Grupo_3894" data-name="Grupo 3894">
          <g id="Grupo_3824" data-name="Grupo 3824">
            <g id="Grupo_3823" data-name="Grupo 3823">
              <path id="Trazado_4045" data-name="Trazado 4045" d="M1741.66,941.14a60.561,60.561,0,0,1-2.694-8.026c-.056-.184-.145-.4-.336-.437a.463.463,0,0,0-.321.084,1.752,1.752,0,0,0-.748,1.451,5.206,5.206,0,0,0,.31,1.665l.892,2.948-4.466,2.716a12.742,12.742,0,0,0,.857,5.033,4.769,4.769,0,0,0,.706,1.308,5.827,5.827,0,0,0,1.322,1.09l2.068,4.816a6.267,6.267,0,0,0,3.556-2.135l-1.268-4.1Z" fill="#ffdebf"/>
              <path id="Trazado_4046" data-name="Trazado 4046" d="M1738.722,952.069c-.167-.971-.947-2.022-1.037-3.055a2,2,0,0,1,.461-1.248c-1.425.352-2.455-1.4-2.59-2.63a1.664,1.664,0,0,0,1.32-.219c.26-.211.524-.528.389-.878a1.427,1.427,0,0,0,.681-.2,3.445,3.445,0,0,0-.2.769,3.115,3.115,0,0,0,1.74,2.756,4.061,4.061,0,0,1-.39-2,4.591,4.591,0,0,1,1.25-2.777,2.907,2.907,0,0,0,1.3-.435l.019-1.014c-.249-.53-.474-1.069-.683-1.614a3.742,3.742,0,0,1-1.952-.528,1.433,1.433,0,0,1-.293-.274l.031.1-4.466,2.716a12.742,12.742,0,0,0,.857,5.033,4.769,4.769,0,0,0,.706,1.308,5.827,5.827,0,0,0,1.322,1.09Z" fill="#ffdebf" opacity="0.75" style="mix-blend-mode: multiply;isolation: isolate"/>
              <path id="Trazado_4047" data-name="Trazado 4047" d="M1739.1,942.287l-.095.034a.868.868,0,0,1-1.1-.511l-.922-2.489a.843.843,0,0,1,.51-1.085l.1-.034a.868.868,0,0,1,1.1.51l.922,2.49A.843.843,0,0,1,1739.1,942.287Z" fill="#ffdebf"/>
              <path id="Trazado_4048" data-name="Trazado 4048" d="M1739.043,939.67c-.256-.046-.506-.107-.636.023-.637.63.083,1.416.54,2.029a.808.808,0,0,1,.148.567l.026-.01a.821.821,0,0,0,.5-1.057Z" fill="#ffdebf" opacity="0.75" style="mix-blend-mode: multiply;isolation: isolate"/>
              <path id="Trazado_4049" data-name="Trazado 4049" d="M1737.516,943.343l-.1.036a.893.893,0,0,1-1.132-.525l-.892-2.41a.866.866,0,0,1,.524-1.115l.1-.035a.891.891,0,0,1,1.132.525l.892,2.409A.866.866,0,0,1,1737.516,943.343Z" fill="#ffdebf"/>
              <path id="Trazado_4050" data-name="Trazado 4050" d="M1736.1,944.591l-.093.033a.848.848,0,0,1-1.076-.5l-.854-2.308a.823.823,0,0,1,.5-1.06l.093-.033a.848.848,0,0,1,1.076.5l.854,2.308A.824.824,0,0,1,1736.1,944.591Z" fill="#ffdebf"/>
              <path id="Trazado_4051" data-name="Trazado 4051" d="M1739.421,947.555c-.553-.505-.872-2.639-.85-3.09a2.968,2.968,0,0,1,1.31-1.979.516.516,0,0,0,.17-.191c.057-.148-.049-.3-.151-.423l.051.111a2.373,2.373,0,0,1-1.618-1.824c-.051-.242.007-.569.253-.611a.541.541,0,0,1,.17.007l2.028.3a1.347,1.347,0,0,1,1.3,1.2c.263.72.525,1.439.744,2.173a2.475,2.475,0,0,1,.122.575,2.722,2.722,0,0,1-.337,1.258c-.383.843-.775,1.682-1.168,2.52Z" fill="#ffdebf"/>
              <path id="Trazado_4052" data-name="Trazado 4052" d="M1738.685,940.424c.1.22.431.269.7.337a.292.292,0,0,0,.307-.294,2.88,2.88,0,0,0-.18-.8l-.754-.11-.064-.008C1738.759,939.852,1738.583,940.176,1738.685,940.424Z" fill="#fff" opacity="0.6"/>
              <path id="Trazado_4053" data-name="Trazado 4053" d="M1740.938,942.865a1.108,1.108,0,0,1,.162-1.553,2.313,2.313,0,0,1-2.408-.264,2.777,2.777,0,0,0,1.259.935l-.051-.111c.1.122.208.275.151.423a.516.516,0,0,1-.17.191,2.968,2.968,0,0,0-1.31,1.979,1.246,1.246,0,0,0,.065.4,1.711,1.711,0,0,1,.031-.256C1738.869,943.568,1739.733,942.491,1740.938,942.865Z" fill="#ffdebf" opacity="0.75" style="mix-blend-mode: multiply;isolation: isolate"/>
            </g>
          </g>
          <g id="Grupo_3825" data-name="Grupo 3825">
            <path id="Trazado_4054" data-name="Trazado 4054" d="M1764.108,943.445s-1.917.622-6.532,7.549-10.6,4.467-12.07,3.111-3.51-6.047-3.51-6.047l-5.073,2.851s5.106,14.322,14.245,13.069a21.9,21.9,0,0,0,13.643-6.944Z" fill="#797ab2"/>
          </g>
          <g id="Grupo_3826" data-name="Grupo 3826" opacity="0.34" style="mix-blend-mode: multiply;isolation: isolate">
            <path id="Trazado_4055" data-name="Trazado 4055" d="M1764.108,943.445a4.784,4.784,0,0,0-1.409,1.056c-1.862,3.738-.842,8.631-1.294,12.864-.114.691-.457,1.843-1.262,2.19-.23.115-.46.346-.69.462a14.564,14.564,0,0,1-16.279.9c2.153,2.058,4.832,3.489,7.994,3.056a21.9,21.9,0,0,0,13.643-6.944Z" fill="#797ab2"/>
          </g>
          <g id="Grupo_3893" data-name="Grupo 3893">
            <g id="Grupo_3864" data-name="Grupo 3864">
              <g id="Grupo_3834" data-name="Grupo 3834">
                <g id="Grupo_3827" data-name="Grupo 3827">
                  <path id="Trazado_4056" data-name="Trazado 4056" d="M1766.928,1014.929s3.145,29.033,2.544,30c-1.159,1.873-7,7.541-5.96,8.537s6.97,2.043,10.713-1.1c3.269-2.75,1.71-7.07,1.71-7.07l.557-29.884Z" fill="#fddcbe"/>
                  <path id="Trazado_4057" data-name="Trazado 4057" d="M1776.3,1025.711l.192-10.3-9.564-.48s.51,4.71,1.08,10.4A19.21,19.21,0,0,0,1776.3,1025.711Z" fill="#fddcbe" opacity="0.89" style="mix-blend-mode: multiply;isolation: isolate"/>
                  <path id="Trazado_4058" data-name="Trazado 4058" d="M1769.285,1039.257a30.075,30.075,0,0,1,.187,5.674,24.785,24.785,0,0,1-1.935,2.413,6.754,6.754,0,0,1,3.836.286,2.152,2.152,0,0,1,1.3,2.242,19.009,19.009,0,0,0,3.452-3.89,6.02,6.02,0,0,0-.186-.689l.132-7.066A6.428,6.428,0,0,1,1769.285,1039.257Z" fill="#f8f8f8"/>
                  <path id="Trazado_4059" data-name="Trazado 4059" d="M1775.34,1049.867c.305-.492.619-.97.93-1.443a7.987,7.987,0,0,0-.149-2.442,19.009,19.009,0,0,1-3.452,3.89,2.152,2.152,0,0,0-1.3-2.242,6.754,6.754,0,0,0-3.836-.286c-1.587,1.839-3.558,4.068-4.038,5.313,1.266.084,2.487.52,3.749.634A8.132,8.132,0,0,0,1775.34,1049.867Z" fill="#84633e"/>
                  <path id="Trazado_4060" data-name="Trazado 4060" d="M1775.34,1049.867a8.132,8.132,0,0,1-8.092,3.424c-1.262-.114-2.483-.55-3.749-.634-.142.368-.154.65.013.811,1.036.995,6.97,2.043,10.713-1.1a5.743,5.743,0,0,0,2.045-3.939C1775.959,1048.9,1775.645,1049.375,1775.34,1049.867Z" fill="#c2986b"/>
                </g>
                <g id="Grupo_3828" data-name="Grupo 3828">
                  <path id="Trazado_4061" data-name="Trazado 4061" d="M1788.677,1014.887s-3.034,29.045-2.43,30.012c1.167,1.869,7.025,7.514,5.993,8.514s-6.963,2.07-10.717-1.064c-3.28-2.737-1.737-7.063-1.737-7.063l-.671-29.882Z" fill="#fddcbe"/>
                  <path id="Trazado_4062" data-name="Trazado 4062" d="M1779.346,1025.7l-.231-10.3,9.562-.517s-.492,4.712-1.04,10.4A19.191,19.191,0,0,1,1779.346,1025.7Z" fill="#fddcbe" opacity="0.89" style="mix-blend-mode: multiply;isolation: isolate"/>
                  <path id="Trazado_4063" data-name="Trazado 4063" d="M1786.413,1039.224a30.1,30.1,0,0,0-.166,5.675,24.753,24.753,0,0,0,1.945,2.406,6.758,6.758,0,0,0-3.835.3,2.154,2.154,0,0,0-1.288,2.247,18.991,18.991,0,0,1-3.466-3.877,5.939,5.939,0,0,1,.183-.689l-.159-7.066A6.426,6.426,0,0,0,1786.413,1039.224Z" fill="#f8f8f8"/>
                  <path id="Trazado_4064" data-name="Trazado 4064" d="M1780.4,1049.857c-.306-.49-.622-.967-.935-1.44a7.941,7.941,0,0,1,.14-2.442,18.991,18.991,0,0,0,3.466,3.877,2.154,2.154,0,0,1,1.288-2.247,6.758,6.758,0,0,1,3.835-.3c1.594,1.833,3.573,4.054,4.058,5.3-1.266.089-2.485.53-3.746.648A8.131,8.131,0,0,1,1780.4,1049.857Z" fill="#84633e"/>
                  <path id="Trazado_4065" data-name="Trazado 4065" d="M1780.4,1049.857a8.131,8.131,0,0,0,8.106,3.393c1.261-.118,2.48-.559,3.746-.648.143.368.156.65-.01.811-1.032,1-6.963,2.07-10.717-1.064a5.742,5.742,0,0,1-2.06-3.932C1779.776,1048.89,1780.092,1049.367,1780.4,1049.857Z" fill="#c2986b"/>
                </g>
                <path id="Trazado_4066" data-name="Trazado 4066" d="M1760.216,981.977l1.727,39.892a37.828,37.828,0,0,0,16.376,2.771c9.629-.419,15.679-2.031,15.541-2.431s.612-40.03.609-41.5-9.641-5.585-16.794-5.3S1760.216,981.977,1760.216,981.977Z" fill="#40464e"/>
                <path id="Trazado_4067" data-name="Trazado 4067" d="M1770.524,995.051c.933,0,1.748-.82,2.564-1.171,2.565-.822,5.249-.127,7.931-.6,3.9,3.2,8.922,1.047,13.255-.844.109-6.3.2-11.227.195-11.727,0-1.467-9.641-5.585-16.794-5.3s-17.459,6.571-17.459,6.571l.457,10.559C1763.9,993.678,1767.066,995.166,1770.524,995.051Z" fill="#36373d"/>
                <g id="Grupo_3833" data-name="Grupo 3833">
                  <g id="Grupo_3832" data-name="Grupo 3832">
                    <g id="Grupo_3831" data-name="Grupo 3831">
                      <g id="Grupo_3829" data-name="Grupo 3829">
                        <path id="Trazado_4068" data-name="Trazado 4068" d="M1796.258,995.932c-.181.356-.487.753-.863.679a6.6,6.6,0,0,1,.427-1.969,8.078,8.078,0,0,0-.286-4.649c-.223-.658-.545-1.574.127-2.112.5-.4.859-.032,1.1.44a8.276,8.276,0,0,1,.425,4.778A9.832,9.832,0,0,1,1796.258,995.932Z" fill="#fddcbe"/>
                        <path id="Trazado_4069" data-name="Trazado 4069" d="M1796.787,997.517c-.181.356-.487.753-.863.679a6.606,6.606,0,0,1,.427-1.969,8.069,8.069,0,0,0-.286-4.649c-.223-.658-.545-1.574.127-2.112.5-.4.859-.032,1.1.44a8.277,8.277,0,0,1,.425,4.778A9.8,9.8,0,0,1,1796.787,997.517Z" fill="#fddcbe"/>
                        <path id="Trazado_4070" data-name="Trazado 4070" d="M1797.751,998.572c-.181.355-.487.753-.863.679a6.606,6.606,0,0,1,.427-1.969,8.078,8.078,0,0,0-.286-4.649c-.223-.658-.545-1.574.126-2.113.5-.4.86-.032,1.1.441a8.277,8.277,0,0,1,.425,4.778A9.833,9.833,0,0,1,1797.751,998.572Z" fill="#fddcbe"/>
                      </g>
                      <g id="Grupo_3830" data-name="Grupo 3830" opacity="0.89" style="mix-blend-mode: multiply;isolation: isolate">
                        <path id="Trazado_4071" data-name="Trazado 4071" d="M1796.258,995.932c-.181.356-.487.753-.863.679a6.6,6.6,0,0,1,.427-1.969,8.078,8.078,0,0,0-.286-4.649c-.223-.658-.545-1.574.127-2.112.5-.4.859-.032,1.1.44a8.276,8.276,0,0,1,.425,4.778A9.832,9.832,0,0,1,1796.258,995.932Z" fill="#fddcbe"/>
                        <path id="Trazado_4072" data-name="Trazado 4072" d="M1796.787,997.517c-.181.356-.487.753-.863.679a6.606,6.606,0,0,1,.427-1.969,8.069,8.069,0,0,0-.286-4.649c-.223-.658-.545-1.574.127-2.112.5-.4.859-.032,1.1.44a8.277,8.277,0,0,1,.425,4.778A9.8,9.8,0,0,1,1796.787,997.517Z" fill="#fddcbe"/>
                        <path id="Trazado_4073" data-name="Trazado 4073" d="M1797.751,998.572c-.181.355-.487.753-.863.679a6.606,6.606,0,0,1,.427-1.969,8.078,8.078,0,0,0-.286-4.649c-.223-.658-.545-1.574.126-2.113.5-.4.86-.032,1.1.441a8.277,8.277,0,0,1,.425,4.778A9.833,9.833,0,0,1,1797.751,998.572Z" fill="#fddcbe"/>
                      </g>
                    </g>
                    <path id="Trazado_4074" data-name="Trazado 4074" d="M1799.892,983.425a17.907,17.907,0,0,0-.455,3.951c.041,1.163.312,2.288.419,3.442a20.76,20.76,0,0,1-.3,5.131,7.62,7.62,0,0,1-1.262,3.608c-.126.159-.34.316-.482.19a.352.352,0,0,1-.092-.2,2.609,2.609,0,0,1,.091-1,19.674,19.674,0,0,0,.39-5.522,2.185,2.185,0,0,0-.809-1.712,2.253,2.253,0,0,0-1.274,1.521,3.919,3.919,0,0,1-1.186,1.96c-.181.122-.439.194-.578.03a.5.5,0,0,1-.092-.3c-.039-.9.756-1.667.816-2.57a4.636,4.636,0,0,0-.148-1.11,8.338,8.338,0,0,1,.556-4.113,33.7,33.7,0,0,0,1.336-3.988Z" fill="#fddcbe"/>
                    <path id="Trazado_4075" data-name="Trazado 4075" d="M1796.817,982.737l3.075.688a21,21,0,0,0-.456,3.36,6.189,6.189,0,0,1-3.5-1.291A18.862,18.862,0,0,0,1796.817,982.737Z" fill="#fddcbe" opacity="0.89" style="mix-blend-mode: multiply;isolation: isolate"/>
                  </g>
                  <path id="Trazado_4076" data-name="Trazado 4076" d="M1790.457,943.891s1.564-.673,3.964,4.573,5.676,15.287,6.337,37.014c0,0-1.661,1.3-5.8.083,0,0-1.729-25.421-7.722-32.914C1782.792,947.091,1790.457,943.891,1790.457,943.891Z" fill="#797ab2"/>
                  <path id="Trazado_4077" data-name="Trazado 4077" d="M1794.457,966.189c-1.543-6.48-1.234-12.951-2.185-19.4a78.88,78.88,0,0,0-2.9,9.622c4.276,9.946,5.582,29.146,5.582,29.146a13.666,13.666,0,0,0,1.759.4C1797.468,979.307,1796.069,972.775,1794.457,966.189Z" fill="#797ab2" opacity="0.34" style="mix-blend-mode: multiply;isolation: isolate"/>
                </g>
                <path id="Trazado_4078" data-name="Trazado 4078" d="M1778.683,942.979a9.943,9.943,0,0,0,5.331-2.92,28.28,28.28,0,0,0-3.392-1.18l-3.25.006-3.249.006a28.6,28.6,0,0,0-3.309,1.132A7.844,7.844,0,0,0,1778.683,942.979Z" fill="#fddcbe"/>
                <path id="Trazado_4079" data-name="Trazado 4079" d="M1783.741,939.953a25.985,25.985,0,0,0-3.119-1.074l-3.25.006-3.249.006a14.6,14.6,0,0,0-1.763.558C1775.055,943.1,1779.669,941.151,1783.741,939.953Z" fill="#fddcbe" opacity="0.89" style="mix-blend-mode: multiply;isolation: isolate"/>
                <path id="Trazado_4080" data-name="Trazado 4080" d="M1784.326,946.37c1.921-1.557,1.475-3.785.764-5.875-.369-.153-.73-.3-1.076-.436a9.943,9.943,0,0,1-5.331,2.92,9.085,9.085,0,0,1-1.443.131,5.456,5.456,0,0,0,1.351,2.785A4.127,4.127,0,0,0,1784.326,946.37Z" fill="#fff"/>
                <path id="Trazado_4081" data-name="Trazado 4081" d="M1790.084,958.6c1.649-5.26,4.2-10.2,2.113-12.93a20.038,20.038,0,0,0-7.107-5.18c.711,2.09,1.157,4.318-.764,5.875a4.127,4.127,0,0,1-5.735-.475,5.456,5.456,0,0,1-1.351-2.785c-.057,0-.113,0-.17,0a8.659,8.659,0,0,1-.426,1.328c-1.161,2.724-5.241,3.7-7.093.985-1.1-1.649-.236-3.43.443-5.08-3.083,1.238-6.518,3.589-7.732,5.191-2.072,2.733.114,6.266,2.066,13.409s-3.752,12.51-3.45,25.763c0,0,2.338,2.65,14.853,3v.035c.6,0,1.173,0,1.735-.005s1.14,0,1.736,0l0-.035c12.514-.4,14.336-3.055,14.336-3.055C1793.787,971.393,1787.869,965.671,1790.084,958.6Z" fill="#f494b4"/>
                <path id="Trazado_4082" data-name="Trazado 4082" d="M1790.084,958.6c1.649-5.26,4.2-10.2,2.113-12.93a20.038,20.038,0,0,0-7.107-5.18c.711,2.09,1.157,4.318-.764,5.875a4.127,4.127,0,0,1-5.735-.475,5.456,5.456,0,0,1-1.351-2.785l-.093,0h-.077a8.659,8.659,0,0,1-.426,1.328c-1.161,2.724-5.241,3.7-7.093.985-1.1-1.649-.236-3.43.443-5.08-3.083,1.238-6.518,3.589-7.732,5.191-2.072,2.733.114,6.266,2.066,13.409s-3.752,12.51-3.45,25.763c0,0,2.217,2.511,13.877,2.967l-2.514-39.707c2.14-.106,3.692-1.688,4.885-3.386.412,2.335,2.9,4.144,5.36,4.225l-1.8,38.834c11.176-.551,12.854-3,12.854-3C1793.787,971.393,1787.869,965.671,1790.084,958.6Z" fill="#cbacbe" opacity="0.71" style="mix-blend-mode: multiply;isolation: isolate"/>
                <path id="Trazado_4083" data-name="Trazado 4083" d="M1769.551,945.426c1.852,2.718,5.932,1.739,7.093-.985a8.659,8.659,0,0,0,.426-1.328,7.584,7.584,0,0,1-6.256-3.09c-.265.1-.539.211-.82.323C1769.315,942,1768.447,943.777,1769.551,945.426Z" fill="#fff"/>
                <path id="Trazado_4084" data-name="Trazado 4084" d="M1791.184,959.762c1.648-5.495,3.586-11.689,1.5-14.535-1.355-1.853-5.92-4.188-9.03-5.45l-2.325,46.751a2.848,2.848,0,0,0,3.166,2.976c8.21-.946,10.612-3.145,10.612-3.145C1795.362,972.514,1788.97,967.143,1791.184,959.762Z" fill="#797ab2"/>
                <path id="Trazado_4085" data-name="Trazado 4085" d="M1761.822,945.285c-2.072,2.855-.134,7.068,1.819,14.53s-4.13,12.767-3.827,26.612c0,0,2.42,2.2,10.673,3.109a3.114,3.114,0,0,0,3.449-3.288l-2.645-46.5C1768.107,941.014,1763.18,943.414,1761.822,945.285Z" fill="#797ab2"/>
                <path id="Trazado_4086" data-name="Trazado 4086" d="M1778.011,947.84a.777.777,0,1,1-.779-.776A.777.777,0,0,1,1778.011,947.84Z" fill="#fff"/>
                <path id="Trazado_4087" data-name="Trazado 4087" d="M1778.032,958.823a.777.777,0,1,1-.779-.776A.777.777,0,0,1,1778.032,958.823Z" fill="#fff"/>
                <path id="Trazado_4088" data-name="Trazado 4088" d="M1778.053,969.806a.777.777,0,1,1-.779-.777A.777.777,0,0,1,1778.053,969.806Z" fill="#fff"/>
                <path id="Trazado_4089" data-name="Trazado 4089" d="M1778.074,980.788a.777.777,0,1,1-.779-.776A.777.777,0,0,1,1778.074,980.788Z" fill="#fff"/>
                <rect id="Rectángulo_1032" data-name="Rectángulo 1032" width="6.321" height="1.269" rx="0.635" transform="matrix(0.977, -0.214, 0.214, 0.977, 1763.374, 977.642)" fill="#797ab2" opacity="0.34" style="mix-blend-mode: multiply;isolation: isolate"/>
                <rect id="Rectángulo_1033" data-name="Rectángulo 1033" width="6.179" height="1.241" rx="0.62" transform="translate(1790.987 979.015) rotate(-167.865)" fill="#797ab2" opacity="0.34" style="mix-blend-mode: multiply;isolation: isolate"/>
              </g>
              <g id="Grupo_3863" data-name="Grupo 3863">
                <path id="Trazado_4090" data-name="Trazado 4090" d="M1794.108,903.1c-.828,4.673-6.436,7.582-12.527,6.5s-10.356-5.754-9.528-10.427,6.683-8.589,12.773-7.5S1794.935,898.43,1794.108,903.1Z" fill="#d1d3d4"/>
                <path id="Trazado_4091" data-name="Trazado 4091" d="M1761.534,922.424a102.7,102.7,0,0,1,.4-14.789c.806-6.117,7.939-14.818,22.557-12.688,14.866,2.166,14.608,16.124,14.6,17.81-.026,4.216-2.929,15.237-3.7,15.044S1761.534,922.424,1761.534,922.424Z" fill="#d1d3d4"/>
                <g id="Grupo_3835" data-name="Grupo 3835">
                  <path id="Trazado_4092" data-name="Trazado 4092" d="M1765.17,923.811c-.4,2.609-1.214,4.4-3.152,4.1a4.885,4.885,0,0,1-3.866-5.186c.4-2.609,2.3-4.481,4.238-4.18S1765.573,921.2,1765.17,923.811Z" fill="#fddcbe"/>
                  <path id="Trazado_4093" data-name="Trazado 4093" d="M1762.195,920.277a1.694,1.694,0,0,0-1.968.1,3.437,3.437,0,0,0-.788,1.815c.6-.624,1.622-1.655,2.241-.706a2.794,2.794,0,0,1,.391.758,1.666,1.666,0,0,0-1.471.162,1.589,1.589,0,0,0-.235,2.039c.172-.494.259-1.017.713-1.23a.44.44,0,0,1,.565.286c0,.276-.455.489-.456.765.027.194.026.47.281.557a1.447,1.447,0,0,0,.51.182c-.143.584-.31,1.158-.405,1.7A4.2,4.2,0,0,0,1762.195,920.277Z" fill="#fddcbe" opacity="0.89" style="mix-blend-mode: multiply;isolation: isolate"/>
                </g>
                <g id="Grupo_3836" data-name="Grupo 3836">
                  <path id="Trazado_4094" data-name="Trazado 4094" d="M1792.352,927.881c-.374,2.613-.119,4.562,1.822,4.843a4.874,4.874,0,0,0,5.207-3.828c.375-2.613-.9-4.959-2.836-5.239S1792.727,925.268,1792.352,927.881Z" fill="#fddcbe"/>
                  <path id="Trazado_4095" data-name="Trazado 4095" d="M1796.226,925.372a1.7,1.7,0,0,1,1.855.668,3.444,3.444,0,0,1,.225,1.968c-.39-.773-1.069-2.059-1.938-1.332a2.784,2.784,0,0,0-.6.61,1.667,1.667,0,0,1,1.361.586,1.59,1.59,0,0,1-.369,2.019c-.021-.523.048-1.049-.324-1.385a.438.438,0,0,0-.624.108c-.08.264.293.6.214.865-.083.177-.162.442-.431.45a1.444,1.444,0,0,1-.541.025c-.033.6-.041,1.2-.107,1.742C1793.345,929.655,1793.934,926.408,1796.226,925.372Z" fill="#fddcbe" opacity="0.89" style="mix-blend-mode: multiply;isolation: isolate"/>
                </g>
                <path id="Trazado_4096" data-name="Trazado 4096" d="M1795.838,923.358c1.7-9.879-1.5-19.748-13.527-21.548-11.72-1.755-17.632,6.751-19.412,16.616-2.48,13.747,2.087,18.82,9.161,20.4a8.03,8.03,0,0,0,4.362,1.961,7.668,7.668,0,0,0,5.1-.8C1789.223,940.264,1793.236,938.427,1795.838,923.358Z" fill="#fddcbe"/>
                <path id="Trazado_4097" data-name="Trazado 4097" d="M1782.311,901.81c-10.4-1.557-16.222,4.961-18.648,13.339,3.227-2.463,7.6-3.3,11.534-4.234a69.5,69.5,0,0,1,12.338-1.575c-.375,3.277,1.875,6.337,3.934,8.729,1.426,1.763,3.479,3,4.4,5.1C1797.5,913.351,1794.257,903.6,1782.311,901.81Z" fill="#fddcbe" opacity="0.89" style="mix-blend-mode: multiply;isolation: isolate"/>
                <g id="Grupo_3840" data-name="Grupo 3840">
                  <g id="Grupo_3837" data-name="Grupo 3837" opacity="0.89" style="mix-blend-mode: multiply;isolation: isolate">
                    <path id="Trazado_4098" data-name="Trazado 4098" d="M1763.93,919.6a12.863,12.863,0,0,1,2.728.608c.069.014.119-.035.075-.078a4.526,4.526,0,0,0-2.787-.738c-.185,0-.206.209-.016.208Z" fill="#fddcbe"/>
                  </g>
                  <g id="Grupo_3838" data-name="Grupo 3838" opacity="0.89" style="mix-blend-mode: multiply;isolation: isolate">
                    <path id="Trazado_4099" data-name="Trazado 4099" d="M1763.54,920.945a11.107,11.107,0,0,1,1.69.044,6.709,6.709,0,0,0,1.529.052c.1-.015.107-.11.011-.142a6.828,6.828,0,0,0-1.67-.236,5.876,5.876,0,0,0-1.622.075c-.174.037-.13.221.062.207Z" fill="#fddcbe"/>
                  </g>
                  <g id="Grupo_3839" data-name="Grupo 3839" opacity="0.89" style="mix-blend-mode: multiply;isolation: isolate">
                    <path id="Trazado_4100" data-name="Trazado 4100" d="M1764.309,922.117a7.893,7.893,0,0,1,1.21-.14,4.349,4.349,0,0,0,1.093-.124c.127-.04.073-.166-.053-.183a7.248,7.248,0,0,0-2.381.181c-.206.046-.08.31.131.266Z" fill="#fddcbe"/>
                  </g>
                </g>
                <g id="Grupo_3844" data-name="Grupo 3844">
                  <g id="Grupo_3841" data-name="Grupo 3841" opacity="0.89" style="mix-blend-mode: multiply;isolation: isolate">
                    <path id="Trazado_4101" data-name="Trazado 4101" d="M1793.362,923.973a11.448,11.448,0,0,0-2.465-.085c-.063,0-.094-.056-.047-.083a4,4,0,0,1,2.544-.013c.157.043.129.224-.032.181Z" fill="#fddcbe"/>
                  </g>
                  <g id="Grupo_3842" data-name="Grupo 3842" opacity="0.89" style="mix-blend-mode: multiply;isolation: isolate">
                    <path id="Trazado_4102" data-name="Trazado 4102" d="M1793.4,925.2a9.864,9.864,0,0,0-1.452-.335,5.863,5.863,0,0,1-1.318-.295c-.083-.035-.067-.117.022-.123a6.008,6.008,0,0,1,1.479.168,5.176,5.176,0,0,1,1.368.423c.141.069.062.216-.1.162Z" fill="#fddcbe"/>
                  </g>
                  <g id="Grupo_3843" data-name="Grupo 3843" opacity="0.89" style="mix-blend-mode: multiply;isolation: isolate">
                    <path id="Trazado_4103" data-name="Trazado 4103" d="M1792.478,926.033a6.928,6.928,0,0,0-1-.388,3.78,3.78,0,0,1-.907-.347c-.1-.061-.025-.158.087-.144a6.39,6.39,0,0,1,1.993.681c.166.084,0,.281-.171.2Z" fill="#fddcbe"/>
                  </g>
                </g>
                <path id="Trazado_4104" data-name="Trazado 4104" d="M1768.6,924.369a2.742,2.742,0,0,0,2.9,1.484,3.023,3.023,0,0,0,1.828-1.609C1772.116,925.455,1770.013,925.194,1768.6,924.369Z" fill="#fddcbe" opacity="0.89" style="mix-blend-mode: multiply;isolation: isolate"/>
                <path id="Trazado_4105" data-name="Trazado 4105" d="M1784.208,924.9a2.772,2.772,0,0,0,1.371,2.586,4.126,4.126,0,0,0,3.938.32C1787.649,927.532,1784.725,926.643,1784.208,924.9Z" fill="#fddcbe" opacity="0.89" style="mix-blend-mode: multiply;isolation: isolate"/>
                <path id="Trazado_4106" data-name="Trazado 4106" d="M1775.192,935.379a3.137,3.137,0,0,0,1.785,1.511,4.494,4.494,0,0,0,3.691-.835C1778.877,936.439,1776.744,936.567,1775.192,935.379Z" fill="#fddcbe" opacity="0.89" style="mix-blend-mode: multiply;isolation: isolate"/>
                <path id="Trazado_4107" data-name="Trazado 4107" d="M1780.647,921.587c-.851,1.878.616,3.53,1.539,5.005-.5-2.118-.967-4.442-.106-6.477A4.084,4.084,0,0,0,1780.647,921.587Z" fill="#fddcbe" opacity="0.89" style="mix-blend-mode: multiply;isolation: isolate"/>
                <g id="Grupo_3845" data-name="Grupo 3845">
                  <path id="Trazado_4108" data-name="Trazado 4108" d="M1768.069,916.688c1.432-2.2,3.608-2.027,5.522-1.052.414.211.929-.136,1.078-.626a1.071,1.071,0,0,0-.5-1.281,6.422,6.422,0,0,0-3.945-.752,5.408,5.408,0,0,0-3.531,2.589,1.142,1.142,0,0,0,.2,1.4.776.776,0,0,0,1.169-.276Z" fill="#d1d3d4"/>
                </g>
                <g id="Grupo_3846" data-name="Grupo 3846">
                  <path id="Trazado_4109" data-name="Trazado 4109" d="M1790.686,919.96c-.659-2.286-2.673-2.788-4.68-2.538a.8.8,0,0,1-.793-.85.938.938,0,0,1,.816-.932,6.483,6.483,0,0,1,3.777.544,5.075,5.075,0,0,1,2.442,3.239.975.975,0,0,1-.585,1.119.762.762,0,0,1-.977-.582Z" fill="#d1d3d4"/>
                </g>
                <g id="Grupo_3847" data-name="Grupo 3847">
                  <path id="Trazado_4110" data-name="Trazado 4110" d="M1770.8,913.2a.244.244,0,0,0-.07.016Z" fill="#e6e7e8"/>
                  <path id="Trazado_4111" data-name="Trazado 4111" d="M1774.172,913.729a6.422,6.422,0,0,0-3.945-.752,5.408,5.408,0,0,0-3.531,2.589,1.029,1.029,0,0,0-.151.6,4.334,4.334,0,0,1,3.067-2.1,2.6,2.6,0,0,0-.852.012c.71-.5,1.647-.409,2.432-.712-.163-.016-.241-.168-.389-.156l-.07.016a.244.244,0,0,1,.07-.016,3.851,3.851,0,0,1,3.342.918,1.175,1.175,0,0,1,.516.912l.008-.024A1.071,1.071,0,0,0,1774.172,913.729Z" fill="#e6e7e8"/>
                </g>
                <g id="Grupo_3848" data-name="Grupo 3848">
                  <path id="Trazado_4112" data-name="Trazado 4112" d="M1792.248,919.423a5.075,5.075,0,0,0-2.442-3.239,6.483,6.483,0,0,0-3.777-.544.933.933,0,0,0-.8.795,2.592,2.592,0,0,1,1.708-.593c-.2.075-.309.254-.505.33,1.487-.709,2.81.274,4.067.965.009-.094-.169-.206-.16-.3a10.6,10.6,0,0,1,1.3,2.214,1.353,1.353,0,0,1-.132-.582c.205.535.543,1.04.684,1.571A.887.887,0,0,0,1792.248,919.423Z" fill="#e6e7e8"/>
                </g>
                <g id="Grupo_3852" data-name="Grupo 3852">
                  <g id="Grupo_3849" data-name="Grupo 3849" opacity="0.75" style="mix-blend-mode: multiply;isolation: isolate">
                    <path id="Trazado_4113" data-name="Trazado 4113" d="M1768.538,921.96a2.169,2.169,0,0,0,2.505,2.176,2.928,2.928,0,0,0,1.966-3.2,2.17,2.17,0,0,0-2.506-2.177A2.932,2.932,0,0,0,1768.538,921.96Z" fill="#ffdebf"/>
                  </g>
                  <g id="Grupo_3851" data-name="Grupo 3851">
                    <path id="Trazado_4114" data-name="Trazado 4114" d="M1768.823,921.919a1.974,1.974,0,0,0,2.283,1.989,2.693,2.693,0,0,0,1.8-2.932,1.976,1.976,0,0,0-2.283-1.991A2.694,2.694,0,0,0,1768.823,921.919Z" fill="#fff"/>
                    <g id="Grupo_3850" data-name="Grupo 3850">
                      <path id="Trazado_4115" data-name="Trazado 4115" d="M1771.173,923.222a1.555,1.555,0,0,1-1.365-1.741,1.646,1.646,0,0,1,1.479-1.718,1.554,1.554,0,0,1,1.364,1.743A1.648,1.648,0,0,1,1771.173,923.222Z" fill="#883e28"/>
                      <path id="Trazado_4116" data-name="Trazado 4116" d="M1771.3,922.535a.922.922,0,0,1-.808-1.031.978.978,0,0,1,.876-1.018.92.92,0,0,1,.808,1.034A.974.974,0,0,1,1771.3,922.535Z" fill="#4d1700"/>
                      <path id="Trazado_4117" data-name="Trazado 4117" d="M1770.539,921.746c-.2.025-.364-.174-.362-.444a.516.516,0,0,1,.377-.533c.2-.024.366.177.362.446A.519.519,0,0,1,1770.539,921.746Z" fill="#fff"/>
                      <path id="Trazado_4118" data-name="Trazado 4118" d="M1771.461,921.782a1.654,1.654,0,0,0-1.007,1.188,1.167,1.167,0,0,0,1.117.184A2.7,2.7,0,0,1,1771.461,921.782Z" fill="#883e28" opacity="0.48" style="mix-blend-mode: screen;isolation: isolate"/>
                    </g>
                  </g>
                </g>
                <g id="Grupo_3856" data-name="Grupo 3856">
                  <g id="Grupo_3853" data-name="Grupo 3853" opacity="0.75" style="mix-blend-mode: multiply;isolation: isolate">
                    <path id="Trazado_4119" data-name="Trazado 4119" d="M1789.655,925.15a2.206,2.206,0,0,1-3.073,1.3,2.835,2.835,0,0,1-.985-3.567,2.206,2.206,0,0,1,3.073-1.3A2.838,2.838,0,0,1,1789.655,925.15Z" fill="#ffdebf"/>
                  </g>
                  <g id="Grupo_3855" data-name="Grupo 3855">
                    <path id="Trazado_4120" data-name="Trazado 4120" d="M1789.389,925.028a2.008,2.008,0,0,1-2.8,1.193,2.608,2.608,0,0,1-.9-3.27,2.01,2.01,0,0,1,2.8-1.2A2.608,2.608,0,0,1,1789.389,925.028Z" fill="#fff"/>
                    <g id="Grupo_3854" data-name="Grupo 3854">
                      <path id="Trazado_4121" data-name="Trazado 4121" d="M1787.432,925.666a1.558,1.558,0,0,1-1.4-1.714,1.611,1.611,0,0,1,1.494-1.675,1.56,1.56,0,0,1,1.4,1.715A1.617,1.617,0,0,1,1787.432,925.666Z" fill="#883e28"/>
                      <path id="Trazado_4122" data-name="Trazado 4122" d="M1787.552,924.993a.925.925,0,0,1-.828-1.015.958.958,0,0,1,.885-.993.924.924,0,0,1,.828,1.018A.955.955,0,0,1,1787.552,924.993Z" fill="#4d1700"/>
                      <path id="Trazado_4123" data-name="Trazado 4123" d="M1786.778,924.216c-.2.023-.371-.173-.371-.438a.5.5,0,0,1,.381-.52c.2-.022.373.176.371.439A.505.505,0,0,1,1786.778,924.216Z" fill="#fff"/>
                      <path id="Trazado_4124" data-name="Trazado 4124" d="M1787.716,924.257a1.608,1.608,0,0,0-1.017,1.158,1.268,1.268,0,0,0,.733.251,1.3,1.3,0,0,0,.4-.064A2.565,2.565,0,0,1,1787.716,924.257Z" fill="#883e28" opacity="0.48" style="mix-blend-mode: screen;isolation: isolate"/>
                    </g>
                  </g>
                </g>
                <g id="Grupo_3857" data-name="Grupo 3857">
                  <path id="Trazado_4125" data-name="Trazado 4125" d="M1772.68,931.967c.8,1.353,2.359,2.759,5.429,3.128,2.913.351,4.69-.45,5.76-1.414-.108-.061-.216-.117-.322-.17A20.342,20.342,0,0,0,1772.68,931.967Z" fill="#ef5d80"/>
                  <path id="Trazado_4126" data-name="Trazado 4126" d="M1772.048,930.447a6.085,6.085,0,0,0,.632,1.52,20.342,20.342,0,0,1,10.867,1.544c.106.053.214.109.322.17a5.234,5.234,0,0,0,.938-1.117,1.109,1.109,0,0,0-.7-1.663,68.174,68.174,0,0,0-11.031-1.69A.99.99,0,0,0,1772.048,930.447Z" fill="#c32a48"/>
                </g>
                <path id="Trazado_4127" data-name="Trazado 4127" d="M1776.747,924.744a2.242,2.242,0,0,0-1.095.679,1.266,1.266,0,0,0-.244,1.221,1.827,1.827,0,0,0,.945.872,7.491,7.491,0,0,0,3.863.8,2.26,2.26,0,0,0,1.985-.99,1.861,1.861,0,0,0-.275-1.806Z" fill="#fddcbe"/>
                <path id="Trazado_4128" data-name="Trazado 4128" d="M1782.3,926.369a1.855,1.855,0,0,1-1.521,1.3c-.758.021-1.341-.795-1.94-.473a3.783,3.783,0,0,1-2.394.359,7.5,7.5,0,0,0,3.775.753,2.26,2.26,0,0,0,1.985-.99A1.485,1.485,0,0,0,1782.3,926.369Z" fill="#fddcbe" opacity="0.89" style="mix-blend-mode: multiply;isolation: isolate"/>
                <path id="Trazado_4129" data-name="Trazado 4129" d="M1790.623,922.6a1.132,1.132,0,0,1-.636.138h-.078a2.36,2.36,0,0,0-.111-.305l.019,0a1.149,1.149,0,0,0,.6-.38c.034-.037-.032-.09-.071-.057a1.134,1.134,0,0,1-.637.137c-.026,0-.053,0-.081,0a2.11,2.11,0,0,0-1.392-.915,2.822,2.822,0,0,0-2.729,1.586c-.038.093.122.145.164.055a2.13,2.13,0,0,1,2.6-1.1c.957.349,1.06,1.1,1.39,1.859a.18.18,0,0,0,.329-.052,2.48,2.48,0,0,0-.017-.509c.041-.006.081-.013.115-.02a1.155,1.155,0,0,0,.6-.38C1790.729,922.624,1790.663,922.571,1790.623,922.6Z" fill="#917f70"/>
                <path id="Trazado_4130" data-name="Trazado 4130" d="M1768.223,919.446a1.083,1.083,0,0,0,.584.23l.074.013a2.194,2.194,0,0,1,.152-.277l-.017-.007a1.107,1.107,0,0,1-.515-.458c-.027-.041.044-.082.077-.044a1.082,1.082,0,0,0,.584.23l.077.013a2.023,2.023,0,0,1,1.464-.665,2.717,2.717,0,0,1,2.349,1.947c.022.1-.138.12-.164.027a2.043,2.043,0,0,0-2.3-1.455c-.964.188-1.178.892-1.608,1.574a.173.173,0,0,1-.305-.1,2.374,2.374,0,0,1,.095-.487c-.039-.012-.075-.025-.106-.037a1.114,1.114,0,0,1-.515-.459C1768.119,919.449,1768.19,919.408,1768.223,919.446Z" fill="#917f70"/>
                <g id="Grupo_3858" data-name="Grupo 3858" style="mix-blend-mode: multiply;isolation: isolate">
                  <path id="Trazado_4131" data-name="Trazado 4131" d="M1774.583,911.84a48.713,48.713,0,0,1,6.367.636c2.065.335,4.043.944,6.077,1.4.075.016.139-.1.06-.131a23.847,23.847,0,0,0-6-1.532,48.262,48.262,0,0,0-6.5-.509.067.067,0,0,0,0,.133Z" fill="#fddcbe"/>
                </g>
                <g id="Grupo_3859" data-name="Grupo 3859" style="mix-blend-mode: multiply;isolation: isolate">
                  <path id="Trazado_4132" data-name="Trazado 4132" d="M1777.839,910.076a34.266,34.266,0,0,1,6.421.694.074.074,0,0,0,.043-.142,21.421,21.421,0,0,0-6.461-.722.085.085,0,0,0,0,.17Z" fill="#fddcbe"/>
                </g>
                <g id="Grupo_3860" data-name="Grupo 3860" style="mix-blend-mode: multiply;isolation: isolate">
                  <path id="Trazado_4133" data-name="Trazado 4133" d="M1779.29,914.74a7.744,7.744,0,0,0,.141,1.625.066.066,0,0,0,.129-.007,9.328,9.328,0,0,0-.048-1.6c0-.14-.223-.16-.222-.018Z" fill="#fddcbe"/>
                </g>
                <g id="Grupo_3861" data-name="Grupo 3861" style="mix-blend-mode: multiply;isolation: isolate">
                  <path id="Trazado_4134" data-name="Trazado 4134" d="M1780.267,914.515c.041.57-.2,1.12-.141,1.682a.05.05,0,0,0,.1.007,4.632,4.632,0,0,0,.244-1.726c-.009-.129-.209-.091-.2.037Z" fill="#fddcbe"/>
                </g>
                <g id="Grupo_3862" data-name="Grupo 3862" style="mix-blend-mode: multiply;isolation: isolate">
                  <path id="Trazado_4135" data-name="Trazado 4135" d="M1781.387,915.158a6.272,6.272,0,0,0-.377,1.592.066.066,0,0,0,.126.027,9.6,9.6,0,0,0,.434-1.553c.03-.119-.151-.187-.183-.066Z" fill="#fddcbe"/>
                </g>
                <path id="Trazado_4136" data-name="Trazado 4136" d="M1773.09,928.292c-.765.3-1.4.881-2.178,1.187a4.806,4.806,0,0,1-2.582.41c-.109-.021-.148.161-.042.192a4.4,4.4,0,0,0,1.58.174,5.747,5.747,0,0,0-.013,1.2,11.077,11.077,0,0,0,.229,1.832,8.836,8.836,0,0,0,1.506,3.335c.05.069.163-.007.125-.082a13.168,13.168,0,0,1-1.132-3.267,10.921,10.921,0,0,1-.206-1.63c-.026-.5.028-.977.038-1.468a4.559,4.559,0,0,0,.512-.141,4.21,4.21,0,0,0,2.342-1.532A.144.144,0,0,0,1773.09,928.292Z" fill="#fddcbe" opacity="0.89" style="mix-blend-mode: multiply;isolation: isolate"/>
                <path id="Trazado_4137" data-name="Trazado 4137" d="M1782.888,929.367c.708.416,1.245,1.092,1.962,1.518a4.812,4.812,0,0,0,2.484.816c.11,0,.12.182.01.2a4.409,4.409,0,0,1-1.586-.08,5.788,5.788,0,0,1-.179,1.187,11.265,11.265,0,0,1-.517,1.772,8.83,8.83,0,0,1-2.018,3.052c-.061.061-.161-.032-.111-.1a13.154,13.154,0,0,0,1.638-3.045,10.834,10.834,0,0,0,.462-1.577c.106-.488.129-.969.2-1.455a4.515,4.515,0,0,1-.483-.221,4.2,4.2,0,0,1-2.068-1.885A.143.143,0,0,1,1782.888,929.367Z" fill="#fddcbe" opacity="0.89" style="mix-blend-mode: multiply;isolation: isolate"/>
                <path id="Trazado_4138" data-name="Trazado 4138" d="M1798.678,912.724c.012-1.686.278-15.643-14.435-17.8-14.468-2.118-21.535,6.589-22.338,12.706a77.321,77.321,0,0,0-.5,9.151c6.993-7.148,17.371-10.095,27.223-8.936-.31,5.233,3.6,9.215,6.218,13.806a3.98,3.98,0,0,1,.459,1.858,2.343,2.343,0,0,1,1.316.258A53.819,53.819,0,0,0,1798.678,912.724Z" fill="#d1d3d4"/>
                <path id="Trazado_4139" data-name="Trazado 4139" d="M1764.337,912.971c6.187-4.119,14.29-6.953,21.7-5.331q.793.035,1.584.1A22.448,22.448,0,0,0,1764.337,912.971Z" fill="#e6e7e8"/>
                <path id="Trazado_4140" data-name="Trazado 4140" d="M1798.678,912.724c.012-1.686.278-15.643-14.435-17.8-14.468-2.118-21.535,6.589-22.338,12.706l0,.01q.132-.254.268-.5c5.039-9.347,17.708-12.915,27.086-8.263a4.285,4.285,0,0,1-1.314-1.861c9.079,5.157,10.561,17.249,7.408,26.488a2.425,2.425,0,0,1,1.267.264A53.819,53.819,0,0,0,1798.678,912.724Z" fill="#e6e7e8"/>
              </g>
            </g>
            <g id="Grupo_3865" data-name="Grupo 3865">
              <path id="Trazado_4141" data-name="Trazado 4141" d="M1765.007,926.082a.23.23,0,0,1-.22-.161l-2.292-7.191a.23.23,0,0,1,.439-.14l2.292,7.192a.231.231,0,0,1-.15.289A.237.237,0,0,1,1765.007,926.082Z" fill="#fffeff"/>
            </g>
            <g id="Grupo_3866" data-name="Grupo 3866">
              <path id="Trazado_4142" data-name="Trazado 4142" d="M1764.632,934.23a.231.231,0,0,1-.213-.14l-2.613-6.09a.23.23,0,1,1,.423-.182l2.614,6.091a.23.23,0,0,1-.121.3A.224.224,0,0,1,1764.632,934.23Z" fill="#fffeff"/>
            </g>
            <g id="Grupo_3867" data-name="Grupo 3867">
              <path id="Trazado_4143" data-name="Trazado 4143" d="M1792,929.209a.23.23,0,0,1-.2-.35l3.35-5.473a.23.23,0,0,1,.393.24L1792.2,929.1A.228.228,0,0,1,1792,929.209Z" fill="#fffeff"/>
            </g>
            <g id="Grupo_3868" data-name="Grupo 3868">
              <path id="Trazado_4144" data-name="Trazado 4144" d="M1790.871,937.278a.232.232,0,0,1-.2-.348l2.654-4.458a.23.23,0,0,1,.4.235l-2.654,4.458A.23.23,0,0,1,1790.871,937.278Z" fill="#fffeff"/>
            </g>
            <g id="Grupo_3892" data-name="Grupo 3892">
              <g id="Grupo_3870" data-name="Grupo 3870">
                <g id="Grupo_3869" data-name="Grupo 3869">
                  <path id="Trazado_4145" data-name="Trazado 4145" d="M1778.022,924.669a70.248,70.248,0,0,0-13.176.672,31.736,31.736,0,0,0-.295,9.56,17.529,17.529,0,0,0,12.318,6.819,21.309,21.309,0,0,0,14.079-4.115,24.351,24.351,0,0,0,1.5-9.086A67.3,67.3,0,0,0,1778.022,924.669Z" fill="#abdfea"/>
                </g>
              </g>
              <g id="Grupo_3872" data-name="Grupo 3872">
                <g id="Grupo_3871" data-name="Grupo 3871">
                  <path id="Trazado_4146" data-name="Trazado 4146" d="M1792.448,928.519c-2.79-1.346-10.8-3.406-14.007-3.8l-1.908,16.969c.112.013.223.027.336.037a21.309,21.309,0,0,0,14.079-4.115A24.351,24.351,0,0,0,1792.448,928.519Z" fill="#8cd3d8"/>
                </g>
              </g>
              <g id="Grupo_3877" data-name="Grupo 3877">
                <g id="Grupo_3874" data-name="Grupo 3874">
                  <g id="Grupo_3873" data-name="Grupo 3873">
                    <path id="Trazado_4147" data-name="Trazado 4147" d="M1778.241,926.38c4.363.781,10.168,1.54,14.2,3.226.009-.359.014-.721.012-1.087a67.3,67.3,0,0,0-14.426-3.85,70.248,70.248,0,0,0-13.176.672q-.1.582-.189,1.162A59.547,59.547,0,0,1,1778.241,926.38Z" fill="#dcf2fd"/>
                  </g>
                </g>
                <g id="Grupo_3876" data-name="Grupo 3876">
                  <g id="Grupo_3875" data-name="Grupo 3875">
                    <path id="Trazado_4148" data-name="Trazado 4148" d="M1764.47,934.158c.025.248.051.5.081.743a17.529,17.529,0,0,0,12.318,6.819,21.309,21.309,0,0,0,14.079-4.115c.078-.2.151-.4.222-.6-4.118,1.681-9.674,3.463-14.381,2.985C1772.181,939.524,1768.544,936.93,1764.47,934.158Z" fill="#dcf2fd"/>
                  </g>
                </g>
              </g>
              <g id="Grupo_3887" data-name="Grupo 3887">
                <g id="Grupo_3880" data-name="Grupo 3880">
                  <g id="Grupo_3879" data-name="Grupo 3879">
                    <g id="Grupo_3878" data-name="Grupo 3878">
                      <path id="Trazado_4149" data-name="Trazado 4149" d="M1764.832,925.957a.044.044,0,0,1-.043-.033.042.042,0,0,1,.037-.047l.18-.025a.045.045,0,0,1,.053.033.04.04,0,0,1-.037.046l-.179.026Z" fill="#5dc5c4"/>
                    </g>
                  </g>
                </g>
                <g id="Grupo_3883" data-name="Grupo 3883">
                  <g id="Grupo_3882" data-name="Grupo 3882">
                    <g id="Grupo_3881" data-name="Grupo 3881">
                      <path id="Trazado_4150" data-name="Trazado 4150" d="M1791.658,928.93l-.016,0-.34-.129a.039.039,0,0,1-.025-.053.049.049,0,0,1,.06-.021l.341.13a.038.038,0,0,1,.024.052A.044.044,0,0,1,1791.658,928.93Zm-.683-.255-.015,0-.343-.125a.04.04,0,0,1-.026-.052.048.048,0,0,1,.06-.022l.343.125a.039.039,0,0,1,.026.052A.047.047,0,0,1,1790.975,928.675Zm-.687-.247-.015,0-.344-.119a.039.039,0,0,1-.027-.052.047.047,0,0,1,.059-.023l.345.12a.039.039,0,0,1,.027.052A.046.046,0,0,1,1790.288,928.428Zm-.69-.237-.014,0-.346-.115a.04.04,0,0,1-.027-.052.046.046,0,0,1,.058-.023l.347.115a.04.04,0,0,1,.027.052A.046.046,0,0,1,1789.6,928.191Zm-.692-.229-.014,0-.346-.112a.04.04,0,0,1-.029-.051.047.047,0,0,1,.059-.024l.347.111a.04.04,0,0,1,.028.052A.046.046,0,0,1,1788.906,927.962Zm-.7-.221-.013,0-.349-.108a.04.04,0,0,1-.029-.051.047.047,0,0,1,.058-.025l.35.109a.039.039,0,0,1,.028.051A.045.045,0,0,1,1788.21,927.741Zm-.7-.215-.012,0-.351-.1a.039.039,0,0,1-.029-.051.046.046,0,0,1,.057-.025l.352.1a.04.04,0,0,1,.029.051A.046.046,0,0,1,1787.51,927.526Zm-.7-.208-.012,0-.352-.1a.041.041,0,0,1-.03-.051.046.046,0,0,1,.057-.025l.353.1a.041.041,0,0,1,.03.051A.046.046,0,0,1,1786.808,927.318Zm-.7-.2-.011,0-.353-.1a.041.041,0,0,1-.031-.051.047.047,0,0,1,.057-.026l.354.1a.04.04,0,0,1,.03.05A.045.045,0,0,1,1786.1,927.117Zm-20.728-1.235a.044.044,0,0,1-.043-.034.04.04,0,0,1,.037-.046l.365-.047a.045.045,0,0,1,.052.034.04.04,0,0,1-.038.045l-.364.047Zm20.021,1.04-.01,0-.354-.095a.04.04,0,0,1-.032-.05.046.046,0,0,1,.057-.027l.354.1a.04.04,0,0,1,.031.051A.045.045,0,0,1,1785.4,926.922Zm-19.292-1.133a.045.045,0,0,1-.044-.035.041.041,0,0,1,.039-.045l.365-.044a.046.046,0,0,1,.052.035.041.041,0,0,1-.039.045c-.128.015-.25.029-.364.044Zm18.584.944-.011,0-.354-.092a.04.04,0,0,1-.032-.05.044.044,0,0,1,.056-.027l.355.092a.04.04,0,0,1,.032.05A.046.046,0,0,1,1784.688,926.733Zm-17.855-1.03a.045.045,0,0,1-.043-.035.041.041,0,0,1,.039-.045l.365-.041a.046.046,0,0,1,.052.035.041.041,0,0,1-.039.045l-.365.04Zm17.144.846-.01,0-.356-.089a.04.04,0,0,1-.032-.05.046.046,0,0,1,.056-.027l.356.089a.04.04,0,0,1,.032.05A.044.044,0,0,1,1783.977,926.549Zm-16.413-.926a.044.044,0,0,1-.043-.036.04.04,0,0,1,.039-.044l.366-.038a.045.045,0,0,1,.051.035.041.041,0,0,1-.039.045l-.366.038Zm15.7.748h-.01l-.357-.087a.042.042,0,0,1-.033-.05.046.046,0,0,1,.056-.028l.357.087a.041.041,0,0,1,.033.05A.045.045,0,0,1,1783.265,926.371Zm-14.969-.822a.045.045,0,0,1-.044-.036.041.041,0,0,1,.04-.044l.366-.035a.046.046,0,0,1,.051.036.041.041,0,0,1-.04.044l-.366.035Zm.732-.068a.045.045,0,0,1-.044-.036.041.041,0,0,1,.04-.044l.367-.031a.046.046,0,0,1,.051.036.043.043,0,0,1-.041.044l-.366.031Zm13.523.717h-.01l-.357-.084a.04.04,0,0,1-.033-.049.046.046,0,0,1,.055-.029l.358.085a.041.041,0,0,1,.033.049A.043.043,0,0,1,1782.551,926.2Zm-12.79-.778a.046.046,0,0,1-.044-.037.041.041,0,0,1,.041-.043l.367-.029a.046.046,0,0,1,.05.037.041.041,0,0,1-.041.043l-.366.029Zm12.074.611h-.009l-.358-.081a.041.041,0,0,1-.034-.049.045.045,0,0,1,.055-.029l.359.081a.041.041,0,0,1,.033.049A.044.044,0,0,1,1781.835,926.031Zm-11.341-.667a.043.043,0,0,1-.043-.036.042.042,0,0,1,.041-.044l.368-.025a.044.044,0,0,1,.049.037.04.04,0,0,1-.041.043l-.367.025Zm10.623.506-.008,0-.359-.078a.041.041,0,0,1-.034-.049.044.044,0,0,1,.055-.029l.359.079a.04.04,0,0,1,.034.048A.045.045,0,0,1,1781.117,925.87Zm-9.888-.554a.044.044,0,0,1-.044-.037.042.042,0,0,1,.042-.043l.368-.022a.045.045,0,0,1,.049.038.041.041,0,0,1-.042.042l-.367.022Zm.735-.041a.044.044,0,0,1-.043-.038.042.042,0,0,1,.042-.043l.368-.018a.046.046,0,0,1,.049.038.043.043,0,0,1-.043.043c-.123.005-.245.011-.367.018Zm8.435.438h-.008l-.36-.076a.04.04,0,0,1-.035-.048.045.045,0,0,1,.054-.03l.361.076a.041.041,0,0,1,.034.049A.044.044,0,0,1,1780.4,925.713Zm-7.7-.473a.044.044,0,0,1-.044-.038.042.042,0,0,1,.043-.042l.368-.014a.046.046,0,0,1,.049.039.043.043,0,0,1-.044.042l-.367.014Zm6.978.323h-.008l-.361-.073a.042.042,0,0,1-.035-.048.044.044,0,0,1,.054-.031l.362.073a.043.043,0,0,1,.035.049A.045.045,0,0,1,1779.678,925.563Zm-6.242-.348a.044.044,0,0,1-.043-.039.042.042,0,0,1,.043-.042l.368-.01a.045.045,0,0,1,.047.04.042.042,0,0,1-.043.041l-.367.01Zm.736-.018a.044.044,0,0,1-.044-.039.042.042,0,0,1,.044-.041l.369-.005a.045.045,0,0,1,.047.04.042.042,0,0,1-.045.04l-.368.005Zm4.783.221h-.007l-.362-.069a.041.041,0,0,1-.036-.047.044.044,0,0,1,.054-.031l.362.069a.041.041,0,0,1,.036.048A.043.043,0,0,1,1778.955,925.418Zm-4.046-.229a.043.043,0,0,1-.044-.04.042.042,0,0,1,.045-.04h.369a.045.045,0,0,1,.046.04.041.041,0,0,1-.045.04h-.371Zm.738,0a.044.044,0,0,1-.044-.041.042.042,0,0,1,.046-.039l.37.005a.041.041,0,0,1,.045.041.042.042,0,0,1-.046.039l-.369-.005Zm.738.014a.044.044,0,0,1-.043-.042.043.043,0,0,1,.046-.039l.369.012h0a.044.044,0,0,1,.044.042.043.043,0,0,1-.047.038l-.368-.011Zm1.842.094h0l-.367-.026a.044.044,0,0,1-.043-.043c0-.022.024-.034.049-.037l.368.026a.041.041,0,1,1-.005.081Zm-1.105-.068a.042.042,0,0,1-.043-.042.043.043,0,0,1,.047-.038l.289.014.08.005a.042.042,0,0,1,.043.042.043.043,0,0,1-.047.038h0l-.08-.005-.288-.014Z" fill="#5dc5c4"/>
                    </g>
                  </g>
                </g>
                <g id="Grupo_3886" data-name="Grupo 3886">
                  <g id="Grupo_3885" data-name="Grupo 3885">
                    <g id="Grupo_3884" data-name="Grupo 3884">
                      <path id="Trazado_4151" data-name="Trazado 4151" d="M1792.149,929.122l-.016,0-.168-.066a.039.039,0,0,1-.024-.053.048.048,0,0,1,.06-.02l.168.066a.039.039,0,0,1,.024.053A.046.046,0,0,1,1792.149,929.122Z" fill="#5dc5c4"/>
                    </g>
                  </g>
                </g>
              </g>
              <g id="Grupo_3889" data-name="Grupo 3889" opacity="0.36" style="mix-blend-mode: multiply;isolation: isolate">
                <g id="Grupo_3888" data-name="Grupo 3888">
                  <path id="Trazado_4152" data-name="Trazado 4152" d="M1764.444,927.474s12.369,1.059,13.73,1.221,14.119,1.6,14.119,1.6l-.168,1.329s-13.59-.054-14.4-.142-13.352-2.672-13.352-2.672Z" fill="#abdfea"/>
                </g>
              </g>
              <g id="Grupo_3891" data-name="Grupo 3891" opacity="0.36" style="mix-blend-mode: multiply;isolation: isolate">
                <g id="Grupo_3890" data-name="Grupo 3890">
                  <path id="Trazado_4153" data-name="Trazado 4153" d="M1764.455,931.265s11.563,2.934,12.924,3.095,14.522-.342,14.522-.342l-.387,1.629s-13.7,2.081-14.505,1.993-12.568-5.083-12.568-5.083Z" fill="#abdfea"/>
                </g>
              </g>
            </g>
          </g>
        </g>
      </g>
    </g>
  </g>
</svg>
