<?xml version="1.0" encoding="utf-8"?>
<!-- Generator: Adobe Illustrator 22.0.1, SVG Export Plug-In . SVG Version: 6.00 Build 0)  -->
<svg version="1.1" id="Capa_1" xmlns="http://www.w3.org/2000/svg" xmlns:xlink="http://www.w3.org/1999/xlink" x="0px" y="0px"
	 viewBox="0 0 435 198" style="enable-background:new 0 0 435 198;" xml:space="preserve">
<style type="text/css">
	.st0{fill:#EFEFEF;}
	.st1{fill:#59BFD6;}
	.st2{fill:#227D84;}
	.st3{fill:#FFFFFF;}
	.st4{fill:#BBE5E7;stroke:#BBE5E7;stroke-width:5;stroke-miterlimit:10;}
	.st5{opacity:0.99;fill:#B55959;enable-background:new    ;}
	.st6{opacity:0.55;fill:#9E3939;enable-background:new    ;}
	.st7{fill:#F2BAB6;}
	.st8{fill:#EDA9A4;}
	.st9{fill:#F7CBC6;}
	.st10{fill:#EF8F99;}
	.st11{fill:#0683B5;}
	.st12{fill:#9EDAE8;}
	.st13{fill:#021416;}
	.st14{fill:#C1C1BD;}
	.st15{fill:#757572;}
	.st16{fill:#D88080;}
	.st17{opacity:0.47;fill:#665757;enable-background:new    ;}
	.st18{fill:#93D9FF;}
	.st19{fill:#002B75;}
	.st20{fill:#CDF8FF;}
	.st21{fill:#572F1F;}
	.st22{fill:#0F688F;}
	.st23{fill:#2B94BA;}
	.st24{fill:#633E31;}
	.st25{fill:#110E0B;}
	.st26{fill:#FFB3E2;stroke:#93D9FF;stroke-miterlimit:10;}
	.st27{fill:#E880CA;}
	.st28{fill:#707070;}
</style>
<g id="Grupo_4366" transform="translate(-4921 -144)">
	<rect id="Rectángulo_1052" x="4921" y="144" class="st0" width="435" height="198"/>
	<g id="Trazado_4591" transform="translate(4951 166)">
		<path class="st1" d="M20,38.5c-4.9,0-9.6-1.9-13.1-5.4S1.5,24.9,1.5,20s1.9-9.6,5.4-13.1S15.1,1.5,20,1.5s9.6,1.9,13.1,5.4
			S38.5,15,38.5,20s-1.9,9.6-5.4,13.1S24.9,38.5,20,38.5z"/>
		<path class="st2" d="M20,3c-4.5,0-8.8,1.8-12,5s-5,7.5-5,12s1.8,8.8,5,12s7.5,5,12,5s8.8-1.8,12-5s5-7.5,5-12s-1.8-8.8-5-12
			S24.5,3,20,3 M20,0c11,0,20,9,20,20s-9,20-20,20S0,31,0,20S9,0,20,0z"/>
	</g>
	<path id="Trazado_4815" class="st3" d="M4965.7,183c-0.1-1.6,0.5-3.2,1.6-4.4c1.1-1.1,2.6-1.7,4.1-1.7c2.3-0.2,4.5,1.2,5.3,3.4
		c0.6,1.6,0.9,3.4,0.8,5.1c0,1.7-0.2,3.5-0.8,5.1c-0.7,2.4-3,4-5.5,3.9c-1.2,0-2.4-0.4-3.4-1.1c-1-0.8-1.7-2-1.7-3.3h3.3
		c0.1,0.5,0.3,0.9,0.6,1.2c0.4,0.3,0.9,0.5,1.4,0.5c1.1,0,2.1-0.8,2.3-1.8c0.3-1,0.4-1.9,0.5-2.9c-0.3,0.3-0.6,0.6-1,0.9
		c-0.7,0.4-1.5,0.6-2.3,0.6c-1.3,0-2.6-0.5-3.6-1.4C4966.2,186,4965.6,184.5,4965.7,183z M4971.6,185.7c0.5,0,0.9-0.1,1.3-0.4
		c0.8-0.6,1.2-1.5,1.1-2.5c0-0.8-0.2-1.6-0.7-2.3c-0.4-0.6-1.1-0.9-1.8-0.8c-0.5,0-1,0.2-1.5,0.5c-0.7,0.6-1.1,1.6-1,2.5
		c-0.1,0.8,0.2,1.6,0.6,2.3C4970.2,185.5,4970.9,185.8,4971.6,185.7z"/>
	<g id="Grupo_4364" transform="translate(4418.839 -189.226)">
		<path id="Trazado_4822" class="st4" d="M715,414.8c0,13.5-5.4,26.3-15.2,35.6c-1,0.9-2,1.8-3,2.7c-7,5.6-15.4,9.1-24.3,10
			c-0.2,0-0.3,0-0.5,0c-0.1,0-0.1,0-0.2,0c-0.1,0-0.3,0-0.4,0c-1.1,0.1-2.2,0.1-3.4,0.2c-0.1,0-0.3,0-0.4,0c-0.3,0-0.6,0-0.9,0
			c-1.4,0-2.9-0.1-4.3-0.3c-0.2,0-0.4,0-0.5-0.1c-0.4,0-0.8-0.1-1.1-0.2c-0.3,0-0.5-0.1-0.8-0.1c-8.6-1.4-16.7-5.2-23.3-11
			c-1.1-0.9-2.1-1.9-3-2.9c-8.8-9.2-13.7-21.4-13.7-34.1c0-26.8,21.2-48.6,47.4-48.6S715,388,715,414.8z"/>
		<g id="Grupo_4363">
			<path id="Trazado_4823" class="st5" d="M682.2,401.3L682.2,401.3L682.2,401.3c-0.1-0.5-0.1-1.1,0.1-1.6l0,0c0-0.1,0-0.1,0.1-0.2
				l0,0c0,0,0-0.1,0.1-0.1c0.1-0.2,0.2-0.4,0.3-0.8l0,0c0.5-1.2,1.1-3.1,1.6-4.6c0.1-0.5,0.3-0.9,0.3-1.3c0.2-0.7,0.3-1.4,0.4-2.1
				l0,0c0.7-3.6,0.3-7.3-1.2-10.7l0,0c-0.4-0.7-0.8-1.5-1.3-2.1l0,0c-0.7-1-1.6-1.9-2.6-2.6l0,0c-1.3-1-2.8-1.8-4.4-2.4l0,0
				c-0.7-0.3-1.5-0.5-2.3-0.6c-1.4-0.3-2.7-0.5-4.1-0.5c-0.2,0-0.5,0-0.7,0c-7.3,0.1-19.2,6.7-16.9,19.4c0.2,1.1,0.5,2.2,0.8,3.2
				c0.4,1.1,0.9,2.2,1.4,3.3c0,0.1,0,0.3-0.1,0.4l0,0c-0.1,0.3-0.3,0.8-0.6,1.3l0,0c-2,4.4-7.8,16.2-9.6,21.4
				c-1.8,5.3,2.3,8.5,8.8,10.3h0.1l0,0l0,0c0.5,0.1,0.9,0.2,1.4,0.4l0,0c2.2,0.5,4.5,0.8,6.8,1l0,0l0,0l0,0c0.1,0,0.2,0,0.3,0l0,0
				c0.6,0.1,1.2,0.1,1.8,0.1l0,0c2.1,0.1,4.3,0.2,6.5,0.1l0,0c0.8,0,1.5,0,2.3-0.1l0,0h0.1h0.2l0,0c2.7-0.1,5.3-0.4,8-0.8
				c1.1-0.2,2.1-0.4,3-0.6c0.4-0.1,0.7-0.2,1.1-0.2h0.1c4.3-1,7.3-2.5,7.6-4.1C692.1,423.2,683,407.2,682.2,401.3z"/>
			<path id="Trazado_4824" class="st6" d="M658.8,405c0,0-3.7-11.4-5.1-7.6c-1.2,3.5,3.2,12.9-0.4,23.4c-2.4,7,5.3,10.7,7.8,11.3
				s10.7-3.6,15-3.8c14.1-0.8-0.7-14.9,6.3-28.9C684.8,394.5,658.8,405,658.8,405z"/>
			<path id="Trazado_4825" class="st7" d="M670.6,444.7l-9.9-0.2c-0.3,0-0.5-0.2-0.5-0.5l0.8-31.3c0-0.3,0.3-0.5,0.6-0.5l9.9,0.2
				c0.3,0,0.5,0.2,0.5,0.5l-0.8,31.3C671.2,444.5,670.9,444.7,670.6,444.7z"/>
			<ellipse id="Elipse_752" class="st8" cx="683.5" cy="396.7" rx="3.2" ry="2.8"/>
			<ellipse id="Elipse_753" class="st8" cx="652.2" cy="396.7" rx="2.9" ry="2.6"/>
			<ellipse id="Elipse_754" class="st8" cx="683.5" cy="396.7" rx="3.2" ry="2.8"/>
			
				<ellipse id="Elipse_755" transform="matrix(0.1177 -0.993 0.993 0.1177 196.7866 1012.9348)" class="st9" cx="668.4" cy="395.7" rx="21.5" ry="14.6"/>
			<path id="Trazado_4826" class="st6" d="M671.9,381c-0.1,4.4,2.6,5.2,5.3,7.6c3.2,2.8,6.4,4.5,6,4L671.9,381L671.9,381L671.9,381z
				"/>
			<path id="Trazado_4827" class="st5" d="M683.5,393.8c-0.8-0.3-3.8-4.7-7.6-7c-3.7-2.3-3.5-4.2-4.2-5c-0.9,0.9-1.8,4.2-4.9,5.3
				c-4.4,1.5-10.9,0.8-12.8,7.1c-4.4-8.9,1.1-21.3,15.9-21.2C684.9,373,689,385.5,683.5,393.8z"/>
			<path id="Trazado_4828" class="st10" d="M670,403.8L670,403.8c-0.9,0.1-1.8-0.5-1.9-1.5c0-0.1,0-0.2,0-0.3l0.5-4.3
				c0-0.2,0.4-0.4,0.9-0.5l0,0c0.5,0,0.9,0.1,1,0.4l1.1,4.2c0.2,0.9-0.4,1.8-1.3,1.9C670.3,403.8,670.2,403.8,670,403.8z"/>
			<path id="Trazado_4829" class="st10" d="M668.8,412.4l-3.9-2v-0.1l0,0l0.7-1h0.1l3.9,2v0.1l0,0L668.8,412.4
				C668.9,412.4,668.9,412.4,668.8,412.4z"/>
			<path id="Trazado_4830" class="st10" d="M668,411.4l3.7-2.3h0.1l0.8,1v0.1l0,0l-3.7,2.3h-0.1L668,411.4
				C667.9,411.5,668,411.5,668,411.4L668,411.4z"/>
			<path id="Trazado_4831" class="st11" d="M672.5,463.2c0,0-3.1,0.2-4.4,0.3c-0.1,0-0.3,0-0.4,0c-0.3,0-0.6,0-0.9,0
				c-1.6,0-3.2-0.1-4.8-0.3l-1.9-0.3l0.1-7.5v-2.1l0,0l0.1-8.9l0,0l0.1-5.6v-0.3l0,0v-0.2l0,0V438l0,0l0.1-5.8V432v-0.3l0,0v-0.1
				v-1.2l0,0v-0.1v-1.9V428c0,0.1,0,0.2,0,0.3l0,0c0.1,1.5,0.8,2.9,1.9,3.9c0.1,0.1,0.2,0.2,0.3,0.2l0,0c1,0.7,2.2,1.1,3.4,1.1
				c1.1,0,2.2-0.3,3.1-1l0,0c0.3-0.2,0.6-0.5,0.8-0.8c0.6-0.7,1-1.5,1.3-2.3c0.1-0.4,0.2-0.7,0.2-1.1l0,0c0-0.2,0-0.4,0-0.6v0.1v1.5
				v3.1l0.1,5.2v0.2v0.2v0.1v0.3l0.1,6.7l0,0v0.5l0,0v2.2l0,0L672.5,463.2z"/>
			<g id="Grupo_4351">
				<path id="Trazado_4832" class="st3" d="M660.1,462.8c-8.6-1.4-16.7-5.2-23.3-11c-1.1-0.9-2.1-1.9-3-2.9l1.6-6.1
					c1.2-4.4,6.7-9,12.9-10.9l1-0.3l0,0l0,0l2.8-0.8l0,0l1.8-0.5l0,0l2.1-0.6l0,0l0.7-0.2h0.2l3.3-1l0,0v0.4v0.5l0.1,2.1l0,0v0.2
					v0.5v0.2l0.3,5.6v0.2v0.1v0.1v0.1v0.3l0.3,5.9l0.5,10.2l0,0l0.1,2.3l0.3,6v0.1L660.1,462.8z"/>
				<g id="Grupo_4350">
					<path id="Trazado_4833" class="st12" d="M661.3,438.5l-0.4,0.1l-2.5,0.7l-9.2,2.7l-0.8-10.1l11.9-3.6l0.4,9.9l0.4-0.2
						L661.3,438.5z"/>
					<path id="Trazado_4834" class="st12" d="M661.8,457.1L661.8,457.1l-12.6-14.4l9.2-3.9l2.4-1l0.4-0.2v0.4L661.8,457.1z"/>
					<path id="Trazado_4835" class="st3" d="M661.3,438.1l-10.9,3.2l-1-9.8l11.1-3.2L661.3,438.1z"/>
					<path id="Trazado_4836" class="st3" d="M661.8,455l-11.4-12.5l10.9-4.6L661.8,455z"/>
				</g>
			</g>
			<path id="Trazado_4837" class="st3" d="M699.9,450.5c-1,0.9-2,1.8-3,2.7c-7,5.6-15.4,9.1-24.3,10l-0.2-8.3l-0.3-16.5v-0.3v-0.3
				l-0.2-8.6v-1.6l0,0l3.3,0.8h0.1l0,0h0.2l3.8,1l0,0l3.8,1l0,0l1,0.3c0,0,0,0,0.1,0c6.3,1.6,12,6.2,13.3,10.8L699.9,450.5z"/>
			<g id="Grupo_4352">
				<path id="Trazado_4838" class="st12" d="M671.6,438.3l0.4,0.1l2.5,0.6l9.2,2.3l0.3-10.6l-12.2-3.1l0.2,10.5l-0.4-0.2V438.3z"/>
				<path id="Trazado_4839" class="st12" d="M672.3,457.3L672.3,457.3l11.4-15.1l-9.3-3.6l-2.5-0.9l-0.4-0.2v0.4L672.3,457.3z"/>
				<path id="Trazado_4840" class="st3" d="M671.5,438l10.9,2.8l0.5-10.3l-11.3-2.8L671.5,438z"/>
				<path id="Trazado_4841" class="st3" d="M672.2,455.1l10.3-13.2l-11-4.2L672.2,455.1z"/>
			</g>
			<g id="Grupo_4360">
				<g id="Grupo_4353">
					<path id="Trazado_4842" class="st13" d="M653.1,448.2c-4.2-4.8-0.8-17,2.7-21.2c1.3-1.6,2.9-2.8,4.8-3.6l0.2,0.5
						c-1.8,0.8-3.4,1.9-4.6,3.5c-1.7,2.1-3.4,6.2-4.1,10.1c-0.8,4.6-0.3,8.4,1.4,10.4L653.1,448.2z"/>
				</g>
				<g id="Grupo_4359">
					<g id="Grupo_4354">
						<path id="Trazado_4843" class="st13" d="M680.6,442.1l-0.5-0.1c1-9.6-1.3-15.6-7-18.5c-0.4-0.2-0.9-0.3-1.4-0.3l0.1-0.5
							c0.5,0.1,1,0.2,1.5,0.4C679.3,426,681.7,432.3,680.6,442.1z"/>
					</g>
					<g id="Grupo_4358">
						<g id="Grupo_4356">
							<g id="Grupo_4355">
								<ellipse id="Elipse_756" class="st14" cx="653.3" cy="448.6" rx="3.6" ry="3.2"/>
							</g>
							<ellipse id="Elipse_757" class="st15" cx="653.3" cy="448.6" rx="1.9" ry="1.7"/>
						</g>
						<g id="Grupo_4357">
							<path id="Trazado_4844" class="st13" d="M679.1,457.9h-0.5v-0.5h0.5c0.6,0,1.2-0.3,1.4-0.9c1-3,3.7-12.8-0.6-14.3
								c-1.5-0.4-3.1-0.2-4.4,0.7c-3.7,2.4-6.4,6.1-7.6,10.4c-0.1,0.5,0.2,1,0.6,1.2l0.5,0.3l-0.3,0.5l-0.5-0.3
								c-0.7-0.3-1-1.1-0.9-1.8c1.2-4.4,4-8.2,7.9-10.7c1.4-0.9,3.2-1.2,4.8-0.7c4.7,1.7,2.2,11,1,15
								C680.7,457.4,679.9,457.9,679.1,457.9z"/>
						</g>
						<path id="Trazado_4845" class="st15" d="M670.1,455.1c0.1,0.6-0.4,1.1-0.9,1.2c-0.6,0.1-1.1-0.4-1.2-0.9s0.4-1.1,0.9-1.2h0.1
							C669.6,454.1,670.1,454.5,670.1,455.1z"/>
						<path id="Trazado_4846" class="st15" d="M679.7,457.6c0.1,0.6-0.4,1.1-0.9,1.2s-1.1-0.4-1.2-0.9c-0.1-0.6,0.4-1.1,0.9-1.2h0.1
							C679.1,456.6,679.6,457.1,679.7,457.6z"/>
					</g>
				</g>
			</g>
			<path id="Trazado_4847" class="st16" d="M646.1,416.7c0,0-4.5,7.7,0,9.8C646.1,426.5,644.1,420.8,646.1,416.7z"/>
			<path id="Trazado_4848" class="st16" d="M682.9,409.5c0,0,3.4,3.7,3.4,5.9L682.9,409.5z"/>
			<path id="Trazado_4849" class="st16" d="M664.1,375c0,0-7.9,4.7-11.3,8.6C652.8,383.5,658.3,376,664.1,375z"/>
			<path id="Trazado_4850" class="st16" d="M683.7,385.9c0,0,1,3.2,0,5.2V385.9z"/>
			<path id="Trazado_4851" class="st16" d="M664.1,379.4c0,0-4.8,2.9-6.9,5.2C657.2,384.7,660.6,380.1,664.1,379.4z"/>
			<path id="Trazado_4852" class="st16" d="M674,374.3c0,0,5.6,6.8,7.4,11.4C681.5,385.7,679.1,377,674,374.3z"/>
			<path id="Trazado_4853" class="st16" d="M673.7,376.5c0,0,3.4,3.7,3.4,5.9L673.7,376.5z"/>
			<g id="Grupo_4361">
				<path id="Trazado_4854" d="M664.1,395.4c0,0.6-0.2,1.1-0.6,1.6c-0.1,0.1-0.3,0.2-0.5,0.2c-0.6,0-1.1-0.8-1.1-1.8
					c0-0.9,0.4-1.7,1-1.8h0.1c0.3,0,0.6,0.2,0.8,0.5c-0.2,0-0.3,0.2-0.3,0.3c0,0.2,0.2,0.4,0.4,0.4c0.1,0,0.1,0,0.2,0
					C664.1,395,664.1,395.2,664.1,395.4z"/>
				<path id="Trazado_4855" class="st17" d="M663.5,396.9c-0.1,0.1-0.3,0.2-0.5,0.2c-0.6,0-1.1-0.8-1.1-1.8c0-0.9,0.4-1.7,1-1.8
					c-0.4,0.7-0.6,1.4-0.4,2.2C662.6,396.3,663,396.8,663.5,396.9z"/>
			</g>
			<g id="Grupo_4362">
				<path id="Trazado_4856" d="M676.3,395.4c0,0.6-0.2,1.1-0.6,1.6c-0.1,0.1-0.3,0.2-0.5,0.2c-0.6,0-1.1-0.8-1.1-1.8
					c0-0.9,0.4-1.7,1-1.8h0.1c0.3,0,0.6,0.2,0.8,0.5c-0.2,0-0.3,0.2-0.3,0.3c0,0.2,0.2,0.4,0.4,0.4c0.1,0,0.1,0,0.2,0
					C676.3,395,676.3,395.2,676.3,395.4z"/>
				<path id="Trazado_4857" class="st17" d="M675.7,397c-0.1,0.1-0.3,0.2-0.5,0.2c-0.6,0-1.1-0.8-1.1-1.8c0-0.9,0.4-1.7,1-1.8
					c-0.4,0.7-0.6,1.4-0.4,2.2C674.8,396.3,675.2,396.8,675.7,397z"/>
			</g>
		</g>
	</g>
	<g id="Grupo_4365" transform="translate(4365.579 -195.244)">
		<path id="Trazado_4858" class="st18" d="M887.3,375.5c-5.4-2.2-11.2-3.3-17.1-3.3c-29.7,0-52.4,28-47,58.7
			c1.4,8.2,4.8,15.8,9.9,22.4l0,0c19.2,24.5,55,24.5,74.2,0l0,0C927.9,426.8,917.4,387.5,887.3,375.5z"/>
		<path id="Trazado_4859" class="st18" d="M894.7,461.5c-0.2-0.3-0.2-0.2-0.2-0.3v3.7c0.6-0.4,1.3-0.8,1.9-1.2l-1.5-2.3L894.7,461.5
			z"/>
		<path id="Trazado_4860" class="st18" d="M845.8,461.5l-0.2-0.1l-1.5,2.3c0.6,0.4,1.2,0.8,1.9,1.2v-3.6
			C846,461.3,845.8,461.4,845.8,461.5z"/>
		<path id="Trazado_4861" class="st19" d="M893.2,432.8c0-0.1-0.1-0.2-0.1-0.3C893.2,432.6,893.2,432.7,893.2,432.8z"/>
		<path id="Trazado_4862" class="st19" d="M893.5,433.5v-0.1C893.4,433.4,893.5,433.4,893.5,433.5z"/>
		<path id="Trazado_4863" class="st19" d="M893.4,433.1c0-0.1-0.1-0.2-0.1-0.2C893.3,433,893.3,433,893.4,433.1z"/>
		<path id="Trazado_4864" class="st19" d="M893.8,434.5c0-0.1,0-0.2-0.1-0.3C893.7,434.3,893.8,434.4,893.8,434.5z"/>
		<path id="Trazado_4865" class="st19" d="M893.7,434.1c0-0.1-0.1-0.2-0.1-0.3C893.6,433.9,893.6,434,893.7,434.1z"/>
		<path id="Trazado_4866" class="st19" d="M893.9,434.8c0-0.1,0-0.1,0-0.2C893.8,434.7,893.8,434.8,893.9,434.8z"/>
		<path id="Trazado_4867" class="st19" d="M893.1,432.4c-0.1-0.1-0.1-0.3-0.2-0.4C893,432.2,893,432.3,893.1,432.4z"/>
		<path id="Trazado_4868" class="st19" d="M892.7,431.6c-0.1-0.1-0.1-0.2-0.2-0.4C892.6,431.3,892.7,431.4,892.7,431.6z"/>
		<path id="Trazado_4869" class="st19" d="M892.9,432c-0.1-0.1-0.1-0.3-0.2-0.4C892.8,431.7,892.9,431.9,892.9,432z"/>
		<path id="Trazado_4870" class="st19" d="M892.5,431.1c-0.1-0.1-0.1-0.2-0.2-0.3C892.4,430.9,892.5,431,892.5,431.1z"/>
		<path id="Trazado_4871" class="st19" d="M894.4,460.9v0.2C894.4,461.1,894.4,461,894.4,460.9z"/>
		<path id="Trazado_4872" class="st19" d="M894,435.6c0-0.1,0-0.1,0-0.2C893.9,435,894,435.2,894,435.6z"/>
		<path id="Trazado_4873" class="st20" d="M907.4,452.6l-15.2-22.2C892.3,430.6,891.5,429.5,907.4,452.6L907.4,452.6z"/>
		<path id="Trazado_4874" class="st20" d="M889.7,426.8L889.7,426.8L889.7,426.8L889.7,426.8z"/>
		<path id="Trazado_4875" class="st21" d="M894.9,461.3l1.5,2.3c4.2-2.8,7.9-6.3,11-10.3l-0.2-0.4
			C901.4,456.9,896.7,460.1,894.9,461.3z"/>
		<path id="Trazado_4876" class="st22" d="M894.3,437.5c0.1,1.4,0.1,0.2,0.1,23.7c0.1,0.1,0.1,0.2,0.2,0.3l12.7-8.8
			c-5.1-7.4-10.1-14.7-15.2-22.1C893.4,432.7,894.1,435.1,894.3,437.5z"/>
		<path id="Trazado_4877" class="st21" d="M833.4,453l-0.3,0.4c3.1,4,6.8,7.5,11,10.3l1.5-2.3C843.8,460.1,839.7,457.3,833.4,453z"
			/>
		<path id="Trazado_4878" class="st22" d="M845.8,461.5l0.2-0.2v-21.7c0-3,0.7-5.9,2-8.6c-5,7.3-10,14.5-15,21.8
			C825.6,463.6,845,460.9,845.8,461.5z"/>
		<path id="Trazado_4879" class="st18" d="M859.9,421.2L859.9,421.2c-3.1,0.8-6,2.4-8.2,4.6l0,0C854,423.6,856.8,422,859.9,421.2z"
			/>
		<path id="Trazado_4880" class="st18" d="M884.2,422.6c0.8,0.4,1.6,0.9,2.4,1.4C885.8,423.5,885.1,423,884.2,422.6z"/>
		<path id="Trazado_4881" class="st18" d="M881.1,421.4c0.2,0.1,0.4,0.1,0.5,0.2C881.5,421.5,881.3,421.4,881.1,421.4z"/>
		<path id="Trazado_4882" class="st18" d="M881.6,421.5c0.2,0.1,0.4,0.1,0.5,0.2C882,421.7,881.8,421.6,881.6,421.5z"/>
		<path id="Trazado_4883" class="st18" d="M888.7,425.8c-0.1-0.1-0.3-0.2-0.4-0.4C888.5,425.6,888.6,425.7,888.7,425.8z"/>
		<path id="Trazado_4884" class="st23" d="M893.8,434.6c-0.9-3.3-2.6-6.4-5.1-8.8l0,0c-2.1-2.1-4.8-3.6-7.6-4.4L870,434.6
			l-10.2-13.4c-8.2,2.2-13.8,9.7-13.8,18.2v25.4c14.9,9.1,33.6,9.1,48.4,0C894.4,437.3,894.7,437.9,893.8,434.6z M889,451h-11v-13
			h11V451z"/>
		<path id="Trazado_4885" class="st21" d="M870,434.6l11.1-13.2c-0.8-0.2-1.7-0.4-2.5-0.5c-4.1,5.6-11.2,6.6-16-0.1
			c-1,0.1-1.9,0.2-2.8,0.5L870,434.6z"/>
		<rect id="Rectángulo_1065" x="878" y="438" class="st22" width="11.1" height="13.1"/>
		<ellipse id="Elipse_758" class="st21" cx="883.1" cy="409.9" rx="2" ry="3.5"/>
		<ellipse id="Elipse_759" class="st21" cx="857.7" cy="409.9" rx="2" ry="3.5"/>
		<ellipse id="Elipse_760" class="st24" cx="870.3" cy="409.1" rx="12.6" ry="17.5"/>
		<path id="Trazado_4886" class="st3" d="M870.2,419.7c2.2,0,3.9-1.3,3.9-2.9h-7.8C866.3,418.4,868,419.7,870.2,419.7z"/>
		<path id="Trazado_4887" class="st21" d="M870.2,408.3c-0.4,0-1.7,1.8-1.7,3.8c-0.1,0.7,0.1,1.4,0.6,2c0.9,0.9,2.6,1.2,2.8-0.7
			c0.2-1.5-1.4-2.7-1.6-4.3C870.1,408.9,870.2,408.5,870.2,408.3z"/>
		<ellipse id="Elipse_761" cx="865" cy="408.5" rx="1" ry="1"/>
		<ellipse id="Elipse_762" cx="875.2" cy="408.5" rx="1" ry="1"/>
		<path id="Trazado_4888" class="st25" d="M877.1,404.7c-0.3,0.3-0.8,0.1-1.1,0.3c-0.2,0.1-0.3,0.5-0.8,0.1
			c-0.3-0.2-0.4-0.4-0.9-0.3c-0.2,0-0.3,0.1-0.5,0c-0.2,0-0.3-0.2-0.3-0.3c0-0.1,0.1-0.3,0.1-0.4s-0.1-0.1-0.1-0.2
			c-0.1-0.2,0.2-0.6,0.8-0.6c0.2,0,0.2,0,0.3-0.2c0.1-0.1,0.2-0.2,0.4-0.1c0.2,0,0.3,0.2,0.5,0.2c0.5,0,1.1,0.3,1.4,0.6
			C877,404.3,877.3,404.5,877.1,404.7z"/>
		<path id="Trazado_4889" class="st25" d="M866.8,404.6c-0.1,0.5-0.5,0.3-0.7,0.3s-0.4,0.3-0.6,0.3c-0.2,0-0.5-0.1-0.7-0.1
			c-0.3,0-0.5-0.1-0.8-0.2c-0.2-0.1-0.5,0-0.7-0.2s-0.1-0.7,0.1-0.8c0.1-0.3,0.3-0.3,0.6-0.3c0.4,0,1.1-0.3,1.2-0.3
			c0.4,0,0.7,0.3,1.1,0.3c0.2,0,0.4,0,0.5,0.1s0.1,0.3,0,0.4C866.8,404.3,866.8,404.4,866.8,404.6z"/>
		<path id="Trazado_4890" class="st25" d="M882.5,389.5c-0.9-0.7-2-1-3.1-0.9c-0.6,0.2-0.9,0.7-0.9,1.3c-0.8-1.7-2.7-4.4-4.4-5.1
			c-1.7-0.6-3.5,0.2-4.1,1.9c-0.2,0.4-0.2,0.9-0.2,1.3c-1.7-0.3-3.4-0.5-5.2-0.6c-3.5-0.1-3,1.8-3.7,2.4c-0.3,0.2-0.6,0.4-1,0.4
			c-1.8,0.1-3.4,1.1-4.3,2.7c-0.5,1.1-0.6,2.3-0.3,3.4c0.2,1.2,0.7,2.2,1,3.4c0.5,2.2,0.7,4.5,0.8,6.8c0,0.6,0,3.9,1.1,3.6
			c0.5-0.1,0.7-1.5,0.8-2c0.5-3.1,2.4-8.9,5.5-9.5c2.3-0.4,3.5,2.7,6.2,2.8l0,0h0.1l0,0c2.6-0.1,3.7-3.2,5.9-2.8
			c3,0.5,4.8,6.3,5.3,9.5c0.1,0.5,0.2,1.9,0.7,2c0.8,0.2,1.9-6,2-6.8c0.2-1.3,0.7-2.6,0.9-3.9c0.2-0.9,0-1.9-0.4-2.7
			c-0.2-0.4-0.5-0.7-0.8-0.9c-0.3-0.2-0.8-0.3-1-0.6s0.1-1.3,0.2-1.7C883.9,392.1,883.5,390.6,882.5,389.5z"/>
		<rect id="Rectángulo_1066" x="851.7" y="439.9" class="st26" width="12.2" height="7.8"/>
		<path id="Trazado_4891" class="st27" d="M862.2,442.2h-8.8c-0.2,0-0.3-0.1-0.3-0.3l0,0l0,0c0-0.2,0.1-0.3,0.3-0.3h8.8
			c0.2,0,0.3,0.1,0.3,0.3l0,0C862.5,442,862.4,442.2,862.2,442.2L862.2,442.2z"/>
		<path id="Trazado_4892" class="st27" d="M862.2,443.8h-8.8c-0.2,0-0.3-0.1-0.3-0.3l0,0c0-0.2,0.1-0.3,0.3-0.3h8.8
			c0.2,0,0.3,0.1,0.3,0.3l0,0C862.5,443.7,862.4,443.8,862.2,443.8L862.2,443.8z"/>
		<path id="Trazado_4893" class="st27" d="M862.2,445.4h-8.8c-0.2,0-0.3-0.1-0.3-0.3l0,0c0-0.2,0.1-0.3,0.3-0.3l0,0h8.8
			c0.2,0,0.3,0.1,0.3,0.3l0,0l0,0C862.5,445.3,862.4,445.4,862.2,445.4L862.2,445.4z"/>
		<path id="Trazado_4894" class="st20" d="M858.5,440.7h-1.6c-0.2-0.9-0.5-1.7-0.7-2.6h3L858.5,440.7z"/>
	</g>
	<path id="Trazado_4895" class="st28" d="M5087,296.9v2.6h-3.3V311h-2.9v-11.5h-3.4v-2.6H5087z M5097.4,299.5h-5.2v3.2h4.6v2.5h-4.6
		v3.2h5.2v2.6h-8.2v-14.1h8.2V299.5z M5103.4,308.4h4.4v2.6h-7.4v-14.1h2.9L5103.4,308.4z M5118.2,299.5h-5.2v3.2h4.6v2.5h-4.6v3.2
		h5.2v2.6h-8.2v-14.1h8.2V299.5z M5129.3,299.5h-5.2v3.2h4.6v2.5h-4.6v3.2h5.2v2.6h-8.2v-14.1h8.2V299.5z M5130.7,311l5.5-7.4
		l-5.3-6.7h3.6l3.5,4.6l3.5-4.6h3.6l-5.3,6.7l5.5,7.4h-3.7l-3.5-5l-3.5,5H5130.7z M5153.2,296.9c1.2-0.1,2.4,0.4,3.3,1.3
		c0.8,0.9,1.3,2,1.2,3.2c0,1.2-0.4,2.4-1.2,3.2c-0.9,0.9-2,1.3-3.3,1.3h-2.9v5.1h-2.9v-14.1H5153.2z M5152.7,303.5
		c0.6,0,1.2-0.2,1.6-0.6s0.6-1,0.5-1.5c0-0.6-0.2-1.1-0.5-1.5c-0.4-0.4-1-0.6-1.6-0.6h-2.5v4.1L5152.7,303.5z M5168.3,299.5h-5.2
		v3.2h4.6v2.5h-4.6v3.2h5.2v2.6h-8.2v-14.1h8.2V299.5z M5178.8,311l-3.7-6.2h-0.9v6.2h-2.9v-14.1h5.1c0.7,0,1.4,0.1,2.1,0.3
		c0.5,0.2,1,0.5,1.4,0.9s0.6,0.8,0.8,1.3c0.2,0.5,0.3,1.1,0.3,1.6c0,0.8-0.2,1.7-0.8,2.3c-0.6,0.6-1.4,1.1-2.2,1.2l4.2,6.4h-3.4V311
		z M5174.3,299.3v3.4h1.7c1.5,0,2.2-0.6,2.2-1.7c0-0.5-0.2-0.9-0.5-1.2c-0.5-0.3-1.1-0.5-1.7-0.4L5174.3,299.3L5174.3,299.3z
		 M5192.6,296.9v2.6h-3.4V311h-2.9v-11.5h-3.4v-2.6H5192.6z M5194.8,311v-14.1h2.9V311H5194.8z M5207.6,311.2c-1,0-2-0.2-2.9-0.5
		s-1.6-0.8-2.3-1.4c-0.7-0.6-1.2-1.4-1.5-2.3c-0.4-1-0.6-2-0.5-3c0-1.3,0.3-2.7,0.9-3.8c0.6-1.1,1.5-2,2.6-2.5
		c1.1-0.6,2.4-0.9,3.7-0.9c1.5,0,2.9,0.4,4.1,1.1s2.1,1.8,2.5,3.1l-2.7,1c-0.3-0.8-0.8-1.4-1.5-1.9s-1.6-0.7-2.4-0.7
		c-1.2,0-2.3,0.4-3.1,1.2c-0.8,0.9-1.3,2.1-1.2,3.3c-0.1,1.2,0.4,2.4,1.2,3.3c0.8,0.8,1.9,1.3,3.1,1.2c0.9,0,1.7-0.2,2.4-0.7
		c0.7-0.5,1.2-1.1,1.5-1.9l2.7,1c-0.5,1.3-1.4,2.4-2.5,3.1C5210.5,310.8,5209.1,311.2,5207.6,311.2z M5216.7,311v-14.1h2.9V311
		H5216.7z M5232.7,311l-1-2.9h-5.9l-1,2.9h-3l5.2-14.1h3.6l5.2,14.1H5232.7z M5226.6,305.6h4.2l-2.1-6L5226.6,305.6z"/>
</g>
</svg>
