<svg xmlns="http://www.w3.org/2000/svg" width="405.661" height="135.741" viewBox="0 0 405.661 135.741">
  <g id="Grupo_4536" data-name="Grupo 4536" transform="translate(-146 -267)">
    <g id="Elipse_587" data-name="Elipse 587" transform="translate(171 303)" fill="none" stroke="#dd726a" stroke-width="1" stroke-dasharray="6">
      <ellipse cx="166" cy="44" rx="166" ry="44" stroke="none"/>
      <ellipse cx="166" cy="44" rx="165.5" ry="43.5" fill="none"/>
    </g>
    <path id="Trazado_1420" data-name="Trazado 1420" d="M221.4,606.829H144.75a1.4,1.4,0,0,1-1.395-1.395h0a1.4,1.4,0,0,1,1.395-1.394H221.4a1.4,1.4,0,0,1,1.395,1.394h0A1.4,1.4,0,0,1,221.4,606.829Z" transform="translate(2.645 -226.212)" fill="#231f20" opacity="0.15"/>
    <g id="Grupo_2990" data-name="Grupo 2990" transform="translate(146 313.202)">
      <rect id="Rectángulo_894" data-name="Rectángulo 894" width="36.15" height="37.06" transform="translate(37.339 28.183)" fill="#ddd"/>
      <path id="Trazado_1421" data-name="Trazado 1421" d="M216.074,286.756h-30.82V248l15.41-20.433L216.074,248Z" transform="translate(-178.736 -221.513)" fill="#fffeff"/>
      <path id="Trazado_1422" data-name="Trazado 1422" d="M216.074,262.617h36.15l.151-3.676-52.847-22.621-14.274,18.387v6.3l14.678-19.019,16.142,20.624Z" transform="translate(-178.736 -228.906)" fill="#231f20" opacity="0.15"/>
      <path id="Trazado_1423" data-name="Trazado 1423" d="M173.863,224.091l-20.348,24.348.475,2.092h4.463v-3.268l15.41-19.968Z" transform="translate(-151.934 -218.579)" fill="#d95243"/>
      <path id="Trazado_1424" data-name="Trazado 1424" d="M182,242.28,163.7,218.909,145.41,242.28l-2.056-1.916L163.7,214.321l20.348,26.043Z" transform="translate(-143.355 -210.329)" fill="#f8796b"/>
      <path id="Trazado_1425" data-name="Trazado 1425" d="M511.018,242.28l-18.293-23.838-5.6-4.121,25.949,26.043Z" transform="translate(-433.639 -210.329)" fill="#f8796b"/>
      <path id="Trazado_1426" data-name="Trazado 1426" d="M274.139,214.321h38.738l20.348,26.043H294.487Z" transform="translate(-253.791 -210.329)" fill="#fe9e94"/>
      <path id="Trazado_1427" data-name="Trazado 1427" d="M393.768,381.711h38.738l-2.056,1.916H391.712Z" transform="translate(-353.071 -351.676)" fill="#d95243"/>
      <rect id="Rectángulo_895" data-name="Rectángulo 895" width="11.413" height="21.782" transform="translate(16.223 43.46)" fill="#f8796b"/>
      <rect id="Rectángulo_896" data-name="Rectángulo 896" width="1.926" height="21.782" transform="translate(16.223 43.46)" fill="#d95243"/>
      <path id="Trazado_1428" data-name="Trazado 1428" d="M247.623,468l11.489,11.489V468Z" transform="translate(-231.4 -424.54)" fill="#231f20" opacity="0.1"/>
      <g id="Grupo_2988" data-name="Grupo 2988" transform="translate(41.773 43.436)">
        <rect id="Rectángulo_897" data-name="Rectángulo 897" width="12.525" height="12.525" fill="#4f6871"/>
        <rect id="Rectángulo_898" data-name="Rectángulo 898" width="1.454" height="12.548" transform="translate(11.07)" fill="#a7a9ac"/>
        <rect id="Rectángulo_899" data-name="Rectángulo 899" width="9.076" height="10.29" transform="translate(1.009 1.141)" fill="#8ac0de"/>
        <path id="Trazado_1429" data-name="Trazado 1429" d="M434.667,475.181l6.536,6.536v-1.194l-5.342-5.342Z" transform="translate(-431.116 -474.04)" fill="#fffeff" opacity="0.25"/>
        <path id="Trazado_1430" data-name="Trazado 1430" d="M457.04,478.8l-3.616-3.616h3.616Z" transform="translate(-446.955 -474.04)" fill="#fffeff" opacity="0.25"/>
        <path id="Trazado_1431" data-name="Trazado 1431" d="M424.372,467.847l-1.454,1.512h-11.07v-1.512Z" transform="translate(-411.847 -467.847)" fill="#231f20" opacity="0.15"/>
      </g>
      <g id="Grupo_2989" data-name="Grupo 2989" transform="translate(57.514 43.436)">
        <rect id="Rectángulo_900" data-name="Rectángulo 900" width="12.525" height="12.525" fill="#4f6871"/>
        <rect id="Rectángulo_901" data-name="Rectángulo 901" width="1.454" height="12.548" transform="translate(11.07)" fill="#a7a9ac"/>
        <rect id="Rectángulo_902" data-name="Rectángulo 902" width="9.076" height="10.29" transform="translate(1.009 1.141)" fill="#8ac0de"/>
        <path id="Trazado_1432" data-name="Trazado 1432" d="M535.833,475.181l6.536,6.536v-1.194l-5.342-5.342Z" transform="translate(-532.283 -474.04)" fill="#fffeff" opacity="0.25"/>
        <path id="Trazado_1433" data-name="Trazado 1433" d="M558.207,478.8l-3.616-3.616h3.616Z" transform="translate(-548.122 -474.04)" fill="#fffeff" opacity="0.25"/>
        <path id="Trazado_1434" data-name="Trazado 1434" d="M525.539,467.847l-1.454,1.512h-11.07v-1.512Z" transform="translate(-513.014 -467.847)" fill="#231f20" opacity="0.15"/>
      </g>
      <path id="Trazado_1435" data-name="Trazado 1435" d="M453.932,207.7l-7.078-9.059v-9.976h7.078Z" transform="translate(-399.634 -188.667)" fill="#fffeff"/>
      <rect id="Rectángulo_903" data-name="Rectángulo 903" width="7.078" height="18.878" transform="translate(54.298)" fill="#ddd"/>
    </g>
    <g id="Grupo_4376" data-name="Grupo 4376" transform="translate(-39 -50.202)">
      <g id="Grupo_2993" data-name="Grupo 2993" transform="translate(470.471 330.333)">
        <rect id="Rectángulo_904" data-name="Rectángulo 904" width="113.316" height="113.756" transform="translate(3.437 8.83)" fill="#fff"/>
        <path id="Trazado_1436" data-name="Trazado 1436" d="M339.717,763.88H226.4a1.4,1.4,0,0,0-1.4,1.4V771.8H341.112v-6.521A1.4,1.4,0,0,0,339.717,763.88Z" transform="translate(-222.961 -649.211)" fill="#4e4d60"/>
        <g id="Grupo_2992" data-name="Grupo 2992" transform="translate(43.031 11.963)">
          <path id="Trazado_1437" data-name="Trazado 1437" d="M436.235,288.524A18.633,18.633,0,0,0,453.3,277.378H419.171A18.633,18.633,0,0,0,436.235,288.524Z" transform="translate(-419.171 -277.378)" opacity="0.25" style="mix-blend-mode: multiply;isolation: isolate"/>
        </g>
        <rect id="Rectángulo_905" data-name="Rectángulo 905" width="113.316" height="3.133" transform="translate(3.437 8.83)" fill="#161615" opacity="0.25" style="mix-blend-mode: multiply;isolation: isolate"/>
        <rect id="Rectángulo_906" data-name="Rectángulo 906" width="120.19" height="9.852" rx="4.926" fill="#46485d"/>
      </g>
      <g id="Grupo_3002" data-name="Grupo 3002" transform="translate(483.876 404.8)">
        <g id="Grupo_2995" data-name="Grupo 2995" transform="translate(29.379 0)">
          <g id="Grupo_2994" data-name="Grupo 2994" transform="translate(0.865 2.177)">
            <rect id="Rectángulo_907" data-name="Rectángulo 907" width="32.893" height="45.965" fill="#4e4d60"/>
            <rect id="Rectángulo_908" data-name="Rectángulo 908" width="31.186" height="45.965" transform="translate(0.853)" fill="#129bdb"/>
            <path id="Trazado_1438" data-name="Trazado 1438" d="M442.22,628.061v-44.3h-.975v44.3H426.139v1.664h31.186v-1.664Z" transform="translate(-425.285 -583.76)" fill="#e8e8e8"/>
          </g>
          <rect id="Rectángulo_909" data-name="Rectángulo 909" width="32.893" height="1.975" transform="translate(0.865 2.177)" fill="#161615" opacity="0.25" style="mix-blend-mode: multiply;isolation: isolate"/>
          <rect id="Rectángulo_910" data-name="Rectángulo 910" width="34.623" height="2.674" fill="#4e4d60"/>
          <rect id="Rectángulo_911" data-name="Rectángulo 911" width="34.623" height="2.674" fill="#4e4d60"/>
        </g>
        <g id="Grupo_2998" data-name="Grupo 2998">
          <rect id="Rectángulo_912" data-name="Rectángulo 912" width="21.338" height="2.111" transform="translate(0 24.867)" fill="#161615" opacity="0.25" style="mix-blend-mode: multiply;isolation: isolate"/>
          <g id="Grupo_2997" data-name="Grupo 2997">
            <rect id="Rectángulo_913" data-name="Rectángulo 913" width="21.338" height="2.111" transform="translate(0 24.022)" fill="#4e4d60"/>
            <g id="Grupo_2996" data-name="Grupo 2996" transform="translate(1.108)">
              <rect id="Rectángulo_914" data-name="Rectángulo 914" width="19.121" height="24.021" transform="translate(0 0)" fill="#129bdb"/>
              <path id="Trazado_1439" data-name="Trazado 1439" d="M284.088,573.447v24.021h19.121V573.447Zm1.267,1.267h7.451v9.9h-7.451Zm0,21.487v-9.9h7.451v9.9Zm16.588,0h-7.451v-9.9h7.451Zm-7.451-11.587v-9.9h7.451v9.9Z" transform="translate(-284.088 -573.447)" fill="#e8e8e8"/>
            </g>
          </g>
        </g>
        <g id="Grupo_3001" data-name="Grupo 3001" transform="translate(72.043)">
          <rect id="Rectángulo_915" data-name="Rectángulo 915" width="21.338" height="2.111" transform="translate(0 24.867)" fill="#161615" opacity="0.25" style="mix-blend-mode: multiply;isolation: isolate"/>
          <g id="Grupo_3000" data-name="Grupo 3000">
            <rect id="Rectángulo_916" data-name="Rectángulo 916" width="21.338" height="2.111" transform="translate(0 24.022)" fill="#4e4d60"/>
            <g id="Grupo_2999" data-name="Grupo 2999" transform="translate(1.108)">
              <rect id="Rectángulo_917" data-name="Rectángulo 917" width="19.121" height="24.021" transform="translate(0 0)" fill="#129bdb"/>
              <path id="Trazado_1440" data-name="Trazado 1440" d="M625.339,573.447v24.021H644.46V573.447Zm1.267,1.267h7.451v9.9h-7.451Zm0,21.487v-9.9h7.451v9.9Zm16.588,0h-7.451v-9.9h7.451Zm-7.451-11.587v-9.9h7.451v9.9Z" transform="translate(-625.339 -573.447)" fill="#e8e8e8"/>
            </g>
          </g>
        </g>
      </g>
      <g id="Grupo_3012" data-name="Grupo 3012" transform="translate(483.876 356.945)">
        <g id="Grupo_3005" data-name="Grupo 3005">
          <rect id="Rectángulo_918" data-name="Rectángulo 918" width="21.338" height="2.111" transform="translate(0 24.867)" fill="#161615" opacity="0.25" style="mix-blend-mode: multiply;isolation: isolate"/>
          <g id="Grupo_3004" data-name="Grupo 3004">
            <rect id="Rectángulo_919" data-name="Rectángulo 919" width="21.338" height="2.111" transform="translate(0 24.022)" fill="#4e4d60"/>
            <g id="Grupo_3003" data-name="Grupo 3003" transform="translate(1.108)">
              <rect id="Rectángulo_920" data-name="Rectángulo 920" width="19.121" height="24.021" transform="translate(0 0)" fill="#129bdb"/>
              <path id="Trazado_1441" data-name="Trazado 1441" d="M284.088,346.766v24.021h19.121V346.766Zm1.267,1.267h7.451v9.9h-7.451Zm0,21.487v-9.9h7.451v9.9Zm16.588,0h-7.451v-9.9h7.451Zm-7.451-11.586v-9.9h7.451v9.9Z" transform="translate(-284.088 -346.766)" fill="#e8e8e8"/>
            </g>
          </g>
        </g>
        <g id="Grupo_3009" data-name="Grupo 3009" transform="translate(36.021)">
          <rect id="Rectángulo_921" data-name="Rectángulo 921" width="21.338" height="2.111" transform="translate(0 24.867)" fill="#161615" opacity="0.25" style="mix-blend-mode: multiply;isolation: isolate"/>
          <g id="Grupo_3008" data-name="Grupo 3008">
            <g id="Grupo_3007" data-name="Grupo 3007">
              <rect id="Rectángulo_922" data-name="Rectángulo 922" width="21.338" height="2.111" transform="translate(0 24.022)" fill="#4e4d60"/>
              <g id="Grupo_3006" data-name="Grupo 3006" transform="translate(1.108)">
                <rect id="Rectángulo_923" data-name="Rectángulo 923" width="19.121" height="24.021" transform="translate(0 0)" fill="#129bdb"/>
                <path id="Trazado_1442" data-name="Trazado 1442" d="M454.714,346.766v24.021h19.121V346.766Zm1.267,1.267h7.451v9.9h-7.451Zm0,21.487v-9.9h7.451v9.9Zm16.588,0h-7.451v-9.9h7.451Zm-7.451-11.586v-9.9h7.451v9.9Z" transform="translate(-454.714 -346.766)" fill="#e8e8e8"/>
              </g>
            </g>
          </g>
        </g>
        <g id="Grupo_3011" data-name="Grupo 3011" transform="translate(72.043)">
          <rect id="Rectángulo_924" data-name="Rectángulo 924" width="21.338" height="2.111" transform="translate(0 24.867)" fill="#161615" opacity="0.25" style="mix-blend-mode: multiply;isolation: isolate"/>
          <rect id="Rectángulo_925" data-name="Rectángulo 925" width="21.338" height="2.111" transform="translate(0 24.022)" fill="#4e4d60"/>
          <g id="Grupo_3010" data-name="Grupo 3010" transform="translate(1.108)">
            <rect id="Rectángulo_926" data-name="Rectángulo 926" width="19.121" height="24.021" transform="translate(0 0)" fill="#129bdb"/>
            <path id="Trazado_1443" data-name="Trazado 1443" d="M625.339,346.766v24.021H644.46V346.766Zm1.267,1.267h7.451v9.9h-7.451Zm0,21.487v-9.9h7.451v9.9Zm16.588,0h-7.451v-9.9h7.451Zm-7.451-11.586v-9.9h7.451v9.9Z" transform="translate(-625.339 -346.766)" fill="#e8e8e8"/>
          </g>
        </g>
      </g>
      <g id="Grupo_3013" data-name="Grupo 3013" transform="translate(513.203 317.202)">
        <ellipse id="Elipse_586" data-name="Elipse 586" cx="17.363" cy="17.363" rx="17.363" ry="17.363" fill="#e13851"/>
        <path id="Trazado_1444" data-name="Trazado 1444" d="M471.456,198.583h-7.23v-7.23h-6.4v7.23H450.6v6.4h7.23v7.23h6.4v-7.23h7.23Z" transform="translate(-443.663 -184.42)" fill="#fff"/>
      </g>
    </g>
  </g>
</svg>
