<svg xmlns="http://www.w3.org/2000/svg" width="290.205" height="362.712" viewBox="0 0 290.205 362.712">
  <g id="Grupo_3737" data-name="Grupo 3737" transform="translate(-1842.977 -605.526)">
    <ellipse id="Elipse_595" data-name="Elipse 595" cx="25.514" cy="10.761" rx="25.514" ry="10.761" transform="translate(1846.853 946.715)" fill="#d6e3ff"/>
    <g id="Grupo_3726" data-name="Grupo 3726" transform="translate(1936.327 605.526)">
      <path id="Trazado_2854" data-name="Trazado 2854" d="M2081.71,683.177a28.216,28.216,0,0,0-4.752-15.141l.073-.049c-2.717-4.2-6.414-7.547-10.487-9.075l-139.258-52.2a10.7,10.7,0,0,0-9.33.42l-8.441,5.339,2.667,272.188a.772.772,0,0,0,.066.367c.05,10.1,6.791,20.784,15.1,23.9l140.962,55.323,6.057-4.079c4.6-3.119,7.341-6.313,7.341-12.981Z" transform="translate(-1901.248 -605.355)" fill="#a1bfff"/>
      <path id="Trazado_2855" data-name="Trazado 2855" d="M1982.515,733.961s-76.252,166.929-76,156.572l3.8-278.224,9.027-5.449a10.742,10.742,0,0,1,9.437-.479L2068.176,659c4.076,1.539,7.728,4.939,10.366,9.22Z" transform="translate(-1902.828 -605.526)" fill="#b8cfff"/>
      <path id="Trazado_2856" data-name="Trazado 2856" d="M2059.6,963.877l-138.916-52.255c-8.342-3.128-14.762-13.93-14.762-24.066V622.3c0-10.135,6.587-15.788,14.928-12.661L2059.692,661.9c8.342,3.128,14.686,13.942,14.686,24.076v265.26C2074.378,961.374,2067.945,967,2059.6,963.877Z" transform="translate(-1903.14 -603.813)" fill="#d6e3ff"/>
      <path id="Trazado_2857" data-name="Trazado 2857" d="M2057.78,964.769l-138.916-52.256c-8.342-3.128-14.762-13.93-14.762-24.064V623.189c0-10.134,6.587-15.79,14.928-12.662l138.838,52.267c8.342,3.128,14.686,13.942,14.686,24.076l0,265.26C2072.552,962.265,2066.121,967.9,2057.78,964.769Z" transform="translate(-1904.102 -603.343)" fill="#292685"/>
      <path id="Trazado_2858" data-name="Trazado 2858" d="M2059.052,675.774a3.493,3.493,0,0,0-2.338-3.334l-139.029-52.119c-3.116-1.168-7.011,1.469-7.011,4.748V881.6a3.5,3.5,0,0,0,2.337,3.335l139.03,52.119c3.115,1.167,7.01-1.471,7.01-4.748l0-229.942h0Z" transform="translate(-1900.637 -597.874)" fill="#2d69ed"/>
    </g>
    <path id="Trazado_2859" data-name="Trazado 2859" d="M1986.338,711.506l-41.21,3.667,6.576-22.121c13.655-1.834,23.265,1.226,34.764,7.372Z" transform="translate(53.854 45.865)" fill="#292685"/>
    <path id="Trazado_2860" data-name="Trazado 2860" d="M1954.886,719.529l-2.254-38.418,22.884,7.809,7.343,28.624C1983.865,722.53,1954.886,730.052,1954.886,719.529Z" transform="translate(57.81 39.849)" fill="#f57e71"/>
    <path id="Trazado_2861" data-name="Trazado 2861" d="M1984.887,712.342s-3.065-2.1-10.112-4.551l-5.742-19.638s2.718,3.974-3.316,9.967l1.06,3.991a21.008,21.008,0,0,0,9.646,12.743l6.124,3.056Z" transform="translate(64.709 43.561)" fill="#e05f51"/>
    <path id="Trazado_2862" data-name="Trazado 2862" d="M2056.714,672.44l-60.376-22.635-78.652-29.484c-3.116-1.168-7.011,1.469-7.011,4.748V776.134S2058.16,672.982,2056.714,672.44Z" transform="translate(35.69 7.652)" fill="#3071ff"/>
    <g id="Grupo_3727" data-name="Grupo 3727" transform="translate(2075.24 848.637)">
      <path id="Trazado_2863" data-name="Trazado 2863" d="M1995.061,764.713" transform="translate(-1995.061 -764.713)" fill="none" stroke="#fff" stroke-miterlimit="10" stroke-width="1.538"/>
    </g>
    <path id="Trazado_2864" data-name="Trazado 2864" d="M1929.409,745.731l-.069-.029A.163.163,0,0,0,1929.409,745.731Z" transform="translate(45.531 73.901)" fill="#ff619a"/>
    <path id="Trazado_2865" data-name="Trazado 2865" d="M1955.013,696.284a38.673,38.673,0,0,0-18.4,6.824,19.9,19.9,0,0,0-6.674,6.642l-.014.018a13.35,13.35,0,0,0-1.966,3.549c-6.158,13.688-2.387,28.13-3.387,46.714.881,6.827,2.05,9.507,7.467,11.559l.25.107a.269.269,0,0,1-.235.095l12.819,5.3S1965.526,695.012,1955.013,696.284Z" transform="translate(42.888 47.84)" fill="#d6e3ff"/>
    <path id="Trazado_2866" data-name="Trazado 2866" d="M2024.41,784.29l-1.666-54.057a14.416,14.416,0,0,0-4.864-9.682,17.778,17.778,0,0,0-5.246-4.516c-9.033-5.154-8.742-5.784-21.382-9.656-11.517-3.528-34.858,77.162-34.913,77.153l33.992,14.046c.168.073.336.144.509.211l.9.374.081-.027C2003.693,801.887,2025.263,794.355,2024.41,784.29Z" transform="translate(59.764 53.111)" fill="#d6e3ff"/>
    <path id="Trazado_2867" data-name="Trazado 2867" d="M1958.128,719.921a1.334,1.334,0,0,1-2.01,1.332,3.647,3.647,0,0,1-2.01-3.088,1.333,1.333,0,0,1,2.01-1.332A3.651,3.651,0,0,1,1958.128,719.921Z" transform="translate(58.588 58.592)" fill="#292685"/>
    <path id="Trazado_2868" data-name="Trazado 2868" d="M1958.128,725.627a1.334,1.334,0,0,1-2.01,1.332,3.651,3.651,0,0,1-2.01-3.089,1.333,1.333,0,0,1,2.01-1.332A3.652,3.652,0,0,1,1958.128,725.627Z" transform="translate(58.588 61.599)" fill="#292685"/>
    <path id="Trazado_2869" data-name="Trazado 2869" d="M1958.128,731.331a1.334,1.334,0,0,1-2.01,1.332,3.649,3.649,0,0,1-2.01-3.09,1.333,1.333,0,0,1,2.01-1.332A3.652,3.652,0,0,1,1958.128,731.331Z" transform="translate(58.588 64.607)" fill="#292685"/>
    <path id="Trazado_2870" data-name="Trazado 2870" d="M1968.083,714.164s-11.164,1.255-13.254-17.123l-7.433-.131c-1.028.9-3.175.623-4.174,6.967a26.665,26.665,0,0,0,.618,11.06l2.76,10.293c.619,2.309,3.662,3.041,5.75,1.384Z" transform="translate(52.683 48.178)" fill="#598dff"/>
    <path id="Trazado_2871" data-name="Trazado 2871" d="M1967.1,708.622a10.816,10.816,0,0,1-5.219-1.174L1945.325,719.8l.174.635c.542,1.972,3.134,2.607,4.942,1.211Z" transform="translate(53.958 53.734)" fill="#fcfeff"/>
    <path id="Trazado_2872" data-name="Trazado 2872" d="M1955.761,713.58s12.521,2.691,25.1-15.884l9.7,9.182c.731,1.427.461,1.834-.817,3.316L1972.866,730.2c-1.956,2.266-5.579,2.454-6.846.354Z" transform="translate(59.46 48.592)" fill="#598dff"/>
    <path id="Trazado_2873" data-name="Trazado 2873" d="M1955.761,708.23a29.677,29.677,0,0,0,5.838-.385l11.023,16.676-.542.623c-1.685,1.933-4.777,2.106-5.893.328Z" transform="translate(59.46 53.943)" fill="#fcfeff"/>
    <path id="Trazado_2874" data-name="Trazado 2874" d="M1941.734,700.554c-3.972,16.862-11.419,36.37-9.133,47.759l8.308-1.888-5.445,15.1,1.6,15.474,6.811,2.842a474.873,474.873,0,0,1,17.344-86.327C1953.263,694.121,1950.729,695.884,1941.734,700.554Z" transform="translate(47.025 46.388)" fill="#fff"/>
    <path id="Trazado_2875" data-name="Trazado 2875" d="M2006.776,714.546l-23.911,43.3-11.894-.837.77,17.766-8.256,15.68-9.667-4.021a410.075,410.075,0,0,1,17.045-47.03c5.328-12.219,12.288-30.813,11.025-41.706C1989.865,700.68,2000.091,708.344,2006.776,714.546Z" transform="translate(58.435 48.592)" fill="#fff"/>
    <g id="Grupo_3728" data-name="Grupo 3728" transform="translate(2039.333 744.057)">
      <path id="Trazado_2876" data-name="Trazado 2876" d="M1972.2,699.144c3.951,4.015,7.361,8.671,6.288,13.78-.829,3.945-3.172,7.06-3.8,11.149-1.225,8.024,1.074,16.683,1.315,24.971.072,2.44,4.024,3.167,3.952.712-.321-10.987-3.363-21.576.912-31.358,3.319-7.595,1.007-14.4-5.88-21.39-1.92-1.952-4.722.177-2.792,2.136Z" transform="translate(-1971.55 -696.235)" fill="#292685"/>
    </g>
    <g id="Grupo_3729" data-name="Grupo 3729" transform="translate(2027.256 763.535)">
      <path id="Trazado_2877" data-name="Trazado 2877" d="M1980.871,709.672c-5.171,8.365-17.856,11.634-17.206,23.928.13,2.447,4.082,3.177,3.953.712-.588-11.1,11.95-14.446,16.674-22.085,1.187-1.92-2.231-4.479-3.421-2.555Z" transform="translate(-1963.641 -708.989)" fill="#292685"/>
    </g>
    <path id="Trazado_2878" data-name="Trazado 2878" d="M1981.743,734.339l-12.85,24c-3,5.054-5.15,7.648-12.656,3.045-.4.941-.792,1.888-1.133,2.86l1.153.735c5.448,3.471,11.956,2.512,14.485-2.213l15.4-28.76C1988.672,729.282,1984.225,729.7,1981.743,734.339Z" transform="translate(59.114 65.969)" fill="#817eed"/>
    <path id="Trazado_2879" data-name="Trazado 2879" d="M1954.61,749.409l4.074,2.092a2.52,2.52,0,0,1,1.387,2.932l-.2.527a1.91,1.91,0,0,1-2.784.79l-4.076-2.092a2.52,2.52,0,0,1-1.387-2.932l.2-.527A1.912,1.912,0,0,1,1954.61,749.409Z" transform="translate(57.221 75.705)" fill="#292685"/>
    <path id="Trazado_2880" data-name="Trazado 2880" d="M1967.449,731.654l.032,29.2c.247,6.364.878,10.083,9.075,11.819-.083,1.071-.177,2.137-.324,3.186l-1.271-.243c-6.007-1.153-10.941-6.732-10.947-12.482l-.038-34.993C1963.97,722.393,1967.443,726.014,1967.449,731.654Z" transform="translate(63.791 63.11)" fill="#817eed"/>
    <path id="Trazado_2881" data-name="Trazado 2881" d="M1977.1,757.262l-4.271-1.278a1.775,1.775,0,0,0-2.428,1.393l-.069.579a2.69,2.69,0,0,0,1.943,2.7l4.271,1.278a1.776,1.776,0,0,0,2.43-1.391l.069-.58A2.694,2.694,0,0,0,1977.1,757.262Z" transform="translate(67.132 79.268)" fill="#292685"/>
    <path id="Trazado_2882" data-name="Trazado 2882" d="M1974.626,733.865l2.12.991a1.764,1.764,0,0,0,2.564-.863l.325-1.022a2.406,2.406,0,0,0-1.419-2.728l-2.121-.991a1.764,1.764,0,0,0-2.564.864l-.325,1.02A2.407,2.407,0,0,0,1974.626,733.865Z" transform="translate(68.614 65.109)" fill="#292685"/>
    <path id="Trazado_2883" data-name="Trazado 2883" d="M1965.073,729.521l2.2.583a1.652,1.652,0,0,0,2.224-1.4l.09-1.106a2.55,2.55,0,0,0-1.911-2.5l-2.2-.583a1.652,1.652,0,0,0-2.224,1.4l-.09,1.107A2.552,2.552,0,0,0,1965.073,729.521Z" transform="translate(63.358 62.693)" fill="#292685"/>
    <path id="Trazado_2884" data-name="Trazado 2884" d="M1942.808,759.258c1.448-14.324,1.8-28.73,4.178-43.059,1.563-9.4,4.386-20.745,15.408-24.1,2.2-.671,1.924-4.007-.3-3.329-10.164,3.1-14.86,11.3-17.239,20.663-4.137,16.3-3.859,33.267-5.512,49.614-.22,2.175,3.242,2.4,3.464.215Z" transform="translate(50.8 43.836)" fill="#292685"/>
    <g id="Grupo_3730" data-name="Grupo 3730" transform="translate(1982.296 796.25)">
      <path id="Trazado_2885" data-name="Trazado 2885" d="M1934.538,738.912a8.881,8.881,0,0,0,6.546,11.028,9.553,9.553,0,0,0,11.5-6.512,8.88,8.88,0,0,0-6.546-11.028A9.553,9.553,0,0,0,1934.538,738.912Z" transform="translate(-1934.202 -729.514)" fill="#6763db"/>
      <ellipse id="Elipse_596" data-name="Elipse 596" cx="7.221" cy="6.962" rx="7.221" ry="6.962" transform="translate(0.766 4.589) rotate(-12.955)" fill="#fbfbff"/>
      <path id="Trazado_2886" data-name="Trazado 2886" d="M1935.956,735.648a6.84,6.84,0,0,0,5.043,8.494,7.356,7.356,0,0,0,8.859-5.015,6.84,6.84,0,0,0-5.043-8.494A7.358,7.358,0,0,0,1935.956,735.648Z" transform="translate(-1933.413 -730.411)" fill="#292685"/>
    </g>
    <g id="Grupo_3732" data-name="Grupo 3732" transform="translate(1993.303 682.58)">
      <g id="Grupo_3731" data-name="Grupo 3731">
        <path id="Trazado_2887" data-name="Trazado 2887" d="M1969.491,721.286l-8.818,2.81c-10.067,1.717-16.779-4.951-17.349-14.534l-1.885-31.644c-.57-9.583,7.2-18.829,17.268-20.545l6.536-1.115c10.069-1.717,18.772,4.719,19.344,14.3l1.883,31.644C1986.837,703.964,1979.56,719.569,1969.491,721.286Z" transform="translate(-1941.41 -655.98)" fill="#f57e71"/>
      </g>
    </g>
    <path id="Trazado_2888" data-name="Trazado 2888" d="M1970.7,682.848a33.5,33.5,0,0,1-23.508,3.913c-8.308-1.9-14.2-10.412-7.879-17.053,3.418-3.59,6.347-7.917,13.72-11.834,20.909-11.109,49.8-5.385,51.161,17.537,0,0,1.583,31.953-17.535,39.27l-.828-3.227s7.413-10.072-1.335-14.848c-2.645-1.445-4.513-5.231-4.354-9.094C1980.3,683.6,1974.336,680.685,1970.7,682.848Z" transform="translate(49.388 24.706)" fill="#292685"/>
    <ellipse id="Elipse_597" data-name="Elipse 597" cx="7.822" cy="5.29" rx="7.822" ry="5.29" transform="matrix(0.308, -0.951, 0.951, 0.308, 2029.789, 729.589)" fill="#f57e71"/>
    <path id="Trazado_2889" data-name="Trazado 2889" d="M1968.712,682.8s3.062-3.61,4.259-.742-3.137,6.533-3.137,6.533,2.133-2.883.55-4.062S1968.712,682.8,1968.712,682.8Z" transform="translate(66.288 39.763)" fill="#e05f51"/>
    <ellipse id="Elipse_598" data-name="Elipse 598" cx="4.212" cy="3.713" rx="4.212" ry="3.713" transform="translate(1986.345 802.281) rotate(-36.862)" fill="#6763db"/>
    <path id="Trazado_2890" data-name="Trazado 2890" d="M1953.727,702.146c.35.916,12.818-3.467,12.469-4.628,0,0-6.33,7.015-12.091,9.895Z" transform="translate(58.388 48.499)" fill="#e05f51"/>
    <path id="Trazado_2891" data-name="Trazado 2891" d="M1949.437,657.456c-4.849,3.3-7.324,6.73-10.122,9.669-6.321,6.64-.429,15.157,7.879,17.053a33.5,33.5,0,0,0,23.508-3.913,5.85,5.85,0,0,1,3.832-.664,12.759,12.759,0,0,0,.681-4.074C1975.214,665.677,1963.725,657.673,1949.437,657.456Z" transform="translate(49.388 27.378)" fill="#3834b5"/>
    <path id="Trazado_2892" data-name="Trazado 2892" d="M2035.858,797.747l-111.753-43.472c-2.073-.8-3.768.645-3.768,3.215v41.454c0,2.57,1.7,5.328,3.768,6.13l111.753,43.47c2.071.8,3.768-.645,3.768-3.213V803.876C2039.626,801.307,2037.929,798.549,2035.858,797.747Z" transform="translate(40.785 78.304)" fill="#d6e3ff"/>
    <ellipse id="Elipse_599" data-name="Elipse 599" cx="12.018" cy="18.04" rx="12.018" ry="18.04" transform="matrix(0.822, -0.57, 0.57, 0.822, 1965.155, 858.386)" fill="#2d69ed"/>
    <path id="Trazado_2893" data-name="Trazado 2893" d="M1969.849,783.631l-20-8.344v6.27l20,8.344Z" transform="translate(56.343 89.498)" fill="#2d69ed"/>
    <path id="Trazado_2894" data-name="Trazado 2894" d="M2008.868,807.058l-59.02-24.615v6.27l59.02,24.615Z" transform="translate(56.342 93.271)" fill="#2d69ed"/>
    <path id="Trazado_2895" data-name="Trazado 2895" d="M1857.329,765.17l-1.764,39.839s-6.3,7.832-5.04,20.692c.822,8.439,5.709,35.141,5.709,35.141l6.375.681,4.221-62.568Z" transform="translate(3.892 84.165)" fill="#f57e71"/>
    <path id="Trazado_2896" data-name="Trazado 2896" d="M1855.392,827.524a1.277,1.277,0,0,0-1.477.8c-.822,2.184-2.483,7.2-1.176,9.023,1.014,1.411,1.885,1.365,3.013,1.773a4.129,4.129,0,0,0,2.324.139l10.707-7.561c1.423-.37-.974-3.045-3.1-3.006a21.751,21.751,0,0,0-3.87.29Z" transform="translate(4.891 117.021)" fill="#292685"/>
    <path id="Trazado_2897" data-name="Trazado 2897" d="M1860.748,828.237l-.136,4.753a3.752,3.752,0,0,1-2.937-2.013,3.647,3.647,0,0,0-2.569-2.053l-1-.228.53-3.563Z" transform="translate(5.865 115.778)" fill="#f57e71"/>
    <path id="Trazado_2898" data-name="Trazado 2898" d="M1863.6,827.424a151.886,151.886,0,0,1-1.843-20.135,9.107,9.107,0,0,0-4.86-7.854,5.042,5.042,0,0,0-5.956.5s1.427-5.362,2.334-6.6,12.184,6.09,12.184,6.09Z" transform="translate(4.201 98.939)" fill="#e05f51"/>
    <path id="Trazado_2899" data-name="Trazado 2899" d="M1869,771.232l-3.625,38.774s-6.555,6.808-5.933,19.576c.408,8.378,3.94,35.2,3.94,35.2l6.229,1.539,6.336-58.815Z" transform="translate(8.657 87.361)" fill="#f57e71"/>
    <path id="Trazado_2900" data-name="Trazado 2900" d="M1863.241,831.321a1.275,1.275,0,0,0-1.507.736c-.908,2.15-2.772,7.1-1.538,8.968.956,1.452,1.828,1.44,2.94,1.894a4.13,4.13,0,0,0,2.317.232l15.183-4.934c1.437-.313,2.783-4.25-2.812-4.22a61.057,61.057,0,0,1-8.229-.965Z" transform="translate(8.862 119.016)" fill="#292685"/>
    <path id="Trazado_2901" data-name="Trazado 2901" d="M1868.6,833.476l-.429,3.548a3.755,3.755,0,0,1-2.853-2.129,3.648,3.648,0,0,0-2.483-2.155l-1-.267.674-3.538Z" transform="translate(9.947 117.781)" fill="#f57e71"/>
    <g id="Grupo_3734" data-name="Grupo 3734" transform="translate(1876.739 891.53)">
      <g id="Grupo_3733" data-name="Grupo 3733">
        <path id="Trazado_2902" data-name="Trazado 2902" d="M1870.375,792.8l2.868,6.049-6.355,53.678h0v.008l-.284,2.417h-.008l-.136,1.124a4.277,4.277,0,0,1-1.378-.486S1870.994,808.069,1870.375,792.8Z" transform="translate(-1865.084 -792.799)" fill="#e05f51"/>
      </g>
    </g>
    <path id="Trazado_2903" data-name="Trazado 2903" d="M1872.632,809.21s1.326-7.641-5.329-8.607a6.535,6.535,0,0,0-6.611,3.47s1.872-4.979,3.96-7.511,10.909.327,10.909.327Z" transform="translate(9.339 100.163)" fill="#e05f51"/>
    <path id="Trazado_2904" data-name="Trazado 2904" d="M1858.715,842.95l1.4-25.83-1.219-10.876-1.2,36.446Z" transform="translate(7.762 105.819)" fill="#e05f51"/>
    <path id="Trazado_2905" data-name="Trazado 2905" d="M1852.146,797.88l.037-11.512,13.465,3.017-.82,13.64Z" transform="translate(4.834 95.34)" fill="#e05f51"/>
    <path id="Trazado_2906" data-name="Trazado 2906" d="M1863.236,800.583l-1.014-10.308,12.92-.838-.39,11.183Z" transform="translate(10.146 96.958)" fill="#e05f51"/>
    <path id="Trazado_2907" data-name="Trazado 2907" d="M1884.557,754.577c-.055-4.07-8.369-10.429-18.759-10.619s-12.612,1.856-12.558,5.926c0,0-10.507,11.194-5.361,32.439,3.833,15.814,3.908,34.622,3.908,34.622s10.509,7.518,21.6,5.344c3.409-.667,12.378-1.631,11.7-7.1Z" transform="translate(1.837 72.975)" fill="#3071ff"/>
    <path id="Trazado_2908" data-name="Trazado 2908" d="M1873.57,753.734c-.028-2.019-1.972-6.792-5.347-8.184-1.469-.6-.99,75.048.105,74.642,3.125-1.158,6.277-1.8,5.774-5.851Z" transform="translate(12.824 73.819)" fill="#598dff"/>
    <path id="Trazado_2909" data-name="Trazado 2909" d="M1846.907,766.815s1.562,6.023,9.571,9.944l-7.279.55Z" transform="translate(2.072 85.032)" fill="#2455bf"/>
    <path id="Trazado_2910" data-name="Trazado 2910" d="M1869.574,754.117s-4.887-.379-3.578,7.764c1.892,11.781-.35,12.987-1.63,18.013-2.6,10.2,5.014,17.847,3.536,26.172s-2.56,9.388.9,9.973c.412.07,3.117-.91,3.49-1.631,2.761-5.318,2.1-28.786,1.619-30.807C1873.366,781.306,1869.574,754.117,1869.574,754.117Z" transform="translate(10.989 78.336)" fill="#598dff"/>
    <path id="Trazado_2911" data-name="Trazado 2911" d="M1844.782,727.842s2.286,18.606,8.392,17.3,19-16.6,19-16.6Z" transform="translate(0.952 64.485)" fill="#e05f51"/>
    <path id="Trazado_2912" data-name="Trazado 2912" d="M1851.807,731.744l-6.655-.393-.371-2.627,5.419.03Z" transform="translate(0.952 64.95)" fill="#f0f0f0"/>
    <path id="Trazado_2913" data-name="Trazado 2913" d="M1853.656,714.519s-8.977,5.506-8.558,13.658a53.422,53.422,0,0,1-.833,8.4c1.619,1.373,4.287,1.509,7.815.631Z" transform="translate(0.679 57.461)" fill="#2455bf"/>
    <path id="Trazado_2914" data-name="Trazado 2914" d="M1851.292,765.683s1.978-6.718,1.31-12.534a71.963,71.963,0,0,0-4.716-17.187c-.269-4.5-2.314-16.6,4.99-20.973l8.085-2.5,10.945,4.736s16.011,10.409,15.64,20.9c-.174,4.9-4.734,12.667-6.2,19.467l.912,14.9c-.286,10.135-36.158,10.667-33.9,1.608C1849.426,769.827,1850.521,768.426,1851.292,765.683Z" transform="translate(2.343 56.389)" fill="#3071ff"/>
    <path id="Trazado_2915" data-name="Trazado 2915" d="M1869.987,730.2c.813,5.816-2.974,5.5-3.244,10.257s2.028,7.347,0,10.851-3.245,7.521-1.217,11.393c1.428,2.726.417,8.842.076,11.593,5.628-.328,9.342-4.276,9.453-8.258l-2.343-13.531c1.465-6.8,6.023-14.568,6.2-19.469.127-3.558-1.636-7.108-4.018-10.246l-.983-.576A7.509,7.509,0,0,0,1869.987,730.2Z" transform="translate(11.338 61.518)" fill="#598dff"/>
    <path id="Trazado_2916" data-name="Trazado 2916" d="M1877.3,745.343c6.408-9.9,13.784-16.08,16.555-23.528l3.948,3.173s-11.555,32.259-17.242,30.688C1872.055,753.326,1877.3,745.343,1877.3,745.343Z" transform="translate(17.251 61.308)" fill="#f57e71"/>
    <path id="Trazado_2917" data-name="Trazado 2917" d="M1855.875,698.6s-11.3,10.692-12,16.726-.09,16.17-.09,16.17l3-9.808s-3.343-9.033,7.732-17.661S1855.875,698.6,1855.875,698.6Z" transform="translate(0.298 48.761)" fill="#292685"/>
    <path id="Trazado_2918" data-name="Trazado 2918" d="M1855.2,720.32l6.49-15.279,9.4.714-4.37,16.013Z" transform="translate(6.444 52.464)" fill="#d3d2d4"/>
    <path id="Trazado_2919" data-name="Trazado 2919" d="M1865.095,726.162s14.377,27.713,19.721,29.081,5.528-8.129,5.528-8.129l-17.6-24.278Z" transform="translate(11.661 61.846)" fill="#f57e71"/>
    <path id="Trazado_2920" data-name="Trazado 2920" d="M1868.345,723.243l-3.25,2.7s14.377,27.713,19.721,29.081a3.947,3.947,0,0,0,4.073-1.307C1883.521,751.007,1871.729,729.592,1868.345,723.243Z" transform="translate(11.661 62.061)" fill="#e05f51"/>
    <path id="Trazado_2921" data-name="Trazado 2921" d="M1856.174,694.365s-3.444,26.569,14.528,27.311c0,0,7.2,2.473,6.445-16.15S1863.69,689.7,1856.174,694.365Z" transform="translate(6.818 45.017)" fill="#f57e71"/>
    <path id="Trazado_2922" data-name="Trazado 2922" d="M1872.961,713.863a22.66,22.66,0,0,1-7.127-8.323l-7.553,4.73-2.87,9.026,11.7,1.164,1.416-6.4S1871.781,714.55,1872.961,713.863Z" transform="translate(6.555 52.728)" fill="#e05f51"/>
    <path id="Trazado_2923" data-name="Trazado 2923" d="M1880.586,731.6l1.784,2.867a12.388,12.388,0,0,1-9.742,6.353l-1.883-2.812Z" transform="translate(14.639 66.466)" fill="#f0f0f0"/>
    <path id="Trazado_2924" data-name="Trazado 2924" d="M1868.466,716.738a26.616,26.616,0,0,1,11.274,11.01c2.123,4.143,7.853,11.989,7.853,11.989-.45,4.51-3.717,6.358-11.311,8.056l-18.708-29.678Z" transform="translate(7.696 58.631)" fill="#598dff"/>
    <path id="Trazado_2925" data-name="Trazado 2925" d="M1873.348,719.28l-3.849-3.039-17.135-2.7s2.016,7.511,9.516,5.932C1866.225,718.562,1873.348,719.28,1873.348,719.28Z" transform="translate(4.949 56.948)" fill="#f0f0f0"/>
    <path id="Trazado_2926" data-name="Trazado 2926" d="M1870.8,711.436a33.26,33.26,0,0,1-6.578,17.628c-2.828,3.58-1.5,13.691-9.983,12.912s-17.357-11.532-5.577-27.888c3.441-4.777,8.123-17.36,8.123-17.36Z" transform="translate(0 48.082)" fill="#292685"/>
    <g id="Grupo_3735" data-name="Grupo 3735" transform="translate(1900.369 761.349)">
      <path id="Trazado_2927" data-name="Trazado 2927" d="M1890.006,729.825l-8.409-4.388a1.235,1.235,0,0,1-.487-1.541l6.057-15.623a.97.97,0,0,1,1.326-.62l8.351,4.243a1.237,1.237,0,0,1,.487,1.542l-6.029,15.548c-.151.393-.344.466-.73.611Z" transform="translate(-1880.314 -707.558)" fill="#598dff"/>
      <path id="Trazado_2928" data-name="Trazado 2928" d="M1889.261,714.97s-8.412,9.524-8.181,8.927l6.008-16.127.726-.169a.84.84,0,0,1,.649.053l8.351,4.243a1.064,1.064,0,0,1,.511.623Z" transform="translate(-1880.283 -707.558)" fill="#b2b1b3"/>
      <path id="Trazado_2929" data-name="Trazado 2929" d="M1889.443,729.789l-8.326-4.244a1.228,1.228,0,0,1-.463-1.541l6.057-15.623a.959.959,0,0,1,1.312-.622l8.322,4.244a1.227,1.227,0,0,1,.457,1.542l-6.057,15.623A.948.948,0,0,1,1889.443,729.789Z" transform="translate(-1880.557 -707.501)" fill="#292685"/>
      <path id="Trazado_2930" data-name="Trazado 2930" d="M1889.829,726.664l-8.2-4.166,5.3-13.777,8.149,4.142-5.4,13.446C1889.63,726.426,1889.941,726.721,1889.829,726.664Z" transform="translate(-1879.99 -706.945)" fill="#d6e3ff"/>
    </g>
    <path id="Trazado_2931" data-name="Trazado 2931" d="M1888.735,717.924c.31.617.07,2.408.235,3.426a31.474,31.474,0,0,0,1.356,5.2s-1.428,2.535-3.345.95-.53-5.929-.53-5.929l.589-5.031S1887.592,715.654,1888.735,717.924Z" transform="translate(22.664 58.436)" fill="#f57e71"/>
    <path id="Trazado_2932" data-name="Trazado 2932" d="M1895.191,719.709c-.176-.881-.374-1.857-.374-1.857a5.32,5.32,0,0,0-2.474-3.548l-1.744,4.5c-1.413,1.819-2.509,3.416-2.347,4.608l-.878.846a.5.5,0,0,0-.136.472l1.185,5.073a.5.5,0,0,0,.878.212c.27-.36.635-.9,1.052-1.524l.956,1.515s2.718-5.426,3.569-7.81c.008-.024.02-.052.032-.082A4.032,4.032,0,0,0,1895.191,719.709Z" transform="translate(23.327 57.348)" fill="#f57e71"/>
    <path id="Trazado_2933" data-name="Trazado 2933" d="M1847.183,730.892c2.613.881,2.841-2.569,3.894-5.693s2.188-12.966-.425-13.847-5.234,9.16-6.289,12.285S1844.571,730.01,1847.183,730.892Z" transform="translate(0.535 55.763)" fill="#292685"/>
    <path id="Trazado_2934" data-name="Trazado 2934" d="M1879.349,747.313l3.745-2.034c-1.7-3.926-4.563-10.325-8.737-15.715-5.073-6.55-11.659-11.349-17.3-11.824l3.248,19.379,4.886-4.505S1877.95,749.6,1879.349,747.313Z" transform="translate(7.42 59.159)" fill="#3071ff"/>
    <path id="Trazado_2935" data-name="Trazado 2935" d="M1869.322,718.029s-2.672-3.091-1.393-6.772,2.782-11.066.89-13.3-3.537,3.887-3.537,3.887l-.382,6.228-3.232,2.127.635,7.469Z" transform="translate(9.854 48.474)" fill="#e05f51"/>
    <path id="Trazado_2936" data-name="Trazado 2936" d="M1861.461,719.509l1.271-.127c1.135.26,2.992-2.4,3.367-3.505.661-1.947,3.067-2.979,3.682-5.919.244-1.165,2.639-.689,3.1-2.793.843-3.875,5.486-7.7,5.486-7.7s2.277-.835,1.694-2.778c-.852-2.838-2.543-2.239-4.429-3.809-4.21-3.5-19.009-4.782-22.853,4.863C1848.39,708.753,1861.461,719.509,1861.461,719.509Z" transform="translate(4.692 44.687)" fill="#292685"/>
    <path id="Trazado_2937" data-name="Trazado 2937" d="M1862.378,690.34s-.095,8.7,5.938,8.62,4.687-4.336,4.687-4.336-1.092-.619-2.088-1.2S1869.029,691,1862.378,690.34Z" transform="translate(10.228 44.714)" fill="#4d49c4"/>
    <path id="Trazado_2938" data-name="Trazado 2938" d="M1881.426,695.4a3.5,3.5,0,0,0-1.608-2.256c-.951.818-5.684,5.072-6.622,9.382-.567,2.6-3.53,2.013-3.832,3.454-.534,2.553-7.447,11.927-11.778,22.989-1.642,4.2-2.013,12.7-8.135,14.4a14.229,14.229,0,0,0,1.626.246c8.478.779,7.155-9.333,9.982-12.912a33.127,33.127,0,0,0,6.465-16.255c.726-1.859,3.025-2.914,3.627-5.783.244-1.165,2.639-.689,3.1-2.792.842-3.876,5.486-7.7,5.486-7.7S1882.009,697.343,1881.426,695.4Z" transform="translate(3.413 46.193)" fill="#4d49c4"/>
    <path id="Trazado_2939" data-name="Trazado 2939" d="M1867.139,705.357c-.01,1.837-1.2,3.32-2.654,3.311s-2.627-1.5-2.616-3.34,1.2-3.32,2.653-3.312S1867.149,703.52,1867.139,705.357Z" transform="translate(9.96 50.87)" fill="#e05f51"/>
    <path id="Trazado_2940" data-name="Trazado 2940" d="M1878.556,735.156l1.794,2.19-.325-4.055Z" transform="translate(18.758 67.358)" fill="#e05f51"/>
    <path id="Trazado_2941" data-name="Trazado 2941" d="M1943.379,788.759c1.191.474,2.717-.617,2.424-1.735a7.775,7.775,0,0,0-1.026-2.523h0a5.48,5.48,0,0,0-1.058-.913c-.357-.256-.825-.626-1.275-.984-.151-.121-.3-.24-.452-.357h0l-.91-.757-.4-.416a.786.786,0,0,1-.094-.1,1.243,1.243,0,0,1,0-.171l-.009-1.094a1.565,1.565,0,0,0,.733-1.153c.62.26.788-.454.866-.955.055-.356.14-1.248-.338-1.532.014-.057.026-.111.04-.159a3.877,3.877,0,0,0,.173-.944,2.41,2.41,0,0,0-.2-1.068.788.788,0,0,0-.148-.234.979.979,0,0,0-.064-.391,4.674,4.674,0,0,0-1.8-2.379,4.187,4.187,0,0,0-2.3-.683c-.55-.008-1.286.134-1.33.965a.7.7,0,0,0,.055.307.22.22,0,0,0-.243.108,1.521,1.521,0,0,0-.234.9,5.481,5.481,0,0,0,.136,1.068c.012.055.023.118.033.182-.594-.244-.513.808-.46,1.235.066.535.214,1.333.776,1.585a3.74,3.74,0,0,0,.16.715,3.379,3.379,0,0,0,.482.921.037.037,0,0,0,0,.014q0,.561.009,1.122a1.171,1.171,0,0,1,0,.13c-.008-.026-.1.047-.127.06l-.266.137v0l-.246-.008,0-.006-.058,0a4.445,4.445,0,0,0-.495,0h-.02c-.211.009-.425.026-.635.044-.38.032-.762,0-1.133.04a3.027,3.027,0,0,0-2.45,2.8,1.851,1.851,0,0,0,1.194,1.99Zm-1.332-11.165-.021.127C1942.032,777.68,1942.04,777.638,1942.048,777.593Z" transform="translate(46.653 86.825)" fill="#fff"/>
    <path id="Trazado_2942" data-name="Trazado 2942" d="M1957.4,673.047c1.7-18.047-10.2-38.675-26.573-46.073-7.532-3.4-14.695-3.407-20.4-.669l0-.006-.061.035a19.365,19.365,0,0,0-2.227,1.266l-13.4,8.181,6.885-1.168a28.5,28.5,0,0,0-3.514,11.642c-1.7,18.047,10.2,38.675,26.573,46.074a28.732,28.732,0,0,0,9.742,2.573l1.61,3.54,9.347-5.58c.518-.258,1.02-.548,1.512-.852l.168-.095-.006-.008C1952.693,688.34,1956.574,681.807,1957.4,673.047Z" transform="translate(27.286 9.913)" fill="#3834b5"/>
    <ellipse id="Elipse_600" data-name="Elipse 600" cx="26.854" cy="37.611" rx="26.854" ry="37.611" transform="translate(1900.934 657.354) rotate(-29.418)" fill="#63fff5"/>
    <g id="Grupo_3736" data-name="Grupo 3736" transform="translate(1923.433 658.652)">
      <path id="Trazado_2943" data-name="Trazado 2943" d="M1895.659,647.678l.037,6.68a1.53,1.53,0,0,0,1.042,1.443l31.395,11.652a2.362,2.362,0,0,0,3.086-2.026l-.037-6.68a1.529,1.529,0,0,0-1.041-1.443l-31.395-11.653A2.362,2.362,0,0,0,1895.659,647.678Z" transform="translate(-1895.659 -637.564)" fill="#fcfeff"/>
      <path id="Trazado_2944" data-name="Trazado 2944" d="M1904.939,675.7l6.628,2.46a2.362,2.362,0,0,0,3.087-2.027l-.176-31.793a1.531,1.531,0,0,0-1.042-1.445l-6.628-2.46a2.361,2.361,0,0,0-3.086,2.026l.176,31.793A1.531,1.531,0,0,0,1904.939,675.7Z" transform="translate(-1891.408 -640.313)" fill="#fcfeff"/>
    </g>
    <path id="Trazado_2945" data-name="Trazado 2945" d="M2052.441,714.14l-57.21-19.5V656.3l57.21,19.5Z" transform="translate(80.268 26.771)" fill="none" stroke="#fff" stroke-linecap="round" stroke-linejoin="round" stroke-width="0.946"/>
    <path id="Trazado_2946" data-name="Trazado 2946" d="M2040.217,675.18v-.008l-42.889-14.616V689.3l6.992,2.383v.008l42.889,14.616V677.563Z" transform="translate(81.374 29.012)" fill="#143a8f" opacity="0.42"/>
    <path id="Trazado_2947" data-name="Trazado 2947" d="M2001.694,681.409v19.518l-18.725,7.2" transform="translate(73.804 40.005)" fill="none" stroke="#fff" stroke-linecap="round" stroke-linejoin="round" stroke-width="0.946"/>
    <line id="Línea_127" data-name="Línea 127" x2="41.926" y2="13.78" transform="translate(2083.982 701.548)" fill="none" stroke="#fff" stroke-linecap="round" stroke-linejoin="round" stroke-width="0.946"/>
    <line id="Línea_128" data-name="Línea 128" x2="32.264" y2="10.604" transform="translate(2083.982 710.534)" fill="none" stroke="#fff" stroke-linecap="round" stroke-linejoin="round" stroke-width="0.946"/>
  </g>
</svg>
