<?xml version="1.0" encoding="utf-8"?>
<!-- Generator: Adobe Illustrator 22.1.0, SVG Export Plug-In . SVG Version: 6.00 Build 0)  -->
<svg version="1.1" id="Layer_1" xmlns="http://www.w3.org/2000/svg" xmlns:xlink="http://www.w3.org/1999/xlink" x="0px" y="0px"
	 width="752px" height="336px" viewBox="0 0 752 336" style="enable-background:new 0 0 752 336;" xml:space="preserve">
<style type="text/css">
	.st0{opacity:0.53;}
	.st1{fill:#5F50B5;}
</style>
<g id="Grupo_1514_1_" transform="translate(207.411 1562.531)" class="st0">
	<g>
		<path id="Trazado_8004_9_" class="st1" d="M42.6-1549.5c0,6.1-4.9,11-11,11s-11-4.9-11-11l0,0c0-6.1,4.9-11,11-11
			S42.6-1555.5,42.6-1549.5z"/>
		<path id="Trazado_8005_9_" class="st1" d="M486.7-1252.4c0,4-3.2,7.2-7.2,7.2s-7.2-3.2-7.2-7.2s3.2-7.2,7.2-7.2
			S486.7-1256.3,486.7-1252.4z"/>
		<path id="Trazado_8006_9_" class="st1" d="M544.6-1504.4c0,4-3.2,7.2-7.2,7.2s-7.2-3.2-7.2-7.2s3.2-7.2,7.2-7.2
			S544.6-1508.3,544.6-1504.4z"/>
		<path id="Trazado_8007_9_" class="st1" d="M-193-1359.8c0,4-3.2,7.2-7.2,7.2s-7.2-3.2-7.2-7.2s3.2-7.2,7.2-7.2
			S-193-1363.8-193-1359.8z"/>
		<path id="Trazado_8008_9_" class="st1" d="M-58.9-1233.7c0,4-3.2,7.2-7.2,7.2s-7.2-3.2-7.2-7.2s3.2-7.2,7.2-7.2
			S-58.9-1237.7-58.9-1233.7z"/>
		<path id="Trazado_8009_9_" class="st1" d="M-155.3-1278.6c0,6.1-4.9,11-11,11s-11-4.9-11-11s4.9-11,11-11
			S-155.3-1284.7-155.3-1278.6z"/>
		<path id="Trazado_8010_9_" class="st1" d="M400.5-1540.9c0,6.1-4.9,11-11,11s-11-4.9-11-11s4.9-11,11-11
			C395.5-1551.8,400.5-1546.9,400.5-1540.9L400.5-1540.9z"/>
		<path id="Trazado_8011_9_" class="st1" d="M270.7-1472.9c-4.5,0.1-8.6,2.9-10.5,7c-2.1,0.8-8.4,2.6-15,0.1c0,0.3,0,0.6,0,0.8
			c-0.4-3.8-1.1-7.5-2.2-11.2c2.5-2.1,5.6-3.2,8.8-3.4c2.1,2.1,5.2,2.7,8,1.7c4-1.5,6-5.9,4.5-9.9s-5.9-6-9.9-4.5
			c-2.8,1-4.7,3.6-5,6.5c-2.5,2-5.6,3.1-8.7,3.2c-2.7-6.3-6.4-12.1-11-17.1l0.6,0.6c2.5-6.5,8.1-10,10.1-11
			c4.3,1.4,9.1,0.2,12.2-3.1c4.5-4.7,4.3-12.2-0.4-16.7l0,0c-4.7-4.5-12.2-4.3-16.7,0.4c-3.1,3.3-4.1,8.1-2.4,12.3
			c-1,2.1-4.1,7.8-10.5,10.7l0.6,0.6c-2.3-1.9-4.8-3.7-7.4-5.2c-0.7-0.4-1.3-0.8-2-1.2c0.3-3.2,1.6-6.2,3.8-8.6c3,0,5.6-1.8,6.9-4.5
			c1.8-3.9,0.1-8.4-3.8-10.2l0,0c-3.9-1.8-8.4-0.1-10.2,3.8c-1.2,2.7-0.8,5.8,1.1,8.1c-0.3,3.1-1.7,6-3.8,8.3
			c-0.8-0.4-1.7-0.7-2.5-1c-2.3-0.9-4.6-1.6-7-2.2c-1.5-0.4-2.9-0.8-4.4-1.2c-2-0.5-4-1.1-6-1.5c-1.3-4.3-1.3-8.9,0-13.3
			c4.1-2.1,6.6-6.3,6.4-10.8c-0.2-6.5-5.6-11.6-12.1-11.5c-6.5,0.2-11.6,5.6-11.5,12.1c0.1,4.5,2.9,8.6,7,10.5
			c1.4,3.8,1.7,7.8,1,11.8c-4.5,0-8.9,0.9-13.1,2.6c-0.9-1.9-1.5-4-1.5-6.1c2.1-2.1,2.7-5.2,1.7-8c-1.5-4-5.9-6-9.9-4.5l0,0
			c-4,1.5-6,5.9-4.5,9.9c1,2.8,3.6,4.7,6.5,5c1.4,1.8,2.4,3.8,2.9,6c-0.2,0.1-0.4,0.2-0.6,0.3c-0.7,0.4-1.4,0.7-2.1,1.1
			c-1.2,0.7-2.4,1.4-3.5,2.1c-0.8,0.5-1.5,0.9-2.2,1.4c-3.3,2.2-6.4,4.8-9.3,7.5c-4-2.1-7.4-5.4-9.5-9.4c1.4-4.3,0.2-9.1-3.1-12.2
			c-4.7-4.5-12.2-4.3-16.7,0.4l0,0c-4.5,4.7-4.3,12.2,0.4,16.7l0,0c3.3,3.1,8.1,4.1,12.3,2.4c4.2,2,7.7,5.2,10,9.2
			c-2.4,3.1-4.5,6.5-6.2,10c-2.8-0.5-5.4-1.8-7.5-3.7c0-3-1.8-5.6-4.5-6.9c-3.9-1.8-8.4-0.1-10.2,3.8l0,0c-1.8,3.9-0.1,8.4,3.8,10.2
			l0,0c2.7,1.2,5.8,0.8,8.1-1.1c2.9,0.3,5.6,1.5,7.8,3.3c-0.7,1.8-1.3,3.6-1.8,5.4c-0.2,0.7-0.4,1.5-0.6,2.2c-1,4-1.5,8.1-1.7,12.2
			c-4.6,1.8-9.8,2-14.5,0.5c-2.1-4.1-6.3-6.6-10.8-6.4c-6.5,0.2-11.6,5.6-11.5,12.1l0,0c0.2,6.5,5.6,11.6,12.1,11.5l0,0
			c4.5-0.1,8.6-2.9,10.5-7c4.7-1.7,9.9-1.8,14.7-0.2c0.3,2.1,0.6,4.2,1,6.2c0.1,0.6,0.3,1.2,0.4,1.8l0,0l0,0
			c0.2,0.9,0.4,1.8,0.7,2.6c-2.4,1.9-5.4,3-8.5,3.1c-2.1-2.1-5.2-2.7-8-1.7c-4,1.5-6,5.9-4.5,9.9s5.9,6,9.9,4.5l0,0
			c2.8-1,4.7-3.6,5-6.5c2.3-1.9,5.1-3,8.1-3.2c0.4,1.2,0.8,2.3,1.3,3.4c1.3,3.1,3,6,5.3,8.5c0.6,0.7,1.2,1.3,1.8,1.9
			s1.2,1.1,1.8,1.6c0.5,0.5,1,1.2,0.8,1c-2.5,6.5-8.1,10-10.1,11c-4.3-1.4-9.1-0.2-12.2,3.1c-4.5,4.7-4.3,12.2,0.4,16.7
			c4.7,4.5,12.2,4.3,16.7-0.4c3.1-3.3,4.1-8.1,2.4-12.3c1-2.1,4.1-7.8,10.5-10.7c-0.2-0.2,5.6,4,8.9,5.8c-0.3,3.2-1.6,6.2-3.8,8.6
			c-3,0-5.6,1.8-6.9,4.5c-1.8,3.9-0.1,8.4,3.8,10.2c3.9,1.8,8.4,0.1,10.2-3.8l0,0c1.2-2.7,0.8-5.8-1.1-8.1c0.3-3.2,1.7-6.2,3.9-8.5
			c6.3,2.6,13,4,19.9,4.4h-0.8c2.9,6.4,1.3,12.8,0.7,14.9c-4.1,2.1-6.6,6.3-6.4,10.8c0.2,6.5,5.6,11.6,12.1,11.5l0,0
			c6.5-0.2,11.6-5.6,11.5-12.1l0,0c-0.1-4.5-2.9-8.6-7-10.5c-0.8-2.1-2.6-8.4-0.1-15h-0.8c3.8-0.4,7.5-1.1,11.2-2.2
			c2.1,2.5,3.2,5.6,3.4,8.8c-2.1,2.1-2.7,5.2-1.7,8c1.5,4,5.9,6,9.9,4.5l0,0c4-1.5,6-5.9,4.5-9.9c-1-2.8-3.6-4.7-6.5-5
			c-2-2.5-3.1-5.6-3.2-8.7c5-2.1,9.6-4.9,13.9-8.2c0.3-0.2,0.6-0.4,0.9-0.6c0.6-0.5,1.2-1,1.8-1.5c6.5,2.5,10,8.1,11,10.1
			c-1.4,4.3-0.2,9.1,3.1,12.2c4.7,4.5,12.2,4.3,16.7-0.4l0,0c4.5-4.7,4.3-12.2-0.4-16.7l0,0c-3.3-3.1-8.1-4.1-12.3-2.4
			c-2.1-1-7.8-4.1-10.7-10.5c-0.2,0.2-0.4,0.4-0.6,0.6c2.4-2.9,4.5-6.1,6.4-9.5c3.2,0.3,6.2,1.6,8.6,3.8c0,3,1.8,5.6,4.5,6.9
			c3.9,1.8,8.4,0.1,10.2-3.8c1.8-3.9,0.1-8.4-3.8-10.2l0,0c-2.7-1.2-5.8-0.8-8.1,1.1c-3.2-0.3-6.2-1.7-8.5-3.9
			c2.6-6.3,4-13,4.4-19.9c0,0.3,0,0.5,0,0.8c6.4-2.9,12.8-1.3,14.9-0.7c2.1,4.1,6.3,6.6,10.8,6.4c6.5-0.2,11.6-5.6,11.5-12.1
			C282.6-1467.9,277.2-1473,270.7-1472.9z"/>
		<path id="Trazado_8012_9_" class="st1" d="M117.8-1297.2c-2.7,0.1-5.1,1.7-6.2,4.2c-2.9,1.1-6,1.1-8.9,0.1c0,0.2,0,0.3,0,0.5
			c-0.2-2.2-0.7-4.5-1.3-6.6c1.5-1.2,3.3-1.9,5.2-2c1.3,1.2,3.1,1.6,4.8,1c2.4-0.9,3.5-3.5,2.7-5.9c-0.9-2.4-3.5-3.5-5.9-2.7
			c-1.6,0.6-2.8,2.1-2.9,3.9c-1.5,1.2-3.3,1.9-5.2,1.9c-1.6-3.7-3.8-7.2-6.5-10.2l0.4,0.3c1.2-2.8,3.3-5.1,6-6.5
			c2.6,0.8,5.4,0.1,7.2-1.8c2.7-2.8,2.5-7.2-0.3-9.9l0,0c-2.8-2.7-7.2-2.5-9.9,0.3c-1.9,2-2.4,4.8-1.4,7.3c-1.3,2.8-3.5,5-6.2,6.3
			l0.4,0.3c-1.4-1.1-2.9-2.2-4.4-3.1c-0.4-0.2-0.8-0.5-1.2-0.7c0.2-1.9,1-3.7,2.3-5.1c1.8,0,3.3-1.1,4.1-2.7c1-2.3,0-5-2.2-6
			c-2.3-1-5,0-6,2.2c-0.7,1.6-0.5,3.5,0.7,4.8c-0.2,1.8-1,3.6-2.2,4.9c-0.5-0.2-1-0.4-1.5-0.6c-1.3-0.5-2.7-0.9-4.1-1.3
			c-0.9-0.2-1.7-0.5-2.6-0.7c-1.2-0.3-2.4-0.6-3.5-0.9c-0.8-2.6-0.8-5.3,0-7.9c2.4-1.2,3.9-3.7,3.8-6.4c-0.1-3.9-3.3-6.9-7.2-6.8
			c-3.9,0.1-6.9,3.3-6.8,7.2c0.1,2.7,1.7,5.1,4.2,6.2c0.8,2.2,1,4.7,0.6,7c-2.7,0-5.3,0.5-7.7,1.6c-0.5-1.1-0.9-2.3-0.9-3.6
			c1.2-1.3,1.6-3.1,1-4.8c-0.9-2.4-3.5-3.5-5.9-2.7l0,0c-2.4,0.9-3.5,3.5-2.7,5.8c0.6,1.6,2.1,2.8,3.9,2.9c0.8,1,1.4,2.2,1.7,3.5
			c-0.1,0.1-0.2,0.1-0.4,0.2c-0.4,0.2-0.8,0.4-1.3,0.7c-0.7,0.4-1.4,0.8-2.1,1.2c-0.4,0.3-0.9,0.6-1.3,0.8c-2,1.3-3.8,2.8-5.5,4.5
			c-2.4-1.2-4.4-3.2-5.6-5.6c0.8-2.6,0.1-5.4-1.8-7.2c-2.8-2.7-7.2-2.5-9.9,0.3l0,0c-2.7,2.8-2.5,7.2,0.3,9.9c2,1.9,4.8,2.4,7.3,1.4
			c2.5,1.2,4.6,3.1,6,5.5c-1.4,1.9-2.6,3.8-3.7,5.9c-1.7-0.3-3.2-1.1-4.5-2.2c0-1.8-1.1-3.3-2.7-4.1c-2.3-1-5,0-6,2.2l0,0
			c-1,2.3,0,5,2.2,6c1.6,0.7,3.5,0.5,4.8-0.7c1.7,0.2,3.3,0.9,4.6,2c-0.4,1-0.8,2.1-1.1,3.2c-0.1,0.4-0.2,0.9-0.4,1.3
			c-0.6,2.4-0.9,4.8-1,7.2c-2.8,1.1-5.8,1.2-8.6,0.3c-1.2-2.4-3.7-3.9-6.4-3.8c-3.9,0.1-6.9,3.3-6.8,7.2c0.1,3.9,3.3,6.9,7.2,6.8
			c2.7-0.1,5.1-1.7,6.2-4.2c2.8-1,5.9-1.1,8.7-0.1c0.2,1.2,0.4,2.5,0.6,3.7c0.1,0.3,0.1,0.7,0.2,1l0,0l0,0c0.1,0.5,0.3,1,0.4,1.6
			c-1.4,1.1-3.2,1.8-5,1.8c-1.3-1.2-3.1-1.6-4.8-1c-2.4,0.9-3.5,3.5-2.7,5.8c0.9,2.4,3.5,3.5,5.9,2.7c1.6-0.6,2.8-2.1,2.9-3.9
			c1.4-1.1,3.1-1.8,4.8-1.9c0.2,0.7,0.5,1.4,0.8,2c0.7,1.8,1.8,3.5,3.1,5c0.4,0.4,0.7,0.8,1.1,1.1c0.3,0.3,0.7,0.7,1.1,1
			c0.3,0.3,0.6,0.7,0.5,0.6c-1.2,2.8-3.3,5.1-6,6.5c-2.6-0.8-5.4-0.1-7.2,1.8c-2.7,2.8-2.5,7.2,0.3,9.9c2.8,2.7,7.2,2.5,9.9-0.3
			c1.9-2,2.4-4.8,1.4-7.3c1.3-2.8,3.5-5,6.2-6.3c-0.1-0.1,3.3,2.4,5.3,3.4c-0.2,1.9-1,3.7-2.3,5.1c-1.8,0-3.3,1.1-4.1,2.7
			c-1,2.3,0,5,2.2,6c2.3,1,5,0,6-2.2l0,0c0.7-1.6,0.5-3.5-0.7-4.8c0.2-1.9,1-3.6,2.3-5c3.8,1.5,7.7,2.4,11.8,2.6h-0.5
			c1.2,2.8,1.3,5.9,0.4,8.9c-2.4,1.2-3.9,3.7-3.8,6.4c0.1,3.9,3.3,6.9,7.2,6.8s6.9-3.3,6.8-7.2c-0.1-2.7-1.7-5.1-4.2-6.2
			c-1.1-2.9-1.1-6-0.1-8.9h-0.5c2.2-0.2,4.5-0.7,6.6-1.3c1.2,1.5,1.9,3.3,2,5.2c-1.2,1.3-1.6,3.1-1,4.8c0.9,2.4,3.5,3.5,5.8,2.7l0,0
			c2.4-0.9,3.5-3.5,2.7-5.8l0,0c-0.6-1.6-2.1-2.8-3.9-2.9c-1.2-1.5-1.9-3.3-1.9-5.2c3-1.2,5.7-2.9,8.2-4.9c0.2-0.1,0.3-0.2,0.5-0.4
			c0.4-0.3,0.7-0.6,1.1-0.9c2.8,1.2,5.1,3.3,6.5,6c-0.8,2.6-0.1,5.4,1.8,7.2c2.8,2.7,7.2,2.5,9.9-0.3l0,0c2.7-2.8,2.5-7.2-0.3-9.9
			l0,0c-2-1.9-4.8-2.4-7.3-1.4c-2.8-1.3-5-3.5-6.3-6.2l-0.3,0.4c1.4-1.7,2.7-3.6,3.8-5.6c1.9,0.2,3.7,1,5.1,2.3
			c0,1.8,1.1,3.3,2.7,4.1c2.3,1,5,0,6-2.2c1-2.3,0-5-2.2-6c-1.6-0.7-3.5-0.5-4.8,0.7c-1.9-0.2-3.6-1-5-2.3c1.5-3.8,2.4-7.7,2.6-11.8
			c0,0.2,0,0.3,0,0.5c2.8-1.2,5.9-1.3,8.9-0.4c1.2,2.4,3.7,3.9,6.4,3.8c3.9-0.1,6.9-3.3,6.8-7.2
			C124.9-1294.3,121.7-1297.3,117.8-1297.2z"/>
		<path id="Trazado_8013_9_" class="st1" d="M498-1529.8c-0.8,0-1.6,0.5-1.9,1.3c-0.9,0.3-1.8,0.3-2.7,0c0,0.1,0,0.1,0,0.2
			c-0.1-0.7-0.2-1.4-0.4-2c0.5-0.4,1-0.6,1.6-0.6c0.4,0.4,1,0.5,1.5,0.3c0.7-0.3,1.1-1.1,0.8-1.8c-0.3-0.7-1.1-1.1-1.8-0.8
			c-0.5,0.2-0.9,0.7-0.9,1.2c-0.5,0.4-1,0.6-1.6,0.6c-0.5-1.1-1.2-2.2-2-3.1l0.1,0.1c0.4-0.9,1-1.6,1.8-2c0.8,0.3,1.7,0,2.2-0.6
			c0.8-0.9,0.8-2.2-0.1-3l0,0c-0.9-0.8-2.2-0.8-3,0.1c-0.6,0.6-0.7,1.5-0.4,2.3c-0.4,0.9-1.1,1.5-1.9,1.9l0.1,0.1
			c-0.4-0.3-0.9-0.7-1.4-0.9c-0.1-0.1-0.2-0.1-0.4-0.2c0.1-0.6,0.3-1.1,0.7-1.6c0.5,0,1-0.3,1.3-0.8c0.3-0.7,0-1.5-0.7-1.9
			c-0.7-0.3-1.5,0-1.9,0.7c-0.2,0.5-0.1,1.1,0.2,1.5c-0.1,0.6-0.3,1.1-0.7,1.5c-0.2-0.1-0.3-0.1-0.5-0.2c-0.4-0.2-0.8-0.3-1.3-0.4
			c-0.3-0.1-0.5-0.1-0.8-0.2c-0.4-0.1-0.7-0.2-1.1-0.3c-0.2-0.8-0.2-1.6,0-2.4c0.7-0.4,1.2-1.1,1.2-2c0-1.2-1-2.1-2.2-2.1l0,0
			c-1.2,0-2.1,1-2.1,2.2c0,0.8,0.5,1.6,1.3,1.9c0.2,0.7,0.3,1.4,0.2,2.2c-0.8,0-1.6,0.2-2.4,0.5c-0.2-0.3-0.3-0.7-0.3-1.1
			c0.4-0.4,0.5-1,0.3-1.5c-0.3-0.7-1.1-1.1-1.8-0.8c-0.7,0.3-1.1,1.1-0.8,1.8c0.2,0.5,0.7,0.9,1.2,0.9c0.3,0.3,0.4,0.7,0.5,1.1
			l-0.1,0.1c-0.1,0.1-0.3,0.1-0.4,0.2c-0.2,0.1-0.4,0.2-0.6,0.4c-0.1,0.1-0.3,0.2-0.4,0.3c-0.6,0.4-1.2,0.9-1.7,1.4
			c-0.7-0.4-1.3-1-1.7-1.7c0.3-0.8,0-1.7-0.6-2.2c-0.9-0.8-2.2-0.8-3,0.1s-0.8,2.2,0.1,3c0.6,0.6,1.5,0.7,2.3,0.4
			c0.8,0.4,1.4,0.9,1.8,1.7c-0.4,0.6-0.8,1.2-1.1,1.8c-0.5-0.1-1-0.3-1.4-0.7c0-0.5-0.3-1-0.8-1.3c-0.7-0.3-1.5,0-1.9,0.7
			c-0.3,0.7,0,1.5,0.7,1.9c0.5,0.2,1.1,0.1,1.5-0.2c0.5,0.1,1,0.3,1.4,0.6c-0.1,0.3-0.2,0.7-0.3,1c0,0.1-0.1,0.3-0.1,0.4
			c-0.2,0.7-0.3,1.5-0.3,2.2c-0.8,0.3-1.8,0.4-2.7,0.1c-0.4-0.7-1.1-1.2-2-1.2c-1.2,0-2.1,1-2.1,2.2s1,2.1,2.2,2.1
			c0.8,0,1.6-0.5,1.9-1.3c0.9-0.3,1.8-0.3,2.7,0c0,0.4,0.1,0.8,0.2,1.1c0,0.1,0,0.2,0.1,0.3l0,0l0,0c0,0.2,0.1,0.3,0.1,0.5
			c-0.4,0.3-1,0.5-1.5,0.6c-0.4-0.4-1-0.5-1.5-0.3c-0.7,0.3-1.1,1.1-0.8,1.8c0.3,0.7,1.1,1.1,1.8,0.8c0.5-0.2,0.9-0.7,0.9-1.2
			c0.4-0.3,0.9-0.5,1.5-0.6c0.1,0.2,0.2,0.4,0.2,0.6c0.2,0.6,0.6,1.1,1,1.5c0.1,0.1,0.2,0.2,0.3,0.3s0.2,0.2,0.3,0.3
			c0.1,0.1,0.2,0.2,0.1,0.2c-0.4,0.9-1,1.6-1.8,2c-0.8-0.3-1.7,0-2.2,0.6c-0.8,0.9-0.8,2.2,0.1,3l0,0c0.9,0.8,2.2,0.8,3-0.1l0,0
			c0.6-0.6,0.7-1.5,0.4-2.3c0.4-0.9,1.1-1.5,1.9-1.9c0,0,1,0.7,1.6,1.1c-0.1,0.6-0.3,1.1-0.7,1.6c-0.5,0-1,0.3-1.3,0.8
			c-0.3,0.7,0,1.5,0.7,1.9c0.7,0.3,1.5,0,1.9-0.7c0.2-0.5,0.1-1.1-0.2-1.5c0.1-0.6,0.3-1.1,0.7-1.5c1.2,0.5,2.4,0.7,3.6,0.8h-0.2
			c0.4,0.9,0.4,1.8,0.1,2.7c-0.7,0.4-1.2,1.1-1.2,2c0,1.2,1,2.1,2.2,2.1l0,0c1.2,0,2.1-1,2.1-2.2l0,0c0-0.8-0.5-1.6-1.3-1.9
			c-0.3-0.9-0.3-1.8,0-2.7h-0.2c0.7-0.1,1.4-0.2,2-0.4c0.4,0.5,0.6,1,0.6,1.6c-0.4,0.4-0.5,1-0.3,1.5c0.3,0.7,1.1,1.1,1.8,0.8
			c0.7-0.3,1.1-1.1,0.8-1.8c-0.2-0.5-0.7-0.9-1.2-0.9c-0.4-0.5-0.6-1-0.6-1.6c0.9-0.4,1.8-0.9,2.5-1.5c0.1,0,0.1-0.1,0.2-0.1
			c0.1-0.1,0.2-0.2,0.3-0.3c0.9,0.4,1.6,1,2,1.8c-0.3,0.8,0,1.7,0.6,2.2c0.9,0.8,2.2,0.8,3-0.1s0.8-2.2-0.1-3
			c-0.6-0.6-1.5-0.7-2.3-0.4c-0.9-0.4-1.5-1.1-1.9-1.9l-0.1,0.1c0.4-0.5,0.8-1.1,1.2-1.7c0.6,0.1,1.1,0.3,1.6,0.7
			c0,0.5,0.3,1,0.8,1.3c0.7,0.3,1.5,0,1.9-0.7c0.3-0.7,0-1.5-0.7-1.9c-0.5-0.2-1.1-0.1-1.5,0.2c-0.6-0.1-1.1-0.3-1.5-0.7
			c0.5-1.2,0.7-2.4,0.8-3.6v0.2c0.9-0.4,1.8-0.4,2.7-0.1c0.4,0.7,1.1,1.2,2,1.2c1.2,0,2.1-1,2.1-2.2
			C500.2-1528.9,499.2-1529.8,498-1529.8z"/>
		<path id="Trazado_8014_9_" class="st1" d="M-39.6-1499.7c-3.4,0.1-6.5,2.1-7.8,5.3c-3.6,1.3-7.6,1.4-11.2,0.1c0,0.2,0,0.4,0,0.6
			c-0.3-2.8-0.8-5.6-1.7-8.4c1.9-1.6,4.2-2.4,6.6-2.5c1.6,1.5,3.9,2,6,1.3c3-1.1,4.5-4.4,3.4-7.4l0,0c-1.1-3-4.4-4.5-7.4-3.4l0,0
			c-2.1,0.8-3.5,2.7-3.7,4.9c-1.9,1.5-4.2,2.4-6.6,2.4c-2-4.7-4.8-9.1-8.2-12.9l0.5,0.4c1.5-3.6,4.2-6.5,7.6-8.3
			c3.2,1.1,6.8,0.2,9.2-2.3c3.4-3.5,3.2-9.1-0.3-12.5s-9.1-3.2-12.5,0.3c-2.3,2.5-3.1,6.1-1.8,9.3c-1.6,3.5-4.4,6.3-7.9,8l0.5,0.4
			c-1.8-1.4-3.6-2.7-5.6-3.9c-0.5-0.3-1-0.6-1.5-0.9c0.2-2.4,1.2-4.7,2.9-6.4c2.2,0,4.2-1.3,5.1-3.4c1.3-2.9,0-6.3-2.8-7.6
			c-2.9-1.3-6.3,0-7.6,2.8c-0.9,2-0.6,4.4,0.8,6.1c-0.2,2.3-1.2,4.5-2.8,6.2c-0.6-0.3-1.2-0.5-1.9-0.8c-1.7-0.7-3.4-1.2-5.2-1.6
			c-1.1-0.3-2.2-0.6-3.3-0.9c-1.5-0.4-3-0.8-4.5-1.2c-1-3.2-1-6.7,0-9.9c3-1.5,4.9-4.7,4.8-8.1c-0.1-4.9-4.2-8.7-9.1-8.6
			s-8.7,4.2-8.6,9.1l0,0c0.1,3.4,2.1,6.5,5.3,7.8c1,2.8,1.3,5.9,0.8,8.9c-3.4,0-6.7,0.6-9.8,2c-0.7-1.4-1.1-3-1.2-4.6
			c1.5-1.6,2-3.9,1.3-6c-1.1-3-4.4-4.5-7.4-3.4c-3,1.1-4.5,4.4-3.4,7.4c0.8,2.1,2.7,3.5,4.9,3.7c1,1.3,1.8,2.8,2.2,4.5
			c-0.2,0.1-0.3,0.2-0.5,0.2c-0.5,0.3-1.1,0.6-1.6,0.8c-0.9,0.5-1.8,1-2.6,1.6c-0.6,0.3-1.1,0.7-1.7,1.1c-2.5,1.7-4.8,3.6-7,5.7
			c-3-1.6-5.5-4-7.1-7.1c1.1-3.2,0.2-6.8-2.3-9.2c-3.5-3.4-9.1-3.2-12.5,0.3s-3.2,9.1,0.3,12.5c2.5,2.3,6.1,3.1,9.3,1.8
			c3.2,1.5,5.8,3.9,7.5,6.9c-1.8,2.3-3.4,4.9-4.7,7.5c-2.1-0.4-4.1-1.3-5.6-2.8c0-2.2-1.3-4.2-3.4-5.1c-2.9-1.3-6.3,0-7.6,2.8l0,0
			c-1.3,2.9,0,6.3,2.8,7.6l0,0c2,0.9,4.4,0.6,6.1-0.8c2.1,0.2,4.2,1.1,5.8,2.5c-0.5,1.3-1,2.7-1.4,4.1c-0.2,0.5-0.3,1.1-0.4,1.7
			c-0.7,3-1.1,6-1.2,9.1c-3.5,1.4-7.3,1.5-10.9,0.4c-1.5-3-4.7-4.9-8.1-4.8c-4.9,0.1-8.7,4.2-8.6,9.1l0,0c0.1,4.9,4.2,8.7,9.1,8.6
			l0,0c3.4-0.1,6.5-2.1,7.8-5.3c3.6-1.3,7.5-1.4,11.1-0.1c0.2,1.6,0.4,3.1,0.8,4.7c0.1,0.4,0.2,0.9,0.3,1.3l0,0l0,0
			c0.2,0.7,0.3,1.3,0.5,2c-1.8,1.4-4.1,2.3-6.4,2.3c-1.6-1.5-3.9-2-6-1.3c-3,1.1-4.5,4.4-3.4,7.4s4.4,4.5,7.4,3.4l0,0
			c2.1-0.8,3.5-2.7,3.7-4.9c1.7-1.4,3.9-2.2,6.1-2.4c0.3,0.9,0.6,1.7,1,2.6c0.9,2.3,2.3,4.5,4,6.4c0.4,0.5,0.9,1,1.4,1.4
			c0.4,0.4,0.9,0.8,1.3,1.2c0.3,0.4,0.8,0.9,0.6,0.8c-1.5,3.6-4.2,6.5-7.6,8.3c-3.2-1.1-6.8-0.2-9.2,2.3c-3.4,3.5-3.2,9.1,0.3,12.5
			s9.1,3.2,12.5-0.3c2.3-2.5,3.1-6.1,1.8-9.3c1.6-3.5,4.4-6.3,7.9-8c-0.2-0.2,4.2,3,6.6,4.3c-0.2,2.4-1.2,4.7-2.9,6.4
			c-2.2,0-4.2,1.3-5.1,3.4c-1.3,2.9,0,6.3,2.8,7.6c2.9,1.3,6.3,0,7.6-2.8l0,0c0.9-2,0.6-4.4-0.8-6.1c0.2-2.4,1.3-4.6,2.9-6.4
			c4.8,1.9,9.8,3,14.9,3.3h-0.6c1.5,3.6,1.7,7.5,0.5,11.2c-3,1.5-4.9,4.7-4.8,8.1c0.1,4.9,4.2,8.7,9.1,8.6s8.7-4.2,8.6-9.1l0,0
			c-0.1-3.4-2.1-6.5-5.3-7.8c-1.3-3.6-1.4-7.6-0.1-11.2h-0.6c2.8-0.3,5.6-0.8,8.4-1.7c1.6,1.9,2.4,4.2,2.5,6.6c-1.5,1.6-2,3.9-1.3,6
			c1.1,3,4.4,4.5,7.4,3.4l0,0c3-1.1,4.5-4.4,3.4-7.4l0,0c-0.8-2.1-2.7-3.5-4.9-3.7c-1.5-1.9-2.4-4.2-2.4-6.6
			c3.7-1.6,7.2-3.7,10.4-6.2c0.2-0.2,0.4-0.3,0.6-0.5c0.5-0.4,0.9-0.7,1.4-1.1c3.6,1.5,6.5,4.2,8.3,7.6c-1.1,3.2-0.2,6.8,2.3,9.2
			c3.5,3.4,9.1,3.2,12.5-0.3l0,0c3.4-3.5,3.2-9.1-0.3-12.5c-2.5-2.3-6.1-3.1-9.3-1.8c-3.5-1.6-6.3-4.4-8-7.9l-0.4,0.5
			c1.8-2.2,3.4-4.6,4.8-7.1c2.4,0.2,4.7,1.2,6.4,2.9c0,2.2,1.3,4.2,3.4,5.1c2.9,1.3,6.3,0,7.6-2.8c1.3-2.9,0-6.3-2.8-7.6l0,0
			c-2-0.9-4.4-0.6-6.1,0.8c-2.4-0.2-4.6-1.3-6.4-2.9c1.9-4.8,3-9.8,3.3-14.9c0,0.2,0,0.4,0,0.6c3.6-1.5,7.5-1.7,11.2-0.5
			c1.5,3,4.7,4.9,8.1,4.8c4.9-0.1,8.7-4.2,8.6-9.1C-30.7-1496-34.8-1499.9-39.6-1499.7z"/>
	</g>
</g>
</svg>
