<svg xmlns="http://www.w3.org/2000/svg" xmlns:xlink="http://www.w3.org/1999/xlink" width="106.512" height="172.61" viewBox="0 0 106.512 172.61">
  <defs>
    <clipPath id="clip-path">
      <circle id="Elipse_675" data-name="Elipse 675" cx="24.89" cy="24.89" r="24.89" fill="#ff5442"/>
    </clipPath>
  </defs>
  <g id="Grupo_3557" data-name="Grupo 3557" transform="translate(-253.464 -84.014)">
    <path id="Trazado_3307" data-name="Trazado 3307" d="M534.123,440.415l.04,0-.039.005Z" transform="translate(-174.72 -221.87)" opacity="0.22"/>
    <path id="Trazado_3308" data-name="Trazado 3308" d="M535.379,440.4a1.352,1.352,0,0,0-.159-.021A1.352,1.352,0,0,1,535.379,440.4Z" transform="translate(-175.403 -221.849)" opacity="0.22"/>
    <path id="Trazado_3309" data-name="Trazado 3309" d="M534.693,440.374c-.052,0-.1,0-.159,0C534.589,440.374,534.642,440.373,534.693,440.374Z" transform="translate(-174.976 -221.846)" opacity="0.22"/>
    <path id="Trazado_3310" data-name="Trazado 3310" d="M414.4,370.625,389.8,362.877a8.994,8.994,0,0,0-9.96,2.741,8.495,8.495,0,0,0-1.631,5.68c0,.01,0,.021,0,.031.012.165.03.329.051.493.008.059.016.118.024.176.017.116.037.231.059.346.014.073.026.147.042.22.022.1.047.2.072.306q.059.24.13.477c.02.066.039.133.06.2.034.106.071.211.109.316.021.06.043.119.065.179.041.108.082.215.127.321.021.051.044.1.066.152a10.818,10.818,0,0,0,.526,1.046c.033.058.066.117.1.174.054.09.11.18.167.27q.067.105.136.209c.053.08.107.159.162.238.07.1.143.2.217.295.044.058.088.117.133.175q.157.2.324.394c.035.041.071.08.107.12.1.111.2.221.3.329a11.523,11.523,0,0,0,4.918,3.055l28.612,8.84a9.785,9.785,0,0,0,6.407-.121C412.256,382.7,413.44,373.772,414.4,370.625Z" transform="translate(-77.642 -173.304)" opacity="0.3"/>
    <path id="Trazado_3311" data-name="Trazado 3311" d="M338.366,256.624H261.311a7.825,7.825,0,0,1-7.847-8.034V91.855a7.664,7.664,0,0,1,7.847-7.841h77.055c4.53.009,8.569,3.413,8.559,7.841V248.59C346.916,253.018,342.9,256.633,338.366,256.624Z" transform="translate(0 0)" fill="#404040"/>
    <g id="Grupo_3508" data-name="Grupo 3508" transform="translate(253.464 84.014)">
      <path id="Trazado_3312" data-name="Trazado 3312" d="M254.263,248.592l.006-156.735a7.6,7.6,0,0,1,7.713-7.841h-.671a7.664,7.664,0,0,0-7.848,7.841V248.59a7.825,7.825,0,0,0,7.848,8.034h.613A7.761,7.761,0,0,1,254.263,248.592Z" transform="translate(-253.464 -84.014)" fill="#696969"/>
      <path id="Trazado_3313" data-name="Trazado 3313" d="M477.294,84.014h-.6c4.431.035,8.369,3.429,8.36,7.839l-.006,156.735a8.361,8.361,0,0,1-8.412,8.034l-.007,0h.665c4.531.009,8.549-3.606,8.559-8.034V91.855C485.863,87.427,481.825,84.023,477.294,84.014Z" transform="translate(-392.392 -84.014)" fill="#696969"/>
    </g>
    <g id="Grupo_3511" data-name="Grupo 3511" transform="translate(294.665 87.774)">
      <g id="Grupo_3509" data-name="Grupo 3509" transform="translate(3.476 0)">
        <path id="Trazado_3314" data-name="Trazado 3314" d="M374.525,94.035a1.954,1.954,0,1,1-2.376,1.41A1.953,1.953,0,0,1,374.525,94.035Z" transform="translate(-371.989 -93.974)" fill="#5a5a5a"/>
        <path id="Trazado_3315" data-name="Trazado 3315" d="M377.842,94.035a1.957,1.957,0,0,0-.585-.058,1.954,1.954,0,0,1,.006,3.9,1.954,1.954,0,0,0,.579-3.844Z" transform="translate(-375.207 -93.974)" fill="#767676"/>
        <path id="Trazado_3316" data-name="Trazado 3316" d="M373.495,97.821a1.954,1.954,0,0,1,.38-3.844,1.954,1.954,0,1,0,.006,3.9A1.937,1.937,0,0,1,373.495,97.821Z" transform="translate(-371.825 -93.974)" fill="#2c2c2c"/>
      </g>
      <g id="Grupo_3510" data-name="Grupo 3510" transform="translate(0 150.711)">
        <path id="Trazado_3317" data-name="Trazado 3317" d="M369.887,493.411a5.261,5.261,0,1,1-6.4,3.8A5.261,5.261,0,0,1,369.887,493.411Z" transform="translate(-363.057 -493.246)" fill="#5a5a5a"/>
        <path id="Trazado_3318" data-name="Trazado 3318" d="M378.819,493.411a5.267,5.267,0,0,0-1.577-.157,5.262,5.262,0,0,1,.017,10.51,5.261,5.261,0,0,0,1.559-10.353Z" transform="translate(-371.721 -493.246)" fill="#767676"/>
        <path id="Trazado_3319" data-name="Trazado 3319" d="M367.113,503.607a5.262,5.262,0,0,1,1.024-10.353,5.262,5.262,0,1,0,.017,10.51A5.282,5.282,0,0,1,367.113,503.607Z" transform="translate(-362.616 -493.247)" fill="#2c2c2c"/>
      </g>
    </g>
    <rect id="Rect치ngulo_990" data-name="Rect치ngulo 990" width="77.219" height="135.762" transform="translate(261.306 95.993)" fill="gray"/>
    <g id="Grupo_3514" data-name="Grupo 3514" transform="translate(269.621 181.996)">
      <g id="Grupo_3512" data-name="Grupo 3512" transform="translate(0 0.45)">
        <circle id="Elipse_671" data-name="Elipse 671" cx="10.757" cy="10.757" r="10.757" transform="translate(0 8.378) rotate(-22.918)" fill="#48db87"/>
        <path id="Trazado_3320" data-name="Trazado 3320" d="M329.727,377.528l-.456-3.064a.121.121,0,0,0-.1-.1l-2.886-.443a.121.121,0,0,0-.1.034l-1.535,1.536a.122.122,0,0,1-.172,0l-3.935-3.935a.122.122,0,0,1,0-.172l1.536-1.536a.121.121,0,0,0,.034-.1l-.443-2.885a.121.121,0,0,0-.1-.1c-.511-.075-3.066-.448-3.07-.444-1.605,1.605-.392,5.422,2.711,8.524s6.919,4.316,8.524,2.711l.009-.009Z" transform="translate(-309.662 -358.186)" fill="#f5f5f5"/>
      </g>
      <g id="Grupo_3513" data-name="Grupo 3513" transform="translate(31.943 0)">
        <circle id="Elipse_672" data-name="Elipse 672" cx="10.757" cy="10.757" r="10.757" transform="translate(0 10.098) rotate(-27.992)" fill="#ff644f"/>
        <path id="Trazado_3321" data-name="Trazado 3321" d="M398.4,378.319l2.489,1.844a.121.121,0,0,0,.144,0l2.354-1.727a.122.122,0,0,0,.05-.1v-2.172a.121.121,0,0,1,.121-.121h5.565a.122.122,0,0,1,.122.121v2.172a.122.122,0,0,0,.049.1l2.353,1.727a.121.121,0,0,0,.144,0c.415-.309,2.484-1.852,2.484-1.857,0-2.27-3.557-4.111-7.944-4.111s-7.944,1.84-7.944,4.111v.013Z" transform="translate(-391.785 -362.643)" fill="#f5f5f5"/>
      </g>
    </g>
    <g id="Grupo_3517" data-name="Grupo 3517" transform="translate(273.489 116.672)">
      <path id="Trazado_3323" data-name="Trazado 3323" d="M332.942,223.386a26.426,26.426,0,1,1,26.426-26.426A26.456,26.456,0,0,1,332.942,223.386Zm0-50.766a24.34,24.34,0,1,0,24.34,24.34A24.367,24.367,0,0,0,332.942,172.62Z" transform="translate(-306.516 -170.534)" fill="#dedede"/>
      <g id="Grupo_3534" data-name="Grupo 3534" transform="translate(1.804 1.284)">
        <g id="Grupo_3533" data-name="Grupo 3533" transform="translate(0 0)">
          <circle id="Elipse_674" data-name="Elipse 674" cx="24.89" cy="24.89" r="24.89" fill="#c9c9c9"/>
          <g id="Grupo_3532" data-name="Grupo 3532" clip-path="url(#clip-path)">
            <g id="Grupo_3531" data-name="Grupo 3531" transform="translate(3.048 2.955)">
              <path id="Trazado_3328" data-name="Trazado 3328" d="M354.883,410.226c-1.979-1.553-11.984-4.855-11.984-4.855l-1.394-1.6a23.812,23.812,0,0,1-2.058,2.217,26.283,26.283,0,0,1-3.307,2.422h0a26.273,26.273,0,0,1-3.307-2.422,23.8,23.8,0,0,1-2.058-2.217l-1.395,1.6s-10,3.3-11.983,4.855c-.988.775-2.273,6.159-3.1,11.354h43.686C357.156,416.386,355.871,411,354.883,410.226Z" transform="translate(-314.298 -374.5)" fill="#eceff1"/>
              <rect id="Rect치ngulo_991" data-name="Rect치ngulo 991" width="10.731" height="9.254" transform="translate(16.478 25.498)" fill="#ffb98c"/>
              <path id="Trazado_3329" data-name="Trazado 3329" d="M378.952,391.065v1.266a7.925,7.925,0,0,0,10.731,0v-1.267a7.792,7.792,0,0,1-10.731,0Z" transform="translate(-362.474 -365.034)" fill="#e59867"/>
              <path id="Trazado_3330" data-name="Trazado 3330" d="M388.214,406.7l.031-2.07-.746-.858a23.822,23.822,0,0,1-2.058,2.217,26.252,26.252,0,0,1-3.307,2.422,26.257,26.257,0,0,1-3.307-2.422,23.815,23.815,0,0,1-2.058-2.217l-.746.858h0l.031,2.07,4.676,14.886h2.806Z" transform="translate(-360.293 -374.5)" fill="#89c4f4"/>
              <path id="Trazado_3331" data-name="Trazado 3331" d="M393.169,427.214l1.688-2.636s-2.66-2.594-2.676-2.6h0c-.017.007-2.676,2.6-2.676,2.6l1.687,2.636L390.1,435.15h4.148Z" transform="translate(-370.334 -388.069)" fill="#34495e"/>
              <g id="Grupo_3522" data-name="Grupo 3522" transform="translate(10.63 30.125)">
                <g id="Grupo_3521" data-name="Grupo 3521" transform="translate(0 1.432)" style="mix-blend-mode: multiply;isolation: isolate">
                  <path id="Trazado_3332" data-name="Trazado 3332" d="M363.482,428.277l-6.565-8.478,1.826-1.933c-.428,0-2.74,0-2.74,0a8.963,8.963,0,0,1,2.438-5.113l.479.347a9.527,9.527,0,0,0-1.875,3.739c1.147.015,2.026.022,2.026.022l1.148.01-2.313,2.352,6.633,9.054Z" transform="translate(-356.004 -412.754)" fill="#90a4ae"/>
                </g>
                <path id="Trazado_3333" data-name="Trazado 3333" d="M362.384,409.2l-.031-2.07-2.665,1.432a10.986,10.986,0,0,0-2.012,4.564c1.431.02,2.638.031,2.638.031l-1.8,1.826,6.572,9.1h1.97Z" transform="translate(-357.25 -407.134)" fill="#cfd8dc"/>
              </g>
              <g id="Grupo_3524" data-name="Grupo 3524" transform="translate(23.246 30.125)">
                <g id="Grupo_3523" data-name="Grupo 3523" transform="translate(1.273 1.326)" style="mix-blend-mode: multiply;isolation: isolate">
                  <path id="Trazado_3334" data-name="Trazado 3334" d="M411.558,427.965l6.565-8.478-1.826-1.933c.428,0,2.74,0,2.74,0a9.609,9.609,0,0,0-2.422-5.219l-.5.454a9.532,9.532,0,0,1,1.875,3.739c-1.147.015-2.026.022-2.026.022l-1.148.01,2.313,2.352-6.633,9.054Z" transform="translate(-410.499 -412.335)" fill="#90a4ae"/>
                </g>
                <path id="Trazado_3335" data-name="Trazado 3335" d="M414.047,414.988l-1.8-1.826s1.207-.01,2.638-.031a12.175,12.175,0,0,0-2.029-4.7l-2.648-1.292-.031,2.07L405.5,424.09h1.97Z" transform="translate(-405.505 -407.134)" fill="#cfd8dc"/>
              </g>
              <g id="Grupo_3530" data-name="Grupo 3530" transform="translate(8.134 28.47)">
                <g id="Grupo_3525" data-name="Grupo 3525" transform="translate(0.247 0.797)" style="mix-blend-mode: multiply;isolation: isolate">
                  <path id="Trazado_3336" data-name="Trazado 3336" d="M426.872,412.16a5.229,5.229,0,0,0-1.072-2.76l-1.466-.715a5.363,5.363,0,0,1,1.93,3.477,3.213,3.213,0,0,0-2.893,3.194v2.191a.3.3,0,1,0,.609,0v-2.191a2.6,2.6,0,1,1,5.2,0v2.191a.3.3,0,1,0,.609,0v-2.191A3.213,3.213,0,0,0,426.872,412.16Z" transform="translate(-403.952 -407.431)" fill="#e0e0e0"/>
                  <path id="Trazado_3337" data-name="Trazado 3337" d="M433.813,446.021a.183.183,0,0,0-.183.183v3.814a2.32,2.32,0,0,1-2.317,2.318h-.81a.17.17,0,0,0-.041.008.4.4,0,0,0-.36-.227h-.522a.4.4,0,0,0,0,.8h.522a.4.4,0,0,0,.36-.227.164.164,0,0,0,.041.008h.81A2.686,2.686,0,0,0,434,450.017V446.2A.183.183,0,0,0,433.813,446.021Z" transform="translate(-408.281 -435.252)" fill="#e0e0e0"/>
                  <path id="Trazado_3338" data-name="Trazado 3338" d="M427.341,451.424a.169.169,0,0,0,.041-.008.4.4,0,0,0,.36.227h.522a.4.4,0,1,0,0-.8h-.522a.4.4,0,0,0-.36.227.18.18,0,0,0-.041-.008h-.81a2.32,2.32,0,0,1-2.317-2.318V446.2a.183.183,0,1,0-.365,0v2.537a2.686,2.686,0,0,0,2.683,2.683Z" transform="translate(-404.309 -435.252)" fill="#e0e0e0"/>
                  <path id="Trazado_3339" data-name="Trazado 3339" d="M354.535,404.625l-2.271,1.221c-2.669,2.643-5.008,6.859-5.08,15.735h.61c.1-11.68,4.2-15.064,7.678-17.582-.121-.145-.191-.232-.191-.232Z" transform="translate(-347.184 -403.767)" fill="#e0e0e0"/>
                </g>
                <g id="Grupo_3529" data-name="Grupo 3529">
                  <g id="Grupo_3526" data-name="Grupo 3526" transform="translate(19.421 5.268)">
                    <path id="Trazado_3340" data-name="Trazado 3340" d="M428.529,427.012a.3.3,0,0,1-.3-.3v-2.191a2.6,2.6,0,0,0-5.2,0v2.191a.3.3,0,0,1-.609,0v-2.191a3.21,3.21,0,1,1,6.419,0v2.191A.3.3,0,0,1,428.529,427.012Z" transform="translate(-422.414 -421.307)" fill="#212121"/>
                  </g>
                  <g id="Grupo_3527" data-name="Grupo 3527" transform="translate(22.043 11.323)">
                    <path id="Trazado_3341" data-name="Trazado 3341" d="M433.694,451.745h-.81a.183.183,0,0,1,0-.365h.81a2.32,2.32,0,0,0,2.318-2.317v-3.814a.183.183,0,0,1,.365,0v3.814A2.686,2.686,0,0,1,433.694,451.745Z" transform="translate(-432.702 -445.066)" fill="#757575"/>
                  </g>
                  <g id="Grupo_3528" data-name="Grupo 3528" transform="translate(19.543 11.323)">
                    <path id="Trazado_3342" data-name="Trazado 3342" d="M426.385,450.469h-.81a2.686,2.686,0,0,1-2.683-2.683v-2.537a.183.183,0,0,1,.365,0v2.537a2.32,2.32,0,0,0,2.318,2.318h.81a.183.183,0,1,1,0,.365Z" transform="translate(-422.892 -445.066)" fill="#757575"/>
                  </g>
                  <path id="Trazado_3343" data-name="Trazado 3343" d="M429.147,468.981h-.521a.4.4,0,0,0,0,.8h.521a.4.4,0,0,0,0-.8Z" transform="translate(-407.322 -451.563)" fill="#bdbdbd"/>
                  <path id="Trazado_3344" data-name="Trazado 3344" d="M437.519,463.974H437a.4.4,0,1,0,0,.8h.522a.4.4,0,1,0,0-.8Z" transform="translate(-413.56 -447.832)" fill="#bdbdbd"/>
                  <path id="Trazado_3345" data-name="Trazado 3345" d="M421.056,400.935v.721c2.1,1.377,3.251,3.061,3.251,4.776a.3.3,0,1,0,.609,0C424.916,404.412,423.545,402.462,421.056,400.935Z" transform="translate(-401.981 -400.86)" fill="#212121"/>
                  <path id="Trazado_3346" data-name="Trazado 3346" d="M354.558,401.387v-.748l-.009,0c-3.7,2.656-8.293,5.96-8.335,18.607h.61C346.864,407.311,351.04,403.926,354.558,401.387Z" transform="translate(-346.214 -400.639)" fill="#212121"/>
                </g>
              </g>
              <path id="Trazado_3347" data-name="Trazado 3347" d="M376.637,306.289c-.011-3.761-.543-7.163-2.364-9.632a10.329,10.329,0,0,0-15.609,0c-1.821,2.469-2.352,5.871-2.364,9.632-2.017-.526-1.644,4.293.81,5.534a20.119,20.119,0,0,0,2.168,4.342c1.93,2.428,4.383,4.04,7.191,4.04s5.261-1.613,7.191-4.04a20.118,20.118,0,0,0,2.168-4.342C378.281,310.582,378.654,305.763,376.637,306.289Z" transform="translate(-344.627 -292.034)" fill="#ffb98c"/>
              <path id="Trazado_3348" data-name="Trazado 3348" d="M379.037,294.962c-.9-2.946-4.978-5.918-9.05-6.019-10.607-.263-11.738,8.333-11.765,9.526a27.762,27.762,0,0,0,.477,4.723c.351.361.435.414,1.124,1.2a32.344,32.344,0,0,1-.029-4.573c.153-2.53.9-3.781,2.012-4.452,1.363-.822,4.085.848,6.955.819a16,16,0,0,0,5.964-1.458c3.2.96,3.434,6.893,3.285,9.6a7.6,7.6,0,0,1,1.024-1.134C379.414,299.663,379.9,297.767,379.037,294.962Z" transform="translate(-347.024 -288.937)" fill="#5d4037"/>
            </g>
          </g>
        </g>
      </g>
    </g>
    <path id="Trazado_3324" data-name="Trazado 3324" d="M258.9,472.44c-.27-.607-.5-1.081-.683-1.4a15.878,15.878,0,0,1,.747-2.1h0c-.284.353-.679,1.245-.941,1.488a3.025,3.025,0,0,1-2.1.97C256.9,471.439,258.242,471.358,258.9,472.44Z" transform="translate(-1.529 -239.626)" opacity="0.25"/>
    <path id="Trazado_3325" data-name="Trazado 3325" d="M255.861,475.445h0Z" transform="translate(-1.47 -243.679)" opacity="0.25"/>
    <path id="Trazado_3326" data-name="Trazado 3326" d="M264.445,479.673c.006.021.015.039.021.06l0,0Z" transform="translate(-6.836 -246.312)" opacity="0.25"/>
    <path id="Trazado_3327" data-name="Trazado 3327" d="M255.788,475.443h0Z" transform="translate(-1.432 -243.677)" opacity="0.25"/>
  </g>
</svg>
