<svg xmlns="http://www.w3.org/2000/svg" xmlns:xlink="http://www.w3.org/1999/xlink" width="435" height="198" viewBox="0 0 435 198">
  <defs>
    <clipPath id="clip-path">
      <circle id="Elipse_675" data-name="Elipse 675" cx="22.738" cy="22.738" r="22.738" fill="#ff5442"/>
    </clipPath>
  </defs>
  <g id="Grupo_3563" data-name="Grupo 3563" transform="translate(-117 -2718)">
    <rect id="Rectángulo_992" data-name="Rectángulo 992" width="435" height="198" transform="translate(117 2718)" fill="#efefef"/>
    <g id="Grupo_3538" data-name="Grupo 3538" transform="translate(38.253 2656.807)">
      <path id="Trazado_3307" data-name="Trazado 3307" d="M534.123,440.414l.037,0-.036,0Z" transform="translate(-183.883 -233.506)" opacity="0.22"/>
      <path id="Trazado_3308" data-name="Trazado 3308" d="M535.365,440.4a1.236,1.236,0,0,0-.145-.019A1.236,1.236,0,0,1,535.365,440.4Z" transform="translate(-184.602 -233.484)" opacity="0.22"/>
      <path id="Trazado_3309" data-name="Trazado 3309" d="M534.679,440.374c-.047,0-.1,0-.145,0C534.584,440.374,534.632,440.373,534.679,440.374Z" transform="translate(-184.153 -233.482)" opacity="0.22"/>
      <path id="Trazado_3310" data-name="Trazado 3310" d="M411.271,369.913l-22.479-7.077a8.216,8.216,0,0,0-9.1,2.5,7.76,7.76,0,0,0-1.49,5.188c0,.01,0,.019,0,.029.011.151.027.3.046.451.007.053.014.107.022.161.016.106.034.211.054.316.013.067.024.134.038.2.02.094.043.186.066.279q.054.219.118.436c.018.061.035.122.055.182.031.1.065.193.1.289.019.055.039.109.06.163.037.1.075.2.116.293.019.047.04.093.06.139a9.875,9.875,0,0,0,.48.956c.03.053.06.107.092.159.049.083.1.164.152.246q.061.1.125.191c.049.073.1.146.148.217.064.091.131.18.2.269.04.053.08.107.122.16q.144.183.3.36c.032.037.065.073.1.11.09.1.181.2.275.3a10.526,10.526,0,0,0,4.492,2.791l26.137,8.076a8.939,8.939,0,0,0,5.853-.111C409.309,380.941,410.391,372.788,411.271,369.913Z" transform="translate(-81.714 -182.393)" opacity="0.3"/>
      <path id="Trazado_3311" data-name="Trazado 3311" d="M331.023,241.694h-70.39a7.148,7.148,0,0,1-7.169-7.339V91.177a7,7,0,0,1,7.169-7.163h70.39c4.139.008,7.827,3.118,7.819,7.163V234.354C338.832,238.4,335.161,241.7,331.023,241.694Z" transform="translate(0 0)" fill="#404040"/>
      <g id="Grupo_3508" data-name="Grupo 3508" transform="translate(253.464 84.014)">
        <path id="Trazado_3312" data-name="Trazado 3312" d="M254.194,234.356,254.2,91.178a6.943,6.943,0,0,1,7.046-7.163h-.613a7,7,0,0,0-7.169,7.163V234.354a7.148,7.148,0,0,0,7.169,7.339h.56A7.09,7.09,0,0,1,254.194,234.356Z" transform="translate(-253.464 -84.014)" fill="#696969"/>
        <path id="Trazado_3313" data-name="Trazado 3313" d="M477.237,84.014h-.548c4.048.032,7.645,3.132,7.637,7.161l-.005,143.178a7.638,7.638,0,0,1-7.684,7.339h.6c4.139.009,7.81-3.294,7.819-7.339V91.177C485.064,87.132,481.375,84.022,477.237,84.014Z" transform="translate(-399.678 -84.014)" fill="#696969"/>
      </g>
      <g id="Grupo_3511" data-name="Grupo 3511" transform="translate(291.101 87.448)">
        <g id="Grupo_3509" data-name="Grupo 3509" transform="translate(3.175 0)">
          <path id="Trazado_3314" data-name="Trazado 3314" d="M374.314,94.03a1.785,1.785,0,1,1-2.17,1.288A1.784,1.784,0,0,1,374.314,94.03Z" transform="translate(-371.997 -93.974)" fill="#5a5a5a"/>
          <path id="Trazado_3315" data-name="Trazado 3315" d="M377.792,94.03a1.787,1.787,0,0,0-.535-.053,1.785,1.785,0,0,1,.006,3.565,1.785,1.785,0,0,0,.529-3.512Z" transform="translate(-375.384 -93.974)" fill="#767676"/>
          <path id="Trazado_3316" data-name="Trazado 3316" d="M373.35,97.489a1.785,1.785,0,0,1,.347-3.512,1.785,1.785,0,1,0,.006,3.565A1.769,1.769,0,0,1,373.35,97.489Z" transform="translate(-371.825 -93.974)" fill="#2c2c2c"/>
        </g>
        <g id="Grupo_3510" data-name="Grupo 3510" transform="translate(0 137.675)">
          <path id="Trazado_3317" data-name="Trazado 3317" d="M369.319,493.4a4.806,4.806,0,1,1-5.845,3.469A4.806,4.806,0,0,1,369.319,493.4Z" transform="translate(-363.08 -493.246)" fill="#5a5a5a"/>
          <path id="Trazado_3318" data-name="Trazado 3318" d="M378.682,493.4a4.811,4.811,0,0,0-1.44-.144,4.807,4.807,0,0,1,.016,9.6,4.806,4.806,0,0,0,1.424-9.457Z" transform="translate(-372.199 -493.246)" fill="#767676"/>
          <path id="Trazado_3319" data-name="Trazado 3319" d="M366.724,502.711a4.807,4.807,0,0,1,.935-9.457,4.807,4.807,0,1,0,.016,9.6A4.825,4.825,0,0,1,366.724,502.711Z" transform="translate(-362.616 -493.247)" fill="#2c2c2c"/>
        </g>
      </g>
      <rect id="Rectángulo_990" data-name="Rectángulo 990" width="70.54" height="124.019" transform="translate(260.628 94.957)" fill="gray"/>
      <g id="Grupo_3514" data-name="Grupo 3514" transform="translate(268.224 173.52)">
        <g id="Grupo_3512" data-name="Grupo 3512" transform="translate(0 0.412)">
          <circle id="Elipse_671" data-name="Elipse 671" cx="9.827" cy="9.827" r="9.827" transform="translate(0 7.653) rotate(-22.918)" fill="#48db87"/>
          <path id="Trazado_3320" data-name="Trazado 3320" d="M328.694,376.558l-.416-2.8a.111.111,0,0,0-.093-.094l-2.636-.4a.11.11,0,0,0-.1.031l-1.4,1.4a.111.111,0,0,1-.157,0l-3.6-3.6a.111.111,0,0,1,0-.157l1.4-1.4a.11.11,0,0,0,.031-.1l-.4-2.636a.11.11,0,0,0-.093-.093c-.467-.068-2.8-.409-2.8-.405-1.466,1.466-.358,4.953,2.476,7.787s6.32,3.943,7.787,2.477l.008-.008Z" transform="translate(-310.365 -358.888)" fill="#f5f5f5"/>
        </g>
        <g id="Grupo_3513" data-name="Grupo 3513" transform="translate(29.18 0)">
          <circle id="Elipse_672" data-name="Elipse 672" cx="9.827" cy="9.827" r="9.827" transform="translate(0 9.224) rotate(-27.992)" fill="#ff644f"/>
          <path id="Trazado_3321" data-name="Trazado 3321" d="M398.4,377.962l2.273,1.685a.11.11,0,0,0,.132,0l2.15-1.578a.112.112,0,0,0,.045-.09V376a.111.111,0,0,1,.111-.111H408.2a.111.111,0,0,1,.111.111v1.984a.111.111,0,0,0,.045.09l2.15,1.578a.11.11,0,0,0,.132,0c.379-.282,2.269-1.691,2.269-1.7,0-2.074-3.249-3.755-7.257-3.755s-7.257,1.681-7.257,3.755v.012Z" transform="translate(-392.356 -363.643)" fill="#f5f5f5"/>
        </g>
      </g>
      <g id="Grupo_3517" data-name="Grupo 3517" transform="translate(271.757 113.847)">
        <path id="Trazado_3323" data-name="Trazado 3323" d="M330.656,218.814a24.14,24.14,0,1,1,24.14-24.14A24.167,24.167,0,0,1,330.656,218.814Zm0-46.375a22.235,22.235,0,1,0,22.235,22.235A22.26,22.26,0,0,0,330.656,172.439Z" transform="translate(-306.516 -170.534)" fill="#dedede"/>
        <g id="Grupo_3534" data-name="Grupo 3534" transform="translate(1.648 1.173)">
          <g id="Grupo_3533" data-name="Grupo 3533" transform="translate(0 0)">
            <circle id="Elipse_674" data-name="Elipse 674" cx="22.738" cy="22.738" r="22.738" fill="#c9c9c9"/>
            <g id="Grupo_3532" data-name="Grupo 3532" clip-path="url(#clip-path)">
              <g id="Grupo_3531" data-name="Grupo 3531" transform="translate(2.784 2.7)">
                <path id="Trazado_3328" data-name="Trazado 3328" d="M351.373,409.668c-1.808-1.418-10.947-4.435-10.947-4.435l-1.274-1.466a21.752,21.752,0,0,1-1.88,2.026A24.009,24.009,0,0,1,334.252,408h0a24,24,0,0,1-3.021-2.212,21.744,21.744,0,0,1-1.88-2.026l-1.274,1.466s-9.139,3.017-10.947,4.435c-.9.708-2.076,5.626-2.832,10.372H354.2C353.449,415.294,352.275,410.376,351.373,409.668Z" transform="translate(-314.298 -377.032)" fill="#eceff1"/>
                <rect id="Rectángulo_991" data-name="Rectángulo 991" width="9.803" height="8.454" transform="translate(15.053 23.292)" fill="#ffb98c"/>
                <path id="Trazado_3329" data-name="Trazado 3329" d="M378.952,391.065v1.157a7.24,7.24,0,0,0,9.8,0v-1.157a7.118,7.118,0,0,1-9.8,0Z" transform="translate(-363.899 -367.286)" fill="#e59867"/>
                <path id="Trazado_3330" data-name="Trazado 3330" d="M387.16,406.442l.029-1.891-.681-.784a21.762,21.762,0,0,1-1.88,2.026A23.981,23.981,0,0,1,381.607,408a23.986,23.986,0,0,1-3.021-2.212,21.755,21.755,0,0,1-1.88-2.026l-.681.784h0l.029,1.891,4.271,13.6h2.563Z" transform="translate(-361.653 -377.032)" fill="#89c4f4"/>
                <path id="Trazado_3331" data-name="Trazado 3331" d="M392.852,426.761l1.542-2.408s-2.43-2.369-2.445-2.376h0c-.015.007-2.445,2.376-2.445,2.376l1.542,2.408-.99,7.249h3.789Z" transform="translate(-371.992 -391.002)" fill="#34495e"/>
                <g id="Grupo_3522" data-name="Grupo 3522" transform="translate(9.71 27.519)">
                  <g id="Grupo_3521" data-name="Grupo 3521" transform="translate(0 1.308)" style="mix-blend-mode: multiply;isolation: isolate">
                    <path id="Trazado_3332" data-name="Trazado 3332" d="M362.836,426.935l-6-7.745,1.668-1.766c-.391,0-2.5,0-2.5,0a8.188,8.188,0,0,1,2.227-4.67l.437.317a8.7,8.7,0,0,0-1.713,3.416c1.048.014,1.851.02,1.851.02l1.049.009-2.113,2.149,6.059,8.271Z" transform="translate(-356.004 -412.754)" fill="#90a4ae"/>
                  </g>
                  <path id="Trazado_3333" data-name="Trazado 3333" d="M361.977,409.025l-.029-1.891-2.434,1.308a10.036,10.036,0,0,0-1.838,4.17c1.307.019,2.41.028,2.41.028l-1.64,1.668,6,8.315h1.8Z" transform="translate(-357.287 -407.134)" fill="#cfd8dc"/>
                </g>
                <g id="Grupo_3524" data-name="Grupo 3524" transform="translate(21.235 27.519)">
                  <g id="Grupo_3523" data-name="Grupo 3523" transform="translate(1.163 1.211)" style="mix-blend-mode: multiply;isolation: isolate">
                    <path id="Trazado_3334" data-name="Trazado 3334" d="M411.466,426.613l6-7.745L415.8,417.1c.391,0,2.5,0,2.5,0a8.777,8.777,0,0,0-2.212-4.768l-.453.414a8.707,8.707,0,0,1,1.713,3.416c-1.048.014-1.851.02-1.851.02l-1.049.009,2.113,2.149-6.06,8.271Z" transform="translate(-410.499 -412.335)" fill="#90a4ae"/>
                  </g>
                  <path id="Trazado_3335" data-name="Trazado 3335" d="M413.308,414.308l-1.641-1.668s1.1-.009,2.41-.028a11.122,11.122,0,0,0-1.854-4.3l-2.419-1.18-.029,1.891-4.271,13.6h1.8Z" transform="translate(-405.505 -407.134)" fill="#cfd8dc"/>
                </g>
                <g id="Grupo_3530" data-name="Grupo 3530" transform="translate(7.431 26.007)">
                  <g id="Grupo_3525" data-name="Grupo 3525" transform="translate(0.226 0.728)" style="mix-blend-mode: multiply;isolation: isolate">
                    <path id="Trazado_3336" data-name="Trazado 3336" d="M426.569,411.859a4.777,4.777,0,0,0-.979-2.521l-1.339-.654a4.9,4.9,0,0,1,1.763,3.176,2.935,2.935,0,0,0-2.643,2.917v2a.278.278,0,1,0,.556,0v-2a2.376,2.376,0,1,1,4.751,0v2a.278.278,0,1,0,.556,0v-2A2.935,2.935,0,0,0,426.569,411.859Z" transform="translate(-405.632 -407.539)" fill="#e0e0e0"/>
                    <path id="Trazado_3337" data-name="Trazado 3337" d="M433.412,446.021a.167.167,0,0,0-.167.167v3.484a2.119,2.119,0,0,1-2.117,2.117h-.74a.155.155,0,0,0-.038.008.366.366,0,0,0-.329-.207h-.477a.366.366,0,0,0,0,.733h.477a.366.366,0,0,0,.329-.207.149.149,0,0,0,.038.008h.74a2.453,2.453,0,0,0,2.451-2.451v-3.484A.167.167,0,0,0,433.412,446.021Z" transform="translate(-410.089 -436.183)" fill="#e0e0e0"/>
                    <path id="Trazado_3338" data-name="Trazado 3338" d="M427.039,450.957a.156.156,0,0,0,.038-.008.365.365,0,0,0,.329.207h.477a.366.366,0,1,0,0-.733h-.477a.366.366,0,0,0-.329.207.165.165,0,0,0-.038-.008h-.74a2.119,2.119,0,0,1-2.117-2.117v-2.318a.167.167,0,1,0-.334,0v2.318a2.454,2.454,0,0,0,2.451,2.451Z" transform="translate(-405.999 -436.183)" fill="#e0e0e0"/>
                    <path id="Trazado_3339" data-name="Trazado 3339" d="M353.9,404.551l-2.074,1.115c-2.438,2.415-4.575,6.266-4.64,14.374h.557c.088-10.67,3.833-13.761,7.014-16.061-.111-.132-.175-.212-.175-.212Z" transform="translate(-347.184 -403.767)" fill="#e0e0e0"/>
                  </g>
                  <g id="Grupo_3529" data-name="Grupo 3529">
                    <g id="Grupo_3526" data-name="Grupo 3526" transform="translate(17.741 4.812)">
                      <path id="Trazado_3340" data-name="Trazado 3340" d="M428,426.519a.278.278,0,0,1-.278-.278v-2a2.376,2.376,0,0,0-4.752,0v2a.278.278,0,0,1-.556,0v-2a2.932,2.932,0,1,1,5.864,0v2A.278.278,0,0,1,428,426.519Z" transform="translate(-422.414 -421.307)" fill="#212121"/>
                    </g>
                    <g id="Grupo_3527" data-name="Grupo 3527" transform="translate(20.136 10.344)">
                      <path id="Trazado_3341" data-name="Trazado 3341" d="M433.609,451.167h-.74a.167.167,0,0,1,0-.334h.74a2.12,2.12,0,0,0,2.117-2.117v-3.484a.167.167,0,0,1,.334,0v3.484A2.454,2.454,0,0,1,433.609,451.167Z" transform="translate(-432.702 -445.066)" fill="#757575"/>
                    </g>
                    <g id="Grupo_3528" data-name="Grupo 3528" transform="translate(17.852 10.344)">
                      <path id="Trazado_3342" data-name="Trazado 3342" d="M426.083,450h-.74a2.454,2.454,0,0,1-2.451-2.451v-2.318a.167.167,0,0,1,.334,0v2.318a2.12,2.12,0,0,0,2.117,2.117h.74a.167.167,0,1,1,0,.334Z" transform="translate(-422.892 -445.066)" fill="#757575"/>
                    </g>
                    <path id="Trazado_3343" data-name="Trazado 3343" d="M429.067,468.981h-.476a.366.366,0,0,0,0,.733h.476a.366.366,0,1,0,0-.733Z" transform="translate(-409.13 -453.069)" fill="#bdbdbd"/>
                    <path id="Trazado_3344" data-name="Trazado 3344" d="M437.439,463.974h-.477a.366.366,0,1,0,0,.733h.477a.366.366,0,1,0,0-.733Z" transform="translate(-415.553 -449.228)" fill="#bdbdbd"/>
                    <path id="Trazado_3345" data-name="Trazado 3345" d="M421.056,400.935v.658c1.918,1.258,2.97,2.8,2.97,4.363a.278.278,0,1,0,.556,0C424.582,404.112,423.33,402.33,421.056,400.935Z" transform="translate(-403.631 -400.866)" fill="#212121"/>
                    <path id="Trazado_3346" data-name="Trazado 3346" d="M353.836,401.322v-.683l-.008,0c-3.377,2.426-7.576,5.444-7.614,17h.557C346.808,406.734,350.622,403.642,353.836,401.322Z" transform="translate(-346.214 -400.639)" fill="#212121"/>
                  </g>
                </g>
                <path id="Trazado_3347" data-name="Trazado 3347" d="M374.766,305.148c-.01-3.435-.5-6.543-2.159-8.8a9.436,9.436,0,0,0-14.259,0c-1.663,2.256-2.149,5.364-2.159,8.8-1.842-.48-1.5,3.922.74,5.055a18.379,18.379,0,0,0,1.98,3.967c1.763,2.218,4,3.691,6.569,3.691s4.806-1.473,6.569-3.691a18.378,18.378,0,0,0,1.98-3.967C376.268,309.069,376.608,304.667,374.766,305.148Z" transform="translate(-345.524 -292.126)" fill="#ffb98c"/>
                <path id="Trazado_3348" data-name="Trazado 3348" d="M377.236,294.441c-.824-2.691-4.547-5.406-8.267-5.5-9.69-.241-10.722,7.612-10.747,8.7a25.363,25.363,0,0,0,.436,4.314c.321.33.4.378,1.027,1.1a29.547,29.547,0,0,1-.026-4.177c.139-2.311.822-3.454,1.838-4.067,1.245-.751,3.732.775,6.353.748a14.618,14.618,0,0,0,5.448-1.332c2.922.877,3.137,6.3,3,8.767a6.942,6.942,0,0,1,.935-1.036C377.58,298.735,378.021,297,377.236,294.441Z" transform="translate(-347.992 -288.937)" fill="#5d4037"/>
              </g>
            </g>
          </g>
        </g>
      </g>
      <path id="Trazado_3324" data-name="Trazado 3324" d="M258.642,472.137c-.247-.554-.459-.987-.624-1.283a14.507,14.507,0,0,1,.682-1.92h0c-.259.322-.621,1.137-.86,1.36a2.763,2.763,0,0,1-1.92.886C256.82,471.222,258.041,471.148,258.642,472.137Z" transform="translate(-1.609 -252.194)" opacity="0.25"/>
      <path id="Trazado_3325" data-name="Trazado 3325" d="M255.858,475.445h0Z" transform="translate(-1.548 -256.459)" opacity="0.25"/>
      <path id="Trazado_3326" data-name="Trazado 3326" d="M264.445,479.673c.006.019.013.035.019.055l0,0Z" transform="translate(-7.195 -259.23)" opacity="0.25"/>
      <path id="Trazado_3327" data-name="Trazado 3327" d="M255.786,475.443h0Z" transform="translate(-1.508 -256.457)" opacity="0.25"/>
    </g>
    <g id="Grupo_3223" data-name="Grupo 3223" transform="translate(-285 419)">
      <g id="Elipse_568" data-name="Elipse 568" transform="translate(432 2327)" fill="#59bfd6" stroke="#227d84" stroke-width="3">
        <circle cx="20" cy="20" r="20" stroke="none"/>
        <circle cx="20" cy="20" r="18.5" fill="none"/>
      </g>
      <path id="Trazado_3105" data-name="Trazado 3105" d="M6.138-9.614a7.4,7.4,0,0,1,4.807,1.3A4.3,4.3,0,0,1,12.5-4.84a4.829,4.829,0,0,1-.7,2.563A4.917,4.917,0,0,1,9.647-.429,8.162,8.162,0,0,1,6.094.264a12.112,12.112,0,0,1-3.2-.429A8.245,8.245,0,0,1,.22-1.386L1.628-4.114A6.739,6.739,0,0,0,3.652-3.091a7.737,7.737,0,0,0,2.354.363,3.688,3.688,0,0,0,2.112-.528,1.688,1.688,0,0,0,.77-1.474,1.656,1.656,0,0,0-.8-1.5A5.541,5.541,0,0,0,5.3-6.732H1.364L2.156-15.4H11.55v2.86H5.126L4.884-9.614Z" transform="translate(446 2354)" fill="#fff"/>
    </g>
  </g>
</svg>
