<svg xmlns="http://www.w3.org/2000/svg" xmlns:xlink="http://www.w3.org/1999/xlink" width="435" height="198" viewBox="0 0 435 198">
  <defs>
    <clipPath id="clip-path">
      <rect id="background" width="152.631" height="163.214" fill="none"/>
    </clipPath>
    <linearGradient id="linear-gradient" x1="0.339" y1="0.214" x2="0.514" y2="0.524" gradientUnits="objectBoundingBox">
      <stop offset="0" stop-color="#f47b54"/>
      <stop offset="0.165" stop-color="#f68a63"/>
      <stop offset="0.445" stop-color="#f99e77"/>
      <stop offset="0.724" stop-color="#fbaa83"/>
      <stop offset="1" stop-color="#fcae88"/>
    </linearGradient>
    <linearGradient id="linear-gradient-2" x1="0.646" y1="1.043" x2="0.505" y2="0.251" gradientUnits="objectBoundingBox">
      <stop offset="0" stop-color="#36200b"/>
      <stop offset="0.052" stop-color="#37210b"/>
      <stop offset="0.529" stop-color="#43280d"/>
      <stop offset="1" stop-color="#482b0e"/>
    </linearGradient>
    <linearGradient id="linear-gradient-3" x1="0.488" y1="0.857" x2="0.541" y2="0.212" gradientUnits="objectBoundingBox">
      <stop offset="0" stop-color="#f47b54"/>
      <stop offset="0.055" stop-color="#f68760"/>
      <stop offset="0.132" stop-color="#f79069"/>
      <stop offset="0.244" stop-color="#f8936c"/>
      <stop offset="1" stop-color="#fcae88"/>
    </linearGradient>
  </defs>
  <g id="Grupo_3567" data-name="Grupo 3567" transform="translate(-117 -4165)">
    <rect id="Rect치ngulo_996" data-name="Rect치ngulo 996" width="435" height="198" transform="translate(117 4165)" fill="#efefef"/>
    <g id="Grupo_3555" data-name="Grupo 3555" transform="translate(-286 1861)">
      <g id="Elipse_568" data-name="Elipse 568" transform="translate(432 2327)" fill="#59bfd6" stroke="#227d84" stroke-width="3">
        <circle cx="20" cy="20" r="20" stroke="none"/>
        <circle cx="20" cy="20" r="18.5" fill="none"/>
      </g>
      <path id="Trazado_3103" data-name="Trazado 3103" d="M8.052-9.13a5.184,5.184,0,0,1,3.1,1.507,4.154,4.154,0,0,1,1.078,2.915,4.6,4.6,0,0,1-.7,2.475A4.9,4.9,0,0,1,9.383-.418,8.217,8.217,0,0,1,5.852.264a12.112,12.112,0,0,1-3.2-.429A8.245,8.245,0,0,1-.022-1.386L1.364-4.114A6.715,6.715,0,0,0,3.4-3.091a7.843,7.843,0,0,0,2.365.363,3.749,3.749,0,0,0,2.112-.517,1.661,1.661,0,0,0,.77-1.463Q8.646-6.6,5.764-6.6H4.136V-8.954L7.3-12.54H.748V-15.4h10.78v2.31Z" transform="translate(446 2354)" fill="#fff"/>
    </g>
    <path id="Trazado_3349" data-name="Trazado 3349" d="M3199,6243.6l17.938,17.938,41.681-41.681" transform="translate(-2781 -2021.021)" fill="none" stroke="#0e737b" stroke-linecap="round" stroke-width="10"/>
    <g id="doctor" transform="translate(258 4198.785)">
      <g id="Grupo_3086" data-name="Grupo 3086" clip-path="url(#clip-path)">
        <g id="Grupo_3085" data-name="Grupo 3085" transform="translate(0 5.98)">
          <path id="Trazado_1484" data-name="Trazado 1484" d="M349.686,1686.965l26.74,38.086,2.44,69.857-15.526,98.986H281.12l-12-111.358,4.313-51.172,22.2-44.4Z" transform="translate(-247.158 -1555.276)" fill="#abe2fc"/>
          <g id="Grupo_3059" data-name="Grupo 3059" transform="translate(32.964)">
            <g id="Grupo_3041" data-name="Grupo 3041" transform="translate(27.917 106.823)">
              <rect id="Rect치ngulo_936" data-name="Rect치ngulo 936" width="28.864" height="36.579" transform="translate(0)" fill="#fcae88"/>
              <path id="Trazado_1485" data-name="Trazado 1485" d="M746.026,1382.266v14.676a24.522,24.522,0,0,0,28.865,0v-14.676Z" transform="translate(-746.026 -1382.266)" fill="#b06d4d" opacity="0.32"/>
            </g>
            <g id="Grupo_3058" data-name="Grupo 3058">
              <path id="Trazado_1486" data-name="Trazado 1486" d="M1161.815,324.229s16.656,4.684,18.988,8.54c5,8.277-6.032,38.219-6.032,38.219Z" transform="translate(-1099.967 -303.749)" fill="#36200b"/>
              <path id="Trazado_1487" data-name="Trazado 1487" d="M454.592,305.793s-9.289-25.976-5.947-33.9c2.761-6.563,23.509-16.064,23.509-16.064l10.964,14.493Z" transform="translate(-444.331 -240.927)" fill="#36200b"/>
              <g id="Grupo_3044" data-name="Grupo 3044" transform="translate(0 57.223)">
                <g id="Grupo_3042" data-name="Grupo 3042" transform="translate(70.034)">
                  <path id="Trazado_1488" data-name="Trazado 1488" d="M1274.021,791.125a6.157,6.157,0,0,1-7.943,3.551h0a6.155,6.155,0,0,1-3.551-7.945l3.177-8.3a6.152,6.152,0,0,1,7.942-3.551h0a6.153,6.153,0,0,1,3.548,7.944Z" transform="translate(-1262.119 -774.474)" fill="#fcae88"/>
                  <path id="Trazado_1489" data-name="Trazado 1489" d="M1331.858,855.723s12.986-5.467,2.051,8.884C1333.909,861.876,1340.745,856.407,1331.858,855.723Z" transform="translate(-1326.167 -848.153)" fill="#f09261"/>
                </g>
                <g id="Grupo_3043" data-name="Grupo 3043">
                  <path id="Trazado_1490" data-name="Trazado 1490" d="M407.516,791.125a6.157,6.157,0,0,0,7.944,3.551h0a6.154,6.154,0,0,0,3.55-7.945l-3.177-8.3a6.148,6.148,0,0,0-7.939-3.551h0a6.156,6.156,0,0,0-3.55,7.944Z" transform="translate(-403.937 -774.474)" fill="#fcae88"/>
                  <path id="Trazado_1491" data-name="Trazado 1491" d="M451.52,855.723s-12.986-5.467-2.051,8.884C449.469,861.876,442.635,856.407,451.52,855.723Z" transform="translate(-441.731 -848.153)" fill="#f09261"/>
                </g>
              </g>
              <path id="Trazado_1492" data-name="Trazado 1492" d="M594.206,308.2a82.155,82.155,0,0,1-2.051,18.389h-.011c-.309,1.384-.668,2.729-1.054,4.048-.327,1.116-.678,2.208-1.051,3.267-5.531,15.9-16.04,26.642-28.108,26.642-11.857,0-22.23-10.382-27.833-25.854-.473-1.318-.917-2.663-1.319-4.056-.395-1.31-.74-2.655-1.058-4.029v-.019a81.431,81.431,0,0,1-2.062-18.389q0-3.545.291-6.969c.012-.138.012-.21.012-.21,2.16-25.506,15.654-45.154,31.969-45.154,16.369,0,29.9,19.775,31.987,45.41C594.1,303.543,594.206,305.858,594.206,308.2Z" transform="translate(-519.399 -240.969)" fill="url(#linear-gradient)"/>
              <path id="Trazado_1493" data-name="Trazado 1493" d="M728.731,308.2a82.454,82.454,0,0,1-2.05,18.391h-.01q-.47,2.076-1.055,4.05c-.3,1.011-.615,2-.946,2.967-.037.1-.07.2-.105.3-5.53,15.9-16.038,26.641-28.108,26.641-7.2,0-13.857-3.831-19.227-10.307,56.035-13.717,44.743-73.5,40.223-73.22-24.74,1.517-37.183-2.544-41.314-9.475,5.547-7.305,12.619-11.679,20.319-11.679,15.63,0,28.667,18.023,31.633,41.961.143,1.138.26,2.284.357,3.449C728.628,303.542,728.731,305.858,728.731,308.2Z" transform="translate(-653.924 -240.969)" fill="#f28a83" opacity="0.3"/>
              <path id="Trazado_1494" data-name="Trazado 1494" d="M581.9,770.05s-.463,37.848-5.889,33.767c-12.318-9.261-41.578-10.985-52.034.274-4.895,5.271-5.42-33.437-5.42-33.437-3.271,6.3-.51,27.929-.51,27.929h0c1.185,11.545,6.681,34.561,31.651,34.943h.047c24.256-.371,30.135-22.1,31.537-33.924h0S584.849,775.7,581.9,770.05Z" transform="translate(-507.73 -713.188)" fill="url(#linear-gradient-2)"/>
              <g id="Grupo_3045" data-name="Grupo 3045" transform="translate(19.596 41.297)">
                <path id="Trazado_1495" data-name="Trazado 1495" d="M972.086,590.638v2.437h-1.369V590.39l-4.281-.779s-1.229,5.707,0,6.932c3.372,3.37,19.061,0,19.061,0v-3.467Z" transform="translate(-939.625 -588.77)" fill="#482b0e"/>
                <path id="Trazado_1496" data-name="Trazado 1496" d="M657.468,580.343v2.439h1.371v-2.69l4.281-.776s1.229,5.708,0,6.932c-3.369,3.371-19.061,0-19.061,0v-3.466Z" transform="translate(-644.058 -579.316)" fill="#482b0e"/>
              </g>
              <path id="Trazado_1497" data-name="Trazado 1497" d="M1199.517,816.585c-.1-.209-.2-.414-.3-.611l0,0Q1199.366,816.265,1199.517,816.585Z" transform="translate(-1134.312 -755.36)" fill="#fcae88"/>
              <g id="Grupo_3051" data-name="Grupo 3051" transform="translate(46.38 54.683)">
                <g id="Grupo_3046" data-name="Grupo 3046" transform="translate(3.174)">
                  <path id="Trazado_1498" data-name="Trazado 1498" d="M1026.656,749.577l-.154-.3-.043.317-.734,5.087a13.956,13.956,0,0,1-14.57.206l.34-3.8v0c.341-.622.734-1.291,1.175-1.971v0c.131-.205.271-.414.411-.624.155-.231.324-.463.489-.691.067-.088.131-.174.193-.26l.2-.257c.33-.426.679-.839,1.045-1.227.141-.153.291-.305.439-.451s.3-.287.457-.426l.231-.2c.078-.066.155-.133.236-.195s.163-.127.243-.185c.159-.115.317-.226.48-.328a6.752,6.752,0,0,1,.746-.413,2.533,2.533,0,0,1,.236-.1,4.541,4.541,0,0,1,.532-.2c.087-.026.175-.049.26-.072l.151-.035a1.3,1.3,0,0,1,.141-.026,4.185,4.185,0,0,1,1.509,0,4.479,4.479,0,0,1,.493.12,6.117,6.117,0,0,1,2.545,1.647,9.849,9.849,0,0,1,.772.869,18.751,18.751,0,0,1,1.9,2.989c.038.078.08.155.122.235C1026.555,749.377,1026.605,749.477,1026.656,749.577Z" transform="translate(-1011.155 -743.349)" fill="#fff"/>
                  <path id="Trazado_1499" data-name="Trazado 1499" d="M1043.522,749.28l-.043.317c-6.428-10.906-13.792-.471-13.792-.471a.024.024,0,0,1,0-.012v0c.131-.205.271-.414.411-.624.156-.231.325-.463.489-.691.067-.088.131-.174.193-.26l.2-.257c.33-.426.679-.839,1.045-1.227.141-.153.291-.305.438-.451s.3-.287.457-.426l.231-.2c.078-.066.156-.133.236-.195s.163-.127.243-.185c.158-.115.317-.226.48-.328a6.736,6.736,0,0,1,.746-.413,2.511,2.511,0,0,1,.236-.1,4.544,4.544,0,0,1,.531-.2c.087-.026.175-.049.26-.072l.151-.035a1.292,1.292,0,0,1,.141-.026,4.185,4.185,0,0,1,1.509,0,4.466,4.466,0,0,1,.493.12,6.115,6.115,0,0,1,2.545,1.647,9.85,9.85,0,0,1,.772.869,18.751,18.751,0,0,1,1.9,2.989C1043.443,749.118,1043.484,749.2,1043.522,749.28Z" transform="translate(-1028.176 -743.349)" fill="#482b0e"/>
                </g>
                <g id="Grupo_3049" data-name="Grupo 3049" transform="translate(5.921 2.554)">
                  <g id="Grupo_3047" data-name="Grupo 3047">
                    <path id="Trazado_1500" data-name="Trazado 1500" d="M1053.756,779.869a4.494,4.494,0,1,1-3.707-5.162A4.5,4.5,0,0,1,1053.756,779.869Z" transform="translate(-1044.825 -774.647)" fill="#603913"/>
                    <path id="Trazado_1501" data-name="Trazado 1501" d="M1059.322,793.107a4.493,4.493,0,0,1-7.261,5.209,4.493,4.493,0,1,0,7.261-5.209Z" transform="translate(-1051.471 -791.601)" fill="#482b0e"/>
                  </g>
                  <g id="Grupo_3048" data-name="Grupo 3048" transform="translate(1.956 2.33)">
                    <path id="Trazado_1502" data-name="Trazado 1502" d="M1072.977,805.651a2.107,2.107,0,1,1-1.739-2.421A2.105,2.105,0,0,1,1072.977,805.651Z" transform="translate(-1068.789 -803.203)" fill="#231f20"/>
                    <path id="Trazado_1503" data-name="Trazado 1503" d="M1085.394,804.012a.543.543,0,1,1-.448-.624A.544.544,0,0,1,1085.394,804.012Z" transform="translate(-1083.047 -803.366)" fill="#fff"/>
                  </g>
                </g>
                <g id="Grupo_3050" data-name="Grupo 3050" transform="translate(0 9.573)">
                  <path id="Trazado_1504" data-name="Trazado 1504" d="M972.267,861.3l20.987-.638S987.437,870.077,972.267,861.3Z" transform="translate(-972.267 -860.657)" fill="#fba983"/>
                  <path id="Trazado_1505" data-name="Trazado 1505" d="M1025.826,861.823c-3.514,2.076-14.671.515-14.671.515s.274-.035.754-.093Z" transform="translate(-1007.981 -861.728)" fill="#f28a83" opacity="0.3"/>
                </g>
              </g>
              <g id="Grupo_3057" data-name="Grupo 3057" transform="translate(18.552 54.683)">
                <g id="Grupo_3052" data-name="Grupo 3052" transform="translate(2.312)">
                  <path id="Trazado_1506" data-name="Trazado 1506" d="M659.6,749.577c.053-.1.1-.2.154-.3l.042.317.734,5.087a13.956,13.956,0,0,0,14.57.206l-.341-3.8v0c-.338-.622-.732-1.291-1.173-1.971v0c-.134-.205-.273-.414-.411-.624-.157-.231-.325-.463-.49-.691-.066-.088-.131-.174-.194-.26s-.131-.172-.2-.257c-.334-.426-.681-.839-1.043-1.227-.145-.153-.294-.305-.442-.451s-.3-.287-.457-.426l-.231-.2c-.076-.066-.154-.133-.236-.195s-.161-.127-.244-.185c-.158-.115-.317-.226-.478-.328a6.743,6.743,0,0,0-.746-.413c-.078-.038-.155-.074-.236-.1a4.581,4.581,0,0,0-.535-.2c-.085-.026-.172-.049-.259-.072l-.151-.035a1.278,1.278,0,0,0-.142-.026,4.184,4.184,0,0,0-1.509,0,4.585,4.585,0,0,0-.493.12,6.1,6.1,0,0,0-2.543,1.647,9.918,9.918,0,0,0-.774.869,18.576,18.576,0,0,0-1.9,2.989l-.125.235C659.7,749.377,659.656,749.477,659.6,749.577Z" transform="translate(-659.604 -743.349)" fill="#fff"/>
                  <path id="Trazado_1507" data-name="Trazado 1507" d="M661.489,749.28l.043.317c6.43-10.906,13.793-.471,13.793-.471a.024.024,0,0,0,0-.012v0c-.134-.205-.273-.414-.411-.624-.157-.231-.325-.463-.49-.691-.066-.088-.131-.174-.194-.26s-.131-.172-.2-.257c-.334-.426-.681-.839-1.043-1.227-.145-.153-.294-.305-.442-.451s-.3-.287-.457-.426l-.231-.2c-.076-.066-.154-.133-.236-.195s-.161-.127-.244-.185c-.158-.115-.317-.226-.478-.328a6.754,6.754,0,0,0-.746-.413c-.078-.038-.155-.074-.236-.1a4.571,4.571,0,0,0-.534-.2c-.085-.026-.172-.049-.259-.072l-.151-.035a1.284,1.284,0,0,0-.142-.026,4.184,4.184,0,0,0-1.509,0,4.588,4.588,0,0,0-.494.12,6.1,6.1,0,0,0-2.543,1.647,9.908,9.908,0,0,0-.774.869,18.559,18.559,0,0,0-1.9,2.989C661.567,749.118,661.529,749.2,661.489,749.28Z" transform="translate(-661.335 -743.349)" fill="#482b0e"/>
                </g>
                <g id="Grupo_3055" data-name="Grupo 3055" transform="translate(6.075 2.554)">
                  <g id="Grupo_3053" data-name="Grupo 3053">
                    <path id="Trazado_1508" data-name="Trazado 1508" d="M705.784,779.869a4.493,4.493,0,1,0,3.707-5.162A4.494,4.494,0,0,0,705.784,779.869Z" transform="translate(-705.723 -774.647)" fill="#603913"/>
                    <path id="Trazado_1509" data-name="Trazado 1509" d="M706.862,793.107a4.492,4.492,0,0,0,7.26,5.209,4.493,4.493,0,1,1-7.26-5.209Z" transform="translate(-705.721 -791.601)" fill="#482b0e"/>
                  </g>
                  <g id="Grupo_3054" data-name="Grupo 3054" transform="translate(2.819 2.33)">
                    <path id="Trazado_1510" data-name="Trazado 1510" d="M740.3,805.651a2.108,2.108,0,1,0,1.738-2.421A2.105,2.105,0,0,0,740.3,805.651Z" transform="translate(-740.269 -803.203)" fill="#231f20"/>
                    <path id="Trazado_1511" data-name="Trazado 1511" d="M763.059,804.012a.545.545,0,1,0,.451-.624A.547.547,0,0,0,763.059,804.012Z" transform="translate(-761.193 -803.366)" fill="#fff"/>
                  </g>
                </g>
                <g id="Grupo_3056" data-name="Grupo 3056" transform="translate(0 9.573)">
                  <path id="Trazado_1512" data-name="Trazado 1512" d="M652.262,861.3l-20.988-.638S637.09,870.077,652.262,861.3Z" transform="translate(-631.274 -860.657)" fill="#fba983"/>
                  <path id="Trazado_1513" data-name="Trazado 1513" d="M669.8,861.823c3.513,2.076,14.669.515,14.669.515s-.274-.035-.752-.093Z" transform="translate(-666.651 -861.728)" fill="#f28a83" opacity="0.3"/>
                </g>
              </g>
              <path id="Trazado_1514" data-name="Trazado 1514" d="M857.937,732.728c.236-7.057-3.827-14.325-3.827-14.325s-4.274,7.268-4.037,14.325c-2.961,6.989-4.153,14.932,2.348,19.471a2.6,2.6,0,0,0,1.552.534h.064a2.612,2.612,0,0,0,1.554-.534C862.088,747.661,860.9,739.717,857.937,732.728Z" transform="translate(-811.472 -665.756)" fill="url(#linear-gradient-3)"/>
              <path id="Trazado_1515" data-name="Trazado 1515" d="M443.62,112.518s-66.812-4.782-1.2-39.246c-5.329,13.989,34.132-15.554,48.658,26.847C485.677,108.816,467.046,115.687,443.62,112.518Z" transform="translate(-412.78 -73.272)" fill="#482b0e"/>
              <path id="Trazado_1516" data-name="Trazado 1516" d="M797.459,1213.374c0-3.464,4.692-.779,10.479-.772s10.484-2.667,10.478.8-4.7,9.424-10.49,9.418S797.453,1216.84,797.459,1213.374Z" transform="translate(-765.345 -1118.707)" fill="#f1f2f2"/>
            </g>
          </g>
          <g id="Grupo_3060" data-name="Grupo 3060" transform="translate(62.296 143.402)">
            <path id="Trazado_1517" data-name="Trazado 1517" d="M790.216,1948.682l-.108,1.374L776.7,1976.181l-13.34-27.335,11.131-98.679.05-.527-.084-.194-8.292-18.95H787.28L779,1849.446l-.089.194.058.527Z" transform="translate(-763.363 -1830.496)" fill="#243444"/>
            <path id="Trazado_1518" data-name="Trazado 1518" d="M899.353,2062.705h4.542l-.089.193.058.527h-4.478Z" transform="translate(-888.255 -2043.755)" fill="#505d69"/>
          </g>
          <g id="Grupo_3063" data-name="Grupo 3063" transform="translate(46.101 125.406)">
            <g id="Grupo_3061" data-name="Grupo 3061" transform="translate(29.813)">
              <path id="Trazado_1519" data-name="Trazado 1519" d="M930.239,1627.935l10.964,14.826,15.951-27.268-12.587-5.523Z" transform="translate(-930.239 -1609.969)" fill="#cdeefd"/>
            </g>
            <g id="Grupo_3062" data-name="Grupo 3062" transform="translate(0 0.79)">
              <path id="Trazado_1520" data-name="Trazado 1520" d="M594.726,1636.83l-9.123,14.727-20.691-26.63,14.364-5.272Z" transform="translate(-564.913 -1619.654)" fill="#cdeefd"/>
            </g>
          </g>
          <g id="Grupo_3064" data-name="Grupo 3064" transform="translate(0 128.674)">
            <path id="Trazado_1521" data-name="Trazado 1521" d="M76.322,1740.477v246.907l-8.443,21.1A341.057,341.057,0,0,1,0,1998.059C5.717,1891.729,2.664,1691.925,3.53,1677l46.679-26.983Z" transform="translate(0 -1650.02)" fill="#f1f2f2"/>
            <path id="Trazado_1522" data-name="Trazado 1522" d="M935.072,1740.477v246.907l8.443,21.1a341.062,341.062,0,0,0,67.879-10.426c-5.717-106.33-2.664-306.134-3.53-321.055l-46.678-26.983Z" transform="translate(-858.763 -1650.02)" fill="#f1f2f2"/>
          </g>
          <path id="Trazado_1523" data-name="Trazado 1523" d="M965.755,1946.139l-8.694,2.6,7.761,13.87-29.583,44.9,18.118-66.728Z" transform="translate(-858.916 -1788.385)" fill="#b5b6b6" opacity="0.32"/>
          <path id="Trazado_1524" data-name="Trazado 1524" d="M562.264,1968.984l11.292,5.318-9.427,9.814L592.7,2030.36l-15.219-59.755-3.46-4.943Z" transform="translate(-516.379 -1811.23)" fill="#b5b6b6" opacity="0.32"/>
          <g id="Grupo_3067" data-name="Grupo 3067" transform="translate(95.935 132.607)">
            <g id="Grupo_3065" data-name="Grupo 3065" transform="translate(6.743)">
              <path id="Trazado_1525" data-name="Trazado 1525" d="M1258.2,1785.345c18.9-49.069,17.153-70.821,12.365-80.427-2.569-5.148-5.63-6.66-5.766-6.7,0,0,4.771.3,5.693,1.228.2.2,19.271,17.29-9.683,86.911Z" transform="translate(-1258.201 -1698.215)" fill="#231f20"/>
            </g>
            <g id="Grupo_3066" data-name="Grupo 3066" transform="translate(0 83.385)">
              <path id="Trazado_1526" data-name="Trazado 1526" d="M1188.59,2729.182a6.74,6.74,0,1,1-3.84-8.721A6.738,6.738,0,0,1,1188.59,2729.182Z" transform="translate(-1175.568 -2720)" fill="#8d8f90"/>
              <path id="Trazado_1527" data-name="Trazado 1527" d="M1195.839,2736.779a6.039,6.039,0,1,1-3.44-7.818A6.04,6.04,0,0,1,1195.839,2736.779Z" transform="translate(-1183.468 -2727.851)" fill="#bcbec0"/>
              <path id="Trazado_1528" data-name="Trazado 1528" d="M1214.877,2756.877a4.193,4.193,0,1,1-2.388-5.43A4.2,4.2,0,0,1,1214.877,2756.877Z" transform="translate(-1204.227 -2748.617)" fill="#58595b"/>
            </g>
          </g>
          <g id="Grupo_3077" data-name="Grupo 3077" transform="translate(21.62 132.171)">
            <g id="Grupo_3075" data-name="Grupo 3075" transform="translate(0 20.706)">
              <g id="Grupo_3070" data-name="Grupo 3070" transform="translate(0.778 22.545)">
                <g id="Grupo_3068" data-name="Grupo 3068">
                  <path id="Trazado_1529" data-name="Trazado 1529" d="M299.887,2264.833l-9.619-4.637c-8.428-7.312-15.516-35.6-15.808-36.8l1.186-.536c.075.288,7.192,28.723,15.2,35.778l9.416,4.518Z" transform="translate(-274.46 -2222.858)" fill="#5e5f60"/>
                </g>
                <g id="Grupo_3069" data-name="Grupo 3069" transform="translate(23.361 38.748)">
                  <path id="Trazado_1530" data-name="Trazado 1530" d="M565.055,2702.406a.872.872,0,0,1-.413-.083l-3.07-1.421a1.443,1.443,0,0,1-.7-.833,2.28,2.28,0,0,1-.095-1.269c.178-.842.861-1.328,1.465-1.048l3.066,1.419a1.455,1.455,0,0,1,.7.835,2.293,2.293,0,0,1,.1,1.265A1.288,1.288,0,0,1,565.055,2702.406Z" transform="translate(-560.726 -2697.674)" fill="#bcbec0"/>
                </g>
              </g>
              <g id="Grupo_3073" data-name="Grupo 3073" transform="translate(6.898 21.17)">
                <g id="Grupo_3071" data-name="Grupo 3071" transform="translate(2.831)">
                  <path id="Trazado_1531" data-name="Trazado 1531" d="M384.687,2250.132l-.531-1.638,8.935-5.406c7.287-7.8,11.62-36.785,11.663-37.081l1.241.421c-.183,1.222-4.5,30.064-12.181,38.157l-.125.1Z" transform="translate(-384.155 -2206.008)" fill="#5e5f60"/>
                </g>
                <g id="Grupo_3072" data-name="Grupo 3072" transform="translate(0 40.819)">
                  <path id="Trazado_1532" data-name="Trazado 1532" d="M350.724,2711.216a1.277,1.277,0,0,1-1.157-1.027,2.3,2.3,0,0,1-.027-1.266,1.458,1.458,0,0,1,.618-.9l2.915-1.711c.571-.337,1.3.082,1.56.9a2.319,2.319,0,0,1,.028,1.273,1.45,1.45,0,0,1-.617.9l-2.918,1.71A.859.859,0,0,1,350.724,2711.216Z" transform="translate(-349.464 -2706.195)" fill="#bcbec0"/>
                </g>
              </g>
              <g id="Grupo_3074" data-name="Grupo 3074">
                <path id="Trazado_1533" data-name="Trazado 1533" d="M296.056,1968.457c-.7.035-1.3-.727-1.349-1.706-.334-6.316-2.678-11.366-6.607-14.217a12.294,12.294,0,0,0-15.626.833c-2.5,2.274-5.393,6.669-4.972,14.675.052.984-.474,1.811-1.168,1.849,0,0,0,0-.009,0-.694.032-1.294-.732-1.346-1.708-.4-7.57,1.762-13.9,6.075-17.826a14.278,14.278,0,0,1,18.149-.979c4.772,3.468,7.626,9.587,8.027,17.226.047.98-.477,1.809-1.168,1.849Z" transform="translate(-264.932 -1946.591)" fill="#231f20"/>
              </g>
            </g>
            <g id="Grupo_3076" data-name="Grupo 3076" transform="translate(13.456)">
              <path id="Trazado_1534" data-name="Trazado 1534" d="M439.007,1693.075a4.2,4.2,0,0,0-5.1,2.086c-3.431,6.689-4.1,20.465-4.09,20.648l2.793-.1C432.606,1715.507,432.084,1701.2,439.007,1693.075Z" transform="translate(-429.821 -1692.867)" fill="#231f20"/>
            </g>
          </g>
          <g id="Grupo_3083" data-name="Grupo 3083" transform="translate(41.317 57.287)">
            <g id="Grupo_3078" data-name="Grupo 3078" transform="translate(61.028 33.562)">
              <path id="Trazado_1535" data-name="Trazado 1535" d="M1254.771,1201.819a.654.654,0,0,1-.637-.8l3.223-14a.653.653,0,1,1,1.272.293l-3.223,14A.653.653,0,0,1,1254.771,1201.819Z" transform="translate(-1254.117 -1186.512)" fill="#e9e8eb"/>
            </g>
            <g id="Grupo_3079" data-name="Grupo 3079" transform="translate(1.667 33.562)">
              <path id="Trazado_1536" data-name="Trazado 1536" d="M530.595,1201.819a.653.653,0,0,1-.636-.507l-3.223-14a.653.653,0,1,1,1.272-.293l3.223,14a.654.654,0,0,1-.637.8Z" transform="translate(-526.719 -1186.512)" fill="#e9e8eb"/>
            </g>
            <g id="Grupo_3080" data-name="Grupo 3080" transform="translate(1.667 0)">
              <path id="Trazado_1537" data-name="Trazado 1537" d="M530.595,790.561a.653.653,0,0,1-.636-.507l-3.223-14a.653.653,0,1,1,1.272-.293l3.223,14a.654.654,0,0,1-.637.8Z" transform="translate(-526.719 -775.254)" fill="#e9e8eb"/>
            </g>
            <g id="Grupo_3081" data-name="Grupo 3081" transform="translate(63.496)">
              <path id="Trazado_1538" data-name="Trazado 1538" d="M1285.012,790.56a.654.654,0,0,1-.637-.8l3.223-14a.653.653,0,1,1,1.272.293l-3.223,14A.653.653,0,0,1,1285.012,790.56Z" transform="translate(-1284.358 -775.254)" fill="#e9e8eb"/>
            </g>
            <g id="Grupo_3082" data-name="Grupo 3082" transform="translate(0 6.295)">
              <path id="Trazado_1539" data-name="Trazado 1539" d="M540,900.474a111.446,111.446,0,0,1-13.538-1.115c-1.527-.188-3.105-.384-4.646-.551-3.506-.38-7.212-.766-12.018-1.25a.694.694,0,0,1-.623-.637c-.452-5.742,1.874-12.727,1.422-18.469-.511-6.488-3.8-11.733-4.31-18.222a.7.7,0,0,1,.482-.717c4.165-1.326,8.533-2.561,12.981-3.673l.883-.221c6.331-1.586,12.878-3.225,19.366-3.225,6.323,0,12.7,1.578,18.871,3.105l.83.205c4.619,1.141,9.171,2.422,13.529,3.809a.7.7,0,0,1,.482.717c-.478,6.074-3.231,12.148-3.71,18.222-.485,6.156,1.306,12.313.822,18.469a.694.694,0,0,1-.623.637c-4.891.493-8.887.909-12.575,1.311-1.463.159-2.961.344-4.41.522A109.3,109.3,0,0,1,540,900.474Z" transform="translate(-506.287 -852.395)" fill="#e6e7e8"/>
              <path id="Trazado_1540" data-name="Trazado 1540" d="M558.767,912.665a105.98,105.98,0,0,1-12.868-1.06c-1.451-.179-2.952-.365-4.416-.524-3.332-.361-6.855-.728-11.423-1.188a.66.66,0,0,1-.592-.605c-.43-5.458,1.781-12.1,1.352-17.556-.485-6.167-3.611-11.153-4.1-17.321a.66.66,0,0,1,.458-.681c3.959-1.26,8.111-2.435,12.339-3.491l.839-.21c6.018-1.507,12.241-3.066,18.408-3.066,6.011,0,12.074,1.5,17.938,2.952l.789.195c4.39,1.084,8.717,2.3,12.86,3.62a.661.661,0,0,1,.458.681c-.454,5.774-3.072,11.547-3.526,17.321-.461,5.852,1.242,11.7.781,17.556a.661.661,0,0,1-.592.605c-4.649.468-8.447.864-11.953,1.246-1.39.151-2.815.326-4.192.5A103.846,103.846,0,0,1,558.767,912.665Z" transform="translate(-525.052 -865.775)" fill="#fefefe"/>
              <path id="Trazado_1541" data-name="Trazado 1541" d="M661.29,1006.875s15.615-4,21.065-3.923c5.831.078,22.29,4.795,22.29,4.795S686.094,1002.952,661.29,1006.875Z" transform="translate(-648.641 -990.665)" fill="#e9e8eb"/>
              <path id="Trazado_1542" data-name="Trazado 1542" d="M661.29,1265.773s15.615,4,21.065,3.923c5.831-.078,22.29-4.794,22.29-4.794S686.094,1269.7,661.29,1265.773Z" transform="translate(-648.641 -1231.238)" fill="#e9e8eb"/>
              <path id="Trazado_1543" data-name="Trazado 1543" d="M661.29,1171.7h43.355S682.551,1175.669,661.29,1171.7Z" transform="translate(-648.641 -1145.639)" fill="#e9e8eb"/>
            </g>
          </g>
          <g id="Grupo_3084" data-name="Grupo 3084" transform="translate(42.435 124.849)">
            <path id="Trazado_1544" data-name="Trazado 1544" d="M966.285,1608.607c2.912,3.672-.53,27.451-.53,27.451l-11.64,1.066,8.935,10.868-27.812,49.443,20.411-94.281S964.462,1606.31,966.285,1608.607Z" transform="translate(-901.351 -1603.154)" fill="#fff"/>
            <path id="Trazado_1545" data-name="Trazado 1545" d="M520.841,1615.423c-2.91,3.672,2.6,26.9,2.6,26.9l11.64,1.066-8.932,10.868,27.73,49.442-22.4-93.725S522.664,1613.125,520.841,1615.423Z" transform="translate(-519.993 -1609.413)" fill="#fff"/>
          </g>
        </g>
      </g>
    </g>
  </g>
</svg>
