<svg xmlns="http://www.w3.org/2000/svg" xmlns:xlink="http://www.w3.org/1999/xlink" width="435" height="199" viewBox="0 0 435 199">
  <defs>
    <clipPath id="clip-path">
      <circle id="Elipse_673" data-name="Elipse 673" cx="6.968" cy="6.968" r="6.968" fill="none"/>
    </clipPath>
  </defs>
  <g id="Grupo_3561" data-name="Grupo 3561" transform="translate(-117 -2272)">
    <rect id="Rectángulo_959" data-name="Rectángulo 959" width="435" height="198" transform="translate(117 2272)" fill="#efefef"/>
    <g id="Grupo_3211" data-name="Grupo 3211" transform="translate(-286 -32)">
      <g id="Elipse_568" data-name="Elipse 568" transform="translate(432 2327)" fill="#59bfd6" stroke="#227d84" stroke-width="3">
        <circle cx="20" cy="20" r="20" stroke="none"/>
        <circle cx="20" cy="20" r="18.5" fill="none"/>
      </g>
      <path id="Trazado_3103" data-name="Trazado 3103" d="M8.052-9.13a5.184,5.184,0,0,1,3.1,1.507,4.154,4.154,0,0,1,1.078,2.915,4.6,4.6,0,0,1-.7,2.475A4.9,4.9,0,0,1,9.383-.418,8.217,8.217,0,0,1,5.852.264a12.112,12.112,0,0,1-3.2-.429A8.245,8.245,0,0,1-.022-1.386L1.364-4.114A6.715,6.715,0,0,0,3.4-3.091a7.843,7.843,0,0,0,2.365.363,3.749,3.749,0,0,0,2.112-.517,1.661,1.661,0,0,0,.77-1.463Q8.646-6.6,5.764-6.6H4.136V-8.954L7.3-12.54H.748V-15.4h10.78v2.31Z" transform="translate(446 2354)" fill="#fff"/>
    </g>
    <g id="Grupo_3491" data-name="Grupo 3491" transform="translate(223.561 2168.554)">
      <g id="Grupo_3434" data-name="Grupo 3434" transform="translate(240.818 218.768)">
        <path id="Trazado_3229" data-name="Trazado 3229" d="M178.857,164.265s14.055,26.649,18.155,28.55,22.88-8.081,25.738-10.474a17.351,17.351,0,0,1,8.373-3.672c2.2-.349,6.15.386,6.3-6.35s.583-11.565-3.96-10.4-5.123,1.023-6.147,2.05-1.692,5.078-3.511,5.71c-12.1,4.221-13.763,4.537-17.128,6.15s-7.793-14.052-12.108-17.715C192.9,156.7,178.857,164.265,178.857,164.265Z" transform="translate(-178.857 -157.94)" fill="#f7a054"/>
      </g>
      <g id="Grupo_3435" data-name="Grupo 3435" transform="translate(190.851 128.079)">
        <path id="Trazado_3230" data-name="Trazado 3230" d="M162.532,142.587s-2.8-14.79,17.775-14.5v14.5Z" transform="translate(-162.404 -128.079)" fill="#fca001"/>
      </g>
      <g id="Grupo_3436" data-name="Grupo 3436" transform="translate(208.754 128.079)">
        <path id="Trazado_3231" data-name="Trazado 3231" d="M186.077,142.587s2.794-14.79-17.778-14.5v14.5Z" transform="translate(-168.299 -128.079)" fill="#f58300"/>
      </g>
      <g id="Grupo_3437" data-name="Grupo 3437" transform="translate(170.761 135.709)">
        <path id="Trazado_3232" data-name="Trazado 3232" d="M231.923,147.741c0,9.472-17.043,17.153-38.065,17.153s-38.068-7.68-38.068-17.153,17.04-17.15,38.068-17.15S231.923,138.268,231.923,147.741Z" transform="translate(-155.789 -130.591)" fill="#ffb804"/>
      </g>
      <g id="Grupo_3438" data-name="Grupo 3438" transform="translate(148.439 161.183)">
        <path id="Trazado_3233" data-name="Trazado 3233" d="M199.163,150.738s1.874,14.711-5.075,15.838c-7.028,1.139-18.152-1.725-24.2,8.883-6.76,11.85-18.781,31.311-19.913,50.043-.1,1.725-1.555,5.552-1.525,7.225.392,19.892,3.07,18.374,1.127,24.706s-2.187,12.473,5.861,14.079c7.422,1.476,8.008.352,6.642-9.809-.972-7.237,3.9-23.9,2.341-32.344-1.537-8.324,11.908-19.67,14.055-27.673v39.289h30.282V201.686h.07V138.979Z" transform="translate(-148.439 -138.979)" fill="#ffba80"/>
      </g>
      <g id="Grupo_3439" data-name="Grupo 3439" transform="translate(208.754 161.183)">
        <path id="Trazado_3234" data-name="Trazado 3234" d="M207.312,175.459c-6.056-10.608-17.18-7.744-24.211-8.883-6.946-1.127-5.072-15.838-5.072-15.838l-9.661-11.759v62.707h-.07v39.289h30.285V201.686h.14C200.867,209.689,214.072,187.309,207.312,175.459Z" transform="translate(-168.299 -138.979)" fill="#f7a054"/>
      </g>
      <g id="Grupo_3440" data-name="Grupo 3440" transform="translate(208.83 135.709)">
        <path id="Trazado_3235" data-name="Trazado 3235" d="M206.389,147.741c0-9.472-17.043-17.15-38.065-17.15v34.3C189.346,164.893,206.389,157.213,206.389,147.741Z" transform="translate(-168.324 -130.591)" fill="#fca001"/>
      </g>
      <g id="Grupo_3442" data-name="Grupo 3442" transform="translate(187.997 136.899)">
        <g id="Grupo_3441" data-name="Grupo 3441">
          <path id="Trazado_3236" data-name="Trazado 3236" d="M200.16,155.267H199.8c.152-1.218.307-2.42.449-3.556.771-5.883,2.5-20.727-18.027-20.727s-18.8,14.845-18.027,20.727c.146,1.136.295,2.338.449,3.556h-.355c-3.122-2.314-3.389,3.723-2.086,5.785a12.422,12.422,0,0,1,1.752,3.775c.483,1.382,1.279,1.57,1.947,1.415.085.823.158,1.537.206,2.108.292,3.177,7.914,9.527,9.636,11.516,1.625,1.862,4.322,1.136,5.187,1.1s1.291-.061,1.291-.061.416.018,1.291.061,3.568.765,5.184-1.1c1.725-1.989,9.348-8.34,9.639-11.516.052-.571.125-1.285.21-2.108.662.155,1.461-.033,1.941-1.415a12.437,12.437,0,0,1,1.758-3.775C203.543,158.99,203.276,152.952,200.16,155.267Z" transform="translate(-161.464 -130.983)" fill="#ffba80"/>
        </g>
      </g>
      <g id="Grupo_3443" data-name="Grupo 3443" transform="translate(208.754 136.899)">
        <path id="Trazado_3237" data-name="Trazado 3237" d="M169.59,180.962c.866.039,3.568.765,5.184-1.1,1.725-1.989,9.348-8.34,9.639-11.516.052-.571.125-1.285.21-2.108.662.155,1.461-.033,1.941-1.415a12.437,12.437,0,0,1,1.758-3.775c1.3-2.062,1.033-8.1-2.083-5.785h-.361c.152-1.218.307-2.42.449-3.556.771-5.883,2.5-20.727-18.027-20.727V180.9S168.715,180.92,169.59,180.962Z" transform="translate(-168.299 -130.983)" fill="#f7a054"/>
      </g>
      <g id="Grupo_3445" data-name="Grupo 3445" transform="translate(190.978 158.831)">
        <g id="Grupo_3444" data-name="Grupo 3444">
          <path id="Trazado_3238" data-name="Trazado 3238" d="M197.459,138.607c0,1.042-1.871,9.254-2.187,11.878-.6,4.975-4.167,7.292-5.211,8.434s-4.48,2.293-5.937,2.818a19.875,19.875,0,0,1-7.808,0c-1.455-.525-4.89-1.667-5.934-2.818s-4.613-3.459-5.208-8.434c-.319-2.624-2.19-10.836-2.19-11.878,0-.689-.334-.443-.538.364.067.519.131,1.048.2,1.585,0,0,1.072,11.021,1.257,10.976.085.823.158,1.537.206,2.108a3.3,3.3,0,0,0,.252.9c.386.6.984,1.582,1.752,2.758,2.46,3.046,6.444,6.487,7.632,7.857,1.625,1.862,4.322,1.136,5.187,1.1s1.291-.061,1.291-.061.416.018,1.291.061,3.568.765,5.184-1.1c1.19-1.37,5.172-4.811,7.641-7.857.756-1.175,1.361-2.156,1.749-2.758a3.4,3.4,0,0,0,.249-.9c.052-.571.125-1.285.21-2.108.185.046,1.254-10.976,1.254-10.976.07-.538.134-1.066.2-1.585C197.8,138.163,197.459,137.917,197.459,138.607Z" transform="translate(-162.446 -138.205)" fill="#4f250a"/>
        </g>
      </g>
      <g id="Grupo_3446" data-name="Grupo 3446" transform="translate(178.473 261.168)">
        <path id="Sustracción_5" data-name="Sustracción 5" d="M27.736,40.777H0V2.011L30.351,0V34.885c-.013.01-1.288.99-2.615,5.891Z" fill="#172c57" stroke="rgba(0,0,0,0)" stroke-miterlimit="10" stroke-width="1"/>
      </g>
      <g id="Grupo_3447" data-name="Grupo 3447" transform="translate(190.417 145.093)">
        <path id="Trazado_3240" data-name="Trazado 3240" d="M180.674,138.437a21.82,21.82,0,0,1-10.957,7.125s1.8-2.247,1.932-3.565c0,0-4.592,4.671-8.288,5.825l-.538.364a35.457,35.457,0,0,1-.559-4.874c-.255-3.608,16.044-9.63,16.044-9.63l2.366,2.9Z" transform="translate(-162.261 -133.681)" fill="#693514"/>
      </g>
      <g id="Grupo_3448" data-name="Grupo 3448" transform="translate(208.83 145.093)">
        <path id="Trazado_3241" data-name="Trazado 3241" d="M168.324,138.437s1.831,3.708,8.567,5.779a13.668,13.668,0,0,1-.635-1.974s5.685,4.425,9.381,5.579l.3,1.054s.425-2.575.683-6.18-15.938-9.014-15.938-9.014l-2.363,2.9Z" transform="translate(-168.324 -133.681)" fill="#4f250a"/>
      </g>
      <g id="Grupo_3449" data-name="Grupo 3449" transform="translate(184.915 135.708)">
        <path id="Trazado_3242" data-name="Trazado 3242" d="M166.033,150.976s2.955-6.763,18.255-6.763V130.592s-18.079-.319-22.474,10.192,3.219,10.192,3.219,10.192Z" transform="translate(-160.45 -130.591)" fill="#ffb804"/>
      </g>
      <g id="Grupo_3450" data-name="Grupo 3450" transform="translate(208.754 135.708)">
        <path id="Trazado_3243" data-name="Trazado 3243" d="M186.557,150.976s-2.958-6.763-18.258-6.763V130.592s18.082-.319,22.477,10.192-3.222,10.192-3.222,10.192Z" transform="translate(-168.299 -130.591)" fill="#fca001"/>
      </g>
      <path id="Sustracción_6" data-name="Sustracción 6" d="M30.354,40.1H2.425C1.173,35.8.012,34.894,0,34.886V0L30.354,2.011Z" transform="translate(208.824 261.168)" fill="#0e1f42" stroke="rgba(0,0,0,0)" stroke-miterlimit="10" stroke-width="1"/>
      <g id="Grupo_3457" data-name="Grupo 3457" transform="translate(156.12 188.567)">
        <path id="Trazado_3249" data-name="Trazado 3249" d="M189.735,148l0-.006a4.716,4.716,0,0,1-.8.213,49.208,49.208,0,0,1-6.274.392c-.258-.021-.531-.033-.85-.03-3.857.064-6.539.194-6.539.194-13.032.295-24.3,31.19-24.3,31.19l19.91,11.124,2.442-4.978v36.507H203.6l.07-39.289v-21.38Z" transform="translate(-150.968 -147.996)" fill="#a6daf5"/>
      </g>
      <g id="Grupo_3458" data-name="Grupo 3458" transform="translate(208.824 188.567)">
        <path id="Trazado_3250" data-name="Trazado 3250" d="M182.259,148l.006-.006a4.646,4.646,0,0,0,.79.213,49.342,49.342,0,0,0,6.28.392c.258-.021.531-.033.847-.03,3.857.064,6.539.194,6.539.194,13.032.295,24.308,31.19,24.308,31.19l-19.913,11.124-2.439-4.978v36.507H168.392l-.07-39.289v-21.38Z" transform="translate(-168.322 -147.996)" fill="#77bbe6"/>
      </g>
      <g id="Grupo_3464" data-name="Grupo 3464" transform="translate(190.978 158.831)">
        <path id="Trazado_3255" data-name="Trazado 3255" d="M176.316,161.736c-1.455-.525-4.89-1.667-5.934-2.818s-4.613-3.459-5.208-8.434c-.319-2.624-2.19-10.836-2.19-11.878,0-.689-.334-.443-.538.364.067.519.131,1.048.2,1.585,0,0,1.072,11.021,1.257,10.976.085.823.158,1.537.206,2.108a3.3,3.3,0,0,0,.252.9c.386.6.984,1.582,1.752,2.758,2.46,3.046,6.444,6.487,7.632,7.857,1.625,1.862,4.322,1.136,5.187,1.1s1.291-.061,1.291-.061v-4.07A14.6,14.6,0,0,1,176.316,161.736Z" transform="translate(-162.446 -138.205)" fill="#693514"/>
      </g>
      <g id="Grupo_3465" data-name="Grupo 3465" transform="translate(178.472 189.141)">
        <path id="Trazado_3256" data-name="Trazado 3256" d="M158.328,222.221V184.364h3.841l-.326-35.985,8.491-.194v36.179H188.61v37.857Z" transform="translate(-158.328 -148.185)" fill="#172c57"/>
      </g>
      <g id="Grupo_3466" data-name="Grupo 3466" transform="translate(208.755 189.141)">
        <path id="Trazado_3257" data-name="Trazado 3257" d="M198.583,222.221V184.364h-3.841l.323-35.985-8.488-.194v36.179H168.3v37.857Z" transform="translate(-168.299 -148.185)" fill="#0e1f42"/>
      </g>
      <g id="Grupo_3486" data-name="Grupo 3486" transform="translate(290.935 222.576)">
        <path id="Trazado_3266" data-name="Trazado 3266" d="M199.847,159.369c-2.594.671-3.189.781-3.948,1.61-1.139,1.251-.416,13.958,1.61,14.256,2.2.316,6.15,1.266,6.3-5.47S204.39,158.2,199.847,159.369Z" transform="translate(-195.359 -159.194)" fill="#ed8e3b"/>
      </g>
      <g id="Grupo_3487" data-name="Grupo 3487" transform="translate(193.438 169.431)">
        <path id="Trazado_3267" data-name="Trazado 3267" d="M163.256,141.695s2.885,10.593,15.315,10.5v4.589S163.356,154.529,163.256,141.695Z" transform="translate(-163.256 -141.695)" fill="#693514"/>
      </g>
      <g id="Grupo_3488" data-name="Grupo 3488" transform="translate(208.754 169.431)">
        <path id="Trazado_3268" data-name="Trazado 3268" d="M183.617,141.695s-2.885,10.593-15.318,10.5v4.589S183.517,154.529,183.617,141.695Z" transform="translate(-168.299 -141.695)" fill="#4f250a"/>
      </g>
      <g id="Grupo_3489" data-name="Grupo 3489" transform="translate(228.861 222.827)">
        <path id="Trazado_3269" data-name="Trazado 3269" d="M179.8,161.722a2.442,2.442,0,1,1-2.439-2.445A2.441,2.441,0,0,1,179.8,161.722Z" transform="translate(-174.92 -159.277)" fill="#747474"/>
      </g>
      <g id="Grupo_3490" data-name="Grupo 3490" transform="translate(183.881 222.827)">
        <path id="Trazado_3270" data-name="Trazado 3270" d="M160.109,161.722a2.442,2.442,0,1,0,2.442-2.445A2.441,2.441,0,0,0,160.109,161.722Z" transform="translate(-160.109 -159.277)" fill="#9a9a9a"/>
      </g>
    </g>
    <g id="Grupo_3518" data-name="Grupo 3518" transform="translate(73.514 2228.892)">
      <path id="Trazado_3307" data-name="Trazado 3307" d="M534.123,440.412h0Z" transform="translate(-251.579 -319.47)" opacity="0.22"/>
      <path id="Trazado_3308" data-name="Trazado 3308" d="M535.264,440.384a.371.371,0,0,0-.044-.006A.371.371,0,0,1,535.264,440.384Z" transform="translate(-252.562 -319.44)" opacity="0.22"/>
      <path id="Trazado_3309" data-name="Trazado 3309" d="M534.578,440.374h0Z" transform="translate(-251.947 -319.436)" opacity="0.22"/>
      <path id="Trazado_3310" data-name="Trazado 3310" d="M388.126,364.656l-6.755-2.127a2.469,2.469,0,0,0-2.734.752,2.332,2.332,0,0,0-.448,1.559v.009c0,.045.008.09.014.135,0,.016,0,.032.007.048,0,.032.01.063.016.095s.007.04.012.06.013.056.02.084q.016.066.036.131c.005.018.011.037.016.055s.019.058.03.087l.018.049c.011.03.023.059.035.088l.018.042a2.979,2.979,0,0,0,.144.287l.028.048.046.074.037.057.044.065c.019.027.039.054.059.081l.037.048q.043.055.089.108l.029.033c.027.031.055.061.083.09a3.163,3.163,0,0,0,1.35.839l7.854,2.427a2.686,2.686,0,0,0,1.759-.033A4.763,4.763,0,0,1,388.126,364.656Z" transform="translate(-111.797 -249.54)" opacity="0.3"/>
      <path id="Trazado_3311" data-name="Trazado 3311" d="M276.769,131.395H255.618a2.148,2.148,0,0,1-2.154-2.205V86.166a2.1,2.1,0,0,1,2.154-2.152h21.151a2.274,2.274,0,0,1,2.349,2.152V129.19A2.317,2.317,0,0,1,276.769,131.395Z" transform="translate(0 0)" fill="#404040"/>
      <g id="Grupo_3508" data-name="Grupo 3508" transform="translate(253.464 84.014)">
        <path id="Trazado_3312" data-name="Trazado 3312" d="M253.683,129.19l0-43.023a2.086,2.086,0,0,1,2.117-2.152h-.184a2.1,2.1,0,0,0-2.154,2.152V129.19a2.148,2.148,0,0,0,2.154,2.205h.168A2.13,2.13,0,0,1,253.683,129.19Z" transform="translate(-253.464 -84.014)" fill="#696969"/>
        <path id="Trazado_3313" data-name="Trazado 3313" d="M476.812,84.014h-.165a2.25,2.25,0,0,1,2.295,2.152l0,43.023a2.3,2.3,0,0,1-2.309,2.205h.181a2.318,2.318,0,0,0,2.349-2.205V86.166A2.274,2.274,0,0,0,476.812,84.014Z" transform="translate(-453.506 -84.014)" fill="#696969"/>
      </g>
      <g id="Grupo_3511" data-name="Grupo 3511" transform="translate(264.774 85.046)">
        <g id="Grupo_3509" data-name="Grupo 3509" transform="translate(0.954 0)">
          <path id="Trazado_3314" data-name="Trazado 3314" d="M372.757,93.991a.536.536,0,1,1-.652.387A.536.536,0,0,1,372.757,93.991Z" transform="translate(-372.061 -93.974)" fill="#5a5a5a"/>
          <path id="Trazado_3315" data-name="Trazado 3315" d="M377.418,93.991a.537.537,0,0,0-.161-.016.536.536,0,0,1,0,1.071.536.536,0,0,0,.159-1.055Z" transform="translate(-376.694 -93.974)" fill="#767676"/>
          <path id="Trazado_3316" data-name="Trazado 3316" d="M372.283,95.03a.536.536,0,0,1,.1-1.055.536.536,0,1,0,0,1.071A.532.532,0,0,1,372.283,95.03Z" transform="translate(-371.825 -93.974)" fill="#2c2c2c"/>
        </g>
        <g id="Grupo_3510" data-name="Grupo 3510" transform="translate(0 41.37)">
          <path id="Trazado_3317" data-name="Trazado 3317" d="M365.126,493.292a1.444,1.444,0,1,1-1.756,1.042A1.444,1.444,0,0,1,365.126,493.292Z" transform="translate(-363.251 -493.246)" fill="#5a5a5a"/>
          <path id="Trazado_3318" data-name="Trazado 3318" d="M377.675,493.292a1.447,1.447,0,0,0-.433-.043,1.444,1.444,0,0,1,0,2.885,1.444,1.444,0,0,0,.428-2.842Z" transform="translate(-375.727 -493.246)" fill="#767676"/>
          <path id="Trazado_3319" data-name="Trazado 3319" d="M363.85,496.091a1.444,1.444,0,0,1,.281-2.842,1.444,1.444,0,1,0,0,2.885A1.452,1.452,0,0,1,363.85,496.091Z" transform="translate(-362.616 -493.247)" fill="#2c2c2c"/>
        </g>
      </g>
      <rect id="Rectángulo_990" data-name="Rectángulo 990" width="21.196" height="37.266" transform="translate(255.617 87.302)" fill="gray"/>
      <g id="Grupo_3514" data-name="Grupo 3514" transform="translate(257.899 110.91)">
        <g id="Grupo_3512" data-name="Grupo 3512" transform="translate(0 0.124)">
          <circle id="Elipse_671" data-name="Elipse 671" cx="2.953" cy="2.953" r="2.953" transform="translate(0 2.3) rotate(-22.918)" fill="#48db87"/>
          <path id="Trazado_3320" data-name="Trazado 3320" d="M321.062,369.39l-.125-.841a.033.033,0,0,0-.028-.028l-.792-.122a.033.033,0,0,0-.029.009l-.421.422a.034.034,0,0,1-.047,0l-1.08-1.08a.033.033,0,0,1,0-.047l.422-.422a.033.033,0,0,0,.009-.029l-.121-.792a.033.033,0,0,0-.028-.028c-.14-.021-.842-.123-.843-.122-.441.441-.108,1.488.744,2.34s1.9,1.185,2.34.744l0,0Z" transform="translate(-315.554 -364.081)" fill="#f5f5f5"/>
        </g>
        <g id="Grupo_3513" data-name="Grupo 3513" transform="translate(8.768 0)">
          <circle id="Elipse_672" data-name="Elipse 672" cx="2.953" cy="2.953" r="2.953" transform="translate(0 2.772) rotate(-27.992)" fill="#ff644f"/>
          <path id="Trazado_3321" data-name="Trazado 3321" d="M398.392,375.327l.683.506a.033.033,0,0,0,.04,0l.646-.474a.034.034,0,0,0,.014-.027v-.6a.033.033,0,0,1,.033-.033h1.528a.033.033,0,0,1,.033.033v.6a.034.034,0,0,0,.014.027l.646.474a.033.033,0,0,0,.04,0c.114-.085.682-.508.682-.51,0-.623-.976-1.128-2.181-1.128s-2.181.505-2.181,1.128v0Z" transform="translate(-396.575 -371.024)" fill="#f5f5f5"/>
        </g>
      </g>
      <g id="Grupo_3517" data-name="Grupo 3517" transform="translate(258.961 92.979)">
        <g id="Grupo_3516" data-name="Grupo 3516" transform="translate(0.286 0.286)">
          <g id="Grupo_3515" data-name="Grupo 3515" clip-path="url(#clip-path)">
            <path id="Trazado_3322" data-name="Trazado 3322" d="M332.468,202.782l-.581-2.91c-.279-.879-1.658-1.48-2.788-1.739a1.063,1.063,0,0,1-.889-.952q-.055-.507-.094-1.014a2.848,2.848,0,0,0,.521-.545,4.562,4.562,0,0,0,.514-1.255.956.956,0,0,0,.592-.763.764.764,0,0,0-.175-.816,3.643,3.643,0,0,0-.111-1.837,2.21,2.21,0,0,0-2.341-1.806c-.033,0-.065,0-.1,0h-.34l-.079,0a2.212,2.212,0,0,0-2.351,1.807,3.643,3.643,0,0,0-.111,1.837.764.764,0,0,0-.175.816.956.956,0,0,0,.592.763,4.56,4.56,0,0,0,.514,1.255,2.846,2.846,0,0,0,.521.545q-.04.507-.094,1.014a1.063,1.063,0,0,1-.889.952c-1.129.259-2.451.86-2.731,1.739l-.638,2.91a2.768,2.768,0,0,0,2.892,3.523l2.724-.159,2.724.159A2.768,2.768,0,0,0,332.468,202.782Z" transform="translate(-319.884 -187.499)" fill="#dedede"/>
          </g>
        </g>
        <path id="Trazado_3323" data-name="Trazado 3323" d="M313.77,185.042a7.254,7.254,0,1,1,7.254-7.254A7.262,7.262,0,0,1,313.77,185.042Zm0-13.935a6.681,6.681,0,1,0,6.681,6.681A6.689,6.689,0,0,0,313.77,171.107Z" transform="translate(-306.516 -170.534)" fill="#dedede"/>
      </g>
      <path id="Trazado_3324" data-name="Trazado 3324" d="M256.738,469.9c-.074-.167-.138-.3-.188-.385a4.36,4.36,0,0,1,.205-.577h0c-.078.1-.186.342-.258.409a.83.83,0,0,1-.577.266C256.19,469.622,256.557,469.6,256.738,469.9Z" transform="translate(-2.202 -345.037)" opacity="0.25"/>
      <path id="Trazado_3325" data-name="Trazado 3325" d="M255.836,475.444h0Z" transform="translate(-2.117 -350.873)" opacity="0.25"/>
      <path id="Trazado_3326" data-name="Trazado 3326" d="M264.445,479.673c0,.006,0,.011.006.017h0Z" transform="translate(-9.843 -354.664)" opacity="0.25"/>
      <path id="Trazado_3327" data-name="Trazado 3327" d="M255.771,475.442h0Z" transform="translate(-2.063 -350.871)" opacity="0.25"/>
    </g>
    <g id="Grupo_3507" data-name="Grupo 3507" transform="translate(138.445 2236.69)">
      <path id="Trazado_3275" data-name="Trazado 3275" d="M150.147,115.436l.183-4.152c-5.259-7.729-6.118-9.794-6.619-16.194a44.056,44.056,0,0,1,2.134-5.314,34.417,34.417,0,0,1,2.408,4.005c-1.277,1.6-.632,6,1.467,5.823,2.384-.2,1.467-3.166,1.327-5.023q-.231-3.02-.461-6.038a1.642,1.642,0,0,1,3.229-.564l2.057,8.6c2.9,2.37,4.308,9.667,1.851,12.332l1.463,8.737Z" transform="translate(40.574 14.924)" fill="#fdad6e"/>
      <path id="Trazado_3276" data-name="Trazado 3276" d="M108.907,121.916s10.012-8.165,21.2,1.782c21.079,14.917,38.09,1.443,34.726-20.008h12.132c10.739,46.822-31.262,54.03-57.5,38.471Z" transform="translate(22.734 23.622)" fill="#71b2ff"/>
      <path id="Trazado_3277" data-name="Trazado 3277" d="M111.651,119.287H98.36l.029-18.1H111.68Z" transform="translate(17.328 22.337)" fill="#ff9045"/>
      <g id="Grupo_3500" data-name="Grupo 3500" transform="translate(90.381 71.49)">
        <path id="Trazado_3278" data-name="Trazado 3278" d="M140.408,91.064c-2.9-13.217-13.786-24.279-26.812-24.279S89.676,77.847,86.785,91.064a4.889,4.889,0,0,0-5.156,4.886v5.008c0,2.587,1.854,4.886,5.4,4.886,3.231,12.762,13.889,23.232,26.563,23.232s23.339-10.47,26.561-23.232c3.549,0,5.408-2.3,5.408-4.886V95.949a4.885,4.885,0,0,0-5.156-4.886Z" transform="translate(-81.629 -66.785)" fill="#fdad6e"/>
        <g id="Grupo_3496" data-name="Grupo 3496" transform="translate(22.438 49.115)">
          <g id="Grupo_3495" data-name="Grupo 3495">
            <path id="Trazado_3279" data-name="Trazado 3279" d="M115.077,99.256a12.279,12.279,0,0,1-1.382,2.951H97.853a12.555,12.555,0,0,1-1.39-2.951c2.478,0,5.854.221,9.239.221C109.132,99.477,112.564,99.256,115.077,99.256Z" transform="translate(-96.463 -99.256)" fill="#fff"/>
          </g>
          <path id="Trazado_3280" data-name="Trazado 3280" d="M113.223,101.207a9.21,9.21,0,0,1-15.841,0Z" transform="translate(-95.992 -98.256)" fill="#ce2200"/>
        </g>
        <g id="Grupo_3499" data-name="Grupo 3499" transform="translate(14.144 30.256)">
          <g id="Grupo_3497" data-name="Grupo 3497">
            <path id="Trazado_3281" data-name="Trazado 3281" d="M96.242,86.788A5.248,5.248,0,0,0,90.98,92h10.526A5.251,5.251,0,0,0,96.242,86.788Z" transform="translate(-90.98 -86.788)" fill="#5d5d5d"/>
            <path id="Trazado_3282" data-name="Trazado 3282" d="M101.046,91.561H91.877a3.762,3.762,0,0,1,1.677-3.03,5.137,5.137,0,0,1,4.681-.584A3.975,3.975,0,0,1,101.046,91.561Z" transform="translate(-90.52 -86.345)" fill="#fff"/>
            <path id="Trazado_3283" data-name="Trazado 3283" d="M97.989,91.56H93.3a2.88,2.88,0,0,1-.2-3.03,5.158,5.158,0,0,1,4.681-.584A2.823,2.823,0,0,1,97.989,91.56Z" transform="translate(-90.066 -86.345)" fill="#333232"/>
            <path id="Trazado_3284" data-name="Trazado 3284" d="M96.455,88.947a.774.774,0,1,1-.774-.77A.772.772,0,0,1,96.455,88.947Z" transform="translate(-88.967 -86.076)" fill="#fff"/>
          </g>
          <g id="Grupo_3498" data-name="Grupo 3498" transform="translate(25.121)">
            <path id="Trazado_3285" data-name="Trazado 3285" d="M112.861,86.788A5.249,5.249,0,0,1,118.12,92H107.588A5.257,5.257,0,0,1,112.861,86.788Z" transform="translate(-107.588 -86.788)" fill="#5d5d5d"/>
            <path id="Trazado_3286" data-name="Trazado 3286" d="M107.588,91.561h9.171a3.766,3.766,0,0,0-1.677-3.03,5.147,5.147,0,0,0-4.686-.584A4,4,0,0,0,107.588,91.561Z" transform="translate(-107.588 -86.345)" fill="#fff"/>
            <path id="Trazado_3287" data-name="Trazado 3287" d="M109.491,91.56h4.692a2.864,2.864,0,0,0,.2-3.03,5.166,5.166,0,0,0-4.686-.584A2.844,2.844,0,0,0,109.491,91.56Z" transform="translate(-106.894 -86.345)" fill="#333232"/>
            <path id="Trazado_3288" data-name="Trazado 3288" d="M109.6,88.947a.771.771,0,1,0,.774-.77A.768.768,0,0,0,109.6,88.947Z" transform="translate(-106.557 -86.076)" fill="#fff"/>
          </g>
        </g>
        <path id="Trazado_3289" data-name="Trazado 3289" d="M104.119,95.988a9.971,9.971,0,0,1-4-.777,4.365,4.365,0,0,0,8,0A9.934,9.934,0,0,1,104.119,95.988Z" transform="translate(-72.152 -52.214)" fill="#ff9045"/>
        <path id="Trazado_3290" data-name="Trazado 3290" d="M100.117,99.03c3.19-3.951,2.446-9.733,1.508-11.27Z" transform="translate(-72.152 -56.034)" fill="#ffc299"/>
      </g>
      <path id="Trazado_3291" data-name="Trazado 3291" d="M107.83,133.264l14.938-21.251H92.886l14.935,21.251v.017l.005-.01,0,.01Z" transform="translate(14.522 27.888)" fill="#ff9045"/>
      <g id="Grupo_3501" data-name="Grupo 3501" transform="translate(93.028 85.454)">
        <path id="Trazado_3292" data-name="Trazado 3292" d="M84.223,76.645a35.94,35.94,0,0,0,0,15.664l9.159-7.835,1.482-8.457Z" transform="translate(-83.379 -76.017)" fill="#a53e0a"/>
        <path id="Trazado_3293" data-name="Trazado 3293" d="M125.2,76.645a35.951,35.951,0,0,1,0,15.661l-9.16-7.832-1.482-8.457Z" transform="translate(-67.399 -76.017)" fill="#a53e0a"/>
      </g>
      <g id="Grupo_3502" data-name="Grupo 3502" transform="translate(93.872 57.606)">
        <path id="Trazado_3294" data-name="Trazado 3294" d="M102.763,57.606V86.082h28.479A28.467,28.467,0,0,0,102.763,57.606Z" transform="translate(-74.287 -57.606)" fill="#3391dd"/>
        <path id="Trazado_3295" data-name="Trazado 3295" d="M83.937,86.082h28.477V57.606A28.474,28.474,0,0,0,83.937,86.082Z" transform="translate(-83.937 -57.606)" fill="#4db6e0"/>
        <path id="Trazado_3296" data-name="Trazado 3296" d="M102.763,57.606c11.36,1.7,16.263,17.684,17.939,28.476h10.54A28.474,28.474,0,0,0,102.763,57.606Z" transform="translate(-74.287 -57.606)" fill="#3391dd"/>
        <path id="Trazado_3297" data-name="Trazado 3297" d="M134.788,84.563l-1.929-7.524c-16.965-2.27-25.3-2.508-43.658,0l-1.929,7.524a6.517,6.517,0,0,0,7.595,8.011,87.867,87.867,0,0,1,32.325,0A6.519,6.519,0,0,0,134.788,84.563Z" transform="translate(-82.336 -48.564)" fill="#3a3a3a"/>
      </g>
      <path id="Rectángulo_983" data-name="Rectángulo 983" d="M3.976,0H78.259a3.977,3.977,0,0,1,3.977,3.977V84.009a3.976,3.976,0,0,1-3.976,3.976H3.976A3.976,3.976,0,0,1,0,84.009V3.976A3.976,3.976,0,0,1,3.976,0Z" transform="translate(81.448 139.901)" fill="#548bcb"/>
      <g id="Grupo_3503" data-name="Grupo 3503" transform="translate(88.51 165.345)">
        <path id="Trazado_3298" data-name="Trazado 3298" d="M111.325,144.834l-15.466-16-15.468,16H90.3v15.749h11.117V144.834Z" transform="translate(-80.392 -128.835)" fill="#4079bc"/>
        <path id="Trazado_3299" data-name="Trazado 3299" d="M135.9,144.834l-15.465-16-15.468,16h9.909v15.749H126V144.834Z" transform="translate(-67.793 -128.835)" fill="#4079bc"/>
      </g>
      <path id="Trazado_3300" data-name="Trazado 3300" d="M115.513,136.321l-18.83,3.61V112.013h18.83Z" transform="translate(16.468 27.888)" fill="#ffd110"/>
      <g id="Grupo_3505" data-name="Grupo 3505" transform="translate(89.859 201.679)">
        <rect id="Rectángulo_984" data-name="Rectángulo 984" width="24.597" height="17.142" fill="#eceeec"/>
        <g id="Grupo_3504" data-name="Grupo 3504" transform="translate(2.086 4.335)">
          <rect id="Rectángulo_985" data-name="Rectángulo 985" width="4.052" height="8.473" fill="#474646"/>
          <rect id="Rectángulo_986" data-name="Rectángulo 986" width="4.053" height="8.473" transform="translate(16.372)" fill="#474646"/>
          <rect id="Rectángulo_987" data-name="Rectángulo 987" width="6.207" height="8.473" transform="translate(8.329)" fill="#474646"/>
        </g>
      </g>
      <g id="Grupo_3506" data-name="Grupo 3506" transform="translate(113.646 188.827)">
        <path id="Trazado_3301" data-name="Trazado 3301" d="M123.757,150.291l-12.913-.611a1.577,1.577,0,1,0-.1,3.146l12.911.611A1.577,1.577,0,1,0,123.757,150.291Z" transform="translate(-90.801 -141.633)" fill="#fdad6e"/>
        <path id="Trazado_3302" data-name="Trazado 3302" d="M123.1,156.845l-12.686-2.518a1.576,1.576,0,1,0-.634,3.083l12.688,2.517A1.575,1.575,0,1,0,123.1,156.845Z" transform="translate(-91.162 -139.271)" fill="#fdad6e"/>
        <path id="Trazado_3303" data-name="Trazado 3303" d="M119.972,159.5l-10.27-3.063a1.31,1.31,0,1,0-.8,2.491L119.175,162A1.31,1.31,0,1,0,119.972,159.5Z" transform="translate(-91.423 -138.203)" fill="#fdad6e"/>
        <path id="Trazado_3304" data-name="Trazado 3304" d="M102.838,162.031a49.623,49.623,0,0,0-5.828-.906l1.526-10.313c3.408.1,3.418.163,5.973.172,2.472-4.467,9.345-4.036,13.4-5.382,1.992-.661,3.527-1.243,3.527-1.243s1.826,1.765-.6,3.27-8.384,2.263-7.185,3.582c.613.673,5.282,1.275,5.282,1.275a54.011,54.011,0,0,1-1.209,8.166,17,17,0,0,1-1.874,4.482S103.119,164.9,102.838,162.031Z" transform="translate(-97.01 -144.359)" fill="#fdad6e"/>
        <path id="Trazado_3305" data-name="Trazado 3305" d="M124.56,153.978l-12.8-1.894a1.575,1.575,0,1,0-.46,3.111l12.8,1.894A1.575,1.575,0,1,0,124.56,153.978Z" transform="translate(-90.423 -140.411)" fill="#fdad6e"/>
      </g>
      <path id="Trazado_3306" data-name="Trazado 3306" d="M81.448,123.046c-4.939,2.224-51.325,47.167,34.724,49.259l2.021-12.278L82.78,147.677Z" transform="translate(0 33.544)" fill="#71b2ff"/>
    </g>
  </g>
</svg>
