<svg xmlns="http://www.w3.org/2000/svg" xmlns:xlink="http://www.w3.org/1999/xlink" width="435" height="198" viewBox="0 0 435 198">
  <defs>
    <clipPath id="clip-path">
      <rect id="Rectángulo_944" data-name="Rectángulo 944" width="114.033" height="105.252" fill="none"/>
    </clipPath>
  </defs>
  <g id="Grupo_3564" data-name="Grupo 3564" transform="translate(-595 -2718)">
    <rect id="Rectángulo_965" data-name="Rectángulo 965" width="435" height="198" transform="translate(595 2718)" fill="#efefef"/>
    <g id="Grupo_3541" data-name="Grupo 3541" transform="translate(745.892 2776.643)">
      <g id="Grupo_3101" data-name="Grupo 3101" transform="translate(0)">
        <g id="Grupo_3100" data-name="Grupo 3100">
          <path id="Trazado_1547" data-name="Trazado 1547" d="M238.641,277.742H359.258a4.812,4.812,0,0,1,.662.045,4.073,4.073,0,0,0,.695-2.275V197.885a4.066,4.066,0,0,0-4.062-4.065H240a4.066,4.066,0,0,0-4.069,4.065v77.626a4.045,4.045,0,0,0,.948,2.6A4.069,4.069,0,0,1,238.641,277.742Z" transform="translate(-221.056 -193.82)" fill="#333132"/>
          <rect id="Rectángulo_938" data-name="Rectángulo 938" width="114.033" height="71.614" transform="translate(20.57 6.242)" fill="#a1dbe4"/>
          <g id="Grupo_3097" data-name="Grupo 3097" transform="translate(20.571 16.193)">
            <path id="Trazado_1548" data-name="Trazado 1548" d="M266.583,257.37h-8.3v52.085h8.3a1.934,1.934,0,0,0,1.925-1.943v-48.2A1.934,1.934,0,0,0,266.583,257.37Z" transform="translate(-258.286 -257.37)" fill="#7bc7cc"/>
            <g id="Grupo_3089" data-name="Grupo 3089" transform="translate(2.721 24.492)">
              <path id="Trazado_1549" data-name="Trazado 1549" d="M273.643,354.486a1.1,1.1,0,0,0-1.628-.834,2.206,2.206,0,0,0-.708.946,2.211,2.211,0,0,0-.708-.946,1.1,1.1,0,0,0-1.629.834,2.326,2.326,0,0,0,.646,1.557,6.574,6.574,0,0,0,.882.927c.051.044.775.672.808.666h0c.033.006.757-.623.808-.666a6.571,6.571,0,0,0,.882-.927A2.326,2.326,0,0,0,273.643,354.486Z" transform="translate(-268.963 -353.492)" fill="#fff"/>
            </g>
            <g id="Grupo_3091" data-name="Grupo 3091" transform="translate(2.873 3.478)">
              <g id="Grupo_3090" data-name="Grupo 3090">
                <path id="Trazado_1550" data-name="Trazado 1550" d="M274.675,271.018a1.191,1.191,0,1,0,1.192,1.191A1.193,1.193,0,0,0,274.675,271.018Z" transform="translate(-272.486 -271.018)" fill="#fff"/>
                <path id="Trazado_1551" data-name="Trazado 1551" d="M272.617,280.128a1.4,1.4,0,0,1-1.728,0,2.4,2.4,0,0,0-1.326,2.191c0,.269.219.481.558.632a3.821,3.821,0,0,1,.284-1.338.118.118,0,1,1,.218.092,3.523,3.523,0,0,0-.26,1.337,4.633,4.633,0,0,0,1.39.2,4.682,4.682,0,0,0,1.4-.2,3.5,3.5,0,0,0-.261-1.334.119.119,0,1,1,.219-.092,3.847,3.847,0,0,1,.283,1.334c.333-.152.547-.362.547-.628A2.4,2.4,0,0,0,272.617,280.128Z" transform="translate(-269.563 -277.807)" fill="#fff"/>
              </g>
            </g>
            <g id="Grupo_3094" data-name="Grupo 3094" transform="translate(2.564 33.833)">
              <g id="Grupo_3093" data-name="Grupo 3093">
                <path id="Trazado_1552" data-name="Trazado 1552" d="M272.558,393.694a1.893,1.893,0,0,0,.789-1.495,2.549,2.549,0,1,0-2.5,2.049,3.289,3.289,0,0,0,.342-.019,3.85,3.85,0,0,0,1.387.467.3.3,0,0,0,.293-.146.286.286,0,0,0-.05-.314A1.8,1.8,0,0,1,272.558,393.694Z" transform="translate(-268.347 -390.15)" fill="#fff"/>
                <g id="Grupo_3092" data-name="Grupo 3092" transform="translate(1.225 1.837)">
                  <path id="Trazado_1553" data-name="Trazado 1553" d="M281.072,397.359a.3.3,0,1,0,.305.306A.306.306,0,0,0,281.072,397.359Z" transform="translate(-278.827 -397.359)" fill="#7bc7cc"/>
                  <path id="Trazado_1554" data-name="Trazado 1554" d="M277.266,397.359a.3.3,0,1,0,.3.306A.306.306,0,0,0,277.266,397.359Z" transform="translate(-275.991 -397.359)" fill="#7bc7cc"/>
                  <path id="Trazado_1555" data-name="Trazado 1555" d="M273.46,397.359a.3.3,0,1,0,.3.306A.306.306,0,0,0,273.46,397.359Z" transform="translate(-273.154 -397.359)" fill="#7bc7cc"/>
                </g>
              </g>
            </g>
            <g id="Grupo_3095" data-name="Grupo 3095" transform="translate(2.515 44.794)">
              <path id="Trazado_1556" data-name="Trazado 1556" d="M272.584,433.647a3.915,3.915,0,0,0-3.758,0s-.8.471-.65,1.062a.969.969,0,0,0,.2.38.348.348,0,0,0,.328.089c.155-.025.3-.042.464-.078a.443.443,0,0,0,.5-.518c.013-.144.027-.291.041-.435a3.121,3.121,0,0,1,2,0c.014.144.028.291.041.435a.66.66,0,0,0,.076.338.667.667,0,0,0,.421.18c.168.036.309.053.463.078a.348.348,0,0,0,.328-.089.968.968,0,0,0,.2-.38C273.388,434.118,272.584,433.647,272.584,433.647Z" transform="translate(-268.157 -433.167)" fill="#fff"/>
            </g>
            <g id="Grupo_3096" data-name="Grupo 3096" transform="translate(2.463 15.382)">
              <path id="Trazado_1557" data-name="Trazado 1557" d="M273.3,318.7a.956.956,0,0,1-.956.956h-3.436a.956.956,0,0,1-.956-.956h0a.956.956,0,0,1,.956-.956h3.436a.956.956,0,0,1,.956.956Z" transform="translate(-267.952 -317.739)" fill="#c5e8f1"/>
              <path id="Trazado_1558" data-name="Trazado 1558" d="M270.551,317.739h-1.643a.956.956,0,1,0,0,1.912h1.643Z" transform="translate(-267.952 -317.739)" fill="#fff"/>
            </g>
          </g>
          <path id="Trazado_1559" data-name="Trazado 1559" d="M372.319,289.932H258.286l114.033-71.614Z" transform="translate(-237.715 -212.076)" fill="#f1f2f2" opacity="0.7" style="mix-blend-mode: multiply;isolation: isolate"/>
          <g id="Grupo_3098" data-name="Grupo 3098" transform="translate(0.733 114.368)">
            <path id="Trazado_1560" data-name="Trazado 1560" d="M335.647,643.528H182.413a2.684,2.684,0,0,1-1.981-.863c.828,1.289,4.855,1.724,7.955,1.724H329.673c2.459,0,6.738-.409,7.84-1.608A2.68,2.68,0,0,1,335.647,643.528Z" transform="translate(-180.432 -642.665)" fill="#a4a6a8"/>
          </g>
          <path id="Trazado_1561" data-name="Trazado 1561" d="M336.21,622.928A2.71,2.71,0,0,1,333.5,625.6H180.269a2.627,2.627,0,0,1-.544-.056,1.956,1.956,0,0,1-.206-.062,2.837,2.837,0,0,1-.3-.094,2.958,2.958,0,0,1-.29-.155c-.055-.03-.114-.057-.167-.09a2.658,2.658,0,0,1-.349-.286c-.015-.014-.033-.025-.05-.04a2.7,2.7,0,0,1-.8-1.888l0,0v3.176a2.709,2.709,0,0,0,2.713,2.708H333.5a2.708,2.708,0,0,0,2.71-2.708v-3.187S336.21,622.927,336.21,622.928Z" transform="translate(-177.556 -513.584)" fill="#bcbec0"/>
          <path id="Trazado_1562" data-name="Trazado 1562" d="M437.176,633.433a2.718,2.718,0,0,0,2.663,2.2H460.5a2.707,2.707,0,0,0,2.661-2.2Z" transform="translate(-371.023 -521.417)" fill="#cbccce"/>
          <path id="Trazado_1563" data-name="Trazado 1563" d="M319.827,525.881c-1.075-1.543-2.117-2.711-4.069-2.706H195.141c-1.5,0-2.863.646-4.065,2.706l-13.521,22.679a2.713,2.713,0,0,0,2.713,2.71H333.5a2.712,2.712,0,0,0,2.71-2.71Z" transform="translate(-177.556 -439.253)" fill="#dcddde"/>
          <path id="Trazado_1564" data-name="Trazado 1564" d="M360.862,540.954c.361.87-.606,1.392-1.351,1.392H233.537c-.747,0-1.063-.588-.606-1.392l6.025-10.617c.486-.876.6-1.393,1.351-1.393H352.644c.52-.02.971.782,1.352,1.393Z" transform="translate(-218.662 -443.552)" fill="#cbccce"/>
          <path id="Trazado_1565" data-name="Trazado 1565" d="M435.528,594.981a.812.812,0,0,1-.814.811H382.746a.81.81,0,0,1-.81-.811l1.545-9.023a.815.815,0,0,1,.812-.816h47.953a.816.816,0,0,1,.814.816Z" transform="translate(-329.859 -485.431)" fill="#bcbec0"/>
          <g id="Grupo_3099" data-name="Grupo 3099" transform="translate(16.067 85.506)">
            <path id="Trazado_1566" data-name="Trazado 1566" d="M427.32,571.623H385.332l.592-2.489h41Z" transform="translate(-348.456 -559.008)" fill="#333132"/>
            <path id="Trazado_1567" data-name="Trazado 1567" d="M352.023,571.623h-9.031l1.03-2.489h8.662Z" transform="translate(-316.904 -559.008)" fill="#333132"/>
            <path id="Trazado_1568" data-name="Trazado 1568" d="M315.755,571.623H308.8l1.083-2.489h6.9Z" transform="translate(-291.427 -559.008)" fill="#333132"/>
            <path id="Trazado_1569" data-name="Trazado 1569" d="M282.508,571.623h-6.684l1.088-2.489h6.679Z" transform="translate(-266.851 -559.008)" fill="#333132"/>
            <path id="Trazado_1570" data-name="Trazado 1570" d="M247.459,571.623h-6.848l1.365-2.489h6.708Z" transform="translate(-240.611 -559.008)" fill="#333132"/>
            <path id="Trazado_1571" data-name="Trazado 1571" d="M263.645,562.147H246.471l1.144-2.031h16.9Z" transform="translate(-244.978 -552.287)" fill="#333132"/>
            <path id="Trazado_1572" data-name="Trazado 1572" d="M263.958,554.05H251.349l.987-1.8H264.76Z" transform="translate(-248.613 -546.425)" fill="#333132"/>
            <path id="Trazado_1573" data-name="Trazado 1573" d="M266.2,545.226H255.859l1.1-2h10.114Z" transform="translate(-251.974 -539.699)" fill="#333132"/>
            <path id="Trazado_1574" data-name="Trazado 1574" d="M266.569,537.123h-6.045l1.016-1.864h5.931Z" transform="translate(-255.45 -533.764)" fill="#333132"/>
            <path id="Trazado_1575" data-name="Trazado 1575" d="M297.314,537.123h-5.986l.964-1.864h5.961Z" transform="translate(-278.405 -533.764)" fill="#333132"/>
            <path id="Trazado_1576" data-name="Trazado 1576" d="M328.247,537.123h-5.856l.831-1.864h5.741Z" transform="translate(-301.553 -533.764)" fill="#333132"/>
            <path id="Trazado_1577" data-name="Trazado 1577" d="M360,537.123h-6.172l.741-1.864h5.96Z" transform="translate(-324.983 -533.764)" fill="#333132"/>
            <path id="Trazado_1578" data-name="Trazado 1578" d="M391.175,537.123h-6.333l.451-1.864h6.161Z" transform="translate(-348.091 -533.764)" fill="#333132"/>
            <path id="Trazado_1579" data-name="Trazado 1579" d="M422.3,537.123h-6.356l.244-1.864h6.152Z" transform="translate(-371.269 -533.764)" fill="#333132"/>
            <path id="Trazado_1580" data-name="Trazado 1580" d="M453.672,537.123h-6.123l.012-1.864h6.111Z" transform="translate(-394.82 -533.764)" fill="#333132"/>
            <path id="Trazado_1581" data-name="Trazado 1581" d="M484.809,537.123h-6.163l.011-1.864h6.152Z" transform="translate(-417.994 -533.764)" fill="#333132"/>
            <path id="Trazado_1582" data-name="Trazado 1582" d="M515.369,537.123H509.1v-1.864h6.148Z" transform="translate(-440.69 -533.764)" fill="#333132"/>
            <path id="Trazado_1583" data-name="Trazado 1583" d="M546.528,537.123H540.3l-.148-1.864H546.3Z" transform="translate(-463.824 -533.764)" fill="#333132"/>
            <path id="Trazado_1584" data-name="Trazado 1584" d="M577.813,537.123h-6.318l-.254-1.864h6.147Z" transform="translate(-486.994 -533.764)" fill="#333132"/>
            <path id="Trazado_1585" data-name="Trazado 1585" d="M608.274,537.123h-6.326l-.443-1.864h6.222Z" transform="translate(-509.548 -533.764)" fill="#333132"/>
            <path id="Trazado_1586" data-name="Trazado 1586" d="M639.21,537.123h-6.231l-.517-1.864h6.151Z" transform="translate(-532.616 -533.764)" fill="#333132"/>
            <path id="Trazado_1587" data-name="Trazado 1587" d="M674,537.123H663.588l-.681-1.864h9.915Z" transform="translate(-555.303 -533.764)" fill="#333132"/>
            <path id="Trazado_1588" data-name="Trazado 1588" d="M311.229,545.551h-5.856l.831-1.855h5.882Z" transform="translate(-288.872 -540.052)" fill="#333132"/>
            <path id="Trazado_1589" data-name="Trazado 1589" d="M341.775,545.551h-5.858l.833-1.855h5.744Z" transform="translate(-311.632 -540.052)" fill="#333132"/>
            <path id="Trazado_1590" data-name="Trazado 1590" d="M373.731,545.551h-6.1l.677-1.855h5.869Z" transform="translate(-335.263 -540.052)" fill="#333132"/>
            <path id="Trazado_1591" data-name="Trazado 1591" d="M405.835,545.551H399.58l.414-1.855h5.84Z" transform="translate(-359.074 -540.052)" fill="#333132"/>
            <path id="Trazado_1592" data-name="Trazado 1592" d="M437.62,545.551h-6.163l.013-1.855h6.149Z" transform="translate(-382.828 -540.052)" fill="#333132"/>
            <path id="Trazado_1593" data-name="Trazado 1593" d="M469.379,545.551h-6.166l.011-1.855h6.154Z" transform="translate(-406.492 -540.052)" fill="#333132"/>
            <path id="Trazado_1594" data-name="Trazado 1594" d="M500.5,545.551h-6.2l.01-1.855h6.151Z" transform="translate(-429.665 -540.052)" fill="#333132"/>
            <path id="Trazado_1595" data-name="Trazado 1595" d="M532.211,545.551h-6.36l-.019-1.855h6.149Z" transform="translate(-453.156 -540.052)" fill="#333132"/>
            <path id="Trazado_1596" data-name="Trazado 1596" d="M563.654,545.551H557.13l-.255-1.855h6.419Z" transform="translate(-476.289 -540.052)" fill="#333132"/>
            <path id="Trazado_1597" data-name="Trazado 1597" d="M596.771,545.551h-6.262l-.425-1.855h6.152Z" transform="translate(-501.036 -540.052)" fill="#333132"/>
            <path id="Trazado_1598" data-name="Trazado 1598" d="M628.55,545.551h-6.316L621.7,543.7h6.152Z" transform="translate(-524.598 -540.052)" fill="#333132"/>
            <path id="Trazado_1599" data-name="Trazado 1599" d="M659.408,545.551h-6.364l-.652-1.855h6.151Z" transform="translate(-547.467 -540.052)" fill="#333132"/>
            <path id="Trazado_1600" data-name="Trazado 1600" d="M690.632,545.551h-6.413l-.808-1.855h6.045Z" transform="translate(-570.583 -540.052)" fill="#333132"/>
            <path id="Trazado_1601" data-name="Trazado 1601" d="M314.351,553.853h-6.366l.869-1.868h6.438Z" transform="translate(-290.818 -546.229)" fill="#333132"/>
            <path id="Trazado_1602" data-name="Trazado 1602" d="M347.44,553.853h-6.334l.945-1.868h5.977Z" transform="translate(-315.499 -546.229)" fill="#333132"/>
            <path id="Trazado_1603" data-name="Trazado 1603" d="M380.1,553.853H373.74l.555-1.868h6.12Z" transform="translate(-339.818 -546.229)" fill="#333132"/>
            <path id="Trazado_1604" data-name="Trazado 1604" d="M412.833,553.872h-6.667l.329-1.861h6.339Z" transform="translate(-363.981 -546.247)" fill="#333132"/>
            <path id="Trazado_1605" data-name="Trazado 1605" d="M445.6,553.872h-6.348l.014-1.861H445.6Z" transform="translate(-388.638 -546.247)" fill="#333132"/>
            <rect id="Rectángulo_939" data-name="Rectángulo 939" width="6.378" height="1.861" transform="translate(58.84 5.763)" fill="#333132"/>
            <path id="Trazado_1606" data-name="Trazado 1606" d="M509.486,553.872h-6.461l.012-1.861h6.38Z" transform="translate(-436.161 -546.247)" fill="#333132"/>
            <path id="Trazado_1607" data-name="Trazado 1607" d="M541.879,553.872h-6.516l-.1-1.861h6.381Z" transform="translate(-460.181 -546.247)" fill="#333132"/>
            <path id="Trazado_1608" data-name="Trazado 1608" d="M574.328,553.872h-6.552l-.263-1.861h6.376Z" transform="translate(-484.217 -546.247)" fill="#333132"/>
            <path id="Trazado_1609" data-name="Trazado 1609" d="M606.246,553.872h-6.58l-.467-1.861h6.374Z" transform="translate(-507.829 -546.247)" fill="#333132"/>
            <path id="Trazado_1610" data-name="Trazado 1610" d="M639.245,553.872h-6.451l-.666-1.861h6.3Z" transform="translate(-532.367 -546.247)" fill="#333132"/>
            <path id="Trazado_1611" data-name="Trazado 1611" d="M677.51,553.872H664.831l-.82-1.861h12.324Z" transform="translate(-556.126 -546.247)" fill="#333132"/>
            <path id="Trazado_1612" data-name="Trazado 1612" d="M328.45,562.629h-6.368l.867-1.866h6.28Z" transform="translate(-301.323 -552.769)" fill="#333132"/>
            <path id="Trazado_1613" data-name="Trazado 1613" d="M361.731,562.629h-6.624l.7-1.866h6.465Z" transform="translate(-325.933 -552.769)" fill="#333132"/>
            <path id="Trazado_1614" data-name="Trazado 1614" d="M395.5,562.629H388.98l.546-1.866h6.119Z" transform="translate(-351.175 -552.769)" fill="#333132"/>
            <path id="Trazado_1615" data-name="Trazado 1615" d="M428.73,562.645l-6.414.064.076-1.925h6.38Z" transform="translate(-376.017 -552.785)" fill="#333132"/>
            <rect id="Rectángulo_940" data-name="Rectángulo 940" width="6.351" height="1.861" transform="translate(54.755 7.999)" fill="#333132"/>
            <rect id="Rectángulo_941" data-name="Rectángulo 941" width="6.349" height="1.861" transform="translate(62.971 7.999)" fill="#333132"/>
            <path id="Trazado_1616" data-name="Trazado 1616" d="M527.047,562.645h-6.506l-.112-1.861H526.8Z" transform="translate(-449.13 -552.785)" fill="#333132"/>
            <path id="Trazado_1617" data-name="Trazado 1617" d="M560.559,562.645h-6.57l-.27-1.861H560.1Z" transform="translate(-473.937 -552.785)" fill="#333132"/>
            <path id="Trazado_1618" data-name="Trazado 1618" d="M564.711,571.872h-8.99l-.4-2.4h8.613Z" transform="translate(-475.127 -559.256)" fill="#333132"/>
            <path id="Trazado_1619" data-name="Trazado 1619" d="M604.621,571.872h-7l-.8-2.4h6.841Z" transform="translate(-506.053 -559.256)" fill="#333132"/>
            <path id="Trazado_1620" data-name="Trazado 1620" d="M639.622,574.844H632.87l-.478-1.388h6.449Z" transform="translate(-532.563 -562.229)" fill="#333132"/>
            <path id="Trazado_1621" data-name="Trazado 1621" d="M707.632,574.844h-6.684l-.738-1.388h6.544Z" transform="translate(-583.101 -562.229)" fill="#333132"/>
            <path id="Trazado_1622" data-name="Trazado 1622" d="M671.228,571.674H664.2l-1.214-2.472h6.987Z" transform="translate(-555.362 -559.058)" fill="#333132"/>
            <path id="Trazado_1623" data-name="Trazado 1623" d="M594.013,562.645h-6.443l-.512-1.861h6.381Z" transform="translate(-498.781 -552.785)" fill="#333132"/>
            <path id="Trazado_1624" data-name="Trazado 1624" d="M626.909,562.645h-6.52l-.538-1.861h6.376Z" transform="translate(-523.218 -552.785)" fill="#333132"/>
            <path id="Trazado_1625" data-name="Trazado 1625" d="M669.606,562.645H652.32l-.805-1.861h16.917Z" transform="translate(-546.814 -552.785)" fill="#333132"/>
            <path id="Trazado_1626" data-name="Trazado 1626" d="M271.094,530.619h-5.989l.674-1.227h5.976Z" transform="translate(-258.864 -529.392)" fill="#333132"/>
            <path id="Trazado_1627" data-name="Trazado 1627" d="M301.311,530.619h-5.894l.543-1.227h5.894Z" transform="translate(-281.452 -529.392)" fill="#333132"/>
            <path id="Trazado_1628" data-name="Trazado 1628" d="M332.9,530.619h-6.163l.543-1.227h6.163Z" transform="translate(-304.791 -529.392)" fill="#333132"/>
            <path id="Trazado_1629" data-name="Trazado 1629" d="M364.674,530.619h-6.435l.542-1.227h6.161Z" transform="translate(-328.266 -529.392)" fill="#333132"/>
            <path id="Trazado_1630" data-name="Trazado 1630" d="M396.435,530.619h-6.308l.275-1.227h6.162Z" transform="translate(-352.029 -529.392)" fill="#333132"/>
            <path id="Trazado_1631" data-name="Trazado 1631" d="M429.289,530.619h-6.252l.088-1.227h6.164Z" transform="translate(-376.554 -529.392)" fill="#333132"/>
            <rect id="Rectángulo_942" data-name="Rectángulo 942" width="6.166" height="1.227" transform="translate(54.63)" fill="#333132"/>
            <rect id="Rectángulo_943" data-name="Rectángulo 943" width="6.162" height="1.227" transform="translate(62.554)" fill="#333132"/>
            <path id="Trazado_1632" data-name="Trazado 1632" d="M523.552,530.619H517.34v-1.227h6.086Z" transform="translate(-446.828 -529.392)" fill="#333132"/>
            <path id="Trazado_1633" data-name="Trazado 1633" d="M555.449,530.619h-6.364l-.144-1.227h6.241Z" transform="translate(-470.377 -529.392)" fill="#333132"/>
            <path id="Trazado_1634" data-name="Trazado 1634" d="M587.17,530.619h-6.159l-.273-1.227h6.167Z" transform="translate(-494.072 -529.392)" fill="#333132"/>
            <path id="Trazado_1635" data-name="Trazado 1635" d="M618.126,530.619h-6.548l-.272-1.227h6.433Z" transform="translate(-516.85 -529.392)" fill="#333132"/>
            <path id="Trazado_1636" data-name="Trazado 1636" d="M650.652,530.619h-6.264l-.376-1.227h6.163Z" transform="translate(-541.223 -529.392)" fill="#333132"/>
            <path id="Trazado_1637" data-name="Trazado 1637" d="M681.947,530.619H675.92l-.542-1.227h5.792Z" transform="translate(-564.597 -529.392)" fill="#333132"/>
          </g>
        </g>
      </g>
    </g>
    <g id="Grupo_3542" data-name="Grupo 3542" transform="translate(742.494 2740)">
      <g id="Grupo_3103" data-name="Grupo 3103">
        <path id="Trazado_1638" data-name="Trazado 1638" d="M191.415,50.012c14.992,0,27.19,9.725,27.19,21.679,0,6.329-3.474,12.332-9.532,16.47a1.032,1.032,0,0,0-.424,1.086,26.175,26.175,0,0,0,4.148,9.346c.062.086.112.161.151.224a3.444,3.444,0,0,1-.383.018c-3.187,0-11.378-2.9-15.936-5.638a1.035,1.035,0,0,0-.667-.139,34.67,34.67,0,0,1-4.546.305c-14.995,0-27.193-9.723-27.193-21.674S176.42,50.012,191.415,50.012Z" transform="translate(-164.222 -50.012)" fill="#fff"/>
        <path id="Trazado_1639" data-name="Trazado 1639" d="M306.319,131.081a2.213,2.213,0,1,0,2.213-2.213A2.213,2.213,0,0,0,306.319,131.081Z" transform="translate(-270.112 -108.775)" fill="#a1dbe4"/>
        <path id="Trazado_1640" data-name="Trazado 1640" d="M259.411,131.081a2.214,2.214,0,1,0,2.214-2.213A2.213,2.213,0,0,0,259.411,131.081Z" transform="translate(-235.156 -108.775)" fill="#a1dbe4"/>
        <path id="Trazado_1641" data-name="Trazado 1641" d="M212.5,131.081a2.214,2.214,0,1,0,2.213-2.213A2.214,2.214,0,0,0,212.5,131.081Z" transform="translate(-200.202 -108.775)" fill="#a1dbe4"/>
      </g>
      <g id="Grupo_3133" data-name="Grupo 3133" transform="translate(23.968 9.248)">
        <g id="Grupo_3132" data-name="Grupo 3132" clip-path="url(#clip-path)">
          <g id="Grupo_3131" data-name="Grupo 3131" transform="translate(18.845 5.073)">
            <g id="Grupo_3123" data-name="Grupo 3123" transform="translate(0 47.446)">
              <g id="Grupo_3105" data-name="Grupo 3105" transform="translate(46.11 1.817)">
                <g id="Grupo_3104" data-name="Grupo 3104">
                  <path id="Trazado_1642" data-name="Trazado 1642" d="M513.2,299.635l.081-.03v-.057Z" transform="translate(-513.204 -299.548)" fill="#fcd4c3"/>
                </g>
              </g>
              <path id="Trazado_1643" data-name="Trazado 1643" d="M401.614,307.463c-2.613-4.2-5-7.859-5.757-8.513l-.009.04a1.493,1.493,0,0,0-.56-.426c-.146-.048-.3-.091-.444-.134-1.138-.684-7.531-.939-11.7-1.034l-.007-.067a.181.181,0,0,0-.112-.147l-3.292-1.317a.18.18,0,0,0-.242.125l-7.724,32.415-7.682-32.415a.178.178,0,0,0-.241-.125l-3.292,1.317a.181.181,0,0,0-.112.147l-.01.087c-4.179.111-10.648.384-11.779,1.028-4.552,2.59-16.215,27.974-16.406,35.232a9.074,9.074,0,0,0,.962,4.194c1.293,3.129,5.385,3.317,7.425,3.415,1.671.081,5.088-.553,8.978-1.3l-1.49,48.139c-1.1,7.845,6.221,7.84,15.319,7.84h16.474c9.1,0,16.418,0,15.319-7.84l-1.883-64.649a86.886,86.886,0,0,0,8.265,10.789Zm-51.684,19.115c-.619.094-1.077.149-1.693.246l1.771-3.5Z" transform="translate(-332.244 -294.978)" fill="#fff"/>
              <g id="Grupo_3106" data-name="Grupo 3106" transform="translate(17.663 28.84)">
                <path id="Trazado_1644" data-name="Trazado 1644" d="M419.568,405.708c-.921-.427-9.592.484-17.959,1.63l-.024,1.023-.022,0c8.381-1.148,17.083-2.063,18.006-1.636,1.41.651,1.708,6.733,1.772,9.18l.017,0S421.337,406.526,419.568,405.708Z" transform="translate(-401.562 -405.601)" fill="#231f20" opacity="0.05" style="mix-blend-mode: multiply;isolation: isolate"/>
              </g>
              <path id="Trazado_1645" data-name="Trazado 1645" d="M420.429,451.015s-.005-.37-.025-.973c-.074.02-11.362,3.052-20.089,4.851l-.028,1.168C409.027,454.214,420.429,451.015,420.429,451.015Z" transform="translate(-382.949 -409.878)" fill="#231f20" opacity="0.05" style="mix-blend-mode: multiply;isolation: isolate"/>
              <g id="Grupo_3107" data-name="Grupo 3107" transform="translate(46.982 24.029)">
                <path id="Trazado_1646" data-name="Trazado 1646" d="M516.629,386.723s7.217,1.876,12.177,0Z" transform="translate(-516.629 -386.723)" fill="#f6f6f6"/>
                <path id="Trazado_1647" data-name="Trazado 1647" d="M542.68,402.96s.488,8.26-.814,9.7-5.859.718-5.859.718,5.207-.718,5.37-1.8S542.68,405.294,542.68,402.96Z" transform="translate(-531.069 -398.823)" fill="#f8f8f9"/>
              </g>
              <g id="Grupo_3108" data-name="Grupo 3108" transform="translate(18.673 63.531)">
                <path id="Trazado_1648" data-name="Trazado 1648" d="M418.961,541.749s-6.969,3.7-13.433,0C405.528,541.749,412.651,543.53,418.961,541.749Z" transform="translate(-405.528 -541.749)" fill="#f6f6f6"/>
                <path id="Trazado_1649" data-name="Trazado 1649" d="M407.692,557.986s-.539,8.26.9,9.7,6.464.718,6.464.718-5.746-.718-5.925-1.8S407.692,560.32,407.692,557.986Z" transform="translate(-407.067 -553.849)" fill="#f8f8f9"/>
              </g>
              <g id="Grupo_3109" data-name="Grupo 3109" transform="translate(46.444 63.531)">
                <path id="Trazado_1650" data-name="Trazado 1650" d="M514.515,541.749s7.962,1.876,13.433,0Z" transform="translate(-514.515 -541.749)" fill="#f6f6f6"/>
                <path id="Trazado_1651" data-name="Trazado 1651" d="M543.253,557.986s.539,8.26-.9,9.7-6.464.718-6.464.718,5.746-.718,5.926-1.8S543.253,560.32,543.253,557.986Z" transform="translate(-530.444 -553.849)" fill="#f8f8f9"/>
              </g>
              <path id="Trazado_1652" data-name="Trazado 1652" d="M470.956,297.954c.064-.059-.03-.48-.047-.567-1-.069-1.392.581-2.177,1.132a5.033,5.033,0,0,1-3.143.672,12.2,12.2,0,0,1-3.029-.21c-1.256-.314-1.986-1.337-3.185-1.861,0,.165-.113.384-.118.52a6.478,6.478,0,0,0-1.83-1.084h-.185l7.672,32.374,7.714-32.374h-.374A15.448,15.448,0,0,1,470.956,297.954Z" transform="translate(-425.392 -295.502)" fill="#adafb1"/>
              <g id="Grupo_3111" data-name="Grupo 3111" transform="translate(32.134 1.584)">
                <g id="Grupo_3110" data-name="Grupo 3110" transform="translate(0.968)">
                  <path id="Trazado_1653" data-name="Trazado 1653" d="M462.156,298.634v.055l.281.116C462.346,298.744,462.252,298.688,462.156,298.634Z" transform="translate(-462.156 -298.634)" fill="#fcd4c3"/>
                  <path id="Trazado_1654" data-name="Trazado 1654" d="M465.378,298.77a1.24,1.24,0,0,1-.08.35l1.73.717A8.907,8.907,0,0,0,465.378,298.77Z" transform="translate(-464.497 -298.735)" fill="#fcd4c3"/>
                  <path id="Trazado_1655" data-name="Trazado 1655" d="M483.2,306.67a17.517,17.517,0,0,1-2.325-.077l1.744.72,1.813-.678C484.042,306.668,483.633,306.67,483.2,306.67Z" transform="translate(-476.107 -304.565)" fill="#fcd4c3"/>
                  <path id="Trazado_1656" data-name="Trazado 1656" d="M505.1,299.8c-.908-.063-1.319.468-1.974.979l2.017-.754C505.131,299.927,505.111,299.838,505.1,299.8Z" transform="translate(-492.69 -299.5)" fill="#fcd4c3"/>
                  <path id="Trazado_1657" data-name="Trazado 1657" d="M513.2,299.636l.081-.031v-.057Z" transform="translate(-500.195 -299.315)" fill="#fcd4c3"/>
                </g>
                <path id="Trazado_1658" data-name="Trazado 1658" d="M465.745,330.556l7.438-31.216-.68-.372-6.664,2.491-6.583-2.722s-.608.433-.9.645Z" transform="translate(-458.357 -298.711)" fill="#dcddde"/>
              </g>
              <path id="Trazado_1659" data-name="Trazado 1659" d="M475.086,328.506l2.794,11.795,2.874-12.062-1.5-12.992,1.975-3.432h-6.59l1.978,3.432Z" transform="translate(-438.359 -306.873)" fill="#414042"/>
              <g id="Grupo_3115" data-name="Grupo 3115" transform="translate(54.303 14.496)">
                <g id="Grupo_3112" data-name="Grupo 3112" transform="translate(1.113 0.001)">
                  <path id="Trazado_1660" data-name="Trazado 1660" d="M551.741,350.429l-.115-1.117-1.9,3.67,2.321.439Z" transform="translate(-549.728 -349.312)" fill="#feddba"/>
                </g>
                <path id="Trazado_1661" data-name="Trazado 1661" d="M556.364,356.688l-.845-.159.537-2.833Z" transform="translate(-552.93 -352.578)" fill="#e3be9a"/>
                <g id="Grupo_3113" data-name="Grupo 3113" transform="translate(0 3.671)">
                  <path id="Trazado_1662" data-name="Trazado 1662" d="M547.765,369.578l1.03-5.425-2.321-.439-1.113,5.863Z" transform="translate(-545.36 -363.715)" fill="#a21327"/>
                </g>
                <g id="Grupo_3114" data-name="Grupo 3114" transform="translate(0 3.671)">
                  <path id="Trazado_1663" data-name="Trazado 1663" d="M546.89,369.578l1.059-5.584-1.476-.28-1.113,5.863Z" transform="translate(-545.36 -363.715)" fill="#ba2432"/>
                </g>
                <path id="Trazado_1664" data-name="Trazado 1664" d="M555.518,349.309l-.568,1.1.694.131Z" transform="translate(-552.507 -349.309)" fill="#ba2432"/>
              </g>
              <g id="Grupo_3116" data-name="Grupo 3116" transform="translate(39.342 0.875)">
                <path id="Trazado_1665" data-name="Trazado 1665" d="M486.823,329.363a.169.169,0,0,1-.065-.013.18.18,0,0,1-.11-.209l7.9-33.15a.18.18,0,0,1,.242-.125l3.292,1.317a.181.181,0,0,1,.112.147l1.017,9.217a.18.18,0,0,1-.17.2L496,306.9l2.255,2.044a.182.182,0,0,1,.036.221l-11.312,20.1A.179.179,0,0,1,486.823,329.363Z" transform="translate(-486.644 -295.853)" fill="#fff"/>
                <path id="Trazado_1666" data-name="Trazado 1666" d="M486.823,329.363a.169.169,0,0,1-.065-.013.18.18,0,0,1-.11-.209l7.9-33.15a.18.18,0,0,1,.242-.125l3.292,1.317a.181.181,0,0,1,.112.147l1.017,9.217a.18.18,0,0,1-.17.2L496,306.9l2.255,2.044a.182.182,0,0,1,.036.221l-11.312,20.1A.179.179,0,0,1,486.823,329.363Zm8.025-33.086-7.554,31.7,10.612-18.861-2.468-2.238a.18.18,0,0,1,.112-.312l3.281-.169-.985-8.921Z" transform="translate(-486.644 -295.853)" fill="#f1f2f2"/>
              </g>
              <g id="Grupo_3117" data-name="Grupo 3117" transform="translate(27.177 0.875)">
                <path id="Trazado_1667" data-name="Trazado 1667" d="M451.246,329.363a.182.182,0,0,1-.157-.093l-11.267-20.1a.178.178,0,0,1,.036-.221l2.254-2.044-3.04-.157a.179.179,0,0,1-.17-.2l1.018-9.217a.181.181,0,0,1,.112-.147l3.292-1.317a.178.178,0,0,1,.241.125l7.856,33.15a.179.179,0,0,1-.109.208A.171.171,0,0,1,451.246,329.363Z" transform="translate(-438.901 -295.854)" fill="#fff"/>
                <path id="Trazado_1668" data-name="Trazado 1668" d="M451.246,329.363a.182.182,0,0,1-.157-.093l-11.267-20.1a.178.178,0,0,1,.036-.221l2.254-2.044-3.04-.157a.179.179,0,0,1-.17-.2l1.018-9.217a.181.181,0,0,1,.112-.147l3.292-1.317a.178.178,0,0,1,.241.125l7.856,33.15a.179.179,0,0,1-.109.208A.171.171,0,0,1,451.246,329.363Zm-11.041-20.245,10.57,18.859-7.511-31.7-3,1.2-.985,8.921,3.281.169a.179.179,0,0,1,.111.312Z" transform="translate(-438.901 -295.854)" fill="#f1f2f2"/>
              </g>
              <g id="Grupo_3118" data-name="Grupo 3118" transform="translate(17.457 0.119)">
                <path id="Trazado_1669" data-name="Trazado 1669" d="M406,381.107a.819.819,0,0,1,.047-.158,6.032,6.032,0,0,1-2.7-.974,3.2,3.2,0,0,1-1.576-2.282c-.364-4.61,1.22-10.83,2.071-14.171.06-.234.115-.451.166-.656l-.94-.22c-.051.2-.1.41-.161.637-.865,3.4-2.474,9.716-2.1,14.485a4.128,4.128,0,0,0,2,3.007,6.9,6.9,0,0,0,3.55,1.159A.77.77,0,0,1,406,381.107Z" transform="translate(-400.753 -344.872)" fill="#bdbfc1"/>
                <path id="Trazado_1670" data-name="Trazado 1670" d="M406.963,381.295a.752.752,0,0,1,.225-.412,5.957,5.957,0,0,1-2.616-.945,3.071,3.071,0,0,1-1.508-2.2c-.363-4.61,1.221-10.832,2.072-14.174l.113-.442-.94-.22c-.034.136-.07.277-.107.424-.865,3.4-2.475,9.717-2.1,14.487a4,4,0,0,0,1.931,2.929,6.877,6.877,0,0,0,3.018,1.1A.75.75,0,0,1,406.963,381.295Z" transform="translate(-401.716 -345.059)" fill="#d5d7d8"/>
                <path id="Trazado_1671" data-name="Trazado 1671" d="M423.768,433.2a.966.966,0,0,1-1.085.827s-1.583-.123-1.386-1.161h0c.171-.9,1.643-.751,1.643-.751a.965.965,0,0,1,.828,1.086Z" transform="translate(-416.049 -396.634)" fill="#3e4042"/>
                <path id="Trazado_1672" data-name="Trazado 1672" d="M451.2,369.257c-.009-.178-.017-.344-.025-.506l-.965.032c.009.166.017.337.026.521.173,3.466.5,9.915-.776,14.425a3.28,3.28,0,0,1-2.045,1.979,6.011,6.011,0,0,1-2.757.433.812.812,0,0,1,.011.125.788.788,0,0,1-.587.769,6.171,6.171,0,0,0,1.041.1,6.983,6.983,0,0,0,2.665-.532,4.209,4.209,0,0,0,2.6-2.608C451.7,379.329,451.374,372.776,451.2,369.257Z" transform="translate(-433.041 -349.42)" fill="#b0b2b4"/>
                <path id="Trazado_1673" data-name="Trazado 1673" d="M451.981,369.24q-.013-.235-.024-.451l-.964.032c.008.151.017.307.025.47.184,3.444.526,9.855-.729,14.309a3.068,3.068,0,0,1-1.908,1.867,5.939,5.939,0,0,1-2.765.417.788.788,0,0,1-.107.962c.2.019.406.032.614.032a6.9,6.9,0,0,0,2.632-.52,4,4,0,0,0,2.464-2.5C452.515,379.254,452.168,372.74,451.981,369.24Z" transform="translate(-434.103 -349.448)" fill="#d5d7d8"/>
                <path id="Trazado_1674" data-name="Trazado 1674" d="M419.173,302.282a32.515,32.515,0,0,1,2.635-8.482,3.65,3.65,0,0,1-.815-.543c-.125-.116-.249-.241-.373-.371a24.453,24.453,0,0,0-1,2.312,36.6,36.6,0,0,0-1.89,6.92c-4.11.579-7.094,3.647-8.233,8.522l1.41.33c1.039-4.451,3.652-7.088,7.365-7.459,3.569,1.086,5.618,4.182,5.771,8.751l1.447-.048C425.327,307.25,423.035,303.675,419.173,302.282Z" transform="translate(-407.271 -292.886)" fill="#32556d"/>
                <path id="Trazado_1675" data-name="Trazado 1675" d="M436.61,434.234a.967.967,0,0,0,.9,1.023s1.577.188,1.586-.868h0c.007-.919-1.466-1.058-1.466-1.058a.963.963,0,0,0-1.023.9Z" transform="translate(-427.472 -397.543)" fill="#3e4042"/>
              </g>
              <g id="Grupo_3119" data-name="Grupo 3119" transform="translate(45.994 0)">
                <path id="Trazado_1676" data-name="Trazado 1676" d="M516.356,293.014c-.149.183-.294.358-.439.531,1.282,3.592,2.761,10.414,2.658,22.669a1.182,1.182,0,0,1,1.449-.007c.106-13.04-1.574-20.138-2.993-23.789A8.154,8.154,0,0,0,516.356,293.014Z" transform="translate(-515.11 -292.418)" fill="#32556d"/>
                <path id="Trazado_1677" data-name="Trazado 1677" d="M521.076,394.894a4.163,4.163,0,1,1-4.163-4.163A4.163,4.163,0,0,1,521.076,394.894Z" transform="translate(-512.75 -365.68)" fill="#b0b2b4"/>
                <path id="Trazado_1678" data-name="Trazado 1678" d="M521.888,396.13a3.741,3.741,0,1,1-3.74-3.74A3.741,3.741,0,0,1,521.888,396.13Z" transform="translate(-513.985 -366.917)" fill="#e6e7e8"/>
                <path id="Trazado_1679" data-name="Trazado 1679" d="M516.445,399.789l-1.292-1.356a3.7,3.7,0,0,0-.712,2.037l1.817.012A1.9,1.9,0,0,1,516.445,399.789Z" transform="translate(-514.01 -371.42)" fill="#f6f6f6"/>
                <path id="Trazado_1680" data-name="Trazado 1680" d="M535.168,409.667a1.917,1.917,0,0,1-.345.586l.943,1.615a3.744,3.744,0,0,0,1.172-1.769Z" transform="translate(-529.199 -379.791)" fill="#f6f6f6"/>
                <path id="Trazado_1681" data-name="Trazado 1681" d="M526.442,388.557a1.916,1.916,0,0,1,.965.268v-3.343c0-.367-.419-.663-.935-.663s-.935.3-.935.663v3.311A1.9,1.9,0,0,1,526.442,388.557Z" transform="translate(-522.279 -361.275)" fill="#bdbfc1"/>
                <path id="Trazado_1682" data-name="Trazado 1682" d="M526.442,388.557a1.821,1.821,0,0,1,.3.031v-3.737a1.211,1.211,0,0,0-.272-.032c-.516,0-.935.3-.935.663v3.311A1.9,1.9,0,0,1,526.442,388.557Z" transform="translate(-522.279 -361.275)" fill="#cccece"/>
                <path id="Trazado_1683" data-name="Trazado 1683" d="M525.372,401.421a1.931,1.931,0,1,1-1.931-1.931A1.93,1.93,0,0,1,525.372,401.421Z" transform="translate(-519.279 -372.207)" fill="#bdbfc1"/>
                <path id="Trazado_1684" data-name="Trazado 1684" d="M526.322,402.866a1.437,1.437,0,1,1-1.436-1.437A1.437,1.437,0,0,1,526.322,402.866Z" transform="translate(-520.722 -373.652)" fill="#f8f8f9"/>
              </g>
              <g id="Grupo_3122" data-name="Grupo 3122" transform="translate(0.07 22.703)">
                <g id="Grupo_3120" data-name="Grupo 3120" transform="translate(36.364)">
                  <path id="Trazado_1685" data-name="Trazado 1685" d="M494.175,387.307c-.173-1.846-4.582-.462-5.571-.179-1.114.319-2.215.535-3.27.758-.145.01-.288.025-.42.042-.758.1-1.5.2-2.242.314a.736.736,0,0,1-.142-.73c.174-.664.314-1.337.509-2,.274-.924,1.924-3.4.206-3.926-1.534-.465-1.931,1.447-2.514,2.452-.769,1.327-1.209,2.889-2.556,3.779-.717.472-1.366.905-1.958,1.379a7.157,7.157,0,0,0-.985.677c.706,1.873.925,5.578.993,7.638a8.141,8.141,0,0,0,1.2.362c1.328.757,4.528.848,5.976.7a10.244,10.244,0,0,0,2.311-.45,3.719,3.719,0,0,0,1.335-.632,1.436,1.436,0,0,0,.479-.829,1.3,1.3,0,0,0-.029-.461.776.776,0,0,0-.08-.2c-.024-.042-.124-.133-.12-.173,0-.024.075-.084.092-.1.08-.084.175-.146.261-.222a1.518,1.518,0,0,0,.464-1.415,1.016,1.016,0,0,0-.265-.577c-.154-.148-.21-.29-.407-.367a2.26,2.26,0,0,0,.54-.648,2.615,2.615,0,0,0,.159-.419,1.9,1.9,0,0,0-.04-.793,1.453,1.453,0,0,0-1.053-1.041s0-.007,0-.01c.918-.235,1.694-.463,2.611-.661C490.781,389.336,494.315,388.8,494.175,387.307Z" transform="translate(-475.232 -381.518)" fill="#fcd4c3"/>
                  <path id="Trazado_1686" data-name="Trazado 1686" d="M516.009,427.145a8.1,8.1,0,0,0-1.977.152l-.281.183A14.784,14.784,0,0,0,516.009,427.145Z" transform="translate(-503.936 -415.517)" fill="#f7c3b1"/>
                  <path id="Trazado_1687" data-name="Trazado 1687" d="M516.89,437.532a3.835,3.835,0,0,0-1.409.059l-.281.183A8.2,8.2,0,0,0,516.89,437.532Z" transform="translate(-505.016 -423.229)" fill="#f7c3b1"/>
                  <path id="Trazado_1688" data-name="Trazado 1688" d="M516.685,415.691a3.267,3.267,0,0,0-1.315.042l-.281.183A7.291,7.291,0,0,0,516.685,415.691Z" transform="translate(-504.933 -406.945)" fill="#f7c3b1"/>
                </g>
                <g id="Grupo_3121" data-name="Grupo 3121" transform="translate(0 7.157)">
                  <path id="Trazado_1689" data-name="Trazado 1689" d="M334.113,414.24c1.922-1.241,32.235-5.346,34-4.528s1.789,10.2,1.789,10.2-23.812,6.4-29.069,6.145c-2.056-.1-6.2-.285-7.46-3.488C331.082,416.72,334.113,414.24,334.113,414.24Z" transform="translate(-332.518 -409.605)" fill="#fff"/>
                </g>
              </g>
            </g>
            <g id="Grupo_3130" data-name="Grupo 3130" transform="translate(21.407)">
              <path id="Trazado_1690" data-name="Trazado 1690" d="M459.717,160.025c-.063-.708-.1-1.47-.173-2.223a3,3,0,0,0-.45-.725,11.307,11.307,0,0,0-3.1-2.051c-2.87-1.453-6.121-1.6-9.263-1.6-1.686,0-3.357,0-5.021-.151-1.376-.128-2.958.193-4.259-.358a8.925,8.925,0,0,0-1.116.266c-2.856.923-2.706,4.239-2.943,6.831-.03.354-.067.694-.117,1.013a60.23,60.23,0,0,0-.652,8.142,29.589,29.589,0,0,0,.206,4.875c.013.095.031.209.048.336a3.513,3.513,0,0,1,.657.969c.015.03.035.062.051.093a23.872,23.872,0,0,1,1.319,3.288,11.506,11.506,0,0,0,6.367,6.793,7.956,7.956,0,0,0,3.458.676,2.346,2.346,0,0,0,1.845-1.69c.572,2.2,3.024,1.929,4.547,1.331a11.005,11.005,0,0,0,5.442-4.348,33.391,33.391,0,0,0,1.82-3.614c.523-1.226.8-2.564,1.262-3.812.218-.593.469-.836.713-.85a33.728,33.728,0,0,0,.114-4.04,60.227,60.227,0,0,0-.634-8.142C459.784,160.718,459.749,160.378,459.717,160.025Z" transform="translate(-428.439 -141.02)" fill="#f7926b"/>
              <path id="Trazado_1691" data-name="Trazado 1691" d="M443.745,187.671h0c.591,0,1.16.007,1.673.037a39,39,0,0,1,4.44.769.511.511,0,0,0,.137-.261.562.562,0,0,0-.111-.506,12.642,12.642,0,0,0-2.25-1.018,13.222,13.222,0,0,0-3.227-.77c-.889-.082-3.142,1.167-3.621,1.593-.072.064-.225.185-.367.322C441.479,187.739,442.651,187.679,443.745,187.671Z" transform="translate(-434.261 -165.61)" fill="#594a42"/>
              <path id="Trazado_1692" data-name="Trazado 1692" d="M497.992,188.312a39.475,39.475,0,0,1,4.279-.6c.567-.034,1.2-.043,1.864-.035h.1c1.109.017,2.281.086,3.322.191-.148-.148-.315-.278-.394-.349-.478-.426-2.732-1.675-3.621-1.593a13.2,13.2,0,0,0-3.226.77,12.6,12.6,0,0,0-2.25,1.018.564.564,0,0,0-.112.506A.586.586,0,0,0,497.992,188.312Z" transform="translate(-477.127 -165.61)" fill="#594a42"/>
              <path id="Trazado_1693" data-name="Trazado 1693" d="M419.754,209.276c-.163-2.19-.28-4.385-.589-6.558-.141-.986-.275-1.974-.383-2.964a2.581,2.581,0,0,0-1.863.61c-.979,1.163-.651,3.357-.4,4.848a7.88,7.88,0,0,0,2.144,4.371,2.708,2.708,0,0,0,.723.364,1.824,1.824,0,0,0,.28.1A6.077,6.077,0,0,0,419.754,209.276Z" transform="translate(-416.256 -175.918)" fill="#fcd4c3"/>
              <g id="Grupo_3124" data-name="Grupo 3124" transform="translate(32.725 23.802)">
                <path id="Trazado_1694" data-name="Trazado 1694" d="M547.448,199.978a1.867,1.867,0,0,0-1.8-.224c-.11.962-.241,1.922-.381,2.881-.3,2.071-.423,4.16-.579,6.248.031.083.06.167.085.256.01.04.018.082.025.123a2.94,2.94,0,0,0,1.412-.583c1.274-.89,1.5-2.839,1.663-4.378C548,203.129,548.374,200.786,547.448,199.978Z" transform="translate(-544.687 -199.627)" fill="#fcd4c3"/>
              </g>
              <path id="Trazado_1695" data-name="Trazado 1695" d="M456.677,123.69a14.325,14.325,0,0,0-.815-7.269,5.565,5.565,0,0,0-.655-1.182c-.012-.292-.028-.582-.057-.862-.42-4.12-3.433-6.193-7.271-7.121a40.286,40.286,0,0,0-7.765-.7,60.994,60.994,0,0,0-7.116-.3,7,7,0,0,0-5.162,3.836,4.987,4.987,0,0,0-.555,2.251,4.379,4.379,0,0,0,.365,1.839A5.437,5.437,0,0,0,426,116.411a14.309,14.309,0,0,0-.829,7.267c.151,1.545-.109,3.179.007,4.749.113,1.535.319,3.063.537,4.586.309,2.173.426,4.369.589,6.558,0,.384-.167,1.021-.2,1.692-.013.313-.114,3.463-.1,3.449.2-.154.464-.075.641-.147.362,1.642.485,3.2,1.436,4.54a16.468,16.468,0,0,1,2.084,3.6.708.708,0,0,0,.456-.743,27.5,27.5,0,0,0,1.948,2.193c.792.73,1.925.872,2.686,1.648.006-.136.121-.355.118-.52,1.2.525,1.929,1.548,3.185,1.861a12.2,12.2,0,0,0,3.029.209,5.032,5.032,0,0,0,3.143-.672c.784-.551,1.176-1.2,2.177-1.132.017.087.111.508.047.567a17.954,17.954,0,0,0,1.676-1.856c.209-.258,2.26-1.859,2.25-1.944a3.259,3.259,0,0,1,.126.8A11.989,11.989,0,0,0,452.9,150.2c.43-.955.563-2.173,1.264-2.985,0,.265.085.625.091.827.321-2.287,1.243-4.565,1.355-6.871a5.212,5.212,0,0,0,0-1.64c-.025-.088-.054-.173-.085-.256.156-2.089.28-4.178.579-6.248.221-1.524.431-3.051.548-4.585C456.779,126.869,456.521,125.234,456.677,123.69Zm-2.667,15.574c-.458,1.248-.739,2.586-1.262,3.812a33.385,33.385,0,0,1-1.82,3.614,11.006,11.006,0,0,1-5.442,4.348c-1.523.6-3.975.866-4.547-1.331a2.346,2.346,0,0,1-1.845,1.69,7.956,7.956,0,0,1-3.458-.675,11.507,11.507,0,0,1-6.367-6.793,23.874,23.874,0,0,0-1.319-3.288c-.017-.031-.036-.063-.052-.093a3.514,3.514,0,0,0-.657-.969c-.017-.127-.035-.241-.048-.336a29.589,29.589,0,0,1-.206-4.875,60.229,60.229,0,0,1,.652-8.142c.05-.319.087-.659.117-1.013.237-2.592.087-5.908,2.943-6.831a8.929,8.929,0,0,1,1.116-.266c1.3.551,2.884.23,4.259.358,1.663.155,3.335.151,5.021.151,3.142,0,6.393.142,9.263,1.6a11.308,11.308,0,0,1,3.1,2.051,3,3,0,0,1,.451.725c.074.753.11,1.515.173,2.223.031.352.067.692.116,1.013a60.241,60.241,0,0,1,.634,8.142,33.742,33.742,0,0,1-.114,4.04C454.479,138.428,454.228,138.671,454.01,139.264Z" transform="translate(-422.808 -106.214)" fill="#3c2415"/>
              <g id="Grupo_3125" data-name="Grupo 3125" transform="translate(2.24 22.059)">
                <path id="Trazado_1696" data-name="Trazado 1696" d="M435.559,201.61c-.172-1.082-.69-3.813,2.043-4.006a26.428,26.428,0,0,1,6.849.5c.884.249,2.153.478,1.518,3.287-.529,2.343-1.385,3.871-4,3.976C439.318,205.471,436.221,205.781,435.559,201.61Z" transform="translate(-432.766 -196.342)" fill="#fff" opacity="0.2"/>
                <path id="Trazado_1697" data-name="Trazado 1697" d="M497.5,198a26.818,26.818,0,0,1,7.531-.525c1.329.192,2.458-.04,2.158,3.874-.264,3.446-2.934,3.82-4.6,3.9s-5.714.19-6.226-3.515C495.934,198.628,497.083,198.11,497.5,198Z" transform="translate(-478.121 -196.22)" fill="#fff" opacity="0.2"/>
                <path id="Trazado_1698" data-name="Trazado 1698" d="M455.812,193.409a31.082,31.082,0,0,0-7.859-.583c-2.365.137-5.276.893-7.121,1-3.15-.1-4.5-.866-6.867-1a31,31,0,0,0-7.865.585l-1.051-.127v1.386l1.123,1.42a2.7,2.7,0,0,1,.639,1.134c.036.1.456,2.163.491,2.316.273,1.08.8,3.186,4.465,3.245,4.387.072,6.72-.186,7.429-4.822,0,0,.278-1.807,1.666-1.657,1.208,0,1.48,1.675,1.48,1.675.727,4.914,3.3,4.964,7.689,4.8,3.371-.121,4.253-2.014,4.623-3.1.062-.19.5-2.478.542-2.6.294-.843.552-1,.552-1l1.1-1.42v-1.386Zm-17.561,4.425c-.528,2.343-1.385,3.871-4,3.976-2.648.106-5.746.416-6.407-3.755-.172-1.082-.69-3.813,2.043-4.006a26.427,26.427,0,0,1,6.849.5C437.617,194.8,438.886,195.025,438.251,197.834Zm15.862.082c-.264,3.446-2.934,3.82-4.6,3.9s-5.715.19-6.226-3.515c-.43-3.107.72-3.626,1.134-3.736a26.817,26.817,0,0,1,7.531-.525C453.283,194.235,454.412,194,454.113,197.917Z" transform="translate(-425.048 -192.787)"/>
                <path id="Trazado_1699" data-name="Trazado 1699" d="M429.738,197.92l-.063-.514c-.013-.173-.019-.348-.015-.524.013-.35-.151-1.054.045-1.364s.736-.326,1.044-.354.4-.038.577-.063a3.323,3.323,0,0,1,.52-.017v.01a3.371,3.371,0,0,0-1,.207,1.655,1.655,0,0,0-.795.62,2.05,2.05,0,0,0-.3.969,10.287,10.287,0,0,0,0,1.031Z" transform="translate(-428.447 -194.495)" fill="#1e1e1e"/>
                <path id="Trazado_1700" data-name="Trazado 1700" d="M537.355,197.939l.062-.514a4.619,4.619,0,0,0,.014-.523c-.013-.349.153-1.054-.046-1.364s-.736-.327-1.042-.354-.406-.039-.578-.063a3.242,3.242,0,0,0-.522-.018v.012a3.3,3.3,0,0,1,1,.206,1.65,1.65,0,0,1,.8.62,2.054,2.054,0,0,1,.3.97,10.138,10.138,0,0,1,0,1.029Z" transform="translate(-507.165 -194.51)" fill="#1e1e1e"/>
              </g>
              <g id="Grupo_3127" data-name="Grupo 3127" transform="translate(9.074 34.558)">
                <path id="Trazado_1701" data-name="Trazado 1701" d="M464.4,242.683c-1.433-1.066-2.878-1.1-3.565-.227-.686-.877-2.132-.839-3.564.227-2.733,2.037-4.254,2.45-5.405.4,0,0,.417,3.267,3.515,3.45,1.613.1,4.422-.582,5.454-1.887,1.032,1.3,3.842,1.984,5.455,1.887,3.1-.183,3.514-3.45,3.514-3.45C468.654,245.134,467.133,244.72,464.4,242.683Z" transform="translate(-451.867 -241.837)" fill="#46231c"/>
                <g id="Grupo_3126" data-name="Grupo 3126" transform="translate(1.976 0.711)">
                  <path id="Trazado_1702" data-name="Trazado 1702" d="M465.316,245.119a1.987,1.987,0,0,0-.695.047,3.453,3.453,0,0,0-.686.25c-.45.217-.883.5-1.335.762a5.247,5.247,0,0,1-1.437.626,2.563,2.563,0,0,1-.784.064,2.614,2.614,0,0,1-.756-.173,2.541,2.541,0,0,0,.759.111,2.514,2.514,0,0,0,.75-.12,5.144,5.144,0,0,0,1.338-.715c.424-.292.833-.61,1.294-.879a3.786,3.786,0,0,1,.743-.339,2.465,2.465,0,0,1,.838-.124h.007a.247.247,0,0,1,.237.254.245.245,0,0,1-.253.236Z" transform="translate(-459.623 -244.628)" fill="#542e26"/>
                  <path id="Trazado_1703" data-name="Trazado 1703" d="M491.371,245.119a1.978,1.978,0,0,1,.693.047,3.476,3.476,0,0,1,.687.25c.449.217.883.5,1.333.762a5.324,5.324,0,0,0,1.437.626,2.558,2.558,0,0,0,1.54-.109,2.526,2.526,0,0,1-.758.111,2.493,2.493,0,0,1-.748-.12,5.131,5.131,0,0,1-1.34-.715c-.423-.292-.831-.61-1.294-.879a3.841,3.841,0,0,0-.743-.339,2.47,2.47,0,0,0-.838-.124h-.008a.248.248,0,0,0-.236.254.245.245,0,0,0,.254.236Z" transform="translate(-483.077 -244.628)" fill="#542e26"/>
                </g>
              </g>
              <g id="Grupo_3128" data-name="Grupo 3128" transform="translate(7.969 24.628)">
                <path id="Trazado_1704" data-name="Trazado 1704" d="M453.594,204.694c0,1.008-1.358,1.825-3.033,1.825s-3.031-.817-3.031-1.825,1.357-1.827,3.031-1.827S453.594,203.685,453.594,204.694Z" transform="translate(-447.529 -202.867)" fill="#fff"/>
                <path id="Trazado_1705" data-name="Trazado 1705" d="M455.91,204.694a1.828,1.828,0,1,1-1.829-1.827A1.827,1.827,0,0,1,455.91,204.694Z" transform="translate(-451.05 -202.867)" fill="#46301c"/>
                <path id="Trazado_1706" data-name="Trazado 1706" d="M461.673,204.415a.653.653,0,1,1-.653-.652A.654.654,0,0,1,461.673,204.415Z" transform="translate(-457.097 -203.535)" fill="#fff"/>
              </g>
              <g id="Grupo_3129" data-name="Grupo 3129" transform="translate(22.053 24.628)">
                <path id="Trazado_1707" data-name="Trazado 1707" d="M508.869,204.694c0,1.008-1.358,1.825-3.033,1.825s-3.032-.817-3.032-1.825,1.356-1.827,3.032-1.827S508.869,203.685,508.869,204.694Z" transform="translate(-502.804 -202.867)" fill="#fff"/>
                <path id="Trazado_1708" data-name="Trazado 1708" d="M511.191,204.694a1.827,1.827,0,1,1-1.828-1.827A1.826,1.826,0,0,1,511.191,204.694Z" transform="translate(-506.332 -202.867)" fill="#46301c"/>
                <path id="Trazado_1709" data-name="Trazado 1709" d="M516.947,204.415a.654.654,0,1,1-.652-.652A.653.653,0,0,1,516.947,204.415Z" transform="translate(-512.369 -203.535)" fill="#fff"/>
              </g>
              <path id="Trazado_1710" data-name="Trazado 1710" d="M472.857,261.319a9.418,9.418,0,0,0,7.324.1,7.184,7.184,0,0,0-3.644-.09A5.685,5.685,0,0,0,472.857,261.319Z" transform="translate(-458.435 -221.593)" fill="#deb9a2"/>
            </g>
          </g>
        </g>
      </g>
      <g id="Grupo_3139" data-name="Grupo 3139" transform="translate(101.788 28.549)">
        <g id="Grupo_3137" data-name="Grupo 3137">
          <path id="Trazado_1711" data-name="Trazado 1711" d="M567.681,260.6a2.057,2.057,0,0,0,1.946,2.161l51.291,2.688a2.056,2.056,0,0,0,2.161-1.946l3.779-72.106a2.057,2.057,0,0,0-1.946-2.162l-51.291-2.688a2.057,2.057,0,0,0-2.162,1.946Z" transform="translate(-566.663 -180.305)" fill="#784319"/>
          <path id="Trazado_1712" data-name="Trazado 1712" d="M563.7,260.391a2.057,2.057,0,0,0,1.947,2.161l51.291,2.688a2.057,2.057,0,0,0,2.162-1.946l3.779-72.105a2.057,2.057,0,0,0-1.947-2.162l-51.29-2.688a2.057,2.057,0,0,0-2.162,1.946Z" transform="translate(-563.695 -180.149)" fill="#8b4e21"/>
          <path id="Trazado_1713" data-name="Trazado 1713" d="M631.752,214l-46.957-2.461s-.325,10.011-1.464,31.75c-.889,16.957-3.029,34.574-3.029,34.574l48.315,2.532s.782-17.689,1.671-34.646C631.427,224.015,631.752,214,631.752,214Z" transform="translate(-576.07 -198.934)" fill="#231f20" opacity="0.1" style="mix-blend-mode: multiply;isolation: isolate"/>
          <path id="Trazado_1714" data-name="Trazado 1714" d="M629.74,210.468l-46.957-2.461s-.325,10.012-1.465,31.752c-.889,16.956-3,33.995-3,33.995l46.958,2.461s2.11-17.039,3-33.994C629.415,220.479,629.74,210.468,629.74,210.468Z" transform="translate(-574.593 -196.298)" fill="#fff"/>
          <g id="Grupo_3134" data-name="Grupo 3134" transform="translate(16.657)">
            <path id="Trazado_1715" data-name="Trazado 1715" d="M656.942,170.872l-6.205-.325.175-3.334a4.789,4.789,0,0,0-9.566-.5l-.175,3.334-6.2-.325a3.292,3.292,0,0,0-3.459,3.115l-.162,3.092,28.55,1.5.161-3.092A3.292,3.292,0,0,0,656.942,170.872Zm-11.52-1.523a2.421,2.421,0,1,1,2.544-2.29A2.419,2.419,0,0,1,645.422,169.35Z" transform="translate(-630.765 -162.143)" fill="#a0a2a4"/>
            <path id="Trazado_1716" data-name="Trazado 1716" d="M654.664,170.753l-6.2-.325.175-3.334a4.789,4.789,0,0,0-9.565-.5l-.175,3.334-6.206-.325a3.291,3.291,0,0,0-3.458,3.115l-.162,3.092,28.55,1.5.162-3.092A3.292,3.292,0,0,0,654.664,170.753Zm-10.94-1.492a2.421,2.421,0,1,1,2.544-2.29A2.419,2.419,0,0,1,643.724,169.261Z" transform="translate(-629.067 -162.055)" fill="#cfd1d2"/>
            <rect id="Rectángulo_945" data-name="Rectángulo 945" width="3.096" height="28.589" transform="matrix(0.052, -0.999, 0.999, 0.052, 0, 13.753)" fill="#c3c6c7"/>
            <path id="Trazado_1717" data-name="Trazado 1717" d="M680.137,171.353a2.372,2.372,0,0,1,.36.049,2.418,2.418,0,0,0-.25,4.775,2.49,2.49,0,0,1-.363.01,2.421,2.421,0,0,1,.253-4.834Z" transform="translate(-665.227 -168.981)" fill="#a0a2a4"/>
          </g>
          <rect id="Rectángulo_946" data-name="Rectángulo 946" width="2.089" height="36.553" transform="translate(12.419 37.361) rotate(-87)" fill="#9fa1a3" opacity="0.5"/>
          <rect id="Rectángulo_947" data-name="Rectángulo 947" width="2.09" height="36.553" transform="matrix(0.052, -0.999, 0.999, 0.052, 12.237, 40.819)" fill="#9fa1a3" opacity="0.5"/>
          <path id="Trazado_1718" data-name="Trazado 1718" d="M612.957,373.048l-5.675-.3a.629.629,0,0,1-.6-.661l.4-5.361a.629.629,0,0,1,.661-.59l5.555.291a.63.63,0,0,1,.6.661l-.281,5.362A.629.629,0,0,1,612.957,373.048Zm-5.231-6.474a.194.194,0,0,0-.2.183l-.4,5.36a.192.192,0,0,0,.184.2l5.675.3a.193.193,0,0,0,.2-.183l.281-5.362a.193.193,0,0,0-.183-.2Z" transform="translate(-595.731 -314.136)" fill="#c9cacc"/>
          <path id="Trazado_1719" data-name="Trazado 1719" d="M612.842,373.658h-.006a.483.483,0,0,1-.387-.243,9.094,9.094,0,0,0-1.361-1.83.481.481,0,1,1,.652-.708,8.539,8.539,0,0,1,1.181,1.47,12.125,12.125,0,0,1,4.718-3.48.481.481,0,0,1,.234.933,7.2,7.2,0,0,0-2.069,1.178,13.061,13.061,0,0,0-2.552,2.489A.478.478,0,0,1,612.842,373.658Z" transform="translate(-598.896 -316.159)" fill="#d01f37"/>
          <path id="Trazado_1720" data-name="Trazado 1720" d="M608.914,413.172l-5.555-.291a.63.63,0,0,1-.6-.661l.522-5.36a.626.626,0,0,1,.66-.586l5.555.291a.63.63,0,0,1,.6.661l-.522,5.359A.628.628,0,0,1,608.914,413.172Zm-4.991-6.462a.193.193,0,0,0-.2.182l-.522,5.359a.192.192,0,0,0,.184.195l5.555.291a.2.2,0,0,0,.2-.183l.522-5.36a.191.191,0,0,0-.184-.194Z" transform="translate(-592.808 -344.045)" fill="#c9cacc"/>
          <path id="Trazado_1721" data-name="Trazado 1721" d="M609.39,413.8h-.007a.479.479,0,0,1-.387-.243,9.143,9.143,0,0,0-1.362-1.83.481.481,0,0,1,.652-.708,8.6,8.6,0,0,1,1.18,1.47,12.125,12.125,0,0,1,4.718-3.479.481.481,0,1,1,.235.933,7.165,7.165,0,0,0-2.07,1.177,13.078,13.078,0,0,0-2.552,2.489A.479.479,0,0,1,609.39,413.8Z" transform="translate(-596.323 -346.071)" fill="#d01f37"/>
          <rect id="Rectángulo_948" data-name="Rectángulo 948" width="2.089" height="36.553" transform="translate(12.056 44.275) rotate(-87)" fill="#9fa1a3" opacity="0.5"/>
          <rect id="Rectángulo_949" data-name="Rectángulo 949" width="2.089" height="21.842" transform="matrix(0.052, -0.999, 0.999, 0.052, 11.875, 47.732)" fill="#9fa1a3" opacity="0.5"/>
          <rect id="Rectángulo_950" data-name="Rectángulo 950" width="2.089" height="27.767" transform="translate(19.915 55.207) rotate(-87)" fill="#9fa1a3" opacity="0.5"/>
          <rect id="Rectángulo_951" data-name="Rectángulo 951" width="2.09" height="16.447" transform="translate(19.751 58.339) rotate(-87)" fill="#9fa1a3" opacity="0.5"/>
          <path id="Trazado_1722" data-name="Trazado 1722" d="M665.295,414.185l-27.37-1.434.23-2.079,27.369,1.434Z" transform="translate(-619.01 -347.322)" fill="#9fa1a3" opacity="0.5"/>
          <path id="Trazado_1723" data-name="Trazado 1723" d="M653.355,425.88l-16.546-.867.229-2.08,16.546.867Z" transform="translate(-618.179 -356.46)" fill="#9fa1a3" opacity="0.5"/>
          <g id="Grupo_3136" data-name="Grupo 3136" transform="translate(25.095 19.001)">
            <g id="Grupo_3135" data-name="Grupo 3135">
              <path id="Trazado_1724" data-name="Trazado 1724" d="M675.3,243.536a6.566,6.566,0,1,1-6.212-6.9A6.565,6.565,0,0,1,675.3,243.536Z" transform="translate(-662.182 -236.626)" fill="#d01f37"/>
            </g>
            <path id="Trazado_1725" data-name="Trazado 1725" d="M675.921,244.451l0,0-2.392-.125-.175,3.343-3.343-.175-.125,2.4h0l0,0,3.191,3.045-.025.471h0l2.144,2.047a6.565,6.565,0,0,0,5.84-6.122Z" transform="translate(-667.921 -242.367)" fill="#ededee" style="mix-blend-mode: multiply;isolation: isolate"/>
            <path id="Trazado_1726" data-name="Trazado 1726" d="M679.091,247.973l-3.342-.175.175-3.343-2.4-.126-.175,3.343-3.343-.175-.125,2.4,3.343.175-.175,3.343,2.4.126.175-3.343,3.343.175Z" transform="translate(-667.921 -242.367)" fill="#fff"/>
          </g>
        </g>
        <g id="Grupo_3138" data-name="Grupo 3138" transform="translate(53.466 26.97)">
          <path id="Trazado_1727" data-name="Trazado 1727" d="M777.563,358.226a2.872,2.872,0,0,1-.07-5.73l1.517-.118a2.872,2.872,0,0,1,.446,5.726l-1.516.118A2.872,2.872,0,0,1,777.563,358.226Z" transform="translate(-774.509 -330.845)" fill="#fcd4c3"/>
          <path id="Trazado_1728" data-name="Trazado 1728" d="M776.955,331.393a3.214,3.214,0,0,1-.063-6.415l1.762-.128a3.214,3.214,0,1,1,.467,6.411l-1.76.128A3.177,3.177,0,0,1,776.955,331.393Z" transform="translate(-773.814 -310.331)" fill="#fcd4c3"/>
          <path id="Trazado_1729" data-name="Trazado 1729" d="M776.729,302.45a3.384,3.384,0,0,1-.05-6.756l2.071-.142a3.384,3.384,0,0,1,.465,6.752l-2.072.142A3.464,3.464,0,0,1,776.729,302.45Z" transform="translate(-773.526 -288.499)" fill="#fcd4c3"/>
          <path id="Trazado_1730" data-name="Trazado 1730" d="M779.939,274.452a3.214,3.214,0,0,1-.063-6.416l1.761-.128a3.214,3.214,0,0,1,.468,6.411l-1.761.129A3.324,3.324,0,0,1,779.939,274.452Z" transform="translate(-776.038 -267.899)" fill="#fcd4c3"/>
        </g>
      </g>
    </g>
    <g id="Grupo_3229" data-name="Grupo 3229" transform="translate(193 413)">
      <g id="Elipse_568" data-name="Elipse 568" transform="translate(432 2327)" fill="#59bfd6" stroke="#227d84" stroke-width="3">
        <circle cx="20" cy="20" r="20" stroke="none"/>
        <circle cx="20" cy="20" r="18.5" fill="none"/>
      </g>
      <path id="Trazado_3106" data-name="Trazado 3106" d="M8.272-9.658a6.008,6.008,0,0,1,2.684.594A4.689,4.689,0,0,1,12.87-7.381a4.537,4.537,0,0,1,.7,2.519,4.8,4.8,0,0,1-.77,2.706A5.023,5.023,0,0,1,10.7-.363,6.857,6.857,0,0,1,7.744.264a6.541,6.541,0,0,1-5.06-1.98A8.042,8.042,0,0,1,.858-7.37a9.476,9.476,0,0,1,.99-4.488A6.741,6.741,0,0,1,4.609-14.7a8.419,8.419,0,0,1,4.1-.968,9.993,9.993,0,0,1,2.365.275A6.329,6.329,0,0,1,13-14.608l-1.32,2.618A5.052,5.052,0,0,0,8.8-12.76a4.192,4.192,0,0,0-3.1,1.144A4.788,4.788,0,0,0,4.466-8.294,5.145,5.145,0,0,1,8.272-9.658ZM7.546-2.4a2.747,2.747,0,0,0,1.859-.616,2.093,2.093,0,0,0,.715-1.672,2.126,2.126,0,0,0-.715-1.683A2.783,2.783,0,0,0,7.5-7a2.815,2.815,0,0,0-1.914.649A2.1,2.1,0,0,0,4.84-4.686a2.1,2.1,0,0,0,.726,1.65A2.9,2.9,0,0,0,7.546-2.4Z" transform="translate(445 2354)" fill="#fff"/>
    </g>
  </g>
</svg>
