<svg xmlns="http://www.w3.org/2000/svg" width="435" height="198" viewBox="0 0 435 198">
  <g id="Grupo_3565" data-name="Grupo 3565" transform="translate(-117 -3740)">
    <rect id="Rectángulo_994" data-name="Rectángulo 994" width="435" height="198" transform="translate(117 3740)" fill="#efefef"/>
    <g id="Grupo_3546" data-name="Grupo 3546" transform="translate(-286 1436)">
      <g id="Elipse_568" data-name="Elipse 568" transform="translate(432 2327)" fill="#59bfd6" stroke="#227d84" stroke-width="3">
        <circle cx="20" cy="20" r="20" stroke="none"/>
        <circle cx="20" cy="20" r="18.5" fill="none"/>
      </g>
      <path id="Trazado_3097" data-name="Trazado 3097" d="M6.8-15.4V0H3.234V-12.54H.154V-15.4Z" transform="translate(448 2354)" fill="#fff"/>
    </g>
    <g id="Grupo_3549" data-name="Grupo 3549" transform="translate(40.561 3634.554)">
      <g id="Grupo_3434" data-name="Grupo 3434" transform="translate(240.818 218.768)">
        <path id="Trazado_3229" data-name="Trazado 3229" d="M178.857,164.265s14.055,26.649,18.155,28.55,22.88-8.081,25.738-10.474a17.351,17.351,0,0,1,8.373-3.672c2.2-.349,6.15.386,6.3-6.35s.583-11.565-3.96-10.4-5.123,1.023-6.147,2.05-1.692,5.078-3.511,5.71c-12.1,4.221-13.763,4.537-17.128,6.15s-7.793-14.052-12.108-17.715C192.9,156.7,178.857,164.265,178.857,164.265Z" transform="translate(-178.857 -157.94)" fill="#f7a054"/>
      </g>
      <g id="Grupo_3435" data-name="Grupo 3435" transform="translate(190.851 128.079)">
        <path id="Trazado_3230" data-name="Trazado 3230" d="M162.532,142.587s-2.8-14.79,17.775-14.5v14.5Z" transform="translate(-162.404 -128.079)" fill="#fca001"/>
      </g>
      <g id="Grupo_3436" data-name="Grupo 3436" transform="translate(208.754 128.079)">
        <path id="Trazado_3231" data-name="Trazado 3231" d="M186.077,142.587s2.794-14.79-17.778-14.5v14.5Z" transform="translate(-168.299 -128.079)" fill="#f58300"/>
      </g>
      <g id="Grupo_3437" data-name="Grupo 3437" transform="translate(170.761 135.709)">
        <path id="Trazado_3232" data-name="Trazado 3232" d="M231.923,147.741c0,9.472-17.043,17.153-38.065,17.153s-38.068-7.68-38.068-17.153,17.04-17.15,38.068-17.15S231.923,138.268,231.923,147.741Z" transform="translate(-155.789 -130.591)" fill="#ffb804"/>
      </g>
      <g id="Grupo_3438" data-name="Grupo 3438" transform="translate(148.439 161.183)">
        <path id="Trazado_3233" data-name="Trazado 3233" d="M199.163,150.738s1.874,14.711-5.075,15.838c-7.028,1.139-18.152-1.725-24.2,8.883-6.76,11.85-18.781,31.311-19.913,50.043-.1,1.725-1.555,5.552-1.525,7.225.392,19.892,3.07,18.374,1.127,24.706s-2.187,12.473,5.861,14.079c7.422,1.476,8.008.352,6.642-9.809-.972-7.237,3.9-23.9,2.341-32.344-1.537-8.324,11.908-19.67,14.055-27.673v39.289h30.282V201.686h.07V138.979Z" transform="translate(-148.439 -138.979)" fill="#ffba80"/>
      </g>
      <g id="Grupo_3439" data-name="Grupo 3439" transform="translate(208.754 161.183)">
        <path id="Trazado_3234" data-name="Trazado 3234" d="M207.312,175.459c-6.056-10.608-17.18-7.744-24.211-8.883-6.946-1.127-5.072-15.838-5.072-15.838l-9.661-11.759v62.707h-.07v39.289h30.285V201.686h.14C200.867,209.689,214.072,187.309,207.312,175.459Z" transform="translate(-168.299 -138.979)" fill="#f7a054"/>
      </g>
      <g id="Grupo_3440" data-name="Grupo 3440" transform="translate(208.83 135.709)">
        <path id="Trazado_3235" data-name="Trazado 3235" d="M206.389,147.741c0-9.472-17.043-17.15-38.065-17.15v34.3C189.346,164.893,206.389,157.213,206.389,147.741Z" transform="translate(-168.324 -130.591)" fill="#fca001"/>
      </g>
      <g id="Grupo_3442" data-name="Grupo 3442" transform="translate(187.997 136.899)">
        <g id="Grupo_3441" data-name="Grupo 3441">
          <path id="Trazado_3236" data-name="Trazado 3236" d="M200.16,155.267H199.8c.152-1.218.307-2.42.449-3.556.771-5.883,2.5-20.727-18.027-20.727s-18.8,14.845-18.027,20.727c.146,1.136.295,2.338.449,3.556h-.355c-3.122-2.314-3.389,3.723-2.086,5.785a12.422,12.422,0,0,1,1.752,3.775c.483,1.382,1.279,1.57,1.947,1.415.085.823.158,1.537.206,2.108.292,3.177,7.914,9.527,9.636,11.516,1.625,1.862,4.322,1.136,5.187,1.1s1.291-.061,1.291-.061.416.018,1.291.061,3.568.765,5.184-1.1c1.725-1.989,9.348-8.34,9.639-11.516.052-.571.125-1.285.21-2.108.662.155,1.461-.033,1.941-1.415a12.437,12.437,0,0,1,1.758-3.775C203.543,158.99,203.276,152.952,200.16,155.267Z" transform="translate(-161.464 -130.983)" fill="#ffba80"/>
        </g>
      </g>
      <g id="Grupo_3443" data-name="Grupo 3443" transform="translate(208.754 136.899)">
        <path id="Trazado_3237" data-name="Trazado 3237" d="M169.59,180.962c.866.039,3.568.765,5.184-1.1,1.725-1.989,9.348-8.34,9.639-11.516.052-.571.125-1.285.21-2.108.662.155,1.461-.033,1.941-1.415a12.437,12.437,0,0,1,1.758-3.775c1.3-2.062,1.033-8.1-2.083-5.785h-.361c.152-1.218.307-2.42.449-3.556.771-5.883,2.5-20.727-18.027-20.727V180.9S168.715,180.92,169.59,180.962Z" transform="translate(-168.299 -130.983)" fill="#f7a054"/>
      </g>
      <g id="Grupo_3445" data-name="Grupo 3445" transform="translate(190.978 158.831)">
        <g id="Grupo_3444" data-name="Grupo 3444">
          <path id="Trazado_3238" data-name="Trazado 3238" d="M197.459,138.607c0,1.042-1.871,9.254-2.187,11.878-.6,4.975-4.167,7.292-5.211,8.434s-4.48,2.293-5.937,2.818a19.875,19.875,0,0,1-7.808,0c-1.455-.525-4.89-1.667-5.934-2.818s-4.613-3.459-5.208-8.434c-.319-2.624-2.19-10.836-2.19-11.878,0-.689-.334-.443-.538.364.067.519.131,1.048.2,1.585,0,0,1.072,11.021,1.257,10.976.085.823.158,1.537.206,2.108a3.3,3.3,0,0,0,.252.9c.386.6.984,1.582,1.752,2.758,2.46,3.046,6.444,6.487,7.632,7.857,1.625,1.862,4.322,1.136,5.187,1.1s1.291-.061,1.291-.061.416.018,1.291.061,3.568.765,5.184-1.1c1.19-1.37,5.172-4.811,7.641-7.857.756-1.175,1.361-2.156,1.749-2.758a3.4,3.4,0,0,0,.249-.9c.052-.571.125-1.285.21-2.108.185.046,1.254-10.976,1.254-10.976.07-.538.134-1.066.2-1.585C197.8,138.163,197.459,137.917,197.459,138.607Z" transform="translate(-162.446 -138.205)" fill="#4f250a"/>
        </g>
      </g>
      <g id="Grupo_3446" data-name="Grupo 3446" transform="translate(178.473 261.168)">
        <path id="Sustracción_5" data-name="Sustracción 5" d="M27.736,40.777H0V2.011L30.351,0V34.885c-.013.01-1.288.99-2.615,5.891Z" fill="#172c57" stroke="rgba(0,0,0,0)" stroke-miterlimit="10" stroke-width="1"/>
      </g>
      <g id="Grupo_3447" data-name="Grupo 3447" transform="translate(190.417 145.093)">
        <path id="Trazado_3240" data-name="Trazado 3240" d="M180.674,138.437a21.82,21.82,0,0,1-10.957,7.125s1.8-2.247,1.932-3.565c0,0-4.592,4.671-8.288,5.825l-.538.364a35.457,35.457,0,0,1-.559-4.874c-.255-3.608,16.044-9.63,16.044-9.63l2.366,2.9Z" transform="translate(-162.261 -133.681)" fill="#693514"/>
      </g>
      <g id="Grupo_3448" data-name="Grupo 3448" transform="translate(208.83 145.093)">
        <path id="Trazado_3241" data-name="Trazado 3241" d="M168.324,138.437s1.831,3.708,8.567,5.779a13.668,13.668,0,0,1-.635-1.974s5.685,4.425,9.381,5.579l.3,1.054s.425-2.575.683-6.18-15.938-9.014-15.938-9.014l-2.363,2.9Z" transform="translate(-168.324 -133.681)" fill="#4f250a"/>
      </g>
      <g id="Grupo_3449" data-name="Grupo 3449" transform="translate(184.915 135.708)">
        <path id="Trazado_3242" data-name="Trazado 3242" d="M166.033,150.976s2.955-6.763,18.255-6.763V130.592s-18.079-.319-22.474,10.192,3.219,10.192,3.219,10.192Z" transform="translate(-160.45 -130.591)" fill="#ffb804"/>
      </g>
      <g id="Grupo_3450" data-name="Grupo 3450" transform="translate(208.754 135.708)">
        <path id="Trazado_3243" data-name="Trazado 3243" d="M186.557,150.976s-2.958-6.763-18.258-6.763V130.592s18.082-.319,22.477,10.192-3.222,10.192-3.222,10.192Z" transform="translate(-168.299 -130.591)" fill="#fca001"/>
      </g>
      <path id="Sustracción_6" data-name="Sustracción 6" d="M30.354,40.1H2.425C1.173,35.8.012,34.894,0,34.886V0L30.354,2.011Z" transform="translate(208.824 261.168)" fill="#0e1f42" stroke="rgba(0,0,0,0)" stroke-miterlimit="10" stroke-width="1"/>
      <g id="Grupo_3457" data-name="Grupo 3457" transform="translate(156.12 188.567)">
        <path id="Trazado_3249" data-name="Trazado 3249" d="M189.735,148l0-.006a4.716,4.716,0,0,1-.8.213,49.208,49.208,0,0,1-6.274.392c-.258-.021-.531-.033-.85-.03-3.857.064-6.539.194-6.539.194-13.032.295-24.3,31.19-24.3,31.19l19.91,11.124,2.442-4.978v36.507H203.6l.07-39.289v-21.38Z" transform="translate(-150.968 -147.996)" fill="#a6daf5"/>
      </g>
      <g id="Grupo_3458" data-name="Grupo 3458" transform="translate(208.824 188.567)">
        <path id="Trazado_3250" data-name="Trazado 3250" d="M182.259,148l.006-.006a4.646,4.646,0,0,0,.79.213,49.342,49.342,0,0,0,6.28.392c.258-.021.531-.033.847-.03,3.857.064,6.539.194,6.539.194,13.032.295,24.308,31.19,24.308,31.19l-19.913,11.124-2.439-4.978v36.507H168.392l-.07-39.289v-21.38Z" transform="translate(-168.322 -147.996)" fill="#77bbe6"/>
      </g>
      <g id="Grupo_3464" data-name="Grupo 3464" transform="translate(190.978 158.831)">
        <path id="Trazado_3255" data-name="Trazado 3255" d="M176.316,161.736c-1.455-.525-4.89-1.667-5.934-2.818s-4.613-3.459-5.208-8.434c-.319-2.624-2.19-10.836-2.19-11.878,0-.689-.334-.443-.538.364.067.519.131,1.048.2,1.585,0,0,1.072,11.021,1.257,10.976.085.823.158,1.537.206,2.108a3.3,3.3,0,0,0,.252.9c.386.6.984,1.582,1.752,2.758,2.46,3.046,6.444,6.487,7.632,7.857,1.625,1.862,4.322,1.136,5.187,1.1s1.291-.061,1.291-.061v-4.07A14.6,14.6,0,0,1,176.316,161.736Z" transform="translate(-162.446 -138.205)" fill="#693514"/>
      </g>
      <g id="Grupo_3465" data-name="Grupo 3465" transform="translate(178.472 189.141)">
        <path id="Trazado_3256" data-name="Trazado 3256" d="M158.328,222.221V184.364h3.841l-.326-35.985,8.491-.194v36.179H188.61v37.857Z" transform="translate(-158.328 -148.185)" fill="#172c57"/>
      </g>
      <g id="Grupo_3466" data-name="Grupo 3466" transform="translate(208.755 189.141)">
        <path id="Trazado_3257" data-name="Trazado 3257" d="M198.583,222.221V184.364h-3.841l.323-35.985-8.488-.194v36.179H168.3v37.857Z" transform="translate(-168.299 -148.185)" fill="#0e1f42"/>
      </g>
      <g id="Grupo_3486" data-name="Grupo 3486" transform="translate(290.935 222.576)">
        <path id="Trazado_3266" data-name="Trazado 3266" d="M199.847,159.369c-2.594.671-3.189.781-3.948,1.61-1.139,1.251-.416,13.958,1.61,14.256,2.2.316,6.15,1.266,6.3-5.47S204.39,158.2,199.847,159.369Z" transform="translate(-195.359 -159.194)" fill="#ed8e3b"/>
      </g>
      <g id="Grupo_3487" data-name="Grupo 3487" transform="translate(193.438 169.431)">
        <path id="Trazado_3267" data-name="Trazado 3267" d="M163.256,141.695s2.885,10.593,15.315,10.5v4.589S163.356,154.529,163.256,141.695Z" transform="translate(-163.256 -141.695)" fill="#693514"/>
      </g>
      <g id="Grupo_3488" data-name="Grupo 3488" transform="translate(208.754 169.431)">
        <path id="Trazado_3268" data-name="Trazado 3268" d="M183.617,141.695s-2.885,10.593-15.318,10.5v4.589S183.517,154.529,183.617,141.695Z" transform="translate(-168.299 -141.695)" fill="#4f250a"/>
      </g>
      <g id="Grupo_3489" data-name="Grupo 3489" transform="translate(228.861 222.827)">
        <path id="Trazado_3269" data-name="Trazado 3269" d="M179.8,161.722a2.442,2.442,0,1,1-2.439-2.445A2.441,2.441,0,0,1,179.8,161.722Z" transform="translate(-174.92 -159.277)" fill="#747474"/>
      </g>
      <g id="Grupo_3490" data-name="Grupo 3490" transform="translate(183.881 222.827)">
        <path id="Trazado_3270" data-name="Trazado 3270" d="M160.109,161.722a2.442,2.442,0,1,0,2.442-2.445A2.441,2.441,0,0,0,160.109,161.722Z" transform="translate(-160.109 -159.277)" fill="#9a9a9a"/>
      </g>
    </g>
    <g id="Elipse_676" data-name="Elipse 676" transform="translate(147 3817)" fill="none" stroke="#dd726a" stroke-width="1" stroke-dasharray="6">
      <ellipse cx="166" cy="44" rx="166" ry="44" stroke="none"/>
      <ellipse cx="166" cy="44" rx="165.5" ry="43.5" fill="none"/>
    </g>
    <g id="Grupo_3550" data-name="Grupo 3550" transform="translate(402.23 3785)">
      <g id="Grupo_2993" data-name="Grupo 2993" transform="translate(0 12.455)">
        <rect id="Rectángulo_904" data-name="Rectángulo 904" width="107.473" height="107.89" transform="translate(3.259 8.375)" fill="#fff"/>
        <path id="Trazado_1436" data-name="Trazado 1436" d="M333.8,763.88H226.323A1.323,1.323,0,0,0,225,765.2v6.185H335.124V765.2A1.323,1.323,0,0,0,333.8,763.88Z" transform="translate(-223.066 -655.124)" fill="#4e4d60"/>
        <g id="Grupo_2992" data-name="Grupo 2992" transform="translate(40.812 11.346)">
          <path id="Trazado_1437" data-name="Trazado 1437" d="M435.355,287.949a17.672,17.672,0,0,0,16.184-10.571H419.171A17.672,17.672,0,0,0,435.355,287.949Z" transform="translate(-419.171 -277.378)" opacity="0.25" style="mix-blend-mode: multiply;isolation: isolate"/>
        </g>
        <rect id="Rectángulo_905" data-name="Rectángulo 905" width="107.473" height="2.971" transform="translate(3.259 8.375)" fill="#161615" opacity="0.25" style="mix-blend-mode: multiply;isolation: isolate"/>
        <rect id="Rectángulo_906" data-name="Rectángulo 906" width="113.992" height="9.344" rx="4.672" fill="#46485d"/>
      </g>
      <g id="Grupo_3002" data-name="Grupo 3002" transform="translate(12.713 83.081)">
        <g id="Grupo_2995" data-name="Grupo 2995" transform="translate(27.864 0)">
          <g id="Grupo_2994" data-name="Grupo 2994" transform="translate(0.82 2.065)">
            <rect id="Rectángulo_907" data-name="Rectángulo 907" width="31.197" height="43.595" fill="#4e4d60"/>
            <rect id="Rectángulo_908" data-name="Rectángulo 908" width="29.578" height="43.595" transform="translate(0.809)" fill="#129bdb"/>
            <path id="Trazado_1438" data-name="Trazado 1438" d="M441.39,625.777V583.76h-.925v42.017H426.139v1.578h29.578v-1.578Z" transform="translate(-425.329 -583.76)" fill="#e8e8e8"/>
          </g>
          <rect id="Rectángulo_909" data-name="Rectángulo 909" width="31.197" height="1.873" transform="translate(0.82 2.065)" fill="#161615" opacity="0.25" style="mix-blend-mode: multiply;isolation: isolate"/>
          <rect id="Rectángulo_910" data-name="Rectángulo 910" width="32.837" height="2.536" fill="#4e4d60"/>
          <rect id="Rectángulo_911" data-name="Rectángulo 911" width="32.837" height="2.536" fill="#4e4d60"/>
        </g>
        <g id="Grupo_2998" data-name="Grupo 2998">
          <rect id="Rectángulo_912" data-name="Rectángulo 912" width="20.237" height="2.002" transform="translate(0 23.584)" fill="#161615" opacity="0.25" style="mix-blend-mode: multiply;isolation: isolate"/>
          <g id="Grupo_2997" data-name="Grupo 2997">
            <rect id="Rectángulo_913" data-name="Rectángulo 913" width="20.237" height="2.002" transform="translate(0 22.783)" fill="#4e4d60"/>
            <g id="Grupo_2996" data-name="Grupo 2996" transform="translate(1.051)">
              <rect id="Rectángulo_914" data-name="Rectángulo 914" width="18.135" height="22.782" transform="translate(0 0)" fill="#129bdb"/>
              <path id="Trazado_1439" data-name="Trazado 1439" d="M284.088,573.447v22.782h18.135V573.447Zm1.2,1.2h7.067v9.39h-7.067Zm0,20.379v-9.39h7.067v9.39Zm15.732,0h-7.067v-9.39h7.067Zm-7.067-10.989v-9.39h7.067v9.39Z" transform="translate(-284.088 -573.447)" fill="#e8e8e8"/>
            </g>
          </g>
        </g>
        <g id="Grupo_3001" data-name="Grupo 3001" transform="translate(68.327)">
          <rect id="Rectángulo_915" data-name="Rectángulo 915" width="20.237" height="2.002" transform="translate(0 23.584)" fill="#161615" opacity="0.25" style="mix-blend-mode: multiply;isolation: isolate"/>
          <g id="Grupo_3000" data-name="Grupo 3000">
            <rect id="Rectángulo_916" data-name="Rectángulo 916" width="20.237" height="2.002" transform="translate(0 22.783)" fill="#4e4d60"/>
            <g id="Grupo_2999" data-name="Grupo 2999" transform="translate(1.051)">
              <rect id="Rectángulo_917" data-name="Rectángulo 917" width="18.135" height="22.782" transform="translate(0 0)" fill="#129bdb"/>
              <path id="Trazado_1440" data-name="Trazado 1440" d="M625.339,573.447v22.782h18.135V573.447Zm1.2,1.2h7.067v9.39H626.54Zm0,20.379v-9.39h7.067v9.39Zm15.732,0h-7.067v-9.39h7.067Zm-7.067-10.989v-9.39h7.067v9.39Z" transform="translate(-625.339 -573.447)" fill="#e8e8e8"/>
            </g>
          </g>
        </g>
      </g>
      <g id="Grupo_3012" data-name="Grupo 3012" transform="translate(12.713 37.694)">
        <g id="Grupo_3005" data-name="Grupo 3005">
          <rect id="Rectángulo_918" data-name="Rectángulo 918" width="20.237" height="2.002" transform="translate(0 23.584)" fill="#161615" opacity="0.25" style="mix-blend-mode: multiply;isolation: isolate"/>
          <g id="Grupo_3004" data-name="Grupo 3004">
            <rect id="Rectángulo_919" data-name="Rectángulo 919" width="20.237" height="2.002" transform="translate(0 22.783)" fill="#4e4d60"/>
            <g id="Grupo_3003" data-name="Grupo 3003" transform="translate(1.051)">
              <rect id="Rectángulo_920" data-name="Rectángulo 920" width="18.135" height="22.782" transform="translate(0 0)" fill="#129bdb"/>
              <path id="Trazado_1441" data-name="Trazado 1441" d="M284.088,346.766v22.782h18.135V346.766Zm1.2,1.2h7.067v9.39h-7.067Zm0,20.379v-9.39h7.067v9.39Zm15.732,0h-7.067v-9.39h7.067Zm-7.067-10.989v-9.39h7.067v9.39Z" transform="translate(-284.088 -346.766)" fill="#e8e8e8"/>
            </g>
          </g>
        </g>
        <g id="Grupo_3009" data-name="Grupo 3009" transform="translate(34.164)">
          <rect id="Rectángulo_921" data-name="Rectángulo 921" width="20.237" height="2.002" transform="translate(0 23.584)" fill="#161615" opacity="0.25" style="mix-blend-mode: multiply;isolation: isolate"/>
          <g id="Grupo_3008" data-name="Grupo 3008">
            <g id="Grupo_3007" data-name="Grupo 3007">
              <rect id="Rectángulo_922" data-name="Rectángulo 922" width="20.237" height="2.002" transform="translate(0 22.783)" fill="#4e4d60"/>
              <g id="Grupo_3006" data-name="Grupo 3006" transform="translate(1.051)">
                <rect id="Rectángulo_923" data-name="Rectángulo 923" width="18.135" height="22.782" transform="translate(0 0)" fill="#129bdb"/>
                <path id="Trazado_1442" data-name="Trazado 1442" d="M454.714,346.766v22.782h18.135V346.766Zm1.2,1.2h7.067v9.39h-7.067Zm0,20.379v-9.39h7.067v9.39Zm15.732,0h-7.067v-9.39h7.067Zm-7.067-10.989v-9.39h7.067v9.39Z" transform="translate(-454.714 -346.766)" fill="#e8e8e8"/>
              </g>
            </g>
          </g>
        </g>
        <g id="Grupo_3011" data-name="Grupo 3011" transform="translate(68.327)">
          <rect id="Rectángulo_924" data-name="Rectángulo 924" width="20.237" height="2.002" transform="translate(0 23.584)" fill="#161615" opacity="0.25" style="mix-blend-mode: multiply;isolation: isolate"/>
          <rect id="Rectángulo_925" data-name="Rectángulo 925" width="20.237" height="2.002" transform="translate(0 22.783)" fill="#4e4d60"/>
          <g id="Grupo_3010" data-name="Grupo 3010" transform="translate(1.051)">
            <rect id="Rectángulo_926" data-name="Rectángulo 926" width="18.135" height="22.782" transform="translate(0 0)" fill="#129bdb"/>
            <path id="Trazado_1443" data-name="Trazado 1443" d="M625.339,346.766v22.782h18.135V346.766Zm1.2,1.2h7.067v9.39H626.54Zm0,20.379v-9.39h7.067v9.39Zm15.732,0h-7.067v-9.39h7.067Zm-7.067-10.989v-9.39h7.067v9.39Z" transform="translate(-625.339 -346.766)" fill="#e8e8e8"/>
          </g>
        </g>
      </g>
      <g id="Grupo_3013" data-name="Grupo 3013" transform="translate(40.528 0)">
        <ellipse id="Elipse_586" data-name="Elipse 586" cx="16.468" cy="16.468" rx="16.468" ry="16.468" fill="#e13851"/>
        <path id="Trazado_1444" data-name="Trazado 1444" d="M470.38,198.21h-6.857v-6.857h-6.07v6.857H450.6v6.07h6.857v6.857h6.07V204.28h6.857Z" transform="translate(-444.021 -184.777)" fill="#fff"/>
      </g>
    </g>
  </g>
</svg>
