<svg xmlns="http://www.w3.org/2000/svg" xmlns:xlink="http://www.w3.org/1999/xlink" width="435" height="198" viewBox="0 0 435 198">
  <defs>
    <clipPath id="clip-path">
      <path id="Trazado_4822" data-name="Trazado 4822" d="M3003.667,1800.733a52.089,52.089,0,0,1-16.134,37.864q-1.557,1.48-3.232,2.823a49.508,49.508,0,0,1-25.819,10.674c-.163.017-.319.034-.486.049-.065.007-.13.013-.2.018-.144.014-.287.027-.43.037q-1.779.148-3.592.168h-.414c-.309,0-.619,0-.927-.007q-2.293-.036-4.537-.282c-.194-.02-.387-.042-.582-.067q-.613-.073-1.219-.163c-.269-.04-.539-.08-.805-.125a49.663,49.663,0,0,1-24.712-11.675q-1.675-1.463-3.222-3.068a52.108,52.108,0,0,1-14.512-36.249c0-28.519,22.57-51.639,50.411-51.639S3003.667,1772.214,3003.667,1800.733Z" transform="translate(-2902.849 -1749.092)" fill="none"/>
    </clipPath>
  </defs>
  <g id="Grupo_4533" data-name="Grupo 4533" transform="translate(-2023 622)">
    <rect id="Rectángulo_959" data-name="Rectángulo 959" width="435" height="198" transform="translate(2023 -622)" fill="#efefef"/>
    <path id="Trazado_4819" data-name="Trazado 4819" d="M-71.586,13.336a6.324,6.324,0,0,1,1.617-4.648,4.819,4.819,0,0,1,3.578-1.422,4.839,4.839,0,0,1,4.25,1.906,4.127,4.127,0,0,1,.8,2.148H-63.75a3.25,3.25,0,0,0-.6-1.25A2.447,2.447,0,0,0-66.3,9.32a2.412,2.412,0,0,0-2.07,1.059,5.089,5.089,0,0,0-.758,3,4.467,4.467,0,0,0,.8,2.9,2.53,2.53,0,0,0,2.035.965,2.328,2.328,0,0,0,1.93-.828,3.6,3.6,0,0,0,.609-1.336h2.383a5.169,5.169,0,0,1-1.6,3.063,4.68,4.68,0,0,1-3.293,1.18,4.967,4.967,0,0,1-3.906-1.594A6.379,6.379,0,0,1-71.586,13.336Zm17.148,3.945a2.749,2.749,0,0,0,2.27-1.055,4.713,4.713,0,0,0,.84-3,4.716,4.716,0,0,0-.84-3,2.745,2.745,0,0,0-2.27-1.059,2.781,2.781,0,0,0-2.281,1.055,4.667,4.667,0,0,0-.852,3,4.667,4.667,0,0,0,.852,3A2.781,2.781,0,0,0-54.437,17.281Zm5.516-4.055a6.228,6.228,0,0,1-1.742,4.75,5.021,5.021,0,0,1-3.773,1.344,5.021,5.021,0,0,1-3.773-1.344,6.212,6.212,0,0,1-1.75-4.75,6.09,6.09,0,0,1,1.75-4.75,5.021,5.021,0,0,1,3.773-1.344,5.021,5.021,0,0,1,3.773,1.344A6.105,6.105,0,0,1-48.922,13.227Zm1.8-5.742H-44.6l4.586,8.039V7.484h2.242V19H-40.18l-4.7-8.18V19h-2.242Zm13.336,7.961a2.365,2.365,0,0,0,.43,1.18,2.472,2.472,0,0,0,2.008.711,4.237,4.237,0,0,0,1.383-.187,1.336,1.336,0,0,0,1.008-1.336.986.986,0,0,0-.5-.883,5.377,5.377,0,0,0-1.57-.539l-1.219-.273a7.7,7.7,0,0,1-2.484-.883A2.808,2.808,0,0,1-35.9,10.742a3.328,3.328,0,0,1,1.125-2.57,4.757,4.757,0,0,1,3.3-1.023,5.024,5.024,0,0,1,3.105.965,3.445,3.445,0,0,1,1.348,2.8h-2.312a1.652,1.652,0,0,0-.906-1.477,3.039,3.039,0,0,0-1.4-.289,2.611,2.611,0,0,0-1.484.375,1.194,1.194,0,0,0-.555,1.047.991.991,0,0,0,.547.922,6.694,6.694,0,0,0,1.5.477l1.984.477a5.13,5.13,0,0,1,1.969.836,2.816,2.816,0,0,1,1.031,2.352,3.319,3.319,0,0,1-1.207,2.621,5.057,5.057,0,0,1-3.41,1.043A5.531,5.531,0,0,1-34.8,18.27a3.414,3.414,0,0,1-1.289-2.824Zm17.445-5.922h-6.094v2.445h5.594v2h-5.594V16.93h6.375V19h-8.727V7.484h8.445Zm2.117-2.039H-11.7l4.586,8.039V7.484h2.242V19H-7.281l-4.7-8.18V19h-2.242Zm19.961,0V9.523H2.289V19H-.133V9.523H-3.594V7.484ZM9.344,19H6.953V7.484H9.344ZM19.219,7.484H22.68V19H20.438V11.211q0-.336.008-.941t.008-.934L18.273,19H15.938L13.773,9.336q0,.328.008.934t.008.941V19H11.547V7.484h3.5l2.094,9.055ZM27.117,19H24.727V7.484h2.391ZM37.875,9.523H31.781v2.445h5.594v2H31.781V16.93h6.375V19H29.43V7.484h8.445Zm2.117-2.039h2.523L47.1,15.523V7.484h2.242V19H46.938l-4.7-8.18V19H39.992Zm19.961,0V9.523H56.508V19H54.086V9.523H50.625V7.484Zm6.219,9.8a2.749,2.749,0,0,0,2.27-1.055,4.713,4.713,0,0,0,.84-3,4.716,4.716,0,0,0-.84-3,2.745,2.745,0,0,0-2.27-1.059,2.781,2.781,0,0,0-2.281,1.055,4.667,4.667,0,0,0-.852,3,4.667,4.667,0,0,0,.852,3A2.781,2.781,0,0,0,66.172,17.281Zm5.516-4.055a6.228,6.228,0,0,1-1.742,4.75,5.021,5.021,0,0,1-3.773,1.344A5.021,5.021,0,0,1,62.4,17.977a6.212,6.212,0,0,1-1.75-4.75,6.09,6.09,0,0,1,1.75-4.75,5.021,5.021,0,0,1,3.773-1.344,5.021,5.021,0,0,1,3.773,1.344A6.105,6.105,0,0,1,71.688,13.227ZM-45.906,38H-48.3V26.484h2.391Zm2.2-11.516h2.523l4.586,8.039V26.484h2.242V38h-2.406l-4.7-8.18V38H-43.7Zm11.594.016h8.164v2.023h-5.773v2.648h5.055v2h-5.055V38h-2.391Zm14.867,9.781a2.749,2.749,0,0,0,2.27-1.055,4.713,4.713,0,0,0,.84-3,4.716,4.716,0,0,0-.84-3,2.745,2.745,0,0,0-2.27-1.059,2.781,2.781,0,0,0-2.281,1.055,4.667,4.667,0,0,0-.852,3,4.667,4.667,0,0,0,.852,3A2.781,2.781,0,0,0-17.242,36.281Zm5.516-4.055a6.228,6.228,0,0,1-1.742,4.75,5.021,5.021,0,0,1-3.773,1.344,5.021,5.021,0,0,1-3.773-1.344,6.212,6.212,0,0,1-1.75-4.75,6.09,6.09,0,0,1,1.75-4.75,5.021,5.021,0,0,1,3.773-1.344,5.021,5.021,0,0,1,3.773,1.344A6.105,6.105,0,0,1-11.727,32.227Zm4.242-3.742v3.094h2.727a3.039,3.039,0,0,0,1.219-.187,1.283,1.283,0,0,0,.719-1.3,1.431,1.431,0,0,0-.7-1.406,2.628,2.628,0,0,0-1.172-.2Zm3.3-2a5.262,5.262,0,0,1,1.863.3,2.911,2.911,0,0,1,1.105.8,3.565,3.565,0,0,1,.594.969,3.157,3.157,0,0,1,.219,1.211A3.45,3.45,0,0,1-.82,31.379,2.314,2.314,0,0,1-2.187,32.5a2.15,2.15,0,0,1,1.129.91,3.789,3.789,0,0,1,.332,1.8v.773a5.916,5.916,0,0,0,.063,1.07.961.961,0,0,0,.438.656V38H-2.875q-.109-.383-.156-.617a5.671,5.671,0,0,1-.1-.992l-.016-1.07a2.091,2.091,0,0,0-.4-1.469A2.135,2.135,0,0,0-5,33.484H-7.484V38H-9.836V26.484Zm13.484,0h3.461V38H10.516V30.211q0-.336.008-.941t.008-.934L8.352,38H6.016L3.852,28.336q0,.328.008.934t.008.941V38H1.625V26.484h3.5l2.094,9.055Zm8.844,7.164h2.922l-1.437-4.531Zm.148-7.164h2.719L25.086,38H22.477l-.742-2.367H17.492L16.7,38H14.18Zm10.594,2V36H31.1a2.4,2.4,0,0,0,2.375-1.68,5.924,5.924,0,0,0,.367-2.2,5.4,5.4,0,0,0-.551-2.7,2.325,2.325,0,0,0-2.191-.941Zm2.625-2a6.053,6.053,0,0,1,1.781.25A3.8,3.8,0,0,1,35.25,28.2a5.125,5.125,0,0,1,.82,1.859,8.926,8.926,0,0,1,.219,1.906,7.654,7.654,0,0,1-.922,3.891A4.16,4.16,0,0,1,31.508,38H26.547V26.484Zm11.688,9.8a2.749,2.749,0,0,0,2.27-1.055,4.713,4.713,0,0,0,.84-3,4.716,4.716,0,0,0-.84-3,2.745,2.745,0,0,0-2.27-1.059,2.781,2.781,0,0,0-2.281,1.055,4.667,4.667,0,0,0-.852,3,4.667,4.667,0,0,0,.852,3A2.781,2.781,0,0,0,43.2,36.281Zm5.516-4.055a6.228,6.228,0,0,1-1.742,4.75A5.021,5.021,0,0,1,43.2,38.32a5.021,5.021,0,0,1-3.773-1.344,6.212,6.212,0,0,1-1.75-4.75,6.09,6.09,0,0,1,1.75-4.75A5.021,5.021,0,0,1,43.2,26.133a5.021,5.021,0,0,1,3.773,1.344A6.105,6.105,0,0,1,48.711,32.227Z" transform="translate(2356 -536)" fill="#59bfd6"/>
    <path id="Trazado_4818" data-name="Trazado 4818" d="M11.27,19l-1.025-2.91H4.316L3.291,19h-3l5.2-14.111H9.072L14.268,19ZM5.176,13.639H9.385l-2.1-5.986Zm17.08-8.75A4.247,4.247,0,0,1,25.508,6.2a4.569,4.569,0,0,1,1.23,3.247,4.456,4.456,0,0,1-1.221,3.228,4.324,4.324,0,0,1-3.262,1.265H19.316V19h-2.93V4.889Zm-.488,6.6a2.153,2.153,0,0,0,1.611-.552,2.1,2.1,0,0,0,.537-1.528A2.081,2.081,0,0,0,23.374,7.9a2.134,2.134,0,0,0-1.606-.562H19.316v4.15Zm10.361,4.922h4.424V19H29.2V4.889h2.93ZM38.789,19V4.889h2.93V19Zm12.822.2a7.877,7.877,0,0,1-2.876-.518,6.763,6.763,0,0,1-2.29-1.445,6.515,6.515,0,0,1-1.5-2.295,8,8,0,0,1-.547-3,7.644,7.644,0,0,1,.938-3.833,6.382,6.382,0,0,1,2.573-2.534,7.705,7.705,0,0,1,3.706-.879,7.488,7.488,0,0,1,4.141,1.143A6.255,6.255,0,0,1,58.281,8.98l-2.734,1a3.866,3.866,0,0,0-1.514-1.9,4.323,4.323,0,0,0-2.422-.684,4.145,4.145,0,0,0-3.086,1.23,4.528,4.528,0,0,0-1.211,3.32,4.534,4.534,0,0,0,1.216,3.325A4.14,4.14,0,0,0,51.611,16.5a4.307,4.307,0,0,0,2.417-.688A3.883,3.883,0,0,0,55.547,13.9l2.734,1a6.28,6.28,0,0,1-2.529,3.149A7.464,7.464,0,0,1,51.611,19.2ZM70.127,19,69.1,16.09H63.174L62.148,19h-3l5.2-14.111H67.93L73.125,19Zm-6.094-5.361h4.209l-2.1-5.986Z" transform="translate(2324 -557)" fill="#707070"/>
    <g id="Grupo_4403" data-name="Grupo 4403" transform="translate(-734.507 -2297.399)">
      <path id="Trazado_4822-2" data-name="Trazado 4822" d="M3003.667,1799.733a52.089,52.089,0,0,1-16.134,37.864q-1.557,1.48-3.232,2.823a49.509,49.509,0,0,1-25.819,10.674c-.163.017-.319.034-.486.049-.065.007-.13.013-.2.018q-.216.021-.43.037-1.779.148-3.592.168h-.414c-.309,0-.619,0-.927-.007q-2.293-.037-4.537-.282c-.194-.02-.387-.043-.582-.067q-.613-.073-1.219-.162c-.269-.039-.539-.08-.805-.124a49.666,49.666,0,0,1-24.712-11.675q-1.675-1.463-3.222-3.069a52.107,52.107,0,0,1-14.512-36.249c0-28.519,22.57-51.639,50.411-51.639S3003.667,1771.214,3003.667,1799.733Z" transform="translate(0 0)" fill="#bbe5e7" stroke="#bbe5e7" stroke-miterlimit="10" stroke-width="5"/>
      <g id="Grupo_4401" data-name="Grupo 4401" transform="translate(2902.849 1748.28)">
        <g id="Grupo_4400" data-name="Grupo 4400" clip-path="url(#clip-path)">
          <g id="Grupo_3578" data-name="Grupo 3578" transform="translate(7.893 10.549)">
            <path id="Trazado_3349" data-name="Trazado 3349" d="M3090.177,2106.563s3.095-7.419,6.452-16.3c2.908-7.695,4.656-11.673,4.656-11.673l4.494,9.657s-1.892,6.167-3.277,9.733c-1.346,3.463-7.862,14.321-7.862,14.321Z" transform="translate(-3062.865 -2027.215)" fill="#f9bb97"/>
            <path id="Trazado_3350" data-name="Trazado 3350" d="M3128.773,2078.585a52.6,52.6,0,0,0-4.747,9.657l8,5.4,2.07-5.578-4.409-9.035Z" transform="translate(-3090.352 -2027.211)" fill="#0da2e1"/>
            <path id="Trazado_3351" data-name="Trazado 3351" d="M3033.344,2122.162a19.1,19.1,0,0,0-2.4-4.21c-1.727-2.362-11.768-15.788-11.768-15.788l-3.507,2.287s6.861,14.018,8.233,16.86a48.791,48.791,0,0,0,4.953,7.181s4.349,3.728,5.279,2.948S3033.344,2122.162,3033.344,2122.162Z" transform="translate(-3002.357 -2046.358)" fill="#fccfb0"/>
            <path id="Trazado_3352" data-name="Trazado 3352" d="M3168.221,1806.246c-8.515,0-11.672,3.6-13.706,6.736-4.155,6.415-.8,18.408-.8,18.408l19.9,11.7a20.845,20.845,0,0,0,2.558-1.675c3.476-2.645,8.167-7.986,8.478-17.938C3184.989,1812.471,3176.974,1806.246,3168.221,1806.246Z" transform="translate(-3113.422 -1806.054)" fill="#974837"/>
            <path id="Trazado_3353" data-name="Trazado 3353" d="M3269.542,1990.321s3.93,1.331,3.227,8.484a51.468,51.468,0,0,0,1.3,15.107s-5.539-2.877-6.363-7.548S3266.332,1991.5,3269.542,1990.321Z" transform="translate(-3206.517 -1955.534)" fill="#7f3c2d"/>
            <path id="Trazado_3354" data-name="Trazado 3354" d="M3152.616,1822.494a46.319,46.319,0,0,1,.7-8.376,9.074,9.074,0,0,1,4.042-5.357,6.654,6.654,0,0,1,2.864-2.89c1.968-.948,6.763-.684,10.672-.281Z" transform="translate(-3113.57 -1805.224)" fill="#974837"/>
            <path id="Trazado_3355" data-name="Trazado 3355" d="M3257.71,1828.976c.751,2.743,1.927,8.343.777,13.4-1.21,5.324-7.089,13.628-9.873,17.347l3.1,1.823a20.786,20.786,0,0,0,2.558-1.675c3.477-2.645,8.167-7.987,8.479-17.938C3262.925,1836.292,3260.9,1831.91,3257.71,1828.976Z" transform="translate(-3191.526 -1824.512)" fill="#7f3c2d"/>
            <path id="Trazado_3356" data-name="Trazado 3356" d="M3144.976,2068.594c.3-2.463,3.811-4.01,3.811-4.01l1.317-.5,0,11.676Z" transform="translate(-3107.365 -2015.438)" fill="#0da2e1"/>
            <path id="Trazado_3357" data-name="Trazado 3357" d="M3175.471,2038.425c-1.741-1.167-6.848-.729-8.589.438s-6.489,3.7-6.818,3.828c-1.475,2.385-3.081,10.178-2.787,11.676h26.3l.941-11.179A42.3,42.3,0,0,1,3175.471,2038.425Z" transform="translate(-3117.326 -1994.041)" fill="#0da2e1"/>
            <path id="Trazado_3358" data-name="Trazado 3358" d="M3208.54,2038.858l.722,8.026,8.842-7.873c-.379-.216-.711-.414-.973-.591C3215.388,2037.255,3210.281,2037.693,3208.54,2038.858Z" transform="translate(-3158.983 -1994.038)" fill="#f9bb97"/>
            <path id="Trazado_3359" data-name="Trazado 3359" d="M3295.135,2068.288c-.415-2.072-6.371-4.107-6.371-4.107l-1.495-.588c-3.629,3.4-.279,11.767.555,11.767Z" transform="translate(-3221.573 -2015.036)" fill="#0da2e1"/>
            <path id="Trazado_3360" data-name="Trazado 3360" d="M3209.28,1991.476l.146,5.614a5.041,5.041,0,0,0,4.01,1.531,8.346,8.346,0,0,0,4.943-1.8l-.3-11.289Z" transform="translate(-3159.584 -1951.645)" fill="#f9bb97"/>
            <path id="Trazado_3361" data-name="Trazado 3361" d="M3145.913,2248.618h30.219c-.75-1.764-1.527-3.434-2.285-4.894a21.88,21.88,0,0,1-2.088-8.663h-25.952s.046,4.143.046,8.663C3145.852,2245.689,3145.883,2247.189,3145.913,2248.618Z" transform="translate(-3108.04 -2154.28)" fill="#0da2e1"/>
            <path id="Trazado_3362" data-name="Trazado 3362" d="M3143.393,2111.524c-.875,7.485.774,20.671.774,20.671h24.791l3.774-30.046h-26.35A30.681,30.681,0,0,0,3143.393,2111.524Z" transform="translate(-3105.872 -2046.346)" fill="#0da2e1"/>
            <path id="Trazado_3363" data-name="Trazado 3363" d="M3135.837,2102.163s-4.274,6.124-5.368,8.312.729,7.363,4.156,8.967h1.577l1.968-13.924,1.094-3.354Z" transform="translate(-3095.327 -2046.358)" fill="#0da2e1"/>
            <path id="Trazado_3364" data-name="Trazado 3364" d="M3234.406,2125.787s-5.721,7.251-7.129,8.869-4.161,1.814-6.856,1.879,3.867,6.214,3.867,6.214,3.856,1.531,7.612,2.984Z" transform="translate(-3168.104 -2065.542)" fill="#0094d7"/>
            <path id="Trazado_3365" data-name="Trazado 3365" d="M3135.914,2175.606l.009.015c.1.162.2.324.307.482.013.019.024.038.038.057.1.143.2.281.307.418.023.029.044.059.066.088.127.159.259.314.4.463.044,3.227.27,6.575.5,9.217h-.007s.045,4.144.045,8.663q0,.894.008,1.77c0,.265-.059,1.211-.055,1.476.008.653-.029,1.155-.066,1.648h1.1c1.294-1.521,3.469-2.925,7.536-2.925a11.712,11.712,0,0,1,7.326,2.925h14.435c-.75-1.764-1.527-3.434-2.285-4.894a16.24,16.24,0,0,1-1.041-2.531,23.43,23.43,0,0,1-1.047-6.062v-.045l1.363-10.844a129,129,0,0,1-17.356,1.111c-4.689,0-9.684-.353-11.875-1.567h0Q3135.757,2175.34,3135.914,2175.606Z" transform="translate(-3099.767 -2105.563)" fill="#0094d7"/>
            <path id="Trazado_3366" data-name="Trazado 3366" d="M3159.055,2114.073l-.992,6.555c-.282,1.857,1.78,2.308,1.78,2.308" transform="translate(-3117.972 -2056.03)" fill="none" stroke="#5c686e" stroke-miterlimit="10" stroke-width="2"/>
            <path id="Trazado_3367" data-name="Trazado 3367" d="M3166.847,2158.293l-.507-.02a.513.513,0,0,1-.5-.527.52.52,0,0,1,.008-.079l.044-.292a.67.67,0,0,1,.669-.559l.507.02a.514.514,0,0,1,.5.527.478.478,0,0,1-.008.08l-.044.291A.669.669,0,0,1,3166.847,2158.293Z" transform="translate(-3124.308 -2090.74)" fill="#8ea0aa"/>
            <path id="Trazado_3368" data-name="Trazado 3368" d="M3184.1,2116.471l-1.3,6.535c-.367,1.852-2.54,2.029-2.54,2.029" transform="translate(-3136.019 -2057.977)" fill="none" stroke="#5c686e" stroke-miterlimit="10" stroke-width="2"/>
            <path id="Trazado_3369" data-name="Trazado 3369" d="M3173.546,2158.692l.5.044a.668.668,0,0,0,.691-.53l.058-.291a.515.515,0,0,0-.383-.619.506.506,0,0,0-.078-.012l-.5-.045a.669.669,0,0,0-.691.531l-.058.291a.515.515,0,0,0,.383.62A.45.45,0,0,0,3173.546,2158.692Z" transform="translate(-3130.182 -2091.082)" fill="#8ea0aa"/>
            <path id="Trazado_3370" data-name="Trazado 3370" d="M3169.182,2075.687s1.941-8.127,1.6-9.511-1.549-1.792-3.066-1.891-2.838.147-3.652,1.458-1.729,9.5-1.729,9.5" transform="translate(-3121.459 -2015.582)" fill="none" stroke="#226ba0" stroke-miterlimit="10" stroke-width="2"/>
            <path id="Trazado_3371" data-name="Trazado 3371" d="M3192.252,2037.764l-.031-1.183a6.134,6.134,0,0,0-3.471,3.011,10.522,10.522,0,0,0-.594,1.827l1.135.162a9.137,9.137,0,0,1,.51-1.591,4.666,4.666,0,0,1,2.352-2.17C3192.189,2037.8,3192.218,2037.784,3192.252,2037.764Z" transform="translate(-3142.43 -1993.101)" fill="#226ba0"/>
            <path id="Trazado_3372" data-name="Trazado 3372" d="M3260.315,2038.674a4.517,4.517,0,0,0-2.887-3.044l.036,1.355a3.323,3.323,0,0,1,1.711,2.09c.459,1.805-.276,11.609-.549,14.165l1.166,0C3259.834,2052.852,3260.918,2041.039,3260.315,2038.674Z" transform="translate(-3198.683 -1992.328)" fill="#226ba0"/>
            <g id="Grupo_3569" data-name="Grupo 3569" transform="translate(57.237 58.552)">
              <ellipse id="Elipse_676" data-name="Elipse 676" cx="2.286" cy="2.234" rx="2.286" ry="2.234" transform="translate(0 3.215) rotate(-44.67)" fill="#8ea0aa"/>
              <ellipse id="Elipse_677" data-name="Elipse 677" cx="1.512" cy="1.477" rx="1.512" ry="1.477" transform="translate(1.083 3.208) rotate(-44.67)" fill="#5c686e"/>
            </g>
            <path id="Trazado_3373" data-name="Trazado 3373" d="M3301.438,2124.333s.187-4.245.068-15.743c-.084-8.226-1.357-20.111-1.357-20.111l-8.357,2.941s1.415,15.053,2.4,22.5c.486,3.683.811,8.992.811,8.992Z" transform="translate(-3226.589 -2035.245)" fill="#f9bb97"/>
            <path id="Trazado_3374" data-name="Trazado 3374" d="M3298.771,2086.536s.267,1.4.923,9l-8.87,1.263-.729-7.436,8.359-3.28Z" transform="translate(-3225.211 -2033.303)" fill="#0da2e1"/>
            <path id="Trazado_3375" data-name="Trazado 3375" d="M3210.872,2240.568a29.491,29.491,0,0,1-10.3-1.867c-2.721-1.077-13.942-5.481-13.942-5.481l2.142-3.99s11.233,2.207,16.381,2.81a18.372,18.372,0,0,1,5.232,1.36s6.41,3.41,5.653,5.231C3215.59,2239.715,3210.872,2240.568,3210.872,2240.568Z" transform="translate(-3141.192 -2149.544)" fill="#fccfb0"/>
            <path id="Trazado_3376" data-name="Trazado 3376" d="M3284.453,1923.884a2.344,2.344,0,0,1,2.659-.126c1.386.7,1.111,4.72-1.434,6.819-1.879,1.549-2.5,1.221-2.5,1.221Z" transform="translate(-3219.594 -1901.209)" fill="#f9bb97"/>
            <path id="Trazado_3377" data-name="Trazado 3377" d="M3088.256,1928.065h0c0-.018,0-.033-.006-.051Z" transform="translate(-3061.3 -1904.938)" fill="#fccfb0"/>
            <path id="Trazado_3378" data-name="Trazado 3378" d="M3291.754,1928.034a.386.386,0,0,1-.005.05h0A.268.268,0,0,1,3291.754,1928.034Z" transform="translate(-3226.555 -1904.954)" fill="#fccfb0"/>
            <path id="Trazado_3379" data-name="Trazado 3379" d="M3172.524,1853.2s-2.066-12.687-6.387-14.874-9.3-2.527-12.726-2.527c-3.561.247-4.873,1.437-5.966,2.823a12.145,12.145,0,0,0-1.531,3.1,25.67,25.67,0,0,0-.919,6.421c-.2,5.431.053,12.724,1.957,15.967,2.667,4.546,6.87,7.919,10.348,7.829a14.521,14.521,0,0,0,11.085-4.987c3.739-4.453,3.65-9.069,4.071-13.059.022-.208.048-.446.076-.707Z" transform="translate(-3107.335 -1830.049)" fill="#fccfb0"/>
            <path id="Trazado_3380" data-name="Trazado 3380" d="M3227.981,1840.119a23.139,23.139,0,0,0-6.884-2.11c.561.312,1.081.707,1.643,1.057,5.031,3.134,7,5.32,8.166,12.466a34.968,34.968,0,0,1-2.256,18.771,14.694,14.694,0,0,0,1.58-1.561c3.738-4.453,3.649-9.069,4.07-13.059.022-.208.049-.447.076-.707l-.006.016S3232.3,1842.306,3227.981,1840.119Z" transform="translate(-3169.18 -1831.847)" fill="#f9bb97"/>
            <path id="Trazado_3381" data-name="Trazado 3381" d="M3183.135,1848.462c-.822-3.85-2.256-8.862-4.336-10.159a19.471,19.471,0,0,0-10.306-2.528c-2.423,0-5.735-.251-7.734,2.269C3161.778,1839.795,3164.412,1848.36,3183.135,1848.462Z" transform="translate(-3120.181 -1830.028)" fill="#f9bb97"/>
            <ellipse id="Elipse_678" data-name="Elipse 678" cx="1.11" cy="2.121" rx="1.11" ry="2.121" transform="translate(41.691 21.716)" fill="#463129"/>
            <ellipse id="Elipse_679" data-name="Elipse 679" cx="1.217" cy="2.121" rx="1.217" ry="2.121" transform="translate(52.946 21.716)" fill="#463129"/>
            <path id="Trazado_3382" data-name="Trazado 3382" d="M3184.641,1943.771a13.486,13.486,0,0,1-1.57,3.991c-.246.481-.432.892.133,1.037a5.909,5.909,0,0,0,1.5.216" transform="translate(-3138.108 -1917.733)" fill="none" stroke="#ef8661" stroke-linecap="round" stroke-linejoin="round" stroke-width="1"/>
            <path id="Trazado_3383" data-name="Trazado 3383" d="M3158.212,1900.813a2.765,2.765,0,0,1,4.056-.935" transform="translate(-3118.114 -1881.662)" fill="none" stroke="#974837" stroke-linecap="round" stroke-linejoin="round" stroke-width="1"/>
            <path id="Trazado_3384" data-name="Trazado 3384" d="M3219.85,1899.249s1.743-1.837,5.187.683" transform="translate(-3168.167 -1881.054)" fill="none" stroke="#974837" stroke-linecap="round" stroke-linejoin="round" stroke-width="1"/>
            <path id="Trazado_3385" data-name="Trazado 3385" d="M3187.541,1986.982c.416,2.1,1.9,3.242,3.013,3.242,1.663,0,3.849-1.531,4.064-3.242,0,0-2-.216-4.647-.216A10.9,10.9,0,0,0,3187.541,1986.982Z" transform="translate(-3141.931 -1952.646)" fill="#e96b5f"/>
            <path id="Trazado_3386" data-name="Trazado 3386" d="M3187.541,1986.982a5.177,5.177,0,0,0,.206.747h6.646a2.571,2.571,0,0,0,.223-.747s-2-.216-4.647-.216A10.89,10.89,0,0,0,3187.541,1986.982Z" transform="translate(-3141.931 -1952.646)" fill="#fff"/>
            <path id="Trazado_3389" data-name="Trazado 3389" d="M3142.886,2235.991l.157.34s-3.285-.572-4.007-.232-1.087,1.135-.719,1.373,3.75.914,5.251,1.269,5.3,1.362,7.212-.989a3.2,3.2,0,0,0,.522-2.429C3150.912,2234.23,3142.886,2235.991,3142.886,2235.991Z" transform="translate(-3101.839 -2154.203)" fill="#f9bb97"/>
            <path id="Trazado_3390" data-name="Trazado 3390" d="M3112.422,2226.905a39.47,39.47,0,0,0-4-.389c-.864.051-3.817.352-3.937-.192a2.89,2.89,0,0,1,.086-1.227s5.87-1.327,5.958-1.311,3.937.648,4.018.706,1.813,1.892,1.813,1.892l-.642,1.527Z" transform="translate(-3074.456 -2145.124)" fill="#f9bb97"/>
            <path id="Trazado_3391" data-name="Trazado 3391" d="M3106.286,2218.049l-1.867-1.178-3.459-.388-2.738.894s-1.509.779-1.972.918-1.567-.165-1.548-.6,1.5-1.715,2.939-2.4,7.5-2.035,10.082-1.361a80.654,80.654,0,0,1,8.356,3.282s.285,2.6-.413,3.111a3.354,3.354,0,0,1-3.031.433A33.8,33.8,0,0,1,3106.286,2218.049Z" transform="translate(-3066.539 -2136.975)" fill="#fccfb0"/>
            <path id="Trazado_3392" data-name="Trazado 3392" d="M2990.977,2061.755l.6-.6s-2.432-2.284-2.594-3.065.254-1.55.665-1.4,2.984,2.449,4.169,3.436,4.3,2.876,4.028,5.9a3.2,3.2,0,0,1-1.326,2.1C2995.477,2068.628,2990.977,2061.755,2990.977,2061.755Z" transform="translate(-2980.662 -2009.412)" fill="#f9bb97"/>
            <path id="Trazado_3393" data-name="Trazado 3393" d="M2957.112,2051.518a39.35,39.35,0,0,1-3.134-2.523c-.581-.639-2.481-2.922-2.948-2.617a2.879,2.879,0,0,0-.8.936s3.266,5.055,3.339,5.105,3.266,2.292,3.365,2.306,2.619-.082,2.619-.082l.609-1.54Z" transform="translate(-2949.222 -2001.034)" fill="#f9bb97"/>
            <path id="Trazado_3394" data-name="Trazado 3394" d="M2953.516,2048.833l-2.158-.464-2.74-2.141-1.332-2.554s-.533-1.612-.767-2.035-1.236-.979-1.528-.653-.126,2.276.423,3.768,3.935,6.7,6.252,8.026a80.566,80.566,0,0,0,8.267,3.5s2.021-1.656,1.882-2.512a3.368,3.368,0,0,0-1.865-2.432A33.755,33.755,0,0,0,2953.516,2048.833Z" transform="translate(-2944.848 -1996.598)" fill="#fccfb0"/>
            <path id="Trazado_3395" data-name="Trazado 3395" d="M2953.516,2048.833l-2.158-.464-2.74-2.141-1.332-2.554s-.533-1.612-.767-2.035-1.236-.979-1.528-.653-.126,2.276.423,3.768,3.935,6.7,6.252,8.026a80.566,80.566,0,0,0,8.267,3.5s2.021-1.656,1.882-2.512a3.368,3.368,0,0,0-1.865-2.432,33.77,33.77,0,0,0-6.43-2.507Z" transform="translate(-2944.848 -1996.598)" fill="#fccfb0"/>
            <path id="Trazado_3399" data-name="Trazado 3399" d="M3156.215,1829.868c.053.86,4.031,3.624,11.147,5.993s13,1.932,14.158,2.918c0,0-.037-5.359-1.837-8.42s-8.914-6.234-13.78-5.759c-2.005.195-3.95-.457-5.62-.324C3159.35,1824.346,3156.088,1827.754,3156.215,1829.868Z" transform="translate(-3116.49 -1820.68)" fill="#974837"/>
            <path id="Trazado_3400" data-name="Trazado 3400" d="M3183.659,1846.824s4.569,4.01,7.79,5.432,11.311,1.931,11.311,1.931-8.239-1.057-10.449-3.134S3183.659,1846.824,3183.659,1846.824Z" transform="translate(-3138.778 -1839.006)" fill="#ac5c45"/>
            <g id="Grupo_3573" data-name="Grupo 3573" transform="translate(40.137 9.829)">
              <path id="Trazado_3401" data-name="Trazado 3401" d="M3171.771,1862.638a125.214,125.214,0,0,1-13.352-5.115c.886,1.193,4.78,3.369,10.735,5.35a58.783,58.783,0,0,0,13.525,2.611c-.375-.656-1.381-.9-2.6-1.106A51.3,51.3,0,0,1,3171.771,1862.638Z" transform="translate(-3158.419 -1857.523)" fill="#7f3c2d"/>
            </g>
          </g>
        </g>
      </g>
    </g>
    <g id="Grupo_3211" data-name="Grupo 3211" transform="translate(1614 -2930)">
      <g id="Elipse_568" data-name="Elipse 568" transform="translate(432 2327)" fill="#59bfd6" stroke="#227d84" stroke-width="3">
        <circle cx="20" cy="20" r="20" stroke="none"/>
        <circle cx="20" cy="20" r="18.5" fill="none"/>
      </g>
      <path id="Trazado_3103" data-name="Trazado 3103" d="M8.052-9.13a5.184,5.184,0,0,1,3.1,1.507,4.154,4.154,0,0,1,1.078,2.915,4.6,4.6,0,0,1-.7,2.475A4.9,4.9,0,0,1,9.383-.418,8.217,8.217,0,0,1,5.852.264a12.112,12.112,0,0,1-3.2-.429A8.245,8.245,0,0,1-.022-1.386L1.364-4.114A6.715,6.715,0,0,0,3.4-3.091a7.843,7.843,0,0,0,2.365.363,3.749,3.749,0,0,0,2.112-.517,1.661,1.661,0,0,0,.77-1.463Q8.646-6.6,5.764-6.6H4.136V-8.954L7.3-12.54H.748V-15.4h10.78v2.31Z" transform="translate(446 2354)" fill="#fff"/>
    </g>
    <g id="Grupo_4532" data-name="Grupo 4532" transform="translate(-3264.86 -1769.421)">
      <g id="Grupo_4529" data-name="Grupo 4529" transform="translate(5359.99 1192.461)">
        <circle id="Elipse_780" data-name="Elipse 780" cx="47.779" cy="47.779" r="47.779" transform="translate(0 0)" fill="#e2ded9"/>
        <g id="Grupo_4528" data-name="Grupo 4528" transform="translate(5.296 4.185)">
          <g id="Grupo_4502" data-name="Grupo 4502" transform="translate(2.972)">
            <path id="Trazado_5084" data-name="Trazado 5084" d="M5495.928,1304.825a43.23,43.23,0,0,0-5.024-1.542c-.512-.135-1.042-.274-1.557-.416q-.454-.126-.909-.248l-.279-.075-.225.182q-.623.5-1.243,1.007c-1.57-.451-3.632-1.073-6.134-1.85a15.122,15.122,0,0,1-4.669-2.184,7.447,7.447,0,0,1-1.609-1.651c.438.039.845.071,1.24.1l.128.008a24.214,24.214,0,0,0,5.922-.245,13.747,13.747,0,0,0,7.1-3.627,46.971,46.971,0,0,0,4.2-4.716c.48-.207.878-.387,1.244-.56a11.6,11.6,0,0,0,4.928-4c3.777-5.747,1.375-9.915-1.168-14.328-.6-1.045-1.225-2.125-1.774-3.245l-.125-.253c-.362-1.028-1.549-5.259-2-7.61l-.256-1.347c-.833-4.382-1.7-8.913-2.736-13.324-.252-1.067-1.745-6-3.948-8.848a8.462,8.462,0,0,0-4.815-3.1c-.1-.023-.183-.041-.247-.055h0q-.146-.067-.294-.138l-.047-.023c-.1-.049-.2-.1-.312-.155l-.014-.007c-.228-.117-.454-.24-.673-.365-.378-.216-.748-.447-1.1-.685a20.608,20.608,0,0,0-10.105-4.7,21.547,21.547,0,0,0-13.9,2.073,27.651,27.651,0,0,0-6.461,4.694,28.715,28.715,0,0,0-6.653,8.66,65.032,65.032,0,0,0-4.614,13.589c-.069.22-.137.439-.207.658l-2.057,6.5c-.289.734-.562,1.485-.827,2.211a31.771,31.771,0,0,1-2.7,6.067,12.093,12.093,0,0,1-1.542,1.992,9.969,9.969,0,0,1-1.408,1.14l-.231.166c-.538.318-1.727,1.04-1.628,2.325a.939.939,0,0,0,.059.366c.012.044.024.088.039.133a1.9,1.9,0,0,0,.1.247c.2,1.438,1.593,2.625,2.942,3.6a10.82,10.82,0,0,0,5.048,2.154,9.323,9.323,0,0,0,2.749,5.2,11.767,11.767,0,0,0,2.487,1.667,13.98,13.98,0,0,1,1.806,1.116,17.172,17.172,0,0,1,2.175,2.128c.483.531.982,1.08,1.521,1.582a14.193,14.193,0,0,0,8.938,3.787,12.2,12.2,0,0,0,1.942-.061,7.537,7.537,0,0,1-.776.671,15.126,15.126,0,0,1-4.668,2.184c-1.491.463-3.026.878-4.511,1.28l-1.16.315-1.092-.885-.225-.182-.279.076-.909.248c-.516.142-1.045.281-1.557.415a43.285,43.285,0,0,0-5.024,1.542,13.769,13.769,0,0,0-1.938.944l-.158.093a47.78,47.78,0,0,0,63.127.225l-.15-.085A13.98,13.98,0,0,0,5495.928,1304.825Z" transform="translate(-5427.184 -1226.473)" fill="#fff"/>
          </g>
          <g id="Grupo_4527" data-name="Grupo 4527" transform="translate(0 0.566)">
            <g id="Grupo_4523" data-name="Grupo 4523">
              <path id="Trazado_5085" data-name="Trazado 5085" d="M5418.386,1662.7Z" transform="translate(-5416.496 -1609.59)" fill="#736357"/>
              <path id="Trazado_5086" data-name="Trazado 5086" d="M5403.808,1641.351l0,0Z" transform="translate(-5403.712 -1590.867)" fill="#736357"/>
              <path id="Trazado_5087" data-name="Trazado 5087" d="M5509.981,1633.085Z" transform="translate(-5496.821 -1583.618)" fill="#736357"/>
              <path id="Trazado_5088" data-name="Trazado 5088" d="M5403.028,1621.4h0Z" transform="translate(-5403.028 -1573.367)" fill="#736357"/>
              <g id="Grupo_4504" data-name="Grupo 4504" transform="translate(3.539)">
                <g id="Grupo_4503" data-name="Grupo 4503">
                  <path id="Trazado_5089" data-name="Trazado 5089" d="M5499.623,1271.718a61.1,61.1,0,0,1-2.169-8.006c-.933-4.891-1.845-9.8-2.987-14.647-.279-1.181-1.763-5.936-3.845-8.632a7.983,7.983,0,0,0-4.795-2.958,17.151,17.151,0,0,1-2.615-1.472c-4.233-3.983-14.236-7.38-23.391-2.564a26.939,26.939,0,0,0-6.339,4.608,28.3,28.3,0,0,0-6.534,8.5,63.855,63.855,0,0,0-4.574,13.487q-.105.339-.212.676l-2.063,6.515c-1.117,2.838-1.963,5.807-3.584,8.39a12.646,12.646,0,0,1-1.616,2.085,12.382,12.382,0,0,1-1.734,1.385c-.732.433-1.458.983-1.372,1.842a.384.384,0,0,0,.032.2c.01.045.023.09.038.136a1.511,1.511,0,0,0,.11.253c.125,1.37,1.744,2.6,2.723,3.307a9.944,9.944,0,0,0,5.209,2.085,8.821,8.821,0,0,0,2.644,5.313c1.259,1.184,2.9,1.709,4.25,2.747,1.4,1.074,2.449,2.544,3.737,3.745a13.684,13.684,0,0,0,8.582,3.636,13.2,13.2,0,0,0,2.965-.217,46.722,46.722,0,0,0,5.011-.886,21.254,21.254,0,0,1,3.163.046,26.011,26.011,0,0,0,5.625.138c.2-.027.4-.06.6-.1l.918.1a28.878,28.878,0,0,0,8.1-.041,13.182,13.182,0,0,0,6.809-3.481,46.91,46.91,0,0,0,4.237-4.769c.455-.2.907-.4,1.354-.607a11.231,11.231,0,0,0,4.7-3.8C5507.059,1281.947,5502.474,1277.524,5499.623,1271.718Z" transform="translate(-5431.785 -1231.072)" fill="#8c6239"/>
                  <path id="Trazado_5090" data-name="Trazado 5090" d="M5556.229,1321.457c-1.027-2.9-2.528-5.656-3.518-8.573-1.186-5.394-1.951-10.9-3.514-16.2-1.006-3.413-3.323-6.369-3.9-9.927a6.362,6.362,0,0,1-.059-1.465c.307-.678,1.123-.921.748-1.813-.225-.537-.243-.983.282-1.341.242-.165.52-.265.63-.57a.663.663,0,0,0-.1-.646c-.091-.121-.3-.181-.373-.3l0-.007c.045-.159.086-.319.126-.479.063-.063.13-.121.181-.177a1.219,1.219,0,0,0,.1-1.717c0-.113,0-.226,0-.34-.134-.031-.237-.052-.3-.066q-.738-.334-1.442-.738a6.6,6.6,0,0,1-.4.581,1.739,1.739,0,0,0-1.2.978,1.361,1.361,0,0,0-.024.777.532.532,0,0,0,.058.294,2.128,2.128,0,0,0,.113.213c.1.229.211.451.311.658a1.688,1.688,0,0,1-.439,1.462c-.117.136-.232.26-.342.387a1.037,1.037,0,0,0-.615.31,1.4,1.4,0,0,0-.284,1.346c-.046.1-.092.2-.14.3a2.727,2.727,0,0,1-.57.944,3.707,3.707,0,0,1-1.368.612c-2.338.632-4.906,0-7.243-.345a14.727,14.727,0,0,0-3.523-.237,14.1,14.1,0,0,0-3.513.822c-4.325,1.595-7.418,5.28-9.767,9.237-2.365,3.984-4.1,8.32-6.249,12.423-.641,1.221-1.327,2.406-1.88,3.676-.6,1.383-1.1,2.811-1.6,4.237-.42.912-.78,1.862-1.22,2.767a20.542,20.542,0,0,1-3.482,5.073c-.415.441-1,1.019-.551,1.66a1.188,1.188,0,0,0,1.685.172,7.976,7.976,0,0,0,1.107-.918l.8-.638a.265.265,0,0,0,.2-.055c.73-.527,1.9-1.1,2.185.2a12.23,12.23,0,0,1,.037,2.569,19.275,19.275,0,0,0,.623,5.451c.283.959.917,3.167,2.285,2.729.629-.2.674-.848.625-1.433-.072-.858-.153-1.715-.232-2.573a12.933,12.933,0,0,1,2.016,1.2,4.277,4.277,0,0,1,1.542,2.028,5.148,5.148,0,0,0,.471,1.349,4.243,4.243,0,0,0,1.415,1.156c1.556.915,3.286,1.876,3.609,3.908a2.927,2.927,0,0,1-.517,2.213c.268.03.535.055.8.069a13.2,13.2,0,0,0,2.965-.217,46.7,46.7,0,0,0,5.011-.886,21.254,21.254,0,0,1,3.163.046,26.022,26.022,0,0,0,5.625.138c.2-.027.4-.06.6-.1l.918.1c1,.1,2,.189,3,.234a2.609,2.609,0,0,1,.07-1.675,9.543,9.543,0,0,1,2.688-3.588,17.537,17.537,0,0,1,3.37-2.532,23.963,23.963,0,0,1,2.328-.927l-.771,2.881c-.186.693-.407,1.559.292,2.013a.3.3,0,0,0,.319,0,8.637,8.637,0,0,0,2.906-5.572,35.1,35.1,0,0,0,.32-3.822c.056-1.127-.112-3.658,1.448-3.769a.328.328,0,0,0,.106-.027,1.677,1.677,0,0,1,.665.672,4.95,4.95,0,0,1,.323,2.286q0,2.441,0,4.883a.316.316,0,0,0,.588.166C5558.05,1329.581,5557.543,1325.164,5556.229,1321.457Z" transform="translate(-5492.492 -1271.435)" fill="#6d4a2d"/>
                </g>
                <path id="Trazado_5091" data-name="Trazado 5091" d="M5647.561,1239.373c.9-.316,1.8-.592,2.721-.836a.329.329,0,0,0-.168-.634c-.993.264-1.976.566-2.945.916-.522.188-1.42.364-1.692.954-.708,1.531,2.08,1.189,2.663,1.225.267.017,1.356.111,1.484.438.142.363-.5.554-.77.689-.681.341-1.384.634-2.073.958a7.281,7.281,0,0,0-3.33,2.658.33.33,0,0,0,.357.483,33.353,33.353,0,0,1,3.41-.606,1.235,1.235,0,0,1,.477.031q.378.543-.037.7a2.222,2.222,0,0,1-.626.274q-.694.3-1.369.642a24.06,24.06,0,0,0-5.065,3.485c-.31.275.139.739.447.465a23.507,23.507,0,0,1,3.492-2.58q.945-.57,1.938-1.046a9.636,9.636,0,0,0,1.707-.805,1,1,0,0,0-.41-1.788,4.3,4.3,0,0,0-1.735.165l-1.571.283a8.516,8.516,0,0,1,2.966-1.945c.636-.291,1.281-.565,1.9-.887.423-.219,1.089-.509,1.043-1.111-.042-.555-.724-.829-1.152-.971a6.205,6.205,0,0,0-2.232-.175c-.239.01-1.255.08-.764-.46C5646.491,1239.606,5647.2,1239.5,5647.561,1239.373Z" transform="translate(-5614.812 -1237.053)" fill="#a67c52"/>
                <path id="Trazado_5092" data-name="Trazado 5092" d="M5653.735,1330.6a12.2,12.2,0,0,0-6.546,4.821c-.237.344.311.673.546.332a11.507,11.507,0,0,1,6.168-4.519C5654.293,1331.112,5654.127,1330.478,5653.735,1330.6Z" transform="translate(-5620.633 -1318.336)" fill="#a67c52"/>
                <path id="Trazado_5093" data-name="Trazado 5093" d="M5876.159,1366.505a25.175,25.175,0,0,0-3.286-8.2c-.238-.338-.787-.01-.546.332a24.639,24.639,0,0,1,3.222,8.041A.317.317,0,0,0,5876.159,1366.505Z" transform="translate(-5818.067 -1342.527)" fill="#a67c52"/>
                <path id="Trazado_5094" data-name="Trazado 5094" d="M5890.66,1317.933a7.371,7.371,0,0,0-1.187-2.294c-.323-.415-.86-.994-1.437-.755-.652.27-.374,1.014-.164,1.5.225.521.454,1.039.68,1.559.1.222.2.443.292.668.111.272.331,1.379-.3.856-.437-.36-.569-1.186-1.322-1.01-.644.15-.677,1.112-.594,1.65a7.09,7.09,0,0,0,1.2,2.413,8.324,8.324,0,0,1,1.04,3.059c.06.417.669.24.609-.175a9,9,0,0,0-.594-2.189,17.5,17.5,0,0,0-1.187-2.1,2.967,2.967,0,0,1-.468-1.259c-.013-.188-.044-.717.274-.706.13,0,.305.377.371.474.247.361.531.749,1.01.684,1.41-.19.474-2.1.167-2.808q-.267-.612-.535-1.225c-.079-.183-.321-.473-.183-.654s.263,0,.416.144a5.8,5.8,0,0,1,1.3,2.341A.317.317,0,0,0,5890.66,1317.933Z" transform="translate(-5830.628 -1304.523)" fill="#a67c52"/>
              </g>
              <g id="Grupo_4511" data-name="Grupo 4511" transform="translate(20.831 57.464)">
                <g id="Grupo_4507" data-name="Grupo 4507">
                  <g id="Grupo_4506" data-name="Grupo 4506">
                    <g id="Grupo_4505" data-name="Grupo 4505">
                      <path id="Trazado_5095" data-name="Trazado 5095" d="M5614.823,1718.139c-2.132-.591-5.041-1.482-7.157-2.14a15.567,15.567,0,0,1-4.842-2.272,8.166,8.166,0,0,1-3.106-5.006,30.11,30.11,0,0,1-.155-7.413q.081-1.616.2-3.229h-12.854q.111,1.507.188,3.017a30.159,30.159,0,0,1-.155,7.413,8.171,8.171,0,0,1-3.106,5.006,15.567,15.567,0,0,1-4.842,2.272c-2.117.657-4.263,1.2-6.394,1.794-2.014.559,6.931,11.95,20.546,13.2C5606.938,1732.048,5616.837,1718.7,5614.823,1718.139Z" transform="translate(-5572.321 -1698.079)" fill="#efb4a8"/>
                    </g>
                  </g>
                </g>
                <g id="Grupo_4510" data-name="Grupo 4510" transform="translate(0 0.054)">
                  <g id="Grupo_4509" data-name="Grupo 4509">
                    <g id="Grupo_4508" data-name="Grupo 4508">
                      <path id="Trazado_5096" data-name="Trazado 5096" d="M5614.823,1718.579c-.52-.144-1.085-.306-1.673-.478-.608.365-1.223.72-1.83,1.086-1.888,1.136-3.666,2.438-5.588,3.521a34.643,34.643,0,0,1-5.548,2.462,27.274,27.274,0,0,1-5.677,1.485,14.65,14.65,0,0,1-5.7-.565,7.547,7.547,0,0,1-3.209-1.3,1.407,1.407,0,0,1,.091-2.278,3.833,3.833,0,0,1,1.042-.368c.118-.031.247-.084.371-.117a1.012,1.012,0,0,0-.1-.166,2.089,2.089,0,0,0-.728-.579,7.166,7.166,0,0,0-1.774-.535c-1.252-.271-2.535-.512-3.348-1.595-.293-.391.043-.881.415-1.021a14.523,14.523,0,0,0,5.434-3.027c1.275-1.275,2-2.987,3.054-4.428a8.548,8.548,0,0,1,4.336-3.183,19.02,19.02,0,0,0,5.018-2.125c.011-1.215.09-2.432.149-3.616q.081-1.616.2-3.229h-12.854q.111,1.507.188,3.017a30.158,30.158,0,0,1-.155,7.413,8.171,8.171,0,0,1-3.106,5.006,15.567,15.567,0,0,1-4.842,2.272c-2.117.657-4.263,1.2-6.394,1.794-2.014.559,6.931,11.95,20.546,13.2C5606.938,1732.488,5616.837,1719.138,5614.823,1718.579Z" transform="translate(-5572.321 -1698.519)" fill="#e09f94"/>
                    </g>
                  </g>
                </g>
              </g>
              <g id="Grupo_4519" data-name="Grupo 4519" transform="translate(20.551 15.377)">
                <g id="Grupo_4512" data-name="Grupo 4512">
                  <path id="Trazado_5097" data-name="Trazado 5097" d="M5612.235,1377.04c-.081-.314-1.735-4.43-2.149-6.038a37.249,37.249,0,0,0-2.237-8.552,21.286,21.286,0,0,0-4.471-6.3h-13.656a26.007,26.007,0,0,0-4.874,1.816,14.717,14.717,0,0,0-5.808,4.858,44.282,44.282,0,0,0-3.526,6.569c-.04.085-2.255,4.85-3.51,6.95-.125.209-.254.415-.387.618-.661,1.288-1.562,2.778-1.575,4.182a1.924,1.924,0,0,0,2.319,1.443c.173,3.462,2.536,8.385,4.258,11.414,2,3.524,10.1,11.363,15.09,11.363,5.754,0,13.52-8.35,15.6-12.721,1.646-3.459,3.49-7.257,3.521-11.069l.01,0c1.2.175,1.931-.953,1.91-2.045A11.1,11.1,0,0,0,5612.235,1377.04Z" transform="translate(-5570.045 -1356.134)" fill="#ffd0c5"/>
                  <path id="Trazado_5098" data-name="Trazado 5098" d="M5612.235,1376.935c-.081-.314-1.735-4.43-2.149-6.038a37.249,37.249,0,0,0-2.237-8.552,21.286,21.286,0,0,0-4.471-6.3h-13.656a26.006,26.006,0,0,0-4.874,1.816,14.72,14.72,0,0,0-5.808,4.858,44.291,44.291,0,0,0-3.526,6.569c-.04.085-2.255,4.85-3.51,6.951-.125.209-.254.415-.387.618-.661,1.288-1.562,2.778-1.575,4.183a1.924,1.924,0,0,0,2.319,1.443c.074,1.484.682,4.283.7,3.251a35.048,35.048,0,0,1,.569-5.879,42.82,42.82,0,0,1,3.269-9.335,25.688,25.688,0,0,1,5.365-7.494,17.337,17.337,0,0,1,8.118-4.449c4.208-.887,8.542.051,12.765-.7a.068.068,0,0,1,.074.03c1.392,2.364,2.81,4.719,4,7.194a31.9,31.9,0,0,1,2.425,6.756,30.575,30.575,0,0,1,.6,7.535c-.065,2.483-.349,4.947-.506,7.424-.048.759,1.07-2.763,1.091-5.346l.01,0c1.2.175,1.931-.953,1.91-2.045A11.1,11.1,0,0,0,5612.235,1376.935Z" transform="translate(-5570.045 -1356.042)" fill="#efb4a8"/>
                </g>
                <g id="Grupo_4518" data-name="Grupo 4518" transform="translate(5.918 13.225)">
                  <g id="Grupo_4513" data-name="Grupo 4513" transform="translate(0.504 4.339)">
                    <path id="Trazado_5099" data-name="Trazado 5099" d="M5632.013,1502.594c-.29-.453-.5-.954-.746-1.428-.065-.124-.132-.244-.2-.361a5.648,5.648,0,0,0-.583-.684,4.448,4.448,0,0,0-2.577-1.308,4.219,4.219,0,0,0-2.4.44c-.393.3-.787.607-1.172.919-.564.52-1.145,1.024-1.695,1.559h.036c-.12.148-.237.3-.349.443a.2.2,0,0,0-.022.036.205.205,0,0,0-.025.282,6.4,6.4,0,0,0,6.327,2.078,2.451,2.451,0,0,0,.8-.159,12.823,12.823,0,0,0,3.073-1.178C5632.316,1503.023,5632.155,1502.816,5632.013,1502.594Z" transform="translate(-5622.232 -1498.784)" fill="#fff"/>
                  </g>
                  <g id="Grupo_4514" data-name="Grupo 4514" transform="translate(20.485 4.306)">
                    <path id="Trazado_5100" data-name="Trazado 5100" d="M5784.617,1502.961a12.817,12.817,0,0,0,3.072,1.178,2.448,2.448,0,0,0,.8.159,6.4,6.4,0,0,0,6.326-2.078.2.2,0,0,0-.025-.282.244.244,0,0,0-.021-.036c-.112-.147-.229-.3-.35-.443h.036c-.55-.535-1.13-1.039-1.694-1.559-.386-.312-.779-.615-1.172-.919a4.221,4.221,0,0,0-2.4-.44,4.446,4.446,0,0,0-2.576,1.307,5.65,5.65,0,0,0-.583.684q-.105.175-.2.361c-.25.475-.456.975-.746,1.428C5784.935,1502.545,5784.773,1502.751,5784.617,1502.961Z" transform="translate(-5784.617 -1498.513)" fill="#fff"/>
                  </g>
                  <g id="Grupo_4515" data-name="Grupo 4515" transform="translate(0 2.985)">
                    <path id="Trazado_5101" data-name="Trazado 5101" d="M5793.862,1500.446a1.628,1.628,0,0,1-.951.044c-.134-.158-.271-.315-.414-.468a1.545,1.545,0,0,0,.811-.263c.209-.141.005-.493-.2-.341a1.419,1.419,0,0,1-1.015.192c-.166-.16-.336-.316-.512-.461a2.109,2.109,0,0,0,1.185-.378c.207-.144,0-.505-.2-.341a2.49,2.49,0,0,1-1.507.326,4.223,4.223,0,0,0-5.7.507,5.88,5.88,0,0,0-.944,1.26c-.29.517-.431,1.3-1,1.582l-.006,0a.2.2,0,0,0-.08.365,12.835,12.835,0,0,0,3.123,1.223,2.438,2.438,0,0,0,.807.164,6.412,6.412,0,0,0,6.408-2.147.215.215,0,0,0-.026-.291.213.213,0,0,0-.022-.037c-.113-.152-.232-.3-.354-.458a1.9,1.9,0,0,0,.7-.1C5794.206,1500.745,5794.093,1500.338,5793.862,1500.446Zm-.587,1.128a5.447,5.447,0,0,1-3.221,1.891,6.143,6.143,0,0,1-2.557.089,9.249,9.249,0,0,1-1.983-.611,2.561,2.561,0,0,1-1.019-.636.234.234,0,0,1-.139-.3,4.784,4.784,0,0,1,3.156-3.232C5789.714,1498.31,5791.917,1499.761,5793.275,1501.574Z" transform="translate(-5762.92 -1496.638)" fill="#754c24"/>
                    <path id="Trazado_5102" data-name="Trazado 5102" d="M5618.272,1500.555a1.9,1.9,0,0,0,.7.1c-.122.153-.24.306-.354.458a.209.209,0,0,0-.022.037.215.215,0,0,0-.026.291,6.411,6.411,0,0,0,6.408,2.147,2.438,2.438,0,0,0,.807-.164,12.842,12.842,0,0,0,3.123-1.223.2.2,0,0,0-.08-.365l-.006,0c-.567-.28-.708-1.065-1-1.582a5.863,5.863,0,0,0-.944-1.26,4.223,4.223,0,0,0-5.7-.507,2.49,2.49,0,0,1-1.507-.326c-.195-.164-.406.2-.2.341a2.11,2.11,0,0,0,1.185.378c-.177.146-.347.3-.513.461a1.418,1.418,0,0,1-1.014-.192c-.2-.152-.409.2-.2.341a1.544,1.544,0,0,0,.811.263c-.143.153-.279.31-.414.468a1.629,1.629,0,0,1-.951-.044C5618.146,1500.067,5618.033,1500.474,5618.272,1500.555Zm9.61,1.183a.235.235,0,0,1-.139.3,2.558,2.558,0,0,1-1.019.636,9.25,9.25,0,0,1-1.983.611,6.143,6.143,0,0,1-2.557-.089,5.444,5.444,0,0,1-3.22-1.891c1.152-1.539,2.958-3.195,4.952-2.942A4.851,4.851,0,0,1,5627.882,1501.738Z" transform="translate(-5618.139 -1496.401)" fill="#754c24"/>
                    <path id="Trazado_5103" data-name="Trazado 5103" d="M5797.763,1487.789a4.648,4.648,0,0,0-1.133.217,6.469,6.469,0,0,0-2.777,2.025c-.16.2.1.465.279.279a5.627,5.627,0,0,1,3.632-2.126,4.608,4.608,0,0,1,3.592,1.3c.181.179.46-.1.279-.279A5,5,0,0,0,5797.763,1487.789Z" transform="translate(-5772.188 -1487.775)" fill="#efb4a8"/>
                  </g>
                  <path id="Trazado_5104" data-name="Trazado 5104" d="M5719.8,1587.914c-.98-1.079-.656-2.506-.256-3.766.076-.241.458-.138.38.1-.351,1.1-.723,2.416.155,3.382C5720.25,1587.822,5719.971,1588.1,5719.8,1587.914Z" transform="translate(-5706.724 -1569.184)" fill="#efb4a8"/>
                  <g id="Grupo_4516" data-name="Grupo 4516" transform="translate(0.96)">
                    <path id="Trazado_5105" data-name="Trazado 5105" d="M5633.4,1463.57l-2.009-.026a12.352,12.352,0,0,0-3.015.136,3.688,3.688,0,0,0-1.06.446c-1.268.644-1.707,1.905-1.125,1.319a5.351,5.351,0,0,1,1.733-1.02,6.164,6.164,0,0,1,1.56-.24c.766.008,1.539.107,2.292.166a22.263,22.263,0,0,0,2.391.219c.4-.011.754-.623.146-.811A3.359,3.359,0,0,0,5633.4,1463.57Z" transform="translate(-5625.939 -1463.518)" fill="#754c24"/>
                    <path id="Trazado_5106" data-name="Trazado 5106" d="M5799.338,1463.57l2.009-.026a12.348,12.348,0,0,1,3.014.136,3.677,3.677,0,0,1,1.06.446c1.268.644,1.707,1.905,1.125,1.319a5.359,5.359,0,0,0-1.732-1.02,6.171,6.171,0,0,0-1.561-.24c-.766.008-1.539.107-2.291.166a22.263,22.263,0,0,1-2.391.219c-.4-.011-.754-.623-.146-.811A3.359,3.359,0,0,1,5799.338,1463.57Z" transform="translate(-5776.916 -1463.518)" fill="#754c24"/>
                    <path id="Trazado_5107" data-name="Trazado 5107" d="M5637.092,1487.829a4.611,4.611,0,0,0-1.133-.217,5,5,0,0,0-3.871,1.419c-.181.179.1.458.279.279a4.609,4.609,0,0,1,3.592-1.3,5.63,5.63,0,0,1,3.632,2.126c.175.186.438-.082.279-.279A6.47,6.47,0,0,0,5637.092,1487.829Z" transform="translate(-5631.28 -1484.634)" fill="#efb4a8"/>
                  </g>
                  <path id="Trazado_5108" data-name="Trazado 5108" d="M5733.268,1603.337a.525.525,0,0,1,.11-.013.476.476,0,0,1,.416.212,1.281,1.281,0,0,1,.285.255,1.4,1.4,0,0,0,.188-.742c0-.54-.239-.978-.534-.978s-.533.438-.533.978a1.763,1.763,0,0,0,.023.284Z" transform="translate(-5719.042 -1585.022)" fill="#e08f82"/>
                  <path id="Trazado_5109" data-name="Trazado 5109" d="M5754.8,1603.337a.513.513,0,0,0-.11-.013.476.476,0,0,0-.416.212,1.305,1.305,0,0,0-.286.255,1.407,1.407,0,0,1-.188-.742c0-.54.239-.978.534-.978s.534.438.534.978a1.763,1.763,0,0,1-.023.284Z" transform="translate(-5737.11 -1585.022)" fill="#e08f82"/>
                  <g id="Grupo_4517" data-name="Grupo 4517" transform="translate(11.996 21.361)">
                    <path id="Trazado_5110" data-name="Trazado 5110" d="M5720.916,1647.891c-.129-.015-.785.2-1.122.207-.318-.009-.956-.226-1.121-.207-.251-.022-6.44,1.813-.432,4.477a6.548,6.548,0,0,0,3.085.138C5727.366,1649.888,5721.166,1647.868,5720.916,1647.891Z" transform="translate(-5715.625 -1646.563)" fill="#e59285"/>
                    <path id="Trazado_5111" data-name="Trazado 5111" d="M5718.473,1665.579h6.612c.041-.006.391-.133.277-.189h-7.478C5717.851,1665.44,5718.342,1665.559,5718.473,1665.579Z" transform="translate(-5717.605 -1661.911)" fill="#aa534f"/>
                    <path id="Trazado_5112" data-name="Trazado 5112" d="M5741.346,1637.161a1.162,1.162,0,0,1-1.155-.008c-.29-.171-.6.254-.31.426a1.7,1.7,0,0,0,1.684.061C5741.863,1637.482,5741.646,1637,5741.346,1637.161Z" transform="translate(-5736.794 -1637.113)" fill="#efb4a8"/>
                    <path id="Trazado_5113" data-name="Trazado 5113" d="M5738.575,1689.572a3.971,3.971,0,0,1-2.6-.011.263.263,0,0,0-.169.5,4.449,4.449,0,0,0,2.88.027C5739,1689.982,5738.9,1689.466,5738.575,1689.572Z" transform="translate(-5733.171 -1683.094)" fill="#efb4a8"/>
                  </g>
                  <circle id="Elipse_781" data-name="Elipse 781" cx="2.368" cy="2.368" r="2.368" transform="translate(3.066 5.049)" fill="#754c24"/>
                  <circle id="Elipse_782" data-name="Elipse 782" cx="2.368" cy="2.368" r="2.368" transform="matrix(0.999, -0.036, 0.036, 0.999, 23.377, 5.267)" fill="#754c24"/>
                  <circle id="Elipse_783" data-name="Elipse 783" cx="1.245" cy="1.245" r="1.245" transform="translate(4.132 6.605) rotate(-15.482)" fill="#683c17"/>
                  <circle id="Elipse_784" data-name="Elipse 784" cx="1.245" cy="1.245" r="1.245" transform="translate(24.48 6.328) rotate(-5.152)" fill="#683c17"/>
                  <path id="Trazado_5114" data-name="Trazado 5114" d="M5649.35,1527.72a.667.667,0,1,1-.667-.667A.667.667,0,0,1,5649.35,1527.72Z" transform="translate(-5644.339 -1519.235)" fill="#fff"/>
                  <path id="Trazado_5115" data-name="Trazado 5115" d="M5812.714,1525.25a.667.667,0,1,1-.667-.667A.668.668,0,0,1,5812.714,1525.25Z" transform="translate(-5787.602 -1517.069)" fill="#fff"/>
                  <circle id="Elipse_785" data-name="Elipse 785" cx="0.322" cy="0.322" r="0.322" transform="translate(6.037 7.7) rotate(-85.935)" fill="#fff"/>
                  <path id="Trazado_5116" data-name="Trazado 5116" d="M5829.721,1521.064a.323.323,0,1,1-.322-.323A.322.322,0,0,1,5829.721,1521.064Z" transform="translate(-5803.121 -1513.701)" fill="#fff"/>
                </g>
              </g>
              <g id="Grupo_4522" data-name="Grupo 4522" transform="translate(10.932 75.783)">
                <g id="Grupo_4521" data-name="Grupo 4521">
                  <g id="Grupo_4520" data-name="Grupo 4520">
                    <path id="Trazado_5117" data-name="Trazado 5117" d="M5545.922,1847.542l-.906-.248c-2.343,1.892-4.663,3.812-7.078,5.612a38.667,38.667,0,0,1-9.7,5.611,19.451,19.451,0,0,1-2.526.732v-.02a17.65,17.65,0,0,1-7.781-1.056,38.682,38.682,0,0,1-9.7-5.611c-2.415-1.8-4.735-3.719-7.077-5.612l-.907.248a61.935,61.935,0,0,0-6.522,1.938,13.164,13.164,0,0,0-1.859.9,47.782,47.782,0,0,0,62.251.239,13.378,13.378,0,0,0-1.676-.8A61.935,61.935,0,0,0,5545.922,1847.542Z" transform="translate(-5491.869 -1846.95)" fill="#65b1c9"/>
                  </g>
                </g>
              </g>
            </g>
            <g id="Grupo_4526" data-name="Grupo 4526" transform="translate(22.377 32.978)">
              <path id="Trazado_5118" data-name="Trazado 5118" d="M5876,1499.23a36.652,36.652,0,0,1-3,6.982.7.7,0,0,0,1.2.7,19.949,19.949,0,0,0,2.388-5.838C5876.737,1499.419,5876.15,1498.757,5876,1499.23Z" transform="translate(-5837.465 -1499.081)" fill="#e4eef2"/>
              <path id="Trazado_5119" data-name="Trazado 5119" d="M5585.5,1503.461a36.653,36.653,0,0,0,3,6.982.7.7,0,0,1-1.2.7,19.923,19.923,0,0,1-2.389-5.838C5584.762,1503.651,5585.349,1502.989,5585.5,1503.461Z" transform="translate(-5584.887 -1502.792)" fill="#e4eef2"/>
              <g id="Grupo_4525" data-name="Grupo 4525" transform="translate(2.264 4.37)">
                <path id="Trazado_5120" data-name="Trazado 5120" d="M5626.8,1536.672a6.562,6.562,0,0,1-3.866-1.31,4.007,4.007,0,0,0-4.58-.1,8.1,8.1,0,0,1-4.483,1.411h-10.582v6.736c0,8.855,7.694,17.313,16.548,17.313h1.943c8.775,0,16.167-8.394,16.167-17.17v-6.88Z" transform="translate(-5603.288 -1534.592)" fill="#e4eef2"/>
                <g id="Grupo_4524" data-name="Grupo 4524" transform="translate(1.447 3.289)">
                  <path id="Trazado_5121" data-name="Trazado 5121" d="M5624.772,1661.655a15.112,15.112,0,0,0,1.126,2.142h27.239a15.162,15.162,0,0,0,1.126-2.142Z" transform="translate(-5623.575 -1649.309)" fill="#fff"/>
                  <path id="Trazado_5122" data-name="Trazado 5122" d="M5615.046,1609.461v2.3c.007.039.013.078.02.117h31.846c.007-.039.013-.078.02-.117v-2.3Z" transform="translate(-5615.046 -1603.537)" fill="#fff"/>
                  <path id="Trazado_5123" data-name="Trazado 5123" d="M5616.623,1636.179a18.427,18.427,0,0,0,.662,2.268h30.174a18.258,18.258,0,0,0,.662-2.268Z" transform="translate(-5616.429 -1626.968)" fill="#fff"/>
                  <path id="Trazado_5124" data-name="Trazado 5124" d="M5639.076,1686.518c.1.128,1.462,2.746,6.253,4.229h13.465c4.791-1.484,6.157-4.1,6.253-4.229Z" transform="translate(-5636.119 -1671.113)" fill="#fff"/>
                  <path id="Trazado_5125" data-name="Trazado 5125" d="M5634.9,1562.038a17.156,17.156,0,0,0-3.566-.717h-.7a17.143,17.143,0,0,0-3.565.717h-12.027v4.34h31.885v-4.34Z" transform="translate(-5615.046 -1561.321)" fill="#fff"/>
                </g>
              </g>
            </g>
          </g>
        </g>
      </g>
      <g id="Grupo_4530" data-name="Grupo 4530" transform="translate(5400.351 1264.441)">
        <circle id="Elipse_786" data-name="Elipse 786" cx="6.629" cy="6.629" r="6.629" transform="translate(0)" fill="#ff071f" opacity="0.2"/>
        <path id="Trazado_5126" data-name="Trazado 5126" d="M5714.982,1800.028a4.389,4.389,0,1,1-4.389-4.389A4.389,4.389,0,0,1,5714.982,1800.028Z" transform="translate(-5703.964 -1793.399)" fill="#ff071f" opacity="0.25"/>
        <path id="Trazado_5127" data-name="Trazado 5127" d="M5728.551,1815.811a2.175,2.175,0,1,1-2.175-2.175A2.175,2.175,0,0,1,5728.551,1815.811Z" transform="translate(-5719.747 -1809.182)" fill="#ff071f"/>
      </g>
      <g id="Grupo_4531" data-name="Grupo 4531" transform="translate(5400.869 1214.931)">
        <circle id="Elipse_787" data-name="Elipse 787" cx="6.629" cy="6.629" r="6.629" transform="translate(0 0)" fill="#ff071f" opacity="0.2"/>
        <path id="Trazado_5128" data-name="Trazado 5128" d="M5719.191,1397.663a4.389,4.389,0,1,1-4.389-4.389A4.389,4.389,0,0,1,5719.191,1397.663Z" transform="translate(-5708.173 -1391.034)" fill="#ff071f" opacity="0.25"/>
        <path id="Trazado_5129" data-name="Trazado 5129" d="M5732.76,1413.446a2.175,2.175,0,1,1-2.175-2.175A2.175,2.175,0,0,1,5732.76,1413.446Z" transform="translate(-5723.956 -1406.817)" fill="#ff071f"/>
      </g>
    </g>
  </g>
</svg>
