<svg xmlns="http://www.w3.org/2000/svg" width="435" height="198" viewBox="0 0 435 198">
  <g id="Grupo_4535" data-name="Grupo 4535" transform="translate(-595 -754)">
    <g id="Grupo_4498" data-name="Grupo 4498">
      <g id="Grupo_4460" data-name="Grupo 4460">
        <rect id="Rectángulo_937" data-name="Rectángulo 937" width="435" height="198" transform="translate(595 754)" fill="#efefef"/>
        <g id="Grupo_3578" data-name="Grupo 3578" transform="translate(160.218 508.317)">
          <path id="Trazado_3349" data-name="Trazado 3349" d="M439.478,580.266s5.727-13.729,11.939-30.164c5.382-14.239,8.616-21.6,8.616-21.6l8.316,17.87s-3.5,11.412-6.064,18.012c-2.492,6.408-14.549,26.5-14.549,26.5Z" transform="translate(292.643 -164.752)" fill="#f9bb97"/>
          <path id="Trazado_3350" data-name="Trazado 3350" d="M513.705,528.5s-3.733,5.306-8.783,17.872l14.8,9.987,3.83-10.321-8.159-16.721Z" transform="translate(238.971 -164.752)" fill="#0da2e1"/>
          <path id="Trazado_3351" data-name="Trazado 3351" d="M328.137,611.093a35.369,35.369,0,0,0-4.448-7.792c-3.195-4.371-21.777-29.216-21.777-29.216l-6.489,4.232s12.695,25.94,15.236,31.2,9.165,13.288,9.165,13.288,8.047,6.9,9.769,5.456S328.137,611.093,328.137,611.093Z" transform="translate(410.785 -202.137)" fill="#fccfb0"/>
          <path id="Trazado_3352" data-name="Trazado 3352" d="M589.06,1.956c-15.758,0-21.6,6.654-25.363,12.464-7.69,11.872-1.484,34.064-1.484,34.064l36.818,21.652a38.438,38.438,0,0,0,4.733-3.1c6.432-4.894,15.114-14.779,15.688-33.194C620.089,13.476,605.257,1.956,589.06,1.956Z" transform="translate(193.926 267.079)" fill="#974837"/>
          <path id="Trazado_3353" data-name="Trazado 3353" d="M786.053,357.849s7.274,2.463,5.973,15.7,2.413,27.957,2.413,27.957-10.249-5.325-11.773-13.968S780.112,360.026,786.053,357.849Z" transform="translate(12.155 -24.797)" fill="#7f3c2d"/>
          <path id="Trazado_3354" data-name="Trazado 3354" d="M560.194,31.955s-.023-10.347,1.292-15.5c.977-3.828,4.25-8.364,7.48-9.913a12.312,12.312,0,0,1,5.3-5.348c3.643-1.754,12.516-1.266,19.749-.521Z" transform="translate(193.642 268.683)" fill="#974837"/>
          <path id="Trazado_3355" data-name="Trazado 3355" d="M762.634,45.9c1.389,5.075,3.567,15.439,1.438,24.8-2.239,9.852-13.118,25.218-18.27,32.1l5.735,3.373a38.439,38.439,0,0,0,4.734-3.1c6.432-4.894,15.114-14.779,15.689-33.194C772.285,59.438,768.539,51.33,762.634,45.9Z" transform="translate(41.42 231.04)" fill="#7f3c2d"/>
          <path id="Trazado_3356" data-name="Trazado 3356" d="M545.426,508.807c.553-4.558,7.051-7.42,7.051-7.42l2.438-.921.008,21.607Z" transform="translate(205.753 -141.76)" fill="#0da2e1"/>
          <path id="Trazado_3357" data-name="Trazado 3357" d="M602.879,450.793c-3.222-2.159-12.673-1.35-15.894.81s-12.008,6.853-12.618,7.084c-2.729,4.413-5.7,18.834-5.158,21.607h48.668l1.74-20.686A78.313,78.313,0,0,1,602.879,450.793Z" transform="translate(186.3 -99.98)" fill="#0da2e1"/>
          <path id="Trazado_3358" data-name="Trazado 3358" d="M668.32,451.6l1.336,14.853,16.362-14.57c-.7-.4-1.316-.766-1.8-1.093C680.992,448.633,671.542,449.443,668.32,451.6Z" transform="translate(104.965 -99.98)" fill="#f9bb97"/>
          <path id="Trazado_3359" data-name="Trazado 3359" d="M834.954,508.218c-.768-3.834-11.788-7.6-11.788-7.6l-2.766-1.089c-6.717,6.3-.515,21.775,1.026,21.775Z" transform="translate(-17.248 -140.995)" fill="#0da2e1"/>
          <path id="Trazado_3360" data-name="Trazado 3360" d="M669.75,359.587l.27,10.388s2.159,2.833,7.42,2.833a15.449,15.449,0,0,0,9.148-3.332l-.561-20.891Z" transform="translate(103.792 -17.199)" fill="#f9bb97"/>
          <path id="Trazado_3361" data-name="Trazado 3361" d="M547.229,856.12h55.922c-1.388-3.264-2.825-6.354-4.229-9.056-3.777-7.268-3.865-16.031-3.865-16.031H547.033s.084,7.667.084,16.031C547.117,850.7,547.173,853.476,547.229,856.12Z" transform="translate(204.435 -412.866)" fill="#0da2e1"/>
          <path id="Trazado_3362" data-name="Trazado 3362" d="M542.341,591.428c-1.619,13.851,1.432,38.252,1.432,38.252h45.876l6.984-55.6H547.872S543.376,582.566,542.341,591.428Z" transform="translate(208.672 -202.137)" fill="#0da2e1"/>
          <path id="Trazado_3363" data-name="Trazado 3363" d="M527.287,574.085s-7.91,11.332-9.934,15.38,1.349,13.626,7.69,16.594h2.918l3.642-25.767,2.024-6.206Z" transform="translate(229.257 -202.137)" fill="#0da2e1"/>
          <path id="Trazado_3364" data-name="Trazado 3364" d="M717.122,619.761s-10.586,13.418-13.192,16.412-7.7,3.358-12.687,3.477,7.155,11.5,7.155,11.5,7.136,2.833,14.087,5.522Z" transform="translate(87.15 -239.597)" fill="#0094d7"/>
          <path id="Trazado_3365" data-name="Trazado 3365" d="M527.865,716.018l.016.028c.18.3.371.6.569.891.024.035.046.071.071.106.182.264.374.52.57.773.042.053.08.109.122.162.235.295.479.581.734.856.082,5.971.5,12.166.93,17.057h-.015s.084,7.667.084,16.031q0,1.655.014,3.275c0,.491-.107,2.24-.1,2.731.013,1.208-.054,2.137-.123,3.05h2.032c2.395-2.813,6.419-5.413,13.946-5.413,4.842,0,9.394,2.054,13.556,5.413h26.711c-1.388-3.264-2.825-6.354-4.229-9.056a30.118,30.118,0,0,1-1.926-4.684,43.347,43.347,0,0,1-1.937-11.219q0-.053,0-.083l2.521-20.066c-9.4,1.571-24.641,2.056-32.116,2.056-8.679,0-17.921-.653-21.976-2.9h0Q527.574,715.527,527.865,716.018Z" transform="translate(220.606 -317.723)" fill="#0094d7"/>
          <path id="Trazado_3366" data-name="Trazado 3366" d="M572.56,597.111l-1.835,12.13c-.52,3.437,3.294,4.27,3.294,4.27" transform="translate(185.045 -221.021)" fill="none" stroke="#5c686e" stroke-miterlimit="10" stroke-width="2"/>
          <path id="Trazado_3367" data-name="Trazado 3367" d="M587.639,682.5l-.94-.038a.951.951,0,0,1-.91-1.122l.081-.539a1.24,1.24,0,0,1,1.237-1.035l.939.038a.951.951,0,0,1,.911,1.122l-.081.539A1.24,1.24,0,0,1,587.639,682.5Z" transform="translate(172.661 -288.811)" fill="#8ea0aa"/>
          <path id="Trazado_3368" data-name="Trazado 3368" d="M620.749,601.747l-2.4,12.094c-.68,3.427-4.7,3.755-4.7,3.755" transform="translate(149.801 -224.823)" fill="none" stroke="#5c686e" stroke-miterlimit="10" stroke-width="2"/>
          <path id="Trazado_3369" data-name="Trazado 3369" d="M600.644,683.247l.932.082a1.237,1.237,0,0,0,1.278-.981l.107-.538a.953.953,0,0,0-.851-1.169l-.932-.082a1.237,1.237,0,0,0-1.278.981l-.107.538A.953.953,0,0,0,600.644,683.247Z" transform="translate(161.183 -289.455)" fill="#8ea0aa"/>
          <path id="Trazado_3370" data-name="Trazado 3370" d="M591.675,521.973s3.591-15.039,2.957-17.6-2.867-3.316-5.675-3.5-5.252.274-6.757,2.7-3.2,17.583-3.2,17.583" transform="translate(178.215 -142.069)" fill="none" stroke="#226ba0" stroke-miterlimit="10" stroke-width="2"/>
          <path id="Trazado_3371" data-name="Trazado 3371" d="M636.507,449.477l-.057-2.19a11.348,11.348,0,0,0-6.422,5.573,19.512,19.512,0,0,0-1.1,3.38l2.1.3a17.088,17.088,0,0,1,.944-2.943,8.633,8.633,0,0,1,4.354-4.017C636.391,449.547,636.445,449.513,636.507,449.477Z" transform="translate(137.268 -98.147)" fill="#226ba0"/>
          <path id="Trazado_3372" data-name="Trazado 3372" d="M768.182,451.082a8.361,8.361,0,0,0-5.344-5.634l.067,2.507a6.153,6.153,0,0,1,3.167,3.867c.849,3.34-.511,21.483-1.017,26.215l2.159-.008C767.291,477.319,769.295,455.459,768.182,451.082Z" transform="translate(27.449 -96.639)" fill="#226ba0"/>
          <g id="Grupo_3569" data-name="Grupo 3569" transform="translate(787.497 377.032)">
            <ellipse id="Elipse_676" data-name="Elipse 676" cx="4.231" cy="4.134" rx="4.231" ry="4.134" transform="translate(0 5.949) rotate(-44.67)" fill="#8ea0aa"/>
            <ellipse id="Elipse_677" data-name="Elipse 677" cx="2.798" cy="2.734" rx="2.798" ry="2.734" transform="translate(2.004 5.937) rotate(-44.67)" fill="#5c686e"/>
          </g>
          <path id="Trazado_3373" data-name="Trazado 3373" d="M847.127,613.976s.347-7.855.128-29.134c-.157-15.222-2.512-37.216-2.512-37.216l-15.464,5.442s2.618,27.856,4.444,41.629c.9,6.816,1.5,16.64,1.5,16.64Z" transform="translate(-27.041 -180.437)" fill="#f9bb97"/>
          <path id="Trazado_3374" data-name="Trazado 3374" d="M842.054,543.832s.495,2.586,1.709,16.661l-16.414,2.338L826,549.071,841.469,543Z" transform="translate(-24.352 -176.643)" fill="#0da2e1"/>
          <path id="Trazado_3375" data-name="Trazado 3375" d="M670.823,840.731a54.538,54.538,0,0,1-19.057-3.453c-5.035-1.992-25.8-10.142-25.8-10.142l3.964-7.385s20.786,4.084,30.315,5.2a34.035,34.035,0,0,1,9.681,2.517s11.861,6.311,10.461,9.68C679.554,839.154,670.823,840.731,670.823,840.731Z" transform="translate(139.7 -403.612)" fill="#fccfb0"/>
          <path id="Trazado_3376" data-name="Trazado 3376" d="M814.982,229.358s1.889-1.754,4.92-.234c2.567,1.287,2.056,8.734-2.653,12.618-3.476,2.867-4.628,2.26-4.628,2.26Z" transform="translate(-13.379 81.282)" fill="#f9bb97"/>
          <path id="Trazado_3377" data-name="Trazado 3377" d="M435.76,237.5h0c0-.033-.007-.062-.01-.095Z" transform="translate(295.701 73.978)" fill="#fccfb0"/>
          <path id="Trazado_3378" data-name="Trazado 3378" d="M829.208,237.42c0,.033-.006.061-.01.093h0C829.2,237.483,829.2,237.451,829.208,237.42Z" transform="translate(-26.975 73.97)" fill="#fccfb0"/>
          <path id="Trazado_3379" data-name="Trazado 3379" d="M596.379,91.287s-3.823-23.478-11.819-27.525-17.219-4.677-23.55-4.677c-6.588.457-9.017,2.66-11.04,5.224-.534.677-1.4,2.042-2.833,5.734a47.565,47.565,0,0,0-1.7,11.882c-.363,10.05.1,23.545,3.622,29.547,4.934,8.413,12.714,14.654,19.15,14.488,10.27-.264,16.632-4.756,20.513-9.229,6.918-8.24,6.754-16.783,7.533-24.166.041-.385.089-.826.14-1.309Z" transform="translate(205.832 220.226)" fill="#fccfb0"/>
          <path id="Trazado_3380" data-name="Trazado 3380" d="M705.339,67.274A42.82,42.82,0,0,0,692.6,63.368c1.037.577,2,1.309,3.04,1.957,9.309,5.8,12.957,9.844,15.11,23.069,1.889,11.6.135,25.363-4.175,34.737a27.167,27.167,0,0,0,2.924-2.888c6.918-8.24,6.754-16.783,7.533-24.166.041-.385.089-.826.14-1.309l-.013.03S713.336,71.322,705.339,67.274Z" transform="translate(85.052 216.713)" fill="#f9bb97"/>
          <path id="Trazado_3381" data-name="Trazado 3381" d="M617.346,82.507c-1.52-7.125-4.175-16.4-8.025-18.8-6.476-4.047-13.944-4.677-19.071-4.677-4.483,0-10.613-.465-14.311,4.2C577.825,66.468,582.7,82.319,617.346,82.507Z" transform="translate(180.729 220.285)" fill="#f9bb97"/>
          <ellipse id="Elipse_678" data-name="Elipse 678" cx="2.055" cy="3.925" rx="2.055" ry="3.925" transform="translate(758.73 308.866)" fill="#463129"/>
          <ellipse id="Elipse_679" data-name="Elipse 679" cx="2.253" cy="3.925" rx="2.253" ry="3.925" transform="translate(779.557 308.866)" fill="#463129"/>
          <path id="Trazado_3382" data-name="Trazado 3382" d="M621.952,267.85c-.345,2.758-2.216,6.039-2.905,7.386-.455.89-.8,1.651.246,1.92a10.953,10.953,0,0,0,2.775.4" transform="translate(145.738 49.013)" fill="none" stroke="#ef8661" stroke-linecap="round" stroke-linejoin="round" stroke-width="1"/>
          <path id="Trazado_3383" data-name="Trazado 3383" d="M571.013,184.672s2.5-4.675,7.506-1.731" transform="translate(184.769 119.447)" fill="none" stroke="#974837" stroke-linecap="round" stroke-linejoin="round" stroke-width="1"/>
          <path id="Trazado_3384" data-name="Trazado 3384" d="M690.185,181.7s3.226-3.4,9.6,1.263" transform="translate(87.033 120.651)" fill="none" stroke="#974837" stroke-linecap="round" stroke-linejoin="round" stroke-width="1"/>
          <path id="Trazado_3385" data-name="Trazado 3385" d="M627.719,351.4c.769,3.878,3.519,6,5.576,6,3.079,0,7.122-2.833,7.521-6,0,0-3.7-.4-8.6-.4A20.187,20.187,0,0,0,627.719,351.4Z" transform="translate(138.263 -19.18)" fill="#e96b5f"/>
          <path id="Trazado_3386" data-name="Trazado 3386" d="M627.719,351.4a9.7,9.7,0,0,0,.38,1.383h12.3a4.754,4.754,0,0,0,.413-1.383s-3.7-.4-8.6-.4A20.187,20.187,0,0,0,627.719,351.4Z" transform="translate(138.263 -19.18)" fill="#fff"/>
          <path id="Trazado_3389" data-name="Trazado 3389" d="M540.994,832.741l.29.629s-6.08-1.057-7.416-.428-2.012,2.1-1.331,2.539,6.941,1.692,9.718,2.349,9.8,2.521,13.346-1.829c0,0,1.689-2.472.966-4.495S540.994,832.741,540.994,832.741Z" transform="translate(216.544 -412.71)" fill="#f9bb97"/>
          <path id="Trazado_3390" data-name="Trazado 3390" d="M481.76,815a72.744,72.744,0,0,0-7.409-.72c-1.6.093-7.064.652-7.286-.355a5.351,5.351,0,0,1,.159-2.27s10.863-2.456,11.025-2.427,7.286,1.2,7.434,1.307,3.357,3.5,3.357,3.5l-1.188,2.826Z" transform="translate(270.076 -394.982)" fill="#f9bb97"/>
          <path id="Trazado_3391" data-name="Trazado 3391" d="M469.676,797.773l-3.455-2.181-6.4-.717-5.067,1.653s-2.791,1.442-3.649,1.7-2.9-.306-2.865-1.114,2.78-3.173,5.439-4.435,13.879-3.766,18.657-2.519,15.463,6.074,15.463,6.074.528,4.806-.765,5.757-2.946,1.457-5.61.8A62.505,62.505,0,0,1,469.676,797.773Z" transform="translate(285.455 -379.065)" fill="#fccfb0"/>
          <path id="Trazado_3392" data-name="Trazado 3392" d="M247.534,495.536l1.115-1.119s-4.5-4.226-4.8-5.672.47-2.869,1.23-2.589,5.522,4.533,7.715,6.359,7.964,5.323,7.454,10.912c0,0-.522,2.948-2.454,3.888S247.534,495.536,247.534,495.536Z" transform="translate(453.134 -129.995)" fill="#f9bb97"/>
          <path id="Trazado_3393" data-name="Trazado 3393" d="M181.646,475.739a72.822,72.822,0,0,1-5.8-4.669c-1.076-1.184-4.592-5.408-5.454-4.844a5.347,5.347,0,0,0-1.474,1.733s6.044,9.354,6.179,9.447,6.044,4.242,6.226,4.268,4.847-.152,4.847-.152l1.128-2.85Z" transform="translate(514.534 -113.637)" fill="#f9bb97"/>
          <path id="Trazado_3394" data-name="Trazado 3394" d="M174.539,470.325l-3.994-.859-5.071-3.962-2.465-4.726s-.986-2.983-1.42-3.767-2.287-1.811-2.827-1.209-.233,4.213.784,6.974,7.282,12.4,11.568,14.852,15.3,6.478,15.3,6.478,3.74-3.065,3.481-4.649-1.086-3.1-3.45-4.5A62.493,62.493,0,0,0,174.539,470.325Z" transform="translate(523.08 -104.983)" fill="#fccfb0"/>
          <path id="Trazado_3395" data-name="Trazado 3395" d="M174.539,470.325l-3.994-.859-5.071-3.962-2.465-4.726s-.986-2.983-1.42-3.767-2.287-1.811-2.827-1.209-.233,4.213.784,6.974,7.282,12.4,11.568,14.852,15.3,6.478,15.3,6.478,3.74-3.065,3.481-4.649-1.086-3.1-3.45-4.5a62.493,62.493,0,0,0-11.9-4.639Z" transform="translate(523.08 -104.983)" fill="#fccfb0"/>
          <path id="Trazado_3399" data-name="Trazado 3399" d="M567.156,47.143c.1,1.592,7.46,6.707,20.628,11.091s24.049,3.575,26.2,5.4c0,0-.069-9.916-3.4-15.582s-16.495-11.535-25.5-10.658c-3.711.361-7.31-.845-10.4-.6C572.957,36.924,566.92,43.231,567.156,47.143Z" transform="translate(187.937 238.538)" fill="#974837"/>
          <path id="Trazado_3400" data-name="Trazado 3400" d="M620.216,80.41s8.455,7.42,14.415,10.051,20.93,3.575,20.93,3.575-15.247-1.956-19.336-5.8S620.216,80.41,620.216,80.41Z" transform="translate(144.416 202.737)" fill="#ac5c45"/>
          <g id="Grupo_3573" data-name="Grupo 3573" transform="translate(755.854 286.868)">
            <path id="Trazado_3401" data-name="Trazado 3401" d="M596.126,110.565a231.54,231.54,0,0,1-24.709-9.466c1.639,2.208,8.846,6.235,19.867,9.9,13.168,4.385,22.687,4.345,25.027,4.832-.693-1.214-2.555-1.665-4.813-2.047A95.017,95.017,0,0,1,596.126,110.565Z" transform="translate(-571.417 -101.099)" fill="#7f3c2d"/>
          </g>
        </g>
        <g id="Grupo_3579" data-name="Grupo 3579" transform="translate(847.152 830.639)">
          <path id="Trazado_1711" data-name="Trazado 1711" d="M567.68,251.651a1.808,1.808,0,0,0,1.711,1.9l45.093,2.363a1.807,1.807,0,0,0,1.9-1.711l3.322-63.393a1.808,1.808,0,0,0-1.711-1.9L572.9,186.547a1.808,1.808,0,0,0-1.9,1.711Z" transform="translate(-566.786 -181.059)" fill="#784319"/>
          <path id="Trazado_1712" data-name="Trazado 1712" d="M563.7,251.442a1.808,1.808,0,0,0,1.711,1.9l45.093,2.363a1.809,1.809,0,0,0,1.9-1.711l3.322-63.393a1.809,1.809,0,0,0-1.712-1.9l-45.092-2.363a1.808,1.808,0,0,0-1.9,1.711Z" transform="translate(-563.695 -180.896)" fill="#8b4e21"/>
          <path id="Trazado_1713" data-name="Trazado 1713" d="M625.535,213.707l-41.283-2.163s-.286,8.8-1.287,27.913c-.781,14.908-2.663,30.4-2.663,30.4l42.476,2.226s.688-15.552,1.469-30.459C625.249,222.508,625.535,213.707,625.535,213.707Z" transform="translate(-576.582 -200.458)" fill="#231f20" opacity="0.1" style="mix-blend-mode: multiply;isolation: isolate"/>
          <path id="Trazado_1714" data-name="Trazado 1714" d="M623.527,210.171l-41.283-2.164s-.286,8.8-1.288,27.915c-.781,14.907-2.636,29.887-2.636,29.887l41.284,2.163s1.855-14.98,2.636-29.887C623.241,218.972,623.527,210.171,623.527,210.171Z" transform="translate(-575.044 -197.713)" fill="#fff"/>
          <g id="Grupo_3134" data-name="Grupo 3134" transform="translate(14.644)">
            <path id="Trazado_1715" data-name="Trazado 1715" d="M653.849,169.821l-5.455-.286.154-2.931a4.211,4.211,0,0,0-8.41-.441l-.154,2.931-5.455-.286a2.894,2.894,0,0,0-3.041,2.738l-.142,2.718,25.1,1.315.142-2.718A2.894,2.894,0,0,0,653.849,169.821Zm-10.128-1.339a2.128,2.128,0,1,1,2.237-2.014A2.127,2.127,0,0,1,643.721,168.483Z" transform="translate(-630.835 -162.147)" fill="#a0a2a4"/>
            <path id="Trazado_1716" data-name="Trazado 1716" d="M651.571,169.7l-5.455-.286.153-2.931a4.21,4.21,0,0,0-8.409-.441l-.154,2.931-5.456-.286a2.894,2.894,0,0,0-3.04,2.738l-.143,2.718,25.1,1.316.143-2.718A2.9,2.9,0,0,0,651.571,169.7Zm-9.618-1.312a2.128,2.128,0,1,1,2.237-2.014A2.127,2.127,0,0,1,641.953,168.39Z" transform="translate(-629.067 -162.055)" fill="#cfd1d2"/>
            <rect id="Rectángulo_945" data-name="Rectángulo 945" width="2.722" height="25.134" transform="matrix(0.052, -0.999, 0.999, 0.052, 0, 12.092)" fill="#c3c6c7"/>
            <path id="Trazado_1717" data-name="Trazado 1717" d="M679.83,171.353a2.08,2.08,0,0,1,.317.043,2.126,2.126,0,0,0-.22,4.2,2.19,2.19,0,0,1-.319.009,2.128,2.128,0,0,1,.223-4.25Z" transform="translate(-666.721 -169.268)" fill="#a0a2a4"/>
          </g>
          <rect id="Rectángulo_946" data-name="Rectángulo 946" width="1.837" height="32.136" transform="translate(10.918 32.847) rotate(-87)" fill="#9fa1a3" opacity="0.5"/>
          <rect id="Rectángulo_947" data-name="Rectángulo 947" width="1.837" height="32.136" transform="matrix(0.052, -0.999, 0.999, 0.052, 10.759, 35.886)" fill="#9fa1a3" opacity="0.5"/>
          <path id="Trazado_1718" data-name="Trazado 1718" d="M612.2,372.213l-4.989-.262a.553.553,0,0,1-.524-.581l.353-4.713a.553.553,0,0,1,.581-.519l4.884.256a.554.554,0,0,1,.524.581l-.247,4.714A.553.553,0,0,1,612.2,372.213Zm-4.6-5.692a.17.17,0,0,0-.179.161l-.353,4.712a.169.169,0,0,0,.162.175l4.989.261a.17.17,0,0,0,.179-.161l.247-4.714a.17.17,0,0,0-.161-.179Z" transform="translate(-597.055 -320.42)" fill="#c9cacc"/>
          <path id="Trazado_1719" data-name="Trazado 1719" d="M612.611,373.077h-.005a.424.424,0,0,1-.34-.213,7.991,7.991,0,0,0-1.2-1.609.423.423,0,1,1,.573-.622,7.508,7.508,0,0,1,1.038,1.292,10.66,10.66,0,0,1,4.148-3.059.423.423,0,0,1,.206.821,6.327,6.327,0,0,0-1.819,1.036,11.482,11.482,0,0,0-2.244,2.188A.421.421,0,0,1,612.611,373.077Z" transform="translate(-600.35 -322.526)" fill="#d01f37"/>
          <path id="Trazado_1720" data-name="Trazado 1720" d="M608.171,412.338l-4.884-.256a.553.553,0,0,1-.524-.581l.459-4.712a.551.551,0,0,1,.58-.515l4.884.256a.554.554,0,0,1,.523.581l-.459,4.712A.552.552,0,0,1,608.171,412.338Zm-4.388-5.681a.17.17,0,0,0-.179.16l-.459,4.712a.169.169,0,0,0,.162.171l4.884.256a.171.171,0,0,0,.179-.161l.459-4.712a.168.168,0,0,0-.161-.17Z" transform="translate(-594.011 -351.565)" fill="#c9cacc"/>
          <path id="Trazado_1721" data-name="Trazado 1721" d="M609.159,413.216h-.006a.421.421,0,0,1-.34-.213,8.039,8.039,0,0,0-1.2-1.608.423.423,0,0,1,.573-.623,7.563,7.563,0,0,1,1.038,1.292A10.66,10.66,0,0,1,613.375,409a.423.423,0,1,1,.207.82,6.3,6.3,0,0,0-1.82,1.035,11.5,11.5,0,0,0-2.244,2.189A.421.421,0,0,1,609.159,413.216Z" transform="translate(-597.671 -353.674)" fill="#d01f37"/>
          <rect id="Rectángulo_948" data-name="Rectángulo 948" width="1.837" height="32.136" transform="translate(10.599 38.925) rotate(-87)" fill="#9fa1a3" opacity="0.5"/>
          <rect id="Rectángulo_949" data-name="Rectángulo 949" width="1.837" height="19.202" transform="matrix(0.052, -0.999, 0.999, 0.052, 10.44, 41.964)" fill="#9fa1a3" opacity="0.5"/>
          <rect id="Rectángulo_950" data-name="Rectángulo 950" width="1.837" height="24.412" transform="translate(17.509 48.536) rotate(-87)" fill="#9fa1a3" opacity="0.5"/>
          <rect id="Rectángulo_951" data-name="Rectángulo 951" width="1.837" height="14.46" transform="translate(17.364 51.29) rotate(-87)" fill="#9fa1a3" opacity="0.5"/>
          <path id="Trazado_1722" data-name="Trazado 1722" d="M661.987,413.76,637.925,412.5l.2-1.828,24.062,1.261Z" transform="translate(-621.296 -354.977)" fill="#9fa1a3" opacity="0.5"/>
          <path id="Trazado_1723" data-name="Trazado 1723" d="M651.356,425.523l-14.547-.762.2-1.828,14.546.762Z" transform="translate(-620.431 -364.492)" fill="#9fa1a3" opacity="0.5"/>
          <g id="Grupo_3136" data-name="Grupo 3136" transform="translate(22.063 16.705)">
            <g id="Grupo_3135" data-name="Grupo 3135">
              <path id="Trazado_1724" data-name="Trazado 1724" d="M673.719,242.7a5.772,5.772,0,1,1-5.462-6.067A5.772,5.772,0,0,1,673.719,242.7Z" transform="translate(-662.182 -236.626)" fill="#d01f37"/>
            </g>
            <path id="Trazado_1725" data-name="Trazado 1725" d="M675.192,244.437v0l-2.1-.11-.154,2.939-2.939-.154-.11,2.106h0l2.806,2.677-.021.414h0l1.885,1.8a5.772,5.772,0,0,0,5.134-5.383Z" transform="translate(-668.159 -242.604)" fill="#ededee" style="mix-blend-mode: multiply;isolation: isolate"/>
            <path id="Trazado_1726" data-name="Trazado 1726" d="M677.978,247.533l-2.938-.154.154-2.939-2.107-.11-.154,2.939-2.939-.154-.11,2.106,2.939.154-.154,2.939,2.106.11.154-2.939,2.939.154Z" transform="translate(-668.159 -242.604)" fill="#fff"/>
          </g>
        </g>
        <g id="Grupo_4456" data-name="Grupo 4456" transform="translate(-4673.99 -403.861)">
          <circle id="Elipse_770" data-name="Elipse 770" cx="63.747" cy="63.747" r="63.747" transform="translate(5359.99 1192.461)" fill="#e2ded9"/>
          <g id="Grupo_4454" data-name="Grupo 4454" transform="translate(5367.056 1198.045)">
            <g id="Grupo_4428" data-name="Grupo 4428" transform="translate(3.965)">
              <path id="Trazado_4929" data-name="Trazado 4929" d="M5460.021,1301.206a57.884,57.884,0,0,0-6.7-2.056c-.683-.179-1.39-.365-2.077-.555q-.6-.167-1.214-.332l-.372-.1-.3.243q-.831.671-1.658,1.344c-2.095-.6-4.845-1.432-8.186-2.468a20.186,20.186,0,0,1-6.229-2.913,9.954,9.954,0,0,1-2.146-2.2c.585.052,1.127.094,1.654.129l.171.012a32.352,32.352,0,0,0,7.9-.328,18.331,18.331,0,0,0,9.469-4.84,62.7,62.7,0,0,0,5.6-6.292c.641-.276,1.171-.516,1.66-.748a15.478,15.478,0,0,0,6.575-5.331c5.038-7.667,1.834-13.229-1.559-19.117-.8-1.394-1.634-2.835-2.367-4.329l-.166-.337c-.483-1.372-2.067-7.017-2.665-10.154l-.342-1.8c-1.112-5.847-2.263-11.893-3.651-17.777-.335-1.424-2.328-8-5.267-11.806a11.287,11.287,0,0,0-6.424-4.133c-.133-.032-.245-.056-.33-.073h0c-.131-.06-.261-.121-.392-.184l-.063-.031c-.136-.066-.271-.133-.416-.207l-.019-.009c-.3-.157-.606-.321-.9-.487-.5-.289-1-.6-1.466-.915a27.485,27.485,0,0,0-13.482-6.265,28.747,28.747,0,0,0-18.551,2.766,36.91,36.91,0,0,0-8.62,6.262,38.315,38.315,0,0,0-8.876,11.555c-2.99,5.927-4.746,12.465-6.156,18.13-.092.293-.185.585-.275.878l-2.746,8.668c-.384.979-.75,1.981-1.1,2.951a42.374,42.374,0,0,1-3.606,8.093,16.113,16.113,0,0,1-2.058,2.657,13.288,13.288,0,0,1-1.877,1.521l-.308.22c-.718.426-2.306,1.388-2.175,3.1a1.271,1.271,0,0,0,.081.488c.014.059.031.118.051.178a2.509,2.509,0,0,0,.131.328c.263,1.92,2.125,3.5,3.926,4.8a14.427,14.427,0,0,0,6.736,2.874,12.432,12.432,0,0,0,3.667,6.934,15.725,15.725,0,0,0,3.318,2.225,18.6,18.6,0,0,1,2.409,1.489,22.85,22.85,0,0,1,2.9,2.839c.645.707,1.311,1.44,2.03,2.111a18.931,18.931,0,0,0,11.925,5.052,16.3,16.3,0,0,0,2.593-.081,10.1,10.1,0,0,1-1.036.894,20.187,20.187,0,0,1-6.229,2.913c-1.989.618-4.037,1.173-6.019,1.709q-.773.209-1.548.42l-1.457-1.181-.3-.243-.373.1q-.606.165-1.212.332c-.689.189-1.395.374-2.078.554a57.649,57.649,0,0,0-6.7,2.057,18.315,18.315,0,0,0-2.587,1.259l-.21.125a63.75,63.75,0,0,0,84.224.3l-.2-.114A18.836,18.836,0,0,0,5460.021,1301.206Z" transform="translate(-5368.304 -1196.669)" fill="#fff"/>
            </g>
            <g id="Grupo_4453" data-name="Grupo 4453" transform="translate(0 0.755)">
              <g id="Grupo_4449" data-name="Grupo 4449">
                <path id="Trazado_4930" data-name="Trazado 4930" d="M5367.216,1250.647Z" transform="translate(-5364.695 -1179.787)" fill="#736357"/>
                <path id="Trazado_4931" data-name="Trazado 4931" d="M5365.412,1248l.005.005Z" transform="translate(-5365.284 -1180.65)" fill="#736357"/>
                <path id="Trazado_4932" data-name="Trazado 4932" d="M5378.55,1246.983Z" transform="translate(-5360.992 -1180.984)" fill="#736357"/>
                <path id="Trazado_4933" data-name="Trazado 4933" d="M5365.316,1245.536Z" transform="translate(-5365.316 -1181.457)" fill="#736357"/>
                <g id="Grupo_4430" data-name="Grupo 4430" transform="translate(4.721)">
                  <g id="Grupo_4429" data-name="Grupo 4429">
                    <path id="Trazado_4934" data-name="Trazado 4934" d="M5459.383,1251.468c-.147.2-2.219-7.136-2.9-10.682-1.244-6.525-2.461-13.081-3.985-19.543-.371-1.576-2.351-7.919-5.129-11.516a10.651,10.651,0,0,0-6.4-3.947,22.952,22.952,0,0,1-3.49-1.964c-5.647-5.315-18.993-9.846-31.208-3.422a35.983,35.983,0,0,0-8.456,6.148,37.745,37.745,0,0,0-8.718,11.34c-2.865,5.68-4.563,11.81-6.1,17.994l-.283.9-2.753,8.692c-1.49,3.787-2.619,7.748-4.783,11.194a13.629,13.629,0,0,1-4.468,4.629c-.977.577-1.946,1.311-1.831,2.458a.513.513,0,0,0,.043.264c.014.06.03.121.05.182a2.188,2.188,0,0,0,.147.338c.167,1.828,2.327,3.468,3.633,4.411a13.265,13.265,0,0,0,6.951,2.782,11.769,11.769,0,0,0,3.527,7.089c1.68,1.579,3.869,2.279,5.671,3.665,1.863,1.431,3.268,3.394,4.985,5a18.254,18.254,0,0,0,11.45,4.852,17.627,17.627,0,0,0,3.957-.289,62.327,62.327,0,0,0,6.685-1.183,28.292,28.292,0,0,1,4.22.062,34.72,34.72,0,0,0,7.5.185c.269-.036.536-.08.8-.13.408.044.817.087,1.226.129a38.5,38.5,0,0,0,10.809-.054,17.581,17.581,0,0,0,9.084-4.645,62.331,62.331,0,0,0,5.653-6.363c.606-.26,1.211-.527,1.807-.811a14.98,14.98,0,0,0,6.27-5.064C5469.3,1265.116,5463.187,1259.215,5459.383,1251.468Z" transform="translate(-5368.874 -1197.239)" fill="#8c6239"/>
                    <path id="Trazado_4935" data-name="Trazado 4935" d="M5451.114,1262.117c-1.371-3.868-3.374-7.545-4.694-11.438-1.583-7.2-2.6-14.543-4.689-21.616-1.341-4.553-4.434-8.5-5.2-13.245a8.509,8.509,0,0,1-.078-1.954c.41-.9,1.5-1.229,1-2.42-.3-.715-.325-1.311.376-1.789.323-.22.694-.354.841-.761a.881.881,0,0,0-.137-.862c-.122-.161-.4-.242-.5-.4l0-.01c.06-.212.115-.426.167-.638.084-.085.174-.162.242-.238a1.626,1.626,0,0,0,.135-2.29c0-.15.006-.3,0-.454-.179-.041-.316-.069-.4-.087q-.984-.446-1.925-.985a8.6,8.6,0,0,1-.53.775,2.319,2.319,0,0,0-1.595,1.305,1.8,1.8,0,0,0-.033,1.036.715.715,0,0,0,.077.393c.045.1.1.192.151.285.13.305.283.6.415.877a2.248,2.248,0,0,1-.586,1.95c-.156.182-.31.348-.457.517a1.377,1.377,0,0,0-.82.413,1.876,1.876,0,0,0-.379,1.8c-.062.134-.124.268-.187.4a3.635,3.635,0,0,1-.76,1.259,4.961,4.961,0,0,1-1.824.817c-3.121.843-6.548,0-9.665-.462a19.613,19.613,0,0,0-4.7-.316,18.765,18.765,0,0,0-4.687,1.1c-5.771,2.127-9.9,7.044-13.03,12.324-3.155,5.315-5.464,11.1-8.337,16.575-.855,1.628-1.77,3.209-2.509,4.9-.8,1.845-1.468,3.749-2.134,5.652-.561,1.217-1.039,2.485-1.627,3.692a27.316,27.316,0,0,1-4.646,6.768c-.552.589-1.328,1.36-.734,2.214a1.585,1.585,0,0,0,2.249.231,10.735,10.735,0,0,0,1.477-1.225l1.066-.852a.353.353,0,0,0,.269-.073c.973-.7,2.53-1.461,2.915.273a16.428,16.428,0,0,1,.051,3.427,25.687,25.687,0,0,0,.829,7.273c.378,1.279,1.223,4.225,3.047,3.641.84-.269.9-1.132.836-1.912-.1-1.145-.205-2.289-.311-3.432a17.246,17.246,0,0,1,2.691,1.6,5.715,5.715,0,0,1,2.056,2.707,6.844,6.844,0,0,0,.627,1.8,5.664,5.664,0,0,0,1.888,1.543c2.075,1.222,4.384,2.5,4.816,5.214a3.906,3.906,0,0,1-.69,2.954c.357.04.714.073,1.074.092a17.635,17.635,0,0,0,3.957-.29,62.18,62.18,0,0,0,6.686-1.183,28.286,28.286,0,0,1,4.219.062,34.721,34.721,0,0,0,7.5.185q.4-.054.8-.13c.408.044.817.088,1.225.129,1.332.135,2.67.252,4.009.313a3.483,3.483,0,0,1,.092-2.236,12.74,12.74,0,0,1,3.588-4.787,23.415,23.415,0,0,1,4.5-3.379,32.148,32.148,0,0,1,3.106-1.237l-1.028,3.844c-.249.925-.543,2.08.39,2.685a.4.4,0,0,0,.426,0,11.529,11.529,0,0,0,3.877-7.434,47.236,47.236,0,0,0,.425-5.1c.076-1.5-.148-4.881,1.933-5.029a.425.425,0,0,0,.141-.036,2.24,2.24,0,0,1,.889.9,6.616,6.616,0,0,1,.43,3.049q0,3.258,0,6.516a.422.422,0,0,0,.785.222C5453.541,1272.957,5452.865,1267.063,5451.114,1262.117Z" transform="translate(-5366.075 -1195.378)" fill="#6d4a2d"/>
                  </g>
                  <path id="Trazado_4936" data-name="Trazado 4936" d="M5404.13,1200.059c1.2-.422,2.407-.789,3.63-1.115a.439.439,0,0,0-.224-.847c-1.325.353-2.637.756-3.93,1.222-.7.251-1.895.486-2.259,1.272-.943,2.042,2.774,1.585,3.554,1.635.356.023,1.81.149,1.979.584.188.486-.667.739-1.026.919-.909.455-1.848.847-2.767,1.279a9.724,9.724,0,0,0-4.442,3.547.44.44,0,0,0,.477.645,44.587,44.587,0,0,1,4.549-.808,1.629,1.629,0,0,1,.636.041q.505.725-.049.933a2.987,2.987,0,0,1-.836.366q-.924.4-1.826.856a32.089,32.089,0,0,0-6.757,4.65c-.414.368.185.986.595.62a31.436,31.436,0,0,1,4.658-3.442q1.263-.76,2.587-1.4a12.832,12.832,0,0,0,2.277-1.075,1.328,1.328,0,0,0-.547-2.386,5.716,5.716,0,0,0-2.313.219l-2.1.377a11.356,11.356,0,0,1,3.957-2.594c.85-.389,1.709-.755,2.54-1.183.565-.292,1.453-.679,1.393-1.483-.055-.739-.966-1.107-1.537-1.295a8.3,8.3,0,0,0-2.978-.234c-.318.013-1.674.108-1.021-.613C5402.7,1200.37,5403.651,1200.227,5404.13,1200.059Z" transform="translate(-5360.436 -1196.963)" fill="#a67c52"/>
                  <path id="Trazado_4937" data-name="Trazado 4937" d="M5404.332,1209.571A16.277,16.277,0,0,0,5395.6,1216c-.317.459.415.9.729.443a15.349,15.349,0,0,1,8.23-6.029C5405.077,1210.261,5404.855,1209.414,5404.332,1209.571Z" transform="translate(-5360.167 -1193.215)" fill="#a67c52"/>
                  <path id="Trazado_4938" data-name="Trazado 4938" d="M5428.569,1224.091c-1.021-3.817-2.1-7.7-4.384-10.938-.317-.45-1.05-.012-.728.443,2.244,3.18,3.295,6.977,4.3,10.728A.423.423,0,0,0,5428.569,1224.091Z" transform="translate(-5351.064 -1192.1)" fill="#a67c52"/>
                  <path id="Trazado_4939" data-name="Trazado 4939" d="M5430.577,1211.744a9.774,9.774,0,0,0-1.583-3.06c-.431-.555-1.147-1.327-1.917-1.007-.871.361-.5,1.352-.219,2,.3.7.605,1.386.907,2.08.13.3.268.592.389.892.148.364.442,1.84-.405,1.141-.582-.479-.759-1.581-1.764-1.346-.858.2-.9,1.483-.791,2.2a9.447,9.447,0,0,0,1.6,3.219,11.145,11.145,0,0,1,1.388,4.081c.08.556.892.32.813-.234a12.116,12.116,0,0,0-.792-2.92,23.332,23.332,0,0,0-1.585-2.8,3.957,3.957,0,0,1-.623-1.68c-.018-.251-.06-.957.366-.942.173.007.406.5.5.633.327.483.707,1,1.349.913,1.88-.253.632-2.807.222-3.747q-.356-.816-.712-1.635c-.106-.244-.429-.632-.245-.872s.352-.005.554.192a7.735,7.735,0,0,1,1.738,3.123A.423.423,0,0,0,5430.577,1211.744Z" transform="translate(-5350.484 -1193.852)" fill="#a67c52"/>
                </g>
                <g id="Grupo_4437" data-name="Grupo 4437" transform="translate(27.793 76.669)">
                  <g id="Grupo_4433" data-name="Grupo 4433">
                    <g id="Grupo_4432" data-name="Grupo 4432">
                      <g id="Grupo_4431" data-name="Grupo 4431">
                        <path id="Trazado_4940" data-name="Trazado 4940" d="M5442.968,1281.788c-2.843-.788-6.724-1.977-9.547-2.855a20.766,20.766,0,0,1-6.46-3.03,10.9,10.9,0,0,1-4.145-6.679c-.651-3.2-.37-6.641-.207-9.891q.106-2.157.27-4.308h-17.148q.149,2.01.251,4.024c.162,3.251.443,6.688-.207,9.891a10.9,10.9,0,0,1-4.146,6.679,20.766,20.766,0,0,1-6.459,3.032c-2.823.877-5.686,1.6-8.53,2.394-2.688.746,9.247,15.944,27.413,17.613C5432.449,1300.346,5445.656,1282.534,5442.968,1281.788Z" transform="translate(-5386.263 -1255.025)" fill="#efb4a8"/>
                      </g>
                    </g>
                  </g>
                  <g id="Grupo_4436" data-name="Grupo 4436" transform="translate(0 0.072)">
                    <g id="Grupo_4435" data-name="Grupo 4435">
                      <g id="Grupo_4434" data-name="Grupo 4434">
                        <path id="Trazado_4941" data-name="Trazado 4941" d="M5442.968,1281.842c-.691-.191-1.446-.407-2.23-.637-.812.487-1.632.96-2.442,1.449-2.517,1.515-4.892,3.253-7.456,4.7a46.222,46.222,0,0,1-7.4,3.284,36.337,36.337,0,0,1-7.573,1.981,19.561,19.561,0,0,1-7.607-.754c-1.433-.385-3.152-.706-4.28-1.739a1.878,1.878,0,0,1,.121-3.041,5.13,5.13,0,0,1,1.391-.49c.158-.042.329-.111.495-.156a1.312,1.312,0,0,0-.127-.222,2.8,2.8,0,0,0-.972-.773,9.57,9.57,0,0,0-2.367-.713c-1.67-.362-3.383-.683-4.467-2.128-.39-.521.057-1.174.555-1.361,2.625-.984,5.229-2.019,7.249-4.039,1.7-1.7,2.665-3.984,4.075-5.907a11.393,11.393,0,0,1,5.783-4.247,25.383,25.383,0,0,0,6.695-2.835c.015-1.62.122-3.245.2-4.824q.106-2.157.27-4.309h-17.148q.149,2.01.251,4.026c.162,3.249.443,6.688-.207,9.89a10.9,10.9,0,0,1-4.146,6.68,20.763,20.763,0,0,1-6.459,3.03c-2.823.877-5.686,1.605-8.53,2.393-2.688.746,9.247,15.945,27.413,17.613C5432.449,1300.4,5445.656,1282.588,5442.968,1281.842Z" transform="translate(-5386.263 -1255.079)" fill="#e09f94"/>
                      </g>
                    </g>
                  </g>
                </g>
                <g id="Grupo_4445" data-name="Grupo 4445" transform="translate(27.419 20.516)">
                  <g id="Grupo_4438" data-name="Grupo 4438">
                    <path id="Trazado_4942" data-name="Trazado 4942" d="M5442.272,1240.59c-.109-.419-2.316-5.911-2.867-8.056-.113-.437-.9-6.842-2.985-11.41a28.405,28.405,0,0,0-5.964-8.409h-18.22a34.746,34.746,0,0,0-6.5,2.423,19.629,19.629,0,0,0-7.747,6.481,58.946,58.946,0,0,0-4.705,8.764c-.053.113-3.009,6.471-4.682,9.273q-.25.418-.517.825c-.882,1.718-2.084,3.707-2.1,5.581a2.567,2.567,0,0,0,3.094,1.925c.23,4.618,3.383,11.187,5.682,15.229,2.672,4.7,13.472,15.161,20.132,15.161,7.679,0,18.04-11.141,20.815-16.973,2.2-4.615,4.658-9.681,4.7-14.767l.012,0c1.6.233,2.577-1.271,2.549-2.729A14.821,14.821,0,0,0,5442.272,1240.59Z" transform="translate(-5385.981 -1212.698)" fill="#ffd0c5"/>
                    <path id="Trazado_4943" data-name="Trazado 4943" d="M5442.272,1240.577c-.109-.419-2.316-5.911-2.867-8.056-.113-.437-.9-6.842-2.985-11.41a28.4,28.4,0,0,0-5.964-8.409h-18.22a34.746,34.746,0,0,0-6.5,2.423,19.627,19.627,0,0,0-7.747,6.481,58.942,58.942,0,0,0-4.705,8.765c-.053.113-3.009,6.471-4.682,9.273q-.25.418-.517.825c-.882,1.718-2.084,3.707-2.1,5.58a2.568,2.568,0,0,0,3.094,1.925c.1,1.981.909,5.714.937,4.337a46.844,46.844,0,0,1,.758-7.844,57.257,57.257,0,0,1,4.362-12.454,34.278,34.278,0,0,1,7.159-10,23.121,23.121,0,0,1,10.829-5.936c5.615-1.185,11.4.068,17.031-.934a.09.09,0,0,1,.1.04c1.856,3.155,3.749,6.3,5.337,9.6a42.469,42.469,0,0,1,3.234,9.014,40.67,40.67,0,0,1,.8,10.054c-.086,3.313-.466,6.6-.676,9.906-.064,1.012,1.427-3.687,1.456-7.133l.012,0c1.6.234,2.577-1.271,2.549-2.729A14.82,14.82,0,0,0,5442.272,1240.577Z" transform="translate(-5385.981 -1212.702)" fill="#efb4a8"/>
                  </g>
                  <g id="Grupo_4444" data-name="Grupo 4444" transform="translate(7.896 17.644)">
                    <g id="Grupo_4439" data-name="Grupo 4439" transform="translate(0.671 5.79)">
                      <path id="Trazado_4944" data-name="Trazado 4944" d="M5405.488,1235.448c-.387-.605-.663-1.272-1-1.907-.087-.165-.176-.327-.271-.482a7.286,7.286,0,0,0-.777-.913,5.929,5.929,0,0,0-3.437-1.745,5.631,5.631,0,0,0-3.2.586c-.524.406-1.049.811-1.564,1.226-.753.694-1.527,1.366-2.261,2.08.016,0,.032,0,.047,0-.159.2-.315.4-.465.592a.365.365,0,0,0-.03.047.276.276,0,0,0-.034.377c2.136,2.673,5.319,3.27,8.441,2.772a3.263,3.263,0,0,0,1.064-.211,17.109,17.109,0,0,0,4.1-1.572C5405.893,1236.02,5405.679,1235.744,5405.488,1235.448Z" transform="translate(-5392.438 -1230.365)" fill="#fff"/>
                    </g>
                    <g id="Grupo_4440" data-name="Grupo 4440" transform="translate(27.33 5.745)">
                      <path id="Trazado_4945" data-name="Trazado 4945" d="M5412.532,1236.266a17.11,17.11,0,0,0,4.1,1.571,3.281,3.281,0,0,0,1.063.212c3.122.5,6.306-.1,8.441-2.773a.273.273,0,0,0-.034-.375.226.226,0,0,0-.03-.048c-.148-.2-.306-.394-.465-.592a.291.291,0,0,0,.048,0c-.733-.712-1.508-1.385-2.262-2.08-.513-.415-1.039-.82-1.563-1.225a5.631,5.631,0,0,0-3.2-.588,5.925,5.925,0,0,0-3.437,1.745,7.5,7.5,0,0,0-.779.913c-.094.156-.184.317-.27.483-.333.633-.609,1.3-1,1.905C5412.956,1235.711,5412.74,1235.986,5412.532,1236.266Z" transform="translate(-5412.532 -1230.331)" fill="#fff"/>
                    </g>
                    <g id="Grupo_4441" data-name="Grupo 4441" transform="translate(0 3.982)">
                      <path id="Trazado_4946" data-name="Trazado 4946" d="M5426.54,1233.673a2.168,2.168,0,0,1-1.27.058c-.179-.209-.361-.419-.551-.624a2.065,2.065,0,0,0,1.082-.35c.279-.188.007-.658-.267-.455a1.891,1.891,0,0,1-1.354.256c-.22-.214-.448-.421-.684-.615a2.824,2.824,0,0,0,1.582-.5c.275-.192-.007-.674-.266-.455a3.314,3.314,0,0,1-2.011.434,5.636,5.636,0,0,0-7.606.677,7.912,7.912,0,0,0-1.259,1.681c-.386.69-.574,1.737-1.331,2.11l-.009.005a.265.265,0,0,0-.106.488,17.107,17.107,0,0,0,4.167,1.631,3.228,3.228,0,0,0,1.076.219c3.163.515,6.387-.1,8.55-2.865a.287.287,0,0,0-.035-.389.221.221,0,0,0-.029-.049c-.151-.2-.31-.407-.472-.612a2.542,2.542,0,0,0,.931-.133C5427,1234.071,5426.847,1233.53,5426.54,1233.673Zm-.784,1.506a7.27,7.27,0,0,1-4.3,2.524,8.193,8.193,0,0,1-3.411.118,12.336,12.336,0,0,1-2.646-.814,3.419,3.419,0,0,1-1.36-.849.313.313,0,0,1-.186-.4c1.34-3.665,4.113-4.291,4.212-4.312C5421,1230.823,5423.944,1232.76,5425.755,1235.179Z" transform="translate(-5385.257 -1228.593)" fill="#754c24"/>
                      <path id="Trazado_4947" data-name="Trazado 4947" d="M5392.11,1234.147a2.517,2.517,0,0,0,.93.134c-.161.2-.32.409-.471.61a.338.338,0,0,0-.031.049.288.288,0,0,0-.035.389c2.164,2.764,5.388,3.379,8.551,2.866a3.255,3.255,0,0,0,1.076-.219,17.111,17.111,0,0,0,4.165-1.632.264.264,0,0,0-.1-.487l-.01-.005c-.756-.373-.944-1.421-1.331-2.111a7.886,7.886,0,0,0-1.258-1.681,5.638,5.638,0,0,0-7.607-.675,3.316,3.316,0,0,1-2.01-.435c-.26-.219-.542.263-.267.455a2.814,2.814,0,0,0,1.582.505c-.236.194-.463.4-.685.616a1.9,1.9,0,0,1-1.352-.257c-.273-.2-.546.266-.267.455a2.063,2.063,0,0,0,1.082.35c-.19.2-.373.414-.552.625a2.17,2.17,0,0,1-1.269-.06C5391.942,1233.5,5391.792,1234.038,5392.11,1234.147Zm12.822,1.579a.315.315,0,0,1-.187.4,3.418,3.418,0,0,1-1.358.848,12.275,12.275,0,0,1-2.645.815,8.178,8.178,0,0,1-3.413-.118,7.254,7.254,0,0,1-4.3-2.523c1.536-2.053,3.946-4.263,6.606-3.925A6.473,6.473,0,0,1,5404.933,1235.726Z" transform="translate(-5391.933 -1228.604)" fill="#754c24"/>
                      <path id="Trazado_4948" data-name="Trazado 4948" d="M5418.952,1229.021a6.224,6.224,0,0,0-1.511.291,8.635,8.635,0,0,0-3.707,2.7c-.212.263.141.62.374.371,1.348-1.433,2.8-2.677,4.845-2.837a6.152,6.152,0,0,1,4.792,1.739c.241.239.615-.134.373-.373A6.668,6.668,0,0,0,5418.952,1229.021Z" transform="translate(-5384.831 -1229.002)" fill="#efb4a8"/>
                    </g>
                    <path id="Trazado_4949" data-name="Trazado 4949" d="M5405.294,1246.119c-1.308-1.441-.876-3.343-.342-5.026.1-.321.611-.184.508.141-.468,1.474-.965,3.224.207,4.512C5405.894,1246,5405.522,1246.37,5405.294,1246.119Z" transform="translate(-5387.849 -1221.129)" fill="#efb4a8"/>
                    <g id="Grupo_4442" data-name="Grupo 4442" transform="translate(1.28)">
                      <path id="Trazado_4950" data-name="Trazado 4950" d="M5402.853,1226.07l-2.681-.036a16.5,16.5,0,0,0-4.022.182,4.939,4.939,0,0,0-1.413.594c-1.693.86-2.278,2.542-1.5,1.761a7.128,7.128,0,0,1,2.312-1.361,8.235,8.235,0,0,1,2.082-.321c1.022.01,2.053.142,3.057.222a29.464,29.464,0,0,0,3.19.292c.528-.013,1.006-.831.193-1.082A4.489,4.489,0,0,0,5402.853,1226.07Z" transform="translate(-5392.898 -1226.001)" fill="#754c24"/>
                      <path id="Trazado_4951" data-name="Trazado 4951" d="M5415.853,1226.07l2.681-.036a16.5,16.5,0,0,1,4.021.182,4.931,4.931,0,0,1,1.413.594c1.691.86,2.278,2.542,1.5,1.761a7.131,7.131,0,0,0-2.312-1.361,8.222,8.222,0,0,0-2.083-.321c-1.021.01-2.052.142-3.056.222a29.487,29.487,0,0,1-3.19.292c-.529-.013-1.005-.831-.193-1.082A4.49,4.49,0,0,1,5415.853,1226.07Z" transform="translate(-5385.937 -1226.001)" fill="#754c24"/>
                      <path id="Trazado_4952" data-name="Trazado 4952" d="M5400.407,1229.289a6.248,6.248,0,0,0-1.513-.291,6.665,6.665,0,0,0-5.164,1.893c-.243.239.13.612.372.373a6.152,6.152,0,0,1,4.792-1.74c2.043.159,3.5,1.4,4.845,2.837.234.248.586-.109.374-.372A8.626,8.626,0,0,0,5400.407,1229.289Z" transform="translate(-5392.652 -1225.027)" fill="#efb4a8"/>
                    </g>
                    <path id="Trazado_4953" data-name="Trazado 4953" d="M5406.26,1244.834a.65.65,0,0,1,.147-.017.636.636,0,0,1,.555.283,1.705,1.705,0,0,1,.381.341,1.875,1.875,0,0,0,.251-.99c0-.722-.319-1.305-.712-1.305s-.713.584-.713,1.305a2.348,2.348,0,0,0,.032.378Z" transform="translate(-5387.28 -1220.399)" fill="#e08f82"/>
                    <path id="Trazado_4954" data-name="Trazado 4954" d="M5410.054,1244.834a.665.665,0,0,0-.148-.017.632.632,0,0,0-.554.283,1.705,1.705,0,0,0-.381.341,1.866,1.866,0,0,1-.252-.99c0-.722.319-1.305.712-1.305s.713.584.713,1.305a2.242,2.242,0,0,1-.032.378C5410.091,1244.831,5410.071,1244.831,5410.054,1244.834Z" transform="translate(-5386.447 -1220.399)" fill="#e08f82"/>
                    <g id="Grupo_4443" data-name="Grupo 4443" transform="translate(16.004 28.499)">
                      <path id="Trazado_4955" data-name="Trazado 4955" d="M5411.053,1248.816c-.171-.021-1.047.268-1.5.275-.425-.012-1.275-.3-1.5-.275-.333-.031-8.591,2.419-.576,5.973a8.75,8.75,0,0,0,4.117.184C5419.66,1251.48,5411.387,1248.786,5411.053,1248.816Z" transform="translate(-5403.995 -1247.045)" fill="#e59285"/>
                      <path id="Trazado_4956" data-name="Trazado 4956" d="M5405.062,1251.232h8.823c.053-.008.521-.178.369-.252h-9.978C5404.232,1251.046,5404.886,1251.205,5405.062,1251.232Z" transform="translate(-5403.904 -1246.338)" fill="#aa534f"/>
                      <path id="Trazado_4957" data-name="Trazado 4957" d="M5409.092,1247.545a1.548,1.548,0,0,1-1.542-.01c-.386-.228-.8.338-.413.569a2.269,2.269,0,0,0,2.246.081C5409.782,1247.973,5409.493,1247.334,5409.092,1247.545Z" transform="translate(-5403.019 -1247.481)" fill="#efb4a8"/>
                      <path id="Trazado_4958" data-name="Trazado 4958" d="M5410.4,1254a5.3,5.3,0,0,1-3.471-.015.351.351,0,0,0-.226.665,5.938,5.938,0,0,0,3.842.037C5410.967,1254.551,5410.826,1253.863,5410.4,1254Z" transform="translate(-5403.187 -1245.361)" fill="#efb4a8"/>
                    </g>
                    <circle id="Elipse_771" data-name="Elipse 771" cx="3.16" cy="3.16" r="3.16" transform="translate(4.09 6.737)" fill="#754c24"/>
                    <circle id="Elipse_772" data-name="Elipse 772" cx="3.16" cy="3.16" r="3.16" transform="matrix(0.999, -0.036, 0.036, 0.999, 31.189, 7.027)" fill="#754c24"/>
                    <circle id="Elipse_773" data-name="Elipse 773" cx="1.662" cy="1.662" r="1.662" transform="translate(5.896 8.309)" fill="#683c17"/>
                    <circle id="Elipse_774" data-name="Elipse 774" cx="1.662" cy="1.662" r="1.662" transform="translate(32.804 8.287)" fill="#683c17"/>
                    <path id="Trazado_4959" data-name="Trazado 4959" d="M5397.409,1234.752a.89.89,0,1,1-.889-.89A.889.889,0,0,1,5397.409,1234.752Z" transform="translate(-5390.725 -1223.432)" fill="#fff"/>
                    <path id="Trazado_4960" data-name="Trazado 4960" d="M5417.624,1234.447a.89.89,0,1,1-.891-.89A.892.892,0,0,1,5417.624,1234.447Z" transform="translate(-5384.12 -1223.531)" fill="#fff"/>
                    <circle id="Elipse_775" data-name="Elipse 775" cx="0.43" cy="0.43" r="0.43" transform="translate(8.084 9.444)" fill="#fff"/>
                    <path id="Trazado_4961" data-name="Trazado 4961" d="M5418.894,1233.512a.43.43,0,1,1-.43-.43A.43.43,0,0,1,5418.894,1233.512Z" transform="translate(-5383.404 -1223.687)" fill="#fff"/>
                  </g>
                </g>
                <g id="Grupo_4448" data-name="Grupo 4448" transform="translate(14.585 101.109)">
                  <g id="Grupo_4447" data-name="Grupo 4447">
                    <g id="Grupo_4446" data-name="Grupo 4446">
                      <path id="Trazado_4962" data-name="Trazado 4962" d="M5448.425,1274.235q-.6-.167-1.21-.33c-3.125,2.525-6.222,5.085-9.443,7.487a51.6,51.6,0,0,1-12.938,7.487,25.774,25.774,0,0,1-3.371.975v-.025a23.545,23.545,0,0,1-10.38-1.409,51.627,51.627,0,0,1-12.939-7.487c-3.222-2.4-6.318-4.964-9.442-7.487l-1.211.329a82.608,82.608,0,0,0-8.7,2.586,17.372,17.372,0,0,0-2.48,1.208,63.751,63.751,0,0,0,83.054.318,17.945,17.945,0,0,0-2.235-1.067A82.917,82.917,0,0,0,5448.425,1274.235Z" transform="translate(-5376.309 -1273.446)" fill="#65b1c9"/>
                    </g>
                  </g>
                </g>
              </g>
              <g id="Grupo_4452" data-name="Grupo 4452" transform="translate(29.855 43.999)">
                <path id="Trazado_4963" data-name="Trazado 4963" d="M5427.589,1230.6a48.815,48.815,0,0,1-4.005,9.315.928.928,0,0,0,1.6.937c1.229-2.039,3.029-6.016,3.187-7.789C5428.57,1230.853,5427.786,1229.97,5427.589,1230.6Z" transform="translate(-5376.171 -1230.401)" fill="#e4eef2"/>
                <path id="Trazado_4964" data-name="Trazado 4964" d="M5388.632,1231.124a48.853,48.853,0,0,0,4.006,9.315.928.928,0,0,1-1.6.935c-1.229-2.039-3.027-6.016-3.187-7.789C5387.651,1231.376,5388.436,1230.492,5388.632,1231.124Z" transform="translate(-5387.817 -1230.23)" fill="#e4eef2"/>
                <g id="Grupo_4451" data-name="Grupo 4451" transform="translate(3.021 5.829)">
                  <path id="Trazado_4965" data-name="Trazado 4965" d="M5421.462,1237.571a8.748,8.748,0,0,1-5.157-1.748,5.345,5.345,0,0,0-6.111-.134,10.806,10.806,0,0,1-5.981,1.882h-14.118v8.988c0,11.813,10.265,23.1,22.078,23.1h2.593c11.708,0,21.569-11.2,21.569-22.908v-9.178Z" transform="translate(-5390.095 -1234.795)" fill="#e4eef2"/>
                  <g id="Grupo_4450" data-name="Grupo 4450" transform="translate(1.93 4.389)">
                    <path id="Trazado_4966" data-name="Trazado 4966" d="M5392.753,1250.518a20.179,20.179,0,0,0,1.5,2.858H5430.6a20.377,20.377,0,0,0,1.5-2.858Z" transform="translate(-5391.156 -1234.046)" fill="#fff"/>
                    <path id="Trazado_4967" data-name="Trazado 4967" d="M5391.55,1244.059v3.074c.01.053.018.1.026.157h42.489c.009-.052.017-.1.025-.157v-3.074Z" transform="translate(-5391.55 -1236.157)" fill="#fff"/>
                    <path id="Trazado_4968" data-name="Trazado 4968" d="M5391.744,1247.365a24.659,24.659,0,0,0,.883,3.026h40.258a24.324,24.324,0,0,0,.884-3.026Z" transform="translate(-5391.485 -1235.076)" fill="#fff"/>
                    <path id="Trazado_4969" data-name="Trazado 4969" d="M5394.523,1253.594c.129.171,1.951,3.663,8.343,5.643h17.964c6.392-1.979,8.214-5.471,8.343-5.643Z" transform="translate(-5390.577 -1233.041)" fill="#fff"/>
                    <path id="Trazado_4970" data-name="Trazado 4970" d="M5418.044,1239.06c-1.19-.142-2.567-.957-4.758-.957h-.933c-2.19,0-3.568.815-4.756.957H5391.55v5.79h42.541v-5.79Z" transform="translate(-5391.55 -1238.103)" fill="#fff"/>
                  </g>
                </g>
              </g>
            </g>
          </g>
        </g>
        <g id="Grupo_4372" data-name="Grupo 4372" transform="translate(-4338 1383)">
          <g id="Elipse_568" data-name="Elipse 568" transform="translate(4958 -616)" fill="#59bfd6" stroke="#227d84" stroke-width="3">
            <circle cx="20" cy="20" r="20" stroke="none"/>
            <circle cx="20" cy="20" r="18.5" fill="none"/>
          </g>
          <path id="Trazado_3105" data-name="Trazado 3105" d="M6.138-9.614a7.4,7.4,0,0,1,4.807,1.3A4.3,4.3,0,0,1,12.5-4.84a4.829,4.829,0,0,1-.7,2.563A4.917,4.917,0,0,1,9.647-.429,8.162,8.162,0,0,1,6.094.264a12.112,12.112,0,0,1-3.2-.429A8.245,8.245,0,0,1,.22-1.386L1.628-4.114A6.739,6.739,0,0,0,3.652-3.091a7.737,7.737,0,0,0,2.354.363,3.688,3.688,0,0,0,2.112-.528,1.688,1.688,0,0,0,.77-1.474,1.656,1.656,0,0,0-.8-1.5A5.541,5.541,0,0,0,5.3-6.732H1.364L2.156-15.4H11.55v2.86H5.126L4.884-9.614Z" transform="translate(4972 -588)" fill="#fff"/>
        </g>
      </g>
    </g>
  </g>
</svg>
