<svg xmlns="http://www.w3.org/2000/svg" width="649.822" height="444.414" viewBox="0 0 649.822 444.414">
  <g id="Grupo_3671" data-name="Grupo 3671" transform="translate(-210.296 -76.105)">
    <g id="Grupo_3601" data-name="Grupo 3601" transform="translate(438.379 172.993)">
      <path id="Trazado_3406" data-name="Trazado 3406" d="M733.742,430.392l12.547-8.627,4.567,23.654-1.132,8.341-15.983-4.62Z" transform="translate(-696.536 -343.468)" fill="#90acd1"/>
      <ellipse id="Elipse_682" data-name="Elipse 682" cx="19.888" cy="9.88" rx="19.888" ry="9.88" transform="matrix(1, -0.018, 0.018, 1, 26.296, 151.671)" fill="#a8c4e5" opacity="0.4" style="mix-blend-mode: multiply;isolation: isolate"/>
      <path id="Trazado_3407" data-name="Trazado 3407" d="M756.113,585.637l6.9-7.681c1.8-1.608,3.239-.886,4.952-.77a1.634,1.634,0,0,1,1.493,1.417l.229,1.647c.412,2.364-1.57,4.072-2.982,5.013l-7.387,5.568C757.909,591.773,752.578,589.92,756.113,585.637Z" transform="translate(-706.982 -419.991)" fill="#305dad"/>
      <path id="Trazado_3408" data-name="Trazado 3408" d="M778.36,571.072c0,2.452-5.964,2.452-5.964,0V563.1h5.964Z" transform="translate(-715.599 -413.174)" fill="#c6d2f2"/>
      <path id="Trazado_3409" data-name="Trazado 3409" d="M716.034,566.123l8.3-8.217a10.373,10.373,0,0,1,5.32-.69,1.635,1.635,0,0,1,1.4,1.51l.123,1.659c.26,2.386.046,2.731-1.424,3.58L721.024,569a5.564,5.564,0,0,1-4.987.207l-.361-.208C714.4,568.268,714.564,566.972,716.034,566.123Z" transform="translate(-687.202 -410.232)" fill="#305dad"/>
      <path id="Trazado_3410" data-name="Trazado 3410" d="M739.706,550.313c0,2.452-5.964,2.452-5.964,0v-7.969h5.964Z" transform="translate(-696.536 -402.936)" fill="#c6d2f2"/>
      <path id="Trazado_3411" data-name="Trazado 3411" d="M733.9,476.318c-2.337,1.677-6.2,1.639-7.493-.312a385.265,385.265,0,0,1-6.021-73.613l18.53-5.495C735.612,426.841,731.666,453.338,733.9,476.318Z" transform="translate(-689.933 -331.204)" fill="#2e68d1"/>
      <path id="Trazado_3412" data-name="Trazado 3412" d="M766.173,488.173c-1.888,2.806-6.155,2.824-7.414.8l-12.484-83.7H767.8Z" transform="translate(-702.717 -335.331)" fill="#2e68d1"/>
      <path id="Trazado_3413" data-name="Trazado 3413" d="M746.75,434.046l-1.069,7.544-4.115-16a25.13,25.13,0,0,0,2.96.568Z" transform="translate(-700.394 -345.354)" fill="#2130a7"/>
      <path id="Trazado_3414" data-name="Trazado 3414" d="M776.991,352.159l11.119,22.379c.557,1.211,2.462,22.78,2.462,22.78l5.551-3.246s-1.682-23.853-2.022-25.057l-6.666-23.553Z" transform="translate(-717.865 -305.836)" fill="#ffc2b0"/>
      <rect id="Rectángulo_998" data-name="Rectángulo 998" width="5.887" height="8.01" rx="2.944" transform="translate(72.727 83.881) rotate(7.496)" fill="#ffc2b0"/>
      <path id="Trazado_3415" data-name="Trazado 3415" d="M700.684,317.869l-10.148,20.815c-1.309,2.581-4.148,7.289-5.1,12.631l-9.729-3.822.345,2.689,12.884,5.7c-1.12-6.219,2.695-6.708,4.867-9.33,3.814-4.6,7.6-9.2,7.638-9.4C701.5,336.841,700.684,317.869,700.684,317.869Z" transform="translate(-667.913 -292.228)" fill="#cfe4ff"/>
      <path id="Trazado_3416" data-name="Trazado 3416" d="M718.935,355.792a97.837,97.837,0,0,0,.666-29.735c0-16.178,6.113-22.165,16.3-18.446l4.211,1.119c12.3,6.627,18.549,6.294,16.349,19.313l-2.154,28.537C754.311,371.269,718.151,373.062,718.935,355.792Z" transform="translate(-689.227 -286.643)" fill="#4dabff"/>
      <path id="Trazado_3417" data-name="Trazado 3417" d="M776.991,358.675l5.3,22.022.635,2.144.78-10.614Z" transform="translate(-717.865 -312.353)" fill="#6f9ed9"/>
      <path id="Trazado_3418" data-name="Trazado 3418" d="M773.791,336.908l7.6,18.144,6.36,24.344c.872,1.352,7.2-2.908,6.124-4.985a82.93,82.93,0,0,0-1.783-18.6c-3.109-14.1-8.641-31.52-12.847-33.505C773.4,319.551,770.56,328.969,773.791,336.908Z" transform="translate(-715.619 -294.176)" fill="#dbebff"/>
      <path id="Trazado_3419" data-name="Trazado 3419" d="M730.36,281.564a7.993,7.993,0,0,1,6.278-3.776L733.753,275S730.143,274.984,730.36,281.564Z" transform="translate(-694.863 -271.086)" fill="#21ded5"/>
      <path id="Trazado_3420" data-name="Trazado 3420" d="M762,311.043a51.611,51.611,0,0,1-2.384,7.861c-3.222,7.888-4.193,22.86-3.7,29.145L760.6,403.21s11.951.837,15.5-6.511-6.206-70.162-6.206-70.162l3.845-6.485S772.224,314.011,762,311.043Z" transform="translate(-707.41 -288.861)" fill="#dbebff"/>
      <path id="Trazado_3421" data-name="Trazado 3421" d="M776.991,358.675l5.264,19.379,3.209,10.16-1.755-15.988Z" transform="translate(-717.865 -312.353)" fill="#90acd1"/>
      <path id="Trazado_3422" data-name="Trazado 3422" d="M731.261,304.907s-13.014-1.113-13.43,16.824-2.377,53.769-1.608,63.563c0,0,5.063,11.22,11.179,11.775,0,0-.518-56.294-.962-60.524C724.813,321.072,731.261,304.907,731.261,304.907Z" transform="translate(-687.808 -285.828)" fill="#dbebff"/>
      <g id="Grupo_3591" data-name="Grupo 3591" transform="translate(47.105 19.233)">
        <g id="Grupo_3585" data-name="Grupo 3585" transform="translate(2.649)">
          <path id="Trazado_3423" data-name="Trazado 3423" d="M758.868,306.56c1.721.852,3.32,2.033,3.443,4.113.1,1.607-.4,3.151-.221,4.778.351,3.193,1.955,6.047,2.827,9.1a.729.729,0,0,0,1.406-.38c-1.156-4.045-3.2-7.5-2.683-11.845.4-3.374-1.032-5.533-4.031-7.018-.836-.414-1.582.837-.742,1.253Z" transform="translate(-758.499 -305.224)" fill="#2130a7"/>
        </g>
        <g id="Grupo_3586" data-name="Grupo 3586" transform="translate(2.354 6.518)">
          <path id="Trazado_3424" data-name="Trazado 3424" d="M761.752,318.6c-.953,3.964-4.935,7.255-3.542,11.733.277.891,1.685.518,1.406-.38-1.258-4.046,2.667-7.339,3.537-10.959.219-.91-1.182-1.307-1.4-.394Z" transform="translate(-757.917 -318.085)" fill="#2130a7"/>
        </g>
        <g id="Grupo_3588" data-name="Grupo 3588" transform="translate(2.237 18.989)">
          <g id="Grupo_3587" data-name="Grupo 3587">
            <path id="Trazado_3425" data-name="Trazado 3425" d="M763.853,344.791l-2.06,11.05c-.533,2.374-1.014,3.694-3.994,3.2-.046.417-.088.833-.111,1.251l.461.086a4.016,4.016,0,0,0,4.693-3.19l2.469-13.241C765.716,341.774,764.251,342.658,763.853,344.791Z" transform="translate(-757.688 -342.691)" fill="#fff"/>
          </g>
        </g>
        <rect id="Rectángulo_999" data-name="Rectángulo 999" width="3.204" height="1.85" rx="0.925" transform="matrix(-0.997, -0.073, 0.073, -0.997, 3.196, 37.099)" fill="#2130a7"/>
        <g id="Grupo_3590" data-name="Grupo 3590" transform="translate(2.989 18.577)">
          <g id="Grupo_3589" data-name="Grupo 3589">
            <path id="Trazado_3426" data-name="Trazado 3426" d="M760.8,343.892l2.8,10.886c.691,2.333,1.259,3.617,4.2,2.927.074.413.143.826.195,1.241l-.454.116a4.016,4.016,0,0,1-4.9-2.867l-3.352-13.045C758.739,341.006,760.26,341.789,760.8,343.892Z" transform="translate(-759.171 -341.878)" fill="#fff"/>
          </g>
        </g>
        <rect id="Rectángulo_1000" data-name="Rectángulo 1000" width="3.204" height="1.85" rx="0.925" transform="translate(10.629 34.382) rotate(-8.017)" fill="#2130a7"/>
        <rect id="Rectángulo_1001" data-name="Rectángulo 1001" width="2.34" height="1.961" rx="0.981" transform="translate(10.658 20.248) rotate(-178.32)" fill="#2130a7"/>
        <rect id="Rectángulo_1002" data-name="Rectángulo 1002" width="2.34" height="1.961" rx="0.981" transform="translate(4.976 19.824) rotate(169.994)" fill="#2130a7"/>
      </g>
      <g id="Grupo_3594" data-name="Grupo 3594" transform="translate(31.488 19.065)">
        <g id="Grupo_3592" data-name="Grupo 3592" transform="translate(3.242)">
          <path id="Trazado_3427" data-name="Trazado 3427" d="M730.137,331.183c.534-5.45.663-10.981,1.542-16.39.577-3.551,1.618-7.791,5.685-8.591.812-.16.711-1.456-.11-1.294-3.75.738-5.483,3.683-6.361,7.184-1.527,6.089-1.425,12.634-2.034,18.854-.082.828,1.2,1.07,1.278.238Z" transform="translate(-728.856 -304.894)" fill="#2130a7"/>
        </g>
        <g id="Grupo_3593" data-name="Grupo 3593" transform="translate(0 23.624)">
          <circle id="Elipse_683" data-name="Elipse 683" cx="3.478" cy="3.478" r="3.478" transform="translate(0 1.059) rotate(-1.218)" fill="#4852db"/>
          <path id="Trazado_3428" data-name="Trazado 3428" d="M724.515,355.294a2.679,2.679,0,1,0,3.471-1.519A2.679,2.679,0,0,0,724.515,355.294Z" transform="translate(-723.382 -352.534)" fill="#fbfbff"/>
          <path id="Trazado_3429" data-name="Trazado 3429" d="M724.83,353.211a2.679,2.679,0,1,0,3.47-1.52A2.679,2.679,0,0,0,724.83,353.211Z" transform="translate(-723.537 -351.507)" fill="#2130a7"/>
        </g>
      </g>
      <g id="Grupo_3595" data-name="Grupo 3595" transform="translate(32.771)">
        <path id="Trazado_3430" data-name="Trazado 3430" d="M746.687,293.587a8.716,8.716,0,0,0,2.423,1.656c.813.17,9.558-6.9,6.393-14.82-2-5.018-11.486-1.088-11.486-1.088Z" transform="translate(-734.374 -272.501)" fill="#4432db"/>
        <path id="Trazado_3431" data-name="Trazado 3431" d="M749.507,307.588l-.489.083a3.055,3.055,0,0,1-3.514-2.494l-1.582-9.314a3.056,3.056,0,0,1,2.494-3.514l.489-.083a3.055,3.055,0,0,1,3.514,2.494l2.836,8.727C753.535,305.139,751.159,307.307,749.507,307.588Z" transform="translate(-734.307 -279.579)" fill="#ffc2b0"/>
        <path id="Trazado_3432" data-name="Trazado 3432" d="M746.066,308.133a8.342,8.342,0,0,0,6.61-3.747s-2.518,5.851-6.167,6.351Z" transform="translate(-735.385 -285.578)" fill="#f09a82"/>
        <ellipse id="Elipse_684" data-name="Elipse 684" cx="5.385" cy="9.499" rx="5.385" ry="9.499" transform="translate(1.143 4.919) rotate(-11.596)" fill="#ffc2b0"/>
        <path id="Trazado_3433" data-name="Trazado 3433" d="M748.8,285.915c-.927,4.449-5.482,6.371-8.437,3.73s-4.6-8.389-3.672-12.838,4.077-5.915,7.033-3.274S749.731,281.466,748.8,285.915Z" transform="translate(-730.635 -269.713)" fill="#ffc2b0"/>
        <path id="Trazado_3434" data-name="Trazado 3434" d="M742.572,274.968s.454,8.417,7.31,9.163c0,0,6.66-5.509-.1-12.544-5.96-6.2-12.715.423-12.715.423Z" transform="translate(-730.946 -268.095)" fill="#305dad"/>
        <path id="Trazado_3435" data-name="Trazado 3435" d="M740.859,278.421c-1.865-1.788-5.189-1.078-9.654,1.584-4.363,1.017-5.83-3.925-5.83-3.925-1.155-2.571.42-4.087,2.991-5.241l6.7-3.007c3.784-1.724,8.174.884,9.329,3.455l.258.412C745.8,274.269,743.43,277.267,740.859,278.421Z" transform="translate(-724.991 -267.276)" fill="#305dad"/>
        <path id="Trazado_3436" data-name="Trazado 3436" d="M759.475,298.871a2,2,0,1,1-1.55-2.367A2,2,0,0,1,759.475,298.871Z" transform="translate(-740.045 -281.67)" fill="#ffc2b0"/>
      </g>
      <g id="Grupo_3600" data-name="Grupo 3600" transform="translate(0 40.981)">
        <path id="Trazado_3437" data-name="Trazado 3437" d="M701.4,375.656l-2.364-.833-.278-.278-.178-.316-17.806-9.259a.911.911,0,0,0-.789.031l-6.8,3.987-.012-.111-1.282.512.058.529h.009a.3.3,0,0,0,.142.137l18.53,9.636a.1.1,0,0,1,.049.072c.387,1.419,1.033,2.689,2.244,1.951l7.529-4.437a1.808,1.808,0,0,0,.948-1.62Z" transform="translate(-666.032 -356.401)" fill="#a8c4e5"/>
        <g id="Grupo_3597" data-name="Grupo 3597" transform="translate(3.836 7.723)">
          <g id="Grupo_3596" data-name="Grupo 3596">
            <path id="Trazado_3438" data-name="Trazado 3438" d="M689.419,380.413l-21.338-11.1c-.247-.128-.242-.355.011-.5l9.067-5.316a1.05,1.05,0,0,1,.909-.036l21.338,11.1c.247.128.242.355-.011.5l-9.068,5.317A1.049,1.049,0,0,1,689.419,380.413Z" transform="translate(-667.899 -363.374)" fill="#fff"/>
          </g>
        </g>
        <path id="Trazado_3439" data-name="Trazado 3439" d="M706.472,378.879l-5.164-2.685c-.06-.031-.059-.086,0-.122l2.194-1.287a.254.254,0,0,1,.22-.009l5.164,2.686c.06.031.059.086,0,.122l-2.194,1.287A.253.253,0,0,1,706.472,378.879Z" transform="translate(-680.518 -361.265)" fill="#a8c4e5"/>
        <g id="Grupo_3599" data-name="Grupo 3599" transform="translate(0.108)">
          <g id="Grupo_3598" data-name="Grupo 3598">
            <path id="Trazado_3440" data-name="Trazado 3440" d="M683.919,360.411a2.42,2.42,0,0,0-1.073-1.339L661.68,348.229a.54.54,0,0,0-.45-.067h0l0,0a.244.244,0,0,0-.1.076l-.589.663.6-.051,3.176,11.725a2.418,2.418,0,0,0,1.072,1.339L685.4,372.169l.681.655.093.161c.391.079,1.239-.541,1.239-.541Z" transform="translate(-660.542 -348.137)" fill="#fff"/>
          </g>
        </g>
        <path id="Trazado_3441" data-name="Trazado 3441" d="M685.816,374.155,664.65,363.311a2.418,2.418,0,0,1-1.073-1.338l-3.211-11.854c-.137-.506.121-.727.577-.494l21.166,10.844a2.418,2.418,0,0,1,1.073,1.339l3.211,11.854C686.53,374.167,686.271,374.388,685.816,374.155Z" transform="translate(-660.33 -348.825)" fill="#a3bddc"/>
        <path id="Trazado_3442" data-name="Trazado 3442" d="M684.032,373.3c.171.63-.412.771-1.3.315a4.04,4.04,0,0,1-1.92-1.966c-.17-.629.413-.77,1.3-.315A4.034,4.034,0,0,1,684.032,373.3Z" transform="translate(-670.416 -359.444)" fill="#fff"/>
      </g>
    </g>
    <g id="Grupo_3602" data-name="Grupo 3602" transform="translate(556.014 418.164)" opacity="0.4" style="mix-blend-mode: multiply;isolation: isolate">
      <path id="Trazado_3443" data-name="Trazado 3443" d="M932.3,840.963c-11.393-.492-25.706-9.208-35.827-17.712-2.682-2.253-4.04-4.8-4.037-7.57.008-6.2,6.9-11.366,14.873-17.35,7.234-5.426,17.061-9.92,18.805-16.324,4.3-15.784,26.443-30.114,27.453-30.645a3.112,3.112,0,0,1,4.133,1.32,2.966,2.966,0,0,1-1.138,4.1c-.224.119-21.622,14.227-25.26,27.589-2.266,8.321-12.262,12.918-20.232,18.9-5.891,4.418-12.567,9.426-12.57,12.687,0,.305,0,1.234,1.745,2.7,10.313,8.666,24.861,17.032,34.127,16.186,13.259-1.21,23.4-14.142,28.267-20.356.46-.586.872-1.112,1.235-1.562a81.589,81.589,0,0,1,24.312-20.574l.048-.025L1004.9,783.6a3.113,3.113,0,0,1,4.131,1.33,2.965,2.965,0,0,1-1.148,4.094l-16.641,8.711a75.931,75.931,0,0,0-22.59,19.139c-.348.432-.744.938-1.185,1.5-5.367,6.846-16.533,21.091-32.288,22.529A21.475,21.475,0,0,1,932.3,840.963Z" transform="translate(-892.436 -751.026)" fill="#a8c4e5"/>
    </g>
    <circle id="Elipse_685" data-name="Elipse 685" cx="10.442" cy="10.442" r="10.442" transform="matrix(0.25, -0.968, 0.968, 0.25, 210.296, 433.584)" fill="#59bfd6"/>
    <circle id="Elipse_686" data-name="Elipse 686" cx="4.341" cy="4.341" r="4.341" transform="translate(299.045 382.89) rotate(-9.28)" fill="#59bfd6"/>
    <path id="Trazado_3444" data-name="Trazado 3444" d="M401.729,868.25a4.341,4.341,0,1,1-3.906-4.737A4.342,4.342,0,0,1,401.729,868.25Z" transform="translate(-90.14 -388.329)" fill="#59bfd6"/>
    <path id="Trazado_3445" data-name="Trazado 3445" d="M747.377,80.862a4.341,4.341,0,1,1-3.905-4.737A4.341,4.341,0,0,1,747.377,80.862Z" transform="translate(-260.609)" fill="#59bfd6"/>
    <path id="Trazado_3446" data-name="Trazado 3446" d="M1261.773,128.284a4.341,4.341,0,1,1-3.905-4.737A4.341,4.341,0,0,1,1261.773,128.284Z" transform="translate(-514.302 -23.388)" fill="#59bfd6"/>
    <circle id="Elipse_687" data-name="Elipse 687" cx="4.341" cy="4.341" r="4.341" transform="translate(798.247 499.46)" fill="#59bfd6"/>
    <path id="Trazado_3447" data-name="Trazado 3447" d="M1041.107,650.651,819.58,522.752c-2.564-1.48-2.24-4.091.721-5.8l106.152-61.287c2.961-1.709,7.481-1.9,10.045-.417l221.528,127.9c2.564,1.48,2.239,4.09-.722,5.8l-106.152,61.287C1048.192,651.944,1043.671,652.131,1041.107,650.651Z" transform="translate(-299.638 -186.496)" fill="#69a4eb" opacity="0.32"/>
    <path id="Trazado_3448" data-name="Trazado 3448" d="M1413.951,457.259v-.022c0-.08,0-.16,0-.241s-.006-.161-.011-.242c0-.011,0-.023,0-.034l0-.033c0-.057-.008-.113-.014-.17-.008-.079-.016-.159-.026-.238,0-.037-.01-.075-.016-.112,0-.016,0-.032-.007-.049s-.007-.051-.011-.077q-.019-.119-.041-.239c-.014-.075-.03-.151-.046-.226v-.015c-.017-.08-.036-.161-.056-.241s-.041-.158-.062-.237l-.019-.063-.013-.046c-.012-.043-.024-.085-.037-.127q-.035-.114-.073-.227c-.019-.057-.039-.115-.059-.171l-.009-.024-.009-.025c-.026-.072-.053-.143-.081-.214s-.054-.137-.083-.205c-.012-.028-.024-.057-.037-.086l-.016-.037-.035-.081q-.047-.106-.1-.211c-.033-.07-.067-.14-.1-.209l-.01-.02-.016-.031c-.037-.073-.074-.147-.114-.219s-.076-.134-.114-.2c-.026-.045-.05-.09-.077-.134l-.035-.063c-.065-.108-.133-.214-.2-.32-.022-.034-.043-.07-.066-.1l-.01-.016q-.133-.2-.276-.393l-.042-.054-.037-.049c-.033-.044-.066-.088-.1-.131-.056-.072-.114-.143-.172-.214l-.068-.079-.035-.041-.064-.075q-.086-.1-.174-.193c-.045-.048-.09-.095-.135-.142l-.025-.026-.022-.023q-.1-.1-.192-.19t-.2-.189l0,0-.005,0q-.1-.089-.2-.175c-.071-.06-.142-.118-.215-.175l-.027-.02-.031-.023c-.052-.041-.1-.082-.158-.121q-.108-.08-.218-.155l-.061-.041-.02-.014-.007,0c-.043-.029-.086-.058-.13-.086-.073-.046-.146-.091-.221-.135l-1.2-.688-6.557,3.549s1.568.909,1.641.955.146.095.218.144.146.1.219.155.144.108.216.164l.089.072c.113.092.226.187.335.285h0c.112.1.219.2.325.31l.041.04q.152.153.3.314l.044.049q.141.158.275.323l.048.059q.132.166.259.337c.043.059.084.12.126.18s.1.144.151.218.11.174.165.262c.035.057.072.113.106.171s.058.1.087.153c.052.09.1.18.152.272.013.024.025.049.038.074.066.127.13.254.19.383l.015.032q.094.2.178.41l.017.042c.054.135.1.27.152.405l.018.052c.046.134.089.268.129.4l.018.061c.038.134.074.268.106.4,0,.02.01.041.014.062q.047.2.084.4c0,.02.007.04.01.059q.035.2.06.407l.006.054c.015.137.027.273.035.408,0,.068.007.136.009.2s0,.161,0,.241,0,.168-.006.251-.009.167-.015.25-.017.18-.028.269c-.009.069-.019.138-.03.207l-.06.373-22.66,140.048c-.108.666-2.688,4.926-2.105,4.587l6.2-5.252a7.217,7.217,0,0,0,2.458-4.353L1413.6,459.88c.108-.665.27-1.666.27-1.666.011-.069.021-.138.03-.207s.013-.118.018-.177l0-.01c0-.008,0-.016,0-.024s0-.039.006-.058c.007-.083.012-.166.016-.25,0-.066,0-.133,0-.2Z" transform="translate(-578.179 -183.808)" fill="#a8c9ed"/>
    <g id="Grupo_3603" data-name="Grupo 3603" transform="translate(578.078 142.902)">
      <path id="Trazado_3449" data-name="Trazado 3449" d="M1182.917,334.331c2.953,1.705,4.936,5.624,4.428,8.757l-22.99,142.087c-.5,3.135-3.309,4.289-6.262,2.584L940.479,362.12c-2.953-1.705-4.936-5.624-4.429-8.757l22.987-142.089c.507-3.133,3.309-4.289,6.262-2.584Z" transform="translate(-935.972 -207.904)" fill="#fff"/>
    </g>
    <path id="Trazado_3450" data-name="Trazado 3450" d="M1217.007,294.179,1001.321,169.652h0l-.014-.008-.321-.186,0,0c-.244-.14-.535-.308-.569-.326q-.112-.06-.222-.115t-.226-.106c-.076-.034-.151-.066-.226-.1s-.156-.061-.234-.088-.157-.053-.235-.077-.167-.049-.25-.069l-.014,0h0l-.023-.005c-.073-.017-.144-.034-.215-.048-.037-.007-.073-.012-.109-.018l-.089-.015-.069-.012c-.089-.012-.176-.02-.262-.027l-.022,0h0c-.1-.007-.207-.01-.308-.01l-.034,0c-.047,0-.092,0-.138.007s-.11,0-.163.008c-.016,0-.03,0-.046.007-.075.008-.148.02-.221.031-.04.007-.081.01-.12.017l-.025.007a3.374,3.374,0,0,0-.426.117l-.03.008c-.016.006-.029.015-.045.02a3.318,3.318,0,0,0-.516.239l-6.334,3.68a3.384,3.384,0,0,1,.507-.234c.067-.025.137-.046.206-.066s.166-.05.251-.069q.151-.033.308-.054c.039-.006.078-.013.118-.017a4,4,0,0,1,.443-.019l.084,0a4.438,4.438,0,0,1,.464.038l.035.006a5.011,5.011,0,0,1,.5.1l.041.011q.249.066.5.161l.05.019c.179.068.359.146.54.236q.11.055.221.115c.057.031.114.063.172.1l1.194.689h0l216.021,124.72a.8.8,0,0,0,.8,0l4.741-2.755A.8.8,0,0,0,1217.007,294.179ZM999.191,170.038Z" transform="translate(-384.443 -45.538)" fill="#ebf1f7"/>
    <path id="Trazado_3451" data-name="Trazado 3451" d="M1418.744,422.633v-.022c0-.08,0-.16,0-.241s-.006-.161-.011-.242l0-.034,0-.033c0-.057-.008-.113-.013-.17-.007-.079-.017-.159-.027-.238,0-.038-.01-.076-.016-.113,0-.016,0-.032-.007-.049s-.007-.051-.011-.077q-.018-.119-.041-.239c-.014-.075-.029-.151-.046-.226l0-.009v-.006c-.018-.08-.036-.161-.056-.241s-.04-.158-.062-.237c-.006-.021-.012-.042-.018-.063l-.013-.046c-.013-.043-.024-.085-.037-.127-.023-.076-.047-.152-.073-.227-.019-.057-.039-.115-.06-.171l-.008-.024-.009-.025q-.039-.107-.081-.214c-.026-.068-.054-.137-.082-.205l-.037-.086-.016-.037c-.011-.027-.022-.054-.034-.081-.031-.07-.063-.141-.1-.211s-.066-.14-.1-.21l-.011-.019-.016-.031c-.037-.074-.074-.147-.114-.22s-.076-.134-.114-.2c-.025-.045-.05-.09-.076-.134-.012-.021-.023-.043-.036-.063-.064-.108-.133-.214-.2-.32-.023-.034-.043-.07-.066-.1l-.01-.016q-.134-.2-.276-.393l-.042-.055-.037-.049c-.033-.044-.066-.088-.1-.131-.057-.072-.114-.143-.173-.213l-.068-.079-.035-.041-.064-.075c-.057-.065-.115-.129-.174-.193l-.136-.142-.024-.026-.022-.023q-.1-.1-.193-.19c-.067-.064-.135-.127-.2-.189l0,0,0,0c-.066-.059-.133-.118-.2-.175s-.142-.118-.215-.175l-.027-.02-.03-.023c-.053-.041-.1-.082-.159-.121-.072-.053-.145-.1-.218-.155l-.062-.041-.02-.014-.007,0c-.043-.029-.086-.058-.13-.086-.073-.046-.146-.091-.22-.135l-5.269-3.043-6.468,3.907s5.552,2.906,5.625,2.952.146.095.219.144.146.1.218.155.145.108.216.164l.089.072q.171.138.335.285h0c.111.1.219.2.325.31l.041.04q.151.153.3.314l.045.049q.141.158.275.323l.048.059q.133.166.259.337c.043.059.084.12.126.18s.1.144.151.219.111.173.165.261c.036.057.072.113.106.171s.057.1.087.153c.051.09.1.18.151.272l.038.073q.1.19.19.383l.014.032c.063.135.123.272.179.409l.017.043q.081.2.153.4l.018.052q.069.2.129.4l.018.061c.039.134.074.268.106.4l.015.062c.031.135.059.27.083.4,0,.02.007.039.01.059q.035.2.06.407c0,.018,0,.036.006.054q.024.205.036.409c0,.068.008.136.01.2s0,.161,0,.241,0,.168-.006.251-.009.167-.015.25-.017.18-.028.269c-.009.069-.018.138-.029.207l-.06.373-22.66,140.048c-.108.665-2.689,4.926-2.106,4.588l6.2-5.253a7.216,7.216,0,0,0,2.458-4.353L1418.4,425.254c.107-.665.27-1.666.27-1.666.011-.069.021-.138.03-.207s.012-.118.018-.177l0-.01c0-.008,0-.016,0-.024s0-.039.006-.058c.007-.083.012-.166.015-.25,0-.066,0-.133.005-.2Z" transform="translate(-580.542 -165.57)" fill="#a8c9ed"/>
    <g id="Grupo_3604" data-name="Grupo 3604" transform="translate(580.48 126.345)" opacity="0.944">
      <path id="Trazado_3452" data-name="Trazado 3452" d="M1187.657,301.663c2.953,1.7,4.936,5.624,4.429,8.756L1169.1,452.506c-.5,3.134-3.31,4.289-6.263,2.584L945.22,329.451c-2.954-1.7-4.936-5.624-4.429-8.756l22.987-142.089c.507-3.132,3.309-4.289,6.263-2.584Z" transform="translate(-940.712 -175.235)" fill="#9fbadb"/>
    </g>
    <g id="Grupo_3605" data-name="Grupo 3605" transform="translate(586.487 144.185)">
      <path id="Trazado_3453" data-name="Trazado 3453" d="M1185.731,328.167c2.8,1.587,4.7,5,4.241,7.629L1169.178,455c-.456,2.629-3.1,3.471-5.9,1.884L956.873,339.955c-2.8-1.587-4.7-5-4.241-7.63l20.791-119.2c.459-2.628,3.1-3.472,5.9-1.885Z" transform="translate(-952.564 -210.435)" fill="#fcfcfc"/>
    </g>
    <path id="Trazado_3454" data-name="Trazado 3454" d="M1046.545,652.2l-.048-6.607-8.506,3.29-1.822-4.2L823.288,521.78c-2.564-1.48-7.658-1.293-10.619.416l-92.226,52.916v-1.474l-14.007,6.807-1.969-.8.266,6.464a3,3,0,0,0,1.625,2.492L927.891,716.844c2.564,1.48,7.087,1.462,10.048-.247l106.154-61.2c1.616-.933,2.441-2.092,2.445-3.231Z" transform="translate(-243.718 -219.309)" fill="#9fbadb"/>
    <path id="Trazado_3455" data-name="Trazado 3455" d="M927.818,699.545l-221.528-127.9c-2.564-1.48-2.24-4.091.721-5.8l106.152-61.287c2.961-1.71,7.481-1.9,10.045-.417l221.528,127.9c2.564,1.48,2.24,4.09-.721,5.8L937.863,699.128C934.9,700.838,930.382,701.025,927.818,699.545Z" transform="translate(-243.765 -210.61)" fill="#cfe4ff"/>
    <g id="Grupo_3608" data-name="Grupo 3608" transform="translate(516.652 303.204)">
      <g id="Grupo_3607" data-name="Grupo 3607">
        <g id="Grupo_3606" data-name="Grupo 3606">
          <path id="Trazado_3456" data-name="Trazado 3456" d="M930.066,538.222a1.7,1.7,0,0,1-1.463-.17l-13.449-7.761c-.485-.28-.618-.659-.3-.845l8.909-5.147a1.694,1.694,0,0,1,1.464.17l13.449,7.761c.484.28.618.658.295.844Z" transform="translate(-864.046 -524.197)" fill="#98c0f2"/>
          <path id="Trazado_3457" data-name="Trazado 3457" d="M960.851,583.948a1.685,1.685,0,0,1-1.467-.169l-13.448-7.761c-.484-.279-.613-.656-.288-.843l8.912-5.149a1.688,1.688,0,0,1,1.454.17l13.448,7.76c.492.284.618.66.3.843Z" transform="translate(-879.229 -546.75)" fill="#98c0f2"/>
          <path id="Trazado_3458" data-name="Trazado 3458" d="M945.289,602.93a1.689,1.689,0,0,1-1.459-.172L930.379,595c-.477-.275-.621-.656-.3-.842l8.914-5.15a1.712,1.712,0,0,1,1.457.173l13.451,7.762c.483.279.616.659.3.841Z" transform="translate(-871.555 -556.111)" fill="#98c0f2"/>
          <path id="Trazado_3459" data-name="Trazado 3459" d="M903.191,606.6a1.694,1.694,0,0,1-1.457-.169l-13.45-7.762c-.479-.276-.612-.657-.294-.841l8.912-5.148a1.7,1.7,0,0,1,1.46.168l13.45,7.762c.481.278.61.658.29.842Z" transform="translate(-850.796 -557.92)" fill="#98c0f2"/>
          <path id="Trazado_3460" data-name="Trazado 3460" d="M830.154,595.069a1.7,1.7,0,0,1-1.461-.171l-13.449-7.761c-.486-.28-.619-.658-.3-.844l10.463-6.044a1.71,1.71,0,0,1,1.462.171l13.449,7.761c.485.28.611.662.3.843Z" transform="translate(-814.771 -551.792)" fill="#98c0f2"/>
          <path id="Trazado_3461" data-name="Trazado 3461" d="M871.354,618.841a2.175,2.175,0,0,1-1.737-.329L852,608.343c-.631-.364-.89-.814-.569-1l10.464-6.044a2.2,2.2,0,0,1,1.732.328l17.62,10.168c.639.369.887.821.573,1Z" transform="translate(-832.782 -562.184)" fill="#98c0f2"/>
          <path id="Trazado_3462" data-name="Trazado 3462" d="M1104.365,757.206a1.66,1.66,0,0,1-1.363-.228l-13.439-7.755c-.49-.283-.672-.639-.4-.793l3.868-2.235a1.684,1.684,0,0,1,1.374.233l13.439,7.756c.484.279.659.634.394.787Z" transform="translate(-950.034 -633.649)" fill="#98c0f2"/>
          <path id="Trazado_3463" data-name="Trazado 3463" d="M1139.82,778.2a1.66,1.66,0,0,1-1.363-.227l-13.439-7.756c-.49-.283-.672-.638-.4-.793l3.869-2.235a1.686,1.686,0,0,1,1.374.233l13.439,7.756c.484.279.659.634.394.787Z" transform="translate(-967.52 -644.002)" fill="#98c0f2"/>
          <path id="Trazado_3464" data-name="Trazado 3464" d="M1177.415,799.482a1.664,1.664,0,0,1-1.348-.239l-13.443-7.758c-.482-.278-.676-.631-.418-.78l3.726-2.153a1.69,1.69,0,0,1,1.352.241l13.444,7.758c.484.28.669.631.414.778Z" transform="translate(-986.065 -654.541)" fill="#98c0f2"/>
          <path id="Trazado_3465" data-name="Trazado 3465" d="M1154.3,770.188a1.663,1.663,0,0,1-1.348-.239l-13.443-7.758c-.483-.278-.676-.631-.418-.781l3.726-2.153a1.69,1.69,0,0,1,1.352.241l13.444,7.758c.484.28.669.631.414.778Z" transform="translate(-974.664 -640.094)" fill="#98c0f2"/>
          <path id="Trazado_3466" data-name="Trazado 3466" d="M986.365,685.2a1.708,1.708,0,0,1-1.468-.175l-87.518-50.5c-.477-.276-.62-.659-.3-.845l10.463-6.045a1.728,1.728,0,0,1,1.463.172l87.518,50.505c.487.281.618.666.3.847Z" transform="translate(-855.28 -575.16)" fill="#98c0f2"/>
          <path id="Trazado_3467" data-name="Trazado 3467" d="M875.93,623.148c-.02.012-.083-.006-.14-.039l-10.281-5.933c-.056-.032-.087-.069-.067-.081l.65-.376a.21.21,0,0,1,.139.039l10.281,5.933c.057.033.087.069.068.081Z" transform="translate(-839.758 -569.826)" fill="#98c0f2"/>
          <path id="Trazado_3468" data-name="Trazado 3468" d="M829.786,594.28a.091.091,0,0,1-.081,0l-4.364-2.519c-.024-.014-.028-.034-.008-.046l.65-.376a.091.091,0,0,1,.08,0l4.364,2.519c.024.014.027.035.008.047Z" transform="translate(-819.974 -557.305)" fill="#98c0f2"/>
          <path id="Trazado_3469" data-name="Trazado 3469" d="M939.562,627.568a1.7,1.7,0,0,1-1.463-.172l-13.448-7.761c-.477-.275-.617-.66-.3-.844l8.912-5.148a1.72,1.72,0,0,1,1.465.171l13.448,7.761c.487.281.616.661.3.846Z" transform="translate(-868.731 -568.261)" fill="#98c0f2"/>
          <path id="Trazado_3470" data-name="Trazado 3470" d="M976.1,648.655a1.7,1.7,0,0,1-1.457-.169l-13.447-7.76c-.482-.278-.618-.661-.3-.845l8.912-5.148a1.713,1.713,0,0,1,1.466.171l13.447,7.76c.477.276.61.658.29.842Z" transform="translate(-886.754 -578.662)" fill="#98c0f2"/>
          <path id="Trazado_3471" data-name="Trazado 3471" d="M1012.643,669.742a1.7,1.7,0,0,1-1.456-.169l-13.45-7.762c-.48-.277-.611-.657-.293-.841l8.912-5.148a1.7,1.7,0,0,1,1.459.167l13.45,7.762c.48.277.61.657.29.842Z" transform="translate(-904.777 -589.063)" fill="#98c0f2"/>
          <path id="Trazado_3472" data-name="Trazado 3472" d="M1049.178,690.825a1.692,1.692,0,0,1-1.458-.169l-13.45-7.762c-.486-.281-.617-.66-.3-.844l8.912-5.148a1.7,1.7,0,0,1,1.465.171l13.45,7.762c.483.279.611.658.291.843Z" transform="translate(-922.792 -599.459)" fill="#98c0f2"/>
          <path id="Trazado_3473" data-name="Trazado 3473" d="M1085.722,711.914a1.714,1.714,0,0,1-1.468-.175l-13.445-7.759c-.48-.277-.612-.657-.293-.841l8.912-5.148a1.7,1.7,0,0,1,1.459.167l13.445,7.759c.487.28.621.664.3.849Z" transform="translate(-940.815 -609.86)" fill="#98c0f2"/>
          <path id="Trazado_3474" data-name="Trazado 3474" d="M1122.266,732.986a1.7,1.7,0,0,1-1.461-.171l-13.446-7.759c-.484-.28-.617-.66-.3-.844l8.912-5.148a1.706,1.706,0,0,1,1.465.17l13.446,7.76c.482.278.614.66.294.845Z" transform="translate(-958.839 -620.252)" fill="#98c0f2"/>
          <path id="Trazado_3475" data-name="Trazado 3475" d="M1182,767.456a1.7,1.7,0,0,1-1.461-.171L1143.9,746.14c-.484-.28-.616-.659-.3-.843l8.912-5.148a1.7,1.7,0,0,1,1.463.169l36.641,21.145c.484.28.614.66.294.845Z" transform="translate(-976.859 -630.651)" fill="#98c0f2"/>
          <path id="Trazado_3476" data-name="Trazado 3476" d="M981.658,623.9a1.669,1.669,0,0,1-1.453-.168l-13.451-7.762c-.483-.279-.618-.654-.3-.841l8.914-5.15a1.7,1.7,0,0,1,1.454.171l13.451,7.762c.487.281.61.655.294.838Z" transform="translate(-889.494 -566.455)" fill="#98c0f2"/>
          <path id="Trazado_3477" data-name="Trazado 3477" d="M1018.2,644.99a1.687,1.687,0,0,1-1.456-.17l-13.455-7.765c-.478-.276-.614-.652-.291-.838l8.914-5.149a1.691,1.691,0,0,1,1.45.169L1026.818,639c.479.276.613.657.3.839Z" transform="translate(-907.516 -576.855)" fill="#98c0f2"/>
          <path id="Trazado_3478" data-name="Trazado 3478" d="M1054.739,666.074a1.693,1.693,0,0,1-1.459-.172l-13.448-7.761c-.476-.275-.625-.657-.3-.844l8.914-5.149a1.722,1.722,0,0,1,1.46.175l13.448,7.76c.481.277.616.659.3.841Z" transform="translate(-925.534 -587.253)" fill="#98c0f2"/>
          <path id="Trazado_3479" data-name="Trazado 3479" d="M1091.276,687.16a1.685,1.685,0,0,1-1.457-.171l-13.446-7.76c-.484-.279-.621-.656-.3-.842l8.914-5.149a1.7,1.7,0,0,1,1.457.173l13.446,7.759c.482.279.614.658.3.84Z" transform="translate(-943.556 -597.653)" fill="#98c0f2"/>
          <path id="Trazado_3480" data-name="Trazado 3480" d="M1127.825,708.234a1.688,1.688,0,0,1-1.457-.17l-13.454-7.764c-.484-.279-.618-.653-.295-.84l8.914-5.149a1.688,1.688,0,0,1,1.453.171l13.454,7.764c.48.277.614.658.3.84Z" transform="translate(-961.579 -608.045)" fill="#98c0f2"/>
          <path id="Trazado_3481" data-name="Trazado 3481" d="M1164.358,729.317a1.68,1.68,0,0,1-1.455-.17l-13.444-7.758c-.489-.282-.625-.658-.3-.845l8.914-5.149a1.7,1.7,0,0,1,1.461.175l13.444,7.758c.482.278.612.657.3.839Z" transform="translate(-979.599 -618.444)" fill="#98c0f2"/>
          <path id="Trazado_3482" data-name="Trazado 3482" d="M1200.9,750.4a1.684,1.684,0,0,1-1.455-.17l-13.454-7.764c-.48-.277-.613-.651-.29-.838l8.914-5.15a1.686,1.686,0,0,1,1.449.169l13.454,7.764c.48.277.612.657.3.839Z" transform="translate(-997.62 -628.844)" fill="#98c0f2"/>
          <path id="Trazado_3483" data-name="Trazado 3483" d="M997.226,604.921a1.69,1.69,0,0,1-1.466-.168l-13.449-7.761c-.478-.276-.61-.654-.285-.842L990.938,591a1.692,1.692,0,0,1,1.451.168l13.449,7.761c.485.28.616.659.3.842Z" transform="translate(-897.171 -557.095)" fill="#98c0f2"/>
          <path id="Trazado_3484" data-name="Trazado 3484" d="M1033.756,626a1.689,1.689,0,0,1-1.46-.165l-13.449-7.761c-.483-.279-.617-.658-.292-.846l8.912-5.149a1.7,1.7,0,0,1,1.458.173l13.449,7.761c.478.276.611.656.295.839Z" transform="translate(-915.187 -567.491)" fill="#98c0f2"/>
          <path id="Trazado_3485" data-name="Trazado 3485" d="M1070.3,647.091a1.693,1.693,0,0,1-1.467-.17l-13.447-7.76c-.48-.277-.612-.655-.287-.843l8.912-5.149a1.694,1.694,0,0,1,1.453.17l13.447,7.76c.487.281.618.66.3.843Z" transform="translate(-933.208 -577.891)" fill="#98c0f2"/>
          <path id="Trazado_3486" data-name="Trazado 3486" d="M1106.829,668.172a1.678,1.678,0,0,1-1.46-.165l-13.45-7.762c-.484-.28-.618-.658-.292-.846l8.912-5.149a1.7,1.7,0,0,1,1.458.173l13.45,7.761c.486.28.611.656.294.839Z" transform="translate(-951.225 -588.288)" fill="#98c0f2"/>
          <path id="Trazado_3487" data-name="Trazado 3487" d="M1143.382,689.248a1.685,1.685,0,0,1-1.457-.163l-13.45-7.762c-.487-.281-.616-.657-.29-.845l8.912-5.149a1.691,1.691,0,0,1,1.456.171l13.45,7.762c.476.275.608.654.291.837Z" transform="translate(-969.254 -598.684)" fill="#98c0f2"/>
          <path id="Trazado_3488" data-name="Trazado 3488" d="M1179.923,710.336a1.7,1.7,0,0,1-1.469-.17l-13.448-7.761c-.476-.275-.614-.656-.288-.844l8.912-5.149a1.7,1.7,0,0,1,1.454.171l13.448,7.76c.489.282.62.661.3.844Z" transform="translate(-987.272 -609.082)" fill="#98c0f2"/>
          <path id="Trazado_3489" data-name="Trazado 3489" d="M1216.457,731.419a1.69,1.69,0,0,1-1.461-.166l-13.45-7.761c-.484-.28-.615-.657-.291-.845l8.912-5.149a1.694,1.694,0,0,1,1.456.171l13.45,7.762c.48.277.612.656.3.839Z" transform="translate(-1005.292 -619.481)" fill="#98c0f2"/>
          <path id="Trazado_3490" data-name="Trazado 3490" d="M915.207,557.607a1.691,1.691,0,0,1-1.466-.169l-22.8-13.159c-.485-.28-.619-.659-.293-.846l8.912-5.149a1.7,1.7,0,0,1,1.459.173l22.8,13.16c.485.28.617.659.3.842Z" transform="translate(-852.103 -531.096)" fill="#98c0f2"/>
          <path id="Trazado_3491" data-name="Trazado 3491" d="M1268.1,733.263a1.694,1.694,0,0,1-1.463-.17l-22.8-13.16c-.476-.275-.615-.657-.293-.843l8.909-5.147a1.7,1.7,0,0,1,1.461.169l22.8,13.16c.484.28.618.658.295.844Z" transform="translate(-1026.151 -617.728)" fill="#98c0f2"/>
          <path id="Trazado_3492" data-name="Trazado 3492" d="M895.374,574.125a1.678,1.678,0,0,1-1.459-.172L866.73,558.265c-.486-.28-.622-.656-.3-.843l8.914-5.149a1.7,1.7,0,0,1,1.458.173l27.185,15.688c.49.282.616.659.3.841Z" transform="translate(-840.162 -537.995)" fill="#98c0f2"/>
          <path id="Trazado_3493" data-name="Trazado 3493" d="M862.1,582.885a1.7,1.7,0,0,1-1.462-.172l-18.126-10.46c-.485-.28-.616-.66-.3-.844l8.912-5.148a1.7,1.7,0,0,1,1.464.17l18.126,10.461c.485.279.615.66.3.845Z" transform="translate(-828.222 -544.893)" fill="#98c0f2"/>
          <path id="Trazado_3494" data-name="Trazado 3494" d="M966.6,559.307a1.694,1.694,0,0,1-1.466-.172l-13.44-7.756c-.484-.28-.618-.659-.3-.845l8.909-5.147a1.694,1.694,0,0,1,1.464.171l13.44,7.756c.491.283.621.659.3.846Z" transform="translate(-882.069 -534.598)" fill="#98c0f2"/>
          <path id="Trazado_3495" data-name="Trazado 3495" d="M1002.975,580.278a1.7,1.7,0,0,1-1.465-.171l-13.449-7.761c-.481-.278-.616-.658-.295-.844l8.909-5.147a1.7,1.7,0,0,1,1.463.17l13.449,7.761c.484.28.62.659.3.845Z" transform="translate(-900.004 -544.939)" fill="#98c0f2"/>
          <path id="Trazado_3496" data-name="Trazado 3496" d="M1039.507,601.36a1.677,1.677,0,0,1-1.458-.167l-13.449-7.761c-.481-.278-.614-.657-.292-.842l8.909-5.147a1.69,1.69,0,0,1,1.46.168l13.449,7.761c.486.281.613.655.29.841Z" transform="translate(-918.025 -555.339)" fill="#98c0f2"/>
          <path id="Trazado_3497" data-name="Trazado 3497" d="M1076.055,622.452a1.7,1.7,0,0,1-1.464-.17l-13.441-7.756c-.488-.281-.619-.66-.3-.846l8.909-5.147a1.692,1.692,0,0,1,1.465.171l13.441,7.756c.484.279.619.658.3.845Z" transform="translate(-936.049 -565.74)" fill="#98c0f2"/>
          <path id="Trazado_3498" data-name="Trazado 3498" d="M1112.582,643.531a1.675,1.675,0,0,1-1.456-.167l-13.446-7.759c-.487-.281-.619-.66-.3-.845l8.909-5.147a1.693,1.693,0,0,1,1.465.171l13.446,7.759c.487.281.612.654.289.841Z" transform="translate(-954.065 -576.136)" fill="#98c0f2"/>
          <path id="Trazado_3499" data-name="Trazado 3499" d="M1149.138,664.61a1.7,1.7,0,0,1-1.458-.168l-13.454-7.764c-.48-.277-.611-.655-.289-.841l8.909-5.147a1.683,1.683,0,0,1,1.456.167l13.454,7.764c.478.276.614.655.291.842Z" transform="translate(-972.092 -586.531)" fill="#98c0f2"/>
          <path id="Trazado_3500" data-name="Trazado 3500" d="M1185.672,685.692a1.7,1.7,0,0,1-1.463-.17l-13.448-7.761c-.486-.281-.621-.661-.3-.847l8.909-5.147a1.7,1.7,0,0,1,1.467.172l13.448,7.761c.485.279.618.658.295.844Z" transform="translate(-990.107 -596.927)" fill="#98c0f2"/>
          <path id="Trazado_3501" data-name="Trazado 3501" d="M1222.207,706.776a1.681,1.681,0,0,1-1.454-.165l-13.458-7.766c-.478-.276-.608-.654-.287-.84l8.909-5.147a1.684,1.684,0,0,1,1.454.165l13.458,7.766c.48.277.61.653.287.84Z" transform="translate(-1008.13 -607.328)" fill="#98c0f2"/>
          <path id="Trazado_3502" data-name="Trazado 3502" d="M1240.485,738.752a2.06,2.06,0,0,0-.788-.258,1.091,1.091,0,0,0-.661.09l-8.913,5.149a.307.307,0,0,0-.162.386.992.992,0,0,0,.446.455l3.511,2.026-11.687,6.751a.3.3,0,0,0-.152.388.969.969,0,0,0,.451.455l9.06,5.228a2.112,2.112,0,0,0,.792.262,1.1,1.1,0,0,0,.672-.088l21.186-12.239a.3.3,0,0,0,.149-.386.953.953,0,0,0-.453-.458Z" transform="translate(-1015.639 -629.879)" fill="#98c0f2"/>
          <path id="Trazado_3503" data-name="Trazado 3503" d="M866.658,584.333a.206.206,0,0,1-.14-.039l-10.281-5.933c-.056-.032-.087-.069-.068-.081l.65-.376c.019-.012.084.006.139.038l10.281,5.933c.057.033.088.069.068.081Z" transform="translate(-835.185 -550.683)" fill="#98c0f2"/>
        </g>
      </g>
    </g>
    <g id="Grupo_3616" data-name="Grupo 3616" transform="translate(623.018 179.108)">
      <path id="Trazado_3504" data-name="Trazado 3504" d="M1120.918,382.659l-82.729-47.778a7.824,7.824,0,0,1-3.46-7.555l7.718-44.85c.479-2.78,2.818-3.929,5.2-2.554l82.729,47.778a7.823,7.823,0,0,1,3.459,7.555l-7.718,44.85C1125.64,382.885,1123.3,384.035,1120.918,382.659Z" transform="translate(-1029.575 -279.341)" fill="#d9e9ff"/>
      <g id="Grupo_3615" data-name="Grupo 3615" transform="translate(6.223 12.104)">
        <g id="Grupo_3610" data-name="Grupo 3610">
          <g id="Grupo_3609" data-name="Grupo 3609">
            <ellipse id="Elipse_688" data-name="Elipse 688" cx="14.028" cy="21.124" rx="14.028" ry="21.124" transform="matrix(0.832, -0.555, 0.555, 0.832, 0, 15.577)" fill="#fff"/>
          </g>
        </g>
        <path id="Trazado_3505" data-name="Trazado 3505" d="M1077.8,353.673c1.418.878,3.5-.079,3.307-1.525a10.25,10.25,0,0,0-.892-3.353h0a7.651,7.651,0,0,0-1.182-1.385c-.409-.405-.936-.976-1.445-1.527-.17-.184-.342-.37-.511-.551h0l-1.022-1.157-.443-.611a1.513,1.513,0,0,1-.1-.141,1.849,1.849,0,0,1,.029-.211q.079-.672.159-1.345a1.767,1.767,0,0,0,1.1-1.232c.737.473,1.059-.36,1.234-.956.124-.423.371-1.5-.184-1.964.025-.066.05-.13.075-.184a4.5,4.5,0,0,0,.363-1.116,3.036,3.036,0,0,0-.083-1.36,1.1,1.1,0,0,0-.149-.324,1.264,1.264,0,0,0-.019-.5,6.417,6.417,0,0,0-1.882-3.369,5.794,5.794,0,0,0-2.778-1.413c-.688-.146-1.63-.157-1.816.852a.88.88,0,0,0,.021.39.268.268,0,0,0-.32.073,1.738,1.738,0,0,0-.434,1.04,6.721,6.721,0,0,0,0,1.344c.005.071.009.15.013.231-.706-.448-.768.864-.769,1.4a2.557,2.557,0,0,0,.726,2.14,4.746,4.746,0,0,0,.089.917,4.562,4.562,0,0,0,.46,1.25c0,.006-.007.008-.008.016q-.081.69-.163,1.381a1.419,1.419,0,0,1-.014.161c-.006-.033-.135.032-.168.042l-.354.1,0-.005-.308-.07v-.008l-.073-.02a5.86,5.86,0,0,0-.618-.13l-.025-.006v0c-.266-.043-.537-.075-.8-.1-.481-.055-.953-.2-1.425-.235a3.47,3.47,0,0,0-3.505,2.823,2.475,2.475,0,0,0,1.185,2.742Zm.074-14.039c-.018.058-.034.11-.047.151C1077.84,339.739,1077.856,339.688,1077.873,339.635Z" transform="translate(-1050.175 -316.124)" fill="#e655be"/>
        <g id="Grupo_3612" data-name="Grupo 3612" transform="translate(47.144 27.703)">
          <g id="Grupo_3611" data-name="Grupo 3611">
            <path id="Trazado_3506" data-name="Trazado 3506" d="M1153.981,371.812l-22.872-13.928-1.167,6.783,22.872,13.928Z" transform="translate(-1129.942 -357.884)" fill="#fff"/>
          </g>
        </g>
        <g id="Grupo_3614" data-name="Grupo 3614" transform="translate(45.109 39.528)">
          <g id="Grupo_3613" data-name="Grupo 3613">
            <path id="Trazado_3507" data-name="Trazado 3507" d="M1127.094,381.215,1125.927,388l34.7,21.133,1.167-6.783Z" transform="translate(-1125.927 -381.215)" fill="#fff"/>
          </g>
        </g>
      </g>
      <ellipse id="Elipse_689" data-name="Elipse 689" cx="18.142" cy="26.6" rx="18.142" ry="26.6" transform="matrix(0.825, -0.565, 0.565, 0.825, 0, 26.485)" fill="none" stroke="#fff" stroke-linecap="round" stroke-linejoin="round" stroke-width="1.551"/>
    </g>
    <g id="Grupo_3625" data-name="Grupo 3625" transform="translate(721.466 252.077)">
      <g id="Grupo_3617" data-name="Grupo 3617" transform="translate(63.053 119.252)">
        <path id="Trazado_3508" data-name="Trazado 3508" d="M1343.3,658.614" transform="translate(-1343.304 -658.614)" fill="none" stroke="#fff" stroke-miterlimit="10" stroke-width="2.256"/>
      </g>
      <path id="Trazado_3509" data-name="Trazado 3509" d="M1218.936,598.48l-.043-.027A.118.118,0,0,0,1218.936,598.48Z" transform="translate(-1218.893 -509.692)" fill="#ff619a"/>
      <path id="Trazado_3510" data-name="Trazado 3510" d="M1292.289,555.555l1.224-9.677a9.247,9.247,0,0,0-2.229-6.645,12.193,12.193,0,0,0-3-3.466c-5.422-4.332-17.842-13.9-25.569-18.15-10.579-5.818-23.851-9.141-33.656-4.656a12.48,12.48,0,0,0-5.047,3.326l-.011.01-.023.021a7.712,7.712,0,0,0-2.068,3.168,35.843,35.843,0,0,0-1.91,7.088C1212.369,557.661,1288.149,576.928,1292.289,555.555Z" transform="translate(-1219.174 -466.502)" fill="#d9e9ff"/>
      <path id="Trazado_3511" data-name="Trazado 3511" d="M1289.119,522.286l-27.442-2.785,6.527-13c9.155.537,15.164,3.632,22.106,8.885Z" transform="translate(-1239.994 -464.34)" fill="#1654c4"/>
      <path id="Trazado_3512" data-name="Trazado 3512" d="M1278.929,539.069a9.528,9.528,0,0,0,4.076.611l5.316,11.176-.418.322c-1.3,1-3.349.727-3.906-.521Z" transform="translate(-1248.502 -480.404)" fill="#b5d0f2" opacity="0.32"/>
      <path id="Trazado_3513" data-name="Trazado 3513" d="M1277.167,540.953a7.694,7.694,0,0,1-3.312-1.376l-12.111,5.671.051.418a2.14,2.14,0,0,0,3.125,1.365Z" transform="translate(-1240.026 -480.655)" fill="#b5d0f2" opacity="0.32"/>
      <path id="Trazado_3514" data-name="Trazado 3514" d="M1278.809,555.67a.866.866,0,0,1-1.454.584,2.384,2.384,0,0,1-1.012-2.176.865.865,0,0,1,1.453-.584A2.385,2.385,0,0,1,1278.809,555.67Z" transform="translate(-1247.217 -487.413)" fill="#2c1f9c"/>
      <path id="Trazado_3515" data-name="Trazado 3515" d="M1277.1,566.4a.866.866,0,0,1-1.453.584,2.385,2.385,0,0,1-1.012-2.177.865.865,0,0,1,1.453-.584A2.384,2.384,0,0,1,1277.1,566.4Z" transform="translate(-1246.372 -492.707)" fill="#2c1f9c"/>
      <path id="Trazado_3516" data-name="Trazado 3516" d="M1275.381,577.137a.866.866,0,0,1-1.453.584,2.386,2.386,0,0,1-1.013-2.176.866.866,0,0,1,1.453-.584A2.385,2.385,0,0,1,1275.381,577.137Z" transform="translate(-1245.526 -498)" fill="#2c1f9c"/>
      <path id="Trazado_3517" data-name="Trazado 3517" d="M1273.976,526.091s-7.461-.591-7-12.325l-4.872-1c-.764.435-2.147,0-3.437,3.837a16.052,16.052,0,0,0-.7,6.982l.786,6.768c.176,1.518,2.1,2.35,3.641,1.572Z" transform="translate(-1238.109 -467.433)" fill="#6ca4ff"/>
      <path id="Trazado_3518" data-name="Trazado 3518" d="M1275.032,537.8a7.7,7.7,0,0,1-3.312-1.376l-12.111,5.671.052.418a2.139,2.139,0,0,0,3.125,1.365Z" transform="translate(-1238.974 -479.102)" fill="#fcfeff"/>
      <path id="Trazado_3519" data-name="Trazado 3519" d="M1282.98,509.483l.73-23.924,14.257,7.694-.616,19.531C1297.515,516.023,1283.989,521.983,1282.98,509.483Z" transform="translate(-1250.5 -454.014)" fill="#ffc2b0"/>
      <path id="Trazado_3520" data-name="Trazado 3520" d="M1283.02,523.027c.139.615,8.238-1.1,8.125-1.868,0,0-4.054,4.166-8.127,5.255Z" transform="translate(-1250.519 -471.571)" fill="#d18b77"/>
      <path id="Trazado_3521" data-name="Trazado 3521" d="M1282.506,530.854s7.959,3.223,18.077-6.827l5.455,6.928c.338.98.12,1.2-.868,1.97l-13.083,10.416c-1.511,1.174-3.911.845-4.534-.622Z" transform="translate(-1250.266 -472.986)" fill="#6ca4ff"/>
      <path id="Trazado_3522" data-name="Trazado 3522" d="M1282.506,537.5a20.9,20.9,0,0,0,3.875.479l5.58,11.771-.419.322c-1.3,1-3.349.727-3.906-.521Z" transform="translate(-1250.266 -479.629)" fill="#fcfeff"/>
      <g id="Grupo_3618" data-name="Grupo 3618" transform="translate(15.944 3.236)">
        <path id="Trazado_3523" data-name="Trazado 3523" d="M1268.432,478.061l-6.589-.241c-7.792-.193-12.091-5.922-11.424-12.874l2.2-22.952c.667-6.951,7.588-12.481,15.379-12.288l5.059.125c7.792.193,13.621,6.038,12.954,12.99l-2.2,22.952C1283.144,472.724,1276.223,478.253,1268.432,478.061Z" transform="translate(-1250.352 -429.701)" fill="#ffc2b0"/>
      </g>
      <path id="Trazado_3524" data-name="Trazado 3524" d="M1269.694,444.806a26.665,26.665,0,0,1-18.182-.519c-6.05-2.534-9.52-9.472-3.991-13.339,2.989-2.091,10.492-4.361,16.5-6.127,17.046-5.009,33.385,2.763,31.789,19.39,0,0-1.537,22.811-16.8,25.353l-.516-3.377s6.625-4.61.572-9.272a8.245,8.245,0,0,1-2.787-7.429C1276.852,446.7,1272.683,443.769,1269.694,444.806Z" transform="translate(-1231.644 -423.317)" fill="#305dad"/>
      <ellipse id="Elipse_690" data-name="Elipse 690" cx="5.664" cy="4.07" rx="5.664" ry="4.07" transform="matrix(0.482, -0.876, 0.876, 0.482, 43.455, 38.664)" fill="#ffc2b0"/>
      <path id="Trazado_3525" data-name="Trazado 3525" d="M1280.551,492.309c-.052.975-.534,1.77-1.076,1.775s-.941-.781-.89-1.756.533-1.77,1.077-1.775S1280.6,491.333,1280.551,492.309Z" transform="translate(-1248.33 -456.476)" fill="#2c1f9c"/>
      <path id="Trazado_3526" data-name="Trazado 3526" d="M1261.2,482.05c-.027.975-.489,1.778-1.032,1.794s-.962-.761-.936-1.736.489-1.778,1.032-1.794S1261.224,481.075,1261.2,482.05Z" transform="translate(-1238.785 -451.427)" fill="#2c1f9c"/>
      <g id="Grupo_3620" data-name="Grupo 3620" transform="translate(30.021 29.183)">
        <g id="Grupo_3619" data-name="Grupo 3619">
          <path id="Trazado_3527" data-name="Trazado 3527" d="M1279.011,482.795a6.086,6.086,0,0,1,4.034,2.241c.808.949,2.516-.277,1.709-1.225a8.149,8.149,0,0,0-5.44-2.909c-1.361-.1-1.666,1.793-.3,1.892Z" transform="translate(-1278.128 -480.899)" fill="#2c1f9c"/>
        </g>
      </g>
      <g id="Grupo_3623" data-name="Grupo 3623" transform="translate(19.018 23.355)">
        <g id="Grupo_3622" data-name="Grupo 3622">
          <g id="Grupo_3621" data-name="Grupo 3621">
            <path id="Trazado_3528" data-name="Trazado 3528" d="M1257.3,471.3a5.33,5.33,0,0,1,3.713,1.984c.77.974,2.476-.255,1.708-1.225a7.414,7.414,0,0,0-5.119-2.652.96.96,0,1,0-.3,1.893Z" transform="translate(-1256.418 -469.399)" fill="#2c1f9c"/>
          </g>
        </g>
      </g>
      <g id="Grupo_3624" data-name="Grupo 3624" transform="translate(20.656 31.364)">
        <path id="Trazado_3529" data-name="Trazado 3529" d="M1261.728,493.433a2.192,2.192,0,0,1-1.8-.947c-.384-.621-.7-1.862,1.475-3.2a6.947,6.947,0,0,0,2.575-3.79.428.428,0,0,1,.48-.294.338.338,0,0,1,.3.41,7.624,7.624,0,0,1-2.929,4.255c-1.243.761-1.645,1.517-1.2,2.245.681,1.1,2.9.4,2.917.389a.393.393,0,0,1,.5.21.37.37,0,0,1-.266.459A6.025,6.025,0,0,1,1261.728,493.433Z" transform="translate(-1259.65 -485.201)" fill="#d18b77"/>
      </g>
      <path id="Trazado_3530" data-name="Trazado 3530" d="M1314.424,491.377s2.723-2.156,3.3.069-3.115,4.241-3.115,4.241,1.94-1.765.88-2.835S1314.424,491.377,1314.424,491.377Z" transform="translate(-1266.008 -456.421)" fill="#d18b77"/>
      <path id="Trazado_3531" data-name="Trazado 3531" d="M1257.906,502.408l6.956,3.4a.6.6,0,0,1,.337.729c-.339,1.042-1.529,3.207-5.367,1.608a5.154,5.154,0,0,1-3.077-5.119A.8.8,0,0,1,1257.906,502.408Z" transform="translate(-1237.566 -462.284)" fill="#fff"/>
    </g>
    <g id="Grupo_3628" data-name="Grupo 3628" transform="translate(585.204 131.731)">
      <g id="Grupo_3626" data-name="Grupo 3626">
        <path id="Trazado_3532" data-name="Trazado 3532" d="M993.894,251.2c-14.268-7.249-24.36-25.672-22.541-41.148s14.861-22.144,29.129-14.894,24.261,25.465,22.713,41.077C1021.494,253.4,1008.162,258.452,993.894,251.2Z" transform="translate(-960.443 -189.003)" fill="#a8c4e5" opacity="0.4" style="mix-blend-mode: multiply;isolation: isolate"/>
        <path id="Trazado_3533" data-name="Trazado 3533" d="M988.221,241.868c-13.551-6.885-23.135-24.381-21.407-39.078s14.113-21.03,27.664-14.145,23.041,24.185,21.571,39.01C1014.434,243.952,1001.772,248.753,988.221,241.868Z" transform="translate(-958.209 -185.862)" fill="#c43f9f"/>
        <path id="Trazado_3534" data-name="Trazado 3534" d="M971.64,249.123c-13.551-6.885-23.135-24.381-21.407-39.078S964.346,189.013,977.9,195.9s23.04,24.185,21.571,39.011C997.853,251.207,985.191,256.008,971.64,249.123Z" transform="translate(-950.032 -189.44)" fill="#e655be"/>
      </g>
      <g id="Grupo_3627" data-name="Grupo 3627" transform="translate(6.638 14.737)">
        <path id="Trazado_3535" data-name="Trazado 3535" d="M964.332,228.527l-1.177,6.622a1.5,1.5,0,0,0,.743,1.591l28.194,16.4a2.367,2.367,0,0,0,3.347-1.529l1.177-6.622a1.5,1.5,0,0,0-.743-1.591L967.68,227A2.368,2.368,0,0,0,964.332,228.527Z" transform="translate(-963.13 -220.757)" fill="#fcfeff"/>
        <path id="Trazado_3536" data-name="Trazado 3536" d="M981.476,249.839l5.952,3.463a2.368,2.368,0,0,0,3.348-1.53l5.6-31.517a1.5,1.5,0,0,0-.742-1.591l-5.952-3.463a2.367,2.367,0,0,0-3.348,1.529l-5.6,31.517A1.5,1.5,0,0,0,981.476,249.839Z" transform="translate(-971.799 -214.94)" fill="#fcfeff"/>
      </g>
    </g>
    <g id="Grupo_3633" data-name="Grupo 3633" transform="translate(616.687 238.919)">
      <path id="Trazado_3537" data-name="Trazado 3537" d="M1071.133,431.513a7.437,7.437,0,0,0-3.638-8.016l-44.344-25.616c-2.428-1.4-4.9.1-5.5,3.339l-5.365,29.035a6.9,6.9,0,0,0,3.374,7.433l40.731,23.529c3.717,2.147,9.356-.537,10.15-4.832Z" transform="translate(-1012.151 -397.355)" fill="#d9e9ff"/>
      <g id="Grupo_3629" data-name="Grupo 3629" transform="translate(33.949 32.309)">
        <path id="Trazado_3538" data-name="Trazado 3538" d="M1080.6,461.1l-1.46,7.9,15.032,9.228,1.461-7.9Z" transform="translate(-1079.136 -461.105)" fill="#fff"/>
      </g>
      <path id="Trazado_3539" data-name="Trazado 3539" d="M1045.362,428.829a6.261,6.261,0,0,0-5.257,1.4c-.391.3-1.007-.063-1.216-.713-.71-2.2-1.831-5.009-3.781-6.615-3.727-3.068-7.234-.744-6.94,4.325.189,6.079,8.014,19.879,8.014,19.879l.231.133s10.923-2.968,13.106-7.678C1051.449,435.78,1049.914,429.811,1045.362,428.829Z" transform="translate(-1020.042 -409.277)" fill="#e655be"/>
      <g id="Grupo_3632" data-name="Grupo 3632" transform="translate(11.871 21.868)">
        <g id="Grupo_3631" data-name="Grupo 3631">
          <g id="Grupo_3630" data-name="Grupo 3630">
            <path id="Trazado_3540" data-name="Trazado 3540" d="M1042.274,450.934l-.029-.017a1.437,1.437,0,0,1-.622-1.044l-.665-6.192-1.311,2.021a.612.612,0,0,1-.867.159l-2.909-1.681a.584.584,0,0,1-.286-.63h0a.95.95,0,0,1,1.325-.631l1.734,1,2.041-3.148a.612.612,0,0,1,.867-.158l.01.006a1.445,1.445,0,0,1,.64,1.053l.68,6.331,1.017-1.4a.612.612,0,0,1,.847-.129l3.136,1.811a.585.585,0,0,1,.286.631h0a.95.95,0,0,1-1.325.63l-1.98-1.143-1.742,2.4A.609.609,0,0,1,1042.274,450.934Zm-3.88-6.629v0Zm6.723,3.744h0Z" transform="translate(-1035.574 -440.503)" fill="#fff"/>
          </g>
        </g>
      </g>
    </g>
    <g id="Grupo_3634" data-name="Grupo 3634" transform="translate(376.793 404.143)">
      <path id="Trazado_3541" data-name="Trazado 3541" d="M666.486,749.13c-3.338-1.934-5.088-7.32-8.95-5.1L556.474,802.174c-2.009,1.156-3.078,2.621-3.18,4.034l-.017-.011.007.243c0,.065,0,.13.006.2l.146,5.149.005,0c-.516,1.575.15,3.168,2.076,4.284l55.725,32.287a11.969,11.969,0,0,0,6.321,1.3,16.353,16.353,0,0,0,1.773-.168,15.253,15.253,0,0,0,3.409-.911,12.219,12.219,0,0,0,1.532-.739l98.388-58.164a5.09,5.09,0,0,0-.084-8.811Z" transform="translate(-545.945 -733.295)" fill="#a8c4e5" opacity="0.29" style="mix-blend-mode: multiply;isolation: isolate"/>
      <path id="Trazado_3542" data-name="Trazado 3542" d="M711.876,778.994l-55.725-32.287c-3.338-1.934-9.174-1.7-13.035.52l-97.541,56.116c.867-2.388,1.75-4.938,1.75-4.938l-8.51,2.044.156,8.36c-.4,1.509.292,3.016,2.136,4.085l55.725,32.286c3.338,1.934,9.174,1.7,13.036-.52l101.062-58.142C714.79,784.3,715.214,780.928,711.876,778.994Z" transform="translate(-538.814 -734.228)" fill="#ebf1f7"/>
      <path id="Trazado_3543" data-name="Trazado 3543" d="M776.548,773.113l-10.757.958-47.229-27.364c-3.338-1.934-9.174-1.7-13.035.52l-40.166,67.014.2,32.237a14.955,14.955,0,0,0,6.714-1.818L773.34,786.518c2.21-1.272,3.289-2.919,3.185-4.458Z" transform="translate(-601.225 -734.228)" fill="#a8c9ed"/>
      <path id="Trazado_3544" data-name="Trazado 3544" d="M644.335,926.4c0,.969-.687,1.358-1.53.87a3.369,3.369,0,0,1-1.525-2.639c0-.969.687-1.358,1.53-.87A3.369,3.369,0,0,1,644.335,926.4Z" transform="translate(-589.349 -822.092)" fill="#2964d6"/>
      <path id="Trazado_3545" data-name="Trazado 3545" d="M596.89,826.687,541.166,794.4c-3.338-1.934-2.914-5.3.947-7.524l101.062-58.143c3.861-2.221,9.7-2.454,13.036-.521L711.935,760.5c3.338,1.934,2.914,5.3-.947,7.524L609.926,826.167C606.065,828.388,600.229,828.621,596.89,826.687Z" transform="translate(-538.864 -725.108)" fill="#fff"/>
      <path id="Trazado_3546" data-name="Trazado 3546" d="M596.89,823.146l-55.725-32.287c-3.338-1.934-2.914-5.3.947-7.524l101.062-58.142c3.861-2.222,9.7-2.454,13.036-.521l55.725,32.287c3.338,1.934,2.914,5.3-.947,7.524L609.926,822.625C606.065,824.847,600.229,825.079,596.89,823.146Z" transform="translate(-538.864 -723.361)" fill="#9fbadb"/>
      <path id="Trazado_3547" data-name="Trazado 3547" d="M813.609,764.029l-15.386-8.915c-.634-.367-.553-1.014.181-1.436h0a2.776,2.776,0,0,1,2.488-.1l15.387,8.915c.634.368.553,1.014-.181,1.436h0A2.777,2.777,0,0,1,813.609,764.029Z" transform="translate(-666.54 -738.141)" fill="#cfe4fe"/>
      <path id="Trazado_3548" data-name="Trazado 3548" d="M595.188,899.716l-12.359-7.161a2.289,2.289,0,0,1-.95-1.821h0c0-.7.43-1.022.954-.719l12.359,7.161a2.29,2.29,0,0,1,.95,1.821h0C596.14,899.7,595.711,900.019,595.188,899.716Z" transform="translate(-560.053 -805.497)" fill="#cfe4fe"/>
      <path id="Trazado_3549" data-name="Trazado 3549" d="M666.679,736.723,581.7,785.615a2.966,2.966,0,0,0-.008,5.138l51.505,29.842a2.966,2.966,0,0,0,2.966,0l84.983-48.892a2.966,2.966,0,0,0,.008-5.137l-51.505-29.842A2.967,2.967,0,0,0,666.679,736.723Z" transform="translate(-559.229 -729.756)" fill="#d9e9ff"/>
      <path id="Trazado_3550" data-name="Trazado 3550" d="M839.71,832.643h0a1.166,1.166,0,0,0,1.87.943l6.069-3.517a3.12,3.12,0,0,0,1.4-2.84h0a1.166,1.166,0,0,0-1.87-.943l-6.069,3.517A3.119,3.119,0,0,0,839.71,832.643Z" transform="translate(-687.204 -774.012)" fill="#e6f0ff"/>
      <path id="Trazado_3551" data-name="Trazado 3551" d="M840.684,833.724h0a1.166,1.166,0,0,0,1.87.943l6.069-3.517a3.118,3.118,0,0,0,1.4-2.84h0a1.166,1.166,0,0,0-1.87-.943l-6.069,3.517A3.12,3.12,0,0,0,840.684,833.724Z" transform="translate(-687.684 -774.545)" fill="#9fbadb"/>
      <path id="Trazado_3552" data-name="Trazado 3552" d="M817.99,845.494h0a1.166,1.166,0,0,0,1.87.943l6.069-3.517a3.12,3.12,0,0,0,1.4-2.84h0a1.166,1.166,0,0,0-1.87-.943l-6.069,3.517A3.119,3.119,0,0,0,817.99,845.494Z" transform="translate(-676.492 -780.35)" fill="#e6f0ff"/>
      <path id="Trazado_3553" data-name="Trazado 3553" d="M818.887,846.356h0a1.166,1.166,0,0,0,1.87.943l6.069-3.517a3.119,3.119,0,0,0,1.4-2.84h0a1.166,1.166,0,0,0-1.87-.943l-6.069,3.517A3.12,3.12,0,0,0,818.887,846.356Z" transform="translate(-676.934 -780.775)" fill="#9fbadb"/>
    </g>
    <g id="Grupo_3635" data-name="Grupo 3635" transform="translate(442.238 427.834)">
      <path id="Trazado_3554" data-name="Trazado 3554" d="M735.262,791.984c-11.841-7.1-31.226-7.423-43.3-.719s-12.257,17.9-.416,25,31.014,7.428,43.308.861C748.373,809.9,747.1,799.085,735.262,791.984Z" transform="translate(-675.265 -778.162)" fill="#a8c4e5" opacity="0.29" style="mix-blend-mode: multiply;isolation: isolate"/>
      <path id="Trazado_3555" data-name="Trazado 3555" d="M718.555,789.169c-11.246-6.744-29.656-7.05-41.12-.683s-11.641,17-.4,23.74,29.454,7.055,41.131.818C731.006,806.187,729.8,795.913,718.555,789.169Z" transform="translate(-668.327 -776.911)" fill="#1a93ff"/>
      <path id="Trazado_3556" data-name="Trazado 3556" d="M717.778,775.372c-11.246-6.744-29.656-7.05-41.12-.683s-11.64,17-.395,23.74,29.454,7.055,41.13.818C730.229,792.39,729.024,782.116,717.778,775.372Z" transform="translate(-667.944 -770.106)" fill="#4dabff"/>
    </g>
    <g id="Grupo_3636" data-name="Grupo 3636" transform="translate(455.902 432.821)">
      <path id="Trazado_3557" data-name="Trazado 3557" d="M726.237,783l-5.014-2.851a1.585,1.585,0,0,0-1.585.011l-23.95,14.04a1.585,1.585,0,0,0,.018,2.745l5.014,2.851a1.584,1.584,0,0,0,1.585-.01l23.95-14.041A1.585,1.585,0,0,0,726.237,783Z" transform="translate(-694.905 -779.946)" fill="#fcfeff"/>
      <path id="Trazado_3558" data-name="Trazado 3558" d="M700.786,780.514l-5.056,2.964a1.585,1.585,0,0,0,.018,2.745l23.866,13.571a1.585,1.585,0,0,0,1.585-.011l5.057-2.964a1.585,1.585,0,0,0-.018-2.745L702.371,780.5A1.585,1.585,0,0,0,700.786,780.514Z" transform="translate(-694.925 -780.119)" fill="#fcfeff"/>
    </g>
    <g id="Grupo_3639" data-name="Grupo 3639" transform="translate(555.062 385.686)">
      <path id="Trazado_3559" data-name="Trazado 3559" d="M1147.835,708.515l-11.079-5.646a4.57,4.57,0,0,1-1.327-1.025A46.536,46.536,0,0,0,1118.043,703c-2.521,1.132-5.118,2.564-7.957,4.2l-10.347,6.245c-.01.007-.018.015-.028.022l-33.3,20.266c-9.645,5.512-13.808,9.013-9.518,13.469,1.628-2.2,5.158-4.524,10.181-7.394l33.3-20.266c.011-.006.019-.015.029-.022l10.347-6.245c8.921-5.129,15.468-8.323,24.728-6.209a4.591,4.591,0,0,0,1.942,1.882l11.079,5.646a4.622,4.622,0,0,0,5.214-7.535A4.639,4.639,0,0,1,1147.835,708.515Z" transform="translate(-971.76 -694.124)" fill="#a8c4e5" opacity="0.4" style="mix-blend-mode: multiply;isolation: isolate"/>
      <path id="Trazado_3560" data-name="Trazado 3560" d="M1191.411,771.466l.618-.254,7.072-4.223c9.077-8.01,4.606-16.125,2.259-21.354-.737,3.308,1.7,11.3-2.663,13.862l-7.331,5.641-.618.254a1.852,1.852,0,0,1-.452.378l-41.538,24.6c-10.338,6.065-23.351,7.907-38.731-2.741a13.859,13.859,0,0,1-9.951-.829l-12.91-7.9c-1.519,1.036-3.088,2.179-4.554,3.293l11.264,6.883,6.863,3.8a13.86,13.86,0,0,0,9.951.829c15.38,10.648,28.393,8.805,38.731,2.741l41.538-24.6A1.858,1.858,0,0,0,1191.411,771.466Z" transform="translate(-985.276 -715.889)" fill="#a8c4e5" opacity="0.4" style="mix-blend-mode: multiply;isolation: isolate"/>
      <path id="Trazado_3561" data-name="Trazado 3561" d="M1070.19,793.2c-2.66-1.471-3.32-3.707-1.961-5.568-4.344-2.346-6.976-4.724-8.29-7.06-1.345,4.161.75,8.7,8.954,13.135-1.359,1.86-.7,4.1,1.961,5.568l.2.109c1.447-1.116,2.906-2.214,4.386-3.281Z" transform="translate(-973.909 -733.118)" fill="#a8c4e5" opacity="0.4" style="mix-blend-mode: multiply;isolation: isolate"/>
      <path id="Trazado_3562" data-name="Trazado 3562" d="M1282.8,737.066a4.609,4.609,0,0,1-3.638-.231l-11.079-5.646a4.578,4.578,0,0,1-1.014-.708,4.533,4.533,0,0,0-.345.561,4.639,4.639,0,0,0,2.021,6.222l11.079,5.646a4.61,4.61,0,0,0,3.637.231,16.072,16.072,0,0,1,2.76,2.7C1287.766,743.158,1287.021,740.415,1282.8,737.066Z" transform="translate(-1075.832 -708.415)" fill="#a8c4e5" opacity="0.4" style="mix-blend-mode: multiply;isolation: isolate"/>
      <path id="Trazado_3563" data-name="Trazado 3563" d="M1262.115,768.888c.4-.163,20.457-11.9,20.457-11.9,4.364-2.56,6.9-5.759,7.636-9.067,1.068-4.794-1.644-9.819-8.054-13.461l-1.556-.884a4.594,4.594,0,0,1-2.832,5.845c4.22,3.349,4.965,6.092,3.422,8.775s-5.4,5.325-10.352,8.451l-12.945,7.4S1263.72,767.036,1262.115,768.888Z" transform="translate(-1071.722 -709.94)" fill="#fff"/>
      <path id="Trazado_3564" data-name="Trazado 3564" d="M1143.972,806.734l-3.009,1.813a9.952,9.952,0,0,1-2.319.989c15.38,10.648,28.394,8.805,38.732,2.74,0,0,28.382-16.788,28.5-16.928,1.606-1.852-1.79-6.361-4.164-4.934l-22.947,13.335c-12.572,7.982-18.985,9.81-32.975,1.332A5.669,5.669,0,0,1,1143.972,806.734Z" transform="translate(-1012.911 -737.838)" fill="#699efc"/>
      <path id="Trazado_3565" data-name="Trazado 3565" d="M1081.327,792.262a56.536,56.536,0,0,1-5.332-2.5c-1.359,1.86-.7,4.1,1.961,5.568l5.246,2.9c3.09-2.229,4.385-.087,2.35,1.3l11.9,6.587a13.86,13.86,0,0,0,9.951.83,9.953,9.953,0,0,0,2.319-.989l3.009-1.813a5.667,5.667,0,0,0,1.822-1.654c1.227-1.832.528-4-2.066-5.43l-19.5-10.789a13.82,13.82,0,0,0-9.554-.942c1.814,1.04,4,2.15,6.581,3.355Z" transform="translate(-981.675 -735.25)" fill="#699efc"/>
      <path id="Trazado_3566" data-name="Trazado 3566" d="M1138.935,707.523l10.347-6.245c2.839-1.632,5.435-3.065,7.957-4.2,5.4-2.425,10.457-3.454,16.77-2.013a4.6,4.6,0,0,1,.458-5.16c-9.249-1.219-19.338.325-26.273,4.614l-13.514,8.209C1137.486,700.921,1140.385,706.542,1138.935,707.523Z" transform="translate(-1010.957 -688.206)" fill="#fff"/>
      <path id="Trazado_3567" data-name="Trazado 3567" d="M1067.583,753.136a56.564,56.564,0,0,0,5.332,2.5l8.691-3.576c-2.583-1.2-4.767-2.315-6.58-3.355a24.213,24.213,0,0,1-5.338-3.852c-4.289-4.456-.127-7.957,9.518-13.469l20.014-12.179,5.186-3.174c1.449-.981-1.029-6.869-3.834-5.059l-33.226,19.876c-6.672,4.126-11.247,9.552-8.053,15.227C1060.607,748.411,1063.239,750.789,1067.583,753.136Z" transform="translate(-973.263 -698.625)" fill="#699efc"/>
      <path id="Trazado_3568" data-name="Trazado 3568" d="M1211.716,693.805a4.643,4.643,0,0,0,.615.857,4.568,4.568,0,0,0,1.327,1.025l11.079,5.646a4.67,4.67,0,0,0,6.222-2.021h0a4.639,4.639,0,0,0-2.021-6.222l-11.079-5.646a4.622,4.622,0,0,0-6.143,6.361Z" transform="translate(-1048.663 -686.943)" fill="#699efc"/>
      <path id="Trazado_3569" data-name="Trazado 3569" d="M1276.693,730.646a4.626,4.626,0,0,0,4.2-8.243l-11.08-5.646a4.622,4.622,0,0,0-5.214,7.535,4.59,4.59,0,0,0,1.013.708Z" transform="translate(-1074.287 -701.399)" fill="#699efc"/>
      <ellipse id="Elipse_691" data-name="Elipse 691" cx="10.041" cy="17.392" rx="10.041" ry="17.392" transform="translate(43.509 48.199) rotate(-89.69)" fill="#a8c4e5" opacity="0.4" style="mix-blend-mode: multiply;isolation: isolate"/>
      <ellipse id="Elipse_692" data-name="Elipse 692" cx="10.041" cy="17.392" rx="10.041" ry="17.392" transform="translate(40.993 44.591) rotate(-89.69)" fill="#6d9cd6"/>
      <g id="Grupo_3638" data-name="Grupo 3638" transform="translate(40.684 17.224)">
        <g id="Grupo_3637" data-name="Grupo 3637" transform="translate(0 0)">
          <ellipse id="Elipse_693" data-name="Elipse 693" cx="10.041" cy="17.392" rx="10.041" ry="17.392" transform="matrix(0.005, -1, 1, 0.005, 0, 20.082)" fill="#fff"/>
        </g>
      </g>
      <ellipse id="Elipse_694" data-name="Elipse 694" cx="5.371" cy="9.303" rx="5.371" ry="9.303" transform="translate(49.107 31.938) rotate(-89.692)" fill="#699efc"/>
      <path id="Trazado_3570" data-name="Trazado 3570" stroke="#699efc" d="M1001.82,771.306,985.1,780.75a84.459,84.459,0,0,0-23.534,20.877c-4.317,5.525-15.722,22.208-31.584,24.334-10.259,1.375-25.276-6.407-36.526-15.346C879.9,799.842,918.034,786.6,922.6,769.678c4.03-14.928,27.737-28.394,27.737-28.394" fill="none" transform="translate(-890.559 -713.743)" stroke-linecap="round" stroke-linejoin="round" stroke-width="11.911" opacity="0.996"/>
    </g>
    <g id="Grupo_3642" data-name="Grupo 3642" transform="translate(785.292 269.527)">
      <path id="Trazado_3571" data-name="Trazado 3571" d="M1396.594,499.623l31.544,14.724a2.752,2.752,0,0,1,1.391,2.989l-4.053,17.794.144,7.077-7.628-7.47-26.57-12.4a2.751,2.751,0,0,1-1.391-2.989l4.209-18.481A1.642,1.642,0,0,1,1396.594,499.623Z" transform="translate(-1367.091 -478.316)" fill="#699eff" opacity="0.71"/>
      <g id="Grupo_3640" data-name="Grupo 3640">
        <path id="Trazado_3572" data-name="Trazado 3572" d="M1389.14,474.147l-32.729-16.191a1.634,1.634,0,0,0-2.425,1.154l-4.053,17.794-5.1,9.123,11.57-2.807,27.569,13.638a1.634,1.634,0,0,0,2.425-1.154l4.209-18.481A2.894,2.894,0,0,0,1389.14,474.147Z" transform="translate(-1344.828 -457.749)" fill="#fff"/>
      </g>
      <g id="Grupo_3641" data-name="Grupo 3641" transform="translate(14.669 15.035)">
        <path id="Trazado_3573" data-name="Trazado 3573" d="M1378.967,491.407c-.3,1.329-1.7,1.837-3.116,1.136a3.574,3.574,0,0,1-2.021-3.677c.3-1.329,1.7-1.837,3.116-1.135A3.573,3.573,0,0,1,1378.967,491.407Z" transform="translate(-1373.772 -487.415)" fill="#699eff"/>
        <path id="Trazado_3574" data-name="Trazado 3574" d="M1394.55,499.254c-.3,1.329-1.7,1.837-3.116,1.136a3.573,3.573,0,0,1-2.021-3.677c.3-1.329,1.7-1.837,3.116-1.135A3.573,3.573,0,0,1,1394.55,499.254Z" transform="translate(-1381.457 -491.285)" fill="#699eff"/>
        <path id="Trazado_3575" data-name="Trazado 3575" d="M1410.133,507.1c-.3,1.329-1.7,1.837-3.117,1.135a3.573,3.573,0,0,1-2.02-3.676c.3-1.329,1.7-1.837,3.116-1.136A3.574,3.574,0,0,1,1410.133,507.1Z" transform="translate(-1389.143 -495.156)" fill="#699eff"/>
      </g>
    </g>
    <g id="Grupo_3666" data-name="Grupo 3666" transform="translate(383.21 262.146)">
      <ellipse id="Elipse_695" data-name="Elipse 695" cx="20.245" cy="10.058" rx="20.245" ry="10.058" transform="translate(0 130.252) rotate(-1.016)" fill="#a8c4e5" opacity="0.4" style="mix-blend-mode: multiply;isolation: isolate"/>
      <path id="Trazado_3576" data-name="Trazado 3576" d="M560.2,704.658l4.81-.6c3.219-1.459,4.723-2.554,6.156-1.727l.406.235c1.433.828,1.252,2.287-.4,3.242l-7.071,5.618a4.667,4.667,0,0,1-5.207-.506s-.791-.714-.225-3.719C558.993,705.485,558.88,705.423,560.2,704.658Z" transform="translate(-554.922 -570.85)" fill="#305dad"/>
      <path id="Trazado_3577" data-name="Trazado 3577" d="M566.944,633.692c-.352,3.042-5.929,3.042-5.929.724l3.09-70.25,18.6-5.244Z" transform="translate(-556.179 -500.264)" fill="#ffc2b0"/>
      <path id="Trazado_3578" data-name="Trazado 3578" d="M597.047,719.6l5.121.964c3.774-.434,5.674-1.061,6.869.258l.339.373c1.195,1.319.529,2.752-1.479,3.186l-9.085,3.425a5.017,5.017,0,0,1-5.162-2.23s-.575-.991.993-3.881C595.535,720.052,595.44,719.952,597.047,719.6Z" transform="translate(-572.223 -579.511)" fill="#305dad"/>
      <path id="Trazado_3579" data-name="Trazado 3579" d="M592.916,653.192c-.972,2.458-5.23,1.921-5.158-.1,1.99-24.343-2.591-47.332-8.495-69.7l17.863-1.931C597.823,607.637,597.589,630.069,592.916,653.192Z" transform="translate(-565.179 -511.381)" fill="#ffc2b0"/>
      <path id="Trazado_3580" data-name="Trazado 3580" d="M588.022,579.668l2.525,34.526s-9.844,13.981-27.5-1.042l.081-31.442Z" transform="translate(-557.181 -510.496)" fill="#2e68d1"/>
      <path id="Trazado_3581" data-name="Trazado 3581" d="M602.88,479.93l-14.428,13.762s5.8,3.868,6.626,3.861S605.8,485.509,605.8,485.509Z" transform="translate(-569.711 -461.307)" fill="#ffc2b0"/>
      <path id="Trazado_3582" data-name="Trazado 3582" d="M614.588,473.569l.608-2.239a3.252,3.252,0,0,1,3.978-2.281h0a3.252,3.252,0,0,1,2.281,3.979l-.608,2.239a3.252,3.252,0,0,1-3.978,2.281h0A3.252,3.252,0,0,1,614.588,473.569Z" transform="translate(-582.545 -455.885)" fill="#ffc2b0"/>
      <g id="Grupo_3665" data-name="Grupo 3665" transform="translate(21.234)">
        <path id="Trazado_3583" data-name="Trazado 3583" d="M593.746,497.184l35.487,18.8a1.761,1.761,0,0,0,2.159-.986l19.646-52.183a.881.881,0,0,0-.336-1.077L615.178,443.3a1.761,1.761,0,0,0-2.159.986l-19.582,51.932A.731.731,0,0,0,593.746,497.184Z" transform="translate(-593.371 -443.185)" fill="#305dad"/>
        <g id="Grupo_3664" data-name="Grupo 3664" transform="translate(12.806 6.898)">
          <g id="Grupo_3663" data-name="Grupo 3663">
            <path id="Trazado_3584" data-name="Trazado 3584" d="M647.127,514.069l1.027.544c.755.4,1.683-.113,2.072-1.146l.088-.232-3.539-1.875-.2.536A1.77,1.77,0,0,0,647.127,514.069Z" transform="translate(-632.344 -483.706)" fill="#5abddc"/>
            <path id="Trazado_3585" data-name="Trazado 3585" d="M644.152,521.957l1.027.544c.755.4,1.683-.113,2.072-1.146l.088-.232-3.539-1.875-.2.536A1.769,1.769,0,0,0,644.152,521.957Z" transform="translate(-630.877 -487.597)" fill="#5abddc"/>
            <path id="Trazado_3586" data-name="Trazado 3586" d="M650.1,506.18l1.027.544c.755.4,1.683-.113,2.072-1.146l.087-.232-3.539-1.875-.2.536A1.769,1.769,0,0,0,650.1,506.18Z" transform="translate(-633.811 -479.816)" fill="#5abddc"/>
            <path id="Trazado_3587" data-name="Trazado 3587" d="M653.076,498.292l1.027.544c.755.4,1.683-.113,2.072-1.146l.088-.232-3.539-1.875-.2.536A1.77,1.77,0,0,0,653.076,498.292Z" transform="translate(-635.278 -475.925)" fill="#5abddc"/>
            <path id="Trazado_3588" data-name="Trazado 3588" d="M656.05,490.4l1.027.544c.755.4,1.683-.113,2.072-1.146l.087-.232L655.7,487.7l-.2.536A1.769,1.769,0,0,0,656.05,490.4Z" transform="translate(-636.745 -472.035)" fill="#5abddc"/>
            <path id="Trazado_3589" data-name="Trazado 3589" d="M658.694,481.439l1.026.544c.774.411,1.726-.116,2.125-1.175l.77-2.041-3.539-1.875-.92,2.44A1.716,1.716,0,0,0,658.694,481.439Z" transform="translate(-638.06 -466.706)" fill="#5abddc"/>
            <path id="Trazado_3590" data-name="Trazado 3590" d="M640.425,530.032l1.249.662c.919.487,2.048-.138,2.521-1.395l.106-.282L640,526.736l-.246.652A2.153,2.153,0,0,0,640.425,530.032Z" transform="translate(-628.964 -491.289)" fill="#5abddc"/>
            <path id="Trazado_3591" data-name="Trazado 3591" d="M636.97,538.039l1.391.737c1.023.542,2.28-.153,2.808-1.553l.119-.314-4.794-2.54-.274.726A2.4,2.4,0,0,0,636.97,538.039Z" transform="translate(-627.213 -495.054)" fill="#5abddc"/>
            <path id="Trazado_3592" data-name="Trazado 3592" d="M633.653,546.837l1.391.737c1.023.542,2.28-.154,2.808-1.553l.119-.314-4.795-2.54-.274.726A2.4,2.4,0,0,0,633.653,546.837Z" transform="translate(-625.577 -499.393)" fill="#5abddc"/>
            <path id="Trazado_3593" data-name="Trazado 3593" d="M629.818,554.64l1.682.891c1.237.655,2.757-.185,3.395-1.877l.143-.38-5.8-3.071-.331.878A2.9,2.9,0,0,0,629.818,554.64Z" transform="translate(-623.588 -502.863)" fill="#5abddc"/>
            <g id="Grupo_3643" data-name="Grupo 3643" transform="translate(9.308)">
              <path id="Trazado_3594" data-name="Trazado 3594" d="M647.321,463.055a6.075,6.075,0,0,1-2.213-.562c-2.963-1.81-3.392-4.132-5.757-5.5a1.2,1.2,0,0,0-1.6.268,3.014,3.014,0,0,0-.742,2.052,1.924,1.924,0,0,0,.643,1.282h0c1.393,1.394,3.263,1.959,5.055,2.623a8.674,8.674,0,0,1,2.547,1.2c.423.345.8,1.3,1.473,1.17.336-.067.666-.466.884-.959C648.008,463.728,647.781,463.078,647.321,463.055Z" transform="translate(-637.004 -456.795)" fill="#5abddc"/>
            </g>
            <g id="Grupo_3644" data-name="Grupo 3644" transform="translate(26.536 10.438)">
              <path id="Trazado_3595" data-name="Trazado 3595" d="M672.313,477.572a7.2,7.2,0,0,0,1.829,1.58c3.114,1.409,4.86.239,7.3,1.414a1.612,1.612,0,0,1,.9,1.592,2.963,2.963,0,0,1-.8,2.023,1.359,1.359,0,0,1-1.235.287h0c-1.805-.3-3.408-1.575-5.021-2.716a8.977,8.977,0,0,0-2.453-1.449c-.5-.144-1.354.16-1.718-.522a2,2,0,0,1,.013-1.42C671.432,477.414,671.993,477.181,672.313,477.572Z" transform="translate(-670.996 -477.391)" fill="#5abddc"/>
            </g>
            <g id="Grupo_3645" data-name="Grupo 3645" transform="translate(0 8.61)">
              <path id="Trazado_3596" data-name="Trazado 3596" d="M631.222,474.533a13.745,13.745,0,0,0-7.986,7.673,46.627,46.627,0,0,0-3.618,11.688,23.125,23.125,0,0,0-.233,6.251c.175,1.862,1.139,3.865,3.3,3.242.857-.247,1.433-1.539,1.97-2.3,1.418-2.009,2.532-3.541,4.623-4.509.395-.182.629.545.235.727-2.507,1.161-3.412,3.392-5.217,5.517-.775.912-1.853,1.973-3.036,1.847-2.762-.294-2.635-4.95-2.616-7.221a40.414,40.414,0,0,1,3.347-15.885c1.962-4.294,5.217-6.272,9-7.756.4-.158.637.569.235.727Z" transform="translate(-618.638 -473.784)" fill="#5abddc"/>
            </g>
            <g id="Grupo_3646" data-name="Grupo 3646" transform="translate(9.208 9.924)">
              <path id="Trazado_3597" data-name="Trazado 3597" d="M643.432,482.546c-3.01-.565-4.748-2.255-6.583-5.054-.259-.4.753-1.446.965-1.013,1.3,2.662,2.856,4.761,5.717,5.3.418.078.319.848-.1.77Z" transform="translate(-636.808 -476.376)" fill="#5abddc"/>
            </g>
            <g id="Grupo_3647" data-name="Grupo 3647" transform="translate(5.966 12.441)">
              <path id="Trazado_3598" data-name="Trazado 3598" d="M638.947,488.521a13.407,13.407,0,0,1-8.5-5.881c-.266-.39.9-1.648,1.094-1.205,1.152,2.606,4.269,5.674,7.5,6.316.418.083.318.853-.1.77Z" transform="translate(-630.409 -481.342)" fill="#5abddc"/>
            </g>
            <g id="Grupo_3648" data-name="Grupo 3648" transform="translate(3.292 16.645)">
              <path id="Trazado_3599" data-name="Trazado 3599" d="M634.925,495.517a13.816,13.816,0,0,1-9.7-4.592c-.3-.343.267-1.573.574-1.226,2.526,2.841,5.784,4.882,9.23,5.049.422.02.319.79-.1.769Z" transform="translate(-625.134 -489.638)" fill="#5abddc"/>
            </g>
            <g id="Grupo_3649" data-name="Grupo 3649" transform="translate(2.046 19.571)">
              <path id="Trazado_3600" data-name="Trazado 3600" d="M633.314,502.012c-3.783-.147-8.2-1.278-10.584-5.078-.252-.4.437-1.855.69-1.452a12.7,12.7,0,0,0,9.994,5.76c.422.017.318.786-.1.77Z" transform="translate(-622.676 -495.412)" fill="#5abddc"/>
            </g>
            <g id="Grupo_3650" data-name="Grupo 3650" transform="translate(0.699 24.716)">
              <path id="Trazado_3601" data-name="Trazado 3601" d="M631.163,510.213a14.609,14.609,0,0,1-11.046-2.937c-.353-.273.311-1.955.662-1.684,3.01,2.322,6.759,4.436,10.312,3.848.42-.069.49.7.072.774Z" transform="translate(-620.017 -505.562)" fill="#5abddc"/>
            </g>
            <g id="Grupo_3651" data-name="Grupo 3651" transform="translate(0.408 28.614)">
              <path id="Trazado_3602" data-name="Trazado 3602" d="M629.83,516.794c-3.522.619-7.2.416-10.231-1.9-.354-.27-.036-1.878.316-1.609a12.928,12.928,0,0,0,9.844,2.735c.419-.074.489.7.071.774Z" transform="translate(-619.444 -513.254)" fill="#5abddc"/>
            </g>
            <g id="Grupo_3652" data-name="Grupo 3652" transform="translate(0.014 32.748)">
              <path id="Trazado_3603" data-name="Trazado 3603" d="M626.14,523.567a10.19,10.19,0,0,1-3.646.754,7.766,7.766,0,0,1-3.624-1.494c-.37-.237-.194-1.628.178-1.39,1,.637,2.071,1.684,3.217,1.81a8.835,8.835,0,0,0,3.641-.408c.4-.132.643.594.235.727Z" transform="translate(-618.666 -521.411)" fill="#5abddc"/>
            </g>
            <g id="Grupo_3653" data-name="Grupo 3653" transform="translate(17.36 18.368)">
              <path id="Trazado_3604" data-name="Trazado 3604" d="M666.087,493.551a18.071,18.071,0,0,1,.5,12.171,44.571,44.571,0,0,1-4.934,10.99,18.25,18.25,0,0,1-3.773,4.375c-1.287,1.087-3.189,1.572-4.24-.754-.416-.921.011-2.292.131-3.273.317-2.592.537-4.6-.249-7.09-.148-.47-.762-.192-.614.278.943,2.989.144,5.276.012,8.287-.057,1.293,0,2.953.864,3.914,2.027,2.243,4.869-.975,6.284-2.506a36,36,0,0,0,7.752-13.551c1.39-4.6.463-8.791-1.125-13.118-.168-.459-.783-.183-.614.278Z" transform="translate(-652.891 -493.037)" fill="#5abddc"/>
            </g>
            <g id="Grupo_3654" data-name="Grupo 3654" transform="translate(24.037 19.812)">
              <path id="Trazado_3605" data-name="Trazado 3605" d="M666.185,496.578c2.362,2.282,4.584,2.689,7.567,2.443.422-.035.407-1.63-.007-1.528-2.542.625-4.9.653-7.143-1.516-.328-.317-.746.284-.418.6Z" transform="translate(-666.066 -495.887)" fill="#5abddc"/>
            </g>
            <g id="Grupo_3655" data-name="Grupo 3655" transform="translate(22.706 23.34)">
              <path id="Trazado_3606" data-name="Trazado 3606" d="M663.56,503.537a12.309,12.309,0,0,0,9.365,3.583c.423-.024.437-1.892.028-1.77a10.107,10.107,0,0,1-8.975-2.414c-.331-.313-.749.287-.418.6Z" transform="translate(-663.439 -502.849)" fill="#5abddc"/>
            </g>
            <g id="Grupo_3656" data-name="Grupo 3656" transform="translate(21.849 26.51)">
              <path id="Trazado_3607" data-name="Trazado 3607" d="M661.847,509.813a14.272,14.272,0,0,0,9.359,5.509c.419.04.811-1.285.388-1.326a13.618,13.618,0,0,1-9.329-4.783c-.295-.359-.71.245-.418.6Z" transform="translate(-661.748 -509.103)" fill="#5abddc"/>
            </g>
            <g id="Grupo_3657" data-name="Grupo 3657" transform="translate(19.823 29.293)">
              <path id="Trazado_3608" data-name="Trazado 3608" d="M657.85,515.306c2.616,3.243,6.274,6.393,10.251,5.961.421-.046.875-1.624.453-1.578-3.8.413-7.794-1.893-10.286-4.983-.292-.362-.707.243-.418.6Z" transform="translate(-657.752 -514.594)" fill="#5abddc"/>
            </g>
            <g id="Grupo_3658" data-name="Grupo 3658" transform="translate(18.415 32.26)">
              <path id="Trazado_3609" data-name="Trazado 3609" d="M655.031,521.066a17.054,17.054,0,0,0,9.214,7.8c.407.13,1.022-1.579.617-1.708-3.468-1.11-7.3-3.011-9.3-6.541-.236-.417-.769.038-.534.454Z" transform="translate(-654.972 -520.447)" fill="#5abddc"/>
            </g>
            <g id="Grupo_3659" data-name="Grupo 3659" transform="translate(17.365 35.045)">
              <path id="Trazado_3610" data-name="Trazado 3610" d="M652.959,526.564c1.959,3.524,4.539,6.635,8.018,7.768.406.132,1.2-1.221.8-1.353a15,15,0,0,1-8.285-6.869c-.233-.42-.766.036-.534.453Z" transform="translate(-652.902 -525.944)" fill="#5abddc"/>
            </g>
            <g id="Grupo_3660" data-name="Grupo 3660" transform="translate(17.862 39.915)">
              <path id="Trazado_3611" data-name="Trazado 3611" d="M653.918,536.057a14.659,14.659,0,0,0,1.958,3.723,8.341,8.341,0,0,0,3.356,2.2c.4.168,1.153-.915.755-1.085-1.064-.454-2.44-.706-3.283-1.633a12.414,12.414,0,0,1-2.172-3.487.338.338,0,1,0-.613.278Z" transform="translate(-653.883 -535.553)" fill="#5abddc"/>
            </g>
            <g id="Grupo_3661" data-name="Grupo 3661" transform="translate(5.488 4.376)">
              <path id="Trazado_3612" data-name="Trazado 3612" d="M629.671,469.208a1.245,1.245,0,0,1-.2-.868,5.279,5.279,0,0,1,.552-1.809c.538-1.056,1.015-1.161,1.324-1.081h0l2.367.611c.269.069,1.59.2.308,2.511a3.008,3.008,0,0,1-2.5,1.291A1.7,1.7,0,0,1,629.671,469.208Z" transform="translate(-629.467 -465.43)" fill="#5abddc"/>
            </g>
            <g id="Grupo_3662" data-name="Grupo 3662" transform="translate(33.81 18.363)">
              <path id="Trazado_3613" data-name="Trazado 3613" d="M687.917,499.076a.879.879,0,0,0,.678-.4,5,5,0,0,0,.769-1.693c.3-1.18.052-1.67-.2-1.891h0l-1.963-1.684c-.222-.191-1.185-1.273-1.783,1.4a4.279,4.279,0,0,0,.858,3.072C686.7,498.648,687.231,499.108,687.917,499.076Z" transform="translate(-685.35 -493.028)" fill="#5abddc"/>
            </g>
            <path id="Trazado_3614" data-name="Trazado 3614" d="M654.632,487.819l4.4,2.328c.118.063.265-.018.325-.18h0a.333.333,0,0,0-.1-.408l-4.4-2.329c-.118-.062-.265.019-.326.18h0A.334.334,0,0,0,654.632,487.819Z" transform="translate(-636.325 -471.795)" fill="#5abddc"/>
            <path id="Trazado_3615" data-name="Trazado 3615" d="M663.793,469.867l1.027.544c.755.4,1.683-.113,2.072-1.146l.088-.232-3.539-1.875-.2.536A1.77,1.77,0,0,0,663.793,469.867Z" transform="translate(-640.564 -461.906)" fill="#5abddc"/>
            <path id="Trazado_3616" data-name="Trazado 3616" d="M662.376,467.282l4.4,2.329c.118.062.265-.018.326-.18h0a.333.333,0,0,0-.1-.407l-4.4-2.329c-.118-.062-.265.019-.325.18h0A.332.332,0,0,0,662.376,467.282Z" transform="translate(-640.145 -461.667)" fill="#5abddc"/>
            <path id="Trazado_3617" data-name="Trazado 3617" d="M651.658,495.707l4.4,2.329c.118.062.265-.019.326-.18h0a.334.334,0,0,0-.1-.408l-4.4-2.328c-.118-.063-.265.018-.325.18h0A.333.333,0,0,0,651.658,495.707Z" transform="translate(-634.859 -475.686)" fill="#5abddc"/>
            <path id="Trazado_3618" data-name="Trazado 3618" d="M648.683,503.6l4.4,2.328c.118.063.265-.018.326-.18h0a.333.333,0,0,0-.1-.408l-4.4-2.329c-.118-.062-.265.019-.326.18h0A.333.333,0,0,0,648.683,503.6Z" transform="translate(-633.392 -479.576)" fill="#5abddc"/>
            <path id="Trazado_3619" data-name="Trazado 3619" d="M645.709,511.484l4.4,2.329c.119.062.265-.019.326-.18h0a.334.334,0,0,0-.1-.408l-4.4-2.328c-.119-.063-.265.018-.326.18h0A.333.333,0,0,0,645.709,511.484Z" transform="translate(-631.925 -483.467)" fill="#5abddc"/>
            <path id="Trazado_3620" data-name="Trazado 3620" d="M642.734,519.373l4.4,2.328c.118.063.265-.018.326-.18h0a.333.333,0,0,0-.1-.407l-4.4-2.329c-.118-.062-.265.019-.326.18h0A.333.333,0,0,0,642.734,519.373Z" transform="translate(-630.458 -487.357)" fill="#5abddc"/>
            <path id="Trazado_3621" data-name="Trazado 3621" d="M639.76,527.261l4.4,2.329c.119.062.265-.019.326-.18h0a.333.333,0,0,0-.1-.408l-4.4-2.328c-.119-.063-.265.018-.326.18h0A.334.334,0,0,0,639.76,527.261Z" transform="translate(-628.991 -491.248)" fill="#5abddc"/>
            <path id="Trazado_3622" data-name="Trazado 3622" d="M636.064,534.767l5.119,2.712c.119.063.265-.018.326-.18h0a.334.334,0,0,0-.1-.408l-5.119-2.712c-.119-.063-.265.018-.326.18h0A.333.333,0,0,0,636.064,534.767Z" transform="translate(-627.168 -494.949)" fill="#5abddc"/>
            <path id="Trazado_3623" data-name="Trazado 3623" d="M631.907,542.029l6.185,3.277c.118.063.265-.018.326-.18h0a.333.333,0,0,0-.1-.408l-6.184-3.276c-.119-.063-.265.018-.326.18h0A.334.334,0,0,0,631.907,542.029Z" transform="translate(-625.118 -498.531)" fill="#5abddc"/>
            <path id="Trazado_3624" data-name="Trazado 3624" d="M628.02,549.434l7.371,3.9c.119.063.265-.018.326-.18h0a.333.333,0,0,0-.1-.408l-7.371-3.905c-.118-.063-.265.018-.326.18h0A.334.334,0,0,0,628.02,549.434Z" transform="translate(-623.201 -502.183)" fill="#5abddc"/>
            <path id="Trazado_3625" data-name="Trazado 3625" d="M658.155,474.853a1.9,1.9,0,0,0,.749,2.322,1.4,1.4,0,0,0,1.959-.887,1.9,1.9,0,0,0-.75-2.322A1.4,1.4,0,0,0,658.155,474.853Z" transform="translate(-638.064 -465.188)" fill="#5abddc"/>
            <path id="Trazado_3626" data-name="Trazado 3626" d="M663.153,477.5a1.9,1.9,0,0,0,.749,2.322,1.4,1.4,0,0,0,1.959-.887,1.9,1.9,0,0,0-.749-2.322A1.4,1.4,0,0,0,663.153,477.5Z" transform="translate(-640.528 -466.494)" fill="#5abddc"/>
          </g>
        </g>
      </g>
      <path id="Trazado_3627" data-name="Trazado 3627" d="M586.168,568.962l6.212,34.094s-15.436,15.3-33.094,0l1.986-32.015Z" transform="translate(-555.327 -505.216)" fill="#cfe4ff"/>
      <ellipse id="Elipse_696" data-name="Elipse 696" cx="5.706" cy="10.066" rx="5.706" ry="10.066" transform="translate(12.682 3.614) rotate(-7.368)" fill="#ffc2b0"/>
      <path id="Trazado_3628" data-name="Trazado 3628" d="M597.987,461.76c-1.328,4.629-6.291,6.3-9.208,3.282s-4.206-9.224-2.878-13.853,4.77-5.932,7.687-2.91S599.316,457.131,597.987,461.76Z" transform="translate(-568.195 -444.893)" fill="#ffc2b0"/>
      <path id="Trazado_3629" data-name="Trazado 3629" d="M585.246,487.517l-.5-.111a3.131,3.131,0,0,1-2.367-3.727l2.108-9.45a3.13,3.13,0,0,1,3.727-2.367l.5.11a3.131,3.131,0,0,1,2.367,3.727l-.69,9.378C590.016,486.753,586.922,487.89,585.246,487.517Z" transform="translate(-566.68 -457.291)" fill="#ffc2b0"/>
      <path id="Trazado_3630" data-name="Trazado 3630" d="M577.732,461.391s-.575,3.21,5.027,3.519c4.482.247,3.15-7.858,7.594-8.583,4.889-.8,5.774-6.836,3.848-9.154s-7.31-3.529-11.209-1.809S570.9,448.338,577.732,461.391Z" transform="translate(-563.128 -443.86)" fill="#305dad"/>
      <path id="Trazado_3631" data-name="Trazado 3631" d="M601.181,470.107a2.12,2.12,0,1,1-1.454-2.623A2.12,2.12,0,0,1,601.181,470.107Z" transform="translate(-573.937 -455.128)" fill="#ffc2b0"/>
      <path id="Trazado_3632" data-name="Trazado 3632" d="M563.046,529.984c1.582-8.673-.119-15.528.019-24.75,0-16.578-.8-20.624,7.969-18.1l2.47.656a17.03,17.03,0,0,1,3.428,1.324c11.555,5.953,14.639,7.789,14.132,14.695.052,11.375-5.243,13.695-2.429,23.652C586.254,535.324,565.689,535.613,563.046,529.984Z" transform="translate(-557.181 -464.519)" fill="#cfe4ff"/>
      <path id="Trazado_3633" data-name="Trazado 3633" d="M598.654,484.814l-.5-1.161a3.184,3.184,0,0,0,2.6.677A4.08,4.08,0,0,1,598.654,484.814Z" transform="translate(-574.495 -463.143)" fill="#f09a82"/>
      <path id="Trazado_3635" data-name="Trazado 3635" d="M581.884,486.807a1.388,1.388,0,0,0-1.68,1.585,3.81,3.81,0,0,0,2.816,3.043,13.686,13.686,0,0,0,7.178.085.394.394,0,0,0,.111-.719C588.683,489.8,584.778,487.507,581.884,486.807Z" transform="translate(-565.634 -464.68)" fill="#2c1f9c"/>
      <path id="Trazado_3636" data-name="Trazado 3636" d="M595.84,505.461s2.371,12.645,16.965,28.088C616.818,537.795,637,535.21,637,535.21l-.011-3.96s-15.16,1.643-18.914-3.435C613.84,522.093,607.729,500.221,595.84,505.461Z" transform="translate(-573.355 -473.502)" fill="#ffc2b0"/>
      <path id="Trazado_3637" data-name="Trazado 3637" d="M598.06,510.283l7.241,15.45c.986,1.087,11.353-6.509,10.078-8.219-.225-.3-9.379-18.242-16.361-20.228C593.347,495.673,593.972,503.621,598.06,510.283Z" transform="translate(-572.88 -469.762)" fill="#cfe4ff"/>
      <path id="Trazado_3638" data-name="Trazado 3638" d="M668.454,562.338l-2.321-.009a3.252,3.252,0,0,1-3.231-3.254h0a3.252,3.252,0,0,1,3.254-3.23l2.321.008a3.252,3.252,0,0,1,3.23,3.254h0A3.252,3.252,0,0,1,668.454,562.338Z" transform="translate(-606.429 -498.747)" fill="#ffc2b0"/>
      <path id="Trazado_3639" data-name="Trazado 3639" d="M610.477,543.025l-2.794-5.961s-.163,14.375,2.794,19.919Z" transform="translate(-579.194 -489.485)" fill="#a1bee3"/>
    </g>
    <g id="Grupo_3668" data-name="Grupo 3668" transform="translate(502.341 314.173)">
      <path id="Trazado_3640" data-name="Trazado 3640" d="M874.234,553.378,787.146,601.2l59.876,36.308,87.088-47.819Z" transform="translate(-786.836 -549.558)" fill="#a8c4e5" opacity="0.52" style="mix-blend-mode: multiply;isolation: isolate"/>
      <g id="Grupo_3667" data-name="Grupo 3667">
        <path id="Trazado_3641" data-name="Trazado 3641" d="M873.622,545.84l-87.088,47.819,59.876,36.308L933.5,582.148Z" transform="translate(-786.534 -545.84)" fill="#fff"/>
        <path id="Trazado_3642" data-name="Trazado 3642" d="M997.711,588.788,950.565,560.2l4.3-2.359,47.146,28.588Z" transform="translate(-867.432 -551.759)" fill="#ceddf2"/>
        <path id="Trazado_3643" data-name="Trazado 3643" d="M929.126,599.21l-23.573-14.294,4.3-2.359,23.573,14.294Z" transform="translate(-845.233 -563.948)" fill="#ceddf2"/>
        <path id="Trazado_3644" data-name="Trazado 3644" d="M906.731,611.507l-23.573-14.294,4.3-2.359,23.573,14.294Z" transform="translate(-834.187 -570.013)" fill="#ceddf2"/>
        <path id="Trazado_3645" data-name="Trazado 3645" d="M881.009,625.631l-23.573-14.294,4.3-2.359,23.573,14.294Z" transform="translate(-821.502 -576.979)" fill="#ceddf2"/>
        <path id="Trazado_3646" data-name="Trazado 3646" d="M885.2,684.744,859.437,669.12l3.666-2.013,25.766,15.624Z" transform="translate(-822.489 -605.647)" fill="#ceddf2"/>
        <path id="Trazado_3647" data-name="Trazado 3647" d="M983.8,600l-58.173-35.275,2.537-1.393L986.341,598.6Z" transform="translate(-855.135 -554.465)" fill="#ceddf2"/>
        <path id="Trazado_3648" data-name="Trazado 3648" d="M877.448,658.4l-58.173-35.275,2.537-1.393L879.984,657Z" transform="translate(-802.681 -583.267)" fill="#ceddf2"/>
      </g>
    </g>
  </g>
</svg>
