<svg xmlns="http://www.w3.org/2000/svg" width="435" height="198.351" viewBox="0 0 435 198.351">
  <g id="Grupo_3724" data-name="Grupo 3724" transform="translate(-595 -231)">
    <rect id="Rectángulo_930" data-name="Rectángulo 930" width="435" height="198" transform="translate(595 231)" fill="#efefef"/>
    <g id="Grupo_3144" data-name="Grupo 3144" transform="translate(193 -2073)">
      <g id="Elipse_568" data-name="Elipse 568" transform="translate(432 2327)" fill="#59bfd6" stroke="#227d84" stroke-width="3">
        <circle cx="20" cy="20" r="20" stroke="none"/>
        <circle cx="20" cy="20" r="18.5" fill="none"/>
      </g>
      <path id="Trazado_3098" data-name="Trazado 3098" d="M12.364-2.9V0H.726V-2.31l5.94-5.61A6.308,6.308,0,0,0,7.942-9.471a2.821,2.821,0,0,0,.33-1.287,1.7,1.7,0,0,0-.627-1.419,2.918,2.918,0,0,0-1.837-.495,4.218,4.218,0,0,0-1.826.385,3.5,3.5,0,0,0-1.364,1.155L.022-12.8a6.09,6.09,0,0,1,2.486-2.1,8.3,8.3,0,0,1,3.63-.759,7.463,7.463,0,0,1,3,.561,4.629,4.629,0,0,1,2,1.584,4.1,4.1,0,0,1,.715,2.409,5.37,5.37,0,0,1-.528,2.354A9.062,9.062,0,0,1,9.284-6.248L5.742-2.9Z" transform="translate(446 2354)" fill="#fff"/>
    </g>
    <g id="Grupo_3679" data-name="Grupo 3679" transform="translate(248.263 186.261)">
      <path id="Trazado_3686" data-name="Trazado 3686" d="M576.18,330.946l.992-25.587,2.015-.067,2.073.067,1.855,25.587H601.4c.163-9.248.323-18.325.47-26.711.115-6.5.223-12.6.32-18.027a56.637,56.637,0,0,1-17.118-.617,140.473,140.473,0,0,0-29-4.319c.3,12.635,1.146,30.72,2.123,49.675Z" transform="translate(-6.817 -87.856)" fill="#b67636"/>
      <path id="Trazado_3687" data-name="Trazado 3687" d="M550.768,222.075c0,.34,1.145.3,2.472.2l.115-13.043-2.5-.532C550.75,213.347,549.215,217.932,550.768,222.075Z" transform="translate(-4.458 -59.328)" fill="#f88864"/>
      <path id="Trazado_3688" data-name="Trazado 3688" d="M546.529,220.747c-1.553-4.143-.019-8.729.089-13.378l-4.671-2.05s-1.4,7.595-1.576,10.751c-.125,2.236-.8,2.59-1.08,6.549l9.663,3.59.046-5.265C547.674,221.047,546.529,221.088,546.529,220.747Z" transform="translate(-0.218 -58)" fill="#ffa988"/>
      <path id="Trazado_3689" data-name="Trazado 3689" d="M574.29,153.475c8.35.5,18.61,1.461,24.648-5.141-4.431-1.956-7.289-2.728-7.858-3.535-1.424-2.018-.578-13.223-.578-13.223l-7.44,2.938-4.967-.134s-.371,7.758-1.687,9.816c-.854,1.335-5.658,3.049-10.508,5.032A13.22,13.22,0,0,0,574.29,153.475Z" transform="translate(-10.678 -29.013)" fill="#ffa988"/>
      <path id="Trazado_3690" data-name="Trazado 3690" d="M601.93,301.082c.094-5.322.183-10.331.264-14.875a56.637,56.637,0,0,1-17.118-.617,140.473,140.473,0,0,0-29-4.319c.12,5.108.331,11.113.6,17.7C570.9,303.2,587.479,305.9,601.93,301.082Z" transform="translate(-6.817 -87.856)" fill="#a36b31"/>
      <path id="Trazado_3691" data-name="Trazado 3691" d="M550.247,165.407c-2.211,1.312-3.979,2.71-4.792,4.207-2.763,5.09-2.814,19.717-4.384,30.767,2.529,1.258,6.77,1.918,8.42,2.138C554.22,190.678,553.468,177.579,550.247,165.407Z" transform="translate(-0.917 -42.311)" fill="#53545d"/>
      <path id="Trazado_3692" data-name="Trazado 3692" d="M601.369,198.838a15.615,15.615,0,0,0-3.014-.189c0-12.834-2.335-26.668-.24-39.422-2.517-1.227-5.038-2.351-7.137-3.3-7.076,5.3-17.02,6.526-23.072-.135-3.758,1.757-8.578,3.681-12.2,5.834,3.221,12.172,3.973,25.271-.756,37.113.431.058.688.086.688.086s-.853,33.4-.538,49.542c14.154,3.4,32.912,3.894,47.074,1.156C602.434,231.8,601.385,199.346,601.369,198.838Z" transform="translate(-6.371 -38.533)" fill="#53545d"/>
      <path id="Trazado_3693" data-name="Trazado 3693" d="M621.027,270.123c2.32-.267,4.576-.6,6.717-1.012.267-17.864-.8-50.7-.8-50.7H627c-.66,0-2.856-.294-2.856-.294s-.657-8.044-.9-12.5C620.264,227.475,618.931,248.435,621.027,270.123Z" transform="translate(-31.947 -58.118)" fill="#42434a"/>
      <path id="Trazado_3694" data-name="Trazado 3694" d="M590.054,145.762c2.017-1.3,5.2-3.024,7.29-4.068a71.177,71.177,0,0,1,.089-8.227l-7.348,1.79-4.967-.134s-.308,6.423-1.355,9.13C586,146,588.154,147.592,590.054,145.762Z" transform="translate(-17.699 -29.756)" fill="#f88864"/>
      <path id="Trazado_3695" data-name="Trazado 3695" d="M554.66,207.423c-2.091-.2-4.211,7.073-4.824,11.095,2.052.412,3.744.6,3.785.6C553.9,215.221,554.111,211.743,554.66,207.423Z" transform="translate(-4.363 -58.826)" fill="#42434a"/>
      <path id="Trazado_3696" data-name="Trazado 3696" d="M599.837,156.514l-1.478-.6c-7.076,4.764-17.02,5.862-23.072-.121-.489.205-1.015.418-1.563.634C579.9,163.9,593.425,162.2,599.837,156.514Z" transform="translate(-13.753 -38.533)" fill="#42434a"/>
      <path id="Trazado_3697" data-name="Trazado 3697" d="M585.241,230.571c-5.409.757-27-2.989-35.968-4.248a86.492,86.492,0,0,0-9.371-.449c-2.016,8.416-.865,9.646-.563,10.772.362,1.347,3.42,1.969,4.9,1.948s8.77.921,15.763,1.555,25.249-1.548,27.634-2.467a7.912,7.912,0,0,1,1.665-.438A13.446,13.446,0,0,1,585.241,230.571Z" transform="translate(0 -66.08)" fill="#ffa988"/>
      <path id="Trazado_3698" data-name="Trazado 3698" d="M586.63,233.613a18.572,18.572,0,0,1-3,.076c.608,2.692,1.313,5.578.821,6.07-13.859,4.042-28.268,1.493-42.18,1.236a9.621,9.621,0,0,0,3.355.64c1.478-.022,8.77.921,15.763,1.555s25.249-1.548,27.634-2.466a7.912,7.912,0,0,1,1.665-.438A13.446,13.446,0,0,1,586.63,233.613Z" transform="translate(-1.389 -69.122)" fill="#f88864"/>
      <path id="Trazado_3699" data-name="Trazado 3699" d="M615.051,233.072s8.845-1.893,10.58-2.082,4.9-.485,6.325-.592,2.672.989,3.7,2.273,2.16,2.577,2.133,2.981-.175,1.1-.888,1.157a3.971,3.971,0,0,0-1.131.229s1.03,1.285.774,2.079a2.748,2.748,0,0,1-.895,1.258s.255,2.247-.364,2.409-1.648.4-1.648.4-.053.807-.1,1.514-1.7,1.2-2.281.76-.579-1.965-1.6-1.83-2.193.969-3.506.882-9.448-5.463-9.448-5.463-1.487-2.549-1.063-4.345S615.051,233.072,615.051,233.072Z" transform="translate(-29.998 -67.856)" fill="#f88864"/>
      <path id="Trazado_3700" data-name="Trazado 3700" d="M575.3,95.5s.309-2.13-2.286-2.23-3.509,2.935-3.41,4.623c.255,4.352,1.129,6.337,1.746,6.795,1.422,1.056,2.263.007,2.263.007s.4-3.37.617-4.543C574.444,99.016,575.3,95.5,575.3,95.5Z" transform="translate(-12.132 -13.955)" fill="#ffa988"/>
      <path id="Trazado_3701" data-name="Trazado 3701" d="M572.065,96.474a2.052,2.052,0,0,1,3.867,1.138c-.111.456-.535,2.306-.73,3.359-.017.089-.777,3.44-.8,3.552C571.8,103.253,576.485,96.486,572.065,96.474Z" transform="translate(-13.101 -14.773)" fill="#f88864"/>
      <path id="Trazado_3702" data-name="Trazado 3702" d="M629.286,107.986s.649-2.051,3.029-1.012,1.883,4.169,1.059,5.647c-2.124,3.807-3.774,5.214-4.529,5.358-1.74.332-2.04-.979-2.04-.979s1.108-3.208,1.423-4.359C628.532,111.524,629.286,107.986,629.286,107.986Z" transform="translate(-34.618 -19.227)" fill="#ffa988"/>
      <path id="Trazado_3703" data-name="Trazado 3703" d="M633.392,110.787a2.052,2.052,0,0,0-3.977-.659c-.1.459-.522,2.309-.8,3.342-.024.088-.8,3.436-.83,3.545C630.68,117.005,629.407,108.875,633.392,110.787Z" transform="translate(-35.002 -20.057)" fill="#f88864"/>
      <path id="Trazado_3704" data-name="Trazado 3704" d="M577.874,82.157s-3.7,13.294-2.616,18.264c.69,3.175,4.754,10.694,6.987,13.088,1.584,1.7,6.913,2.964,9.112,2.207,2.916-1,9.033-4.47,11.016-6.448,2.579-2.572,5.6-11.6,5.6-11.6a3.6,3.6,0,0,0,.258-.674l2.678-9.831a3.6,3.6,0,0,0,.125-1.046h0A19.507,19.507,0,0,0,599.52,69.191l-.606-.283c-5.062-2.371-12.112-1.163-15.857,2.668a3.609,3.609,0,0,0-.411.512l-2.424,3.59a3.621,3.621,0,0,0-.41.808l-1.753,4.889A3.641,3.641,0,0,0,577.874,82.157Z" transform="translate(-14.278 -3.901)" fill="#ffa988"/>
      <path id="Trazado_3705" data-name="Trazado 3705" d="M593.958,97.164c-1.437-1.156-5.829-2.145-7.674-1.832a10.068,10.068,0,0,0-2.349,1.239,35.771,35.771,0,0,1,4.248.586c1.454.437,4.691,2.26,5.854,1.635C594.443,98.573,594.345,97.475,593.958,97.164Z" transform="translate(-17.767 -14.743)" fill="#4a3029"/>
      <path id="Trazado_3706" data-name="Trazado 3706" d="M610.954,98.769c1.841-.095,5.981,1.679,7.292,3.015a10.079,10.079,0,0,1,1.176,2.382,35.815,35.815,0,0,0-3.784-2.016c-1.434-.5-5.125-.919-5.7-2.107C609.735,99.626,610.458,98.794,610.954,98.769Z" transform="translate(-27.974 -16.115)" fill="#4a3029"/>
      <path id="Trazado_3707" data-name="Trazado 3707" d="M601.259,59.433c-8.851-2.617-20.4-1.367-20.4-1.367s5.862,2.306,4.93,2.781c-1.048.533-4.085-.818-4.085-.818s.237,3.814-.115,4.459c-2.232,4.092-2.546,6.377-3.43,10.24-.141.613-.768,4.816-.768,4.816s.667,2.174.981,1.2c5.608-17.423,12.277-9.084,18.078-7.659,8.01,1.968,15.9-3.834,13.965,15.078.362.184,1.192-.783,1.192-.783s1.211-4.208,1.317-4.69C614.957,73.434,613.135,62.945,601.259,59.433Z" transform="translate(-15.194 0)" fill="#5a3a32"/>
      <path id="Trazado_3708" data-name="Trazado 3708" d="M608.879,74.4c-1.134,2.231-8.2-4.99-12.609-4.755.185,1.91,1.418,4.683-1.084,4.733-3.093-.086-4.647-4.177-8.332-4.4.185,1.91-1.725,2.1-2.587,3.143-4.112,2.087-5.377,7.181-6.441,11.814.221.527.531,1.055.717.478,5.608-17.423,12.277-9.084,18.078-7.659,8.01,1.968,15.9-3.834,13.965,15.078.362.184,1.192-.783,1.192-.783s1.211-4.208,1.317-4.69a31.324,31.324,0,0,0,.591-3.751A17.332,17.332,0,0,0,608.879,74.4Z" transform="translate(-15.365 -4.665)" fill="#4a3029"/>
      <g id="Grupo_3676" data-name="Grupo 3676" transform="translate(567.086 84.659)">
        <path id="Trazado_3709" data-name="Trazado 3709" d="M592.146,107.256a10.235,10.235,0,0,1-4.573-.633,2.313,2.313,0,0,1-1.579-3.069s.313-1.008.992-1.075a8.937,8.937,0,0,1,2.332-.079,13.53,13.53,0,0,1,2.048.859c.354.16,1.119,2.185,1.28,3.209A.784.784,0,0,1,592.146,107.256Z" transform="translate(-585.606 -102.181)" fill="#fffffb"/>
        <path id="Trazado_3710" data-name="Trazado 3710" d="M592.765,105.148a1.989,1.989,0,1,1-1.477-2.456A2.027,2.027,0,0,1,592.765,105.148Z" transform="translate(-586.779 -102.299)" fill="#b67636"/>
        <path id="Trazado_3711" data-name="Trazado 3711" d="M592.668,105.523a1.283,1.283,0,1,1-.964-1.539A1.284,1.284,0,0,1,592.668,105.523Z" transform="translate(-587.289 -102.813)"/>
        <path id="Trazado_3712" data-name="Trazado 3712" d="M593.626,105.622a.664.664,0,1,1-.5-.8A.665.665,0,0,1,593.626,105.622Z" transform="translate(-588.146 -103.15)" fill="#fffffb"/>
        <path id="Trazado_3713" data-name="Trazado 3713" d="M592.513,106.461a4.091,4.091,0,0,0-2.362-3.446,3.557,3.557,0,0,0-3-.212,10.67,10.67,0,0,0-1.319.646l-.388-.626a5.177,5.177,0,0,1,2.39-.74,5.35,5.35,0,0,1,3.5,1.145,3.2,3.2,0,0,1,1.265,2.009C592.9,106.192,592.513,106.461,592.513,106.461Z" transform="translate(-585.447 -102.076)"/>
      </g>
      <g id="Grupo_3677" data-name="Grupo 3677" transform="translate(581.569 88.563)">
        <path id="Trazado_3714" data-name="Trazado 3714" d="M609.531,111.94a10.233,10.233,0,0,0,4.392,1.42,2.313,2.313,0,0,0,2.757-2.076s.158-1.043-.426-1.4a8.938,8.938,0,0,0-2.065-1.085,13.511,13.511,0,0,0-2.219-.118c-.388-.01-1.958,1.481-2.548,2.333A.783.783,0,0,0,609.531,111.94Z" transform="translate(-609.311 -108.576)" fill="#fffffb"/>
        <path id="Trazado_3715" data-name="Trazado 3715" d="M617.036,110.981a1.987,1.987,0,1,1-1.493-2.384A1.989,1.989,0,0,1,617.036,110.981Z" transform="translate(-610.805 -108.523)" fill="#b67636"/>
        <path id="Trazado_3716" data-name="Trazado 3716" d="M616.938,111.339a1.284,1.284,0,1,1-.974-1.495A1.262,1.262,0,0,1,616.938,111.339Z" transform="translate(-611.314 -109.02)"/>
        <path id="Trazado_3717" data-name="Trazado 3717" d="M617.892,111.439a.665.665,0,1,1-.5-.774A.653.653,0,0,1,617.892,111.439Z" transform="translate(-612.169 -109.35)" fill="#fffffb"/>
        <path id="Trazado_3718" data-name="Trazado 3718" d="M609.362,111.021a4.091,4.091,0,0,1,3.626-2.074,3.556,3.556,0,0,1,2.791,1.113,10.652,10.652,0,0,1,.906,1.156l.622-.4a5.17,5.17,0,0,0-1.829-1.706,5.349,5.349,0,0,0-3.646-.491,3.207,3.207,0,0,0-2.014,1.259C609.131,110.611,609.362,111.021,609.362,111.021Z" transform="translate(-609.316 -108.508)"/>
      </g>
      <path id="Trazado_3719" data-name="Trazado 3719" d="M598.827,121.205l-2.674-1.682,5.769,1.321Z" transform="translate(-22.569 -24.275)" fill="#f78b60"/>
      <path id="Trazado_3720" data-name="Trazado 3720" d="M588.721,128.277s5.108-.91,6.524-1.011a16.1,16.1,0,0,1,4.5,1.062l.455.556a14.6,14.6,0,0,0-3.743-.759c-1.112.1-6.524,1.265-7.03,1.062A1.521,1.521,0,0,1,588.721,128.277Z" transform="translate(-19.648 -27.316)" fill="#f88864"/>
      <path id="Trazado_3733" data-name="Trazado 3733" d="M17.516,0C27.19,0,35.032,7.088,35.032,15.831S27.19,31.661,17.516,31.661,0,24.574,0,15.831,7.842,0,17.516,0Z" transform="translate(632.962 66.819)" fill="#5f7681" opacity="0.844"/>
      <path id="Trazado_3721" data-name="Trazado 3721" d="M701.717,96.548a1.449,1.449,0,0,1-1.065-.465,1.468,1.468,0,0,1-.458-1.057q0-1.021,1.892-2.513l3.532-2.661q1.906-1.64,1.906-3a4.223,4.223,0,0,0-1.611-3.163,4.855,4.855,0,0,0-3.3-1.4,4.639,4.639,0,0,0-2.365.953,5.574,5.574,0,0,1-1.774.953,1.35,1.35,0,0,1-1.042-.488A1.6,1.6,0,0,1,697,82.61q0-1.167,2.261-2.32a7.81,7.81,0,0,1,3.355-1.035,7.628,7.628,0,0,1,5.395,2.32,7.13,7.13,0,0,1,2.424,5.277,5.816,5.816,0,0,1-1.389,3.828,16.9,16.9,0,0,1-3.075,2.6,19.949,19.949,0,0,0-3.148,2.661A1.468,1.468,0,0,1,701.717,96.548Zm-.813,5.616a1.791,1.791,0,0,1-1.175-.436,1.329,1.329,0,0,1-.524-1.057,2.943,2.943,0,0,1,.487-1.656,1.632,1.632,0,0,1,1.4-.828q1.418,0,1.419,1.744a2.822,2.822,0,0,1-.384,1.463A1.406,1.406,0,0,1,700.9,102.164Z" transform="translate(-52.212 -8.446)" fill="#fff"/>
      <path id="Trazado_3722" data-name="Trazado 3722" d="M662.739,89.658c0,1.651,1.612,2.99,3.6,2.99s3.6-1.339,3.6-2.99-1.611-2.991-3.6-2.991S662.739,88.006,662.739,89.658Z" transform="translate(-38.744 -11.36)" fill="#5f7681"/>
      <ellipse id="Elipse_699" data-name="Elipse 699" cx="1.782" cy="1.481" rx="1.782" ry="1.481" transform="translate(615.822 76.817)" fill="#5f7681"/>
      <path id="Trazado_3723" data-name="Trazado 3723" d="M633.932,218.509c-1.593.3-4.7.531-4.7.531l-.076,3.414-2.92,13.39a9.814,9.814,0,0,0,4.286-.265,10.054,10.054,0,0,0,2.293-1.451c4.166-4.444,4.242-10.6,5.039-16.554C636.437,217.935,634.764,218.35,633.932,218.509Z" transform="translate(-34.393 -62.817)" fill="#ffa988"/>
      <path id="Trazado_3724" data-name="Trazado 3724" d="M642.111,217.173c-.8,5.95-.873,12.11-5.039,16.554,1.968-1.605,4.64-4.741,6.052-10.535.631-2.588,1.352-6.636,1.352-6.636S643.4,216.842,642.111,217.173Z" transform="translate(-38.654 -62.417)" fill="#f88864"/>
      <path id="Trazado_3725" data-name="Trazado 3725" d="M640.643,199.6c-1.112-9.827-.232-23.972-3.3-29.85-1.461-2.8-6.641-5.771-11.831-8.3-2.094,12.754.24,26.588.24,39.422a15.616,15.616,0,0,1,3.014.189v-.012S637.657,201.327,640.643,199.6Z" transform="translate(-33.766 -40.756)" fill="#53545d"/>
      <path id="Trazado_3726" data-name="Trazado 3726" d="M640.192,170.919c-1.125-2.155-4.458-4.414-8.3-6.494,8.253,9.308,6.245,24.5,7.081,37.5a12.957,12.957,0,0,0,4.522-1.157C642.383,190.942,643.263,176.8,640.192,170.919Z" transform="translate(-36.618 -41.925)" fill="#42434a"/>
      <path id="Trazado_3727" data-name="Trazado 3727" d="M589.925,161.81s1.951,4.866,3.351,8.585,7.188,20.968,8.094,23.071,3.237,7.305,5.151,9.079c1.116,1.034,4.693,2.387,5.811,1.808a6.968,6.968,0,0,0,3.613-7.216c-.727-4.2-2.619-8.975-7.757-16.842s-12.206-19.528-12.436-20.627,1.236-8.516,1.228-9.661-.351-1.3-.113-2.385,1.08-2.979,1.216-3.81.55-2.179-.039-2.4-1.062.109-1.792,1.064a11.5,11.5,0,0,0-1.326,2.916c-.256.627-.466,1.474-1.054,1.253s-2.662-3.455-3.463-4.319-2.135-2.419-2.547-2.906-.7-1.115-1.659-1.258-1.287-1.335-1.628,0a15.586,15.586,0,0,0,.013,4.125,2.589,2.589,0,0,0-.317,1.443c.036.91.208.989-.368,1.568s-.919.422-.814,1.661.128,1.349-.248,1.772a4.493,4.493,0,0,0-.143,3.012,24.607,24.607,0,0,0,2.859,5.478C586.475,158.29,589.925,161.81,589.925,161.81Z" transform="translate(-17.21 -31.356)" fill="#ffa988"/>
      <path id="Trazado_3728" data-name="Trazado 3728" d="M587.69,140.246c2.428,2.428,3.035,7.89,7.283,7.283,0-.275.249-.55.465-.882a.434.434,0,0,1-.327,0c-.589-.22-2.662-3.455-3.463-4.319s-2.135-2.419-2.547-2.906-.7-1.115-1.659-1.258-1.287-1.335-1.628,0a8.1,8.1,0,0,0-.143,1.993A2.629,2.629,0,0,1,587.69,140.246Z" transform="translate(-18.447 -31.356)" fill="#f88864"/>
      <path id="Trazado_3729" data-name="Trazado 3729" d="M605.143,156.642c.3-1.891.592-3.652.589-4.163-.008-1.145-.351-1.3-.113-2.385s1.08-2.979,1.216-3.81.55-2.179-.039-2.4a.877.877,0,0,0-.714.028C605.774,148.155,604.042,152.4,605.143,156.642Z" transform="translate(-25.961 -33.826)" fill="#f88864"/>
      <path id="Trazado_3730" data-name="Trazado 3730" d="M601.885,166.622c5.574,13.935,15.233,24.8,21.476,37.768-.785-4.094-2.72-8.8-7.668-16.374-5.137-7.867-12.206-19.528-12.436-20.627s1.236-8.516,1.228-9.661a4.743,4.743,0,0,0-.036-.552C602.743,160.436,600.892,164.139,601.885,166.622Z" transform="translate(-24.713 -39.076)" fill="#f88864"/>
    </g>
    <path id="Trazado_3731" data-name="Trazado 3731" d="M2057.734,150.651a2.25,2.25,0,0,0-2.414,1.364,27.616,27.616,0,0,0-3.738-1.107,21.29,21.29,0,0,0-5.076-.654,18.529,18.529,0,0,0-.136-7.183,20.328,20.328,0,0,0,5.212-.645,27.669,27.669,0,0,0,3.738-1.107,2.251,2.251,0,0,0,2.414,1.364,2.689,2.689,0,0,0-1.171-5.133,2.25,2.25,0,0,0-1.583,2.277,27.678,27.678,0,0,0-3.848.624,20.16,20.16,0,0,0-4.991,1.689,18.245,18.245,0,0,0-1.8-4.3q.282-.168.569-.351a20.09,20.09,0,0,0,2.529-1.872,2.227,2.227,0,0,0,2.684.572c.959-.609,1.075-2.144.259-3.431a3.345,3.345,0,0,0-1.391-1.254c.515-.465.969-.909,1.345-1.312a2.251,2.251,0,0,0,2.767.182,2.689,2.689,0,0,0-3.283-4.117,2.251,2.251,0,0,0-.438,2.738,27.622,27.622,0,0,0-3.2,2.232,19.037,19.037,0,0,0-3.841,3.807,18.411,18.411,0,0,0-5.709-4.447,18.355,18.355,0,0,0,2.918-4.649,27.7,27.7,0,0,0,1.464-3.612,2.251,2.251,0,0,0,2.572-1.036,2.689,2.689,0,0,0-4.744-2.284,2.251,2.251,0,0,0,.793,2.656,27.672,27.672,0,0,0-1.911,3.4,18.277,18.277,0,0,0-1.816,5.187,18.269,18.269,0,0,0-1.983-.75c.075-.257.148-.521.217-.792a20.132,20.132,0,0,0,.563-3.1,2.227,2.227,0,0,0,2.349-1.421c.282-1.1-.685-2.3-2.16-2.678s-2.9.206-3.182,1.306a2.227,2.227,0,0,0,1.374,2.377,20.182,20.182,0,0,0-1,2.984q-.105.412-.193.81a18.4,18.4,0,0,0-3.067-.32,17.943,17.943,0,0,0,.628-5.495,27.687,27.687,0,0,0-.247-3.89,2.451,2.451,0,0,0,1.749-1.413c.013-.033.025-.067.035-.1a1.773,1.773,0,0,0,.083-.535,2.337,2.337,0,0,0-2.232-2.117h0l-.128-.013-.074,0-.06,0-.079,0h-.057a2.425,2.425,0,0,0-2.632,2.141h0a2.033,2.033,0,0,0,1.033,1.7,2.891,2.891,0,0,0,.834.349,27.624,27.624,0,0,0-.248,3.89c0,.876.032,1.708.09,2.457a11.453,11.453,0,0,0,.537,3.039,18.4,18.4,0,0,0-3.089.324c-.059-.266-.123-.538-.194-.814a20.113,20.113,0,0,0-1-2.984,2.227,2.227,0,0,0,1.374-2.377c-.283-1.1-1.708-1.685-3.183-1.306s-2.442,1.578-2.159,2.678a2.227,2.227,0,0,0,2.349,1.421,20.057,20.057,0,0,0,.563,3.1q.105.41.219.8a18.22,18.22,0,0,0-3.17,1.337,18.379,18.379,0,0,0-2.2-5.026,27.7,27.7,0,0,0-2.159-3.245,2.25,2.25,0,0,0,.592-2.709,2.689,2.689,0,0,0-4.56,2.632,2.251,2.251,0,0,0,2.642.842,27.629,27.629,0,0,0,1.731,3.493,18.436,18.436,0,0,0,3.249,4.411,18.388,18.388,0,0,0-2.232,1.565q-.251-.285-.523-.575a20.12,20.12,0,0,0-2.312-2.134,2.226,2.226,0,0,0,.059-2.744c-.777-.828-2.308-.654-3.418.388s-1.38,2.559-.6,3.387a2.227,2.227,0,0,0,2.743.114,20.126,20.126,0,0,0,1.984,2.441q.263.28.525.542a18.422,18.422,0,0,0-2.352,2.98,19.414,19.414,0,0,0-4.336-3.159,27.638,27.638,0,0,0-3.493-1.731,2.251,2.251,0,0,0-.842-2.642,2.689,2.689,0,0,0-2.632,4.56,2.251,2.251,0,0,0,2.708-.592,27.656,27.656,0,0,0,3.245,2.16,19.548,19.548,0,0,0,4.888,2.173,18.22,18.22,0,0,0-2.2,6.517q-.282-.024-.572-.043a20.146,20.146,0,0,0-3.147.027,2.227,2.227,0,0,0-1.835-2.041c-1.134-.071-2.13,1.1-2.226,2.623s.746,2.81,1.88,2.881a2.227,2.227,0,0,0,2.077-1.795,20.148,20.148,0,0,0,3.118.421c.182.011.361.021.538.028,0,.138,0,.278,0,.417a18.461,18.461,0,0,0,.287,3.25,21.273,21.273,0,0,0-5.076.654,27.677,27.677,0,0,0-3.738,1.107,2.25,2.25,0,0,0-2.413-1.365,2.689,2.689,0,0,0,1.171,5.133,2.251,2.251,0,0,0,1.583-2.276,27.634,27.634,0,0,0,3.848-.625,21.421,21.421,0,0,0,4.84-1.6,18.2,18.2,0,0,0,.709,2.293q-.185.083-.374.172a20.187,20.187,0,0,0-2.744,1.54,2.227,2.227,0,0,0-2.591-.9c-1.028.484-1.335,1.993-.687,3.371s2.007,2.1,3.035,1.619a2.227,2.227,0,0,0,.956-2.573,20.127,20.127,0,0,0,2.935-1.133q.173-.081.341-.164a18.31,18.31,0,0,0,1.422,2.289,22.186,22.186,0,0,0-4.162,2.736,27.61,27.61,0,0,0-2.887,2.619,2.251,2.251,0,0,0-2.767-.182,2.689,2.689,0,0,0,3.283,4.116,2.25,2.25,0,0,0,.438-2.738,27.624,27.624,0,0,0,3.2-2.232,22.286,22.286,0,0,0,3.584-3.436,18.439,18.439,0,0,0,4.342,3.832,22.719,22.719,0,0,0-2.813,4,27.676,27.676,0,0,0-1.731,3.492,2.251,2.251,0,0,0-2.642.842,2.689,2.689,0,0,0,4.56,2.633,2.251,2.251,0,0,0-.592-2.709,24.778,24.778,0,0,0,1.536-2.207,2.8,2.8,0,0,0,1.916,2.29c1.416.561,2.9.159,3.321-.9a2.226,2.226,0,0,0-1.065-2.53,20.116,20.116,0,0,0,1.365-2.835l.079-.2a18.294,18.294,0,0,0,5.289.953,23.034,23.034,0,0,0-.422,4.825,27.63,27.63,0,0,0,.248,3.89,2.638,2.638,0,0,0-1.469.918,1.849,1.849,0,0,0-.4,1.132,2.689,2.689,0,0,0,5.265,0h0a2.25,2.25,0,0,0-1.867-2.049,27.691,27.691,0,0,0,.247-3.89,23.032,23.032,0,0,0-.422-4.825,18.259,18.259,0,0,0,6.973-1.617,22.9,22.9,0,0,0,1.719,4.555,27.686,27.686,0,0,0,1.911,3.4,2.252,2.252,0,0,0-.793,2.657,2.689,2.689,0,0,0,4.744-2.284,2.25,2.25,0,0,0-2.572-1.036,27.6,27.6,0,0,0-1.465-3.612,22.823,22.823,0,0,0-2.5-4.192q.745-.4,1.448-.859l.143.2a20.146,20.146,0,0,0,2.027,2.407,2.227,2.227,0,0,0-.4,2.715c.668.919,2.208.938,3.44.043s1.69-2.366,1.022-3.285a2.226,2.226,0,0,0-2.706-.457,20.171,20.171,0,0,0-1.663-2.671l-.159-.216a18.432,18.432,0,0,0,2.394-2.41,22.279,22.279,0,0,0,3.584,3.436,27.646,27.646,0,0,0,3.2,2.232,2.251,2.251,0,0,0,.438,2.738,2.689,2.689,0,0,0,3.283-4.116,2.251,2.251,0,0,0-2.767.182,27.62,27.62,0,0,0-2.887-2.619,22.185,22.185,0,0,0-4.161-2.736,18.367,18.367,0,0,0,1.417-2.281c.106.052.214.1.323.155a20.12,20.12,0,0,0,2.936,1.133,2.227,2.227,0,0,0,.956,2.574c1.028.483,2.386-.242,3.035-1.62s.341-2.887-.687-3.371a2.227,2.227,0,0,0-2.592.9,20.122,20.122,0,0,0-2.744-1.54c-.119-.056-.237-.11-.355-.164a18.156,18.156,0,0,0,.713-2.3,21.429,21.429,0,0,0,4.84,1.6,27.678,27.678,0,0,0,3.848.624,2.25,2.25,0,0,0,1.583,2.276,2.689,2.689,0,0,0,1.171-5.133ZM2046.4,133.615a3.266,3.266,0,0,0,.145.587,20.151,20.151,0,0,0-2.77,1.492q-.3.192-.588.385c-.094-.127-.19-.253-.288-.378A15.756,15.756,0,0,0,2046.4,133.615Zm-25.883,30.193a20.159,20.159,0,0,0-.946,3,2.781,2.781,0,0,0-1.74.268,21.552,21.552,0,0,0,1.8-3.98q.476.261.969.495C2020.574,163.663,2020.545,163.735,2020.516,163.807Z" transform="translate(-1058.579 229.214)" fill="#dd726a" opacity="0.724"/>
    <path id="Trazado_3732" data-name="Trazado 3732" d="M2036.071,137.843a1.44,1.44,0,0,0-1.544.873,17.675,17.675,0,0,0-2.392-.708,13.622,13.622,0,0,0-3.248-.419,11.848,11.848,0,0,0-.087-4.6,13.007,13.007,0,0,0,3.335-.413,17.71,17.71,0,0,0,2.392-.708,1.44,1.44,0,0,0,1.544.873,1.721,1.721,0,0,0-.75-3.285,1.44,1.44,0,0,0-1.013,1.457,17.71,17.71,0,0,0-2.462.4,12.9,12.9,0,0,0-3.194,1.081,11.668,11.668,0,0,0-1.152-2.754q.181-.107.364-.224a12.855,12.855,0,0,0,1.619-1.2,1.425,1.425,0,0,0,1.718.366,1.591,1.591,0,0,0,.166-2.2,2.14,2.14,0,0,0-.89-.8c.33-.3.62-.582.861-.84a1.441,1.441,0,0,0,1.771.116,1.721,1.721,0,0,0-2.1-2.634,1.44,1.44,0,0,0-.28,1.752,17.681,17.681,0,0,0-2.045,1.428,12.185,12.185,0,0,0-2.458,2.436,11.781,11.781,0,0,0-3.653-2.845,11.743,11.743,0,0,0,1.867-2.975,17.7,17.7,0,0,0,.937-2.311,1.44,1.44,0,0,0,1.646-.663,1.72,1.72,0,0,0-3.035-1.462,1.44,1.44,0,0,0,.508,1.7,17.716,17.716,0,0,0-1.223,2.174,11.7,11.7,0,0,0-1.162,3.319,11.692,11.692,0,0,0-1.269-.48c.048-.164.095-.333.139-.507a12.88,12.88,0,0,0,.36-1.981,1.425,1.425,0,0,0,1.5-.909c.181-.7-.438-1.471-1.382-1.713a1.59,1.59,0,0,0-2.036.836,1.425,1.425,0,0,0,.879,1.521,12.888,12.888,0,0,0-.639,1.909q-.068.264-.124.518a11.773,11.773,0,0,0-1.963-.2,11.479,11.479,0,0,0,.4-3.516,17.732,17.732,0,0,0-.158-2.489,1.569,1.569,0,0,0,1.119-.9q.012-.032.023-.065a1.093,1.093,0,0,0,.033-.134,1.115,1.115,0,0,0,.02-.209,1.5,1.5,0,0,0-1.428-1.355h0l-.082-.008-.047,0-.038,0h-.087a1.552,1.552,0,0,0-1.684,1.37h0a1.3,1.3,0,0,0,.661,1.088,1.852,1.852,0,0,0,.534.223,17.69,17.69,0,0,0-.158,2.489c0,.561.021,1.093.058,1.572a7.332,7.332,0,0,0,.344,1.944,11.767,11.767,0,0,0-1.976.207c-.038-.17-.079-.345-.125-.521a12.86,12.86,0,0,0-.639-1.909,1.425,1.425,0,0,0,.879-1.521,1.591,1.591,0,0,0-2.037-.836c-.944.242-1.562,1.009-1.382,1.713a1.425,1.425,0,0,0,1.5.909,12.792,12.792,0,0,0,.36,1.981c.045.175.092.346.14.511a11.662,11.662,0,0,0-2.029.855,11.761,11.761,0,0,0-1.406-3.216,17.716,17.716,0,0,0-1.382-2.076,1.44,1.44,0,0,0,.379-1.733,1.72,1.72,0,0,0-2.918,1.684,1.44,1.44,0,0,0,1.69.539,17.7,17.7,0,0,0,1.107,2.235,11.8,11.8,0,0,0,2.079,2.823,11.752,11.752,0,0,0-1.428,1q-.161-.182-.335-.368a12.86,12.86,0,0,0-1.48-1.365,1.424,1.424,0,0,0,.038-1.756,1.841,1.841,0,0,0-2.572,2.416,1.425,1.425,0,0,0,1.755.073,12.888,12.888,0,0,0,1.27,1.562q.168.179.336.347a11.784,11.784,0,0,0-1.5,1.907,12.428,12.428,0,0,0-2.775-2.021,17.7,17.7,0,0,0-2.235-1.107,1.44,1.44,0,0,0-.539-1.69,1.72,1.72,0,0,0-1.684,2.918,1.44,1.44,0,0,0,1.733-.379,17.71,17.71,0,0,0,2.077,1.382,12.507,12.507,0,0,0,3.127,1.391,11.662,11.662,0,0,0-1.41,4.17q-.18-.016-.366-.027a12.891,12.891,0,0,0-2.013.017,1.425,1.425,0,0,0-1.174-1.306c-.726-.046-1.363.706-1.425,1.678a1.591,1.591,0,0,0,1.2,1.844,1.425,1.425,0,0,0,1.329-1.148,12.891,12.891,0,0,0,2,.27c.116.007.231.013.344.018,0,.089,0,.178,0,.267a11.812,11.812,0,0,0,.183,2.079,13.609,13.609,0,0,0-3.248.418,17.694,17.694,0,0,0-2.392.708,1.44,1.44,0,0,0-1.544-.873,1.721,1.721,0,0,0,.75,3.285,1.44,1.44,0,0,0,1.013-1.456,17.676,17.676,0,0,0,2.462-.4,13.7,13.7,0,0,0,3.1-1.026,11.646,11.646,0,0,0,.454,1.467l-.239.11a12.9,12.9,0,0,0-1.756.985,1.425,1.425,0,0,0-1.658-.578,1.841,1.841,0,0,0,1.5,3.193,1.425,1.425,0,0,0,.612-1.647,12.884,12.884,0,0,0,1.878-.725l.219-.1a11.725,11.725,0,0,0,.91,1.465,14.2,14.2,0,0,0-2.663,1.751,17.675,17.675,0,0,0-1.847,1.676,1.441,1.441,0,0,0-1.771-.116,1.721,1.721,0,0,0,2.1,2.634,1.44,1.44,0,0,0,.281-1.752,17.7,17.7,0,0,0,2.045-1.428,14.262,14.262,0,0,0,2.293-2.2,11.8,11.8,0,0,0,2.779,2.452,14.544,14.544,0,0,0-1.8,2.562,17.725,17.725,0,0,0-1.107,2.235,1.44,1.44,0,0,0-1.69.539,1.721,1.721,0,0,0,2.918,1.685,1.44,1.44,0,0,0-.379-1.733,15.843,15.843,0,0,0,.983-1.412,1.791,1.791,0,0,0,1.226,1.465,1.59,1.59,0,0,0,2.125-.574,1.425,1.425,0,0,0-.681-1.619,12.884,12.884,0,0,0,.873-1.814l.05-.129a11.709,11.709,0,0,0,3.385.61,14.729,14.729,0,0,0-.27,3.088,17.693,17.693,0,0,0,.158,2.489,1.687,1.687,0,0,0-.94.587,1.184,1.184,0,0,0-.254.724,1.72,1.72,0,0,0,3.369,0h0a1.44,1.44,0,0,0-1.195-1.311,17.734,17.734,0,0,0,.158-2.489,14.729,14.729,0,0,0-.27-3.088,11.684,11.684,0,0,0,4.462-1.035,14.651,14.651,0,0,0,1.1,2.915,17.727,17.727,0,0,0,1.223,2.174,1.441,1.441,0,0,0-.507,1.7,1.72,1.72,0,0,0,3.035-1.462,1.44,1.44,0,0,0-1.646-.663,17.638,17.638,0,0,0-.937-2.311,14.6,14.6,0,0,0-1.6-2.682q.477-.254.927-.549l.092.128a12.875,12.875,0,0,0,1.3,1.54,1.425,1.425,0,0,0-.258,1.737,1.841,1.841,0,0,0,2.855-2.074,1.425,1.425,0,0,0-1.732-.292,12.923,12.923,0,0,0-1.064-1.709l-.1-.138a11.794,11.794,0,0,0,1.532-1.542,14.261,14.261,0,0,0,2.293,2.2,17.7,17.7,0,0,0,2.045,1.428,1.44,1.44,0,0,0,.28,1.752,1.721,1.721,0,0,0,2.1-2.634,1.44,1.44,0,0,0-1.771.116,17.655,17.655,0,0,0-1.848-1.676,14.194,14.194,0,0,0-2.663-1.751,11.766,11.766,0,0,0,.907-1.459l.207.1a12.873,12.873,0,0,0,1.878.725,1.426,1.426,0,0,0,.612,1.647,1.841,1.841,0,0,0,1.5-3.193,1.425,1.425,0,0,0-1.659.578,12.874,12.874,0,0,0-1.756-.985l-.227-.1a11.626,11.626,0,0,0,.456-1.472,13.709,13.709,0,0,0,3.1,1.026,17.71,17.71,0,0,0,2.462.4,1.44,1.44,0,0,0,1.013,1.456,1.72,1.72,0,0,0,.75-3.284Zm-7.253-10.9a2.1,2.1,0,0,0,.093.376,12.891,12.891,0,0,0-1.772.954q-.193.123-.376.247c-.061-.081-.122-.162-.184-.242A10.085,10.085,0,0,0,2028.818,126.942Zm-16.562,19.319a12.894,12.894,0,0,0-.605,1.92,1.78,1.78,0,0,0-1.114.172,13.789,13.789,0,0,0,1.155-2.547q.3.167.62.317Z" transform="translate(-1291.579 147.959)" fill="#dd726a" opacity="0.769"/>
  </g>
</svg>
