<?xml version="1.0" encoding="utf-8"?>
<!-- Generator: Adobe Illustrator 22.0.1, SVG Export Plug-In . SVG Version: 6.00 Build 0)  -->
<svg version="1.1" id="Capa_1" xmlns="http://www.w3.org/2000/svg" xmlns:xlink="http://www.w3.org/1999/xlink" x="0px" y="0px"
	 viewBox="0 0 435 198" style="enable-background:new 0 0 435 198;" xml:space="preserve">
<style type="text/css">
	.st0{fill:#EFEFEF;}
	.st1{opacity:0.22;enable-background:new    ;}
	.st2{opacity:0.3;enable-background:new    ;}
	.st3{fill:#404040;}
	.st4{fill:#696969;}
	.st5{fill:#5A5A5A;}
	.st6{fill:#767676;}
	.st7{fill:#2C2C2C;}
	.st8{fill:#808080;}
	.st9{fill:#48DB87;}
	.st10{fill:#F5F5F5;}
	.st11{fill:#FF644F;}
	.st12{fill:#DEDEDE;}
	.st13{fill:#C9C9C9;}
	.st14{opacity:0.25;enable-background:new    ;}
	.st15{opacity:0.99;fill:#B55959;enable-background:new    ;}
	.st16{opacity:0.55;fill:#9E3939;enable-background:new    ;}
	.st17{fill:#F2BAB6;}
	.st18{fill:#EDA9A4;}
	.st19{fill:#F7CBC6;}
	.st20{fill:#EF8F99;}
	.st21{fill:#0683B5;}
	.st22{fill:#FFFFFF;}
	.st23{fill:#9EDAE8;}
	.st24{fill:#021416;}
	.st25{fill:#C1C1BD;}
	.st26{fill:#757572;}
	.st27{fill:#D88080;}
	.st28{opacity:0.47;fill:#665757;enable-background:new    ;}
	.st29{fill:#59BFD6;}
	.st30{fill:#707070;}
	.st31{clip-path:url(#SVGID_2_);}
	.st32{fill:#FFA988;}
	.st33{fill:#F88864;}
	.st34{fill:url(#Trazado_3993_1_);}
	.st35{fill:url(#Trazado_3994_1_);}
	.st36{fill:#F78B60;}
	.st37{fill:#FFBE9C;}
	.st38{fill:#C28168;}
	.st39{fill:#BB674B;}
	.st40{fill:#695841;}
	.st41{fill:#927B5A;}
	.st42{fill:#1D1D20;}
	.st43{fill:#875929;}
	.st44{fill:#A68B66;}
	.st45{fill:#CFAE7F;}
	.st46{fill:#53545D;}
	.st47{fill:#B67636;}
	.st48{fill:#A36B31;}
	.st49{fill:#5A3A32;}
	.st50{fill:#4A3029;}
	.st51{fill:#42434A;}
	.st52{fill:#613A13;}
	.st53{fill:#FFFFFB;}
	.st54{fill:#EA704C;}
	.st55{fill:none;stroke:#227D84;stroke-width:3;}
</style>
<g id="Grupo_4374" transform="translate(-595 -657)">
	<rect id="Rectángulo_937" x="595" y="657" class="st0" width="435" height="198"/>
	<g id="Grupo_3553" transform="translate(505.253 609.619)">
		<path id="Trazado_3307" class="st1" d="M336.2,189.1L336.2,189.1L336.2,189.1z"/>
		<path id="Trazado_3308" class="st1" d="M336.7,189.1h-0.1C336.6,189.1,336.6,189.1,336.7,189.1z"/>
		<path id="Trazado_3309" class="st1" d="M336.5,189.1h-0.1C336.4,189.1,336.4,189.1,336.5,189.1z"/>
		<path id="Trazado_3310" class="st2" d="M318.5,172.5l-19.2-6.1c-2.8-1-5.9-0.1-7.8,2.1c-0.9,1.3-1.4,2.9-1.3,4.4l0,0
			c0,0.1,0,0.3,0,0.4v0.1c0,0.1,0,0.2,0,0.3s0,0.1,0,0.2c0,0.1,0,0.2,0.1,0.2c0,0.1,0.1,0.2,0.1,0.4c0,0.1,0,0.1,0,0.2
			c0,0.1,0.1,0.2,0.1,0.2s0,0.1,0.1,0.1c0,0.1,0.1,0.2,0.1,0.3c0,0,0,0.1,0.1,0.1c0.1,0.3,0.3,0.6,0.4,0.8l0.1,0.1
			c0,0.1,0.1,0.1,0.1,0.2c0,0.1,0.1,0.1,0.1,0.2c0,0.1,0.1,0.1,0.1,0.2c0.1,0.1,0.1,0.2,0.2,0.2l0.1,0.1c0.1,0.1,0.2,0.2,0.3,0.3
			l0.1,0.1c0.1,0.1,0.2,0.2,0.2,0.3c1.1,1.1,2.4,1.9,3.8,2.4l22.4,6.9c1.6,0.5,3.4,0.5,5-0.1C316.9,182,317.8,175,318.5,172.5z"/>
		<path id="Trazado_3311" class="st3" d="M319.8,218.9h-60.2c-3.4,0-6.1-2.7-6.1-6.1c0-0.1,0-0.1,0-0.2V90.1c-0.1-3.3,2.5-6,5.8-6.1
			c0.1,0,0.2,0,0.3,0h60.2c3.5,0,6.7,2.7,6.7,6.1v122.5C326.3,216.2,323.4,218.9,319.8,218.9z"/>
		<g id="Grupo_3508" transform="translate(253.464 84.014)">
			<path id="Trazado_3312" class="st4" d="M0.6,128.6V6.1C0.5,2.8,3.1,0.1,6.4,0c0.1,0,0.2,0,0.3,0H6.1C2.8-0.1,0.1,2.5,0,5.8
				C0,5.9,0,6,0,6.1v122.5c-0.1,3.4,2.6,6.2,5.9,6.3c0.1,0,0.1,0,0.2,0h0.5c-3.3,0-6-2.8-6-6.1C0.6,128.7,0.6,128.6,0.6,128.6z"/>
			<path id="Trazado_3313" class="st4" d="M66.3,0h-0.5c3.5-0.1,6.4,2.6,6.5,6.1v122.5c-0.1,3.5-3,6.3-6.6,6.3h0.5
				c3.6,0.1,6.5-2.7,6.7-6.3V6.1C73,2.7,69.9,0,66.3,0z"/>
		</g>
		<g id="Grupo_3511" transform="translate(285.656 86.952)">
			<g id="Grupo_3509" transform="translate(2.716 0)">
				<path id="Trazado_3314" class="st5" d="M2,0c0.8,0.2,1.3,1,1.1,1.9C2.9,2.7,2,3.2,1.2,3s-1.3-1-1.1-1.9l0,0C0.3,0.3,1.2-0.2,2,0
					z"/>
				<path id="Trazado_3315" class="st6" d="M2.1,0C1.9,0,1.8,0,1.6,0C2.4,0,3.1,0.8,3,1.6C3,2.4,2.4,3,1.6,3.1
					c0.8,0,1.6-0.6,1.6-1.5C3.2,0.9,2.7,0.2,2.1,0L2.1,0z"/>
				<path id="Trazado_3316" class="st7" d="M1.3,3C0.5,2.8,0,2,0.2,1.1C0.4,0.5,0.9,0,1.6,0C0.8,0,0,0.6,0,1.5S0.6,3,1.5,3.1
					c0.1,0,0.1,0,0.2,0C1.5,3,1.4,3,1.3,3z"/>
			</g>
			<g id="Grupo_3510" transform="translate(0 117.757)">
				<path id="Trazado_3317" class="st5" d="M5.3,0.1c2.2,0.6,3.5,2.8,3,5c-0.6,2.2-2.8,3.5-5,3c-2.2-0.6-3.5-2.8-3-5
					C0.9,0.9,3.1-0.4,5.3,0.1L5.3,0.1z"/>
				<path id="Trazado_3318" class="st6" d="M5.5,0.1C5.1,0,4.7,0,4.3,0c2.3,0.1,4,2,3.9,4.3C8.1,6.4,6.4,8.1,4.3,8.2
					c2.3,0.1,4.2-1.6,4.3-3.9C8.7,2.4,7.4,0.6,5.5,0.1L5.5,0.1z"/>
				<path id="Trazado_3319" class="st7" d="M3.5,8.1c-2.2-0.6-3.5-2.8-3-5c0.4-1.7,2-3,3.8-3.1C2-0.1,0.1,1.6,0,3.9s1.6,4.2,3.9,4.3
					c0.1,0,0.3,0,0.4,0C4.1,8.2,3.8,8.2,3.5,8.1z"/>
			</g>
		</g>
		<rect id="Rectángulo_990" x="259.6" y="93.4" class="st8" width="60.3" height="106.1"/>
		<g id="Grupo_3514" transform="translate(266.089 160.571)">
			<g id="Grupo_3512" transform="translate(0 0.352)">
				<circle id="Elipse_671" class="st9" cx="11" cy="11" r="8.4"/>
				<path id="Trazado_3320" class="st10" d="M15.7,15.1l-0.4-2.4c0,0,0-0.1-0.1-0.1L13,12.3h-0.1l-1.2,1.2h-0.1l-3.1-3.1v-0.1
					l1.2-1.2V9L9.4,6.8c0,0,0-0.1-0.1-0.1C8.9,6.6,6.9,6.3,6.9,6.4C5.6,7.6,6.6,10.6,9,13S14.4,16.4,15.7,15.1L15.7,15.1L15.7,15.1z
					"/>
			</g>
			<g id="Grupo_3513" transform="translate(24.958 0)">
				<circle id="Elipse_672" class="st11" cx="11.4" cy="11.4" r="8.4"/>
				<path id="Trazado_3321" class="st10" d="M5.2,12.2l1.9,1.4h0.1L9,12.3c0,0,0,0,0-0.1v-1.7c0-0.1,0-0.1,0.1-0.1h4.3
					c0.1,0,0.1,0,0.1,0.1v1.7v0.1l1.8,1.3h0.1c0.3-0.2,1.9-1.4,1.9-1.5c0-1.8-2.8-3.2-6.2-3.2S5.2,10.5,5.2,12.2L5.2,12.2L5.2,12.2z
					"/>
			</g>
		</g>
		<g id="Grupo_3517" transform="translate(269.111 109.531)">
			<path id="Trazado_3323" class="st12" d="M20.6,41.3C9.2,41.3,0,32.1,0,20.6C0,9.2,9.2,0,20.6,0s20.6,9.2,20.6,20.6l0,0
				C41.3,32,32,41.3,20.6,41.3z M20.6,1.6c-10.5,0-19,8.5-19,19s8.5,19,19,19s19-8.5,19-19C39.7,10.1,31.1,1.6,20.6,1.6z"/>
			<g id="Grupo_3534" transform="translate(1.41 1.004)">
				<g id="Grupo_3533" transform="translate(0 0)">
					<circle id="Elipse_674" class="st13" cx="19.4" cy="19.4" r="19.4"/>
				</g>
			</g>
		</g>
		<path id="Trazado_3324" class="st14" d="M256.5,200.3c-0.2-0.5-0.4-0.8-0.5-1.1c0.2-0.6,0.4-1.1,0.6-1.6l0,0
			c-0.2,0.3-0.5,1-0.7,1.2c-0.4,0.5-1,0.7-1.6,0.8C255,199.5,256,199.4,256.5,200.3z"/>
		<path id="Trazado_3325" class="st14" d="M254.2,199.5L254.2,199.5z"/>
		<path id="Trazado_3326" class="st14" d="M256.7,200.7L256.7,200.7L256.7,200.7L256.7,200.7z"/>
		<path id="Trazado_3327" class="st14" d="M254.2,199.5L254.2,199.5z"/>
	</g>
	<g id="Grupo_3707" transform="translate(783.743 727)">
		<path id="Trazado_3762" class="st15" d="M17.5,10.8L17.5,10.8L17.5,10.8c0-0.2,0-0.4,0-0.6l0,0c0,0,0,0,0-0.1l0,0l0,0
			c0-0.1,0.1-0.2,0.1-0.3l0,0c0.2-0.4,0.4-1.1,0.6-1.7c0.1-0.2,0.1-0.3,0.1-0.5c0.1-0.3,0.1-0.5,0.1-0.8l0,0
			c0.3-1.3,0.1-2.7-0.4-3.9l0,0c-0.1-0.3-0.3-0.5-0.5-0.8l0,0c-0.3-0.4-0.6-0.7-0.9-0.9l0,0c-0.5-0.4-1-0.7-1.6-0.9l0,0
			c-0.3-0.1-0.5-0.2-0.8-0.2c-0.5-0.1-1-0.2-1.5-0.2c-0.1,0-0.2,0-0.3,0c-2.6,0-7,2.4-6.1,7c0.1,0.4,0.2,0.8,0.3,1.2
			C6.8,8.6,7,9,7.2,9.4v0.1l0,0C7.1,9.6,7,9.8,7,10l0,0c-0.7,1.6-2.8,5.9-3.5,7.8s0.8,3.1,3.2,3.7l0,0l0,0c0.2,0,0.3,0.1,0.5,0.1
			l0,0C8,21.8,8.8,22,9.7,22l0,0h0.1l0,0c0.2,0,0.4,0,0.7,0l0,0c0.8,0,1.6,0.1,2.4,0l0,0c0.3,0,0.6,0,0.8,0l0,0h0.1h0.1l0,0
			c1,0,1.9-0.1,2.9-0.3c0.4-0.1,0.8-0.1,1.1-0.2c0.1,0,0.3-0.1,0.4-0.1l0,0c1.6-0.4,2.6-0.9,2.7-1.5C21.1,18.7,17.8,12.9,17.5,10.8z
			"/>
		<path id="Trazado_3763" class="st16" d="M9,12.1c0,0-1.3-4.1-1.8-2.7c-0.4,1.3,1.2,4.7-0.1,8.5C6.2,20.4,9,21.8,9.9,22
			s3.9-1.3,5.4-1.4c5.1-0.3-0.2-5.4,2.3-10.5C18.5,8.3,9,12.1,9,12.1z"/>
		<path id="Trazado_3764" class="st17" d="M13.4,26.5l-3.6-0.1c-0.1,0-0.2-0.1-0.2-0.2l0,0l0.3-11.3c0-0.1,0.1-0.2,0.2-0.2l3.6,0.1
			c0.1,0,0.2,0.1,0.2,0.2l0,0l-0.3,11.3C13.6,26.5,13.5,26.5,13.4,26.5z"/>
		<ellipse id="Elipse_701" class="st18" cx="18" cy="9.1" rx="1.2" ry="1"/>
		<ellipse id="Elipse_702" class="st18" cx="6.7" cy="9.1" rx="1" ry="0.9"/>
		<ellipse id="Elipse_703" class="st18" cx="18" cy="9.1" rx="1.2" ry="1"/>
		
			<ellipse id="Elipse_704" transform="matrix(0.1177 -0.993 0.993 0.1177 2.3966 20.1138)" class="st19" cx="12.5" cy="8.7" rx="7.8" ry="5.3"/>
		<path id="Trazado_3765" class="st16" d="M13.8,3.4c0,1.6,1,1.9,1.9,2.7c0.6,0.6,1.4,1.1,2.2,1.5L13.8,3.4L13.8,3.4L13.8,3.4z"/>
		<path id="Trazado_3766" class="st15" d="M18,8.1c-0.8-0.9-1.8-1.8-2.8-2.5c-0.7-0.4-1.3-1-1.5-1.8C13.4,4,13.1,5.2,12,5.6
			c-1.6,0.5-4,0.3-4.6,2.6C5.8,5,7.8,0.5,13.2,0.5C18.5,0.5,20,5.1,18,8.1z"/>
		<path id="Trazado_3767" class="st20" d="M13.1,11.7L13.1,11.7c-0.3,0-0.6-0.2-0.7-0.5v-0.1l0.2-1.6c0-0.1,0.2-0.2,0.3-0.2l0,0
			c0.2,0,0.3,0,0.4,0.1l0.4,1.5c0.1,0.3-0.1,0.6-0.5,0.7C13.2,11.7,13.2,11.7,13.1,11.7z"/>
		<path id="Trazado_3768" class="st20" d="M12.7,14.8l-1.4-0.7l0,0l0,0l0.2-0.4l0,0l1.4,0.7l0,0l0,0L12.7,14.8L12.7,14.8z"/>
		<path id="Trazado_3769" class="st20" d="M12.4,14.5l1.3-0.8l0,0L14,14l0,0l0,0l-1.3,0.8l0,0L12.4,14.5L12.4,14.5L12.4,14.5z"/>
		<path id="Trazado_3770" class="st21" d="M14,33.2c0,0-1.1,0.1-1.6,0.1h-0.1c-0.1,0-0.2,0-0.3,0c-0.6,0-1.2,0-1.7-0.1l-0.7-0.1
			v-2.7v-0.8l0,0v-3.2l0,0v-2v-0.1l0,0v-0.1l0,0v-0.1l0,0V22v-0.1v-0.2v-0.4l0,0v-0.7v-0.2v0.1l0,0c0,0.5,0.3,1,0.7,1.4l0.1,0.1l0,0
			c0.4,0.3,0.8,0.4,1.2,0.4s0.8-0.1,1.1-0.4l0,0c0.1-0.1,0.2-0.2,0.3-0.3c0.2-0.2,0.4-0.5,0.5-0.8c0-0.1,0.1-0.3,0.1-0.4l0,0
			c0-0.1,0-0.1,0-0.2l0,0v0.6V22v1.9V24v0.2v2.4l0,0v0.2l0,0v0.8l0,0L14,33.2z"/>
		<g id="Grupo_3684" transform="translate(0 20.616)">
			<path id="Trazado_3771" class="st22" d="M9.5,12.5c-3.1-0.5-6.1-1.9-8.4-4C0.7,8.2,0.4,7.8,0,7.5l0.6-2.2C1,3.7,3,2,5.3,1.3
				l0.4-0.1l0,0l1-0.3l0,0l0.7-0.2l0,0l0.8-0.2l0,0l0.3-0.1h0.1l1-0.4l0,0v0.1v0.2V1l0,0v0.1v0.2v0.1l0.1,2v0.1l0,0l0,0l0,0v0.1
				l0.1,2.1L10,9.4l0,0v0.8l0.1,2.2l0,0L9.5,12.5z"/>
			<g id="Grupo_3683" transform="translate(5.294)">
				<path id="Trazado_3772" class="st23" d="M4.7,3.7H4.5L3.6,4L0.3,5L0,1.3L4.3,0l0.2,3.6l0.2-0.1V3.7z"/>
				<path id="Trazado_3773" class="st23" d="M4.9,10.4L4.9,10.4L0.3,5.2l3.3-1.4l0.9-0.4l0.2-0.1v0.1L4.9,10.4z"/>
				<path id="Trazado_3774" class="st22" d="M4.7,3.6l-4,1.2L0.4,1.2l4-1.2L4.7,3.6z"/>
				<path id="Trazado_3775" class="st22" d="M4.9,9.7L0.7,5.1l4-1.7L4.9,9.7z"/>
			</g>
		</g>
		<path id="Trazado_3776" class="st22" d="M24,28.6c-0.4,0.3-0.7,0.7-1.1,1c-2.5,2-5.6,3.3-8.8,3.6l-0.1-3l-0.1-6v-0.1V24l-0.1-3.1
			v-0.6l0,0l1.2,0.3l0,0l0,0h0.1l1.4,0.4l0,0l1.4,0.4l0,0l0.4,0.1l0,0c2.3,0.6,4.3,2.3,4.8,3.9L24,28.6z"/>
		<g id="Grupo_3685" transform="translate(13.66 20.332)">
			<path id="Trazado_3777" class="st23" d="M0,3.9h0.2l0.9,0.2L4.4,5l0.1-3.9L0.1,0l0.1,3.8H0V3.9z"/>
			<path id="Trazado_3778" class="st23" d="M0.3,10.8L0.3,10.8l4.1-5.5L1.1,4L0.2,3.7L0,3.6v0.1L0.3,10.8z"/>
			<path id="Trazado_3779" class="st22" d="M0,3.8l4,1L4.1,1L0,0V3.8z"/>
			<path id="Trazado_3780" class="st22" d="M0.3,10L4,5.2L0,3.7L0.3,10z"/>
		</g>
		<g id="Grupo_3693" transform="translate(5.748 18.559)">
			<g id="Grupo_3686" transform="translate(0.535 0.243)">
				<path id="Trazado_3781" class="st24" d="M0.7,9c-1.5-1.8-0.3-6.2,1-7.7c0.5-0.6,1.1-1,1.7-1.3l0.1,0.2C2.9,0.5,2.3,0.9,1.8,1.4
					C1.1,2.5,0.5,3.8,0.3,5.1C0,6.8,0.2,8.2,0.8,8.9L0.7,9z"/>
			</g>
			<g id="Grupo_3692">
				<g id="Grupo_3687" transform="translate(7.992)">
					<path id="Trazado_3782" class="st24" d="M3.2,7H3c0.4-3.5-0.5-5.7-2.6-6.7C0.3,0.2,0.2,0.2,0,0.2V0c0.2,0,0.4,0.1,0.6,0.1
						C2.8,1.2,3.6,3.5,3.2,7z"/>
				</g>
				<g id="Grupo_3691" transform="translate(0 6.777)">
					<g id="Grupo_3689" transform="translate(0 1.457)">
						<g id="Grupo_3688">
							<ellipse id="Elipse_705" class="st25" cx="1.3" cy="1.2" rx="1.3" ry="1.2"/>
						</g>
						<ellipse id="Elipse_706" class="st26" cx="1.3" cy="1.2" rx="0.7" ry="0.6"/>
					</g>
					<g id="Grupo_3690" transform="translate(6.389)">
						<path id="Trazado_3783" class="st24" d="M4.3,6H4.1V5.8h0.2c0.2,0,0.4-0.1,0.5-0.3c0.3-1.1,1.4-4.6-0.2-5.2
							C4,0.1,3.4,0.2,3,0.5C1.6,1.4,0.6,2.7,0.2,4.3c0,0.2,0.1,0.4,0.2,0.4l0.2,0.1L0.5,5L0.3,4.9C0.1,4.8,0,4.5,0,4.2
							c0.5-1.6,1.5-3,2.9-3.9C3.4,0,4-0.1,4.6,0.1c1.7,0.6,0.8,4,0.3,5.4C4.9,5.8,4.6,6,4.3,6z"/>
					</g>
					<path id="Trazado_3784" class="st26" d="M7.4,5c0,0.2-0.1,0.4-0.3,0.4c-0.2,0-0.4-0.1-0.4-0.3c0-0.2,0.1-0.4,0.3-0.4l0,0
						C7.2,4.6,7.4,4.8,7.4,5z"/>
					<path id="Trazado_3785" class="st26" d="M10.9,5.9c0,0.2-0.1,0.4-0.3,0.4S10.2,6.2,10.2,6c0-0.2,0.1-0.4,0.3-0.4l0,0
						C10.7,5.5,10.9,5.7,10.9,5.9z"/>
				</g>
			</g>
		</g>
		<path id="Trazado_3786" class="st27" d="M4.5,16.4c0,0-1.7,2.8,0,3.5C4.1,18.8,4.1,17.5,4.5,16.4z"/>
		<path id="Trazado_3787" class="st27" d="M17.8,13.8c0,0,1.2,1.3,1.2,2.1L17.8,13.8z"/>
		<path id="Trazado_3788" class="st27" d="M11,1.2c-1.5,0.9-2.9,2-4.1,3.1C6.9,4.3,8.9,1.6,11,1.2z"/>
		<path id="Trazado_3789" class="st27" d="M18.1,5.2c0.2,0.6,0.2,1.3,0,1.9V5.2z"/>
		<path id="Trazado_3790" class="st27" d="M11,2.9C10.1,3.4,9.3,4,8.5,4.8C9.1,3.9,10,3.2,11,2.9z"/>
		<path id="Trazado_3791" class="st27" d="M14.6,1c1.1,1.3,2,2.7,2.7,4.1C17.3,5.2,16.4,2,14.6,1z"/>
		<path id="Trazado_3792" class="st27" d="M14.5,1.8c0,0,1.2,1.3,1.2,2.1L14.5,1.8z"/>
		<g id="Grupo_3694" transform="translate(10.178 8.001)">
			<path id="Trazado_3793" d="M0.8,0.6c0,0.2-0.1,0.4-0.2,0.6c0,0.1-0.1,0.1-0.2,0.1C0.2,1.3,0,1,0,0.6C0,0.3,0.2,0,0.4,0
				c0,0,0,0,0.1,0s0.2,0.1,0.3,0.2c-0.1,0-0.1,0.1-0.1,0.1c0,0.1,0.1,0.1,0.1,0.1s0,0,0.1,0C0.8,0.5,0.8,0.6,0.8,0.6z"/>
			<path id="Trazado_3794" class="st28" d="M0.6,1.2c0,0.1-0.1,0.1-0.2,0.1C0.2,1.3,0,1,0,0.6C0,0.3,0.1,0,0.4,0
				C0.2,0.2,0.1,0.5,0.2,0.8C0.3,1,0.4,1.2,0.6,1.2z"/>
		</g>
		<g id="Grupo_3695" transform="translate(14.594 8.004)">
			<path id="Trazado_3795" d="M0.8,0.6c0,0.2-0.1,0.4-0.2,0.6c0,0.1-0.1,0.1-0.2,0.1C0.2,1.3,0,1,0,0.6C0,0.3,0.2,0,0.4,0
				c0,0,0,0,0.1,0s0.2,0.1,0.3,0.2c-0.1,0-0.1,0.1-0.1,0.1c0,0.1,0.1,0.1,0.1,0.1s0,0,0.1,0C0.8,0.5,0.8,0.6,0.8,0.6z"/>
			<path id="Trazado_3796" class="st28" d="M0.6,1.2c0,0.1-0.1,0.1-0.2,0.1C0.2,1.3,0,1,0,0.6C0,0.3,0.1,0,0.4,0
				C0.2,0.2,0.1,0.5,0.2,0.8C0.3,1,0.4,1.2,0.6,1.2z"/>
		</g>
	</g>
	<path id="Trazado_4816" class="st29" d="M890.7,722.1c-0.2-0.8-0.7-1.5-1.5-1.9c-0.5-0.2-1-0.3-1.5-0.3c-1,0-1.9,0.4-2.6,1.2
		c-0.7,1-1.1,2.3-1,3.6c-0.1,1.2,0.3,2.5,1.1,3.4c0.7,0.6,1.6,1,2.5,1c0.8,0,1.6-0.2,2.2-0.8c0.6-0.5,1-1.3,1.1-2.1h-3V724h5.4v7
		h-1.8l-0.3-1.6c-0.4,0.5-0.9,0.9-1.4,1.3c-0.8,0.5-1.7,0.7-2.6,0.7c-1.6,0.1-3.1-0.6-4.2-1.8c-1.2-1.3-1.8-3.1-1.7-4.9
		c-0.1-1.8,0.5-3.6,1.7-5c1.2-1.3,2.8-2,4.6-1.9c1.4-0.1,2.8,0.4,4,1.3c1,0.8,1.6,1.9,1.7,3.1L890.7,722.1L890.7,722.1z
		 M905.6,720.3h-6.9v2.8h6.3v2.2h-6.3v3.3h7.2v2.3h-9.8v-13h9.5V720.3z M910,727c0,0.5,0.2,0.9,0.5,1.3c0.6,0.6,1.4,0.9,2.3,0.8
		c0.5,0,1.1-0.1,1.6-0.2c0.7-0.2,1.2-0.8,1.1-1.5c0-0.4-0.2-0.8-0.6-1c-0.6-0.3-1.1-0.5-1.8-0.6l-1.4-0.3c-1-0.2-1.9-0.5-2.8-1
		c-0.9-0.6-1.4-1.7-1.3-2.8c0-1.1,0.4-2.2,1.3-2.9c1-0.8,2.4-1.2,3.7-1.2s2.5,0.3,3.5,1.1c1,0.7,1.5,1.9,1.5,3.1H915
		c0-0.7-0.4-1.3-1-1.7c-0.5-0.2-1-0.3-1.6-0.3s-1.2,0.1-1.7,0.4c-0.4,0.3-0.6,0.7-0.6,1.2c0,0.4,0.2,0.8,0.6,1
		c0.5,0.2,1.1,0.4,1.7,0.5l2.2,0.5c0.8,0.2,1.6,0.5,2.2,0.9c0.8,0.6,1.2,1.6,1.2,2.6c0,1.1-0.5,2.2-1.4,3c-1.1,0.8-2.5,1.3-3.8,1.2
		c-1.4,0.1-2.8-0.3-4-1.2c-1-0.8-1.5-1.9-1.5-3.2h2.7V727z M929.5,718v2.3h-3.9V731h-2.7v-10.7H919V718H929.5z M936.5,729.1
		c1,0,1.9-0.4,2.5-1.2c0.7-1,1-2.2,0.9-3.4c0.1-1.2-0.3-2.4-0.9-3.4c-0.6-0.8-1.6-1.2-2.6-1.2s-1.9,0.4-2.6,1.2c-0.7,1-1,2.2-1,3.4
		c-0.1,1.2,0.3,2.4,1,3.4C934.5,728.7,935.5,729.1,936.5,729.1L936.5,729.1z M942.7,724.5c0.1,2-0.6,3.9-2,5.3
		c-1.1,1.1-2.7,1.6-4.2,1.5c-1.6,0.1-3.1-0.4-4.2-1.5c-1.4-1.4-2.1-3.4-2-5.3c-0.1-2,0.6-3.9,2-5.3c1.1-1.1,2.7-1.6,4.2-1.5
		c1.6-0.1,3.1,0.4,4.2,1.5C942.1,720.6,942.8,722.5,942.7,724.5z M947.4,720.3v3.5h3.1c0.5,0,0.9,0,1.4-0.2c0.6-0.3,0.9-0.9,0.8-1.5
		c0.1-0.6-0.2-1.3-0.8-1.6c-0.4-0.2-0.9-0.3-1.3-0.2H947.4z M951.1,718c0.7,0,1.4,0.1,2.1,0.3c0.5,0.2,0.9,0.5,1.2,0.9
		c0.3,0.3,0.5,0.7,0.7,1.1c0.2,0.4,0.3,0.9,0.2,1.4c0,0.6-0.2,1.3-0.5,1.8c-0.3,0.6-0.9,1.1-1.5,1.3c0.5,0.2,1,0.5,1.3,1
		c0.3,0.6,0.4,1.3,0.4,2v0.9c0,0.4,0,0.8,0.1,1.2c0.1,0.3,0.2,0.6,0.5,0.7v0.3h-3c-0.1-0.3-0.1-0.5-0.2-0.7
		c-0.1-0.4-0.1-0.7-0.1-1.1v-1.2c0.1-0.6-0.1-1.2-0.5-1.7c-0.5-0.3-1.1-0.5-1.6-0.4h-2.8v5.1h-2.6v-13L951.1,718z M961.3,726.1h3.3
		L963,721L961.3,726.1z M961.4,718h3.1l4.6,13h-2.9l-0.8-2.7h-4.8l-0.9,2.7h-2.8L961.4,718z M862,746.6c-0.1-1.9,0.5-3.8,1.8-5.2
		c1.1-1.1,2.5-1.6,4-1.6c1.9-0.1,3.7,0.7,4.8,2.1c0.5,0.7,0.8,1.5,0.9,2.4h-2.7c-0.1-0.5-0.4-1-0.7-1.4c-0.6-0.6-1.4-0.9-2.2-0.8
		c-0.9,0-1.8,0.4-2.3,1.2c-0.6,1-0.9,2.2-0.9,3.4c-0.1,1.2,0.2,2.3,0.9,3.3c0.6,0.7,1.4,1.1,2.3,1.1c0.8,0.1,1.6-0.3,2.2-0.9
		c0.3-0.4,0.6-1,0.7-1.5h2.7c-0.2,1.3-0.8,2.5-1.8,3.4s-2.3,1.4-3.7,1.3c-1.7,0.1-3.3-0.6-4.4-1.8
		C862.4,750.2,861.9,748.4,862,746.6z M881.3,751.1c1,0,1.9-0.4,2.6-1.2c0.7-1,1-2.2,0.9-3.4c0.1-1.2-0.3-2.4-0.9-3.4
		c-0.6-0.8-1.6-1.2-2.6-1.2s-2,0.4-2.6,1.2c-0.7,1-1,2.2-1,3.4c-0.1,1.2,0.3,2.4,1,3.4C879.3,750.7,880.3,751.1,881.3,751.1z
		 M887.5,746.5c0.1,2-0.6,3.9-2,5.3c-1.1,1.1-2.7,1.6-4.2,1.5c-1.6,0.1-3.1-0.4-4.2-1.5c-1.4-1.4-2.1-3.4-2-5.3
		c-0.2-2,0.6-3.9,2-5.3c1.1-1.1,2.7-1.6,4.2-1.5c1.6-0.1,3.1,0.4,4.2,1.5C886.9,742.6,887.6,744.5,887.5,746.5L887.5,746.5z
		 M898.1,740h3.9v13h-2.5v-8.8c0-0.3,0-0.6,0-1.1s0-0.8,0-1L897,753h-2.6l-2.4-10.9c0,0.2,0,0.6,0,1c0,0.5,0,0.8,0,1.1v8.8h-2.5v-13
		h3.9l2.4,10.2L898.1,740z M904.5,740h2.8v8c0,0.7,0.1,1.3,0.3,2c0.4,0.8,1.3,1.2,2.1,1.1c0.9,0.1,1.7-0.3,2.1-1.1
		c0.2-0.6,0.4-1.3,0.3-2v-8h2.8v8c0.1,1.1-0.2,2.2-0.6,3.2c-0.8,1.4-2.3,2.1-4.6,2.1s-3.8-0.7-4.6-2.1c-0.5-1-0.7-2.1-0.6-3.2V740z
		 M917.5,740h2.8l5.2,9v-9h2.5v13h-2.7l-5.3-9.2v9.2h-2.5V740z M933,753h-2.7v-13h2.7V753z M944.9,740v2.3H941V753h-2.7v-10.7h-3.9
		V740H944.9z M948.7,748.1h3.3l-1.6-5.1L948.7,748.1z M948.9,740h3.1l4.6,13h-2.9l-0.8-2.7H948l-0.9,2.7h-2.8L948.9,740z
		 M960.9,742.3v3.5h3.1c0.5,0,0.9,0,1.4-0.2c0.6-0.3,0.9-0.9,0.8-1.5c0.1-0.6-0.2-1.3-0.8-1.6c-0.4-0.2-0.9-0.3-1.3-0.2H960.9z
		 M964.6,740c0.7,0,1.4,0.1,2.1,0.3c0.5,0.2,0.9,0.5,1.2,0.9c0.3,0.3,0.5,0.7,0.7,1.1c0.2,0.4,0.3,0.9,0.2,1.4
		c0,0.6-0.2,1.3-0.5,1.8c-0.3,0.6-0.9,1.1-1.5,1.3c0.5,0.2,1,0.5,1.3,1c0.3,0.6,0.4,1.3,0.4,2v0.9c0,0.4,0,0.8,0.1,1.2
		c0.1,0.3,0.2,0.6,0.5,0.7v0.3h-3c-0.1-0.3-0.1-0.5-0.2-0.7c-0.1-0.4-0.1-0.7-0.1-1.1v-1.2c0.1-0.6-0.1-1.2-0.5-1.7
		c-0.5-0.3-1.1-0.5-1.6-0.4h-2.8v5.1h-2.6v-13h6.3V740z M973.7,753H971v-13h2.7V753z M883,764.3v8.5h2.5c1.2,0,2.3-0.7,2.7-1.9
		c0.3-0.8,0.4-1.6,0.4-2.5c0.1-1-0.2-2.1-0.6-3c-0.6-0.8-1.5-1.2-2.5-1.1H883z M886,762c0.7,0,1.4,0.1,2,0.3
		c0.9,0.3,1.7,0.9,2.2,1.6c0.4,0.6,0.8,1.3,0.9,2.1c0.2,0.7,0.2,1.4,0.2,2.1c0,1.5-0.3,3-1,4.4c-0.9,1.6-2.6,2.5-4.3,2.4h-5.6v-13
		h5.6V762z M903,764.3h-6.9v2.8h6.3v2.2h-6.3v3.3h7.2v2.3h-9.8v-13h9.5V764.3z M912.3,771c0,0.5,0.2,0.9,0.5,1.3
		c0.6,0.6,1.4,0.9,2.3,0.8c0.5,0,1.1-0.1,1.6-0.2c0.7-0.2,1.2-0.8,1.1-1.5c0-0.4-0.2-0.8-0.6-1c-0.6-0.3-1.2-0.5-1.8-0.6l-1.4-0.3
		c-1-0.2-1.9-0.5-2.8-1c-0.9-0.6-1.4-1.7-1.3-2.8c0-1.1,0.4-2.2,1.3-2.9c1.1-0.8,2.4-1.2,3.7-1.2s2.5,0.3,3.5,1.1
		c1,0.7,1.5,1.9,1.5,3.1h-2.6c0-0.7-0.4-1.3-1-1.7c-0.5-0.2-1-0.3-1.6-0.3s-1.2,0.1-1.7,0.4c-0.4,0.3-0.6,0.7-0.6,1.2
		c0,0.4,0.2,0.8,0.6,1c0.5,0.2,1.1,0.4,1.7,0.5l2.2,0.5c0.8,0.2,1.6,0.5,2.2,0.9c0.8,0.6,1.2,1.6,1.2,2.6c0,1.1-0.5,2.2-1.4,2.9
		c-1.1,0.8-2.5,1.3-3.8,1.2c-1.4,0.1-2.8-0.3-4-1.2c-1-0.8-1.5-1.9-1.4-3.2h2.6V771z M925.9,770.1h3.3l-1.6-5.1L925.9,770.1z
		 M926.1,762h3.1l4.6,13h-2.9l-0.8-2.7h-4.8l-0.9,2.7h-2.8L926.1,762z M935.4,762h2.7v10.6h6.4v2.3h-9.1L935.4,762L935.4,762z
		 M946.4,762h2.8v8c0,0.7,0.1,1.3,0.3,2c0.4,0.8,1.3,1.2,2.1,1.1c0.9,0.1,1.7-0.3,2.1-1.1c0.2-0.6,0.4-1.3,0.3-2v-8h2.7v8
		c0.1,1.1-0.2,2.2-0.6,3.2c-0.8,1.4-2.3,2.1-4.6,2.1s-3.8-0.7-4.6-2.1c-0.5-1-0.7-2.1-0.6-3.2L946.4,762z M962,764.3v8.5h2.5
		c1.2,0,2.3-0.7,2.7-1.9c0.3-0.8,0.4-1.6,0.4-2.5c0.1-1-0.2-2.1-0.6-3c-0.6-0.8-1.5-1.2-2.5-1.1H962z M965,762c0.7,0,1.4,0.1,2,0.3
		c0.9,0.3,1.7,0.9,2.2,1.6c0.4,0.6,0.8,1.3,0.9,2.1c0.2,0.7,0.2,1.4,0.2,2.1c0.1,1.5-0.3,3-1,4.4c-0.9,1.6-2.6,2.5-4.3,2.4h-5.6v-13
		h5.6V762z M979.6,748h3.3l-1.6-5.1L979.6,748z M979.7,739.9h3.1l4.6,13h-2.9l-0.8-2.7h-4.8l-0.9,2.7h-2.8L979.7,739.9z"/>
	<path id="Trazado_4817" class="st30" d="M863.4,791.9v1.8h-3v8.3h-2.1v-8.3h-3v-1.8H863.4z M873.6,793.7h-5.3v2.1h4.9v1.8h-4.9v2.6
		h5.6v1.8h-7.6v-10.1h7.4L873.6,793.7z M877,791.9h2.1v8.3h5v1.8H877V791.9z M894.6,793.7h-5.3v2.1h4.9v1.8h-4.9v2.6h5.6v1.8h-7.6
		v-10.1h7.4v1.8H894.6z M904.7,791.9h3V802h-2v-6.8c0-0.2,0-0.5,0-0.8c0-0.4,0-0.6,0-0.8l-1.9,8.5h-2l-1.9-8.5c0,0.2,0,0.5,0,0.8
		s0,0.6,0,0.8v6.8h-2v-10.1h3.1l1.8,7.9L904.7,791.9z M915.7,800.5c0.8,0,1.5-0.3,2-0.9c0.5-0.8,0.8-1.7,0.7-2.6
		c0.1-0.9-0.2-1.9-0.7-2.6c-0.5-0.6-1.2-1-2-0.9c-0.8,0-1.5,0.3-2,0.9c-0.5,0.8-0.8,1.7-0.7,2.6c-0.1,0.9,0.2,1.9,0.7,2.6
		C914.1,800.2,914.9,800.5,915.7,800.5z M920.5,797c0.1,1.5-0.5,3-1.5,4.1c-0.9,0.8-2.1,1.3-3.3,1.2c-1.2,0.1-2.4-0.3-3.3-1.2
		c-1.1-1.1-1.6-2.6-1.5-4.2c-0.1-1.5,0.4-3.1,1.5-4.2c0.9-0.8,2.1-1.3,3.3-1.2c1.2-0.1,2.4,0.3,3.3,1.2
		C920.1,793.9,920.6,795.4,920.5,797L920.5,797z M923.6,791.9h2.2l4,7v-7h2V802h-2.1l-4.1-7.2v7.2h-2L923.6,791.9L923.6,791.9z
		 M937.2,802h-2.1v-10.1h2.1V802z M948,791.9v1.8h-3v8.3h-2.1v-8.3h-3v-1.8H948z M955,800.5c0.8,0,1.5-0.3,2-0.9
		c0.5-0.8,0.8-1.7,0.7-2.6c0.1-0.9-0.2-1.9-0.7-2.6c-0.5-0.6-1.2-1-2-0.9c-0.8,0-1.5,0.3-2,0.9c-0.5,0.8-0.8,1.7-0.7,2.6
		c-0.1,0.9,0.2,1.9,0.7,2.6C953.5,800.2,954.2,800.5,955,800.5z M959.8,797c0.1,1.5-0.5,3-1.5,4.1c-0.9,0.8-2.1,1.3-3.3,1.2
		c-1.2,0.1-2.4-0.3-3.3-1.2c-1.1-1.1-1.6-2.6-1.5-4.2c-0.1-1.5,0.4-3.1,1.5-4.2c0.9-0.8,2.1-1.3,3.3-1.2c1.2-0.1,2.4,0.3,3.3,1.2
		C959.4,793.9,960,795.4,959.8,797L959.8,797z M965.1,793.7v2.7h2.4c0.4,0,0.7,0,1.1-0.2c0.4-0.2,0.7-0.7,0.6-1.1
		c0.1-0.5-0.2-1-0.6-1.2c-0.3-0.1-0.7-0.2-1-0.2H965.1z M968,791.9c0.6,0,1.1,0.1,1.6,0.3c0.4,0.2,0.7,0.4,1,0.7
		c0.2,0.3,0.4,0.5,0.5,0.8s0.2,0.7,0.2,1.1c0,0.5-0.1,1-0.4,1.4c-0.3,0.5-0.7,0.8-1.2,1c0.4,0.1,0.8,0.4,1,0.8
		c0.2,0.5,0.3,1,0.3,1.6v0.7c0,0.3,0,0.6,0.1,0.9c0,0.2,0.2,0.4,0.4,0.6v0.3h-2.3c-0.1-0.2-0.1-0.4-0.1-0.5
		c-0.1-0.3-0.1-0.6-0.1-0.9v-0.9c0-0.5-0.1-0.9-0.4-1.3c-0.4-0.3-0.8-0.4-1.3-0.3h-2.2v4H963v-10.1h5V791.9z M982.1,793.7h-5.3v2.1
		h4.9v1.8h-4.9v2.6h5.6v1.8h-7.6v-10.1h7.4L982.1,793.7z M990,800.5c0.8,0,1.5-0.3,2-0.9c0.5-0.8,0.8-1.7,0.7-2.6
		c0.1-0.9-0.2-1.9-0.7-2.6c-0.5-0.6-1.2-1-2-0.9c-0.8,0-1.5,0.3-2,0.9c-0.5,0.8-0.8,1.7-0.7,2.6c-0.1,0.9,0.2,1.9,0.7,2.6
		C988.5,800.2,989.2,800.5,990,800.5z M994.8,796.9c0.1,1.5-0.4,3-1.5,4.2c-0.9,0.8-2.1,1.3-3.3,1.2c-1.2,0.1-2.4-0.3-3.3-1.2
		c-1.1-1.1-1.6-2.6-1.5-4.2c-0.1-1.5,0.4-3.1,1.5-4.2c0.9-0.8,2.1-1.3,3.3-1.2c1.2-0.1,2.4,0.3,3.3,1.2
		C994.4,793.9,994.9,795.4,994.8,796.9z"/>
	<g id="Grupo_3817" transform="translate(1279.034 296.609)">
		<g>
			<g>
				<defs>
					<rect id="SVGID_1_" x="-605" y="383.4" width="72.3" height="174.1"/>
				</defs>
				<clipPath id="SVGID_2_">
					<use xlink:href="#SVGID_1_"  style="overflow:visible;"/>
				</clipPath>
				<g id="Grupo_3815" class="st31">
					<g id="Grupo_3814">
						<path id="Trazado_3990" class="st32" d="M-559.6,470.9c0,0,8.4,9.2,12,14.6c1.8,3,3.2,6.1,4.2,9.5l-10.7-2.1l-2.1-17.6
							L-559.6,470.9z"/>
						<path id="Trazado_3991" class="st32" d="M-565.9,453.4c-5.8,0.5-14.6-7.9-14-8.5c1.3-1.3,3.1-9.1,3.1-13.9
							c0-4.9-1.3-6.5-1.3-6.5l6.9-3.9l6,13.2c0,0-0.8,6.5-1,9.2c-0.1,1.9,0.5,4.3,3.2,8.3C-564.5,453.5-563.4,453.1-565.9,453.4z"/>
						<path id="Trazado_3992" class="st33" d="M-571.9,429.1c-2.5,4.2,2.4,11,5.8,13.8c0.3-1.9,1.9-4.7,2.3-6.6
							C-565.8,435-571.9,432-571.9,429.1z"/>
						
							<linearGradient id="Trazado_3993_1_" gradientUnits="userSpaceOnUse" x1="-260.7014" y1="118277.8984" x2="18.0526" y2="118277.8984" gradientTransform="matrix(0.111 0 0 5.004883e-03 -555.8487 -159.167)">
							<stop  offset="0" style="stop-color:#FFAA7D"/>
							<stop  offset="1" style="stop-color:#FFB38A"/>
						</linearGradient>
						<path id="Trazado_3993" class="st34" d="M-551.1,432.8L-551.1,432.8L-551.1,432.8L-551.1,432.8L-551.1,432.8z"/>
						
							<linearGradient id="Trazado_3994_1_" gradientUnits="userSpaceOnUse" x1="-1258.6542" y1="21131.0742" x2="-1196.28" y2="21131.0742" gradientTransform="matrix(0.5 0 0 2.801514e-02 44.273 -159.19)">
							<stop  offset="0" style="stop-color:#FFAA7D"/>
							<stop  offset="1" style="stop-color:#FFB38A"/>
						</linearGradient>
						<path id="Trazado_3994" class="st35" d="M-551.3,432.8c-0.2,0-0.3,0-0.5,0C-551.6,432.8-551.4,432.8-551.3,432.8z"/>
						<path id="Trazado_3995" class="st32" d="M-549.9,416.4c0.4-1,0.8-2,1-3.1c0.3-1.5-0.7-14.1-4.7-14.1c0,0-12.7-1.9-17.5,1.8
							c-5.5,4.3-3.2,22.5-3,22.3l1.8,10.1c1.8,3.5,11.5,6.5,14,7.1c2.2,0.5,6.3,0.9,5.1-5.2c-0.1-0.4,1.1-0.2,1.3-0.5
							c0.7-1,0.2-1.3,0.2-1.9c0.1-2.4,0.3-3.7,1-4.4c0.4-0.4,0.1-1.6,0.1-1.6c1.6-0.3,3.1,0,4-1.6c0.4-0.7-0.7-1.4-2.1-4.4
							C-549.5,419-550.2,417.2-549.9,416.4z"/>
						<path id="Trazado_3996" class="st32" d="M-552.1,425.4c-0.1-0.1-0.2-0.1-0.4-0.1C-552.4,425.3-552.2,425.3-552.1,425.4z"/>
						<path id="Trazado_3997" class="st36" d="M-550.6,426.9c1.4-0.3,2.7-0.1,3.6-1c-1.7,0-3.5-0.1-5.2-0.5c0.6,0.3,1.1,1.1,1.6,1.7
							C-550.6,427-550.6,426.9-550.6,426.9z"/>
						<path id="Trazado_3998" class="st37" d="M-551.3,432.8L-551.3,432.8z"/>
						<path id="Trazado_3999" class="st37" d="M-551.8,432.8h-0.4C-552,432.8-551.9,432.8-551.8,432.8z"/>
						<g id="Grupo_3807">
							<path id="Trazado_4000" class="st38" d="M-555.6,652.9v21.4c0,0-10-0.9-10.4-2.9c-0.1-0.4,1.3-9,1.1-17
								C-561.8,653.9-558.7,653.4-555.6,652.9z"/>
							<path id="Trazado_4001" class="st39" d="M-564.9,654.4c3.1-0.5,6.2-1,9.3-1.5v10.7c-3.7,1.1-6.9,4.1-10.3,6.4
								C-565.3,664.8-564.9,659.6-564.9,654.4z"/>
							<g id="Grupo_3806">
								<path id="Trazado_4002" class="st40" d="M-539.9,674.2c0,0-12.9-11.7-14.6-10.9c-2.8,1.4-1.4,6.1-1.4,6.1l14.5,7.6
									L-539.9,674.2z"/>
								<path id="Trazado_4003" class="st41" d="M-529.5,682c-3.4,1.1-6.9,1.8-10.5,1.8c-5.7,0-11,0.8-14.2-0.1s-14.6-2.1-14.6-2.1
									s-0.7-9,0.9-12.8c0.5-1.2,2.2-1.4,2.2-1.4c-0.1,0.9,0,1.9,0.4,2.8c0.8,2,2.3,2.4,4.1,2.4s2.5-4.1,5.4-4.1s13,7.6,14.5,6.7
									l1.5-1c0,0,8.2,2.5,8.9,3.3S-529.5,682-529.5,682z"/>
								<path id="Trazado_4004" class="st42" d="M-530.1,681.6c0,0,0.5-0.2,0.6,0.3s0.8,3-1,3.2c-4.8,0.9-9.7,1.3-14.6,1.1
									c-6.9-0.4-22.5-0.6-22.5-0.6s-1.6-0.2-1.6-0.7s-0.5-3.3,0-3.7l0.5-0.4c0,0,8.6,0.9,10.4,0.9s8.8,1,11.4,1s6.3,0.2,9.6,0
									C-534.9,682.6-532.5,682.2-530.1,681.6z"/>
								<g id="Grupo_3805">
									<path id="Trazado_4005" class="st22" d="M-540.1,673.5c-0.5-0.3-1.2-0.3-1.7,0.1c-0.7,0.5-1.3,1.1-1.7,1.8
										c-0.1,0.1-0.1,0.3,0.1,0.4h0.1c0.1,0,0.2-0.1,0.2-0.1c0.4-0.6,0.9-1.2,1.5-1.6c0.5-0.3,0.9-0.3,1.2-0.1
										c0.1,0.1,0.2,0.1,0.3,0l0,0C-540,673.8-540,673.6-540.1,673.5z"/>
									<path id="Trazado_4006" class="st22" d="M-543.2,672.9c0.9-0.2,1.5-0.1,1.8,0.2c0.1,0.1,0.2,0.2,0.3,0.1l0,0
										c0.1-0.1,0.1-0.3,0.1-0.4c-0.2-0.3-0.5-0.5-0.8-0.6l0.1-0.1c0-0.1,0-0.3-0.2-0.4c-0.4-0.2-1,0-1.5,0.6
										c-1,0.3-1.9,0.8-2.7,1.5c-0.1,0.1-0.1,0.3-0.1,0.4c0,0.1,0.1,0.1,0.2,0.1h0.1c0.6-0.4,1.2-0.8,1.9-1.1
										c-0.4,0.6-0.7,1.3-0.9,2c0,0.1,0,0.3,0.2,0.4h0.1c0.1,0,0.2-0.1,0.2-0.2C-544.2,674.5-543.7,673.7-543.2,672.9
										L-543.2,672.9z"/>
									<path id="Trazado_4007" class="st22" d="M-545.4,671.3c1-0.3,1.8-0.2,2,0.3c0.1,0.1,0.2,0.2,0.3,0.1l0,0
										c0.1-0.1,0.1-0.3,0.1-0.4c-0.2-0.4-0.6-0.6-1-0.6c0.1,0,0.1-0.1,0.2-0.2c0-0.1,0-0.3-0.2-0.4c-0.5-0.2-1.1,0.1-1.7,0.7
										c-1.1,0.4-2.2,0.9-3.1,1.6c-0.1,0.1-0.1,0.3-0.1,0.4c0,0.1,0.1,0.1,0.2,0.1h0.1c0.7-0.5,1.4-0.9,2.2-1.3
										c-0.4,0.7-0.8,1.5-1,2.3c0,0.1,0,0.3,0.2,0.4h0.1c0.1,0,0.2-0.1,0.2-0.2C-546.6,673.1-546.1,672.1-545.4,671.3z"/>
									<path id="Trazado_4008" class="st22" d="M-548,669.1c1.1-0.3,1.9-0.2,2.2,0.3c0.1,0.1,0.2,0.2,0.3,0.1l0,0
										c0.1-0.1,0.1-0.3,0.1-0.4c-0.3-0.4-0.7-0.7-1.2-0.7c0.1,0,0.2-0.1,0.3-0.2c0-0.1,0-0.3-0.2-0.4c-0.5-0.2-1.2,0-1.8,0.7
										c-1.2,0.4-2.3,1-3.3,1.7c-0.1,0.1-0.1,0.3-0.1,0.4c0,0.1,0.1,0.1,0.2,0.1h0.1c0.7-0.6,1.5-1,2.4-1.4
										c-0.5,0.8-0.9,1.6-1.1,2.5c0,0.1,0,0.3,0.2,0.4h0.1c0.1,0,0.2-0.1,0.2-0.2C-549.2,671-548.7,670-548,669.1L-548,669.1z
										 M-546.6,668.4L-546.6,668.4c-0.1,0-0.3,0-0.4,0C-546.9,668.3-546.7,668.3-546.6,668.4L-546.6,668.4z"/>
								</g>
							</g>
						</g>
						<path id="Trazado_4009" class="st43" d="M-577,527.7c0.6,5.1,11.8,132.4,11.8,132.4c3.4,0,7.2,0.2,10.6,0
							c0.4-12.3,3.2-35.2,4-58.9c0.3-11.3-3.8-55.9-3.3-74.3C-562.9,527.2-568.1,525.6-577,527.7z"/>
						<g id="Grupo_3810">
							<path id="Trazado_4010" class="st32" d="M-566.6,653.5V675c0,0-10-0.9-10.4-2.9c-0.1-0.4,1.3-9,1.1-17
								C-572.8,654.6-569.7,654-566.6,653.5z"/>
							<path id="Trazado_4011" class="st33" d="M-575.9,655.1c3.1-0.5,6.2-1,9.3-1.5v10.7c-3.7,1.1-6.9,4.1-10.3,6.4
								C-576.2,665.4-575.9,660.3-575.9,655.1z"/>
							<g id="Grupo_3809">
								<path id="Trazado_4012" class="st44" d="M-550.8,674.8c0,0-12.9-11.7-14.6-10.9c-2.8,1.4-1.4,6.1-1.4,6.1l14.5,7.6
									L-550.8,674.8z"/>
								<path id="Trazado_4013" class="st45" d="M-540.5,682.6c-3.4,1.1-6.9,1.8-10.5,1.8c-5.7,0-11,0.8-14.2-0.1
									s-14.6-2.1-14.6-2.1s-0.7-9,0.9-12.8c0.5-1.2,2.2-1.4,2.2-1.4c-0.1,0.9,0,1.9,0.4,2.8c0.8,2,2.3,2.4,4.1,2.4
									s2.5-4.1,5.4-4.1s13,7.6,14.5,6.7l1.5-1c0,0,8.2,2.5,8.9,3.3S-540.5,682.6-540.5,682.6z"/>
								<path id="Trazado_4014" class="st46" d="M-541.1,682.3c0,0,0.5-0.2,0.6,0.3s0.8,3-1,3.2c-4.8,0.9-9.7,1.3-14.6,1.1
									c-6.9-0.4-22.5-0.6-22.5-0.6s-1.6-0.2-1.6-0.7s-0.5-3.3,0-3.7l0.5-0.4c0,0,8.6,0.9,10.4,0.9s8.8,1,11.4,1s6.3,0.2,9.6,0
									C-545.9,683.3-543.5,682.9-541.1,682.3z"/>
								<g id="Grupo_3808">
									<path id="Trazado_4015" class="st22" d="M-551.1,674.2c-0.5-0.3-1.2-0.3-1.7,0.1c-0.7,0.5-1.3,1.1-1.7,1.8
										c-0.1,0.1-0.1,0.3,0.1,0.4h0.1c0.1,0,0.2-0.1,0.2-0.1c0.4-0.7,0.9-1.2,1.5-1.6c0.5-0.3,0.9-0.3,1.2-0.1
										c0.1,0.1,0.2,0.1,0.3,0l0,0C-550.9,674.5-551,674.3-551.1,674.2z"/>
									<path id="Trazado_4016" class="st22" d="M-554.1,673.6c0.9-0.2,1.5-0.1,1.7,0.2c0.1,0.1,0.2,0.2,0.3,0.1l0,0
										c0.1-0.1,0.2-0.3,0.1-0.4c-0.2-0.3-0.5-0.5-0.8-0.6l0.1-0.1c0-0.1,0-0.3-0.2-0.4c-0.4-0.2-1,0-1.5,0.6
										c-1,0.3-1.9,0.8-2.7,1.5c-0.1,0.1-0.1,0.3-0.1,0.4c0,0.1,0.1,0.1,0.2,0.1h0.1c0.6-0.4,1.2-0.8,1.9-1.1
										c-0.4,0.6-0.7,1.3-0.9,2c0,0.1,0,0.3,0.2,0.4h0.1c0.1,0,0.2-0.1,0.2-0.2C-555.1,675.2-554.7,674.3-554.1,673.6
										L-554.1,673.6z"/>
									<path id="Trazado_4017" class="st22" d="M-556.4,672c1-0.3,1.8-0.2,2,0.3c0.1,0.1,0.2,0.2,0.3,0.1l0,0
										c0.1-0.1,0.1-0.3,0.1-0.4c-0.2-0.4-0.6-0.6-1-0.6c0.1,0,0.1-0.1,0.2-0.2c0-0.1,0-0.3-0.2-0.4c-0.5-0.2-1.1,0.1-1.7,0.7
										c-1.1,0.4-2.2,0.9-3.1,1.6c-0.1,0.1-0.1,0.3-0.1,0.4c0,0.1,0.1,0.1,0.2,0.1h0.1c0.7-0.5,1.4-0.9,2.2-1.3
										c-0.4,0.7-0.8,1.5-1,2.3c0,0.1,0,0.3,0.2,0.4h0.1c0.1,0,0.2-0.1,0.2-0.2C-557.6,673.8-557.1,672.8-556.4,672z"/>
									<path id="Trazado_4018" class="st22" d="M-558.9,669.7c1.1-0.3,1.9-0.2,2.2,0.3c0.1,0.1,0.2,0.2,0.3,0.1l0,0
										c0.1-0.1,0.1-0.3,0.1-0.4c-0.3-0.4-0.7-0.7-1.2-0.7c0.1,0,0.2-0.1,0.3-0.2c0-0.1,0-0.3-0.2-0.4c-0.5-0.2-1.2,0-1.8,0.7
										c-1.2,0.4-2.3,1-3.3,1.7c-0.1,0.1-0.1,0.3-0.1,0.4c0,0.1,0.1,0.1,0.2,0.1h0.1c0.7-0.6,1.5-1,2.4-1.4
										c-0.5,0.8-0.9,1.6-1.1,2.5c0,0.1,0,0.3,0.2,0.4h0.1c0.1,0,0.2-0.1,0.2-0.2C-560.2,671.7-559.7,670.7-558.9,669.7
										C-559,669.8-558.9,669.8-558.9,669.7z M-557.6,669L-557.6,669c-0.1,0-0.3,0-0.4,0C-557.8,669-557.7,669-557.6,669
										L-557.6,669z"/>
								</g>
							</g>
						</g>
						<path id="Trazado_4019" class="st47" d="M-585.6,528.7c0.6,5.1,8.8,131.4,8.8,131.4c3.4,0,7.8-0.4,11.3-0.6
							c0.8-26.4,9.1-98.1,9.9-132.6C-564.5,527.2-576.6,526.6-585.6,528.7z"/>
						<path id="Trazado_4020" class="st48" d="M-585.6,528.7c0.1,1.1,0.6,8,1.3,18c1.3,0,2.7,0.1,4,0.3c7.7,2,15.5,3.2,23.5,3.7
							c0.6-8.9,1.1-17.1,1.2-23.8C-564.5,527.2-576.6,526.6-585.6,528.7z"/>
						<path id="Trazado_4021" class="st48" d="M-579.8,612.9c1.7,25.7,3.1,47.2,3.1,47.2c3.4,0,7.8-0.4,11.3-0.6
							c0.4-11.9,2.2-33.1,4.3-55.9C-565.8,608.6-572.7,611.6-579.8,612.9z"/>
						<path id="Trazado_4022" class="st48" d="M-565.1,658.2l-0.1,3c-1.9,0.4-3.8,0.7-5.8,0.7c-3.2,0.1-5.9,0-5.9,0l-0.2-3.1
							c0,0,3.3,0.2,5.4,0.2C-569.6,658.9-567.3,658.6-565.1,658.2z"/>
						<path id="Trazado_4023" class="st43" d="M-554.2,658.2l-0.1,3c-1.9,0.4-3.8,0.7-5.8,0.7c-3.2,0.1-5.9,0-5.9,0l-0.2-3.1
							c0,0,3.3,0.2,5.4,0.2C-558.6,658.9-556.4,658.6-554.2,658.2z"/>
						<path id="Trazado_4024" class="st49" d="M-568.2,387.7c9.4-0.6,21.2,4.1,21.2,4.1s-4.7,1.4-3.9,2.1c0.9,0.8,6.6,0.3,6.6,0.3
							s-2.1,6.1-2.7,7.1c-4.2,7.8-10.5-3.4-15.3,3c-2.1,2.8-0.7,16.6-7.5,13.3c-3.8-1.8-1.6,0.2-3.2,1.7c-1.6,1.5,0.5,5.9-2.1,11.4
							c-2.4,5.2-2.4,5.7-2.4,5.7l-2.5-0.2c0,0-1.8-3-5-8.4c-1.9-3.1-6.9-6.9-7.1-12.4C-592.6,394.6-580.7,388.4-568.2,387.7z"/>
						<path id="Trazado_4025" class="st50" d="M-554.2,400.2v-1.7c-4-1.7-7.4,2.3-11.4,2.9c-0.6,0-1.1-1.1-1.7-1.7
							c-2.9,5.1-1.7,9.7-8.6,12c-5.8,1.9-4.2,12.5-9.9,14.9c0.3,0.4,0.6,0.8,0.8,1.2c3.2,5.3,5,8.4,5,8.4l2.5,0.2c0,0,0-0.5,2.4-5.7
							c2.6-5.5,0.4-9.9,2.1-11.4c1.5-1.4-0.6-3.5,3.2-1.7c6.8,3.2,6.6-10.9,9.1-13.3c5.3-5.2,9.4,4.8,13.6-3
							c0.1-0.2,0.2-0.4,0.4-0.7C-549.1,401.3-551.8,401.2-554.2,400.2z"/>
						<g id="Grupo_3811">
							<path id="Trazado_4026" class="st32" d="M-570,417.2c0,0,0-4.1-3.6-3.3c-2.6,0.6-2.8,3.7-2.3,5.4c1.2,4.3,2.6,6,3.3,6.3
								c1.6,0.7,2.2-0.5,2.2-0.5s-0.4-3.4-0.4-4.6C-570.7,419.3-570.5,418.2-570,417.2z"/>
							<path id="Trazado_4027" class="st33" d="M-574.9,416.7c0.3-1.1,1.4-1.8,2.5-1.5c0.8,0.2,1.4,0.9,1.6,1.8c0,0.5,0,2.4,0,3.5
								c0,0.1,0,3.6,0,3.7C-573.7,423.5-570.6,415.7-574.9,416.7z"/>
						</g>
						<path id="Trazado_4028" class="st46" d="M-579.7,444.7c0,0,1.8-0.7,5,1.1s9.9,5.5,11.8,5.5c0,0,6.1,9.6,7.9,19.3
							c4.2,22.5,6.4,73.7,6.4,73.7s-5.6,3.2-21.9,2.7c-12.3-0.4-18.9-3.2-18.9-3.2s-4.8-66.6,0.1-81.5
							C-585.1,449.6-579.7,444.7-579.7,444.7z"/>
						<path id="Trazado_4029" class="st51" d="M-576.4,478.2c-4.4-3.8-4.7,5.9-4.4,8.2c0.8,8.3,5,24.6,15.1,29.7
							c5,2.5,10.3,4,15.8,4.6c-0.4-5.5-0.8-11.6-1.3-17.7C-561.8,498.2-566.9,485.2-576.4,478.2z"/>
						<path id="Trazado_4030" class="st52" d="M-562.8,402.4"/>
						<path id="Trazado_4031" class="st50" d="M-550.2,411.9c-1.2-0.7-3.9-1.2-5.3-0.3c-0.8,0.9-1.6,1.8-2.3,2.8
							c0.9-0.5,1.9-0.9,2.9-1.2c1.1,0,4,1.2,4.8,0.3C-549.8,412.9-549.9,412.3-550.2,411.9z"/>
						<g id="Grupo_3812">
							<path id="Trazado_4032" class="st53" d="M-555.4,418.2c0.9,0.5,1.8,0.8,2.8,0.9c1.6,0.3,1.1-3.9,1.1-3.9
								c-0.3-0.2-0.6-0.3-1-0.3c-0.6,0-1.1,0.1-1.7,0.2c-0.8,0.4-1.5,1.1-1.9,2C-556.2,417.5-556.1,417.7-555.4,418.2z"/>
							<path id="Trazado_4033" class="st47" d="M-552.3,415c-0.8-0.1-1.6,0.6-1.6,1.8s0.6,2.2,1.4,2.3c0.1,0,0.3-0.1,0.4-0.1
								c0.6-1.2,0.8-2.6,0.5-3.8C-551.8,415-552,415.1-552.3,415z"/>
							<path id="Trazado_4034" d="M-552,415.7c-0.5-0.1-1,0.5-1,1.2c-0.1,1.6,1.2,1.5,1.2,1.5c0.3-0.8,0.4-1.7,0.3-2.5
								C-551.6,415.8-551.8,415.7-552,415.7z"/>
							<path id="Trazado_4035" class="st53" d="M-553.3,416.7c-0.1,0.3,0.2,0.7,0.5,0.8c0.3,0,0.5-0.3,0.5-0.6
								c0.1-0.3-0.2-0.7-0.5-0.7C-553.1,416-553.3,416.3-553.3,416.7z"/>
							<path id="Trazado_4036" d="M-556,417.7c0.4-1.2,1.4-2.1,2.6-2.4c0.7-0.3,1.5,0,1.9,0.5c0.3,0.3,0.8-0.3,0.8-0.3
								c-0.3-0.2-0.7-0.4-1-0.5c-1-0.4-2.2-0.4-3.2,0.1c-0.8,0.5-1.4,1.2-1.8,2C-556.6,417.5-556,417.7-556,417.7z"/>
						</g>
						<g id="Grupo_3813">
							<path id="Trazado_4037" class="st53" d="M-553.4,429.2h-3.2c0.6,1.8,2.1,3.1,3.9,3.5c0.1,0,1.1,0.2,1.1,0.2l0.8-3.7H-553.4z"
								/>
							<path id="Trazado_4038" class="st54" d="M-550.5,428.1l-2.6,0.1l-2.8,0.4l-1.9-0.8l1.1,1.4l0,0h3.2h3h-0.4
								c0,0,0.5-0.2,0.6-0.4S-550.5,428.4-550.5,428.1z"/>
						</g>
						<path id="Trazado_4039" class="st32" d="M-556.1,493.1c-0.1-1.6-6.7-18-6.7-18l-13.9,8.6c0,0,11.8,21.3,20.1,23.9
							c4,1.3,8.1-1.7,8-8c0.1-4.4-1.1-8.8-3.5-12.5C-553.6,491.4-556,494.2-556.1,493.1z"/>
						<path id="Trazado_4040" class="st46" d="M-584.3,462.9c-0.6-4.7,3.2-7.9,7.7-9.1c10.4-2.8,17.8,27.6,17.8,27.6
							c-3.2,1.9-6.6,3.5-10.1,4.9l-8.1,2.6C-576.9,488.7-583.8,466.5-584.3,462.9z"/>
						<path id="Trazado_4041" class="st32" d="M-545.8,490c0,0,3.6,5.6,2.8,8s-4.5,4.4-6.5,4.2s-6.6-9.1-6.6-9.1l-2.3-6.6
							c0,0,1.6-3,2.8-3.1s4.7,3.5,4.7,3.5L-545.8,490z"/>
						<path id="Trazado_4042" class="st33" d="M-556.2,483.7c-0.9,0.8-1.6,1.8-2.2,2.8l2.3,6.6c0,0,0.8,1.5,1.8,3.2
							C-554.3,492-554,487.6-556.2,483.7z"/>
					</g>
				</g>
			</g>
		</g>
	</g>
	<g id="Elipse_568" transform="translate(625 680)">
		<circle class="st29" cx="20" cy="20" r="20"/>
		<circle class="st55" cx="20" cy="20" r="18.5"/>
	</g>
	<path id="Trazado_3100" class="st22" d="M652,704.8h-2.5v3.2H646v-3.2h-8.3v-2.4l7.3-9.8h3.7l-6.7,9.3h4.1V699h3.4v2.9h2.5V704.8z"
		/>
</g>
</svg>
