<svg xmlns="http://www.w3.org/2000/svg" width="435" height="198" viewBox="0 0 435 198">
  <g id="Grupo_4366" data-name="Grupo 4366" transform="translate(-4921 -144)">
    <rect id="Rectángulo_1052" data-name="Rectángulo 1052" width="435" height="198" transform="translate(4921 144)" fill="#efefef"/>
    <g id="Trazado_4591" data-name="Trazado 4591" transform="translate(4951 166)" fill="#59bfd6">
      <path d="M 20 38.5 C 15.05846977233887 38.5 10.4127197265625 36.57566070556641 6.918529987335205 33.08147811889648 C 3.424340009689331 29.58728981018066 1.5 24.94153022766113 1.5 20 C 1.5 15.05846977233887 3.424340009689331 10.4127197265625 6.918529987335205 6.918529987335205 C 10.4127197265625 3.424340009689331 15.05846977233887 1.5 20 1.5 C 24.94153022766113 1.5 29.58728981018066 3.424340009689331 33.08147811889648 6.918529987335205 C 36.57566070556641 10.4127197265625 38.5 15.05846977233887 38.5 20 C 38.5 24.94153022766113 36.57566070556641 29.58728981018066 33.08147811889648 33.08147811889648 C 29.58728981018066 36.57566070556641 24.94153022766113 38.5 20 38.5 Z" stroke="none"/>
      <path d="M 20 3 C 15.45912933349609 3 11.19005966186523 4.768310546875 7.979179382324219 7.979179382324219 C 4.768310546875 11.19005966186523 3 15.45912933349609 3 20 C 3 24.54087066650391 4.768310546875 28.80994033813477 7.979179382324219 32.02082061767578 C 11.19005966186523 35.231689453125 15.45912933349609 37 20 37 C 24.54087066650391 37 28.80994033813477 35.231689453125 32.02082061767578 32.02082061767578 C 35.231689453125 28.80994033813477 37 24.54087066650391 37 20 C 37 15.45912933349609 35.231689453125 11.19005966186523 32.02082061767578 7.979179382324219 C 28.80994033813477 4.768310546875 24.54087066650391 3 20 3 M 20 0 C 31.04570007324219 0 40 8.954299926757812 40 20 C 40 31.04570007324219 31.04570007324219 40 20 40 C 8.954299926757812 40 0 31.04570007324219 0 20 C 0 8.954299926757812 8.954299926757812 0 20 0 Z" stroke="none" fill="#227d84"/>
    </g>
    <path id="Trazado_4815" data-name="Trazado 4815" d="M.715-11.016a6.233,6.233,0,0,1,1.576-4.424,5.339,5.339,0,0,1,4.1-1.693,5.291,5.291,0,0,1,5.32,3.434,13.369,13.369,0,0,1,.82,5.121,14.572,14.572,0,0,1-.785,5.145A5.5,5.5,0,0,1,6.234.492,5.617,5.617,0,0,1,2.8-.639a4.458,4.458,0,0,1-1.746-3.3H4.383a2.011,2.011,0,0,0,.633,1.219,1.96,1.96,0,0,0,1.371.469,2.383,2.383,0,0,0,2.32-1.828A10.666,10.666,0,0,0,9.164-7.02a3.612,3.612,0,0,1-.973.879,4.414,4.414,0,0,1-2.309.563,5.25,5.25,0,0,1-3.6-1.4A5.127,5.127,0,0,1,.715-11.016ZM6.609-8.3a2.335,2.335,0,0,0,1.3-.4,2.756,2.756,0,0,0,1.137-2.52A3.561,3.561,0,0,0,8.373-13.5a2.234,2.234,0,0,0-1.846-.844,2.294,2.294,0,0,0-1.465.48A3.038,3.038,0,0,0,4.1-11.32a3.537,3.537,0,0,0,.615,2.268A2.3,2.3,0,0,0,6.609-8.3Z" transform="translate(4965 194)" fill="#fff"/>
    <g id="Grupo_4364" data-name="Grupo 4364" transform="translate(4418.839 -189.226)">
      <path id="Trazado_4822" data-name="Trazado 4822" d="M715.048,414.823a49.023,49.023,0,0,1-15.184,35.636q-1.465,1.393-3.042,2.657a46.59,46.59,0,0,1-24.3,10.046c-.153.016-.3.032-.457.046-.061.007-.122.012-.184.017-.135.013-.27.025-.405.035q-1.674.139-3.381.158c-.13,0-.259,0-.389,0-.291,0-.583,0-.872-.007q-2.158-.034-4.27-.265c-.183-.019-.365-.04-.548-.063q-.576-.069-1.147-.153c-.253-.037-.507-.075-.758-.117a46.743,46.743,0,0,1-23.258-10.988q-1.577-1.377-3.032-2.888a49.043,49.043,0,0,1-13.658-34.116c0-26.841,21.242-48.6,47.445-48.6S715.048,387.982,715.048,414.823Z" fill="#bbe5e7" stroke="#bbe5e7" stroke-miterlimit="10" stroke-width="5"/>
      <g id="Grupo_4363" data-name="Grupo 4363">
        <path id="Trazado_4823" data-name="Trazado 4823" d="M682.188,401.279v0h0a3.318,3.318,0,0,1,.07-1.618l0-.009a1.153,1.153,0,0,1,.077-.158l.014-.026c.018-.03.035-.07.06-.117.077-.171.191-.448.326-.8l0-.005c.452-1.163,1.147-3.128,1.6-4.621.145-.486.266-.921.345-1.263.16-.695.3-1.391.407-2.09h0a17.525,17.525,0,0,0-1.214-10.7c0-.005,0-.005-.005-.01a13.745,13.745,0,0,0-1.33-2.126v0a14,14,0,0,0-2.575-2.611l-.016-.01a15.735,15.735,0,0,0-4.412-2.37h-.007a18.865,18.865,0,0,0-2.274-.646,24.236,24.236,0,0,0-4.125-.54c-.245-.009-.491-.014-.745-.009-7.26.116-19.248,6.675-16.941,19.384a21.6,21.6,0,0,0,.849,3.2,28.22,28.22,0,0,0,1.386,3.275,1.023,1.023,0,0,1-.108.392l0,0c-.114.3-.314.755-.577,1.337v0c-2.015,4.437-7.836,16.184-9.618,21.377-1.809,5.263,2.307,8.528,8.795,10.3l.051.015h0l.014,0c.46.124.93.242,1.411.351h0a51.768,51.768,0,0,0,6.823,1.037h.021a.174.174,0,0,0,.031,0,.011.011,0,0,0,.011,0c.109.01.216.021.324.028h0q.91.08,1.837.132h0c2.142.124,4.335.157,6.507.11h0q1.149-.025,2.287-.081h.025l.147-.007.2-.011h.01a78.292,78.292,0,0,0,7.957-.812c1.059-.165,2.077-.351,3.037-.556.363-.078.715-.158,1.063-.241l.068-.015c4.332-1.041,7.281-2.478,7.551-4.125C692.115,423.188,683.021,407.219,682.188,401.279Z" fill="#b55959" opacity="0.99"/>
        <path id="Trazado_4824" data-name="Trazado 4824" d="M658.763,404.95s-3.71-11.42-5.079-7.554c-1.226,3.464,3.206,12.919-.407,23.439-2.39,6.958,5.348,10.729,7.75,11.332s10.727-3.564,15-3.8c14.06-.783-.659-14.875,6.312-28.876C684.8,394.545,658.763,404.95,658.763,404.95Z" fill="#9e3939" opacity="0.55"/>
        <path id="Trazado_4825" data-name="Trazado 4825" d="M670.647,444.677l-9.91-.188a.526.526,0,0,1-.545-.505l.755-31.264a.534.534,0,0,1,.569-.484l9.91.189a.527.527,0,0,1,.546.5l-.756,31.265A.533.533,0,0,1,670.647,444.677Z" fill="#f2bab6"/>
        <ellipse id="Elipse_752" data-name="Elipse 752" cx="3.21" cy="2.848" rx="3.21" ry="2.848" transform="translate(680.303 393.824)" fill="#eda9a4"/>
        <ellipse id="Elipse_753" data-name="Elipse 753" cx="2.876" cy="2.552" rx="2.876" ry="2.552" transform="translate(649.35 394.119)" fill="#eda9a4"/>
        <ellipse id="Elipse_754" data-name="Elipse 754" cx="3.21" cy="2.848" rx="3.21" ry="2.848" transform="translate(680.303 393.824)" fill="#eda9a4"/>
        <ellipse id="Elipse_755" data-name="Elipse 755" cx="21.455" cy="14.553" rx="21.455" ry="14.553" transform="translate(651.471 415.25) rotate(-83.238)" fill="#f7cbc6"/>
        <path id="Trazado_4826" data-name="Trazado 4826" d="M671.851,381.007c-.086,4.36,2.638,5.241,5.281,7.554,3.171,2.773,6.426,4.5,5.971,4.034L671.883,381A.018.018,0,0,0,671.851,381.007Z" fill="#9e3939" opacity="0.55"/>
        <path id="Trazado_4827" data-name="Trazado 4827" d="M683.513,393.823c-.79-.328-3.752-4.651-7.637-7.027-3.711-2.27-3.548-4.221-4.156-5.043-.87.948-1.8,4.223-4.939,5.279-4.376,1.473-10.942.772-12.8,7.087-4.4-8.94,1.125-21.3,15.937-21.191C684.858,373.042,688.957,385.48,683.513,393.823Z" fill="#b55959" opacity="0.99"/>
        <path id="Trazado_4828" data-name="Trazado 4828" d="M670.036,403.789h0a1.7,1.7,0,0,1-1.915-1.776l.505-4.284c.028-.236.441-.437.919-.465h0c.479-.029.917.122.98.353l1.143,4.187A1.637,1.637,0,0,1,670.036,403.789Z" fill="#ef8f99"/>
        <path id="Trazado_4829" data-name="Trazado 4829" d="M668.832,412.387l-3.875-1.992a.063.063,0,0,1-.027-.09l.666-1.019a.079.079,0,0,1,.1-.024l3.874,1.991a.063.063,0,0,1,.028.091l-.666,1.019A.081.081,0,0,1,668.832,412.387Z" fill="#ef8f99"/>
        <path id="Trazado_4830" data-name="Trazado 4830" d="M667.988,411.433l3.679-2.265a.081.081,0,0,1,.1.017l.757.967a.062.062,0,0,1-.019.092l-3.679,2.265a.081.081,0,0,1-.1-.016l-.757-.968A.062.062,0,0,1,667.988,411.433Z" fill="#ef8f99"/>
        <path id="Trazado_4831" data-name="Trazado 4831" d="M672.52,463.162s-3.092.248-4.427.256c-.13,0-.259,0-.389,0-.291,0-.583,0-.872-.007q-2.434-.034-4.814-.265l-1.909-.333.095-7.5.026-2.1h0l.112-8.881v0l.074-5.63,0-.279h0l0-.218v0l0-.186v0l.072-5.8.005-.2,0-.3V431.7l0-.137.014-1.151v-.026l0-.076.023-1.944.007-.442c0,.111.009.219.019.328v.011a5.767,5.767,0,0,0,1.86,3.891c.086.079.177.153.27.225h0a5.459,5.459,0,0,0,3.38,1.087,5.267,5.267,0,0,0,3.127-.977h0a5.3,5.3,0,0,0,.838-.753,5.935,5.935,0,0,0,1.283-2.324,6.707,6.707,0,0,0,.228-1.093v-.009c.027-.2.043-.407.05-.614v.084l.021,1.541.038,3.079.065,5.186.005.191,0,.217v.09l0,.286.084,6.663v0l.007.458h0l.028,2.151v.041Z" fill="#0683b5"/>
        <g id="Grupo_4351" data-name="Grupo 4351">
          <path id="Trazado_4832" data-name="Trazado 4832" d="M660.109,462.815a46.743,46.743,0,0,1-23.258-10.988q-1.577-1.377-3.032-2.888l1.649-6.088c1.2-4.417,6.742-9.045,12.946-10.893l1.012-.3h0l0,0,2.795-.832h0l1.83-.545h0l2.146-.641h0l.716-.212.151-.044,3.283-.979v.021l.017.362.026.531.1,2.057v.008l.01.183.021.458.011.2.27,5.633.01.183,0,.13.005.082v.058l.013.272.285,5.919.49,10.243h0l.11,2.313.288,6.033,0,.063Z" fill="#fff"/>
          <g id="Grupo_4350" data-name="Grupo 4350">
            <path id="Trazado_4833" data-name="Trazado 4833" d="M661.252,438.451l-.438.134-2.451.724-9.177,2.714-.774-10.055,11.944-3.568.446,9.856.443-.19Z" fill="#9edae8"/>
            <path id="Trazado_4834" data-name="Trazado 4834" d="M661.808,457.144l-.081-.093L649.21,442.774l9.174-3.891,2.425-1.031.441-.186.008.366Z" fill="#9edae8"/>
            <path id="Trazado_4835" data-name="Trazado 4835" d="M661.345,438.149l-10.894,3.208-1.027-9.75,11.124-3.242Z" fill="#fff"/>
            <path id="Trazado_4836" data-name="Trazado 4836" d="M661.822,454.965l-11.4-12.526,10.891-4.615Z" fill="#fff"/>
          </g>
        </g>
        <path id="Trazado_4837" data-name="Trazado 4837" d="M699.864,450.459q-1.465,1.393-3.042,2.657a46.59,46.59,0,0,1-24.3,10.046l-.178-8.254-.347-16.474-.01-.284v-.283l-.186-8.6-.034-1.637v-.025l3.272.846.055.014h0l.179.046,3.82.984h0l3.8.981h0l1.033.266c.023.005.047.013.07.02,6.276,1.64,11.956,6.228,13.274,10.773Z" fill="#fff"/>
        <g id="Grupo_4352" data-name="Grupo 4352">
          <path id="Trazado_4838" data-name="Trazado 4838" d="M671.582,438.325l.44.116,2.459.624,9.191,2.335.262-10.645-12.169-3.146.247,10.489-.449-.174Z" fill="#9edae8"/>
          <path id="Trazado_4839" data-name="Trazado 4839" d="M672.32,457.294l.071-.095,11.294-15.02-9.254-3.557-2.456-.947-.447-.171.018.384Z" fill="#9edae8"/>
          <path id="Trazado_4840" data-name="Trazado 4840" d="M671.47,438.015l10.921,2.76.509-10.349-11.331-2.844Z" fill="#fff"/>
          <path id="Trazado_4841" data-name="Trazado 4841" d="M672.16,455.143,682.471,441.9l-11-4.223Z" fill="#fff"/>
        </g>
        <g id="Grupo_4360" data-name="Grupo 4360">
          <g id="Grupo_4353" data-name="Grupo 4353">
            <path id="Trazado_4842" data-name="Trazado 4842" d="M653.078,448.171c-4.193-4.826-.8-17.022,2.7-21.209a12.573,12.573,0,0,1,4.8-3.6l.2.485a12.071,12.071,0,0,0-4.6,3.451c-1.748,2.089-3.4,6.164-4.123,10.14-.833,4.609-.317,8.394,1.414,10.386Z" fill="#021416"/>
          </g>
          <g id="Grupo_4359" data-name="Grupo 4359">
            <g id="Grupo_4354" data-name="Grupo 4354">
              <path id="Trazado_4843" data-name="Trazado 4843" d="M680.619,442.086l-.524-.057c1.028-9.58-1.277-15.623-7.045-18.475a4.782,4.782,0,0,0-1.358-.338l.073-.522a5.178,5.178,0,0,1,1.519.389C679.273,426.043,681.672,432.259,680.619,442.086Z" fill="#021416"/>
            </g>
            <g id="Grupo_4358" data-name="Grupo 4358">
              <g id="Grupo_4356" data-name="Grupo 4356">
                <g id="Grupo_4355" data-name="Grupo 4355">
                  <ellipse id="Elipse_756" data-name="Elipse 756" cx="3.614" cy="3.206" rx="3.614" ry="3.206" transform="translate(649.663 445.389)" fill="#c1c1bd"/>
                </g>
                <ellipse id="Elipse_757" data-name="Elipse 757" cx="1.915" cy="1.699" rx="1.915" ry="1.699" transform="translate(651.362 446.896)" fill="#757572"/>
              </g>
              <g id="Grupo_4357" data-name="Grupo 4357">
                <path id="Trazado_4844" data-name="Trazado 4844" d="M679.095,457.891h-.51v-.526h.51a1.423,1.423,0,0,0,1.381-.9c.959-2.971,3.749-12.784-.624-14.328a5.238,5.238,0,0,0-4.4.677,18.565,18.565,0,0,0-7.636,10.362,1.158,1.158,0,0,0,.624,1.221l.513.293-.261.457-.513-.293a1.677,1.677,0,0,1-.879-1.782,18.877,18.877,0,0,1,7.892-10.715,5.731,5.731,0,0,1,4.832-.716c4.69,1.656,2.226,11.031.95,14.986A1.951,1.951,0,0,1,679.095,457.891Z" fill="#021416"/>
              </g>
              <path id="Trazado_4845" data-name="Trazado 4845" d="M670.091,455.083a1.084,1.084,0,1,1-1.076-.954A1.021,1.021,0,0,1,670.091,455.083Z" fill="#757572"/>
              <path id="Trazado_4846" data-name="Trazado 4846" d="M679.661,457.628a1.083,1.083,0,1,1-1.076-.954A1.021,1.021,0,0,1,679.661,457.628Z" fill="#757572"/>
            </g>
          </g>
        </g>
        <path id="Trazado_4847" data-name="Trazado 4847" d="M646.094,416.727s-4.548,7.7,0,9.751C646.094,426.478,644.1,420.808,646.094,416.727Z" fill="#d88080"/>
        <path id="Trazado_4848" data-name="Trazado 4848" d="M682.932,409.463s3.363,3.709,3.363,5.889Z" fill="#d88080"/>
        <path id="Trazado_4849" data-name="Trazado 4849" d="M664.084,374.95s-7.859,4.713-11.26,8.573C652.824,383.523,658.271,375.959,664.084,374.95Z" fill="#d88080"/>
        <path id="Trazado_4850" data-name="Trazado 4850" d="M683.722,385.939s.951,3.186,0,5.243Z" fill="#d88080"/>
        <path id="Trazado_4851" data-name="Trazado 4851" d="M664.129,379.447s-4.81,2.884-6.891,5.246C657.238,384.693,660.571,380.064,664.129,379.447Z" fill="#d88080"/>
        <path id="Trazado_4852" data-name="Trazado 4852" d="M674.044,374.342s5.647,6.762,7.408,11.4C681.452,385.747,679.149,377.007,674.044,374.342Z" fill="#d88080"/>
        <path id="Trazado_4853" data-name="Trazado 4853" d="M673.687,376.5s3.363,3.709,3.363,5.889Z" fill="#d88080"/>
        <g id="Grupo_4361" data-name="Grupo 4361">
          <path id="Trazado_4854" data-name="Trazado 4854" d="M664.128,395.382a2.107,2.107,0,0,1-.585,1.564.823.823,0,0,1-.542.221c-.623,0-1.127-.8-1.127-1.785,0-.907.425-1.658.978-1.772a.687.687,0,0,1,.149-.016.959.959,0,0,1,.777.5.366.366,0,0,0-.293.342.381.381,0,0,0,.4.356.441.441,0,0,0,.168-.033A2.781,2.781,0,0,1,664.128,395.382Z"/>
          <path id="Trazado_4855" data-name="Trazado 4855" d="M663.543,396.946a.823.823,0,0,1-.542.221c-.623,0-1.127-.8-1.127-1.785,0-.907.425-1.658.978-1.772a2.884,2.884,0,0,0-.391,2.2A1.725,1.725,0,0,0,663.543,396.946Z" fill="#665757" opacity="0.47"/>
        </g>
        <g id="Grupo_4362" data-name="Grupo 4362">
          <path id="Trazado_4856" data-name="Trazado 4856" d="M676.3,395.389a2.1,2.1,0,0,1-.586,1.565.818.818,0,0,1-.541.221c-.623,0-1.128-.8-1.128-1.786,0-.907.426-1.657.979-1.772a.752.752,0,0,1,.149-.015.959.959,0,0,1,.777.5.366.366,0,0,0-.293.342.381.381,0,0,0,.4.356.441.441,0,0,0,.168-.033A2.779,2.779,0,0,1,676.3,395.389Z"/>
          <path id="Trazado_4857" data-name="Trazado 4857" d="M675.713,396.954a.818.818,0,0,1-.541.221c-.623,0-1.128-.8-1.128-1.786,0-.907.426-1.657.979-1.772a2.886,2.886,0,0,0-.391,2.2A1.726,1.726,0,0,0,675.713,396.954Z" fill="#665757" opacity="0.47"/>
        </g>
      </g>
    </g>
    <g id="Grupo_4365" data-name="Grupo 4365" transform="translate(4365.579 -195.244)">
      <path id="Trazado_4858" data-name="Trazado 4858" d="M887.321,375.524a46.067,46.067,0,0,0-17.1-3.28c-29.736,0-52.4,28.047-47,58.745a50.492,50.492,0,0,0,9.932,22.379h0c19.163,24.495,55.044,24.461,74.172-.038h0C927.943,426.755,917.4,387.526,887.321,375.524Z" fill="#93d9ff"/>
      <path id="Trazado_4859" data-name="Trazado 4859" d="M894.685,461.456c-.242-.259-.153-.159-.248-.3v3.713q.97-.594,1.911-1.236l-1.481-2.306Z" fill="#93d9ff"/>
      <path id="Trazado_4860" data-name="Trazado 4860" d="M845.811,461.456l-.182-.128-1.5,2.332q.922.627,1.874,1.21v-3.629C845.974,461.286,845.85,461.414,845.811,461.456Z" fill="#93d9ff"/>
      <path id="Trazado_4861" data-name="Trazado 4861" d="M893.24,432.8c-.041-.11-.082-.217-.123-.323C893.159,432.583,893.2,432.691,893.24,432.8Z" fill="#002b75"/>
      <path id="Trazado_4862" data-name="Trazado 4862" d="M893.468,433.452c-.014-.044-.029-.087-.044-.131C893.439,433.365,893.454,433.408,893.468,433.452Z" fill="#002b75"/>
      <path id="Trazado_4863" data-name="Trazado 4863" d="M893.356,433.122c-.029-.083-.058-.164-.088-.245C893.3,432.959,893.327,433.04,893.356,433.122Z" fill="#002b75"/>
      <path id="Trazado_4864" data-name="Trazado 4864" d="M893.775,434.476c-.023-.085-.047-.169-.071-.253C893.728,434.307,893.752,434.391,893.775,434.476Z" fill="#002b75"/>
      <path id="Trazado_4865" data-name="Trazado 4865" d="M893.68,434.137c-.033-.114-.066-.226-.1-.336C893.614,433.912,893.648,434.024,893.68,434.137Z" fill="#002b75"/>
      <path id="Trazado_4866" data-name="Trazado 4866" d="M893.864,434.82c-.016-.065-.033-.129-.05-.193C893.831,434.691,893.848,434.755,893.864,434.82Z" fill="#002b75"/>
      <path id="Trazado_4867" data-name="Trazado 4867" d="M893.1,432.441c-.055-.141-.112-.279-.168-.414C892.993,432.164,893.049,432.3,893.1,432.441Z" fill="#002b75"/>
      <path id="Trazado_4868" data-name="Trazado 4868" d="M892.734,431.567c-.057-.125-.113-.246-.169-.363C892.622,431.324,892.679,431.445,892.734,431.567Z" fill="#002b75"/>
      <path id="Trazado_4869" data-name="Trazado 4869" d="M892.921,431.995c-.054-.128-.108-.252-.163-.373C892.814,431.746,892.868,431.87,892.921,431.995Z" fill="#002b75"/>
      <path id="Trazado_4870" data-name="Trazado 4870" d="M892.519,431.108c-.055-.113-.11-.224-.164-.33C892.411,430.887,892.465,431,892.519,431.108Z" fill="#002b75"/>
      <path id="Trazado_4871" data-name="Trazado 4871" d="M894.437,460.935v.19C894.438,461.064,894.437,461,894.437,460.935Z" fill="#002b75"/>
      <path id="Trazado_4872" data-name="Trazado 4872" d="M894.035,435.574c-.013-.064-.025-.127-.039-.19C893.916,435.013,893.962,435.22,894.035,435.574Z" fill="#002b75"/>
      <path id="Trazado_4873" data-name="Trazado 4873" d="M907.414,452.65,892.2,430.489c.072.135-.708-1.012,15.205,22.174Z" fill="#cdf8ff"/>
      <path id="Trazado_4874" data-name="Trazado 4874" d="M889.705,426.848l-.009.007.072.084Z" fill="#cdf8ff"/>
      <path id="Trazado_4875" data-name="Trazado 4875" d="M894.867,461.328l1.481,2.306a48.776,48.776,0,0,0,10.974-10.3l-.244-.379C901.408,456.853,896.66,460.062,894.867,461.328Z" fill="#572f1f"/>
      <path id="Trazado_4876" data-name="Trazado 4876" d="M894.333,437.5c.148,1.426.1.154.1,23.659a1.19,1.19,0,0,0,.248.3c.012-.008,12.738-8.768,12.748-8.757q-7.617-11.04-15.179-22.118A19.18,19.18,0,0,1,894.333,437.5Z" fill="#0f688f"/>
      <path id="Trazado_4877" data-name="Trazado 4877" d="M833.418,452.951l-.268.417a48.754,48.754,0,0,0,10.981,10.292l1.5-2.332C843.832,460.059,839.726,457.29,833.418,452.951Z" fill="#572f1f"/>
      <path id="Trazado_4878" data-name="Trazado 4878" d="M845.811,461.456c.039-.042.163-.17.194-.215V439.5a19.179,19.179,0,0,1,2.027-8.611q-7.483,10.9-14.969,21.81S845.019,460.9,845.811,461.456Z" fill="#0f688f"/>
      <path id="Trazado_4879" data-name="Trazado 4879" d="M859.931,421.237v0a17.836,17.836,0,0,0-8.237,4.62v0A17.845,17.845,0,0,1,859.931,421.237Z" fill="#93d9ff"/>
      <path id="Trazado_4880" data-name="Trazado 4880" d="M884.236,422.614a17.908,17.908,0,0,1,2.357,1.43A17.823,17.823,0,0,0,884.236,422.614Z" fill="#93d9ff"/>
      <path id="Trazado_4881" data-name="Trazado 4881" d="M881.1,421.389q.27.076.535.16Q881.367,421.465,881.1,421.389Z" fill="#93d9ff"/>
      <path id="Trazado_4882" data-name="Trazado 4882" d="M881.634,421.55q.266.084.528.177Q881.9,421.634,881.634,421.55Z" fill="#93d9ff"/>
      <path id="Trazado_4883" data-name="Trazado 4883" d="M888.726,425.834c-.125-.123-.253-.243-.381-.362.128.119.256.239.381.362Z" fill="#93d9ff"/>
      <path id="Trazado_4884" data-name="Trazado 4884" d="M893.814,434.627a18.971,18.971,0,0,0-5.088-8.793h0a17.855,17.855,0,0,0-7.63-4.445l-11.091,13.245-10.243-13.355A18.7,18.7,0,0,0,846.005,439.5v25.37a46.2,46.2,0,0,0,48.432,0C894.437,437.346,894.664,437.893,893.814,434.627Zm-4.782,16.421H877.96V437.964h11.072Z" fill="#2b94ba"/>
      <path id="Trazado_4885" data-name="Trazado 4885" d="M870.005,434.634,881.1,421.389a17.174,17.174,0,0,0-2.495-.514c-4.126,5.614-11.2,6.648-16.008-.071a17.219,17.219,0,0,0-2.831.475Z" fill="#572f1f"/>
      <rect id="Rectángulo_1065" data-name="Rectángulo 1065" width="11.072" height="13.085" transform="translate(877.96 437.964)" fill="#0f688f"/>
      <ellipse id="Elipse_758" data-name="Elipse 758" cx="1.951" cy="3.464" rx="1.951" ry="3.464" transform="translate(881.188 406.422)" fill="#572f1f"/>
      <ellipse id="Elipse_759" data-name="Elipse 759" cx="1.951" cy="3.464" rx="1.951" ry="3.464" transform="translate(855.768 406.422)" fill="#572f1f"/>
      <ellipse id="Elipse_760" data-name="Elipse 760" cx="12.624" cy="17.465" rx="12.624" ry="17.465" transform="translate(857.719 391.656)" fill="#633e31"/>
      <path id="Trazado_4886" data-name="Trazado 4886" d="M870.164,419.687c2.161,0,3.912-1.279,3.912-2.856h-7.824C866.252,418.408,868,419.687,870.164,419.687Z" fill="#fff"/>
      <path id="Trazado_4887" data-name="Trazado 4887" d="M870.159,408.281c-.4.04-1.742,1.78-1.683,3.839a2.616,2.616,0,0,0,.561,1.982c.922.939,2.554,1.2,2.8-.689.191-1.456-1.376-2.722-1.647-4.281C870.143,408.861,870.233,408.531,870.159,408.281Z" fill="#572f1f"/>
      <ellipse id="Elipse_761" data-name="Elipse 761" cx="0.967" cy="1.006" rx="0.967" ry="1.006" transform="translate(864.005 407.474)"/>
      <ellipse id="Elipse_762" data-name="Elipse 762" cx="0.967" cy="1.006" rx="0.967" ry="1.006" transform="translate(874.249 407.474)"/>
      <path id="Trazado_4888" data-name="Trazado 4888" d="M877.079,404.736c-.266.322-.784.1-1.1.331-.173.128-.333.5-.781.145-.308-.245-.372-.377-.872-.256a1.059,1.059,0,0,1-.466.043.36.36,0,0,1-.295-.332c0-.134.106-.269.052-.392-.028-.065-.1-.107-.119-.174-.061-.18.229-.588.791-.571.2.006.181-.05.281-.174a.4.4,0,0,1,.385-.117c.194.038.329.187.511.242a2.253,2.253,0,0,1,1.446.629C877.04,404.273,877.268,404.508,877.079,404.736Z" fill="#110e0b"/>
      <path id="Trazado_4889" data-name="Trazado 4889" d="M866.781,404.575c-.1.53-.514.3-.734.341s-.364.29-.585.314a3.308,3.308,0,0,1-.718-.146,3.994,3.994,0,0,1-.774-.217c-.2-.071-.508.035-.666-.152s-.054-.653.056-.849c.142-.252.321-.251.56-.255.414-.007,1.079-.257,1.249-.254.384.007.724.3,1.107.3.179,0,.4-.05.505.1a.568.568,0,0,1,.032.4C866.8,404.293,866.808,404.437,866.781,404.575Z" fill="#110e0b"/>
      <path id="Trazado_4890" data-name="Trazado 4890" d="M882.479,389.493a3.962,3.962,0,0,0-3.149-.853,1.311,1.311,0,0,0-.926,1.3c-.822-1.685-2.694-4.412-4.371-5.085a3.2,3.2,0,0,0-4.3,3.21,30.465,30.465,0,0,0-5.161-.559c-3.495-.078-3.007,1.756-3.663,2.4a1.843,1.843,0,0,1-1.02.393,5.4,5.4,0,0,0-4.278,2.668,5.056,5.056,0,0,0-.306,3.441c.244,1.151.7,2.242.989,3.381a33.023,33.023,0,0,1,.756,6.792c.021.565-.02,3.911,1.091,3.6.5-.142.673-1.522.759-2.045.514-3.137,2.387-8.916,5.539-9.457,2.272-.391,3.45,2.692,6.173,2.784v0h.067v0c2.6-.1,3.712-3.176,5.884-2.784,3.007.541,4.793,6.32,5.284,9.457.081.523.245,1.9.722,2.045.8.241,1.932-5.968,2.042-6.761.186-1.335.747-2.59.939-3.925a4.394,4.394,0,0,0-.393-2.712,3.321,3.321,0,0,0-.781-.944c-.292-.229-.808-.274-1.044-.564s.148-1.294.2-1.695A4.476,4.476,0,0,0,882.479,389.493Z" fill="#110e0b"/>
      <rect id="Rectángulo_1066" data-name="Rectángulo 1066" width="12.225" height="7.793" transform="translate(851.693 439.894)" fill="#ffb3e2" stroke="#93d9ff" stroke-miterlimit="10" stroke-width="1"/>
      <path id="Trazado_4891" data-name="Trazado 4891" d="M862.213,442.173H853.4a.293.293,0,0,1-.287-.3h0a.294.294,0,0,1,.287-.3h8.816a.294.294,0,0,1,.287.3h0A.293.293,0,0,1,862.213,442.173Z" fill="#e880ca"/>
      <path id="Trazado_4892" data-name="Trazado 4892" d="M862.213,443.791H853.4a.294.294,0,0,1-.287-.3h0a.294.294,0,0,1,.287-.3h8.816a.294.294,0,0,1,.287.3h0A.294.294,0,0,1,862.213,443.791Z" fill="#e880ca"/>
      <path id="Trazado_4893" data-name="Trazado 4893" d="M862.213,445.408H853.4a.294.294,0,0,1-.287-.3h0a.293.293,0,0,1,.287-.3h8.816a.293.293,0,0,1,.287.3h0A.294.294,0,0,1,862.213,445.408Z" fill="#e880ca"/>
      <path id="Trazado_4894" data-name="Trazado 4894" d="M858.519,440.708l-1.576.008q-.361-1.278-.722-2.557h3.037Z" fill="#cdf8ff"/>
    </g>
    <path id="Trazado_4895" data-name="Trazado 4895" d="M10.01,4.889V7.467H6.66V19H3.76V7.467H.391V4.889Zm10.4,2.578H15.176v3.2h4.639v2.549H15.176v3.193H20.41V19H12.227V4.889H20.41Zm5.947,8.945h4.424V19H23.428V4.889h2.93ZM41.2,7.467H35.967v3.2h4.639v2.549H35.967v3.193H41.2V19H33.018V4.889H41.2Zm2.617,7.51V12.623h7v2.354Zm18.438-7.51H57.021v3.2H61.66v2.549H57.021v3.193h5.234V19H54.072V4.889h8.184ZM63.73,19l5.5-7.363L63.887,4.889h3.564l3.516,4.629,3.516-4.629h3.564l-5.342,6.748L78.2,19h-3.73l-3.506-4.99L67.461,19ZM86.182,4.889A4.247,4.247,0,0,1,89.434,6.2a4.569,4.569,0,0,1,1.23,3.247,4.456,4.456,0,0,1-1.221,3.228,4.324,4.324,0,0,1-3.262,1.265H83.242V19h-2.93V4.889Zm-.488,6.6a2.153,2.153,0,0,0,1.611-.552,2.1,2.1,0,0,0,.537-1.528A2.081,2.081,0,0,0,87.3,7.9a2.134,2.134,0,0,0-1.606-.562H83.242v4.15Zm15.615-4.023H96.074v3.2h4.639v2.549H96.074v3.193h5.234V19H93.125V4.889h8.184ZM111.777,19l-3.672-6.211h-.85V19h-2.93V4.889h5.117a5.919,5.919,0,0,1,2.051.327,3.546,3.546,0,0,1,1.421.908,3.889,3.889,0,0,1,.8,1.333,4.876,4.876,0,0,1,.269,1.65,3.446,3.446,0,0,1-.771,2.319A3.888,3.888,0,0,1,111,12.643L115.244,19ZM107.256,7.32v3.369h1.729q2.2,0,2.2-1.68a1.53,1.53,0,0,0-.537-1.24,2.554,2.554,0,0,0-1.66-.449Zm18.32-2.432V7.467h-3.35V19h-2.9V7.467h-3.369V4.889ZM127.793,19V4.889h2.93V19Zm12.822.2a7.877,7.877,0,0,1-2.876-.518,6.763,6.763,0,0,1-2.29-1.445,6.515,6.515,0,0,1-1.5-2.295,8,8,0,0,1-.547-3,7.644,7.644,0,0,1,.938-3.833,6.382,6.382,0,0,1,2.573-2.534,7.705,7.705,0,0,1,3.706-.879,7.488,7.488,0,0,1,4.141,1.143,6.255,6.255,0,0,1,2.529,3.145l-2.734,1a3.866,3.866,0,0,0-1.514-1.9,4.323,4.323,0,0,0-2.422-.684,4.145,4.145,0,0,0-3.086,1.23,4.528,4.528,0,0,0-1.211,3.32,4.534,4.534,0,0,0,1.216,3.325,4.14,4.14,0,0,0,3.081,1.235,4.307,4.307,0,0,0,2.417-.688,3.883,3.883,0,0,0,1.519-1.909l2.734,1a6.28,6.28,0,0,1-2.529,3.149A7.464,7.464,0,0,1,140.615,19.2Zm9.072-.2V4.889h2.93V19ZM165.7,19l-1.025-2.91H158.75L157.725,19h-3l5.2-14.111h3.584L168.7,19Zm-6.094-5.361h4.209l-2.1-5.986Z" transform="translate(5079 292)" fill="#707070"/>
  </g>
</svg>
