<svg xmlns="http://www.w3.org/2000/svg" width="350.02" height="380.473" viewBox="0 0 350.02 380.473">
  <g id="Grupo_3353" data-name="Grupo 3353" transform="translate(-659.687 -83.067)">
    <ellipse id="Elipse_674" data-name="Elipse 674" cx="13.752" cy="23.819" rx="13.752" ry="23.819" transform="matrix(0.863, -0.505, 0.505, 0.863, 740.958, 97.128)" fill="#d9e9ff"/>
    <ellipse id="Elipse_675" data-name="Elipse 675" cx="13.752" cy="23.819" rx="13.752" ry="23.819" transform="translate(740.958 146.312) rotate(-30.311)" fill="#d9e9ff"/>
    <ellipse id="Elipse_676" data-name="Elipse 676" cx="13.752" cy="23.819" rx="13.752" ry="23.819" transform="matrix(0.863, -0.505, 0.505, 0.863, 740.958, 195.495)" fill="#d9e9ff"/>
    <path id="Trazado_3218" data-name="Trazado 3218" d="M1017.942,306.471a1.7,1.7,0,0,0-.72-1.351L976.2,282a1.208,1.208,0,0,0-1.717,1.236l.251,65.106a1.393,1.393,0,0,0,.654,1.212l41.115,23.57a1.208,1.208,0,0,0,1.717-1.236Z" transform="translate(-175.865 -110.957)" fill="#d9e9ff"/>
    <circle id="Elipse_677" data-name="Elipse 677" cx="4.059" cy="4.059" r="4.059" transform="matrix(0.23, -0.973, 0.973, 0.23, 921.308, 461.674)" fill="#d9e9ff"/>
    <circle id="Elipse_678" data-name="Elipse 678" cx="4.059" cy="4.059" r="4.059" transform="matrix(0.23, -0.973, 0.973, 0.23, 986.117, 420.51)" fill="#d9e9ff"/>
    <path id="Trazado_3219" data-name="Trazado 3219" d="M1011.751,179.314c1.059-12.408-6.364-28.24-16.58-35.362-4.7-3.276-9.169-4.133-12.732-2.9l0,0-.038.017a9.291,9.291,0,0,0-1.389.62l-8.359,4.119,4.3,0a18.73,18.73,0,0,0-2.193,7.717c-1.059,12.408,6.364,28.24,16.58,35.362a19.9,19.9,0,0,0,6.079,2.961l1,2.665,5.832-2.785a9.342,9.342,0,0,0,.943-.416l.1-.046,0-.007C1008.815,189.439,1011.237,185.337,1011.751,179.314Z" transform="translate(-174.841 -31.993)" fill="#c43f9f"/>
    <ellipse id="Elipse_679" data-name="Elipse 679" cx="15.945" cy="27.617" rx="15.945" ry="27.617" transform="translate(784.616 119.874) rotate(-25.12)" fill="#e655be"/>
    <path id="Trazado_3220" data-name="Trazado 3220" d="M1224.443,568.925l42.34-25.43a5.649,5.649,0,0,0-.082-9.661l-125.549-74.646-16.5,52.194Z" transform="translate(-259.756 -210.023)" fill="#88bdeb" opacity="0.19" style="mix-blend-mode: multiply;isolation: isolate"/>
    <path id="Trazado_3221" data-name="Trazado 3221" d="M1212.531,362.748l-88.245-58.522c-5.519-3.186-9.993-11.735-9.993-19.094V92.527c0-7.358,4.474-10.741,9.993-7.554l92.135,53.194c5.519,3.186,9.993,11.735,9.993,19.094V348.955c0,4.842-1.811,6.861-4.858,8.619Z" transform="translate(-253.97 -0.294)" fill="#a8c9ed"/>
    <path id="Trazado_3222" data-name="Trazado 3222" d="M1151.617,181.573s-47.241,110.488-47.241,103.129l-7.76-194.763,11.581-6.115c1.7-.8,3.843-.626,6.172.719l92.135,53.194a19.6,19.6,0,0,1,6.938,7.74Z" transform="translate(-244.094 -0.054)" fill="#ebf1f7"/>
    <path id="Trazado_3223" data-name="Trazado 3223" d="M1195.965,368.074l-91.909-53.194c-5.519-3.186-9.767-11.735-9.767-19.094V103.181c0-7.358,4.357-10.741,9.876-7.554l91.858,53.194c5.519,3.186,9.716,11.735,9.716,19.094v192.6C1205.739,367.879,1201.484,371.261,1195.965,368.074Z" transform="translate(-242.795 -6.246)" fill="#fff"/>
    <path id="Trazado_3224" data-name="Trazado 3224" d="M1191.789,369.621l-91.909-53.194c-5.519-3.186-9.767-11.735-9.767-19.094v-192.6c0-7.358,4.357-10.741,9.876-7.554l91.858,53.194c5.519,3.186,9.716,11.735,9.716,19.094v192.6C1201.563,369.426,1197.308,372.808,1191.789,369.621Z" transform="translate(-240.462 -7.11)" fill="#2c1f9c"/>
    <path id="Trazado_3225" data-name="Trazado 3225" d="M1199.378,362.929l-89.612-51.737a3.013,3.013,0,0,1-1.506-2.609V145.93a3.012,3.012,0,0,1,4.518-2.608l89.612,51.737a3.011,3.011,0,0,1,1.506,2.608V360.32A3.012,3.012,0,0,1,1199.378,362.929Z" transform="translate(-250.6 -33.333)" fill="#699eff"/>
    <path id="Trazado_3226" data-name="Trazado 3226" d="M1213.609,180.765l-28.42-16.409a4.357,4.357,0,0,1-1.813-3.464h0c0-1.33.816-1.946,1.813-1.371l28.42,16.409a4.359,4.359,0,0,1,1.813,3.464h0C1215.422,180.724,1214.606,181.341,1213.609,180.765Z" transform="translate(-292.565 -42.491)" fill="#c7e1f8"/>
    <path id="Trazado_3227" data-name="Trazado 3227" d="M1353.346,300.488h0a1.823,1.823,0,0,1-2.742-1.79V287.731a4.877,4.877,0,0,1,2.742-4.124h0a1.823,1.823,0,0,1,2.741,1.79v10.967A4.877,4.877,0,0,1,1353.346,300.488Z" transform="translate(-385.988 -111.809)" fill="#e6f0ff"/>
    <path id="Trazado_3228" data-name="Trazado 3228" d="M1356.013,300.821h0a1.823,1.823,0,0,1-2.742-1.79V288.064a4.877,4.877,0,0,1,2.742-4.124h0a1.823,1.823,0,0,1,2.741,1.79V296.7A4.877,4.877,0,0,1,1356.013,300.821Z" transform="translate(-387.478 -111.995)" fill="#6899e3"/>
    <path id="Trazado_3229" data-name="Trazado 3229" d="M1353.346,345.72h0a1.823,1.823,0,0,1-2.742-1.791V332.962a4.878,4.878,0,0,1,2.742-4.125h0a1.823,1.823,0,0,1,2.741,1.791v10.967A4.878,4.878,0,0,1,1353.346,345.72Z" transform="translate(-385.988 -137.078)" fill="#e6f0ff"/>
    <path id="Trazado_3230" data-name="Trazado 3230" d="M1356.013,346.053h0a1.823,1.823,0,0,1-2.742-1.791V333.3a4.878,4.878,0,0,1,2.742-4.125h0a1.823,1.823,0,0,1,2.741,1.791v10.967A4.878,4.878,0,0,1,1356.013,346.053Z" transform="translate(-387.478 -137.264)" fill="#6899e3"/>
    <g id="Grupo_3286" data-name="Grupo 3286" transform="translate(905.376 327.842)">
      <ellipse id="Elipse_680" data-name="Elipse 680" cx="17.104" cy="7.845" rx="17.104" ry="7.845" transform="translate(12.217 77.754)" fill="#88bdeb" opacity="0.19" style="mix-blend-mode: multiply;isolation: isolate"/>
      <g id="Grupo_3284" data-name="Grupo 3284" transform="translate(0.437 51.47)">
        <ellipse id="Elipse_681" data-name="Elipse 681" cx="7.939" cy="13.751" rx="7.939" ry="13.751" transform="translate(6.584 40.987) rotate(-89.689)" fill="#c7e1f8"/>
        <path id="Trazado_3231" data-name="Trazado 3231" d="M1217.818,785.443l6.471,19.837,27.359.449,6.245-19.118Z" transform="translate(-1217.619 -771.601)" fill="#c7e1f8"/>
        <path id="Trazado_3232" data-name="Trazado 3232" d="M1269.429,787.226l-6.245,19.044h0c-.863,2.915-1.649,3.564-3.894,4.86a17.25,17.25,0,0,1-5.61,2.1,21.053,21.053,0,0,0,13.383-2.185c2.245-1.3,3.54-1.953,3.894-4.774h0l6.245-19.044Z" transform="translate(-1237.65 -772.597)" fill="#9ad0fc"/>
        <ellipse id="Elipse_682" data-name="Elipse 682" cx="11.728" cy="20.314" rx="11.728" ry="20.314" transform="matrix(0.005, -1, 1, 0.005, 0, 24.877)" fill="#fff"/>
        <ellipse id="Elipse_683" data-name="Elipse 683" cx="11.728" cy="20.314" rx="11.728" ry="20.314" transform="matrix(0.005, -1, 1, 0.005, 0, 23.456)" fill="#c7e1f8"/>
        <ellipse id="Elipse_684" data-name="Elipse 684" cx="10.067" cy="17.437" rx="10.067" ry="17.437" transform="matrix(0.005, -1, 1, 0.005, 2.746, 22.174)" fill="#2c1f9c"/>
      </g>
      <g id="Grupo_3285" data-name="Grupo 3285" transform="translate(0)">
        <path id="Trazado_3233" data-name="Trazado 3233" d="M1260.685,715.654c1.729-15.728,15.1-41.584,15.1-41.584-17.239,5.117-18.376,22.155-18.376,22.155Z" transform="translate(-1239.302 -657.911)" fill="#699eff"/>
        <path id="Trazado_3234" data-name="Trazado 3234" d="M1248.666,681.3c1.818-15.718-5.784-43.842-5.784-43.842,15.666,8.828,12.98,25.691,12.98,25.691Z" transform="translate(-1231.184 -637.456)" fill="#699eff"/>
        <path id="Trazado_3235" data-name="Trazado 3235" d="M1260.274,678.471c-14.39,3.249-23.087,28.435-23.087,28.435l0,.051c-.532-32.1-20.808-40.609-20.808-40.609,6.055,8.811,11.758,38.829,13.48,48.527a7.394,7.394,0,0,0,7.575,6.135q.307-.015.619-.049a7.312,7.312,0,0,0,6.276-5.941C1246.985,701.587,1260.274,678.471,1260.274,678.471Z" transform="translate(-1216.376 -653.597)" fill="#699eff"/>
      </g>
    </g>
    <g id="Grupo_3287" data-name="Grupo 3287" transform="translate(797.811 120.734)">
      <path id="Trazado_3236" data-name="Trazado 3236" d="M972.652,180.625l.026,5.175a1.422,1.422,0,0,0,.717,1.228l21.633,12.346a1.422,1.422,0,0,0,2.127-1.242l-.026-5.175a1.422,1.422,0,0,0-.717-1.228l-21.633-12.346A1.422,1.422,0,0,0,972.652,180.625Z" transform="translate(-972.652 -174.336)" fill="#fcfeff"/>
      <path id="Trazado_3237" data-name="Trazado 3237" d="M992.716,195.476l4.567,2.607a1.422,1.422,0,0,0,2.127-1.242l-.121-24.632a1.422,1.422,0,0,0-.717-1.228L994,168.374a1.422,1.422,0,0,0-2.126,1.242L992,194.248A1.422,1.422,0,0,0,992.716,195.476Z" transform="translate(-983.393 -168.185)" fill="#fcfeff"/>
    </g>
    <path id="Trazado_3238" data-name="Trazado 3238" d="M1200.372,277.387l-73.159-42.238c-2.106-1.216-3.829-4.508-3.829-7.316v-45.3c0-2.808,1.723-4.11,3.829-2.894l73.159,42.238c2.106,1.216,3.829,4.508,3.829,7.316v45.3C1204.2,277.3,1202.478,278.6,1200.372,277.387Z" transform="translate(-259.049 -53.597)" fill="#d9e9ff"/>
    <path id="Trazado_3239" data-name="Trazado 3239" d="M1196.021,406.361a5.454,5.454,0,0,0,8.18-4.723V381.622c0-2.808-1.723-6.1-3.829-7.316l-73.159-42.238c-2.106-1.216-3.829.087-3.829,2.894v25.166a7.44,7.44,0,0,0,3.72,6.443Z" transform="translate(-259.049 -138.752)" fill="#d9e9ff"/>
    <path id="Trazado_3240" data-name="Trazado 3240" d="M1196.021,511.6a5.453,5.453,0,0,0,8.18-4.723V486.863c0-2.808-1.723-6.1-3.829-7.316l-73.159-42.238c-2.106-1.216-3.829.087-3.829,2.894V465.37a7.44,7.44,0,0,0,3.72,6.443Z" transform="translate(-259.049 -197.546)" fill="#d9e9ff"/>
    <g id="Grupo_3292" data-name="Grupo 3292" transform="translate(862.076 138.362)">
      <g id="Grupo_3289" data-name="Grupo 3289">
        <g id="Grupo_3288" data-name="Grupo 3288">
          <ellipse id="Elipse_685" data-name="Elipse 685" cx="11.624" cy="20.711" rx="11.624" ry="20.711" transform="translate(0 11.72) rotate(-30.275)" fill="#fff"/>
        </g>
      </g>
      <path id="Trazado_3241" data-name="Trazado 3241" d="M1160.151,258.6a1.612,1.612,0,0,0,2.449-1.742,12.827,12.827,0,0,0-1.182-3.288h0a8.13,8.13,0,0,0-1.143-1.305c-.385-.378-.887-.912-1.374-1.429l-.487-.517h0l-.983-1.087-.44-.58a1.594,1.594,0,0,1-.1-.135c-.01-.071,0-.148-.006-.212l-.059-1.353a1.57,1.57,0,0,0,.714-1.3c.658.423.8-.429.86-1.036.042-.431.092-1.519-.42-1.949.011-.068.023-.132.034-.189a5.166,5.166,0,0,0,.138-1.139,3.837,3.837,0,0,0-.255-1.352,1.323,1.323,0,0,0-.165-.314,1.583,1.583,0,0,0-.084-.494,7.455,7.455,0,0,0-1.98-3.239,4.744,4.744,0,0,0-2.43-1.227c-.574-.1-1.333-.049-1.344.971a1.117,1.117,0,0,0,.072.388c-.109-.057-.192.01-.248.094a1.9,1.9,0,0,0-.205,1.068,8.562,8.562,0,0,0,.19,1.341c.015.071.028.149.042.23-.63-.4-.5.914-.424,1.452a3.121,3.121,0,0,0,.88,2.089,6,6,0,0,0,.2.91,5.621,5.621,0,0,0,.543,1.218c0,.006,0,.008,0,.016q.03.7.06,1.39c0,.039.013.115.01.161-.009-.033-.1.041-.13.053l-.271.125,0,0-.257-.049,0-.008-.061-.015a4.063,4.063,0,0,0-.515-.089l-.021,0h0c-.22-.025-.443-.039-.661-.052-.395-.022-.794-.133-1.179-.14-.961-.018-2.254.81-2.429,3.051a2.912,2.912,0,0,0,1.333,2.66Zm-1.884-14.024c-.006.059-.012.112-.017.153C1158.255,244.678,1158.261,244.626,1158.267,244.572Z" transform="translate(-1134.581 -222.954)" fill="#e655be"/>
      <g id="Grupo_3290" data-name="Grupo 3290" transform="translate(40.847 24.441)">
        <path id="Trazado_3242" data-name="Trazado 3242" d="M1231.143,275.9l-20.326-12.4v6.851l20.326,12.4Z" transform="translate(-1210.817 -263.506)" fill="#fff"/>
      </g>
      <g id="Grupo_3291" data-name="Grupo 3291" transform="translate(40.847 36.383)">
        <path id="Trazado_3243" data-name="Trazado 3243" d="M1210.817,290.565v6.851l30.841,18.808v-6.851Z" transform="translate(-1210.817 -290.565)" fill="#fff"/>
      </g>
    </g>
    <g id="Grupo_3293" data-name="Grupo 3293" transform="translate(913.666 279.969)">
      <path id="Trazado_3244" data-name="Trazado 3244" d="M1255.485,541.381l-20.326-12.4v6.851l20.326,12.4Z" transform="translate(-1235.159 -528.985)" fill="#fff"/>
    </g>
    <g id="Grupo_3294" data-name="Grupo 3294" transform="translate(891.256 221.528)">
      <path id="Trazado_3245" data-name="Trazado 3245" d="M1184.381,396.566v6.851l30.841,18.808v-6.851Z" transform="translate(-1184.381 -396.566)" fill="#fff"/>
    </g>
    <g id="Grupo_3295" data-name="Grupo 3295" transform="translate(871.854 255.006)">
      <path id="Trazado_3246" data-name="Trazado 3246" d="M1140.421,472.422v6.851l30.841,18.808V491.23Z" transform="translate(-1140.421 -472.422)" fill="#fff"/>
    </g>
    <g id="Grupo_3296" data-name="Grupo 3296" transform="translate(878.216 258.938)">
      <path id="Trazado_3247" data-name="Trazado 3247" d="M1154.837,481.332v6.851l30.841,18.808V500.14Z" transform="translate(-1154.837 -481.332)" fill="#fff"/>
    </g>
    <path id="Trazado_3248" data-name="Trazado 3248" d="M1146.108,362a4.015,4.015,0,0,0-3.916,1.217c-.264.257-.8-.055-1.057-.618a15.929,15.929,0,0,0-3.92-5.733c-3.365-2.66-5.776-.644-4.811,3.749,1.028,5.269,9.158,17.23,9.158,17.23l.2.115s8.13-2.573,9.158-6.655C1151.885,368.026,1149.817,362.852,1146.108,362Z" transform="translate(-263.968 -152.193)" fill="#e655be"/>
    <g id="Grupo_3299" data-name="Grupo 3299" transform="translate(872.386 211.815)">
      <g id="Grupo_3298" data-name="Grupo 3298">
        <g id="Grupo_3297" data-name="Grupo 3297">
          <path id="Trazado_3249" data-name="Trazado 3249" d="M1147.937,383.6l-.025-.015a1.575,1.575,0,0,1-.639-.9l-1.418-5.367-.734,1.752c-.1.249-.368.3-.657.137l-2.523-1.457a.63.63,0,0,1-.316-.546h0a.631.631,0,0,1,.947-.547l1.5.868,1.144-2.729c.1-.25.368-.3.657-.137l.009,0a1.589,1.589,0,0,1,.654.913l1.449,5.487.594-1.216c.111-.229.365-.274.645-.112l2.719,1.57a.631.631,0,0,1,.316.547h0a.631.631,0,0,1-.947.547l-1.717-.991-1.017,2.083C1148.469,383.719,1148.218,383.761,1147.937,383.6Zm-4-5.746v0Zm5.81,3.245h0Z" transform="translate(-1141.627 -374.559)" fill="#fff"/>
        </g>
      </g>
    </g>
    <path id="Trazado_3250" data-name="Trazado 3250" d="M1334.327,415.976l29.372,16.051a4.156,4.156,0,0,1,1.744,3.379v20.412l1.477,8.076-7.852-8.345-24.741-13.52a4.157,4.157,0,0,1-1.744-3.379v-21.2C1332.583,416.115,1333.368,415.452,1334.327,415.976Z" transform="translate(-375.92 -185.782)" fill="#699eff" opacity="0.71"/>
    <g id="Grupo_3300" data-name="Grupo 3300" transform="translate(934.972 208.797)">
      <path id="Trazado_3251" data-name="Trazado 3251" d="M1318.452,385.633l-30.651-17.7c-1-.578-1.82.041-1.82,1.375v20.412l-2.547,10.538,9.2-3.483,25.818,14.906c1,.578,1.82-.041,1.82-1.375v-21.2A4.374,4.374,0,0,0,1318.452,385.633Z" transform="translate(-1283.434 -367.72)" fill="#fff"/>
    </g>
    <g id="Grupo_3301" data-name="Grupo 3301" transform="translate(945.047 223.344)">
      <path id="Trazado_3252" data-name="Trazado 3252" d="M1311.073,405.16c0,1.524-1.077,2.139-2.405,1.372a5.3,5.3,0,0,1-2.405-4.149c0-1.524,1.077-2.138,2.405-1.371A5.3,5.3,0,0,1,1311.073,405.16Z" transform="translate(-1306.263 -400.681)" fill="#699eff"/>
      <ellipse id="Elipse_686" data-name="Elipse 686" cx="1.958" cy="3.391" rx="1.958" ry="3.391" transform="matrix(0.863, -0.505, 0.505, 0.863, 6.413, 5.501)" fill="#699eff"/>
      <ellipse id="Elipse_687" data-name="Elipse 687" cx="1.958" cy="3.391" rx="1.958" ry="3.391" transform="matrix(0.863, -0.505, 0.505, 0.863, 13.823, 9.852)" fill="#699eff"/>
    </g>
    <ellipse id="Elipse_688" data-name="Elipse 688" cx="15.045" cy="26.059" rx="15.045" ry="26.059" transform="translate(856.822 147.898) rotate(-30.31)" fill="none" stroke="#fff" stroke-linecap="round" stroke-linejoin="round" stroke-width="1.524"/>
    <g id="Grupo_3324" data-name="Grupo 3324" transform="translate(791.631 176.758)">
      <path id="Trazado_3253" data-name="Trazado 3253" d="M959.555,362.823l41.115,23.57a1.208,1.208,0,0,0,1.717-1.236l-.282-65.42a1.7,1.7,0,0,0-.72-1.351L960.367,295.27a1.208,1.208,0,0,0-1.717,1.236l.251,65.106A1.393,1.393,0,0,0,959.555,362.823Z" transform="translate(-958.65 -295.126)" fill="#2c1f9c"/>
      <g id="Grupo_3323" data-name="Grupo 3323" transform="translate(3.352 8.648)">
        <g id="Grupo_3322" data-name="Grupo 3322">
          <path id="Trazado_3254" data-name="Trazado 3254" d="M1004.457,396.671l1.19.682c.875.5,1.58-.142,1.575-1.437v-.291l-4.1-2.35,0,.672A3.4,3.4,0,0,0,1004.457,396.671Z" transform="translate(-986.846 -358.605)" fill="#5abddc"/>
          <path id="Trazado_3255" data-name="Trazado 3255" d="M1004.5,408.028l1.19.682c.875.5,1.58-.142,1.575-1.437v-.291l-4.1-2.35,0,.672A3.406,3.406,0,0,0,1004.5,408.028Z" transform="translate(-986.87 -364.95)" fill="#5abddc"/>
          <path id="Trazado_3256" data-name="Trazado 3256" d="M1004.414,385.314l1.189.682c.875.5,1.58-.142,1.575-1.437v-.291l-4.1-2.351,0,.672A3.4,3.4,0,0,0,1004.414,385.314Z" transform="translate(-986.821 -352.261)" fill="#5abddc"/>
          <path id="Trazado_3257" data-name="Trazado 3257" d="M1004.37,373.958l1.19.682c.875.5,1.58-.142,1.575-1.437v-.291l-4.1-2.35,0,.672A3.4,3.4,0,0,0,1004.37,373.958Z" transform="translate(-986.797 -345.917)" fill="#5abddc"/>
          <path id="Trazado_3258" data-name="Trazado 3258" d="M1004.326,362.6l1.19.682c.875.5,1.58-.142,1.575-1.437v-.291l-4.1-2.35,0,.672A3.4,3.4,0,0,0,1004.326,362.6Z" transform="translate(-986.773 -339.572)" fill="#5abddc"/>
          <path id="Trazado_3259" data-name="Trazado 3259" d="M1004.235,349.352l1.189.682c.9.514,1.62-.146,1.615-1.473l-.01-2.56-4.1-2.351.012,3.06A3.3,3.3,0,0,0,1004.235,349.352Z" transform="translate(-986.739 -330.882)" fill="#5abddc"/>
          <path id="Trazado_3260" data-name="Trazado 3260" d="M1003.828,419.543l1.448.83c1.065.61,1.922-.173,1.916-1.748v-.354l-4.988-2.86,0,.818A4.141,4.141,0,0,0,1003.828,419.543Z" transform="translate(-986.333 -370.972)" fill="#5abddc"/>
          <path id="Trazado_3261" data-name="Trazado 3261" d="M1003.415,431l1.612.924c1.185.68,2.141-.192,2.133-1.947v-.394L1001.6,426.4l0,.91A4.612,4.612,0,0,0,1003.415,431Z" transform="translate(-985.998 -377.111)" fill="#5abddc"/>
          <path id="Trazado_3262" data-name="Trazado 3262" d="M1003.464,443.666l1.612.924c1.185.68,2.141-.192,2.133-1.947v-.394l-5.555-3.185,0,.91A4.612,4.612,0,0,0,1003.464,443.666Z" transform="translate(-986.026 -384.187)" fill="#5abddc"/>
          <path id="Trazado_3263" data-name="Trazado 3263" d="M1002.569,454.757l1.949,1.117c1.433.821,2.588-.233,2.58-2.354l0-.476-6.716-3.85,0,1.1A5.575,5.575,0,0,0,1002.569,454.757Z" transform="translate(-985.315 -389.846)" fill="#5abddc"/>
          <g id="Grupo_3302" data-name="Grupo 3302" transform="translate(1.857)">
            <path id="Trazado_3264" data-name="Trazado 3264" d="M982,322.568a6.178,6.178,0,0,1-2.34-.7c-3.521-2.27-4.789-5.181-7.574-6.9-.5-.306-1.106-.45-1.443.336a4.061,4.061,0,0,0,.041,2.572,3.867,3.867,0,0,0,1.092,1.607h0a17.63,17.63,0,0,0,5.837,3.288,11.156,11.156,0,0,1,2.9,1.5c.535.432,1.253,1.633,1.85,1.466.3-.084.47-.584.5-1.2C982.908,323.411,982.45,322.6,982,322.568Z" transform="translate(-970.451 -314.72)" fill="#5abddc"/>
          </g>
          <g id="Grupo_3303" data-name="Grupo 3303" transform="translate(22.085 13.086)">
            <path id="Trazado_3265" data-name="Trazado 3265" d="M1017.137,344.6a12.136,12.136,0,0,0,2.344,1.981c3.52,1.767,4.771.3,7.554,1.773a3.09,3.09,0,0,1,1.452,2,3.8,3.8,0,0,1-.021,2.536.882.882,0,0,1-1.084.36h0c-1.85-.376-3.864-1.974-5.838-3.4a12.784,12.784,0,0,0-2.9-1.818c-.534-.18-1.245.2-1.847-.653a3.63,3.63,0,0,1-.51-1.78C1016.23,344.4,1016.685,344.107,1017.137,344.6Z" transform="translate(-1016.286 -344.371)" fill="#5abddc"/>
          </g>
          <g id="Grupo_3304" data-name="Grupo 3304" transform="translate(1.39 10.794)">
            <path id="Trazado_3266" data-name="Trazado 3266" d="M975.764,340.117c-2.931,1.761-4.556,4.506-4.871,9.619a66.391,66.391,0,0,0,.818,14.652,41.575,41.575,0,0,0,2.076,7.836c.854,2.334,2.521,4.845,4.375,4.064.734-.31.814-1.929,1.052-2.882.627-2.518,1.136-4.44,2.794-5.653.312-.229.806.683.493.911-1.989,1.456-2.039,4.252-3,6.916-.411,1.144-1.059,2.474-2.245,2.316-2.769-.369-4.362-6.206-5.18-9.053a63.044,63.044,0,0,1-2.623-19.914c.31-5.383,2.718-7.863,5.812-9.723.328-.2.824.714.494.911Z" transform="translate(-969.394 -339.178)" fill="#5abddc"/>
          </g>
          <g id="Grupo_3305" data-name="Grupo 3305" transform="translate(5.036 12.441)">
            <path id="Trazado_3267" data-name="Trazado 3267" d="M985.99,350.644c-3.108-.707-5.406-2.827-8.2-6.335-.4-.5.192-1.814.557-1.27,2.235,3.337,4.5,5.969,7.459,6.641.432.1.619,1.063.188.965Z" transform="translate(-977.655 -342.909)" fill="#5abddc"/>
          </g>
          <g id="Grupo_3306" data-name="Grupo 3306" transform="translate(2.909 15.597)">
            <path id="Trazado_3268" data-name="Trazado 3268" d="M983.315,359.059c-3.533-.848-7.088-3.386-10.354-7.373-.4-.488.259-2.066.611-1.511,2.069,3.267,6.2,7.113,9.555,7.918.432.1.621,1.069.188.965Z" transform="translate(-972.836 -350.059)" fill="#5abddc"/>
          </g>
          <g id="Grupo_3307" data-name="Grupo 3307" transform="translate(1.777 20.868)">
            <path id="Trazado_3269" data-name="Trazado 3269" d="M981.583,369.373c-3.482-.216-7.461-2.092-11.042-5.757-.419-.429-.322-1.972.1-1.538,3.48,3.562,7.37,6.12,10.752,6.33.414.026.6.99.188.965Z" transform="translate(-970.271 -362.002)" fill="#5abddc"/>
          </g>
          <g id="Grupo_3308" data-name="Grupo 3308" transform="translate(1.743 24.536)">
            <path id="Trazado_3270" data-name="Trazado 3270" d="M982.5,378.589a15.88,15.88,0,0,1-12.068-6.366c-.391-.5-.262-2.326.13-1.821,3.528,4.551,8.225,7.046,11.75,7.222.413.02.6.985.188.965Z" transform="translate(-970.194 -370.314)" fill="#5abddc"/>
          </g>
          <g id="Grupo_3309" data-name="Grupo 3309" transform="translate(2.369 30.985)">
            <path id="Trazado_3271" data-name="Trazado 3271" d="M983.657,390.758c-3.377.776-7.779-.625-11.725-3.683-.441-.342-.421-2.451.018-2.111,3.756,2.912,8.146,5.561,11.353,4.824.379-.087.731.884.354.971Z" transform="translate(-971.612 -384.926)" fill="#5abddc"/>
          </g>
          <g id="Grupo_3310" data-name="Grupo 3310" transform="translate(3.364 35.873)">
            <path id="Trazado_3272" data-name="Trazado 3272" d="M984.93,400.439a11.852,11.852,0,0,1-10.558-2.382c-.441-.339-.726-2.354-.287-2.017,3.583,2.756,7.5,4.163,10.492,3.429.377-.092.729.878.354.971Z" transform="translate(-973.866 -396.002)" fill="#5abddc"/>
          </g>
          <g id="Grupo_3311" data-name="Grupo 3311" transform="translate(4.43 41.055)">
            <path id="Trazado_3273" data-name="Trazado 3273" d="M984.107,410.448a6.327,6.327,0,0,1-3.236.945,9.381,9.381,0,0,1-4.042-1.873c-.443-.3-.786-2.042-.339-1.742,1.194.8,2.616,2.111,3.766,2.269a5.878,5.878,0,0,0,3.358-.512c.341-.165.838.745.494.912Z" transform="translate(-976.281 -407.744)" fill="#5abddc"/>
          </g>
          <g id="Grupo_3312" data-name="Grupo 3312" transform="translate(21.935 23.028)">
            <path id="Trazado_3274" data-name="Trazado 3274" d="M1022.594,367.54a33.67,33.67,0,0,1,4.967,15.258,55.361,55.361,0,0,1-.707,13.779,15.667,15.667,0,0,1-2.025,5.485c-.84,1.362-2.494,1.97-4.363-.945-.74-1.155-.833-2.873-1.079-4.1a28.788,28.788,0,0,0-2.851-8.889c-.316-.589-.8-.241-.489.348,2.009,3.747,2.081,6.614,3.062,10.389a11.331,11.331,0,0,0,2.274,4.907c2.779,2.811,4.333-1.222,5.132-3.142A39.492,39.492,0,0,0,1029,383.637c-.353-5.763-2.791-11.022-5.913-16.446-.331-.575-.821-.229-.489.348Z" transform="translate(-1015.945 -366.896)" fill="#5abddc"/>
          </g>
          <g id="Grupo_3313" data-name="Grupo 3313" transform="translate(22.766 24.838)">
            <path id="Trazado_3275" data-name="Trazado 3275" d="M1018.075,371.865c3.117,2.862,5.407,3.372,8.191,3.063.394-.044-.208-2.043-.569-1.915-2.219.784-4.479.819-7.441-1.9-.433-.4-.614.356-.181.753Z" transform="translate(-1017.828 -370.999)" fill="#5abddc"/>
          </g>
          <g id="Grupo_3314" data-name="Grupo 3314" transform="translate(22.782 29.261)">
            <path id="Trazado_3276" data-name="Trazado 3276" d="M1018.113,381.884c3.542,3.207,7.094,4.744,10.343,4.492.4-.03-.276-2.372-.625-2.219-2.054.9-6.176.017-9.536-3.027-.434-.392-.615.361-.181.753Z" transform="translate(-1017.865 -381.021)" fill="#5abddc"/>
          </g>
          <g id="Grupo_3315" data-name="Grupo 3315" transform="translate(23.126 33.235)">
            <path id="Trazado_3277" data-name="Trazado 3277" d="M1018.877,390.916c3.5,3.785,7.478,6.472,11.046,6.906.418.051.308-1.61-.114-1.662a17.948,17.948,0,0,1-10.751-6c-.416-.451-.593.308-.181.753Z" transform="translate(-1018.643 -390.024)" fill="#5abddc"/>
          </g>
          <g id="Grupo_3316" data-name="Grupo 3316" transform="translate(22.199 36.724)">
            <path id="Trazado_3278" data-name="Trazado 3278" d="M1016.776,398.823c3.715,4.066,8.4,8.015,12.073,7.473.389-.057.245-2.036-.145-1.978-3.509.517-8.207-2.374-11.747-6.248-.414-.454-.591.3-.181.753Z" transform="translate(-1016.543 -397.93)" fill="#5abddc"/>
          </g>
          <g id="Grupo_3317" data-name="Grupo 3317" transform="translate(21.93 40.443)">
            <path id="Trazado_3279" data-name="Trazado 3279" d="M1016.1,407.133c3.4,4.66,7.809,8.312,11.748,9.773.44.163.4-1.979-.034-2.141a24.073,24.073,0,0,1-11.366-8.2c-.381-.523-.728.047-.348.568Z" transform="translate(-1015.933 -406.357)" fill="#5abddc"/>
          </g>
          <g id="Grupo_3318" data-name="Grupo 3318" transform="translate(21.944 43.936)">
            <path id="Trazado_3280" data-name="Trazado 3280" d="M1016.13,415.047c3.186,4.417,6.817,8.318,10.587,9.74.44.166.711-1.531.273-1.7a24.524,24.524,0,0,1-10.512-8.611c-.379-.526-.725.045-.348.568Z" transform="translate(-1015.967 -414.27)" fill="#5abddc"/>
          </g>
          <g id="Grupo_3319" data-name="Grupo 3319" transform="translate(24.198 50.041)">
            <path id="Trazado_3281" data-name="Trazado 3281" d="M1021.191,428.736a29.99,29.99,0,0,0,3.257,4.668,12.447,12.447,0,0,0,4.045,2.763c.443.212.775-1.147.328-1.36-1.193-.57-2.611-.885-3.765-2.047a24.885,24.885,0,0,1-3.377-4.372c-.344-.558-.836-.215-.489.348Z" transform="translate(-1021.072 -428.104)" fill="#5abddc"/>
          </g>
          <g id="Grupo_3320" data-name="Grupo 3320" transform="translate(0 5.486)">
            <path id="Trazado_3282" data-name="Trazado 3282" d="M966.921,331.888a2.5,2.5,0,0,1-.511-1.088,7.586,7.586,0,0,1-.135-2.268c.13-1.324.551-1.455.879-1.355h0l2.506.765c.284.087,1.6.248,1.221,3.149a2.288,2.288,0,0,1-3.96.8Z" transform="translate(-966.245 -327.151)" fill="#5abddc"/>
          </g>
          <g id="Grupo_3321" data-name="Grupo 3321" transform="translate(32.168 23.022)">
            <path id="Trazado_3283" data-name="Trazado 3283" d="M1043.193,374.466c.185-.015.372-.091.5-.506a6.12,6.12,0,0,0,.117-2.123,3.353,3.353,0,0,0-.893-2.37h0l-2.511-2.111c-.285-.239-1.61-1.6-1.2,1.76a8.655,8.655,0,0,0,1.958,3.851C1041.857,373.928,1042.543,374.5,1043.193,374.466Z" transform="translate(-1039.132 -366.883)" fill="#5abddc"/>
          </g>
          <path id="Trazado_3284" data-name="Trazado 3284" d="M1001.565,359.27l5.092,2.919c.137.079.248-.023.248-.226h0a.641.641,0,0,0-.25-.511l-5.092-2.919c-.137-.079-.248.023-.248.226h0A.641.641,0,0,0,1001.565,359.27Z" transform="translate(-985.837 -339.181)" fill="#5abddc"/>
          <path id="Trazado_3285" data-name="Trazado 3285" d="M1004.212,333.036l1.19.682c.875.5,1.58-.142,1.575-1.437v-.291l-4.1-2.35,0,.672A3.4,3.4,0,0,0,1004.212,333.036Z" transform="translate(-986.709 -323.055)" fill="#5abddc"/>
          <path id="Trazado_3286" data-name="Trazado 3286" d="M1001.451,329.7l5.092,2.919c.137.079.248-.023.248-.226h0a.642.642,0,0,0-.25-.511l-5.093-2.919c-.137-.079-.248.023-.247.226h0A.641.641,0,0,0,1001.451,329.7Z" transform="translate(-985.773 -322.665)" fill="#5abddc"/>
          <path id="Trazado_3287" data-name="Trazado 3287" d="M1001.609,370.626l5.092,2.919c.137.079.248-.023.248-.226h0a.641.641,0,0,0-.25-.511l-5.093-2.919c-.137-.079-.248.023-.247.226h0A.64.64,0,0,0,1001.609,370.626Z" transform="translate(-985.862 -345.526)" fill="#5abddc"/>
          <path id="Trazado_3288" data-name="Trazado 3288" d="M1001.653,381.983l5.092,2.919c.137.079.248-.023.248-.226h0a.642.642,0,0,0-.25-.512l-5.093-2.919c-.137-.079-.248.023-.248.226h0A.641.641,0,0,0,1001.653,381.983Z" transform="translate(-985.886 -351.871)" fill="#5abddc"/>
          <path id="Trazado_3289" data-name="Trazado 3289" d="M1001.7,393.34l5.092,2.919c.137.079.249-.023.248-.226h0a.642.642,0,0,0-.25-.511l-5.093-2.919c-.137-.079-.249.023-.248.226h0A.641.641,0,0,0,1001.7,393.34Z" transform="translate(-985.91 -358.215)" fill="#5abddc"/>
          <path id="Trazado_3290" data-name="Trazado 3290" d="M1001.74,404.7l5.093,2.919c.137.079.248-.023.248-.226h0a.64.64,0,0,0-.251-.511l-5.092-2.919c-.137-.079-.248.023-.248.226h0A.641.641,0,0,0,1001.74,404.7Z" transform="translate(-985.935 -364.56)" fill="#5abddc"/>
          <path id="Trazado_3291" data-name="Trazado 3291" d="M1001.784,416.053l5.093,2.919c.137.079.248-.023.248-.226h0a.643.643,0,0,0-.251-.512l-5.092-2.919c-.137-.079-.249.023-.248.226h0A.642.642,0,0,0,1001.784,416.053Z" transform="translate(-985.959 -370.904)" fill="#5abddc"/>
          <path id="Trazado_3292" data-name="Trazado 3292" d="M1000.868,426.859l5.931,3.4c.137.079.248-.023.248-.226h0a.64.64,0,0,0-.25-.511l-5.931-3.4c-.137-.079-.248.023-.247.226h0A.64.64,0,0,0,1000.868,426.859Z" transform="translate(-985.448 -376.941)" fill="#5abddc"/>
          <path id="Trazado_3293" data-name="Trazado 3293" d="M999.339,437.314l7.165,4.108c.137.078.249-.023.248-.226h0a.643.643,0,0,0-.25-.512l-7.166-4.108c-.137-.079-.248.023-.248.226h0A.641.641,0,0,0,999.339,437.314Z" transform="translate(-984.593 -382.782)" fill="#5abddc"/>
          <path id="Trazado_3294" data-name="Trazado 3294" d="M998.168,447.975l8.54,4.9c.137.079.249-.023.248-.226h0a.642.642,0,0,0-.25-.512l-8.54-4.9c-.137-.079-.248.023-.248.226h0A.642.642,0,0,0,998.168,447.975Z" transform="translate(-983.939 -388.738)" fill="#5abddc"/>
          <path id="Trazado_3295" data-name="Trazado 3295" d="M1000.474,340.524a3.67,3.67,0,0,0,1.577,2.911c.866.5,1.565,0,1.561-1.112a3.67,3.67,0,0,0-1.576-2.911C1001.169,338.915,1000.47,339.413,1000.474,340.524Z" transform="translate(-985.367 -328.407)" fill="#5abddc"/>
          <path id="Trazado_3296" data-name="Trazado 3296" d="M1007.124,344.336a3.673,3.673,0,0,0,1.577,2.911c.866.5,1.565,0,1.561-1.112a3.672,3.672,0,0,0-1.577-2.911C1007.819,342.727,1007.12,343.226,1007.124,344.336Z" transform="translate(-989.082 -330.537)" fill="#5abddc"/>
        </g>
      </g>
    </g>
    <g id="Grupo_3352" data-name="Grupo 3352" transform="translate(659.687 250.638)">
      <path id="Trazado_3297" data-name="Trazado 3297" d="M807.116,752.027,668.192,669.8l3.825-.9,79.83-46.974,139.247,80.394Z" transform="translate(-664.438 -551.574)" fill="#dcefff"/>
      <g id="Grupo_3326" data-name="Grupo 3326" transform="translate(217.795 84.589)">
        <g id="Grupo_3325" data-name="Grupo 3325">
          <path id="Trazado_3298" data-name="Trazado 3298" d="M1163.475,720.59l.373-.048a2.037,2.037,0,0,0,1.761-2.28l-8.005-62.3a2.037,2.037,0,0,0-2.28-1.761l-.372.048a2.037,2.037,0,0,0-1.761,2.28l8.005,62.3A2.037,2.037,0,0,0,1163.475,720.59Z" transform="translate(-1153.173 -654.189)" fill="#6359c2"/>
        </g>
      </g>
      <g id="Grupo_3328" data-name="Grupo 3328" transform="translate(140.456 96.371)">
        <g id="Grupo_3327" data-name="Grupo 3327">
          <path id="Trazado_3299" data-name="Trazado 3299" d="M979.949,785.782h0a2.2,2.2,0,0,1-2.006-2.385L986.6,682.9a2.2,2.2,0,0,1,2.385-2.006h0a2.2,2.2,0,0,1,2.006,2.384l-8.656,100.5A2.2,2.2,0,0,1,979.949,785.782Z" transform="translate(-977.935 -680.884)" fill="#6359c2"/>
        </g>
      </g>
      <g id="Grupo_3330" data-name="Grupo 3330" transform="translate(4.676 41.967)">
        <g id="Grupo_3329" data-name="Grupo 3329">
          <rect id="Rectángulo_970" data-name="Rectángulo 970" width="77.966" height="4.407" rx="2.203" transform="matrix(0.086, -0.996, 0.996, 0.086, 0, 77.679)" fill="#40379c"/>
        </g>
      </g>
      <g id="Grupo_3332" data-name="Grupo 3332" transform="translate(145.31 130.352)">
        <g id="Grupo_3331" data-name="Grupo 3331">
          <path id="Trazado_3300" data-name="Trazado 3300" d="M993.127,772.82l-4.192-2.868,1.2-12.072,4.465.7Z" transform="translate(-988.935 -757.88)" fill="#40379c"/>
        </g>
      </g>
      <g id="Grupo_3334" data-name="Grupo 3334" transform="translate(218.755 96.226)">
        <g id="Grupo_3333" data-name="Grupo 3333">
          <path id="Trazado_3301" data-name="Trazado 3301" d="M1157.546,695.63l4.04-3.079-1.815-11.995-4.423.925Z" transform="translate(-1155.347 -680.557)" fill="#40379c"/>
        </g>
      </g>
      <g id="Grupo_3335" data-name="Grupo 3335" transform="translate(6.169)">
        <rect id="Rectángulo_971" data-name="Rectángulo 971" width="11.684" height="6.786" transform="translate(0.037 42.648)" fill="#6198d9"/>
        <rect id="Rectángulo_972" data-name="Rectángulo 972" width="11.684" height="6.786" transform="translate(212.479 86.036)" fill="#6198d9"/>
        <path id="Trazado_3302" data-name="Trazado 3302" d="M819.5,605.811,675.192,522.493c-2.262-1.306-1.979-3.588.634-5.1l67.338-38.878c2.612-1.508,6.564-1.672,8.826-.366L896.3,561.472c2.262,1.306,1.979,3.588-.634,5.1l-67.338,38.878C825.716,606.953,821.765,607.117,819.5,605.811Z" transform="translate(-673.664 -470.763)" fill="#6198d9"/>
        <path id="Trazado_3303" data-name="Trazado 3303" d="M819.5,591.063,675.192,507.745c-2.262-1.306-1.979-3.587.634-5.1l67.338-38.878c2.612-1.508,6.564-1.672,8.826-.366L896.3,546.724c2.262,1.306,1.979,3.588-.634,5.1L828.329,590.7C825.716,592.206,821.765,592.37,819.5,591.063Z" transform="translate(-673.664 -462.524)" fill="#cfe4ff"/>
      </g>
      <path id="Trazado_3304" data-name="Trazado 3304" d="M913.5,565.659,853.726,531.15a1.1,1.1,0,0,0-1.1.005l-18.145,10.71a1.1,1.1,0,0,0,.009,1.892l59.569,34.392a1.094,1.094,0,0,0,1.1,0L913.5,567.557A1.1,1.1,0,0,0,913.5,565.659Z" transform="translate(-757.034 -500.781)" fill="#83a7d1"/>
      <g id="Grupo_3336" data-name="Grupo 3336" transform="translate(77.068 27.903)">
        <path id="Trazado_3305" data-name="Trazado 3305" d="M894.427,572.892,834.858,538.5a1.1,1.1,0,0,1-.009-1.892l18.145-10.71a1.1,1.1,0,0,1,1.1-.005L913.87,560.4a1.1,1.1,0,0,1,0,1.9l-18.347,10.593A1.093,1.093,0,0,1,894.427,572.892Z" transform="translate(-834.311 -525.747)" fill="#fff"/>
        <path id="Trazado_3306" data-name="Trazado 3306" d="M877.518,532.914a.507.507,0,0,1-.437-.051l-4.019-2.319c-.145-.084-.184-.2-.088-.252l2.662-1.538a.507.507,0,0,1,.437.051l4.019,2.319c.145.083.184.2.088.253Z" transform="translate(-855.881 -527.41)" fill="#e9f5ff"/>
        <path id="Trazado_3307" data-name="Trazado 3307" d="M888.081,548.6a.5.5,0,0,1-.438-.051l-4.018-2.319c-.145-.083-.183-.2-.086-.252l2.663-1.539a.5.5,0,0,1,.434.051l4.018,2.319c.147.085.185.2.09.252Z" transform="translate(-861.782 -536.176)" fill="#e9f5ff"/>
        <path id="Trazado_3308" data-name="Trazado 3308" d="M882.741,555.117a.505.505,0,0,1-.436-.052l-4.019-2.319c-.143-.083-.185-.2-.089-.252l2.663-1.539a.513.513,0,0,1,.436.052l4.019,2.32c.144.083.184.2.09.251Z" transform="translate(-858.799 -539.814)" fill="#e9f5ff"/>
        <path id="Trazado_3309" data-name="Trazado 3309" d="M868.3,556.375a.506.506,0,0,1-.435-.051l-4.019-2.319c-.143-.083-.183-.2-.088-.251l2.663-1.539a.508.508,0,0,1,.436.05l4.019,2.319c.144.083.182.2.087.252Z" transform="translate(-850.731 -540.517)" fill="#e9f5ff"/>
        <path id="Trazado_3310" data-name="Trazado 3310" d="M857.164,560.417a.648.648,0,0,1-.519-.1l-5.265-3.038c-.188-.109-.266-.244-.17-.3l3.127-1.806a.658.658,0,0,1,.518.1l5.265,3.038c.191.11.265.245.171.3Z" transform="translate(-843.729 -542.175)" fill="#e9f5ff"/>
        <path id="Trazado_3311" data-name="Trazado 3311" d="M937.327,608.185a.494.494,0,0,1-.407-.068L932.9,605.8c-.147-.084-.2-.191-.121-.237l1.156-.668a.5.5,0,0,1,.41.069l4.016,2.318c.145.084.2.19.118.235Z" transform="translate(-889.303 -569.952)" fill="#e9f5ff"/>
        <path id="Trazado_3312" data-name="Trazado 3312" d="M949.493,615.388a.494.494,0,0,1-.407-.068L945.07,613c-.147-.085-.2-.191-.121-.237l1.156-.668a.5.5,0,0,1,.41.07l4.015,2.317c.145.084.2.19.118.235Z" transform="translate(-896.099 -573.976)" fill="#e9f5ff"/>
        <path id="Trazado_3313" data-name="Trazado 3313" d="M962.394,622.7a.5.5,0,0,1-.4-.071l-4.017-2.318c-.144-.083-.2-.188-.125-.233l1.113-.643a.5.5,0,0,1,.4.072l4.017,2.318c.145.083.2.188.124.233Z" transform="translate(-903.308 -578.073)" fill="#e9f5ff"/>
        <path id="Trazado_3314" data-name="Trazado 3314" d="M954.462,612.643a.5.5,0,0,1-.4-.071l-4.017-2.318c-.144-.083-.2-.188-.125-.233l1.114-.643a.5.5,0,0,1,.4.072l4.017,2.318c.145.083.2.188.124.233Z" transform="translate(-898.876 -572.457)" fill="#e9f5ff"/>
        <path id="Trazado_3315" data-name="Trazado 3315" d="M893.552,581.412a.512.512,0,0,1-.439-.052l-26.151-15.091c-.143-.082-.185-.2-.089-.252L870,564.21a.516.516,0,0,1,.437.051l26.151,15.092c.146.084.185.2.091.253Z" transform="translate(-852.473 -547.218)" fill="#e9f5ff"/>
        <path id="Trazado_3316" data-name="Trazado 3316" d="M894.441,582.386a1.5,1.5,0,0,1-.222-.115L873.406,570.26a1.218,1.218,0,0,1-.2-.127l.194-.112a1.5,1.5,0,0,1,.22.115l20.813,12.011a1.252,1.252,0,0,1,.2.128Z" transform="translate(-856.041 -550.481)" fill="#e9f5ff"/>
        <path id="Trazado_3317" data-name="Trazado 3317" d="M880.776,563.571a.507.507,0,0,1-.437-.051L876.32,561.2c-.143-.082-.184-.2-.089-.252l2.663-1.539a.513.513,0,0,1,.438.051l4.018,2.319c.146.084.185.2.089.253Z" transform="translate(-857.701 -544.537)" fill="#e9f5ff"/>
        <path id="Trazado_3318" data-name="Trazado 3318" d="M893.314,570.807a.509.509,0,0,1-.435-.051l-4.018-2.318c-.144-.083-.185-.2-.09-.252l2.663-1.539a.511.511,0,0,1,.438.051l4.018,2.319c.143.082.182.2.087.252Z" transform="translate(-864.707 -548.579)" fill="#e9f5ff"/>
        <path id="Trazado_3319" data-name="Trazado 3319" d="M905.853,578.043a.505.505,0,0,1-.435-.05l-4.019-2.319c-.143-.083-.182-.2-.087-.252l2.663-1.538a.507.507,0,0,1,.436.05l4.019,2.319c.143.083.182.2.086.252Z" transform="translate(-871.712 -552.622)" fill="#e9f5ff"/>
        <path id="Trazado_3320" data-name="Trazado 3320" d="M918.389,585.277a.507.507,0,0,1-.436-.051l-4.019-2.319c-.145-.084-.184-.2-.089-.252l2.663-1.538a.507.507,0,0,1,.438.051l4.019,2.319c.144.083.182.2.087.252Z" transform="translate(-878.714 -556.663)" fill="#e9f5ff"/>
        <path id="Trazado_3321" data-name="Trazado 3321" d="M930.929,592.513a.513.513,0,0,1-.439-.053l-4.018-2.318c-.143-.083-.183-.2-.087-.251l2.663-1.538a.507.507,0,0,1,.436.05l4.018,2.318c.145.084.186.2.09.253Z" transform="translate(-885.72 -560.706)" fill="#e9f5ff"/>
        <path id="Trazado_3322" data-name="Trazado 3322" d="M943.468,599.744a.508.508,0,0,1-.436-.051l-4.018-2.318c-.145-.083-.185-.2-.089-.252l2.663-1.538a.51.51,0,0,1,.438.051l4.018,2.319c.144.083.184.2.088.252Z" transform="translate(-892.725 -564.745)" fill="#e9f5ff"/>
        <path id="Trazado_3323" data-name="Trazado 3323" d="M962.936,610.978a.506.506,0,0,1-.436-.051l-10.948-6.318c-.145-.083-.184-.2-.089-.252l2.663-1.539a.507.507,0,0,1,.437.051l10.948,6.318c.145.083.184.2.088.252Z" transform="translate(-899.729 -568.787)" fill="#e9f5ff"/>
        <path id="Trazado_3324" data-name="Trazado 3324" d="M895.22,562.313a.5.5,0,0,1-.434-.05l-4.019-2.319c-.145-.083-.185-.2-.089-.252l2.664-1.539a.506.506,0,0,1,.434.051l4.019,2.32c.145.084.182.2.088.25Z" transform="translate(-865.772 -543.835)" fill="#e9f5ff"/>
        <path id="Trazado_3325" data-name="Trazado 3325" d="M907.76,569.549a.505.505,0,0,1-.435-.051l-4.021-2.32c-.143-.083-.184-.195-.087-.251l2.663-1.539a.506.506,0,0,1,.433.05l4.02,2.32c.143.083.183.2.089.251Z" transform="translate(-872.777 -547.877)" fill="#e9f5ff"/>
        <path id="Trazado_3326" data-name="Trazado 3326" d="M920.3,576.784a.5.5,0,0,1-.436-.051l-4.018-2.319c-.143-.082-.187-.2-.09-.252l2.664-1.539a.515.515,0,0,1,.436.052l4.018,2.319c.143.083.184.2.09.252Z" transform="translate(-879.78 -551.919)" fill="#e9f5ff"/>
        <path id="Trazado_3327" data-name="Trazado 3327" d="M932.834,584.019a.5.5,0,0,1-.435-.051l-4.018-2.318c-.145-.084-.185-.2-.089-.252l2.664-1.538a.507.507,0,0,1,.436.052l4.018,2.318c.144.083.184.2.089.251Z" transform="translate(-886.785 -555.961)" fill="#e9f5ff"/>
        <path id="Trazado_3328" data-name="Trazado 3328" d="M945.376,591.251a.5.5,0,0,1-.436-.051l-4.02-2.32c-.145-.083-.184-.2-.088-.251l2.664-1.539a.5.5,0,0,1,.434.051l4.02,2.32c.143.083.183.2.089.251Z" transform="translate(-893.79 -560)" fill="#e9f5ff"/>
        <path id="Trazado_3329" data-name="Trazado 3329" d="M957.911,598.485a.5.5,0,0,1-.435-.051l-4.017-2.318c-.146-.084-.187-.2-.091-.252l2.664-1.539a.51.51,0,0,1,.437.052l4.017,2.318c.144.083.183.2.088.251Z" transform="translate(-900.795 -564.042)" fill="#e9f5ff"/>
        <path id="Trazado_3330" data-name="Trazado 3330" d="M970.449,605.72a.5.5,0,0,1-.435-.05l-4.02-2.32c-.143-.083-.183-.195-.087-.25l2.664-1.539a.5.5,0,0,1,.433.05l4.02,2.32c.143.083.183.2.088.251Z" transform="translate(-907.799 -568.085)" fill="#e9f5ff"/>
        <path id="Trazado_3331" data-name="Trazado 3331" d="M900.562,555.8a.506.506,0,0,1-.438-.05l-4.018-2.319c-.143-.083-.183-.2-.086-.252l2.663-1.539a.507.507,0,0,1,.434.05l4.018,2.319c.145.084.184.2.09.252Z" transform="translate(-868.756 -540.197)" fill="#e9f5ff"/>
        <path id="Trazado_3332" data-name="Trazado 3332" d="M913.1,563.034a.5.5,0,0,1-.436-.049l-4.019-2.319c-.144-.083-.185-.2-.087-.253l2.663-1.539a.509.509,0,0,1,.436.052l4.019,2.319c.143.083.182.2.088.251Z" transform="translate(-875.758 -544.238)" fill="#e9f5ff"/>
        <path id="Trazado_3333" data-name="Trazado 3333" d="M925.636,570.271a.506.506,0,0,1-.438-.051L921.18,567.9c-.143-.083-.183-.2-.086-.252l2.663-1.538a.508.508,0,0,1,.434.051l4.018,2.319c.146.084.185.2.09.252Z" transform="translate(-882.763 -548.28)" fill="#e9f5ff"/>
        <path id="Trazado_3334" data-name="Trazado 3334" d="M938.171,577.5a.5.5,0,0,1-.436-.049l-4.019-2.319c-.145-.083-.184-.2-.087-.252l2.663-1.539a.506.506,0,0,1,.436.052l4.019,2.319c.145.083.183.2.088.251Z" transform="translate(-889.766 -552.321)" fill="#e9f5ff"/>
        <path id="Trazado_3335" data-name="Trazado 3335" d="M950.714,584.736a.5.5,0,0,1-.436-.049l-4.019-2.319c-.145-.084-.184-.2-.087-.252l2.663-1.539a.5.5,0,0,1,.435.051l4.019,2.319c.143.082.182.2.087.25Z" transform="translate(-896.773 -556.362)" fill="#e9f5ff"/>
        <path id="Trazado_3336" data-name="Trazado 3336" d="M963.252,591.972a.507.507,0,0,1-.439-.051l-4.018-2.319c-.143-.082-.184-.2-.086-.252l2.663-1.539a.509.509,0,0,1,.435.051l4.018,2.319c.146.084.185.2.09.252Z" transform="translate(-903.777 -560.403)" fill="#e9f5ff"/>
        <path id="Trazado_3337" data-name="Trazado 3337" d="M975.788,599.207a.5.5,0,0,1-.436-.05l-4.019-2.319c-.145-.083-.184-.2-.087-.252l2.663-1.539a.508.508,0,0,1,.435.051l4.019,2.319c.143.083.183.2.088.251Z" transform="translate(-910.781 -564.445)" fill="#e9f5ff"/>
        <path id="Trazado_3338" data-name="Trazado 3338" d="M872,539.326a.506.506,0,0,1-.438-.051l-6.813-3.932c-.145-.084-.185-.2-.088-.253l2.663-1.539a.509.509,0,0,1,.436.052l6.814,3.932c.145.083.184.2.09.252Z" transform="translate(-851.239 -530.091)" fill="#e9f5ff"/>
        <path id="Trazado_3339" data-name="Trazado 3339" d="M993.1,599.6a.508.508,0,0,1-.437-.051l-6.814-3.932c-.142-.082-.184-.2-.087-.252l2.662-1.538a.508.508,0,0,1,.436.05l6.814,3.932c.145.084.184.2.088.252Z" transform="translate(-918.888 -563.764)" fill="#e9f5ff"/>
        <path id="Trazado_3340" data-name="Trazado 3340" d="M865,544.882a.5.5,0,0,1-.436-.052l-8.123-4.687c-.145-.084-.186-.2-.09-.252l2.664-1.538a.508.508,0,0,1,.436.052l8.123,4.688c.147.084.184.2.09.251Z" transform="translate(-846.597 -532.773)" fill="#e9f5ff"/>
        <path id="Trazado_3341" data-name="Trazado 3341" d="M853.99,548.12a.508.508,0,0,1-.436-.052l-5.417-3.126c-.145-.083-.184-.2-.089-.252l2.663-1.539a.509.509,0,0,1,.438.051l5.416,3.126c.145.083.184.2.088.253Z" transform="translate(-841.956 -535.454)" fill="#e9f5ff"/>
        <path id="Trazado_3342" data-name="Trazado 3342" d="M890.055,540.149a.5.5,0,0,1-.438-.051L885.6,537.78c-.144-.083-.185-.2-.088-.252l2.662-1.538a.506.506,0,0,1,.437.051l4.016,2.318c.147.084.186.2.089.253Z" transform="translate(-862.886 -531.452)" fill="#e9f5ff"/>
        <path id="Trazado_3343" data-name="Trazado 3343" d="M902.535,547.345a.51.51,0,0,1-.438-.051l-4.019-2.319c-.143-.083-.184-.2-.088-.252l2.662-1.538a.506.506,0,0,1,.437.051l4.018,2.319c.145.083.185.2.089.252Z" transform="translate(-869.857 -535.472)" fill="#e9f5ff"/>
        <path id="Trazado_3344" data-name="Trazado 3344" d="M915.071,554.579a.5.5,0,0,1-.436-.05l-4.018-2.319c-.144-.083-.184-.2-.087-.252l2.662-1.538a.506.506,0,0,1,.436.05l4.018,2.319c.146.084.183.2.087.252Z" transform="translate(-876.862 -539.514)" fill="#e9f5ff"/>
        <path id="Trazado_3345" data-name="Trazado 3345" d="M927.612,561.816a.509.509,0,0,1-.437-.051l-4.016-2.318c-.146-.084-.185-.2-.089-.253l2.662-1.538a.5.5,0,0,1,.437.051l4.016,2.318c.145.083.185.2.089.252Z" transform="translate(-883.867 -543.557)" fill="#e9f5ff"/>
        <path id="Trazado_3346" data-name="Trazado 3346" d="M940.145,569.049a.5.5,0,0,1-.435-.05l-4.018-2.318c-.146-.084-.185-.2-.089-.252l2.662-1.538a.506.506,0,0,1,.438.051l4.018,2.318c.146.084.183.2.086.252Z" transform="translate(-890.869 -547.598)" fill="#e9f5ff"/>
        <path id="Trazado_3347" data-name="Trazado 3347" d="M952.689,576.282a.505.505,0,0,1-.436-.05l-4.02-2.32c-.143-.083-.182-.2-.086-.251l2.662-1.538a.5.5,0,0,1,.435.049l4.02,2.32c.143.083.184.2.087.252Z" transform="translate(-897.877 -551.638)" fill="#e9f5ff"/>
        <path id="Trazado_3348" data-name="Trazado 3348" d="M965.224,583.516a.507.507,0,0,1-.437-.051l-4.018-2.319c-.145-.084-.185-.2-.089-.253l2.662-1.538a.507.507,0,0,1,.438.051l4.018,2.319c.145.084.185.2.088.252Z" transform="translate(-904.879 -555.679)" fill="#e9f5ff"/>
        <path id="Trazado_3349" data-name="Trazado 3349" d="M977.761,590.751a.5.5,0,0,1-.435-.049l-4.021-2.321c-.143-.083-.182-.2-.086-.251l2.662-1.538a.5.5,0,0,1,.435.049l4.021,2.321c.143.083.182.2.086.251Z" transform="translate(-911.884 -559.722)" fill="#e9f5ff"/>
        <path id="Trazado_3350" data-name="Trazado 3350" d="M983.9,602.332a.616.616,0,0,0-.235-.077.327.327,0,0,0-.2.026L980.8,603.82a.092.092,0,0,0-.048.116.294.294,0,0,0,.133.136l1.049.606-3.492,2.017a.089.089,0,0,0-.045.116.287.287,0,0,0,.135.136l2.707,1.562a.63.63,0,0,0,.237.078.327.327,0,0,0,.2-.026l6.331-3.657a.089.089,0,0,0,.045-.116.287.287,0,0,0-.135-.137Z" transform="translate(-914.803 -568.487)" fill="#e9f5ff"/>
      </g>
      <g id="Grupo_3337" data-name="Grupo 3337" transform="translate(147.72 73.828)">
        <path id="Trazado_3351" data-name="Trazado 3351" d="M1013.025,640.658l-6.179,4.234a6.437,6.437,0,0,1-7.661-.449h0a3.786,3.786,0,0,1,.621-6.126l6.179-4.235a6.437,6.437,0,0,1,7.661.449h0A3.786,3.786,0,0,1,1013.025,640.658Z" transform="translate(-996.351 -631.609)" fill="#a8c4e5"/>
        <path id="Trazado_3352" data-name="Trazado 3352" d="M1009.521,637.432l-6.179,4.234a6.436,6.436,0,0,1-7.661-.449h0a3.786,3.786,0,0,1,.621-6.126l6.179-4.234a6.436,6.436,0,0,1,7.661.449h0A3.786,3.786,0,0,1,1009.521,637.432Z" transform="translate(-994.394 -629.806)" fill="#2c1f9c"/>
        <path id="Trazado_3353" data-name="Trazado 3353" d="M1023.595,633.544a3.974,3.974,0,0,0-1.716.892" transform="translate(-1009.749 -631.894)" fill="none" stroke="#a8c4e5" stroke-miterlimit="10" stroke-width="0.911"/>
      </g>
      <g id="Grupo_3338" data-name="Grupo 3338" transform="translate(173.845 71.461)">
        <path id="Trazado_3354" data-name="Trazado 3354" d="M1093.424,638.365c-6.785-4.069-17.892-4.253-24.809-.412s-7.023,10.254-.238,14.323,17.771,4.256,24.815.493C1100.936,648.633,1100.209,642.434,1093.424,638.365Z" transform="translate(-1059.047 -630.446)" fill="#4a70d6" opacity="0.27"/>
        <path id="Trazado_3355" data-name="Trazado 3355" d="M1082.655,636.537c-6.444-3.864-16.992-4.04-23.561-.391s-6.67,9.739-.226,13.6,16.877,4.042,23.567.468C1089.789,646.288,1089.1,640.4,1082.655,636.537Z" transform="translate(-1053.875 -629.514)" fill="#1c65ed"/>
        <path id="Trazado_3356" data-name="Trazado 3356" d="M1082.144,627.459c-6.444-3.864-16.992-4.039-23.561-.391s-6.67,9.739-.226,13.6,16.877,4.043,23.567.469C1089.278,637.21,1088.588,631.323,1082.144,627.459Z" transform="translate(-1053.59 -624.442)" fill="#699eff"/>
        <path id="Trazado_3357" data-name="Trazado 3357" d="M1079.763,637.287l-1.911,6.565,15.482-3.5" transform="translate(-1067.144 -631.618)" fill="none" stroke="#fff" stroke-linecap="round" stroke-linejoin="round" stroke-width="7.795"/>
      </g>
      <path id="Trazado_3358" data-name="Trazado 3358" d="M670.636,828.111l49.551-29.241,46.12,26.44-50.489,29.443Z" transform="translate(-665.804 -650.427)" fill="#dcefff"/>
      <g id="Grupo_3340" data-name="Grupo 3340" transform="translate(60.129 102.46)">
        <path id="Trazado_3359" data-name="Trazado 3359" d="M795.93,704.1c34.9-26.289,23.251,8.583,23.135,29.591" transform="translate(-795.93 -694.681)" fill="none" stroke="#ffc2b0" stroke-linecap="round" stroke-linejoin="round" stroke-width="7.748"/>
        <g id="Grupo_3339" data-name="Grupo 3339" transform="translate(15.528 37.528)">
          <path id="Trazado_3360" data-name="Trazado 3360" d="M843.9,789.575l1.774,5.437c.609.914,2.625,2.459,3.625,2.005,4.142-1.881,15.241-5.887,13.36-10.775-2.366-6.148-18.044,1.1-18.044,1.1Z" transform="translate(-838.254 -781.978)" fill="#2c1f9c"/>
          <path id="Trazado_3361" data-name="Trazado 3361" d="M846.48,784.385s6.247-.842,9.139,1.263c1.136.827.086,2.106-1.967,3.074-4.043,1.906-8.707,1.358-10.94-1.749l-1.438-.862Z" transform="translate(-836.789 -782.23)" fill="#ffc2b0"/>
          <path id="Trazado_3362" data-name="Trazado 3362" d="M831.78,784.755l1.508,12.848a1.5,1.5,0,0,0,.606,1.034h0a1.493,1.493,0,0,0,2.369-1.129l.568-10.7a1.494,1.494,0,0,0-.417-1.117l-2.076-2.149A1.493,1.493,0,0,0,831.78,784.755Z" transform="translate(-831.479 -781.596)" fill="#2c1f9c"/>
          <path id="Trazado_3363" data-name="Trazado 3363" d="M832.9,779.713s-3.755,2.721-.373,10.711c.046.108.069.422.141.326,3.317-4.4,5.862,0,5.862,0l9.332-3.962a12.116,12.116,0,0,1-11.105-3.586C835.435,781.837,832.9,779.713,832.9,779.713Z" transform="translate(-831.113 -779.713)" fill="#2c1f9c"/>
        </g>
        <path id="Trazado_3364" data-name="Trazado 3364" d="M873.251,806.349l1.774,5.437c.608.914,2.625,2.459,3.624,2.005,4.142-1.881,15.241-5.887,13.36-10.775-2.365-6.148-18.044,1.1-18.044,1.1Z" transform="translate(-839.126 -753.822)" fill="#2c1f9c"/>
        <path id="Trazado_3365" data-name="Trazado 3365" d="M875.836,801.16s6.247-.842,9.139,1.263c1.136.827.086,2.106-1.967,3.074-4.043,1.906-8.706,1.359-10.939-1.749l-1.439-.862Z" transform="translate(-837.662 -754.074)" fill="#ffc2b0"/>
        <path id="Trazado_3366" data-name="Trazado 3366" d="M805.65,713.323c18.946-1.279,31.135-10.439,31.892-2.231,1,10.8-.985,26.872-.778,38.767" transform="translate(-801.36 -701.961)" fill="none" stroke="#ffc2b0" stroke-linecap="round" stroke-linejoin="round" stroke-width="7.748"/>
        <path id="Trazado_3367" data-name="Trazado 3367" d="M861.136,801.53l1.508,12.848a1.492,1.492,0,0,0,.606,1.035h0a1.493,1.493,0,0,0,2.369-1.129l.568-10.7a1.5,1.5,0,0,0-.417-1.117l-2.076-2.149A1.494,1.494,0,0,0,861.136,801.53Z" transform="translate(-832.352 -753.439)" fill="#2c1f9c"/>
        <path id="Trazado_3368" data-name="Trazado 3368" d="M862.255,796.488s-3.755,2.721-.372,10.711c.045.108.068.422.141.326,3.317-4.405,5.862,0,5.862,0l9.331-3.961a12.117,12.117,0,0,1-11.105-3.586C864.791,798.612,862.255,796.488,862.255,796.488Z" transform="translate(-831.986 -751.556)" fill="#2c1f9c"/>
      </g>
      <path id="Trazado_3369" data-name="Trazado 3369" d="M737.5,718.274,695.26,693.885c-3.915-2.26-2.331-7.218,3.521-11.017l15.185-9.859c5.851-3.8,13.842-5.059,17.756-2.8L773.966,694.6c3.915,2.26,2.33,7.218-3.521,11.017l-15.185,9.859C749.409,719.276,741.418,720.535,737.5,718.274Z" transform="translate(-678.36 -577.923)" fill="#3d62c4"/>
      <path id="Trazado_3370" data-name="Trazado 3370" d="M780.1,714.516l28.355-12.51S801.2,678.449,785.6,683.764a315.5,315.5,0,0,0-29.407,11.546l.153,7.143C754.419,725.38,771.189,719.787,780.1,714.516Z" transform="translate(-713.602 -585.686)" fill="#2c1f9c"/>
      <g id="Grupo_3341" data-name="Grupo 3341" transform="translate(80.107 36.021)">
        <path id="Trazado_3371" data-name="Trazado 3371" d="M868.865,549.154s-5.951-.7-7.072.538S869.149,552.333,868.865,549.154Z" transform="translate(-852.646 -546.832)" fill="#ffc2b0"/>
        <path id="Trazado_3372" data-name="Trazado 3372" d="M857.62,547.6s-5.445.476-9.45,6.743C848.17,554.347,858.682,549.315,857.62,547.6Z" transform="translate(-845.092 -546.076)" fill="#ffc2b0"/>
        <path id="Trazado_3373" data-name="Trazado 3373" d="M853.618,544.884a14.213,14.213,0,0,0-10.227,7.589s2.283,2.024,3.4,1.444C849.769,552.371,854.391,546.128,853.618,544.884Z" transform="translate(-842.422 -544.556)" fill="#ffc2b0"/>
        <path id="Trazado_3374" data-name="Trazado 3374" d="M874.367,546.428s-5.989-.243-7.014,1.071S874.889,549.571,874.367,546.428Z" transform="translate(-855.761 -545.409)" fill="#ffc2b0"/>
        <path id="Trazado_3375" data-name="Trazado 3375" d="M869.343,544.159s-5.989-.243-7.014,1.071S869.865,547.3,869.343,544.159Z" transform="translate(-852.954 -544.141)" fill="#ffc2b0"/>
        <path id="Trazado_3376" data-name="Trazado 3376" d="M842.449,555.717l7.9-4.638s11.344-2.439,12.217-.6c1.14,2.4-6.362,2.144-6.362,2.144s-6.031,2.906-6.015,3.11c.007.086-.454.541-.254.951.337.69.673.581,1.432.366l2.537-1.112s3.42-1.629,3.627-.14c.185,1.336-2.946,2.008-2.946,2.008l-5.066,2.939-3.89.62a3.87,3.87,0,0,1-4.224-2.438l-.044-.113A2.538,2.538,0,0,1,842.449,555.717Z" transform="translate(-841.196 -547.298)" fill="#ffc2b0"/>
      </g>
      <path id="Trazado_3377" data-name="Trazado 3377" d="M936.775,586.391a1.16,1.16,0,0,1,.412,1.02v.014c-.113,1.195-1.743,2.586-4.845,4.137-.1.079-.411.426-.84.916a6.037,6.037,0,0,1,3.459-.35,16.189,16.189,0,0,1,5.749,2.3l.091.072.007.117a.9.9,0,0,1-.394.745c-.8.6-2.608.41-5.369-.576a3.041,3.041,0,0,0-2.539.4,3.269,3.269,0,0,1,1.919-.112,41.576,41.576,0,0,1,5.614,2.429l.144.074,0,.162a.861.861,0,0,1-.418.669,1.509,1.509,0,0,1-.5.208l.089.028.252.08-.084.25c-.617,1.845-2.641,1.257-4.119.828-.191-.055-.377-.109-.556-.158a2.346,2.346,0,0,0-2.205.339,14.93,14.93,0,0,0-2.681,3.423c-.071.171-.955,1.448-1.066,1.643-2.1,3.686-6.654,1.076-6.687-3.228,2.574-3.959,5.392-10.277,7.836-11.619l.027-.032,6.572-3.882Z" transform="translate(-806.344 -531.667)" fill="#ffc2b0"/>
      <path id="Trazado_3378" data-name="Trazado 3378" d="M717.144,661.023,687.622,683.83c-4.821,2.952-8.441.022-8.436-5.051l-.563-8.259c0-5.073,3.954-11.639,8.775-14.59L717.167,637.7c4.821-2.952,8.762-1.217,8.758,3.856l0,4.873C725.914,651.506,721.966,658.071,717.144,661.023Z" transform="translate(-670.266 -559.586)" fill="#283d75"/>
      <g id="Grupo_3343" data-name="Grupo 3343" transform="translate(83.588 68.558)">
        <g id="Grupo_3342" data-name="Grupo 3342" transform="translate(4.77 0.015)">
          <path id="Trazado_3379" data-name="Trazado 3379" d="M864.8,638.484a91.262,91.262,0,0,0,15.646-7.106c3.92-2.364,7.725-4.826,11.814-6.9,3.922-1.993,1.012-8.178-2.914-6.182-4.089,2.078-7.895,4.54-11.814,6.9a91.3,91.3,0,0,1-15.646,7.106c-4.133,1.529-1.182,7.7,2.914,6.182Z" transform="translate(-859.89 -617.9)" fill="#ffc2b0"/>
        </g>
        <path id="Trazado_3380" data-name="Trazado 3380" d="M914.658,629.931s-6.121-4.069-4.025-9.764l3.965-2.3c2.748.3,5.505,7.737,4.553,9.31Z" transform="translate(-883.224 -617.866)" fill="#4d8cff"/>
        <path id="Trazado_3381" data-name="Trazado 3381" d="M849.612,633.765l27.957-13.691c1.248,1.191,3.488,6.485,4.29,11.53l-17.1,7.554c-7.175,3.4-10.793,1.353-15.666-4.306C849.06,634.817,849.09,634.852,849.612,633.765Z" transform="translate(-849.082 -619.1)" fill="#f0f8ff"/>
      </g>
      <g id="Grupo_3345" data-name="Grupo 3345" transform="translate(45.614 44.044)">
        <g id="Grupo_3344" data-name="Grupo 3344" transform="translate(4.254)">
          <path id="Trazado_3382" data-name="Trazado 3382" d="M777.605,583.051a91.259,91.259,0,0,0,15.607-7.193c3.906-2.386,7.7-4.869,11.775-6.971,3.911-2.015.966-8.183-2.949-6.166-4.078,2.1-7.869,4.585-11.775,6.97a91.305,91.305,0,0,1-15.607,7.194c-4.124,1.552-1.139,7.7,2.949,6.166Z" transform="translate(-772.679 -562.321)" fill="#ffc2b0"/>
        </g>
        <path id="Trazado_3383" data-name="Trazado 3383" d="M827.33,574.408s-6.143-4.035-4.08-9.742l3.953-2.323c2.75.286,5.549,7.705,4.605,9.284Z" transform="translate(-796.441 -562.333)" fill="#4d8cff"/>
        <path id="Trazado_3384" data-name="Trazado 3384" d="M763.041,578.435l27.88-13.848c1.254,1.184,3.525,6.466,4.355,11.505l-26.1,12.627C764.971,586.527,763.176,582.956,763.041,578.435Z" transform="translate(-763.041 -563.587)" fill="#b3c8e6"/>
      </g>
      <path id="Trazado_3385" data-name="Trazado 3385" d="M772.9,715.514l27.707-12.958s-3.1-22.372-19.389-19.852c-26.837,4.153-31.557-1.619-31.557-1.619l-1.167,21.306C746.565,725.316,763.984,720.785,772.9,715.514Z" transform="translate(-709.217 -584.625)" fill="#f0f8ff"/>
      <path id="Trazado_3386" data-name="Trazado 3386" d="M772.9,734.829l27.707-12.958-1.58-6.213c-40.178,21.663-50.533,6.047-50.533,6.047C746.565,744.631,763.984,740.1,772.9,734.829Z" transform="translate(-709.217 -603.94)" fill="#cfe4ff"/>
      <g id="Grupo_3349" data-name="Grupo 3349" transform="translate(35.427 8.17)">
        <path id="Trazado_3387" data-name="Trazado 3387" d="M740.834,608.314s4.073,29.316,4.63,32.116c0,0,2.363,13.513,26.5,5.523l8.4-32.982Z" transform="translate(-740.448 -552.141)" fill="#f0f8ff"/>
        <path id="Trazado_3388" data-name="Trazado 3388" d="M801.056,654.376l4.225-1.28c4.695-20.51,13.481-19.728,8.716-34.229C814,618.867,800.5,651.576,801.056,654.376Z" transform="translate(-774.082 -558.037)" fill="#cfe4ff"/>
        <path id="Trazado_3389" data-name="Trazado 3389" d="M775.105,596.926c.933-.52,3.322-4.488,3.322-4.488.862-5.414,3.557-10.6-1.413-15.369-1.28-1.229-13.549-8.8-23.205-10.975a10.382,10.382,0,0,0-11.547,5.691,41.582,41.582,0,0,0-2,5.7,17.858,17.858,0,0,0-.136,5.742c.672,5.964,2.886-.054,3.3,4.9-.018-.135-1.572-.687-1.586-.82,0,0,3.216,3.6,3.823,10.857.373,4.525.636,7.8.654,8.257,0,.021,0,.051,0,.057L762.626,620.5l9.567-15.658h0Z" transform="translate(-739.96 -528.418)" fill="#f0f8ff"/>
        <path id="Trazado_3390" data-name="Trazado 3390" d="M776.233,553.951l4.026-14.927,8.929,6.579-3.139,11.646C785.684,559.465,775.351,559.042,776.233,553.951Z" transform="translate(-760.194 -513.432)" fill="#ffc2b0"/>
        <g id="Grupo_3346" data-name="Grupo 3346" transform="translate(10.033 32.726)">
          <path id="Trazado_3391" data-name="Trazado 3391" d="M763.417,561.036c-2.784,2.039,3.186,5.764,5.815,7.027,3.348,1.607,12.1.125,15.657-.084,1.273-.075-4.58-3.66-5.866-3.585-5.467.32-9.168.552-11.078-3.876-.906-2.1-7.571-11.118-1.95.449Z" transform="translate(-762.693 -555.188)" fill="#4d8cff"/>
        </g>
        <g id="Grupo_3348" data-name="Grupo 3348" transform="translate(3.849)">
          <path id="Trazado_3392" data-name="Trazado 3392" d="M782.978,488.809s-8.481-9.11-10.591,5.013c-1.468,9.824,3.84,19.3,12.107,24.424,5.148,3.191,12.3,1.11,13.3-3.742,2.33-6.951,3.3-13.625,1.565-19.746,1.207-5.851-3.532-4.4-11.15-5.9Z" transform="translate(-761.789 -483.764)" fill="#ffc2b0"/>
          <path id="Trazado_3393" data-name="Trazado 3393" d="M763.8,511.584s-9.224-3.35-5.821-18c2.983-12.846,13.617-12.8,21.952-12.446,3.69.158,10.036,3.572,11.495,7.182,1.718,4.255-.075,4.027-4.454,5.567-1.844.649-1.614,6.026-2.252,7.754-1.133,3.073-4.763,3.895-5.921,6.866-1.1,2.811-3.235,5.789-6.066,5.724A18.89,18.89,0,0,1,763.8,511.584Z" transform="translate(-753.456 -481.037)" fill="#915151"/>
          <path id="Trazado_3394" data-name="Trazado 3394" d="M807.395,530.968c-.128,2.432-1.644,4.329-3.387,4.237a2.29,2.29,0,0,1-.555-.1c-1.457-.446-2.482-2.306-2.368-4.472.128-2.432,1.645-4.33,3.387-4.238S807.523,528.536,807.395,530.968Z" transform="translate(-777.953 -506.377)" fill="#ffc2b0"/>
          <ellipse id="Elipse_689" data-name="Elipse 689" cx="5.779" cy="6.029" rx="5.779" ry="6.029" transform="translate(7.179 12.017) rotate(-77.179)" fill="#2c1f9c"/>
          <path id="Trazado_3395" data-name="Trazado 3395" d="M758.3,489.494a6.3,6.3,0,0,1,5.973,5.585c.591,4.531,3.652,24.237-1.817,33.167-4.79.062-9.171-1.549-12.59-7.081,0,0-2.291-5.869-.5-16.128,1.783-10.187,6.02-14.63,6.02-14.63A4.3,4.3,0,0,1,758.3,489.494Z" transform="translate(-748.682 -485.761)" fill="#9e5858"/>
          <path id="Trazado_3396" data-name="Trazado 3396" d="M834.842,529.949h0a.951.951,0,0,1-.44.7,6.309,6.309,0,0,1-2.136,1.135,1.376,1.376,0,0,1-1.126-.025,1.332,1.332,0,0,1-.479-1.086c-.064-1.089.274-2.991,1.544-3.308.522-.13-.013-3.739.1-3.23A22.251,22.251,0,0,0,834.842,529.949Z" transform="translate(-794.475 -505.087)" fill="#ffc2b0"/>
          <path id="Trazado_3397" data-name="Trazado 3397" d="M828.113,527.712c-.069.635.162,1.181.517,1.22s.7-.445.768-1.079-.162-1.182-.516-1.22S828.183,527.077,828.113,527.712Z" transform="translate(-793.05 -506.508)" fill="#21275e"/>
          <g id="Grupo_3347" data-name="Grupo 3347" transform="translate(34.012 17.229)">
            <path id="Trazado_3398" data-name="Trazado 3398" d="M826.417,521.59a3.211,3.211,0,0,1,2.223-.564.454.454,0,0,0,.247-.872,4.065,4.065,0,0,0-2.922.65.454.454,0,0,0,.452.786Z" transform="translate(-825.746 -520.074)" fill="#915151"/>
          </g>
          <path id="Trazado_3399" data-name="Trazado 3399" d="M822.148,545.224a2.063,2.063,0,0,0,2.2,1.516" transform="translate(-789.724 -516.896)" fill="none" stroke="#d18b77" stroke-miterlimit="10" stroke-width="0.697"/>
          <path id="Trazado_3400" data-name="Trazado 3400" d="M808.86,535.786a.6.6,0,0,0,.042-.907c-.378-.36-.956-.687-1.386.084a2.287,2.287,0,0,0,.454,2.308.117.117,0,0,0,.208-.1.965.965,0,0,1,.287-1.1C808.626,535.963,808.756,535.868,808.86,535.786Z" transform="translate(-781.454 -510.9)" fill="#d18b77"/>
        </g>
      </g>
      <g id="Grupo_3351" data-name="Grupo 3351" transform="translate(0 68.571)">
        <g id="Grupo_3350" data-name="Grupo 3350" transform="translate(4.647 44.783)">
          <path id="Rectángulo_973" data-name="Rectángulo 973" d="M1.963,0h0A1.963,1.963,0,0,1,3.926,1.963v49.88a1.963,1.963,0,0,1-1.963,1.963h0A1.963,1.963,0,0,1,0,51.843V1.963A1.963,1.963,0,0,1,1.963,0Z" transform="translate(96.594 61.854) rotate(171.571)" fill="#283d75"/>
          <path id="Trazado_3401" data-name="Trazado 3401" d="M671.835,786.605h0a1.9,1.9,0,0,1-1.6-2.153l8.921-60.154a1.9,1.9,0,0,1,2.153-1.6h0a1.9,1.9,0,0,1,1.6,2.153l-8.921,60.154A1.9,1.9,0,0,1,671.835,786.605Z" transform="translate(-670.217 -721.217)" fill="#283d75"/>
          <path id="Trazado_3402" data-name="Trazado 3402" d="M770.815,831.439h0a2.031,2.031,0,0,1-1.711-2.307l10.42-70.259a2.032,2.032,0,0,1,2.308-1.711h0a2.031,2.031,0,0,1,1.711,2.307l-10.42,70.259A2.031,2.031,0,0,1,770.815,831.439Z" transform="translate(-725.449 -740.468)" fill="#283d75"/>
          <path id="Trazado_3403" data-name="Trazado 3403" d="M725.542,767l-42.8-24.811a17.985,17.985,0,0,1-6.233-6.934c-1.5-3.449,2.081-5.946,6.1-3.629l39.268,23.119c4.014,2.318,5.53,4.738,4.881,7.612C726.749,762.355,730.63,769.623,725.542,767Z" transform="translate(-673.534 -725.71)" fill="#4c73db"/>
          <path id="Trazado_3404" data-name="Trazado 3404" d="M824.4,742.272,794.633,760.5c-4.821,2.952-8.548,1.567-8.282-3.079l.256-4.462c.266-4.646,4.429-10.861,9.25-13.813l29.768-18.226c4.821-2.952,8.548-1.567,8.282,3.079l-.256,4.462C833.385,733.1,829.222,739.32,824.4,742.272Z" transform="translate(-735.089 -719.365)" fill="#4c73db"/>
        </g>
        <path id="Trazado_3405" data-name="Trazado 3405" d="M667.329,671.595l-7.451-46.611c-1.262-6.893,3.891-9.187,11.16-4.969l29.069,16.868a31.351,31.351,0,0,1,12.432,14.2l12.271,30.265c3.517,8.676-4.075,17.214-11.419,12.84Z" transform="translate(-659.687 -617.895)" fill="#4c73db"/>
      </g>
      <path id="Trazado_3406" data-name="Trazado 3406" d="M823.811,619.536l-24.324-22.072a6.713,6.713,0,0,1-.768-9.117h0c2.486-3.167,7.46-1.233,11.127,1.687l20.91,19.745Z" transform="translate(-736.558 -531.907)" fill="#f0f8ff"/>
    </g>
    <path id="Trazado_3407" data-name="Trazado 3407" d="M880.961,157.826c2.861,4.714,5.046,7.656,5.046,7.656l.216.114s.547-.241,1.373-.679" transform="translate(-123.617 -41.664)" fill="none" stroke="#3b2ad1" stroke-linecap="round" stroke-linejoin="round" stroke-width="1.545"/>
    <path id="Trazado_3408" data-name="Trazado 3408" d="M881.5,142.475l.2-.124c2.441-1.514,5.5-3.927,5.963-6.72.779-3.828-1.729-9.553-5.649-10.2-2.379-.392-3.69,1.249-4.507,2.422-1.016-2.142-2.744-5.748-5.1-7.5-3.686-2.74-6.058-.229-4.753,4.7" transform="translate(-115.978 -20.097)" fill="none" stroke="#3b2ad1" stroke-linecap="round" stroke-linejoin="round" stroke-width="1.545"/>
    <path id="Trazado_3409" data-name="Trazado 3409" d="M880.314,143.528l2.023,1.069c.033.017.06.008.07-.022l1.19-3.815c.021-.068.118-.016.147.08l2.655,8.638c.029.094.122.147.146.083l1.11-2.989c.01-.028.037-.035.068-.019l3.468,1.833" transform="translate(-123.255 -32.113)" fill="none" stroke="#3b2ad1" stroke-linecap="round" stroke-linejoin="round" stroke-width="1.545"/>
    <path id="Trazado_3410" data-name="Trazado 3410" d="M872.685,142.553c.128,2.123-1.189,3.093-2.941,2.167a7.347,7.347,0,0,1-3.4-5.521c-.128-2.123,1.189-3.093,2.941-2.167A7.346,7.346,0,0,1,872.685,142.553Z" transform="translate(-115.444 -29.851)" fill="none" stroke="#3b2ad1" stroke-linecap="round" stroke-linejoin="round" stroke-width="1.545"/>
    <path id="Trazado_3411" data-name="Trazado 3411" d="M873.092,144.284c.067,1.111-.622,1.619-1.539,1.134a3.847,3.847,0,0,1-1.781-2.889c-.067-1.111.622-1.619,1.539-1.134A3.848,3.848,0,0,1,873.092,144.284Z" transform="translate(-117.363 -32.382)" fill="none" stroke="#3b2ad1" stroke-linecap="round" stroke-linejoin="round" stroke-width="1.545"/>
    <line id="Línea_50" data-name="Línea 50" x2="0.395" y2="6.564" transform="translate(754.3 114.869)" fill="none" stroke="#3b2ad1" stroke-linecap="round" stroke-linejoin="round" stroke-width="1.545"/>
    <line id="Línea_51" data-name="Línea 51" x2="0.081" y2="9.554" transform="translate(760.766 194.842)" fill="none" stroke="#3b2ad1" stroke-linecap="round" stroke-linejoin="round" stroke-width="1.518"/>
    <path id="Trazado_3412" data-name="Trazado 3412" d="M896.932,372.771a50.027,50.027,0,0,0-8.034-15.022" transform="translate(-128.051 -153.353)" fill="none" stroke="#3b2ad1" stroke-linecap="round" stroke-linejoin="round" stroke-width="1.518"/>
    <path id="Trazado_3413" data-name="Trazado 3413" d="M881.7,253.858s-3.607-7.422-2.855-8.66c.8-1.319,2.584-2.073,2.295-6.892-.641-10.648-8.573-16.583-12.388-17.871-2.9-.978-5.485-1.317-5.539,5.71-.006.768.4,2.442.35,2.979l-2.115,3.42c-.459,1.068.45,1.779,1.16,2.029a2.352,2.352,0,0,1,.88,2.453c-.109.284.2.872.368,1.333.8,2.2-.176,3.4,1.47,5.233a5.32,5.32,0,0,0,3.973,1.884c1.4.157,2.942,2.729,3.469,4.717.105.4.2.817.275,1.25" transform="translate(-112.643 -76.347)" fill="none" stroke="#3b2ad1" stroke-linecap="round" stroke-linejoin="round" stroke-width="1.545"/>
    <path id="Trazado_3414" data-name="Trazado 3414" d="M884.432,239.453h0c-.724-.383-1.15-1.634-.675-1.983.32-.236.279-.915-.091-1.516l-.395-.64c-.371-.6-.931-.9-1.252-.662-.474.35-1.375-.552-1.428-1.428h0a2.05,2.05,0,0,0-.95-1.54l-.52-.275c-.489-.259-.856.012-.82.6h0c.052.876-.8.854-1.344-.037h0c-.371-.6-.931-.9-1.252-.662l-.341.252c-.32.236-.279.915.091,1.516h0c.549.89.25,1.758-.473,1.376-.489-.258-.856.012-.82.6l.038.631a2.05,2.05,0,0,0,.949,1.54h0c.723.383,1.15,1.634.675,1.983h0c-.32.236-.28.915.091,1.516l.395.64c.371.6.931.9,1.252.662h0c.474-.35,1.375.552,1.428,1.428h0a2.049,2.049,0,0,0,.95,1.54l.52.275c.489.258.856-.012.82-.6-.053-.876.8-.853,1.344.037h0c.371.6.931.9,1.251.661l.341-.251c.32-.236.28-.915-.091-1.516h0c-.549-.89-.25-1.759.473-1.376h0c.489.258.856-.012.82-.6l-.038-.63A2.05,2.05,0,0,0,884.432,239.453Zm-4.489,1.426a4.848,4.848,0,0,1-2.245-3.642c-.084-1.4.784-2.04,1.94-1.43a4.847,4.847,0,0,1,2.245,3.642C881.967,240.85,881.1,241.49,879.943,240.879Z" transform="translate(-119.817 -82.674)" fill="none" stroke="#3b2ad1" stroke-linecap="round" stroke-linejoin="round" stroke-width="1.545"/>
    <path id="Trazado_3415" data-name="Trazado 3415" d="M868.832,347.761c-2.232.476-5.733,3.05-5.373,14.619a3.911,3.911,0,0,0,1.65,2.844c2.093,1.392,5.613,3.09,6.334-.617.882-4.533,1.546-9.736.137-14.392C871.141,348.762,869.795,347.556,868.832,347.761Z" transform="translate(-113.825 -147.76)" fill="none" stroke="#3b2ad1" stroke-linecap="round" stroke-linejoin="round" stroke-width="1.518"/>
    <path id="Trazado_3416" data-name="Trazado 3416" d="M897.207,359.092c2.258,2.613,5.633,6.764,5.66,18.085.006,2.344-2.241,1.983-3.146,1.724-2.086-.6-4.5-1.1-5.294-5.527-.967-5.413-1.29-11.086.052-14.433C894.9,357.9,896.233,357.965,897.207,359.092Z" transform="translate(-130.669 -153.605)" fill="none" stroke="#3b2ad1" stroke-linecap="round" stroke-linejoin="round" stroke-width="1.518"/>
    <path id="Trazado_3417" data-name="Trazado 3417" d="M866.409,260.226a5.293,5.293,0,0,1,1.9,1.106" transform="translate(-115.487 -98.871)" fill="none" stroke="#3b2ad1" stroke-linecap="round" stroke-linejoin="round" stroke-width="1.545"/>
    <path id="Trazado_3418" data-name="Trazado 3418" d="M897.97,371.264a12.907,12.907,0,0,1,3.231,2.815" transform="translate(-133.119 -160.903)" fill="none" stroke="#3b2ad1" stroke-linecap="round" stroke-linejoin="round" stroke-width="1.518"/>
    <path id="Trazado_3419" data-name="Trazado 3419" d="M902.2,379.822a11.95,11.95,0,0,0,.213,3.507" transform="translate(-135.459 -165.684)" fill="none" stroke="#3b2ad1" stroke-linecap="round" stroke-linejoin="round" stroke-width="1.518"/>
    <path id="Trazado_3420" data-name="Trazado 3420" d="M871.127,365.217c2.294-4.389,4.941-6.685,7.843-7.468" transform="translate(-118.123 -153.353)" fill="none" stroke="#3b2ad1" stroke-linecap="round" stroke-linejoin="round" stroke-width="1.518"/>
    <path id="Trazado_3421" data-name="Trazado 3421" d="M875.921,362.21a5.887,5.887,0,0,0-3.209-.248" transform="translate(-119.008 -155.627)" fill="none" stroke="#3b2ad1" stroke-linecap="round" stroke-linejoin="round" stroke-width="1.518"/>
    <path id="Trazado_3422" data-name="Trazado 3422" d="M875.61,367.236a10.621,10.621,0,0,1-.155,3.333" transform="translate(-120.541 -158.653)" fill="none" stroke="#3b2ad1" stroke-linecap="round" stroke-linejoin="round" stroke-width="1.518"/>
    <ellipse id="Elipse_690" data-name="Elipse 690" cx="13.752" cy="23.819" rx="13.752" ry="23.819" transform="matrix(0.863, -0.505, 0.505, 0.863, 735.999, 98.005)" fill="none" stroke="#3b2ad1" stroke-linecap="round" stroke-linejoin="round" stroke-width="1.545"/>
    <ellipse id="Elipse_691" data-name="Elipse 691" cx="13.752" cy="23.819" rx="13.752" ry="23.819" transform="matrix(0.863, -0.505, 0.505, 0.863, 735.999, 146.312)" fill="none" stroke="#3b2ad1" stroke-linecap="round" stroke-linejoin="round" stroke-width="1.545"/>
    <ellipse id="Elipse_692" data-name="Elipse 692" cx="13.752" cy="23.819" rx="13.752" ry="23.819" transform="translate(735.999 197.217) rotate(-30.311)" fill="none" stroke="#3b2ad1" stroke-linecap="round" stroke-linejoin="round" stroke-width="1.545"/>
  </g>
</svg>
