<svg xmlns="http://www.w3.org/2000/svg" width="376.324" height="212.48" viewBox="0 0 376.324 212.48">
  <g id="Capa_2" data-name="Capa 2" transform="translate(-135.63 -75.5)">
    <g id="Grupo_3542" data-name="Grupo 3542">
      <path id="Trazado_5272" data-name="Trazado 5272" d="M213.035,166.12" fill="#002b75"/>
      <path id="Trazado_5273" data-name="Trazado 5273" d="M217.813,166.046h-.22C217.666,166.12,217.74,166.046,217.813,166.046Z" fill="#002b75"/>
      <path id="Trazado_5274" data-name="Trazado 5274" d="M203.112,165.091h-.147C203.038,165.017,203.038,165.017,203.112,165.091Z" fill="#002b75"/>
      <path id="Trazado_5275" data-name="Trazado 5275" d="M199.289,162.812l2.646,2.132h0Z" fill="#002b75"/>
      <path id="Trazado_5276" data-name="Trazado 5276" d="M202.3,164.841" fill="#002b75"/>
      <path id="Trazado_5277" data-name="Trazado 5277" d="M215.9,166.193" fill="#002b75"/>
      <path id="Trazado_5278" data-name="Trazado 5278" d="M202.818,174.867a18.833,18.833,0,0,1-1.985-.367A16.666,16.666,0,0,0,202.818,174.867Z" fill="#002b75"/>
      <path id="Trazado_5279" data-name="Trazado 5279" d="M212.08,166.12" fill="#002b75"/>
      <path id="Trazado_5280" data-name="Trazado 5280" d="M208.184,165.826" fill="#002b75"/>
      <path id="Trazado_5281" data-name="Trazado 5281" d="M209.8,165.973" fill="#002b75"/>
      <path id="Trazado_5282" data-name="Trazado 5282" d="M203.847,165.164a.273.273,0,0,1-.221-.073A.36.36,0,0,0,203.847,165.164Z" fill="#002b75"/>
      <path id="Trazado_5283" data-name="Trazado 5283" d="M210.536,166.046" fill="#002b75"/>
      <path id="Trazado_5284" data-name="Trazado 5284" d="M209.066,165.9" fill="#002b75"/>
      <path id="Trazado_5285" data-name="Trazado 5285" d="M204.582,165.311" fill="#002b75"/>
      <path id="Trazado_5286" data-name="Trazado 5286" d="M205.537,165.458" fill="#002b75"/>
      <path id="Trazado_5287" data-name="Trazado 5287" d="M206.346,165.576" fill="#002b75"/>
      <path id="Trazado_5288" data-name="Trazado 5288" d="M207.155,165.679" fill="#002b75"/>
      <path id="Trazado_5289" data-name="Trazado 5289" d="M221.562,165.752" fill="#002b75"/>
      <path id="Trazado_5290" data-name="Trazado 5290" d="M224.649,165.311" fill="#002b75"/>
      <path id="Trazado_5291" data-name="Trazado 5291" d="M225.678,165.091" fill="#002b75"/>
      <path id="Trazado_5292" data-name="Trazado 5292" d="M227.884,165.385c.661-.588.367-.294,2.572-2.132a8.018,8.018,0,0,0,.074-1.323,11.929,11.929,0,0,1-.074,1.323c-.882.735-1.764,1.47-2.572,2.132.441.514.367.367.367,7.424a12.753,12.753,0,0,1-1.176,2.5,15.776,15.776,0,0,0,1.176-2.5C228.178,165.752,228.325,165.973,227.884,165.385Z" fill="#002b75"/>
      <rect id="Rectángulo_1073" data-name="Rectángulo 1073" height="0.882" transform="translate(228.178 174.794)" fill="#002b75"/>
      <path id="Trazado_5293" data-name="Trazado 5293" d="M153.054,231.247l.441-.662a6.872,6.872,0,0,0-.588-.367q12.348-17.2,24.551-34.4a30.226,30.226,0,0,1,6.027-7.939h0a29.283,29.283,0,0,1,13.526-7.277h0a21.334,21.334,0,0,1,4.337-.662,40.022,40.022,0,0,1-2.867-4.557h0a7.047,7.047,0,0,0-.809-1.4l3.088,1.47h0l-3.088-1.47c-.441-.809-.367-.515-.514-.882-.074,0-.074-.074-.147-.074-1.029-1.323-2.794-1.984-5.66-5.072-4.925-6.542-5.219-15.215-3.088-23.081,1.25-4.557,2.941-7.865,6.4-11.026,4.117-3.749,10.071-6.321,14.849-5.807,1.985.221,3.822,1.323,5.807,1.47,3.161.294,6.174-1.617,9.335-1.543a9.877,9.877,0,0,1,3.529.808c10.658,3.97,16.833,16.539,15.436,27.565-.882,6.837-4.631,12.276-7.057,14.334-.882.588-4.263,2.573-5.219,3.087-.073.221-.22.442-.294.662l.147-.073a9.628,9.628,0,0,0-.808,1.47l-2.205,1.029a1.473,1.473,0,0,1-1.4,1.176,45.082,45.082,0,0,1-12.055,1.691,45.082,45.082,0,0,0,12.055-1.691,1.368,1.368,0,0,0,1.4-1.176l2.205-1.029a31.778,31.778,0,0,1-2.646,4.263,34.094,34.094,0,0,1,4.116.809,30.13,30.13,0,0,1,14.113,8.6h0a31.462,31.462,0,0,1,4.264,6.028l-.147-.294,24.992,34.915h0L250.23,195.3c8.306,11.614,16.612,23.3,24.919,34.842q-.3.17-.589.368l.368.588a78.41,78.41,0,1,0-139.3-49.4A77.462,77.462,0,0,0,153.054,231.247Z" fill="#93d9ff"/>
      <path id="Trazado_5294" data-name="Trazado 5294" d="M226.928,164.944h-.221C226.854,164.841,226.928,164.944,226.928,164.944Z" fill="#002b75"/>
      <path id="Trazado_5295" data-name="Trazado 5295" d="M254.052,243.964c-.368-.441-.22-.221-.441-.441v5.88c1.029-.661,2.132-1.25,3.161-1.985l-2.426-3.6A.553.553,0,0,0,254.052,243.964Z" fill="#93d9ff"/>
      <path id="Trazado_5296" data-name="Trazado 5296" d="M173.856,243.964c-.074-.074-.221-.147-.294-.221l-2.426,3.675c1.029.662,2.058,1.324,3.088,1.912V243.6C174.15,243.743,173.929,243.89,173.856,243.964Z" fill="#93d9ff"/>
      <path id="Trazado_5297" data-name="Trazado 5297" d="M220.606,165.826h-.147C220.459,165.9,220.533,165.826,220.606,165.826Z" fill="#002b75"/>
      <path id="Trazado_5298" data-name="Trazado 5298" d="M219.577,165.973" fill="#002b75"/>
      <path id="Trazado_5299" data-name="Trazado 5299" d="M218.769,166.046" fill="#002b75"/>
      <path id="Trazado_5300" data-name="Trazado 5300" d="M222.371,165.679" fill="#002b75"/>
      <path id="Trazado_5301" data-name="Trazado 5301" d="M211.271,166.046" fill="#002b75"/>
      <path id="Trazado_5302" data-name="Trazado 5302" d="M223.547,165.458H223.4C223.4,165.532,223.473,165.458,223.547,165.458Z" fill="#002b75"/>
      <path id="Trazado_5303" data-name="Trazado 5303" d="M251.7,198.83c-.074-.147-.147-.367-.221-.514A3.539,3.539,0,0,1,251.7,198.83Z" fill="#002b75"/>
      <path id="Trazado_5304" data-name="Trazado 5304" d="M252.067,199.859c0-.073-.073-.147-.073-.22C251.994,199.712,252.067,199.786,252.067,199.859Z" fill="#002b75"/>
      <path id="Trazado_5305" data-name="Trazado 5305" d="M251.847,199.271c-.074-.147-.074-.294-.147-.367A1.255,1.255,0,0,1,251.847,199.271Z" fill="#002b75"/>
      <path id="Trazado_5306" data-name="Trazado 5306" d="M252.582,201.477c-.074-.147-.074-.294-.147-.368C252.508,201.183,252.508,201.33,252.582,201.477Z" fill="#002b75"/>
      <path id="Trazado_5307" data-name="Trazado 5307" d="M252.435,200.859c-.074-.147-.074-.367-.147-.514A1.345,1.345,0,0,0,252.435,200.859Z" fill="#002b75"/>
      <path id="Trazado_5308" data-name="Trazado 5308" d="M252.729,201.991c0-.073-.074-.22-.074-.294A.437.437,0,0,0,252.729,201.991Z" fill="#002b75"/>
      <path id="Trazado_5309" data-name="Trazado 5309" d="M251.479,198.242a2.593,2.593,0,0,0-.294-.661C251.259,197.8,251.406,198.022,251.479,198.242Z" fill="#002b75"/>
      <path id="Trazado_5310" data-name="Trazado 5310" d="M250.818,196.846c-.074-.221-.221-.368-.294-.588A4.359,4.359,0,0,1,250.818,196.846Z" fill="#002b75"/>
      <path id="Trazado_5311" data-name="Trazado 5311" d="M251.185,197.507a2.2,2.2,0,0,0-.294-.588A1.476,1.476,0,0,0,251.185,197.507Z" fill="#002b75"/>
      <path id="Trazado_5312" data-name="Trazado 5312" d="M250.524,196.111a1.855,1.855,0,0,0-.294-.515A1.177,1.177,0,0,0,250.524,196.111Z" fill="#002b75"/>
      <path id="Trazado_5313" data-name="Trazado 5313" d="M253.684,243.155" fill="#002b75"/>
      <path id="Trazado_5314" data-name="Trazado 5314" d="M253.023,203.167c0-.073-.074-.22-.074-.294Z" fill="#002b75"/>
      <path id="Trazado_5315" data-name="Trazado 5315" d="M274.928,230.071l-24.992-34.916C250.083,195.376,248.833,193.538,274.928,230.071Z" fill="#cdf8ff"/>
      <path id="Trazado_5316" data-name="Trazado 5316" d="M245.893,189.421h0c0,.074.073.074.073.147Z" fill="#cdf8ff"/>
      <path id="Trazado_5317" data-name="Trazado 5317" d="M254.346,243.743l2.426,3.6A79.005,79.005,0,0,0,274.781,231.1l-.368-.588C265.078,236.686,257.286,241.758,254.346,243.743Z" fill="#ef9b7a"/>
      <path id="Trazado_5318" data-name="Trazado 5318" d="M253.684,209.68v33.74c.148.22,0,.073.442.441.735-.515,20.949-13.82,20.949-13.82L250.156,195.2A30.753,30.753,0,0,1,253.684,209.68Z" fill="#e880ca"/>
      <path id="Trazado_5319" data-name="Trazado 5319" d="M153.495,230.585l-.441.662a78.984,78.984,0,0,0,18.009,16.245l2.425-3.675C170.622,241.758,163.859,237.421,153.495,230.585Z" fill="#ef9b7a"/>
      <path id="Trazado_5320" data-name="Trazado 5320" d="M173.856,243.964c.073-.074.294-.294.294-.368V209.342a29.5,29.5,0,0,1,3.308-13.628q-12.238,17.2-24.551,34.4C140.594,247.316,172.533,243.082,173.856,243.964Z" fill="#e880ca"/>
      <path id="Trazado_5321" data-name="Trazado 5321" d="M197.011,180.6h0a29.283,29.283,0,0,0-13.526,7.277h0A29.329,29.329,0,0,1,197.011,180.6Z" fill="#93d9ff"/>
      <path id="Trazado_5322" data-name="Trazado 5322" d="M236.925,182.732a29.994,29.994,0,0,1,3.9,2.279A29.994,29.994,0,0,0,236.925,182.732Z" fill="#93d9ff"/>
      <path id="Trazado_5323" data-name="Trazado 5323" d="M231.779,180.821l.883.221Z" fill="#93d9ff"/>
      <path id="Trazado_5324" data-name="Trazado 5324" d="M232.662,181.012a4.212,4.212,0,0,1,.882.294A5.156,5.156,0,0,1,232.662,181.012Z" fill="#93d9ff"/>
      <path id="Trazado_5325" data-name="Trazado 5325" d="M244.276,187.8c-.221-.22-.441-.367-.662-.588A4.742,4.742,0,0,0,244.276,187.8Z" fill="#93d9ff"/>
      <path id="Trazado_5326" data-name="Trazado 5326" d="M253.684,214.708c0-5.513.368-9.85-1.911-15.8a30.121,30.121,0,0,0-7.424-11.1h0a29.178,29.178,0,0,0-12.5-6.983L213.623,201.7,196.79,180.674a29.7,29.7,0,0,0-22.566,28.741v39.959a78.445,78.445,0,0,0,79.46,0Zm-8.894,12.864H226.634V206.916H244.79Z" fill="#ffb3e2"/>
      <path id="Trazado_5327" data-name="Trazado 5327" d="M213.55,201.7l18.229-20.876a24.964,24.964,0,0,0-4.116-.808c-5.072,6.615-12.937,9.408-20.288,5.439a20.464,20.464,0,0,1-6.027-5.513,30.56,30.56,0,0,0-4.631.735Z" fill="#ef9b7a"/>
      <rect id="Rectángulo_1074" data-name="Rectángulo 1074" width="18.156" height="20.655" transform="translate(226.634 206.916)" fill="#e880ca"/>
      <path id="Trazado_5328" data-name="Trazado 5328" d="M214.358,158.843c-.147.22-.073.735-.073,1.029-.074,4.41-.515,3.822-1.25,6.321,2.646.074,2.646.074,2.867,0A13.458,13.458,0,0,0,214.358,158.843Z" fill="#ef9b7a"/>
      <path id="Trazado_5329" data-name="Trazado 5329" d="M229.28,169.06a31.757,31.757,0,0,0,1.1-5.733l-2.058,1.69C228.692,166.414,228.986,167.737,229.28,169.06Z" fill="#f9b895"/>
      <path id="Trazado_5330" data-name="Trazado 5330" d="M217.152,143.406c-.074.515-.147.956-.221,1.47a1.62,1.62,0,0,1,.368.221A12.275,12.275,0,0,0,217.152,143.406Z" fill="#f9b895"/>
      <path id="Trazado_5331" data-name="Trazado 5331" d="M227.663,149.8c-.662-1.176-1.911-2.058-2.426-3.234s-.22-2.573-.661-3.822c0,1.1.073,2.278,0,3.381s0,.955-1.029.808a17.533,17.533,0,0,0-3.382-.073,7.159,7.159,0,0,1,1.323,1.25,18.1,18.1,0,0,0-1.323-1.25c-.735,0-1.4.073-2.131.073-.441,0-.441-.735-.588-1.837a1.6,1.6,0,0,1-.368-.221c-.073.294-.073.588-.147.882-.22,1.029,0,.809-.956,1.1-1.249.294-3.087-.074-4.41-.074a16.732,16.732,0,0,1-4.7-.22c.514-2.205.955-4.484,1.47-6.689-2.132,3.161-2.2,5.586-2.647,6.615s-6.174,7.131-6.321,16.392l2.646,2.132c.662-.147.368.074,4.484.662a53.107,53.107,0,0,0,6.689.514c.221-.808.588-1.543.809-2.352a17.786,17.786,0,0,0,.441-3.969c0-.294-.074-.809.073-1.029a13.159,13.159,0,0,1,1.617,7.35,63.159,63.159,0,0,0,9.777-1.029c1.617,0,.661.294,4.851-3.087A25.319,25.319,0,0,0,227.663,149.8Zm-21.9,10.512a1.618,1.618,0,1,1,1.617-1.617h0A1.632,1.632,0,0,1,205.758,160.313Zm16.833,0a1.618,1.618,0,1,1,1.617-1.617h0A1.632,1.632,0,0,1,222.591,160.313Z" fill="#f9b895"/>
      <path id="Trazado_5332" data-name="Trazado 5332" d="M200.833,174.5a15.475,15.475,0,0,1-3.6-1.471c.147.441.074.074.515.883l3.087,1.47Z" fill="#f9b895"/>
      <path id="Trazado_5333" data-name="Trazado 5333" d="M227.3,180.454a35.569,35.569,0,0,0,3.087-4.778l-2.205,1.029a1.473,1.473,0,0,1-1.4,1.176,44.673,44.673,0,0,1-24.478,0,1.47,1.47,0,0,1-1.47-1.47l-2.352-1.1c.882,1.544,1.837,3.087,2.867,4.558C209.139,190.23,220.312,188.98,227.3,180.454Z" fill="#f9b895"/>
      <path id="Trazado_5334" data-name="Trazado 5334" d="M201.127,165.532l-1.838-1.47a19.7,19.7,0,0,0,1.544,7.13C200.833,165.9,200.76,166.046,201.127,165.532Z" fill="#f9b895"/>
      <path id="Trazado_5335" data-name="Trazado 5335" d="M228.178,174.794v.882l2.866-1.323h0c.074-.221.221-.442.294-.662A16.067,16.067,0,0,1,228.178,174.794Z" fill="#f9b895"/>
      <path id="Trazado_5336" data-name="Trazado 5336" d="M227.884,165.385c.441.514.367.367.367,7.424a32.772,32.772,0,0,0,1.1-3.822c-.368-1.324-.588-2.647-.956-4.043Z" fill="#f9b895"/>
      <path id="Trazado_5337" data-name="Trazado 5337" d="M205.758,157.152a1.617,1.617,0,1,0,1.617,1.617h0A1.631,1.631,0,0,0,205.758,157.152Z"/>
      <path id="Trazado_5338" data-name="Trazado 5338" d="M222.591,157.152a1.617,1.617,0,1,0,1.617,1.617h0A1.631,1.631,0,0,0,222.591,157.152Z"/>
      <path id="Trazado_5339" data-name="Trazado 5339" d="M208.184,152.962c-1.323-.367-3.529-.294-4.337.662-.368.441-.221,1.1.441.955a5.717,5.717,0,0,1,1.764-.441c1.029-.073,1.47.368,2.132.441C209.213,154.55,209.8,153.4,208.184,152.962Z" fill="#190f04"/>
      <path id="Trazado_5340" data-name="Trazado 5340" d="M219.43,153.815a.794.794,0,0,0,.9.671.548.548,0,0,0,.056-.01c1.1-.073,1.176-.882,3.749-.073h0c.955.294,1.1-.588.294-1.176C223.253,152.447,219.357,152.6,219.43,153.815Z" fill="#190f04"/>
      <path id="Trazado_5341" data-name="Trazado 5341" d="M202.818,174.867a17.77,17.77,0,0,1-1.985-3.675h0a21.153,21.153,0,0,1-1.544-8.38h0A26.157,26.157,0,0,1,204.8,147.67a4.587,4.587,0,0,0,1.177-2.676,14.7,14.7,0,0,1,2.278-5.146c-.514,2.206-.955,4.484-1.47,6.69a24.941,24.941,0,0,0,4.705.22c1.323,0,3.16.368,4.41.074.956-.221.735,0,.956-1.1.147-.809.22-1.544.367-2.352.294,2.867.294,3.528.735,3.528a35.442,35.442,0,0,1,5.587,0c1.029.147.955.368,1.029-.808s0-2.279,0-3.382c.367,1.25.147,2.646.661,3.823s1.764,2.058,2.426,3.234c2.867,4.851,3.822,11.1,1.985,18.083a27.449,27.449,0,0,1-2.573,7.5,2.822,2.822,0,0,1,1.176-.588h0a17.458,17.458,0,0,0,4.116-1.617c.736-.515,2.72-1.544,4.264-2.573,2.352-1.984,6.174-7.424,7.057-14.334,1.4-11.026-4.778-23.6-15.437-27.565a11.759,11.759,0,0,0-3.528-.808c-3.161-.074-6.175,1.837-9.336,1.543-1.984-.22-3.822-1.249-5.807-1.47-4.778-.588-10.805,2.058-14.848,5.807-3.455,3.161-5.146,6.469-6.395,11.026-2.132,7.866-1.838,16.613,3.087,23.082,2.72,2.866,4.484,3.675,5.513,4.851.074.074.147.147.147.221A16.479,16.479,0,0,0,202.818,174.867Z" fill="#190f04"/>
      <path id="Trazado_5342" data-name="Trazado 5342" d="M202.3,177.954a44.673,44.673,0,0,0,24.478,0,1.368,1.368,0,0,0,1.4-1.176l2.205-1.029c.514-.882.588-1.176.808-1.47l-.147.074h0l-2.866,1.323h0v-.882h0a2.924,2.924,0,0,0-1.177.588,12.739,12.739,0,0,0,1.177-2.5c0-7.056.147-6.909-.368-7.424.662-.588.368-.294,2.573-2.131a11.959,11.959,0,0,0,.073-1.324l-2.425,1.985h0l-1.1.882h-.221a59.341,59.341,0,0,1-24.477,0h0a.551.551,0,0,0-.368.074h0l-2.646-2.132h0v1.25l1.838,1.47c-.368.514-.221.441-.221,5.66a17.77,17.77,0,0,0,1.985,3.675h0a18.833,18.833,0,0,1-1.985-.367h0v.882h0l-3.087-1.47a10.593,10.593,0,0,0,.808,1.4h0l2.353,1.1a1.469,1.469,0,0,0,1.392,1.543Z" fill="#fff"/>
      <path id="Trazado_5343" data-name="Trazado 5343" d="M238.91,220.368c.073-1.029.073-2.058.147-3.087a3.855,3.855,0,1,0,1.837-.147c0,1.1-.073,2.131-.147,3.234S238.836,221.544,238.91,220.368Z" fill="#2165b8"/>
      <path id="Trazado_5344" data-name="Trazado 5344" d="M188.263,215.884a13.692,13.692,0,0,0-5.513,3.234,13.844,13.844,0,0,0-3.16,5.44.969.969,0,0,0,.367,1.1,59.918,59.918,0,0,0,1.25,18.083,8.677,8.677,0,0,0,.735,3.234c.367.588,1.176,1.324,1.911,1.029a1.469,1.469,0,0,0,.683-1.963,1.541,1.541,0,0,0-.1-.168c-.515-.882-1.176-1.691-1.691-2.5a.528.528,0,0,0-.441-.294,58.74,58.74,0,0,1-1.176-17.231,1.208,1.208,0,0,0,.588-.735,9.673,9.673,0,0,1,18.009-1.911,1.036,1.036,0,0,0,.882.588c.074,0,.295.515.295.588a64.71,64.71,0,0,1,4.777,12.2c.883,3.013.442,1.47.295,2.5-.148,1.176-.809,3.9.22,4.557a1.147,1.147,0,0,0,.882.221c.956-.147,1.1-1.47,1.176-2.206a5.867,5.867,0,0,0-.588-2.719,68.563,68.563,0,0,0-5.954-15.878,1.248,1.248,0,0,0,0-1.029,11.987,11.987,0,0,0-11.687-6.468c-.956-7.645-.515-23.964,4.116-34.328-.809.294-1.617.588-2.352.882C187.014,194.787,188.41,208.945,188.263,215.884Z" fill="#2165b8"/>
      <path id="Trazado_5345" data-name="Trazado 5345" d="M238.4,195.964a228.919,228.919,0,0,1,.515,24.4c-.074,1.176,1.764,1.176,1.837,0,.441-8.894-.294-25.434-1.176-31.241a29.757,29.757,0,0,0-1.4-5.733,23.251,23.251,0,0,0-2.353-1.176C237.66,186.555,238.1,191.3,238.4,195.964Z" fill="#2165b8"/>
      <path id="Trazado_5346" data-name="Trazado 5346" d="M461.569,108.468a77.6,77.6,0,0,0-28.079-5.145,78.384,78.384,0,0,0-60.79,127.9h0a78.418,78.418,0,0,0,121.727-.074h0C528.24,189.252,510.893,127.352,461.569,108.468Z" fill="#ffa85d"/>
      <g id="Grupo_3101" data-name="Grupo 3101">
        <g id="Grupo_3100" data-name="Grupo 3100">
          <path id="Trazado_1547" data-name="Trazado 1547" d="M391,199.543h83.5a2.936,2.936,0,0,0,.515-1.543V144.56a2.794,2.794,0,0,0-2.793-2.793H391.885a2.793,2.793,0,0,0-2.793,2.793h0V198a2.507,2.507,0,0,0,.661,1.764A3.44,3.44,0,0,1,391,199.543Z" fill="#333132"/>
          <rect id="Rectángulo_938" data-name="Rectángulo 938" width="78.505" height="49.323" transform="translate(393.061 146.03)" fill="#97c6ff"/>
          <g id="Grupo_3097" data-name="Grupo 3097">
            <path id="Trazado_1548" data-name="Trazado 1548" d="M398.787,152.933h-5.733V188.8h5.733a1.316,1.316,0,0,0,1.323-1.308v-.015h0V154.329a1.336,1.336,0,0,0-1.277-1.395Z" fill="#60a4e8"/>
            <g id="Grupo_3089" data-name="Grupo 3089">
              <path id="Trazado_1549" data-name="Trazado 1549" d="M398.126,170.42a.736.736,0,0,0-.8-.662h-.007c-.066,0-.221.074-.294.074a1.607,1.607,0,0,0-.515.661,1.173,1.173,0,0,0-.514-.661.736.736,0,0,0-1.008.255l-.021.039c-.074.073-.074.147-.074.294a1.623,1.623,0,0,0,.441,1.1,4.791,4.791,0,0,0,.588.661,4.194,4.194,0,0,0,.588.441h0a4.2,4.2,0,0,1,.588-.441,4.728,4.728,0,0,0,.588-.661A1.474,1.474,0,0,0,398.126,170.42Z" fill="#fff"/>
            </g>
            <g id="Grupo_3091" data-name="Grupo 3091">
              <g id="Grupo_3090" data-name="Grupo 3090">
                <path id="Trazado_1550" data-name="Trazado 1550" d="M396.582,155.285a.808.808,0,1,0,.809.808A.809.809,0,0,0,396.582,155.285Z" fill="#fff"/>
                <path id="Trazado_1551" data-name="Trazado 1551" d="M397.141,156.887a.9.9,0,0,1-1.177,0,1.538,1.538,0,0,0-.882,1.544.464.464,0,0,0,.368.441,2.276,2.276,0,0,1,.22-.956.074.074,0,0,1,.074-.073.073.073,0,0,1,.073.073,2.03,2.03,0,0,0-.147.956,3.182,3.182,0,0,0,1.912,0,3.176,3.176,0,0,0-.147-.882c0-.074,0-.074.073-.074s.074,0,.074.074h0a1.965,1.965,0,0,1,.22.882.464.464,0,0,0,.368-.441A2.353,2.353,0,0,0,397.141,156.887Z" fill="#fff"/>
              </g>
            </g>
            <g id="Grupo_3094" data-name="Grupo 3094">
              <g id="Grupo_3093" data-name="Grupo 3093">
                <path id="Trazado_1552" data-name="Trazado 1552" d="M397.721,178.609a1.111,1.111,0,0,0,.515-1.029,1.713,1.713,0,0,0-1.3-2.041c-.03-.007-.061-.013-.092-.018a1.765,1.765,0,0,0-2.058,1.4,1.713,1.713,0,0,0,1.3,2.041l.092.017h.588a2.085,2.085,0,0,0,.955.294.273.273,0,0,0,.221-.073v-.221A.4.4,0,0,1,397.721,178.609Z" fill="#fff"/>
                <g id="Grupo_3092" data-name="Grupo 3092">
                  <path id="Trazado_1553" data-name="Trazado 1553" d="M397.221,177.462a.22.22,0,1,0,.221.22h0C397.359,177.535,397.285,177.462,397.221,177.462Z" fill="#7bc7cc"/>
                  <path id="Trazado_1554" data-name="Trazado 1554" d="M396.486,177.462a.22.22,0,1,0,.221.22h0a.2.2,0,0,0-.174-.22A.185.185,0,0,0,396.486,177.462Z" fill="#7bc7cc"/>
                  <path id="Trazado_1555" data-name="Trazado 1555" d="M395.847,177.462a.22.22,0,1,0,.22.22h0a.2.2,0,0,0-.173-.22A.185.185,0,0,0,395.847,177.462Z" fill="#7bc7cc"/>
                </g>
              </g>
            </g>
            <g id="Grupo_3095" data-name="Grupo 3095">
              <path id="Trazado_1556" data-name="Trazado 1556" d="M397.832,184.092a2.667,2.667,0,0,0-2.573,0s-.515.294-.441.735a.55.55,0,0,0,.147.294.268.268,0,0,0,.22.074.438.438,0,0,0,.294-.074.374.374,0,0,0,.368-.294v-.367a2.265,2.265,0,0,1,1.4,0v.294a.275.275,0,0,0,.074.22.381.381,0,0,0,.294.147c.147,0,.221,0,.294.074a.27.27,0,0,0,.221-.074.388.388,0,0,0,.147-.294C398.346,184.386,397.832,184.092,397.832,184.092Z" fill="#fff"/>
            </g>
            <g id="Grupo_3096" data-name="Grupo 3096">
              <path id="Trazado_1557" data-name="Trazado 1557" d="M398.383,164.164a.661.661,0,0,1-.662.662h-2.352a.661.661,0,0,1-.661-.662h0a.661.661,0,0,1,.661-.661h2.352A.661.661,0,0,1,398.383,164.164Z" fill="#c5e8f1"/>
              <path id="Trazado_1558" data-name="Trazado 1558" d="M396.582,163.5h-1.176a.661.661,0,1,0,0,1.323h1.1V163.5Z" fill="#fff"/>
            </g>
          </g>
          <g id="Grupo_3098" data-name="Grupo 3098">
            <path id="Trazado_1560" data-name="Trazado 1560" d="M486.26,221.051H380.741a2,2,0,0,1-1.4-.588c.588.883,3.307,1.177,5.513,1.177h97.249c1.691,0,4.631-.294,5.366-1.1A1.329,1.329,0,0,1,486.26,221.051Z" fill="#a4a6a8"/>
          </g>
          <path id="Trazado_1561" data-name="Trazado 1561" d="M488.105,217.031a1.865,1.865,0,0,1-1.837,1.837H380.712a.662.662,0,0,1-.368-.073c-.073,0-.073,0-.147-.074a.27.27,0,0,0-.22-.073c-.074,0-.147-.074-.221-.074s-.073-.073-.147-.073l-.22-.221h0a1.77,1.77,0,0,1-.515-1.323h0v2.205A1.823,1.823,0,0,0,380.682,221H486.194a1.823,1.823,0,0,0,1.838-1.808v-.03h0v-2.131Z" fill="#bcbec0"/>
          <path id="Trazado_1562" data-name="Trazado 1562" d="M424.448,218.876a1.889,1.889,0,0,0,1.838,1.543h14.26a1.889,1.889,0,0,0,1.838-1.543Z" fill="#cbccce"/>
          <path id="Trazado_1563" data-name="Trazado 1563" d="M476.859,201.381c-.735-1.029-1.47-1.838-2.793-1.838H391a3.092,3.092,0,0,0-2.793,1.838l-9.336,15.584a1.823,1.823,0,0,0,1.808,1.837H486.194a1.823,1.823,0,0,0,1.838-1.808v-.029Z" fill="#dcddde"/>
          <path id="Trazado_1564" data-name="Trazado 1564" d="M476.785,208.8c.221.588-.441.956-.955.956H389.092c-.515,0-.735-.441-.441-.956l4.116-7.277c.367-.588.441-.956.955-.956h77.33c.367,0,.661.515.955.956Z" fill="#cbccce"/>
          <path id="Trazado_1565" data-name="Trazado 1565" d="M451.646,217.185a.581.581,0,0,1-.573.588H415.26a.58.58,0,0,1-.588-.573v-.015h0l1.029-6.248a.581.581,0,0,1,.573-.588h33.02a.581.581,0,0,1,.588.573v.015Z" fill="#bcbec0"/>
          <g id="Grupo_3099" data-name="Grupo 3099">
            <path id="Trazado_1566" data-name="Trazado 1566" d="M444.2,209.32H415.311l.442-1.691h28.226Z" fill="#333132"/>
            <path id="Trazado_1567" data-name="Trazado 1567" d="M414.135,209.32h-6.248l.735-1.691h5.954Z" fill="#333132"/>
            <path id="Trazado_1568" data-name="Trazado 1568" d="M406.711,209.32h-4.778l.735-1.691h4.778Z" fill="#333132"/>
            <path id="Trazado_1569" data-name="Trazado 1569" d="M400.684,209.32h-4.558l.735-1.691h4.631Z" fill="#333132"/>
            <path id="Trazado_1570" data-name="Trazado 1570" d="M394.656,209.32h-4.69l.956-1.691h4.631Z" fill="#333132"/>
            <path id="Trazado_1571" data-name="Trazado 1571" d="M402.815,207.409H390.981l.808-1.4H403.4Z" fill="#333132"/>
            <path id="Trazado_1572" data-name="Trazado 1572" d="M400.537,205.865h-8.674l.661-1.25h8.527Z" fill="#333132"/>
            <path id="Trazado_1573" data-name="Trazado 1573" d="M399.728,204.4H392.6l.735-1.4h6.983Z" fill="#333132"/>
            <path id="Trazado_1574" data-name="Trazado 1574" d="M397.6,202.925h-4.19l.735-1.25h4.117Z" fill="#333132"/>
            <path id="Trazado_1575" data-name="Trazado 1575" d="M402.962,202.925h-4.116l.661-1.25h4.117Z" fill="#333132"/>
            <path id="Trazado_1576" data-name="Trazado 1576" d="M408.343,202.925H404.3l.588-1.25h3.97Z" fill="#333132"/>
            <path id="Trazado_1577" data-name="Trazado 1577" d="M414.062,202.925h-4.249l.515-1.25h4.116Z" fill="#333132"/>
            <path id="Trazado_1578" data-name="Trazado 1578" d="M419.575,202.925h-4.337l.294-1.25H419.8Z" fill="#333132"/>
            <path id="Trazado_1579" data-name="Trazado 1579" d="M425.088,202.925h-4.411l.148-1.25h4.263Z" fill="#333132"/>
            <path id="Trazado_1580" data-name="Trazado 1580" d="M430.454,202.925h-4.19v-1.25h4.19Z" fill="#333132"/>
            <path id="Trazado_1581" data-name="Trazado 1581" d="M435.967,202.925H431.7v-1.25h4.263Z" fill="#333132"/>
            <path id="Trazado_1582" data-name="Trazado 1582" d="M441.333,202.925h-4.322v-1.25h4.263Z" fill="#333132"/>
            <path id="Trazado_1583" data-name="Trazado 1583" d="M446.846,202.925h-4.263l-.074-1.25h4.263Z" fill="#333132"/>
            <path id="Trazado_1584" data-name="Trazado 1584" d="M452.447,202.925H448.11l-.147-1.25h4.264Z" fill="#333132"/>
            <path id="Trazado_1585" data-name="Trazado 1585" d="M457.946,202.925h-4.337l-.294-1.25h4.278Z" fill="#333132"/>
            <path id="Trazado_1586" data-name="Trazado 1586" d="M463.311,202.925h-4.248l-.368-1.25h4.264Z" fill="#333132"/>
            <path id="Trazado_1587" data-name="Trazado 1587" d="M471.691,202.925h-7.2l-.441-1.25h6.836Z" fill="#333132"/>
            <path id="Trazado_1588" data-name="Trazado 1588" d="M405.315,204.4h-4.043l.588-1.25H405.9Z" fill="#333132"/>
            <path id="Trazado_1589" data-name="Trazado 1589" d="M410.681,204.4h-4.043l.588-1.25H411.2Z" fill="#333132"/>
            <path id="Trazado_1590" data-name="Trazado 1590" d="M416.429,204.4h-4.19l.441-1.25h4.043Z" fill="#333132"/>
            <path id="Trazado_1591" data-name="Trazado 1591" d="M422.148,204.4h-4.337l.294-1.25h4.043Z" fill="#333132"/>
            <path id="Trazado_1592" data-name="Trazado 1592" d="M427.661,204.4H423.4v-1.25h4.264Z" fill="#333132"/>
            <path id="Trazado_1593" data-name="Trazado 1593" d="M433.247,204.4h-4.263v-1.25h4.263Z" fill="#333132"/>
            <path id="Trazado_1594" data-name="Trazado 1594" d="M438.687,204.4h-4.264v-1.25h4.264Z" fill="#333132"/>
            <path id="Trazado_1595" data-name="Trazado 1595" d="M444.361,204.4h-4.41v-1.25h4.263Z" fill="#333132"/>
            <path id="Trazado_1596" data-name="Trazado 1596" d="M450.08,204.4H445.6l-.147-1.25h4.411Z" fill="#333132"/>
            <path id="Trazado_1597" data-name="Trazado 1597" d="M455.814,204.4h-4.337l-.294-1.25h4.263Z" fill="#333132"/>
            <path id="Trazado_1598" data-name="Trazado 1598" d="M461.474,204.4h-4.337l-.368-1.25h4.264Z" fill="#333132"/>
            <path id="Trazado_1599" data-name="Trazado 1599" d="M466.987,204.4h-4.411l-.441-1.25h4.278Z" fill="#333132"/>
            <path id="Trazado_1600" data-name="Trazado 1600" d="M472.573,204.4h-4.41l-.588-1.25h4.19Z" fill="#333132"/>
            <path id="Trazado_1601" data-name="Trazado 1601" d="M406.138,205.865h-4.411l.588-1.25h4.411Z" fill="#333132"/>
            <path id="Trazado_1602" data-name="Trazado 1602" d="M411.93,205.865h-4.322l.662-1.25h4.116Z" fill="#333132"/>
            <path id="Trazado_1603" data-name="Trazado 1603" d="M417.664,205.865h-4.411l.368-1.25h4.19Z" fill="#333132"/>
            <path id="Trazado_1604" data-name="Trazado 1604" d="M423.544,205.865h-4.557l.22-1.25h4.337Z" fill="#333132"/>
            <path id="Trazado_1605" data-name="Trazado 1605" d="M429.131,205.865h-4.337v-1.25h4.337Z" fill="#333132"/>
            <rect id="Rectángulo_939" data-name="Rectángulo 939" width="4.41" height="1.25" transform="translate(430.454 204.615)" fill="#333132"/>
            <path id="Trazado_1606" data-name="Trazado 1606" d="M440.451,205.865h-4.484v-1.25h4.41Z" fill="#333132"/>
            <path id="Trazado_1607" data-name="Trazado 1607" d="M446.184,205.865H441.7l-.073-1.25h4.41Z" fill="#333132"/>
            <path id="Trazado_1608" data-name="Trazado 1608" d="M451.991,205.865h-4.483l-.148-1.25h4.411Z" fill="#333132"/>
            <path id="Trazado_1609" data-name="Trazado 1609" d="M457.725,205.865h-4.543l-.294-1.25H457.3Z" fill="#333132"/>
            <path id="Trazado_1610" data-name="Trazado 1610" d="M463.532,205.865h-4.41l-.441-1.25h4.336Z" fill="#333132"/>
            <path id="Trazado_1611" data-name="Trazado 1611" d="M473.529,205.865h-8.747l-.588-1.25h8.453Z" fill="#333132"/>
            <path id="Trazado_1612" data-name="Trazado 1612" d="M408.622,207.409h-4.41l.588-1.25h4.337Z" fill="#333132"/>
            <path id="Trazado_1613" data-name="Trazado 1613" d="M414.576,207.409h-4.557l.515-1.25h4.483Z" fill="#333132"/>
            <path id="Trazado_1614" data-name="Trazado 1614" d="M420.457,207.409h-4.484l.368-1.25h4.189Z" fill="#333132"/>
            <path id="Trazado_1615" data-name="Trazado 1615" d="M426.264,207.409l-4.41.073.073-1.323h4.411Z" fill="#333132"/>
            <rect id="Rectángulo_940" data-name="Rectángulo 940" width="4.337" height="1.25" transform="translate(427.661 206.159)" fill="#333132"/>
            <rect id="Rectángulo_941" data-name="Rectángulo 941" width="4.337" height="1.25" transform="translate(433.321 206.159)" fill="#333132"/>
            <path id="Trazado_1616" data-name="Trazado 1616" d="M443.626,207.409h-4.484l-.073-1.25h4.41Z" fill="#333132"/>
            <path id="Trazado_1617" data-name="Trazado 1617" d="M449.566,207.409h-4.558l-.22-1.25h4.41Z" fill="#333132"/>
            <path id="Trazado_1618" data-name="Trazado 1618" d="M451.624,209.32h-6.175l-.294-1.617h5.954Z" fill="#333132"/>
            <path id="Trazado_1619" data-name="Trazado 1619" d="M457.8,209.32h-4.851l-.515-1.617h4.7Z" fill="#333132"/>
            <path id="Trazado_1620" data-name="Trazado 1620" d="M463.679,209.32h-4.616l-.294-.956h4.41Z" fill="#333132"/>
            <path id="Trazado_1621" data-name="Trazado 1621" d="M475.661,209.32H471.03l-.515-.956H475Z" fill="#333132"/>
            <path id="Trazado_1622" data-name="Trazado 1622" d="M469.707,209.32h-4.852l-.808-1.691h4.778Z" fill="#333132"/>
            <path id="Trazado_1623" data-name="Trazado 1623" d="M455.52,207.409h-4.411l-.367-1.25h4.41Z" fill="#333132"/>
            <path id="Trazado_1624" data-name="Trazado 1624" d="M461.327,207.409h-4.469l-.368-1.25h4.41Z" fill="#333132"/>
            <path id="Trazado_1625" data-name="Trazado 1625" d="M474.5,207.409H462.591l-.588-1.25h11.614Z" fill="#333132"/>
            <path id="Trazado_1626" data-name="Trazado 1626" d="M398.331,201.455h-4.116l.441-.809h4.131Z" fill="#333132"/>
            <path id="Trazado_1627" data-name="Trazado 1627" d="M403.624,201.455h-4.043l.368-.809h4.042Z" fill="#333132"/>
            <path id="Trazado_1628" data-name="Trazado 1628" d="M409.284,201.455h-4.263l.367-.809h4.263Z" fill="#333132"/>
            <path id="Trazado_1629" data-name="Trazado 1629" d="M415.017,201.455h-4.41l.368-.809h4.263Z" fill="#333132"/>
            <path id="Trazado_1630" data-name="Trazado 1630" d="M420.53,201.455h-4.336l.22-.809h4.263Z" fill="#333132"/>
            <path id="Trazado_1631" data-name="Trazado 1631" d="M426.264,201.455h-4.337l.074-.809h4.263Z" fill="#333132"/>
            <rect id="Rectángulo_942" data-name="Rectángulo 942" width="4.263" height="0.809" transform="translate(427.514 200.646)" fill="#333132"/>
            <rect id="Rectángulo_943" data-name="Rectángulo 943" width="4.263" height="0.809" transform="translate(433.027 200.646)" fill="#333132"/>
            <path id="Trazado_1632" data-name="Trazado 1632" d="M442.73,201.455h-4.249v-.809h4.19Z" fill="#333132"/>
            <path id="Trazado_1633" data-name="Trazado 1633" d="M448.537,201.455h-4.411l-.073-.809h4.263Z" fill="#333132"/>
            <path id="Trazado_1634" data-name="Trazado 1634" d="M454.05,201.455h-4.264l-.22-.809h4.263Z" fill="#333132"/>
            <path id="Trazado_1635" data-name="Trazado 1635" d="M459.636,201.455h-4.484l-.22-.809h4.41Z" fill="#333132"/>
            <path id="Trazado_1636" data-name="Trazado 1636" d="M465.3,201.455h-4.337l-.294-.809h4.278Z" fill="#333132"/>
            <path id="Trazado_1637" data-name="Trazado 1637" d="M470.736,201.455h-4.117l-.367-.809h3.969Z" fill="#333132"/>
          </g>
        </g>
      </g>
      <path id="Trazado_5347" data-name="Trazado 5347" d="M414.179,165.782l18.6,11.834a1.213,1.213,0,0,0,.735.235,1.194,1.194,0,0,0,.735-.235l18.6-11.834-18.627-14.246a1.206,1.206,0,0,0-1.47,0Z" fill="#f6d789"/>
      <path id="Trazado_5348" data-name="Trazado 5348" d="M445.56,151.293H421.42a2.419,2.419,0,0,0-2.411,2.419v26.565a1.206,1.206,0,0,0,1.2,1.206h26.551a1.206,1.206,0,0,0,1.213-1.2V153.712a2.419,2.419,0,0,0-2.418-2.419Z" fill="#eceff1"/>
      <path id="Trazado_5349" data-name="Trazado 5349" d="M425.044,158.534H441.95a1.205,1.205,0,1,0,0-2.411H425.044a1.205,1.205,0,0,0,0,2.411Z" fill="#90a4ae"/>
      <path id="Trazado_5350" data-name="Trazado 5350" d="M441.943,160.952H425.036a1.206,1.206,0,0,0,0,2.411h16.907a1.206,1.206,0,1,0,0-2.411Z" fill="#90a4ae"/>
      <path id="Trazado_5351" data-name="Trazado 5351" d="M434.7,165.782h-9.651a1.205,1.205,0,0,0,0,2.411H434.7a1.205,1.205,0,1,0,0-2.411Z" fill="#90a4ae"/>
      <path id="Trazado_5352" data-name="Trazado 5352" d="M434.2,177.616a1.194,1.194,0,0,1-.735.235,1.213,1.213,0,0,1-.735-.235l-18.6-11.834V187.5a2.411,2.411,0,0,0,2.411,2.411h33.821a2.41,2.41,0,0,0,2.411-2.411V165.782Z" fill="#e5b841"/>
      <path id="Trazado_5353" data-name="Trazado 5353" d="M450.389,189.914H416.576a2.389,2.389,0,0,1-2.418-2.359c0-.018,0-.035,0-.052a1.206,1.206,0,0,1,.493-.97l18.105-12.07a1.158,1.158,0,0,1,.735-.235,1.146,1.146,0,0,1,.735.235l18.1,12.07a1.2,1.2,0,0,1,.492.97,2.381,2.381,0,0,1-2.351,2.411Z" fill="#f3c246"/>
      <path id="Trazado_5354" data-name="Trazado 5354" d="M401.617,95.744c-1.264-.735-2.558-1.426-3.874-2.117" fill="none" stroke="#ff7259" stroke-linecap="round" stroke-miterlimit="10" stroke-width="3"/>
      <path id="Trazado_5355" data-name="Trazado 5355" d="M389.621,89.761C371.053,81.726,348.325,77,323.81,77c-26.382,0-50.661,5.462-69.934,14.613" fill="none" stroke="#ff7259" stroke-linecap="round" stroke-miterlimit="10" stroke-width="3" stroke-dasharray="12.25 12.25"/>
      <path id="Trazado_5356" data-name="Trazado 5356" d="M249.818,93.62c-1.316.691-2.609,1.389-3.874,2.117" fill="none" stroke="#ff7259" stroke-linecap="round" stroke-miterlimit="10" stroke-width="3"/>
      <path id="Trazado_5357" data-name="Trazado 5357" d="M245.944,267.75q1.9,1.082,3.874,2.11" fill="none" stroke="#ff7259" stroke-linecap="round" stroke-miterlimit="10" stroke-width="3"/>
      <path id="Trazado_5358" data-name="Trazado 5358" d="M257.941,273.719c18.567,8.034,41.3,12.761,65.84,12.761,26.381,0,50.661-5.462,69.934-14.621" fill="none" stroke="#ff7259" stroke-linecap="round" stroke-miterlimit="10" stroke-width="3" stroke-dasharray="12.25 12.25"/>
      <path id="Trazado_5359" data-name="Trazado 5359" d="M397.743,269.853q1.979-1.021,3.874-2.11" fill="none" stroke="#ff7259" stroke-linecap="round" stroke-miterlimit="10" stroke-width="3"/>
    </g>
  </g>
</svg>
