<svg xmlns="http://www.w3.org/2000/svg" width="417.669" height="235.48" viewBox="0 0 417.669 235.48">
  <g id="Capa_2" data-name="Capa 2" transform="translate(-94.325 -52.5)">
    <g id="Grupo_3542" data-name="Grupo 3542">
      <path id="Trazado_5201" data-name="Trazado 5201" d="M212.527,88.923a86.122,86.122,0,0,0-31.162-5.71A86.991,86.991,0,0,0,113.9,225.158h0c34.915,42.828,100.259,42.828,135.093-.082h0C286.518,178.577,267.266,109.881,212.527,88.923Z" fill="#93d9ff"/>
      <path id="Trazado_5202" data-name="Trazado 5202" d="M225.906,239.271c-.408-.489-.245-.245-.489-.489v6.526c1.142-.734,2.365-1.387,3.507-2.2l-2.692-4C226.151,239.108,226.069,239.189,225.906,239.271Z" fill="#93d9ff"/>
      <path id="Trazado_5203" data-name="Trazado 5203" d="M136.9,239.271c-.082-.082-.245-.163-.326-.245l-2.693,4.079c1.143.734,2.285,1.469,3.427,2.121v-6.363C137.231,239.026,136.986,239.189,136.9,239.271Z" fill="#93d9ff"/>
      <path id="Trazado_5204" data-name="Trazado 5204" d="M223.3,189.182c-.082-.163-.164-.408-.245-.571A4.106,4.106,0,0,1,223.3,189.182Z" fill="#002b75"/>
      <path id="Trazado_5205" data-name="Trazado 5205" d="M223.7,190.324c0-.081-.081-.163-.081-.244C223.622,190.161,223.7,190.243,223.7,190.324Z" fill="#002b75"/>
      <path id="Trazado_5206" data-name="Trazado 5206" d="M223.459,189.672c-.082-.163-.082-.327-.163-.408A1.417,1.417,0,0,1,223.459,189.672Z" fill="#002b75"/>
      <path id="Trazado_5207" data-name="Trazado 5207" d="M224.274,192.119c-.081-.163-.081-.326-.163-.408C224.193,191.793,224.193,191.956,224.274,192.119Z" fill="#002b75"/>
      <path id="Trazado_5208" data-name="Trazado 5208" d="M224.111,191.458c-.081-.163-.081-.408-.163-.571A1.513,1.513,0,0,0,224.111,191.458Z" fill="#002b75"/>
      <path id="Trazado_5209" data-name="Trazado 5209" d="M224.438,192.69c0-.081-.082-.245-.082-.326A.49.49,0,0,0,224.438,192.69Z" fill="#002b75"/>
      <path id="Trazado_5210" data-name="Trazado 5210" d="M223.051,188.53a2.891,2.891,0,0,0-.326-.734C222.806,188.04,222.969,188.285,223.051,188.53Z" fill="#002b75"/>
      <path id="Trazado_5211" data-name="Trazado 5211" d="M222.4,186.98c-.081-.245-.245-.408-.326-.653A1.641,1.641,0,0,0,222.4,186.98Z" fill="#002b75"/>
      <path id="Trazado_5212" data-name="Trazado 5212" d="M222.725,187.714a2.452,2.452,0,0,0-.327-.653A4.684,4.684,0,0,0,222.725,187.714Z" fill="#002b75"/>
      <path id="Trazado_5213" data-name="Trazado 5213" d="M221.99,186.164a2.024,2.024,0,0,0-.326-.571A3.583,3.583,0,0,0,221.99,186.164Z" fill="#002b75"/>
      <path id="Trazado_5214" data-name="Trazado 5214" d="M225.5,238.374" fill="#002b75"/>
      <path id="Trazado_5215" data-name="Trazado 5215" d="M224.764,193.995c0-.081-.082-.244-.082-.326Z" fill="#002b75"/>
      <path id="Trazado_5216" data-name="Trazado 5216" d="M249.074,223.853,221.338,185.1C221.5,185.348,220.114,183.309,249.074,223.853Z" fill="#cdf8ff"/>
      <path id="Trazado_5217" data-name="Trazado 5217" d="M216.851,178.74h0c0,.082.082.082.082.164Z" fill="#cdf8ff"/>
      <path id="Trazado_5218" data-name="Trazado 5218" d="M226.232,239.026l2.692,4a87.689,87.689,0,0,0,19.987-18.029l-.408-.653C238.143,231.2,229.495,236.824,226.232,239.026Z" fill="#572f1f"/>
      <path id="Trazado_5219" data-name="Trazado 5219" d="M225.253,197.34c.245,2.529.164.245.164,41.36.163.245,0,.082.489.489,0,0,23.168-15.336,23.25-15.336L221.5,185.185A33.01,33.01,0,0,1,225.253,197.34Z" fill="#0f688f"/>
      <path id="Trazado_5220" data-name="Trazado 5220" d="M114.308,224.424l-.49.734A87.666,87.666,0,0,0,133.8,243.187l2.692-4.079C133.315,236.824,125.81,232.011,114.308,224.424Z" fill="#572f1f"/>
      <path id="Trazado_5221" data-name="Trazado 5221" d="M136.9,239.271c.081-.082.326-.326.326-.408V200.848a32.737,32.737,0,0,1,3.671-15.1q-13.582,19.089-27.247,38.178C99.991,243.015,135.436,238.292,136.9,239.271Z" fill="#0f688f"/>
      <path id="Trazado_5222" data-name="Trazado 5222" d="M162.6,168.951h0a32.492,32.492,0,0,0-15.011,8.076h0A32.561,32.561,0,0,1,162.6,168.951Z" fill="#93d9ff"/>
      <path id="Trazado_5223" data-name="Trazado 5223" d="M206.9,171.317a33.135,33.135,0,0,1,4.324,2.529A33.135,33.135,0,0,0,206.9,171.317Z" fill="#93d9ff"/>
      <path id="Trazado_5224" data-name="Trazado 5224" d="M201.188,169.2l.979.245Z" fill="#93d9ff"/>
      <path id="Trazado_5225" data-name="Trazado 5225" d="M202.167,169.432a4.635,4.635,0,0,1,.979.327C202.82,169.685,202.493,169.522,202.167,169.432Z" fill="#93d9ff"/>
      <path id="Trazado_5226" data-name="Trazado 5226" d="M215.056,176.946c-.245-.245-.489-.408-.734-.653A5.354,5.354,0,0,0,215.056,176.946Z" fill="#93d9ff"/>
      <path id="Trazado_5227" data-name="Trazado 5227" d="M224.356,192.364a33.2,33.2,0,0,0-9.3-15.418h0a32.947,32.947,0,0,0-13.868-7.75l-20.231,23.168-18.682-23.331a32.965,32.965,0,0,0-25.044,31.9V245.3a87.064,87.064,0,0,0,88.186,0C225.5,197.1,225.906,198.074,224.356,192.364Zm-8.729,28.715H195.478V198.156h20.149Z" fill="#2b94ba"/>
      <path id="Trazado_5228" data-name="Trazado 5228" d="M180.957,192.364,201.188,169.2a27.745,27.745,0,0,0-4.568-.9c-7.5,9.79-20.395,11.666-29.124-.163a33.956,33.956,0,0,0-5.139.816Z" fill="#572f1f"/>
      <rect id="Rectángulo_1071" data-name="Rectángulo 1071" width="20.15" height="22.923" transform="translate(195.478 198.156)" fill="#0f688f"/>
      <ellipse id="Elipse_793" data-name="Elipse 793" cx="3.589" cy="6.037" rx="3.589" ry="6.037" transform="translate(201.27 143.009)" fill="#572f1f"/>
      <ellipse id="Elipse_794" data-name="Elipse 794" cx="3.589" cy="6.037" rx="3.589" ry="6.037" transform="translate(155.015 143.009)" fill="#572f1f"/>
      <ellipse id="Elipse_795" data-name="Elipse 795" cx="23.005" cy="30.592" rx="23.005" ry="30.592" transform="translate(158.604 117.149)" fill="#633e31"/>
      <path id="Trazado_5229" data-name="Trazado 5229" d="M181.283,166.169c3.916,0,7.1-2.2,7.1-4.976H174.1C174.1,163.975,177.286,166.169,181.283,166.169Z" fill="#fff"/>
      <path id="Trazado_5230" data-name="Trazado 5230" d="M181.283,146.272c-.734.082-3.181,3.1-3.1,6.69.082,1.468.082,2.529,1.061,3.508,1.713,1.631,4.65,2.121,5.139-1.224.326-2.529-2.529-4.731-3.018-7.505A9.371,9.371,0,0,1,181.283,146.272Z" fill="#572f1f"/>
      <circle id="Elipse_796" data-name="Elipse 796" cx="1.795" cy="1.795" r="1.795" transform="translate(170.025 144.804)"/>
      <circle id="Elipse_797" data-name="Elipse 797" cx="1.795" cy="1.795" r="1.795" transform="translate(188.625 144.804)"/>
      <path id="Trazado_5231" data-name="Trazado 5231" d="M193.846,140.064c-.489.571-1.468.164-2.039.571-.327.245-.571.9-1.387.245-.571-.408-.653-.652-1.55-.489a1.416,1.416,0,0,1-.816.081c-.245-.081-.571-.326-.571-.571s.163-.489.082-.652a1.122,1.122,0,0,1-.245-.327c-.082-.326.408-1.06,1.468-.979.408,0,.327-.081.49-.326a1.145,1.145,0,0,1,.734-.245c.326.082.571.327.9.408.571.163,1.795.082,2.611,1.061C193.764,139.249,194.172,139.665,193.846,140.064Z" fill="#110e0b"/>
      <path id="Trazado_5232" data-name="Trazado 5232" d="M175.083,139.746c-.163.9-.9.49-1.3.571s-.653.49-1.061.571a3.71,3.71,0,0,1-1.3-.244,9.072,9.072,0,0,1-1.387-.408c-.326-.163-.9.081-1.223-.245a1.844,1.844,0,0,1,.081-1.468c.245-.408.571-.408,1.061-.408.734,0,1.958-.49,2.284-.408.734,0,1.305.489,2.039.489.327,0,.735-.081.9.163s.081.49.081.735A1.907,1.907,0,0,1,175.083,139.746Z" fill="#110e0b"/>
      <path id="Trazado_5233" data-name="Trazado 5233" d="M203.717,113.4c-1.224-1.061-4.079-2.04-5.711-1.469a2.351,2.351,0,0,0-1.713,2.284c-1.468-2.936-4.894-7.749-7.994-8.892a5.784,5.784,0,0,0-7.832,5.629,61.022,61.022,0,0,0-9.381-.979c-6.363-.163-5.466,3.1-6.69,4.242a3.081,3.081,0,0,1-1.876.653c-3.344.571-6.037,1.632-7.75,4.65a8.534,8.534,0,0,0-.571,6.037c.408,2.039,1.306,3.915,1.795,5.955a58.632,58.632,0,0,1,1.387,11.91c0,.979,0,6.853,1.958,6.282.9-.245,1.223-2.692,1.386-3.59.9-5.465,4.324-15.581,10.116-16.56,4.161-.653,6.282,4.732,11.258,4.9h.163c4.732-.163,6.771-5.548,10.687-4.9,5.465.979,8.728,11.1,9.626,16.56.163.9.408,3.345,1.305,3.59,1.468.408,3.508-10.442,3.753-11.829.326-2.366,1.386-4.568,1.713-6.853a7.344,7.344,0,0,0-.734-4.731,6.7,6.7,0,0,0-1.387-1.632c-.571-.407-1.469-.489-1.877-.979s.245-2.284.408-2.936C206,117.965,205.756,115.11,203.717,113.4Z" fill="#110e0b"/>
      <rect id="Rectángulo_1072" data-name="Rectángulo 1072" width="22.271" height="13.623" transform="translate(147.591 201.582)" fill="#ffb3e2" stroke="#93d9ff" stroke-miterlimit="10" stroke-width="1"/>
      <path id="Trazado_5234" data-name="Trazado 5234" d="M166.762,205.579H150.691a.472.472,0,0,1-.489-.456v-.033h0a.474.474,0,0,1,.456-.49h16.1a.474.474,0,0,1,.49.457v.033h0C167.333,205.327,167.089,205.579,166.762,205.579Z" fill="#e880ca"/>
      <path id="Trazado_5235" data-name="Trazado 5235" d="M166.762,208.353H150.691a.473.473,0,0,1-.489-.456v-.033h0a.473.473,0,0,1,.456-.49h16.1a.474.474,0,0,1,.49.456v.034h0C167.333,208.108,167.089,208.353,166.762,208.353Z" fill="#e880ca"/>
      <path id="Trazado_5236" data-name="Trazado 5236" d="M166.762,211.208H150.691a.473.473,0,0,1-.489-.456v-.033h0a.474.474,0,0,1,.456-.49h16.1a.474.474,0,0,1,.49.457v.033h0C167.333,210.964,167.089,211.208,166.762,211.208Z" fill="#e880ca"/>
      <path id="Trazado_5237" data-name="Trazado 5237" d="M160.073,202.969h-2.855c-.408-1.468-.9-3.018-1.306-4.487h5.548C160.97,200.032,160.481,201.5,160.073,202.969Z" fill="#cdf8ff"/>
      <path id="Trazado_5238" data-name="Trazado 5238" d="M177.775,146.591c2.121-.979,5.3-1.306,7.342.081.49.327.9-.408.408-.734-2.284-1.55-5.873-1.142-8.239-.082C176.8,146.109,177.286,146.762,177.775,146.591Z"/>
      <path id="Trazado_5239" data-name="Trazado 5239" d="M173.615,150.107h-5.384a3.452,3.452,0,0,1-3.427-3.427h0a3.452,3.452,0,0,1,3.427-3.426h5.384a3.451,3.451,0,0,1,3.426,3.426h0A3.452,3.452,0,0,1,173.615,150.107Z" fill="none" stroke="#000" stroke-miterlimit="10" stroke-width="2"/>
      <path id="Trazado_5240" data-name="Trazado 5240" d="M194.58,149.854h-5.465a3.453,3.453,0,0,1-3.427-3.427h0A3.452,3.452,0,0,1,189.115,143H194.5a3.451,3.451,0,0,1,3.426,3.426h0A3.435,3.435,0,0,1,194.58,149.854Z" fill="none" stroke="#000" stroke-miterlimit="10" stroke-width="2"/>
      <path id="Trazado_5241" data-name="Trazado 5241" d="M456.077,88.923a86.122,86.122,0,0,0-31.162-5.71A86.991,86.991,0,0,0,357.45,225.158h0c34.915,42.828,100.259,42.828,135.093-.082h0C530.068,178.577,510.816,109.881,456.077,88.923Z" fill="#ffa85d"/>
      <path id="Trazado_3311" data-name="Trazado 3311" d="M453.385,234.54h-57.43a5.883,5.883,0,0,1-5.874-5.793V111.765a5.71,5.71,0,0,1,5.543-5.873H453.3c3.344,0,6.363,2.528,6.363,5.873V228.584C459.789,231.847,456.73,234.54,453.385,234.54Z" fill="#404040"/>
      <path id="Trazado_3314" data-name="Trazado 3314" d="M425.241,108.747a1.476,1.476,0,1,1-1.8,1.065v0h0A1.534,1.534,0,0,1,425.241,108.747Z" fill="#5a5a5a"/>
      <path id="Trazado_3317" data-name="Trazado 3317" d="M425.894,221.161a3.907,3.907,0,1,1-4.732,2.855,3.826,3.826,0,0,1,4.571-2.9C425.787,221.133,425.841,221.146,425.894,221.161Z" fill="#5a5a5a"/>
      <rect id="Rectángulo_990" data-name="Rectángulo 990" width="57.512" height="101.156" transform="translate(395.955 114.865)" fill="gray"/>
      <g id="Grupo_3514" data-name="Grupo 3514">
        <g id="Grupo_3512" data-name="Grupo 3512">
          <circle id="Elipse_671" data-name="Elipse 671" cx="7.995" cy="7.995" r="7.995" transform="translate(404.618 181.783)" fill="#48db87"/>
          <path id="Trazado_3320" data-name="Trazado 3320" d="M417.1,193.694l-.327-2.285a.081.081,0,0,0-.081-.081h0L414.571,191h-.082l-1.142,1.142h-.163l-2.937-2.937v-.2h0l1.142-1.142v-.082l-.326-2.121a.082.082,0,0,0-.082-.081h0c-.408-.082-2.284-.327-2.284-.327-1.224,1.224-.326,4.079,2.04,6.363s5.139,3.182,6.363,2.04Z" fill="#f5f5f5"/>
        </g>
        <g id="Grupo_3513" data-name="Grupo 3513">
          <circle id="Elipse_672" data-name="Elipse 672" cx="7.995" cy="7.995" r="7.995" transform="translate(428.749 181.775)" fill="#ff644f"/>
          <path id="Trazado_3321" data-name="Trazado 3321" d="M430.87,190.585l1.876,1.387h.082l1.713-1.3v-1.713c0-.082,0-.082.081-.082h4.161c.082,0,.082,0,.082.082v1.689l1.713,1.3h.081l1.877-1.387c0-1.713-2.611-3.1-5.956-3.1s-5.71,1.387-5.71,3.1Z" fill="#f5f5f5"/>
        </g>
      </g>
      <path id="Trazado_3326" data-name="Trazado 3326" d="M393.181,217.163" opacity="0.25" style="isolation: isolate"/>
      <path id="Trazado_5242" data-name="Trazado 5242" d="M412.923,165.606v-1.713l-1.3,1.795c.407.245.815.571,1.3.816v-.9Z" fill="#002b75"/>
      <path id="Trazado_5243" data-name="Trazado 5243" d="M420.428,144.315c-.082.244-.245.489-.326.734a2.271,2.271,0,0,1,.734-.082A2.844,2.844,0,0,1,420.428,144.315Z" fill="#002b75"/>
      <path id="Trazado_5244" data-name="Trazado 5244" d="M424.711,122.933a23.331,23.331,0,0,0-18.518,37.526c8.157-11.421,7.75-10.85,7.831-10.932a11.969,11.969,0,0,1,1.387-1.957c-.163-.571-.326-.653-.082-1.306.164-.408.408-.815.164-1.223-.327-.735-2.2-.979-2.366-2.285-.082-.9.734-2.447,1.713-2.528h.653a.383.383,0,0,0,.407-.358.208.208,0,0,0,0-.05c0-.163-.081-.245-.081-.327-.326-.652-.653-1.55-.163-2.121s1.468-.489,1.713-1.142c.163-.244.081-.571.081-.9a6.538,6.538,0,0,1,.408-3.753,3.06,3.06,0,0,1,2.2-1.631,6.319,6.319,0,0,0,1.224-.163c.571-.245.489-.49,1.3-.571a3.114,3.114,0,0,1,1.8.163c.326.081.652-.163.978-.245a3.186,3.186,0,0,1,2.448,0,10.91,10.91,0,0,1,2.121.734c1.713.979,3.752,1.958,3.916,4.242a2.438,2.438,0,0,0,.326,1.55c.326.327.9.327,1.223.653.653.652-.081,1.795.327,2.61a4.442,4.442,0,0,0,.734,1.224,1.1,1.1,0,0,1,.163.734c0,1.142-1.468,1.55-1.06,2.774.326.9-.653,1.142-.49,1.876s.408,1.305.082,1.795c-.163.245-.408.326-.571.489a10.486,10.486,0,0,1,1.06,1.55l7.75,10.85a23.233,23.233,0,0,0-18.681-37.281Z" fill="#60a4e8"/>
      <path id="Trazado_5245" data-name="Trazado 5245" d="M429.4,145.049a.482.482,0,0,0-.081-.326.61.61,0,0,0-.163.326C429.238,144.959,429.32,145.049,429.4,145.049Z" fill="#002b75"/>
      <path id="Trazado_5246" data-name="Trazado 5246" d="M436.662,165.851h0v.571a10.623,10.623,0,0,0,1.224-.816l-1.224-1.713Z" fill="#002b75"/>
      <path id="Trazado_5247" data-name="Trazado 5247" d="M436.662,153.7v10.2l1.224,1.713a23.725,23.725,0,0,0,5.465-5.221l-7.75-10.849A8.975,8.975,0,0,1,436.662,153.7Z" fill="#93d9ff"/>
      <path id="Trazado_5248" data-name="Trazado 5248" d="M412.923,153.7a8.6,8.6,0,0,1,.979-4.079l-7.75,10.932a23.294,23.294,0,0,0,5.466,5.139l1.3-1.795Z" fill="#93d9ff"/>
      <path id="Trazado_5249" data-name="Trazado 5249" d="M429.728,161.935h.571a.384.384,0,0,0,.408-.357.414.414,0,0,0,0-.05v-.572a.383.383,0,0,0-.358-.407.209.209,0,0,0-.05,0h-.571a.384.384,0,0,0-.408.357.414.414,0,0,0,0,.05v.572C429.238,161.772,429.483,161.935,429.728,161.935Z" fill="#007aa6"/>
      <path id="Trazado_5250" data-name="Trazado 5250" d="M431.441,161.772H434.7a.082.082,0,1,0,0-.163h-3.264a.082.082,0,0,0-.081.082A.081.081,0,0,0,431.441,161.772Z" fill="#007aa6"/>
      <path id="Trazado_5251" data-name="Trazado 5251" d="M434.786,161.038h-3.263a.082.082,0,1,0,0,.163h3.264a.081.081,0,0,0,.081-.081h0Z" fill="#007aa6"/>
      <path id="Trazado_5252" data-name="Trazado 5252" d="M434.786,160.63h-3.263a.082.082,0,1,0,0,.163h3.264a.081.081,0,0,0,0-.163Z" fill="#007aa6"/>
      <path id="Trazado_5253" data-name="Trazado 5253" d="M424.915,144.478c1.06,0,1.876-.571,1.876-1.3h-3.834C422.957,143.907,423.895,144.478,424.915,144.478Z" fill="#fff"/>
      <path id="Trazado_5254" data-name="Trazado 5254" d="M422.875,138.93a.49.49,0,1,0-.489.49A.53.53,0,0,0,422.875,138.93Z"/>
      <path id="Trazado_5255" data-name="Trazado 5255" d="M427.852,138.93a.49.49,0,1,0-.49.49A.532.532,0,0,0,427.852,138.93Z"/>
      <path id="Trazado_5256" data-name="Trazado 5256" d="M422.06,137.788h0c.652-.407.734-.163,1.06-.244s.408-.408-.082-.49c-.652,0-1.3.327-1.223.653C421.815,137.87,421.9,137.952,422.06,137.788Z" fill="#fbdba4"/>
      <path id="Trazado_5257" data-name="Trazado 5257" d="M424.833,140.48c-.081.327-.489,1.061-.245,1.387a.392.392,0,0,0,.554.018l.017-.018a.924.924,0,0,0,.245-.652,3.962,3.962,0,0,0-.489-2.2c-.082.082,0,.245,0,.326A5.823,5.823,0,0,1,424.833,140.48Z" fill="#d67751"/>
      <path id="Trazado_5258" data-name="Trazado 5258" d="M434.541,147.986c-1.061.815.081,2.2-.245,3.263-.245.815-1.468,1.387-2.773.408a3.6,3.6,0,0,1-.979-1.224c-.082-.245.081-.571-.082-.816s-.326-.245-.571-.408-.326-.734-.326-1.142-.245-.489-.327-1.142.245-1.305.163-1.958a.3.3,0,0,1-.244-.081c-2.284,3.263-6.037,3.263-8.321-.082-.245,0-.49.082-.734.082a1.15,1.15,0,0,0-.164.489c-.163.816.245,1.061.572,1.713a7.232,7.232,0,0,1,.407,1.224h0c.327,2.366-1.876,4-2.936,3.508-.735-.327-.164-1.061-.49-1.55-.245-.327-.734-.327-1.142-.49-1.224-.489-.571-1.3-.979-2.284a8.728,8.728,0,0,0-2.447,6.037v12.808a23.387,23.387,0,0,0,23.657-.082V153.533A8.34,8.34,0,0,0,434.541,147.986Zm-3.834,13.542a.383.383,0,0,1-.358.407.209.209,0,0,1-.05,0h-.571a.383.383,0,0,1-.408-.357.414.414,0,0,1,0-.05v-.572a.383.383,0,0,1,.357-.407.218.218,0,0,1,.051,0h.571a.384.384,0,0,1,.408.357.414.414,0,0,1,0,.05Zm4.079.244h-3.264a.082.082,0,0,1-.081-.082.083.083,0,0,1,.081-.081h3.264a.082.082,0,1,1,0,.163Zm0-.489h-3.264a.082.082,0,0,1,0-.163h3.264a.082.082,0,0,1,.081.082A.083.083,0,0,1,434.786,161.283Zm0-.49h-3.264a.081.081,0,0,1-.082-.081.082.082,0,0,1,.082-.082h3.264a.081.081,0,0,1,0,.163Z" fill="#cdf8ff"/>
      <path id="Trazado_5259" data-name="Trazado 5259" d="M423.936,138.93a1.991,1.991,0,0,1,1.795,0,.09.09,0,0,0,.122-.04.093.093,0,0,0-.041-.123,2.026,2.026,0,0,0-2.039,0C423.691,138.767,423.895,139.012,423.936,138.93Z"/>
      <path id="Trazado_5260" data-name="Trazado 5260" d="M429.32,144.723c-.163-.572-.734-.9-.979-1.387-.408-.9.408-1.877.653-2.611a3.262,3.262,0,0,0-.164-2.61,11.7,11.7,0,0,0-.734-1.061,7.624,7.624,0,0,0-1.06-1.223c-.163-.164-.245-.327-.408-.408a5.6,5.6,0,0,0-.653-.245c-2.366-.734-2.773-2.366-3.426-2.121-.163.081-.245.408-.326.571a14.155,14.155,0,0,1-1.061,1.713,8.09,8.09,0,0,0-.652,5.547,6.276,6.276,0,0,1,.244,2.448,5.615,5.615,0,0,1-.244.652c-.082.163-.164.245-.164.408C422.712,148.312,426.954,148.475,429.32,144.723ZM421.9,138.93a.49.49,0,1,1,.49.49A.532.532,0,0,1,421.9,138.93Zm5.058,0a.49.49,0,1,1,.49.49A.532.532,0,0,1,426.954,138.93Zm-.326-1.794a1.344,1.344,0,0,1,1.06.163c.571.245.408.734.082.571h0c-.653-.408-.734-.163-1.061-.245S426.383,137.217,426.628,137.136Zm-1.713,1.794a3.687,3.687,0,0,1,.489,2.04,1.375,1.375,0,0,1-.245.816c-.163.163-.652.244-.652-.245,0-.653.408-.816.408-1.958v-.653Zm1.876,4.243c0,.734-.816,1.3-1.876,1.3s-1.877-.571-1.877-1.3Zm-3.508-6.037a.212.212,0,0,1-.081.408c-.327.081-.408-.163-1.061.244h0c-.163.082-.245,0-.245,0C421.652,137.3,422.875,136.973,423.283,137.136Z" fill="#de925f"/>
      <path id="Trazado_5261" data-name="Trazado 5261" d="M426.709,137.544c.327.081.408-.163,1.061.244h0c.163.082.245,0,.245,0,.163-.489-1.469-.9-1.55-.489A.261.261,0,0,0,426.709,137.544Z" fill="#fbdba4"/>
      <path id="Trazado_5262" data-name="Trazado 5262" d="M427.974,150.515h0c-1.224,4-3.345,11.339-3.263,11.257.408-.408,5.139-5.547,6.852-7.423.245-.245.734-.653.734-.979a1.04,1.04,0,0,0-.081-.49c-.082-.081-.082-.244-.163-.326a13.244,13.244,0,0,0-.9-1.387c-.244-.326-.489-.734-.734-1.06l1.469-.653a13.855,13.855,0,0,0-.735-4.079c.082.082.245.082.327.163a12.708,12.708,0,0,0-1.877-.652C429.4,145.865,428.178,149.454,427.974,150.515Z" fill="#93d9ff"/>
      <path id="Trazado_5263" data-name="Trazado 5263" d="M421.448,150.515h0c1.223,4,3.344,11.339,3.263,11.257-.653-.652-5.384-5.792-6.934-7.586-.245-.327-.653-.653-.653-1.061a2.285,2.285,0,0,1,.571-1.061l.49-.734c.244-.408.571-.815.815-1.223l-1.468-.653a13.886,13.886,0,0,1,.734-4.079c-.081.082-.245.082-.326.163a12.7,12.7,0,0,1,1.876-.652C420.02,145.865,421.162,149.454,421.448,150.515Z" fill="#93d9ff"/>
      <path id="Trazado_5264" data-name="Trazado 5264" d="M421.448,150.6h0c1.142,3.753,3.018,10.279,3.263,11.176,0,0,1.8-6.363,3.263-11.094h0c.408-1.224.653-2.121,1.8-5.629-.245-.082-.49-.082-.735-.163-2.284,3.263-6.036,3.263-8.321-.082a5.591,5.591,0,0,0-1.06.163C420.917,148.72,421.081,149.536,421.448,150.6Z" fill="#fff"/>
      <path id="Trazado_5265" data-name="Trazado 5265" d="M416.349,149.943c.408.164.9.164,1.142.49s-.081.816.163,1.224a1,1,0,0,0,1.387.244,3.426,3.426,0,0,0,1.558-4.588q-.078-.158-.171-.306a1.633,1.633,0,0,1-.408-1.469,4.807,4.807,0,0,1,.49-1.142c.734-1.468.489-2.039.163-3.589a7.257,7.257,0,0,1,.571-5.384c.326-.653.816-1.142,1.142-1.713.081-.245.163-.572.326-.653h0c.245-.163.571.163.734.408,1.469,1.713,2.937,1.631,3.263,1.958.164.081.245.326.408.408a14.03,14.03,0,0,1,1.061,1.223,4.911,4.911,0,0,1,.734,1.061,3.262,3.262,0,0,1,.163,2.61c-.163.408-.408.816-.571,1.3-.571,1.55.49,1.877.816,2.611s-.163,1.631-.082,2.366c.082.571.408.734.327,1.142a1.156,1.156,0,0,0,.326,1.142c.163.163.408.163.571.408.245.408-.326.734.734,1.713,1.387,1.387,2.855.816,3.182-.082a3.332,3.332,0,0,0-.082-1.55c-.408-1.713.571-1.631.979-2.2s.082-1.224-.081-1.795c-.164-.734.9-1.06.489-1.876-.489-1.224.979-1.632,1.06-2.774a1.086,1.086,0,0,0-.163-.734,4.443,4.443,0,0,1-.734-1.224c-.408-.816.326-1.958-.326-2.61-.326-.327-.9-.327-1.224-.653a2.319,2.319,0,0,1-.326-1.55c-.163-2.366-2.121-3.263-3.916-4.242a21.776,21.776,0,0,0-2.121-.734,4.165,4.165,0,0,0-2.447,0c-.327.081-.571.326-.979.245a3.122,3.122,0,0,0-1.795-.164,1.147,1.147,0,0,0-.734.245,3.428,3.428,0,0,0-.571.408,6.319,6.319,0,0,1-1.224.163,3.011,3.011,0,0,0-2.2,1.632,6.519,6.519,0,0,0-.408,3.752c0,.327.081.653-.082.9-.326.652-1.3.652-1.713,1.142s-.163,1.468.163,2.121a.49.49,0,0,1,.082.326c0,.245-.245.326-.408.408h-.653c-.979.082-1.794,1.632-1.713,2.529.082,1.3,2.04,1.632,2.366,2.284.163.408-.082.816-.163,1.224-.245.652-.082.734.081,1.305C415.778,148.638,415.125,149.454,416.349,149.943Z" fill="#fbdba4"/>
      <path id="Trazado_5266" data-name="Trazado 5266" d="M389.535,74.8c-1.4-.815-2.831-1.582-4.291-2.349" fill="none" stroke="#ff7259" stroke-linecap="round" stroke-miterlimit="10" stroke-width="3"/>
      <path id="Trazado_5267" data-name="Trazado 5267" d="M376.221,68.162C355.615,59.245,330.4,54,303.16,54c-29.278,0-56.223,6.061-77.613,16.218" fill="none" stroke="#ff7259" stroke-linecap="round" stroke-miterlimit="10" stroke-width="3" stroke-dasharray="12.25 12.25"/>
      <path id="Trazado_5268" data-name="Trazado 5268" d="M221.077,72.445c-1.469.767-2.9,1.542-4.3,2.349" fill="none" stroke="#ff7259" stroke-linecap="round" stroke-miterlimit="10" stroke-width="3"/>
      <path id="Trazado_5269" data-name="Trazado 5269" d="M216.778,265.694c1.4.816,2.83,1.583,4.3,2.341" fill="none" stroke="#ff7259" stroke-linecap="round" stroke-miterlimit="10" stroke-width="3"/>
      <path id="Trazado_5270" data-name="Trazado 5270" d="M230.091,272.318c20.606,8.917,45.822,14.162,73.069,14.162,29.278,0,56.215-6.061,77.605-16.226" fill="none" stroke="#ff7259" stroke-linecap="round" stroke-miterlimit="10" stroke-width="3" stroke-dasharray="12.25 12.25"/>
      <path id="Trazado_5271" data-name="Trazado 5271" d="M385.244,268.027q2.193-1.134,4.291-2.341" fill="none" stroke="#ff7259" stroke-linecap="round" stroke-miterlimit="10" stroke-width="3"/>
    </g>
  </g>
</svg>
