<svg xmlns="http://www.w3.org/2000/svg" xmlns:xlink="http://www.w3.org/1999/xlink" viewBox="0 0 1893.48 1358.7"><defs><style>.cls-1{isolation:isolate;}.cls-2,.cls-29,.cls-30{fill:#fff;}.cls-2{opacity:0.7;}.cls-3{fill:#00b3bf;}.cls-4{fill:#eae9f3;}.cls-5{fill:#676e9c;}.cls-6{fill:#6cbde1;}.cls-7{fill:url(#linear-gradient);}.cls-8{opacity:0.32;mix-blend-mode:screen;fill:url(#linear-gradient-2);}.cls-9{fill:#afd6ff;}.cls-10{fill:url(#linear-gradient-3);}.cls-11{fill:#87a2c2;}.cls-12{fill:#badcff;}.cls-13{fill:#7696b5;}.cls-14{fill:#8088c2;}.cls-15{fill:#8792ce;}.cls-16{fill:#370c62;opacity:0.28;}.cls-17,.cls-23{fill:#fd5e5a;}.cls-18{fill:#26004a;}.cls-19{fill:#130025;}.cls-20{fill:#fc7575;}.cls-21{fill:#00158e;}.cls-22,.cls-31{fill:#000f6b;}.cls-23{opacity:0.53;mix-blend-mode:multiply;}.cls-24{fill:#320063;}.cls-25{fill:#7881b6;}.cls-26{fill:#2c46e6;}.cls-27{fill:#7686e6;}.cls-28{fill:#fd6100;}.cls-29{opacity:0.66;}.cls-31{opacity:0.44;}.cls-32{fill:#0021db;}.cls-33{fill:#00123f;}.cls-34{fill:#03257d;}.cls-35{fill:#001b5e;}.cls-36{fill:#be4800;}.cls-37{fill:#fd7b2a;}.cls-38{fill:#ab3400;}.cls-39{fill:#2134ad;}.cls-40{fill:#cbd4ff;}.cls-41{fill:#727586;}.cls-42{fill:#dfe5ff;}.cls-43,.cls-44{fill:#6b9ece;}.cls-44{opacity:0.18;}.cls-45{fill:#ff1f20;}</style><linearGradient id="linear-gradient" x1="1036.45" y1="1197.53" x2="983.72" y2="386.05" gradientUnits="userSpaceOnUse"><stop offset="0" stop-color="#0082c1"/><stop offset="1" stop-color="#8ddcff"/></linearGradient><linearGradient id="linear-gradient-2" x1="1022.74" y1="1157.11" x2="990.64" y2="663.12" xlink:href="#linear-gradient"/><linearGradient id="linear-gradient-3" x1="1085.71" y1="1058.86" x2="1097.43" y2="504.17" gradientUnits="userSpaceOnUse"><stop offset="0" stop-color="#6ea7e8"/><stop offset="1" stop-color="#9ad2ff"/></linearGradient></defs><g class="cls-1"><g id="Layer_1" data-name="Layer 1"><path class="cls-2" d="M391.45,1301.25S270.73,1194.83,110.76,841.6,11.68,72.45,299.17,32.46,809.9,162.75,809.9,162.75s320.66-102.44,576.61-32.38,230.76,413.36,230.76,413.36,161.4,95.33,227.27,311.93-160.73,444.67-160.73,444.67Z"/><rect class="cls-3" x="283.01" y="1291.08" width="1533.85" height="30.55" rx="15.06"/><path class="cls-4" d="M1500.2,1100.81H472.86c-17.8,0-32.23-13.46-32.23-30.06L421.09,367.41c0-16.6,14.43-30.06,32.22-30.06H1529.52c17.8,0,32.22,13.46,32.22,30.06l-29.31,703.34C1532.43,1087.35,1518,1100.81,1500.2,1100.81Z"/><path class="cls-5" d="M1549.23,343.63a28.5,28.5,0,0,1,5.41,16.68l-29.31,703.33c0,16.61-14.43,30.07-32.23,30.07H465.76a33.55,33.55,0,0,1-19.71-6.28,32.85,32.85,0,0,0,26.81,13.38H1500.2c17.8,0,32.23-13.46,32.23-30.07l29.31-703.33A29.34,29.34,0,0,0,1549.23,343.63Z"/><path class="cls-6" d="M485.31,1018.47,465.77,388c0-16.61,14.42-30.07,32.22-30.07h998.08c17.8,0,32.23,13.46,32.23,30.07L1499,1018.47c0,16.61-14.43,30.07-32.22,30.07H517.54C499.74,1048.54,485.31,1035.08,485.31,1018.47Z"/><path class="cls-7" d="M483.84,1033.94,464.3,403.49c0-16.61,14.43-30.07,32.23-30.07h998.08c17.79,0,32.22,13.46,32.22,30.07l-29.31,630.45c0,16.6-14.43,30.06-32.23,30.06H516.07C498.27,1064,483.84,1050.54,483.84,1033.94Z"/><path class="cls-8" d="M1325.4,749.34c-121.1,213-332,119-619,75.15C610,809.74,535.65,841.1,479.36,889.25l4.48,144.69c0,16.6,14.43,30.06,32.23,30.06h949.22c17.8,0,32.23-13.46,32.23-30.06l20.09-432.07C1429.05,644.07,1357.24,693.34,1325.4,749.34Z"/><path class="cls-9" d="M1459.76,1025.92h-18a1,1,0,0,1,0-2h16.12l.25-5.44a1,1,0,0,1,1-.93,1,1,0,0,1,.93,1Zm-41.42,0H1394.9a1,1,0,0,1,0-2h23.44a1,1,0,0,1,0,2Zm-46.87,0H1348a1,1,0,0,1,0-2h23.44a1,1,0,0,1,0,2Zm-46.88,0h-23.44a1,1,0,0,1,0-2h23.44a1,1,0,0,1,0,2Zm-46.87,0h-23.44a1,1,0,0,1,0-2h23.44a1,1,0,0,1,0,2Zm-46.88,0H1207.4a1,1,0,0,1,0-2h23.44a1,1,0,0,1,0,2Zm-46.87,0h-23.44a1,1,0,0,1,0-2H1184a1,1,0,0,1,0,2Zm-46.88,0h-23.44a1,1,0,0,1,0-2h23.44a1,1,0,0,1,0,2Zm-46.87,0h-23.44a1,1,0,0,1,0-2h23.44a1,1,0,0,1,0,2Zm-46.88,0H1019.9a1,1,0,0,1,0-2h23.44a1,1,0,0,1,0,2Zm-46.87,0H973a1,1,0,0,1,0-2h23.44a1,1,0,0,1,0,2Zm-46.88,0H926.15a1,1,0,0,1,0-2h23.44a1,1,0,1,1,0,2Zm-46.88,0H879.28a1,1,0,0,1,0-2h23.43a1,1,0,0,1,0,2Zm-46.87,0H832.4a1,1,0,0,1,0-2h23.44a1,1,0,1,1,0,2Zm-46.87,0H785.53a1,1,0,0,1,0-2H809a1,1,0,0,1,0,2Zm-46.88,0H738.65a1,1,0,0,1,0-2h23.44a1,1,0,1,1,0,2Zm-46.87,0H691.78a1,1,0,0,1,0-2h23.44a1,1,0,0,1,0,2Zm-46.88,0H644.9a1,1,0,0,1,0-2h23.44a1,1,0,1,1,0,2Zm-46.87,0H598a1,1,0,0,1,0-2h23.44a1,1,0,0,1,0,2Zm-46.88,0H551.15a1,1,0,0,1,0-2h23.44a1,1,0,1,1,0,2Zm-46.87,0h-6l-.76-24.38a1,1,0,0,1,.95-1,1,1,0,0,1,1,.94l.69,22.48h4.13a1,1,0,0,1,0,2Zm932.5-29.79h0a1,1,0,0,1-.93-1l1.09-23.41a1,1,0,0,1,1-.93,1,1,0,0,1,.93,1l-1.09,23.41A1,1,0,0,1,1460.22,996.13Zm-939-17.07a1,1,0,0,1-1-.94l-.73-23.43a1,1,0,1,1,2-.06l.73,23.43a1,1,0,0,1-.95,1Zm941.2-29.76h0a1,1,0,0,1-.93-1l1.09-23.41a1,1,0,0,1,1-.93,1,1,0,0,1,.93,1l-1.09,23.41A1,1,0,0,1,1462.39,949.3ZM519.74,932.21a1,1,0,0,1-1-.94L518,907.84a1,1,0,1,1,2-.06l.73,23.43a1,1,0,0,1-1,1Zm944.83-29.73h0a1,1,0,0,1-.93-1l1.09-23.41a1,1,0,0,1,1-.93,1,1,0,0,1,.93,1l-1.09,23.41A1,1,0,0,1,1464.57,902.48ZM518.29,885.36a1,1,0,0,1-1-1L516.59,861a1,1,0,0,1,.94-1,1,1,0,0,1,1,.94l.73,23.43a1,1,0,0,1-.95,1Zm948.46-29.71h0a1,1,0,0,1-.93-1l1.09-23.41a.94.94,0,0,1,1-.93,1,1,0,0,1,.93,1l-1.09,23.41A1,1,0,0,1,1466.75,855.65ZM516.84,838.51a1,1,0,0,1-1-1l-.72-23.43a1,1,0,0,1,2-.06l.72,23.43a1,1,0,0,1-.94,1Zm952.08-29.68h0a1,1,0,0,1-.93-1l1.09-23.41a1,1,0,0,1,1-.93,1,1,0,0,1,.93,1l-1.09,23.41A1,1,0,0,1,1468.92,808.83ZM515.38,791.65a1,1,0,0,1-1-.94l-.73-23.43a1,1,0,0,1,1-1,1,1,0,0,1,1,1l.73,23.43a1,1,0,0,1-1,1ZM1471.1,762h0a1,1,0,0,1-.93-1l1.09-23.41a1,1,0,0,1,1-.93,1,1,0,0,1,.93,1l-1.09,23.41A1,1,0,0,1,1471.1,762ZM513.93,744.8a1,1,0,0,1-1-.94l-.73-23.43a1,1,0,0,1,.95-1,1,1,0,0,1,1,1l.73,23.42a1,1,0,0,1-.95,1Zm959.35-29.62h0a1,1,0,0,1-.93-1l1.09-23.42a1,1,0,1,1,1.95.1l-1.09,23.41A1,1,0,0,1,1473.28,715.18ZM512.48,698a1,1,0,0,1-1-1l-.72-23.42a1,1,0,1,1,2-.06l.73,23.42a1,1,0,0,1-1,1Zm963-29.59h0a1,1,0,0,1-.93-1l1.09-23.41a1,1,0,0,1,1-.93,1,1,0,0,1,.93,1l-1.09,23.41A1,1,0,0,1,1475.46,668.36ZM511,651.1a1,1,0,0,1-1-1l-.72-23.43a1,1,0,0,1,.94-1,.94.94,0,0,1,1,.94l.72,23.43a1,1,0,0,1-.94,1Zm966.6-29.57h0a1,1,0,0,1-.93-1l1.09-23.41a1,1,0,0,1,1-.93,1,1,0,0,1,.93,1l-1.09,23.41A1,1,0,0,1,1477.63,621.53ZM509.57,604.24a1,1,0,0,1-1-.94l-.73-23.43a1,1,0,0,1,.95-1,1,1,0,0,1,1,.95l.72,23.43a1,1,0,0,1-.94,1Zm970.24-29.53h0a1,1,0,0,1-.92-1l1.08-23.41a1,1,0,0,1,1-.93,1,1,0,0,1,.92,1l-1.08,23.42A1,1,0,0,1,1479.81,574.71ZM508.12,557.39a1,1,0,0,1-1-.94L506.42,533a1,1,0,1,1,1.95-.06l.73,23.42a1,1,0,0,1-1,1ZM1482,527.88h0a1,1,0,0,1-.93-1l1.09-23.41a1,1,0,0,1,1-.93,1,1,0,0,1,.93,1L1483,527A1,1,0,0,1,1482,527.88ZM506.67,510.54a1,1,0,0,1-1-1L505,486.17a1,1,0,0,1,.94-1,1,1,0,0,1,1,.95l.73,23.42a1,1,0,0,1-.95,1Zm977.5-29.48h-.05a1,1,0,0,1-.93-1l1.09-23.42a1,1,0,0,1,1-.93,1,1,0,0,1,.93,1l-1.09,23.42A1,1,0,0,1,1484.17,481.06ZM505.22,463.69a1,1,0,0,1-1-.95l-.73-23.43a1,1,0,0,1,2-.06l.72,23.43a1,1,0,0,1-.94,1Zm981.12-29.46h0a1,1,0,0,1-.93-1l.92-19.75h-1.63a1,1,0,0,1,0-1.95h3.67l-1,21.79A1,1,0,0,1,1486.34,434.23Zm-982.57-17.4a1,1,0,0,1-1-.94l-.14-4.38h21.08a1,1,0,0,1,0,1.95H504.67l.07,2.37a1,1,0,0,1-.94,1Zm957.45-3.37h-23.43a1,1,0,1,1,0-1.95h23.43a1,1,0,1,1,0,1.95Zm-46.87,0h-23.44a1,1,0,0,1,0-1.95h23.44a1,1,0,1,1,0,1.95Zm-46.88,0H1344a1,1,0,1,1,0-1.95h23.43a1,1,0,1,1,0,1.95Zm-46.87,0h-23.44a1,1,0,0,1,0-1.95h23.44a1,1,0,1,1,0,1.95Zm-46.88,0h-23.43a1,1,0,1,1,0-1.95h23.43a1,1,0,1,1,0,1.95Zm-46.87,0h-23.44a1,1,0,0,1,0-1.95h23.44a1,1,0,1,1,0,1.95Zm-46.88,0h-23.43a1,1,0,1,1,0-1.95H1180a1,1,0,1,1,0,1.95Zm-46.87,0h-23.44a1,1,0,0,1,0-1.95h23.44a1,1,0,1,1,0,1.95Zm-46.88,0h-23.43a1,1,0,1,1,0-1.95h23.43a1,1,0,1,1,0,1.95Zm-46.87,0h-23.44a1,1,0,0,1,0-1.95h23.44a1,1,0,1,1,0,1.95Zm-46.88,0H969a1,1,0,1,1,0-1.95h23.43a1,1,0,1,1,0,1.95Zm-46.87,0H922.16a1,1,0,0,1,0-1.95H945.6a1,1,0,1,1,0,1.95Zm-46.87,0H875.29a1,1,0,1,1,0-1.95h23.44a1,1,0,0,1,0,1.95Zm-46.88,0H828.41a1,1,0,0,1,0-1.95h23.44a1,1,0,1,1,0,1.95Zm-46.87,0H781.54a1,1,0,1,1,0-1.95H805a1,1,0,0,1,0,1.95Zm-46.88,0H734.66a1,1,0,0,1,0-1.95H758.1a1,1,0,1,1,0,1.95Zm-46.87,0H687.79a1,1,0,1,1,0-1.95h23.44a1,1,0,0,1,0,1.95Zm-46.88,0H640.91a1,1,0,0,1,0-1.95h23.44a1,1,0,1,1,0,1.95Zm-46.87,0H594a1,1,0,1,1,0-1.95h23.44a1,1,0,0,1,0,1.95Zm-46.88,0H547.16a1,1,0,0,1,0-1.95H570.6a1,1,0,1,1,0,1.95Z"/><path class="cls-10" d="M964.07,510S978,650.61,972,698.47L937.7,1061.75h295.9s-16.6-309.57-16.6-333S1212.12,510,1212.12,510l-46.39-23.44L1049,485.09Z"/><path class="cls-11" d="M1044.15,487.28l-58.4,16.36s23.38,116.75,37.33,130.7-2.37,24.41,9.35,36.13,76.66,99.77,76.66,99.77Z"/><path class="cls-11" d="M1168.66,491.11l-59.57,279.13s63.34-111.93,68.75-117.35,0-28.32,0-39.06,33.69-104.14,33.69-104.14S1180.77,491.11,1168.66,491.11Z"/><path class="cls-12" d="M1049,485.09l-62.5,6.34s22.6,115,36.55,128.91-2.37,24.41,9.35,36.13,76.66,113.77,76.66,113.77Z"/><path class="cls-12" d="M1165.73,486.55l-56.64,283.69s63.34-125.93,68.75-131.34,0-28.32,0-39.07,34.28-99.61,34.28-99.61S1177.84,486.55,1165.73,486.55Z"/><polygon class="cls-13" points="1100.79 1061.75 1109.09 770.24 1107.38 1061.75 1100.79 1061.75"/><rect class="cls-14" x="909.38" y="1100.81" width="222.66" height="23.44"/><polygon class="cls-15" points="1112.99 1232.49 928.43 1232.49 922.57 1124.25 1118.86 1124.25 1112.99 1232.49"/><path class="cls-16" d="M1118.85,1124.25H922.57l5.86,108.24H952.7c2.39-16.85,7.15-34.79,16.25-49.19,16.46-26,97.69-36.25,148.88-40.16Z"/><path class="cls-5" d="M1279.5,1291.08H777.55a58.59,58.59,0,0,1,58.59-58.59h384.77a58.59,58.59,0,0,1,58.59,58.59Z"/><path class="cls-17" d="M738.16,524.6l-17-61.05-75,19.22s10.69,33.25,18.15,37.82l30.38,18.59h0l67,132.91,48.21-59.56Z"/><path class="cls-18" d="M1092.47,182.7s57.13-7,81.55,4.65,72.26,58.7,59.57,150c0,0,10.25,3.26,13.18,17.23s3.17,38.9-21,62S1160.83,437,1139.84,437s-80.08-17.7-95.22-50.31S1092.47,182.7,1092.47,182.7Z"/><path class="cls-19" d="M1120.14,196c-15.32-1.44-28.08,5.6-38.34,17.15-13,38.15-33.7,103.42-38.51,143.7,2.12,16.2,7.47,32.27,15.18,45,1.34,2.21,2.75,4.33,4.22,6.34,20.25,15.92,50,25.55,68.34,28.16,57-7.65,73-60.24,71.55-118.21-.38-15.62,10.78-64.25-13.39-95.67C1173,201.32,1145,193.53,1120.14,196Z"/><path class="cls-20" d="M1063.19,395.73s2.93,39.55,0,57.62S1049,485.09,1049,485.09l60.06,285.15,56.64-283.69s-14.06-8.62-18.07-33.2-3.9-87.89-3.9-87.89Z"/><path class="cls-21" d="M1109.09,770.24l44.09-220.83c-33.62,3.66-67-.57-91.8-5.68Z"/><path class="cls-22" d="M1153.18,549.41l-.94.1c-11,45.11-36.26,145.14-44.86,153.74-8.26,8.26-33.46-101.94-45.94-159.5l-.06,0,47.71,226.51Z"/><path class="cls-23" d="M1075.87,391c8.63,33.61,29.53,65.16,69.33,54.7l1.42-.41c-2.95-28.1-2.86-79.8-2.86-79.8Z"/><path class="cls-20" d="M1131.05,203.84s34.67-5.37,53.71,22.46S1195,301,1195,312.72s5.62,96.68-49.81,109.87-74.21-47.37-74.21-84S1084.6,208.42,1131.05,203.84Z"/><path class="cls-23" d="M1092.74,236.52c-1.94,4.23-3.76,8.72-5.43,13.38a439.28,439.28,0,0,1,58.15-13.34c7.83,27.08,24.36,45.67,51.52,45.67.26-10.82-.29-23-3.06-34.39C1162.14,234.84,1126.08,216.23,1092.74,236.52Z"/><path class="cls-20" d="M727,467.32c-.67-.82-56.14-53.61-67.11-50.31-18.25,4.76,22.31,35,26.71,40.7a62.62,62.62,0,0,1,5.85,9.78c-1.44.41-2.79.79-4,1.08-10.45,2.51-38.32,7.72-42.29,14.2,0,0-.75,36.51,8.84,36.71s19.3-3.31,29.59-2.27c5.15.52,10.44-2,14.44-4.67.65-.43,1.25-.86,1.82-1.28a7.5,7.5,0,0,0-.32,7.51c4.92,10,38.94-7.24,40.42-13.63S734.84,477,727,467.32Zm-7.79,33a43.89,43.89,0,0,0-13.67,6.15c-1.31-3.44-7.82-21-6.75-28h0c4.73-5,15.08-5.15,20.14-3h0a4.77,4.77,0,0,1,1.41,2.46C721.94,484.61,725.37,498.85,719.2,500.34Z"/><path class="cls-12" d="M722.86,604.72S802,807.84,832.23,823.47,973.46,670.13,973.46,670.13,977.74,510,964.07,510,894.19,576.85,878,617.06c-16.45,40.91-15.87,61.59-38,21.84-22.58-40.61-62.26-95.17-62.26-95.17C755,566.52,722.86,604.72,722.86,604.72Z"/><path class="cls-24" d="M1174,187.72s-19.53-2.44-31.25,6.84S1105.17,208.23,1090,280s-2.93,80.08-2.93,80.08,16.09,33.2-4.65,58.59-61.43,15.8-84.21,2.44C965.1,401.7,971,334.33,984.94,290.25c1.95-6.15,2.91-9.8,5.19-14.95,4.37-9.91,5.83-21.31,12.16-31.73,20.51-33.74,57.85-64.57,123.88-62.91C1126.17,180.66,1156,178.93,1174,187.72Z"/><path class="cls-19" d="M991.59,269.86c-4.12,12.37-3.53,10.55-6.65,20.39q-1,3.15-1.93,6.43c13-7.49,15.55-9.56,30.38-17.14a448.78,448.78,0,0,1,86.07-33.12q.88-2.4,1.8-4.62C1063.14,245.38,1025.3,252.26,991.59,269.86Z"/><path class="cls-3" d="M999.88,244.82c72.45-37.89,121.14-41.3,204.18-35.89v20c-69.72.26-138.6,19.2-196.51,48.73-15.57,8-23.91,13.41-24,13.45Z"/><ellipse class="cls-15" cx="1201.48" cy="221.42" rx="54.87" ry="58.67"/><ellipse class="cls-4" cx="1203.15" cy="221.42" rx="53.19" ry="58.67"/><ellipse class="cls-25" cx="1201.48" cy="221.42" rx="54.87" ry="58.67"/><ellipse class="cls-6" cx="1203.15" cy="221.42" rx="53.19" ry="58.67"/><path class="cls-4" d="M1182.85,210.22c0-19.5,8.63-36.77,21.9-47.44-.53,0-1.06,0-1.6,0-29.37,0-53.19,26.27-53.19,58.67s23.82,58.67,53.19,58.67a49.73,49.73,0,0,0,31.3-11.23C1205.81,267.93,1182.85,242,1182.85,210.22Z"/><path class="cls-15" d="M1212,218.93c0,4.81-3.54,8.71-7.9,8.71s-7.9-3.9-7.9-8.71,3.53-8.71,7.9-8.71S1212,214.12,1212,218.93Z"/><path class="cls-26" d="M588.9,487.53a3.66,3.66,0,0,1-3-5.75L725,280.14a3.67,3.67,0,0,1,6,4.17L591.93,486A3.68,3.68,0,0,1,588.9,487.53Z"/><path class="cls-26" d="M350.16,741.68a3.67,3.67,0,0,1-2.67-6.17l231-246.91a3.66,3.66,0,1,1,5.35,5L352.84,740.52A3.66,3.66,0,0,1,350.16,741.68Z"/><path class="cls-26" d="M581.11,494.78a3.68,3.68,0,0,1-2.13-.69L393.22,360.94a3.67,3.67,0,1,1,4.27-6L583.25,488.13a3.67,3.67,0,0,1-2.14,6.65Z"/><path class="cls-26" d="M680.19,919.66a3.66,3.66,0,0,1-3.56-2.83L577.55,491.94a3.67,3.67,0,1,1,7.14-1.66l99.08,424.88a3.68,3.68,0,0,1-2.74,4.41A4,4,0,0,1,680.19,919.66Z"/><path class="cls-26" d="M622.36,491.11a41.25,41.25,0,1,1-41.24-41.25A41.24,41.24,0,0,1,622.36,491.11Z"/><path class="cls-12" d="M607.4,489.07a26.29,26.29,0,1,1-26.28-26.28A26.29,26.29,0,0,1,607.4,489.07Z"/><rect class="cls-12" x="192.15" y="264.93" width="214.05" height="186.06" rx="19.09"/><path class="cls-26" d="M395.57,266.91a19,19,0,0,1,2,8.46V423.24a19.09,19.09,0,0,1-19.09,19.09H202.58a19.07,19.07,0,0,1-8.46-2A19.09,19.09,0,0,0,211.24,451H387.11A19.09,19.09,0,0,0,406.2,431.9V284A19.08,19.08,0,0,0,395.57,266.91Z"/><rect class="cls-12" x="192.15" y="631.27" width="214.05" height="186.06" rx="19.09"/><path class="cls-26" d="M395.57,633.24a19,19,0,0,1,2,8.46V789.58a19.09,19.09,0,0,1-19.09,19.09H202.58a18.94,18.94,0,0,1-8.46-2,19.09,19.09,0,0,0,17.12,10.63H387.11a19.09,19.09,0,0,0,19.09-19.09V650.36A19.09,19.09,0,0,0,395.57,633.24Z"/><rect class="cls-12" x="597.19" y="128.39" width="244.23" height="186.06" rx="20.39" transform="translate(1438.6 442.84) rotate(180)"/><path class="cls-26" d="M609.32,130.37a17.12,17.12,0,0,0-2.26,8.46V286.7c0,10.55,9.75,19.09,21.78,19.09H829.51a24.25,24.25,0,0,0,9.65-2c-3.56,6.3-11,10.63-19.53,10.63H619c-12,0-21.78-8.55-21.78-19.09V147.48C597.19,140,602.13,133.49,609.32,130.37Z"/><rect class="cls-12" x="571.53" y="851.92" width="244.23" height="186.06" rx="20.39" transform="translate(1387.28 1889.89) rotate(180)"/><path class="cls-26" d="M583.66,1036a17.12,17.12,0,0,1-2.26-8.46V879.66c0-10.54,9.75-19.09,21.78-19.09H803.85a24.26,24.26,0,0,1,9.65,2c-3.56-6.3-11-10.63-19.53-10.63H593.31c-12,0-21.78,8.54-21.78,19.09v147.87C571.53,1026.39,576.47,1032.88,583.66,1036Z"/><path class="cls-27" d="M269.63,320.71a6.32,6.32,0,1,1-6.31-6.31A6.32,6.32,0,0,1,269.63,320.71Z"/><path class="cls-27" d="M340.46,303a4,4,0,1,1-4-4A4,4,0,0,1,340.46,303Z"/><path class="cls-27" d="M295,416.93A55.07,55.07,0,0,1,254.11,325l1.39-1.53,1,1.8A7.82,7.82,0,0,0,259,328l1.44.95-1.15,1.29a47.71,47.71,0,1,0,83.26,35.42,19.76,19.76,0,0,1-15.92-19.37v-35l4.26-6.5,1.29,1.62a5.49,5.49,0,0,0,2.86,1.88l2,.53L334,313.43v32.85a12.39,12.39,0,1,0,24.78,0V313.55l-3.52-4.75,2-.65a5.56,5.56,0,0,0,2.76-2l1.19-1.69,5,6.7v35.16A19.73,19.73,0,0,1,350,365.7,55,55,0,0,1,295,416.93Z"/><path class="cls-27" d="M359.5,303a4,4,0,1,1-4-4A4,4,0,0,1,359.5,303Z"/><polygon class="cls-27" points="317.78 350.71 302.85 350.71 302.85 335.78 286.37 335.78 286.37 350.71 271.43 350.71 271.43 367.19 286.37 367.19 286.37 382.12 302.85 382.12 302.85 367.19 317.78 367.19 317.78 350.71"/><path class="cls-27" d="M756.17,224.19H751.4l-9.88-13.62-7.46,30.74L728.31,188l-15.44,34.74-6.78-12.31-8.65,15.51-11.78-14.4-5.3,26.23-5-45.09-17,30.61H617.67a1.85,1.85,0,0,0-1.85,1.85h0a1.85,1.85,0,0,0,1.85,1.86H662.4l9.25-16.7,7.05,63.89L689,223.42,698.42,235l7.64-13.69,7.38,13.42,11.46-25.77,7,64.91L744.25,223l3.57,4.93h10.83A38.65,38.65,0,0,1,756.17,224.19Z"/><path class="cls-28" d="M792.23,199.26a24,24,0,0,1,18.83-8.78c11.15,0,18.84,9,18.84,19.5,0,12.14-10.48,26.51-37.67,39-27.2-12.49-37.68-26.86-37.68-39,0-10.49,7.69-19.5,18.84-19.5A24.06,24.06,0,0,1,792.23,199.26Z"/><path class="cls-29" d="M738.51,975.36,641.58,963a11.24,11.24,0,0,1-9.72-12.58l6.56-51.24A11.25,11.25,0,0,1,651,889.4l96.93,12.41a11.24,11.24,0,0,1,9.72,12.58l-6.56,51.24A11.25,11.25,0,0,1,738.51,975.36Z"/><path class="cls-27" d="M679.37,909.09l-2.65-6a4.76,4.76,0,0,0-4.36-2.84H627.63a4.78,4.78,0,0,0-4.78,4.78v30.37h.08v57.24a4.78,4.78,0,0,0,4.78,4.78H759.66a4.78,4.78,0,0,0,4.77-4.78v-76a4.78,4.78,0,0,0-4.77-4.78H683.73A4.76,4.76,0,0,1,679.37,909.09Z"/><path class="cls-4" d="M722.47,955.65a26.36,26.36,0,1,1-26.36-26.36A26.36,26.36,0,0,1,722.47,955.65Z"/><polygon class="cls-28" points="716.65 948.45 703.42 948.45 703.42 935.22 688.81 935.22 688.81 948.45 675.57 948.45 675.57 963.06 688.81 963.06 688.81 976.3 703.42 976.3 703.42 963.06 716.65 963.06 716.65 948.45"/><circle class="cls-3" cx="288.76" cy="695.42" r="13.1"/><rect class="cls-27" x="308.71" y="712.72" width="18.98" height="18.27" transform="translate(636.4 1443.71) rotate(180)"/><rect class="cls-27" x="311.52" y="732.05" width="13.37" height="5.13" transform="translate(636.4 1469.23) rotate(180)"/><path class="cls-27" d="M306.61,697.55a19.9,19.9,0,0,0-3.41-11.15V673.8a5.48,5.48,0,0,0,5.48-5.49v-10h19v10a5.49,5.49,0,0,0,5.49,5.49v32.42a5.12,5.12,0,0,1-5.12,5.12H308.32a5.12,5.12,0,0,1-4.75-3.2A19.91,19.91,0,0,0,306.61,697.55Z"/><rect class="cls-27" x="304.13" y="651.57" width="28.15" height="6.73" transform="translate(636.4 1309.88) rotate(180)"/><path class="cls-27" d="M266.72,695.65c-.06.63-.09,1.26-.09,1.9a20,20,0,0,0,15.79,19.55,17.34,17.34,0,0,0-6.24,8.07c-2.2,5.85-1.15,12.44,1.52,18a37.14,37.14,0,0,0,14.95,15.49L290.28,767C257.49,757.64,243.56,721.27,266.72,695.65Z"/><rect class="cls-27" x="275.03" y="758.34" width="27.44" height="18.41" transform="translate(577.51 1535.1) rotate(180)"/><path class="cls-14" d="M252.13,776.76H354a0,0,0,0,1,0,0v3a6.79,6.79,0,0,1-6.79,6.79h-88.3a6.79,6.79,0,0,1-6.79-6.79v-3A0,0,0,0,1,252.13,776.76Z" transform="translate(606.14 1563.34) rotate(180)"/><rect class="cls-30" x="292.15" y="743.53" width="52.41" height="9.21" transform="translate(636.71 1496.26) rotate(180)"/><path class="cls-12" d="M1211.53,509.69s-10.06,111.63,5.14,196.63c3.82,21.36,62.79,30.84,95,55.1,53.7,40.43,91.14,95,100.68,116.68,21.77-9.82,21.64-107.86,9.72-146.8C1409.12,705.42,1211.53,509.69,1211.53,509.69Z"/><polygon class="cls-21" points="1525.15 650.34 1317.42 625.22 1187.3 873.14 1355.77 873.14 1525.15 650.34"/><path class="cls-31" d="M1355.77,873.14l169.39-222.8-207.74-25.12-3.71,7.07c32.48,8.5,95.31,28.43,104.64,57.28,10,30.82-62.56,138.85-94,183.57Z"/><polygon class="cls-32" points="1309.78 613.94 1177.38 868.71 1187.3 873.14 1317.42 625.22 1525.15 650.34 1512.5 640.42 1309.78 613.94"/><polygon class="cls-20" points="1678.85 608.45 1690.48 652.87 1727.88 638.39 1721.16 599.04 1678.85 608.45"/><path class="cls-20" d="M1511.79,507.77c-3.21-4.59-25.12-32.68-28.85-30.07s9.74,21.51,11.75,24.38c0,0-7.69-.6-11.48,8-2.54,5.8,13.43,33.36,20.12,44.32,5.85-1.83,14.48-8.82,14.18-14.85C1517.53,528.22,1514.25,511.29,1511.79,507.77Z"/><path class="cls-23" d="M1711.52,601.19l-32.67,7.26,4.24,16.19c8.17-1.44,16.73-5.88,21.84-14.68A99.62,99.62,0,0,1,1711.52,601.19Z"/><polygon class="cls-20" points="1667.91 1274.36 1663.41 1299.82 1643.38 1301.25 1646.8 1256.63 1667.91 1274.36"/><path class="cls-33" d="M1666.9,1295.9s-18.52.33-22.58-2.87-8.35,3-14.9,11.28-31,7.28-34,13.82c-2.26,5,70.3,3.5,74,3.39C1672,1321.45,1666.9,1295.9,1666.9,1295.9Z"/><polygon class="cls-20" points="1722.3 1270.38 1717.8 1295.84 1697.77 1297.27 1701.18 1252.65 1722.3 1270.38"/><path class="cls-33" d="M1721.29,1291.92s-18.53.33-22.58-2.87-8.35,3-14.9,11.28-29.66,9.5-32.92,15.9,69.7,5.37,71.3,3.34S1721.29,1291.92,1721.29,1291.92Z"/><path class="cls-34" d="M1679.88,924.06l2.1,182.18,14.17,177.15,26.58,4.54s22.13-313,45-347.54-3-91.57-3.16-91.68h0Z"/><path class="cls-35" d="M1755.22,934.17c9.85-14.87,17.13-34.59,15.3-57-.59-7.27-12.26-15.33-13.73-21.47l-76.91,68.4,2.1,182.18,7.89,98.66c14.18-85,40.53-207,45.82-242C1738,959.78,1745.47,948.89,1755.22,934.17Z"/><path class="cls-32" d="M1649.31,838.93s-13.51,166.24-14.59,221.8c-1.12,56.77,6,227.06,6,227.06l31.3.14s46.46-277,54.22-328.8c0,0-4.43,7.46,18.48-27.12s6.12-83.19,6-83.3l-40.69,15.19Z"/><path class="cls-36" d="M1790.38,758.26l-28.88,48.47,12.58,28.86s76.64-60.29,70.06-76.82c-5.55-13.91-82.14-96.14-102.83-118.73a13.87,13.87,0,0,0-14.8-3.72L1691,648.63S1793.52,747.59,1790.38,758.26Z"/><path class="cls-37" d="M1659.87,635.76s-9.11,233.87-32.45,281.28c0,0,105.88-15.6,154.48-15.59,0,0-1.15-198.09-24.64-242S1682.72,623.55,1659.87,635.76Z"/><path class="cls-38" d="M1713.39,722c22.67-12,29.95-28.68,30.38-49.86.31-15.41-51.38-7.36-85.36-5.23-.63,12-1.46,26.85-2.52,43.28C1668.94,724.47,1697,730.68,1713.39,722Z"/><path class="cls-37" d="M1540.31,645.62s73.31,62.83,131.75,60.47,66.09-16.41,71.1-32-28.29-36.94-61.69-43.35-93-5.77-102.13-14.21-56.16-71.87-60.12-82.91l-28.35,12.06Z"/><path class="cls-20" d="M1694.05,536.06s-9.92,4.91-18.36,17.44a84.15,84.15,0,0,1-17.51,19.24l4,6.4s-9,6.52-8.17,16.43c1.91,21.85,35.68,25.68,52.5,13,4.57-3.44,18.74-7.77,23.37-15.54C1742.26,572.2,1738.61,540.15,1694.05,536.06Z"/><path class="cls-24" d="M1710.6,582.79s-11.24-20.81-5.94-35.44c0,0-12.29-.24-22.15-5.82-17.8-10.06,3.83-47.49,30.56-20.8,0,0-2.3-18.1,16.63-14.88s25.85,10.79,22.43,28.76,4.43,10,10.19,20.52-24.58,48.23-38.78,49.62l-14.2,1.39s20.27-11.36,14.58-19.95S1710.6,582.79,1710.6,582.79Z"/><path class="cls-20" d="M1272.33,787.55c3.78-3,35.41,16.64,53.58,28.39,0-.25.07-.49.1-.74-17.09-12.68-47-27.82-40.18-32.17,3.51-2.24,78.64,28,78.65,28,7.91,3.59,8.28,3.93,16.44,7.53-1.94-4.71-21.6-36.71-8.33-35.14l43.88,57.38c7.44,12.2,7.19,19.6,5.34,26-2.28,7.83-13.28,28.84-31.22,33.06-17.27,4.06-64.09-22.38-71.42-29.23-7.87-6.77-61.55-53.69-53-66.77,0,0,44.76,43.69,49.51,38.28.28-1.26-44.25-30.82-47.74-42.37-2.49-8.28,36.44,16.93,53.5,29.57C1306.17,816.8,1269.72,789.63,1272.33,787.55Z"/><path class="cls-26" d="M319.34,861.69H457.12a54.52,54.52,0,0,1,54.52,54.52v350.06a54.53,54.53,0,0,1-54.53,54.53H319.34a54.52,54.52,0,0,1-54.52-54.52V916.21A54.52,54.52,0,0,1,319.34,861.69Z"/><path class="cls-39" d="M457.12,861.69h-7a54.52,54.52,0,0,1,54.53,54.52v350.06a54.52,54.52,0,0,1-54.53,54.52h7a54.53,54.53,0,0,0,54.53-54.52V916.21A54.53,54.53,0,0,0,457.12,861.69Z"/><rect class="cls-40" x="165.68" y="974.83" width="445.09" height="232.82" rx="47.52" transform="translate(1479.47 703.01) rotate(90)"/><path class="cls-14" d="M413.42,893.11H367a2.56,2.56,0,0,1,0-5.12h46.4a2.56,2.56,0,1,1,0,5.12Z"/><path class="cls-14" d="M418.13,910.14H362.32a2.81,2.81,0,0,1,0-5.62h55.81a2.81,2.81,0,0,1,0,5.62Z"/><path class="cls-14" d="M346.82,907.33a3.86,3.86,0,1,1-3.86-3.85A3.85,3.85,0,0,1,346.82,907.33Z"/><circle class="cls-41" cx="388.23" cy="1283.85" r="21.02"/><circle class="cls-42" cx="384.77" cy="1283.85" r="21.02"/><rect class="cls-5" x="284.8" y="945.11" width="206.01" height="305.63" rx="11.19"/><rect class="cls-30" x="240.47" y="999.59" width="294.68" height="196.67" rx="6.13" transform="translate(1485.73 710.12) rotate(90)"/><path class="cls-12" d="M480.48,950.59H295.13c-3.12,0-5.65,3-5.65,6.63v42.66H486.14V957.22C486.14,953.56,483.6,950.59,480.48,950.59Z"/><rect class="cls-43" x="335.41" y="1008.95" width="111.8" height="7.52"/><polygon class="cls-43" points="309.06 1012.71 319.62 1019.86 319.62 1005.56 309.06 1012.71"/><polygon class="cls-43" points="465.84 1012.71 455.28 1019.86 455.28 1005.56 465.84 1012.71"/><path class="cls-3" d="M304.65,963.18h48.56a9.1,9.1,0,0,1,9.1,9.1v4.79a9.1,9.1,0,0,1-9.1,9.1H304.65a9.1,9.1,0,0,1-9.1-9.1v-4.79A9.11,9.11,0,0,1,304.65,963.18Z"/><rect class="cls-43" x="455.25" y="963.18" width="21.18" height="23" rx="4.68"/><rect class="cls-30" x="464.15" y="966.95" width="3.39" height="14.92"/><rect class="cls-30" x="463.85" y="968.05" width="3.97" height="12.73" transform="translate(-508.57 1440.25) rotate(-90)"/><rect class="cls-44" x="299.29" y="1046.82" width="21.75" height="188.1"/><rect class="cls-44" x="325.39" y="1046.82" width="21.75" height="188.1"/><rect class="cls-44" x="351.7" y="1046.82" width="21.75" height="188.1"/><rect class="cls-44" x="378" y="1046.82" width="21.75" height="188.1"/><rect class="cls-44" x="404.31" y="1046.82" width="21.75" height="188.1"/><rect class="cls-44" x="430.61" y="1046.82" width="21.75" height="188.1"/><rect class="cls-44" x="456.92" y="1046.82" width="21.75" height="188.1"/><rect class="cls-43" x="299.29" y="1025.25" width="21.75" height="14.29"/><rect class="cls-43" x="325.39" y="1025.25" width="21.75" height="14.29"/><rect class="cls-43" x="351.7" y="1025.25" width="21.75" height="14.29"/><rect class="cls-43" x="378" y="1025.25" width="21.75" height="14.29"/><rect class="cls-43" x="404.31" y="1025.25" width="21.75" height="14.29"/><rect class="cls-28" x="430.61" y="1025.25" width="21.75" height="14.29"/><rect class="cls-28" x="456.92" y="1025.25" width="21.75" height="14.29"/><rect class="cls-30" x="295.55" y="1068.5" width="185.33" height="4.67"/><rect class="cls-30" x="295.55" y="1096.57" width="185.33" height="4.67"/><rect class="cls-30" x="295.55" y="1124.63" width="185.33" height="4.67"/><rect class="cls-30" x="295.55" y="1152.71" width="185.33" height="4.67"/><rect class="cls-30" x="295.55" y="1180.78" width="185.33" height="4.67"/><rect class="cls-30" x="295.14" y="1208.85" width="185.33" height="4.67"/><path class="cls-45" d="M385.33,1103l-17.84-7.68,22.36,27.37c4.5-10.11,14.47-32.46,19.09-42.84Z"/></g></g></svg>